<?xml version="1.0" standalone="no"?>
<!DOCTYPE svg PUBLIC "-//W3C//DTD SVG 20010904//EN"
 "http://www.w3.org/TR/2001/REC-SVG-20010904/DTD/svg10.dtd">
<svg version="1.0" xmlns="http://www.w3.org/2000/svg"
 width="100.000000pt" height="50.000000pt" viewBox="0 0 100.000000 50.000000"
 preserveAspectRatio="xMidYMid meet">
<metadata>
Created by potrace 1.11, written by Peter Selinger 2001-2013
</metadata>
<g transform="translate(0.000000,50.000000) scale(0.014535,-0.014535)"
fill="#000000" stroke="none">
<path d="M244 3418 c-19 -23 -19 -23 1 -7 11 9 27 19 35 22 13 5 13 6 -1 6 -9
1 -24 -9 -35 -21z"/>
<path d="M4182 3349 c-7 -10 -12 -25 -12 -34 0 -8 -10 -20 -22 -26 -13 -7 -32
-21 -44 -33 -34 -34 -107 -183 -139 -286 -10 -30 -21 -63 -26 -72 -5 -10 -9
-32 -9 -50 0 -18 -5 -51 -11 -73 -18 -69 -39 -178 -44 -225 -3 -25 -7 -56 -9
-70 -2 -14 -5 -31 -5 -37 -1 -20 -29 -15 -41 7 -6 11 -17 20 -24 20 -7 0 -18
11 -25 24 -13 23 -69 56 -96 56 -8 0 -23 9 -34 21 -12 13 -21 17 -26 10 -3 -6
-36 -11 -72 -11 -54 0 -72 -4 -97 -23 -17 -13 -48 -32 -69 -42 -74 -35 -142
-210 -162 -415 -5 -43 -35 -133 -77 -231 -19 -44 -82 -107 -120 -122 -10 -3
-18 -11 -18 -17 0 -5 -4 -10 -10 -10 -5 0 -10 7 -10 15 0 8 -3 15 -7 15 -9 0
-10 15 -13 253 -2 151 0 181 14 196 24 27 41 219 22 249 -3 6 1 13 10 16 13 5
13 9 -3 31 -10 13 -24 25 -30 25 -7 0 -13 9 -13 20 0 10 -10 25 -22 31 -13 7
-27 18 -33 25 -5 7 -38 18 -73 24 -68 12 -78 9 -199 -52 -50 -24 -53 -25 -53
-7 0 10 -4 19 -10 19 -5 0 -10 8 -10 18 -1 38 -97 122 -141 122 -16 0 -29 -3
-29 -7 0 -5 -7 -55 -15 -113 -8 -58 -16 -152 -18 -210 -3 -100 -16 -156 -54
-247 -7 -17 -13 -35 -13 -40 0 -13 -58 -124 -122 -233 -43 -76 -149 -170 -190
-170 -17 0 -25 31 -19 77 1 7 -5 42 -14 78 -8 37 -12 72 -8 78 3 6 7 24 8 41
3 41 51 259 71 318 9 26 13 51 10 56 -3 5 4 29 16 53 11 24 24 75 28 112 5 38
13 74 19 80 25 25 -2 66 -45 67 -11 0 -25 5 -32 12 -7 7 -37 12 -68 12 -50 1
-58 -2 -79 -29 -16 -19 -26 -48 -30 -85 -3 -30 -12 -93 -20 -140 -9 -47 -20
-148 -25 -225 -5 -77 -14 -153 -19 -170 -5 -16 -22 -70 -36 -120 -29 -98 -53
-155 -67 -155 -4 0 -8 -7 -8 -16 0 -31 -157 -148 -184 -138 -35 13 -52 169
-30 270 8 34 14 72 14 85 -1 13 1 60 4 104 2 44 4 100 5 124 0 24 6 51 14 60
14 15 37 102 37 136 0 8 -14 30 -31 49 -41 47 -97 56 -161 26 l-46 -21 4 -250
c2 -138 6 -259 9 -269 3 -11 8 -79 10 -152 3 -146 13 -184 48 -197 13 -5 36
-24 51 -42 24 -29 34 -33 75 -33 52 0 103 18 141 49 47 38 149 139 147 144 -1
3 8 16 20 28 25 25 36 17 47 -32 4 -16 18 -47 32 -67 21 -32 30 -38 60 -38 47
0 112 19 146 42 14 10 32 18 39 18 10 0 89 77 89 87 0 2 20 28 45 59 25 30 45
61 45 68 0 8 6 19 14 25 12 10 13 6 5 -26 -19 -76 -50 -322 -42 -336 3 -4 -1
-14 -7 -22 -6 -8 -9 -23 -5 -35 13 -40 111 -13 117 33 2 23 5 32 16 60 7 16
12 34 12 42 0 8 4 16 10 20 5 3 7 12 4 20 -3 7 3 18 14 24 12 7 22 25 25 48 8
56 25 143 35 185 6 20 8 39 6 41 -3 2 3 53 11 113 15 101 23 134 46 174 4 8
18 34 29 58 12 23 26 42 31 42 5 0 38 29 74 65 73 74 108 85 118 38 8 -36 0
-300 -11 -376 -6 -40 -5 -71 4 -100 14 -46 43 -164 53 -214 6 -33 68 -115 99
-132 12 -7 33 -2 70 15 28 13 52 27 52 32 0 4 13 15 29 25 57 33 119 103 126
141 4 20 13 36 20 36 7 0 20 3 28 6 11 4 17 -4 22 -28 9 -39 52 -135 66 -143
5 -4 9 -16 9 -28 1 -25 22 -57 39 -57 6 0 11 -4 11 -9 0 -5 23 -17 51 -27 28
-11 54 -25 56 -31 3 -7 15 -13 27 -13 11 0 27 -4 35 -9 16 -10 13 -11 129 46
79 40 82 41 93 22 5 -11 11 -30 13 -42 1 -12 15 -49 30 -82 16 -33 37 -79 48
-102 22 -47 50 -57 68 -23 6 11 18 20 28 20 9 0 28 9 42 20 14 11 30 20 35 20
6 0 25 16 43 34 18 18 45 39 60 47 44 22 62 41 62 66 0 12 5 23 10 23 6 0 10
7 10 15 0 9 11 21 25 27 14 6 25 20 25 30 0 11 4 17 9 13 11 -6 71 63 71 81 0
7 4 14 10 16 19 6 90 112 90 134 0 23 24 54 40 54 13 0 29 -34 33 -67 2 -16 6
-33 9 -38 3 -6 9 -26 13 -45 7 -34 16 -53 68 -155 36 -70 86 -96 191 -99 69
-3 85 0 130 24 28 15 68 44 90 63 21 19 60 49 87 66 l49 30 25 -37 c14 -20 25
-42 25 -49 0 -12 57 -42 108 -58 32 -9 97 23 156 79 40 37 53 44 76 40 22 -5
36 2 78 41 27 25 67 73 87 106 21 32 42 59 47 59 10 0 38 -61 38 -84 0 -46
116 -116 207 -124 47 -4 56 -1 91 27 22 17 41 29 43 26 11 -10 -46 -428 -75
-555 -8 -36 -18 -94 -21 -130 -3 -36 -9 -71 -14 -78 -4 -7 -41 -14 -88 -17
-44 -3 -100 -12 -124 -20 -106 -38 -195 -110 -235 -194 -16 -31 -33 -62 -38
-70 -34 -45 -45 -134 -22 -179 11 -23 28 -123 40 -234 1 -15 15 -42 29 -62 15
-19 27 -39 27 -45 0 -6 7 -19 14 -28 8 -10 24 -29 35 -43 18 -23 25 -25 106
-24 86 2 87 2 126 40 21 21 39 42 39 46 0 4 18 33 40 65 38 56 75 170 95 290
3 23 15 52 26 64 10 12 19 37 19 56 0 18 4 33 9 33 12 0 23 55 22 108 0 23 3
43 7 44 13 2 56 7 118 12 34 3 79 12 100 20 21 8 67 17 101 21 81 8 140 41
229 129 l71 71 2 64 1 64 -54 53 c-53 50 -56 52 -86 41 -16 -6 -30 -15 -30
-20 0 -4 -4 -5 -10 -2 -5 3 -10 -2 -10 -12 0 -11 21 -33 51 -53 79 -53 80 -69
11 -141 -66 -71 -89 -84 -157 -93 -27 -4 -82 -16 -120 -27 -82 -22 -193 -15
-186 11 2 8 12 60 22 115 11 55 24 114 30 130 6 17 11 40 10 53 0 13 6 36 14
52 9 17 15 56 15 92 0 35 5 102 11 148 6 47 14 130 19 185 4 55 10 115 13 133
6 30 63 111 80 112 4 0 7 8 7 19 0 10 7 24 15 31 8 7 15 21 15 31 0 11 4 19 8
19 12 0 83 69 108 105 12 17 32 55 45 85 12 30 25 57 28 60 11 9 52 90 47 90
-3 0 4 21 14 46 27 61 25 81 -10 147 -16 31 -30 67 -30 80 0 38 -64 81 -82 55
-6 -10 -10 -10 -16 0 -18 28 -192 -53 -192 -90 0 -10 -34 -56 -66 -90 -9 -9
-13 -21 -10 -26 6 -10 -10 -107 -39 -237 -8 -38 -15 -84 -15 -101 0 -20 -6
-34 -16 -38 -9 -3 -12 -11 -8 -18 11 -18 5 -76 -12 -117 -8 -18 -14 -47 -14
-63 0 -61 -77 -148 -130 -148 -21 0 -70 58 -70 81 0 8 -4 19 -10 25 -28 28
-45 203 -25 252 8 19 15 49 15 66 0 17 7 40 15 50 8 11 15 31 15 45 0 13 9 35
21 47 23 24 18 44 -20 78 -17 15 -29 17 -74 12 -62 -8 -117 -38 -117 -64 0
-10 -4 -22 -8 -27 -5 -6 -17 -37 -27 -70 -47 -156 -170 -403 -234 -467 -25
-26 -49 -48 -53 -48 -4 0 -30 -22 -57 -50 -33 -33 -58 -50 -75 -50 l-25 0 6
108 c5 93 9 111 29 135 13 16 24 37 24 47 0 11 7 23 16 28 9 5 16 12 16 15 0
18 11 47 18 47 8 0 70 86 70 96 0 3 9 19 21 35 11 16 23 39 26 51 11 42 5 229
-9 245 -7 8 -17 25 -23 37 -23 46 -140 74 -210 50 -22 -8 -47 -14 -56 -14 -9
0 -24 -18 -35 -42 -10 -23 -29 -53 -41 -66 -20 -22 -24 -23 -57 -11 -20 7 -36
17 -36 21 0 4 -7 8 -15 8 -9 0 -19 8 -22 18 -9 23 -51 63 -93 89 -68 41 -273
15 -287 -36 -3 -11 -11 -22 -19 -25 -8 -3 -14 -11 -14 -18 0 -15 -35 -48 -49
-48 -5 0 -19 -21 -31 -47 -12 -27 -43 -93 -70 -148 -27 -55 -54 -117 -61 -137
-7 -21 -17 -38 -21 -38 -4 0 -8 -7 -8 -17 0 -9 -11 -31 -25 -49 -14 -18 -25
-35 -25 -38 0 -3 -14 -36 -32 -73 -34 -74 -64 -113 -85 -113 -7 0 -13 -9 -13
-21 0 -24 -29 -80 -48 -92 -6 -4 -28 -31 -46 -60 -58 -87 -116 -138 -158 -137
-35 1 -73 165 -50 213 5 12 17 38 26 57 23 48 57 107 89 155 15 22 34 51 43
65 9 14 25 37 35 52 11 15 19 34 19 43 0 8 4 15 8 15 10 0 42 65 42 85 0 9 13
29 29 46 17 17 33 44 36 60 4 16 11 31 16 34 5 4 9 14 9 24 0 10 8 29 19 42
10 13 19 27 19 32 4 37 16 88 27 118 8 20 11 39 8 43 -3 3 -1 12 5 19 17 20
42 95 52 155 5 29 18 72 29 95 37 81 43 120 37 223 -8 127 -14 163 -37 196
-11 14 -19 31 -19 37 0 6 -9 15 -19 21 -11 5 -25 16 -33 23 -7 7 -42 19 -78
26 -107 21 -115 21 -128 0z m98 -312 c0 -60 -24 -240 -41 -302 -6 -22 -14 -58
-19 -81 -5 -22 -13 -51 -19 -65 -5 -13 -22 -63 -36 -111 -14 -47 -28 -88 -33
-90 -10 -4 -42 -64 -42 -79 0 -7 -17 -49 -39 -93 -21 -45 -49 -109 -62 -143
-13 -35 -27 -63 -31 -63 -11 0 -10 18 2 25 6 3 10 30 10 59 0 30 7 72 15 95 8
23 14 45 14 49 -2 30 16 102 31 127 9 17 25 64 34 105 9 41 21 91 27 110 9 31
19 83 35 175 3 17 9 39 14 50 4 11 13 40 20 65 16 61 69 167 86 174 8 3 14 15
14 26 0 11 5 20 10 20 6 0 10 -24 10 -53z m2270 -586 c0 -5 -9 -26 -19 -48
-11 -21 -29 -58 -40 -83 -27 -57 -28 -37 -1 25 11 26 20 55 20 66 0 20 19 48
33 49 4 0 7 -4 7 -9z m-1185 -148 c-10 -38 -21 -72 -25 -78 -4 -5 -10 -27 -14
-47 -13 -72 -27 -40 -22 50 5 84 11 106 46 160 15 22 15 22 24 2 6 -13 3 -42
-9 -87z m-364 -18 c37 -74 72 -130 85 -138 8 -4 18 -25 24 -47 8 -30 17 -41
36 -46 21 -5 25 -12 25 -43 0 -20 1 -61 3 -91 3 -48 0 -61 -28 -102 -17 -27
-34 -48 -39 -48 -4 0 -27 -18 -51 -40 -24 -22 -50 -40 -59 -40 -9 0 -19 -9
-22 -20 -9 -28 -67 -50 -131 -50 -75 0 -96 22 -119 125 -9 44 -24 92 -31 107
-10 20 -13 55 -10 130 5 103 19 168 58 263 25 62 92 117 152 125 35 5 44 2 63
-20 13 -14 32 -43 44 -65z m-1356 53 c84 -75 109 -104 119 -134 3 -11 17 -32
31 -48 13 -16 22 -32 20 -36 -3 -5 -8 -89 -11 -187 -5 -155 -8 -181 -25 -203
-11 -14 -29 -39 -42 -57 -26 -38 -55 -52 -117 -60 -47 -5 -53 -3 -90 43 -38
46 -62 86 -65 107 -9 52 -25 119 -31 129 -19 30 -39 175 -30 213 21 92 58 170
105 217 57 59 85 62 136 16z m2417 -1581 c8 -13 -1 -75 -17 -107 -7 -14 -18
-50 -25 -80 -7 -30 -18 -65 -26 -77 -8 -12 -14 -29 -14 -37 0 -8 -18 -58 -40
-112 -22 -54 -40 -105 -40 -114 0 -23 -56 -80 -79 -80 -20 0 -61 43 -61 65 0
7 -7 18 -16 25 -23 20 -39 67 -52 150 -22 147 -20 179 15 240 32 55 70 91 110
104 12 4 26 12 31 19 13 15 204 19 214 4z"/>
<path d="M281 3323 c-20 -13 -44 -26 -53 -29 -10 -4 -18 -10 -18 -15 0 -5 -6
-9 -13 -9 -20 0 -47 -33 -47 -57 0 -11 -9 -31 -19 -45 -43 -54 -71 -138 -71
-209 0 -37 4 -70 9 -73 4 -3 11 -23 14 -45 3 -22 12 -54 21 -71 8 -18 18 -48
22 -69 4 -20 16 -54 28 -76 27 -50 55 -136 63 -195 3 -25 12 -54 19 -65 8 -11
14 -27 14 -37 0 -10 3 -18 8 -18 4 0 13 -15 20 -32 19 -48 34 -80 96 -208 31
-64 56 -123 56 -133 0 -9 13 -39 30 -67 17 -28 30 -54 30 -59 0 -13 27 -62 95
-177 38 -62 65 -119 65 -135 0 -15 5 -29 10 -31 6 -2 12 -23 13 -48 2 -25 10
-56 17 -70 19 -34 22 -59 21 -170 -2 -89 -4 -98 -34 -143 -18 -26 -47 -57 -66
-68 -40 -24 -136 -50 -155 -43 -17 6 -42 79 -51 149 -4 28 -14 58 -22 67 -8 9
-12 25 -9 36 6 18 98 72 122 72 18 0 35 26 28 44 -5 12 -20 16 -68 16 -91 0
-126 -14 -161 -63 -60 -83 -60 -84 -37 -151 11 -34 25 -94 32 -134 28 -170
156 -210 360 -114 30 15 57 30 59 35 2 4 14 12 27 17 13 6 28 20 33 33 5 12
17 29 27 37 9 8 27 38 40 66 32 72 34 270 3 309 -4 6 -11 35 -14 65 -8 68 -29
147 -61 223 -13 32 -24 67 -24 77 0 10 -4 20 -8 22 -8 3 -122 232 -122 245 0
4 -29 65 -65 135 -36 71 -65 136 -65 146 0 9 -10 41 -22 72 -56 144 -92 226
-104 241 -8 8 -14 25 -14 37 0 12 -3 22 -8 22 -17 0 -64 283 -61 368 2 69 10
112 21 112 5 0 22 8 36 19 34 23 85 33 115 22 27 -11 116 -96 140 -133 38 -61
67 -118 67 -132 0 -8 3 -16 8 -18 10 -4 52 -176 52 -213 0 -16 5 -47 11 -67 8
-31 15 -38 35 -38 38 0 83 27 90 55 3 14 10 25 15 25 5 0 9 11 9 24 0 13 11
31 25 42 28 21 28 54 0 154 -8 30 -15 64 -15 74 0 19 -34 76 -70 121 -10 11
-24 39 -33 62 -17 43 -52 90 -96 128 -13 11 -46 42 -74 68 l-50 49 -120 -4
c-102 -3 -124 -6 -156 -25z"/>
</g>
</svg>
