<?xml version="1.0" standalone="no"?>
<!DOCTYPE svg PUBLIC "-//W3C//DTD SVG 20010904//EN"
 "http://www.w3.org/TR/2001/REC-SVG-20010904/DTD/svg10.dtd">
<svg version="1.0" xmlns="http://www.w3.org/2000/svg"
 width="100.000000pt" height="128.877005pt" viewBox="0 0 100.000000 128.877005"
 preserveAspectRatio="xMidYMid meet">
<metadata>
Created by potrace 1.11, written by Peter Selinger 2001-2013
</metadata>
<g transform="translate(0.000000,128.877005) scale(0.053476,-0.053476)"
fill="#000000" stroke="none">
<path d="M490 2343 c-14 -3 -30 -9 -37 -15 -6 -5 -42 -14 -79 -19 -66 -9 -131
-46 -133 -76 -1 -6 -12 -20 -26 -31 -14 -11 -25 -27 -25 -36 0 -9 -7 -27 -15
-40 -24 -36 -38 -204 -23 -261 5 -16 10 -55 13 -85 3 -30 12 -84 21 -120 15
-59 24 -83 69 -185 8 -16 21 -52 30 -80 9 -27 22 -57 30 -65 7 -8 22 -34 34
-57 21 -42 61 -107 81 -130 5 -7 10 -18 10 -25 0 -7 15 -29 33 -48 78 -84 207
-257 207 -277 0 -3 11 -19 25 -35 14 -16 23 -34 19 -39 -3 -5 -1 -9 4 -9 9 0
24 -25 69 -112 8 -15 12 -32 8 -38 -3 -6 0 -7 9 -4 12 4 16 0 16 -16 0 -12 4
-29 9 -39 5 -9 15 -55 21 -101 10 -75 10 -88 -6 -120 -19 -38 -44 -55 -102
-66 -37 -7 -112 20 -112 41 0 7 -7 15 -15 19 -8 3 -15 12 -15 20 0 8 -6 19
-13 23 -17 11 -37 58 -37 88 0 14 -4 25 -10 25 -5 0 -10 10 -10 23 0 12 -4 29
-10 37 -7 12 -12 10 -29 -9 -18 -20 -21 -38 -21 -110 0 -77 3 -91 30 -138 16
-28 39 -55 51 -58 11 -4 29 -15 39 -25 47 -47 192 -54 273 -15 44 22 57 35 82
83 24 45 30 69 30 117 -1 82 -10 155 -23 188 -7 16 -12 32 -12 36 0 5 -7 14
-15 21 -8 7 -15 23 -15 36 0 13 -4 24 -10 24 -5 0 -10 9 -10 20 0 12 -9 30
-20 42 -11 12 -20 29 -20 37 0 9 -9 22 -20 29 -11 7 -20 19 -20 28 0 14 -32
68 -50 84 -3 3 -11 17 -19 32 -8 15 -26 40 -40 55 -15 15 -32 41 -39 57 -15
34 -50 79 -110 143 -23 25 -42 51 -42 58 0 7 -8 23 -18 36 -24 31 -52 88 -52
106 0 7 -4 13 -9 13 -5 0 -12 13 -16 29 -3 16 -13 32 -22 35 -10 4 -13 14 -9
31 4 14 2 25 -3 25 -11 0 -51 84 -51 105 0 7 -7 18 -16 25 -8 7 -14 23 -13 34
2 12 -3 31 -10 44 -6 12 -11 30 -10 40 1 9 0 19 -1 22 -6 12 -10 72 -11 161
-1 100 -3 93 58 204 16 28 37 46 60 50 10 2 19 4 21 5 1 2 14 4 30 5 15 2 43
6 63 10 70 14 118 -44 159 -189 16 -58 19 -84 11 -104 -5 -15 -10 -21 -10 -14
-2 21 -49 14 -65 -10 -20 -28 -21 -102 -2 -117 7 -6 20 -9 29 -5 17 6 93 -29
99 -46 2 -6 33 -13 70 -16 52 -4 73 -1 100 13 65 35 126 112 130 164 3 33 2
34 -31 34 -29 0 -37 -5 -50 -32 -9 -18 -21 -31 -28 -28 -6 2 -14 -3 -17 -12
-4 -8 -13 -13 -20 -10 -8 3 -17 1 -19 -6 -5 -17 -37 10 -37 32 0 9 -6 26 -14
37 -9 12 -17 56 -20 107 -3 48 -12 100 -21 117 -8 16 -15 36 -15 44 0 8 -3 16
-7 18 -5 2 -18 24 -31 49 -20 39 -34 51 -88 78 -69 34 -104 42 -144 34z"/>
<path d="M1495 1770 c-3 -5 -15 -10 -25 -10 -16 0 -20 -11 -26 -70 -4 -39 -11
-73 -15 -76 -5 -3 -7 -10 -4 -15 16 -24 -22 -4 -57 31 -22 22 -47 40 -54 40
-8 0 -14 6 -14 14 0 13 -28 21 -115 32 -60 7 -85 -12 -126 -94 -52 -103 -60
-146 -59 -317 0 -204 14 -246 128 -410 11 -17 61 -35 94 -35 51 0 153 57 182
101 14 21 26 43 26 48 0 6 6 8 13 5 14 -5 42 -88 39 -116 -1 -10 3 -18 8 -18
6 0 10 -6 10 -13 0 -7 15 -24 33 -37 47 -36 132 -35 158 0 28 37 62 141 50
153 -18 18 -56 -2 -79 -43 -20 -36 -25 -39 -42 -27 -24 15 -28 24 -35 106 -3
35 -9 68 -13 75 -4 6 -7 151 -7 321 l0 310 -28 28 c-31 30 -33 31 -42 17z
m-245 -207 c0 -7 5 -13 10 -13 21 0 80 -64 80 -87 0 -12 4 -23 10 -23 5 0 13
-12 16 -27 4 -16 13 -35 21 -44 19 -23 20 -107 1 -144 -9 -16 -19 -46 -22 -65
-13 -63 -58 -136 -77 -124 -5 3 -6 -2 -3 -10 8 -22 -38 -39 -71 -26 -14 5 -25
17 -25 25 0 9 -6 18 -14 21 -34 13 -65 171 -59 299 2 49 7 92 11 95 4 3 8 20
9 39 1 19 8 41 16 50 7 9 19 28 26 42 12 24 16 26 42 16 16 -6 29 -17 29 -24z"/>
</g>
</svg>
