<?xml version="1.0" standalone="no"?>
<!DOCTYPE svg PUBLIC "-//W3C//DTD SVG 20010904//EN"
 "http://www.w3.org/TR/2001/REC-SVG-20010904/DTD/svg10.dtd">
<svg version="1.0" xmlns="http://www.w3.org/2000/svg"
 width="100.000000pt" height="53.595658pt" viewBox="0 0 100.000000 53.595658"
 preserveAspectRatio="xMidYMid meet">
<metadata>
Created by potrace 1.11, written by Peter Selinger 2001-2013
</metadata>
<g transform="translate(0.000000,53.595658) scale(0.013569,-0.013569)"
fill="#000000" stroke="none">
<path d="M4955 3934 c-28 -29 -120 -267 -109 -285 2 -4 0 -10 -6 -14 -5 -3
-10 -15 -10 -26 0 -11 -9 -54 -21 -97 -12 -42 -25 -93 -29 -112 -30 -125 -108
-371 -123 -386 -5 -5 -32 8 -95 48 -28 17 -52 21 -150 23 -64 2 -133 8 -152
14 -19 6 -38 11 -41 11 -11 0 -76 -71 -90 -99 -8 -14 -17 -28 -20 -31 -17 -15
-90 -121 -108 -157 -12 -24 -30 -60 -40 -81 -11 -21 -23 -52 -26 -68 -8 -36
-40 -114 -71 -174 -13 -25 -43 -83 -66 -129 -24 -49 -61 -102 -86 -128 l-45
-44 -61 7 c-34 4 -68 13 -77 20 -8 8 -22 14 -30 14 -8 0 -27 12 -42 26 -21 19
-27 32 -22 48 24 79 52 203 61 271 10 72 26 243 25 270 0 17 -1 115 -1 220 l0
189 -70 68 c-65 63 -95 79 -114 61 -4 -5 -11 -8 -14 -8 -36 -2 -92 -85 -111
-164 -5 -20 -19 -61 -31 -91 -12 -30 -22 -62 -22 -70 0 -8 -9 -35 -20 -60 -11
-25 -33 -76 -49 -115 -35 -87 -58 -133 -70 -140 -5 -4 -9 -17 -9 -30 0 -13 -5
-27 -10 -30 -6 -3 -19 -27 -30 -53 -12 -26 -27 -58 -34 -72 -95 -172 -104
-186 -130 -191 -11 -2 -24 -18 -30 -35 -14 -40 -81 -119 -124 -146 -52 -32
-83 -33 -118 -1 -51 47 -100 130 -63 107 7 -4 9 0 5 14 -7 22 9 68 34 93 55
57 82 93 96 129 9 22 20 40 25 40 5 0 9 6 9 13 0 7 9 30 20 52 11 22 20 44 20
51 0 6 7 17 15 24 8 7 15 21 15 32 0 11 11 38 24 61 40 70 59 169 51 263 -6
80 -8 84 -48 124 -58 59 -138 94 -198 87 -135 -16 -239 -143 -256 -315 -12
-115 -10 -320 4 -382 30 -135 36 -169 40 -231 5 -76 5 -77 -101 -155 -45 -34
-67 -44 -97 -44 -48 0 -59 17 -65 111 -3 39 -11 88 -19 108 -27 68 -23 422 4
455 6 7 15 54 21 106 15 127 14 122 29 149 11 19 10 30 -3 66 -9 23 -26 47
-39 52 -27 13 -87 5 -105 -13 -7 -8 -20 -14 -27 -14 -23 0 -35 -35 -35 -105 0
-64 -11 -120 -65 -325 -13 -52 -36 -140 -49 -195 -44 -178 -79 -250 -155 -322
-39 -37 -44 -38 -59 -20 -34 42 -48 86 -50 162 -2 44 -7 105 -12 135 -19 110
-6 217 49 416 41 144 41 184 0 218 -17 14 -35 26 -40 26 -17 0 -59 -32 -59
-45 0 -6 -10 -20 -21 -31 -12 -10 -36 -42 -54 -70 -60 -93 -142 -119 -213 -68
-45 32 -141 162 -171 230 -5 12 -14 23 -19 25 -5 2 -25 27 -45 54 -27 38 -34
57 -30 78 3 15 9 27 13 27 10 0 46 117 55 176 15 101 11 122 -39 173 -107 108
-186 103 -186 -13 0 -27 -26 -130 -36 -144 -7 -10 -72 21 -99 46 -40 37 -130
87 -186 103 -24 7 -49 16 -55 20 -5 5 -60 8 -121 8 -107 0 -112 -1 -127 -24
-17 -26 -22 -65 -8 -65 5 0 19 -20 31 -45 13 -25 32 -52 44 -60 12 -7 71 -19
131 -25 83 -9 117 -17 140 -34 62 -43 132 -101 179 -150 47 -47 49 -51 44 -95
-8 -74 -37 -261 -53 -331 -8 -36 -14 -87 -14 -113 0 -27 -4 -67 -9 -90 -6 -23
-19 -94 -31 -157 -12 -63 -26 -135 -31 -160 -5 -25 -15 -97 -24 -160 -15 -117
-50 -365 -59 -410 -2 -14 -7 -53 -10 -86 -7 -60 -6 -62 18 -66 14 -3 35 0 48
6 26 13 42 80 57 235 5 53 21 134 35 181 42 137 46 151 61 230 8 41 21 100 29
130 9 30 16 66 16 80 0 14 5 31 11 37 6 6 12 21 15 34 2 13 10 60 18 104 7 44
25 109 40 144 14 36 26 71 26 79 0 26 23 93 31 90 4 -2 29 -23 56 -48 26 -25
66 -58 88 -74 22 -16 52 -42 66 -57 44 -48 107 -70 189 -66 l70 4 1 -196 c1
-108 4 -208 8 -223 3 -15 24 -48 46 -74 22 -26 40 -50 40 -54 0 -3 11 -29 23
-57 37 -78 113 -116 167 -83 66 41 197 169 218 213 13 27 55 66 60 55 1 -2 8
-14 16 -28 40 -69 71 -136 77 -166 12 -67 71 -103 165 -101 47 2 73 8 93 22
16 11 37 25 48 31 11 6 31 22 46 36 63 56 58 56 115 0 68 -66 126 -90 176 -72
20 7 42 17 50 23 32 26 131 55 131 38 0 -6 10 -15 23 -20 12 -5 43 -18 67 -29
62 -27 172 -62 197 -62 28 0 124 50 141 72 7 10 21 18 31 18 10 0 35 18 55 40
40 45 56 48 94 22 72 -50 202 -81 280 -67 56 9 133 86 214 212 15 24 30 43 33
43 7 0 45 -77 45 -94 0 -23 44 -111 72 -144 33 -40 102 -74 119 -58 8 8 13 8
16 0 2 -7 24 -8 71 -2 55 7 72 14 95 39 15 16 32 29 38 29 12 0 119 108 119
120 0 11 29 40 39 40 4 0 13 -26 20 -57 7 -32 16 -67 20 -78 5 -11 13 -32 20
-48 16 -40 68 -69 115 -63 41 5 96 49 122 99 8 15 20 27 27 27 7 0 17 8 22 19
6 10 27 43 47 72 104 149 144 203 154 206 6 2 26 -29 45 -68 48 -100 53 -109
61 -109 5 0 8 -7 8 -15 0 -22 59 -84 99 -104 82 -42 131 -53 185 -40 28 6 65
16 81 22 34 13 185 157 185 177 0 22 29 -10 55 -59 12 -25 39 -63 59 -83 35
-36 40 -38 102 -38 35 0 80 6 98 14 44 19 164 139 172 173 15 63 26 55 61 -50
19 -56 43 -106 52 -112 26 -15 84 -35 106 -35 22 0 151 47 177 64 17 12 187
200 226 251 l23 30 -7 -55 c-3 -30 -10 -62 -14 -70 -4 -8 -11 -40 -14 -70 -8
-61 -19 -115 -47 -235 -21 -84 -22 -96 -39 -240 -11 -93 -33 -235 -53 -340 -6
-33 -12 -62 -12 -65 -11 -62 -17 -70 -51 -70 -44 0 -124 19 -143 34 -22 17
-151 13 -190 -7 -19 -9 -40 -17 -48 -17 -7 0 -21 -4 -31 -9 -9 -5 -37 -18 -62
-29 -25 -12 -74 -45 -110 -75 -61 -51 -67 -59 -93 -138 -28 -83 -36 -102 -83
-209 -82 -188 -73 -380 31 -605 17 -38 35 -82 38 -97 5 -18 33 -46 88 -87 75
-57 84 -61 133 -61 40 0 62 6 90 25 20 14 43 25 50 25 8 0 19 7 26 15 7 8 18
15 24 15 17 0 49 38 75 88 12 24 39 67 61 96 40 52 66 106 81 161 24 96 41
150 48 159 5 6 11 33 15 60 3 27 10 54 15 60 5 6 12 36 16 66 10 80 32 161 61
226 7 17 20 57 29 89 8 33 18 62 22 66 5 3 35 16 68 29 108 41 166 70 171 85
3 8 31 29 63 47 31 17 58 35 59 40 2 4 9 8 17 8 18 0 95 77 95 95 0 9 9 28 20
43 17 24 20 45 22 174 1 109 -2 151 -12 163 -7 8 -10 18 -7 22 16 15 -19 33
-64 33 -44 0 -49 -2 -55 -26 -4 -17 -2 -29 7 -35 11 -6 11 -11 1 -21 -18 -18
-15 -56 8 -75 16 -14 20 -30 20 -85 0 -85 -33 -166 -76 -188 -16 -8 -55 -34
-88 -59 -54 -41 -174 -100 -204 -101 -14 0 -9 54 8 95 7 17 14 65 35 232 2 18
8 40 13 50 11 20 28 114 43 238 5 44 14 89 19 100 5 11 11 34 14 50 3 17 12
64 20 105 9 41 21 104 26 140 6 36 15 74 20 85 5 11 11 45 14 75 2 30 9 66 14
80 62 154 75 197 117 380 14 63 35 145 46 182 12 39 19 86 17 114 -3 46 -4 48
-55 73 -29 14 -53 31 -53 37 0 19 -25 23 -51 10 -20 -9 -28 -29 -50 -118 -15
-58 -34 -116 -43 -129 -9 -13 -16 -33 -16 -44 0 -11 -7 -29 -15 -39 -8 -11
-15 -30 -15 -42 0 -12 -7 -27 -15 -34 -8 -7 -15 -20 -15 -29 0 -9 -4 -21 -9
-26 -5 -6 -18 -37 -31 -70 -12 -33 -38 -87 -59 -120 -20 -33 -52 -91 -70 -129
-43 -89 -127 -227 -150 -246 -10 -8 -29 -34 -41 -57 -27 -49 -49 -61 -67 -37
-11 14 -10 21 2 34 20 22 19 69 -1 77 -9 3 -20 0 -24 -8 -21 -33 -27 16 -21
174 1 45 20 106 57 185 19 41 34 79 34 86 0 7 3 16 7 20 4 3 8 17 10 29 2 12
13 40 24 62 11 22 23 63 26 91 5 47 3 54 -21 75 -14 12 -26 31 -26 42 0 11 -5
17 -12 14 -7 -2 -12 -11 -10 -21 2 -13 -6 -16 -40 -16 -24 0 -50 -6 -58 -13
-31 -25 -70 -79 -64 -89 6 -10 3 -31 -28 -173 -25 -116 -90 -283 -134 -340
-13 -17 -35 -58 -49 -91 -15 -32 -45 -78 -67 -101 -33 -34 -50 -43 -90 -48
-58 -8 -69 -1 -99 64 -12 25 -25 53 -29 62 -5 10 -2 21 8 31 42 37 86 100 120
173 13 28 31 59 41 70 16 17 34 68 56 155 3 14 12 48 19 75 14 51 21 140 18
230 -2 50 -14 74 -67 129 -61 64 -131 85 -191 57 -13 -6 -36 -17 -51 -23 -16
-7 -36 -20 -45 -28 -25 -23 -67 -127 -73 -183 -3 -34 -23 -42 -47 -20 -13 11
-33 24 -44 27 -12 4 -32 16 -45 28 -53 46 -130 90 -142 79 -7 -5 -36 -13 -66
-17 -41 -5 -64 -16 -105 -49 -60 -49 -96 -95 -116 -145 -7 -19 -19 -42 -27
-51 -7 -8 -13 -22 -13 -30 0 -9 -9 -25 -20 -37 -11 -12 -20 -28 -20 -36 0 -26
-53 -139 -98 -211 -43 -67 -90 -167 -117 -250 -15 -45 -37 -98 -45 -105 -3 -3
-25 -31 -49 -63 -40 -55 -44 -57 -56 -40 -13 19 -13 62 1 113 3 14 6 69 5 124
-1 64 4 117 14 152 9 30 18 76 20 102 3 26 11 52 18 57 17 14 34 67 48 150 6
39 22 98 35 132 13 34 24 70 24 81 0 11 9 42 21 69 12 26 21 59 21 73 0 14 8
39 18 55 22 35 44 100 59 170 5 28 26 88 46 135 19 46 35 92 35 102 0 10 14
45 32 78 28 55 30 63 20 98 -20 65 -49 102 -79 102 -16 0 -37 3 -49 6 -13 3
-28 -1 -39 -12z m983 -791 c0 -5 1 -15 5 -23 3 -8 10 -43 17 -78 12 -70 2
-130 -45 -246 -14 -34 -25 -67 -25 -72 0 -17 -38 -85 -43 -77 -5 7 -14 99 -22
203 -4 60 11 149 29 169 7 9 17 27 21 40 17 57 36 91 50 91 8 0 14 -3 13 -7z
m-3350 -74 c7 -11 16 -52 19 -89 8 -91 -21 -186 -123 -405 -49 -107 -51 -104
-53 64 -1 127 2 163 18 210 10 31 25 81 31 112 8 36 24 69 44 92 36 42 46 45
64 16z m752 -251 c2 -95 4 -191 5 -214 2 -56 -11 -173 -24 -206 l-10 -27 -33
17 c-18 9 -35 20 -38 23 -3 3 -19 11 -36 18 -17 6 -45 25 -63 42 -18 16 -37
27 -42 24 -17 -11 -9 30 12 60 11 17 44 81 74 143 31 61 59 112 64 112 5 0 17
26 27 58 10 31 21 59 25 62 4 3 12 18 18 33 6 15 12 27 14 27 2 0 5 -78 7
-172z m2133 127 c18 -8 41 -28 52 -44 10 -17 30 -34 42 -40 13 -6 23 -19 23
-29 0 -25 45 -73 62 -67 20 7 49 -61 65 -150 34 -199 36 -171 -22 -239 -58
-69 -159 -141 -207 -148 -45 -7 -82 5 -87 27 -2 10 -18 41 -37 69 -53 80 -68
158 -60 306 6 116 15 169 37 212 5 10 9 25 9 33 0 26 29 73 47 78 32 8 45 7
76 -8z m-1037 -41 c22 -9 43 -22 47 -30 4 -8 25 -21 45 -29 40 -17 52 -30 52
-60 0 -31 -61 -217 -82 -247 -10 -14 -18 -30 -18 -36 0 -33 -82 -187 -132
-247 -5 -5 -23 -29 -40 -53 -30 -43 -31 -43 -87 -40 -47 3 -56 6 -60 23 -2 11
-13 33 -25 50 -55 78 -98 315 -61 345 8 7 15 18 15 24 0 7 11 27 25 46 14 19
25 41 25 50 0 8 12 29 28 46 28 31 90 105 101 121 9 13 93 51 117 52 6 1 29
-6 50 -15z m-1323 -573 c6 -6 21 -11 33 -11 13 0 26 -4 29 -10 3 -5 23 -17 43
-26 20 -10 38 -18 40 -19 11 -8 -48 -81 -85 -106 -57 -40 -107 -47 -171 -24
l-50 18 -5 55 c-6 52 6 92 26 92 4 0 19 11 34 24 19 18 34 23 61 21 19 -2 40
-9 45 -14z m3382 -1102 c22 -6 63 -16 90 -23 28 -8 49 -17 49 -22 -1 -5 -4
-35 -7 -66 -3 -31 -11 -74 -16 -95 -9 -33 -90 -366 -121 -503 -32 -135 -139
-277 -249 -328 -48 -22 -58 -24 -85 -13 -17 7 -38 13 -46 13 -23 1 -60 39 -76
78 -19 44 -46 198 -38 211 3 6 0 64 -7 130 -15 144 -5 239 35 318 14 29 26 58
26 66 0 49 82 165 117 165 4 0 19 10 33 23 45 42 212 68 295 46z"/>
<path d="M4415 2460 c-3 -5 -1 -10 4 -10 6 0 11 5 11 10 0 6 -2 10 -4 10 -3 0
-8 -4 -11 -10z"/>
<path d="M6302 3563 c2 -11 14 -19 31 -21 23 -3 28 0 25 15 -2 11 -14 19 -31
21 -23 3 -28 0 -25 -15z"/>
<path d="M4060 860 c0 -5 5 -10 10 -10 6 0 10 5 10 10 0 6 -4 10 -10 10 -5 0
-10 -4 -10 -10z"/>
</g>
</svg>
