<?xml version="1.0" standalone="no"?>
<!DOCTYPE svg PUBLIC "-//W3C//DTD SVG 20010904//EN"
 "http://www.w3.org/TR/2001/REC-SVG-20010904/DTD/svg10.dtd">
<svg version="1.0" xmlns="http://www.w3.org/2000/svg"
 width="100.000000pt" height="41.295547pt" viewBox="0 0 100.000000 41.295547"
 preserveAspectRatio="xMidYMid meet">
<metadata>
Created by potrace 1.11, written by Peter Selinger 2001-2013
</metadata>
<g transform="translate(0.000000,41.295547) scale(0.020243,-0.020243)"
fill="#000000" stroke="none">
<path d="M1991 1798 c-5 -13 -16 -30 -26 -38 -9 -7 -26 -32 -37 -54 -24 -48
-72 -111 -110 -145 -16 -14 -28 -31 -28 -38 0 -6 -9 -14 -19 -18 -10 -3 -21
-14 -24 -24 -2 -10 -18 -28 -35 -40 l-31 -21 -34 30 c-19 16 -44 30 -56 30
-12 0 -24 7 -27 15 -4 8 -12 15 -20 15 -7 0 -21 14 -31 31 -16 27 -22 30 -51
25 -92 -14 -80 -82 28 -155 25 -17 50 -31 57 -31 14 0 33 -31 33 -52 0 -22
-207 -228 -229 -228 -4 0 -22 -14 -40 -31 -18 -16 -45 -38 -60 -47 -14 -9 -64
-48 -111 -88 -47 -39 -112 -86 -145 -104 -33 -17 -62 -35 -65 -39 -10 -13
-136 -70 -170 -77 -19 -3 -41 -10 -50 -15 -52 -27 -109 -39 -193 -41 -98 -2
-114 4 -179 62 -9 8 -30 26 -46 38 -55 44 -67 138 -20 163 18 10 24 8 39 -12
10 -13 19 -33 19 -44 0 -29 12 -41 40 -41 45 0 60 32 46 94 -4 17 -12 32 -17
32 -5 0 -9 6 -9 13 0 27 -50 61 -100 67 -53 7 -71 0 -110 -39 -52 -53 -63 -80
-57 -139 4 -33 13 -63 25 -76 11 -11 25 -36 33 -54 8 -18 22 -35 31 -38 10 -3
18 -11 18 -17 0 -7 16 -21 35 -31 19 -11 35 -25 35 -33 0 -7 12 -18 27 -24 16
-7 37 -16 49 -21 26 -12 203 -17 258 -7 23 4 66 16 96 28 30 12 61 21 70 21 8
0 51 25 96 55 45 30 97 58 116 62 18 3 45 12 59 19 28 14 89 79 89 94 0 5 19
19 43 31 23 12 51 30 62 40 72 66 87 79 97 79 6 0 25 15 42 33 53 53 104 87
132 87 12 0 0 -50 -28 -118 -28 -67 -32 -89 -33 -170 0 -75 3 -96 16 -105 9
-7 24 -27 33 -46 l18 -34 92 5 c58 3 103 11 122 21 16 9 44 23 62 32 17 8 32
19 32 24 0 6 9 12 20 16 11 3 63 49 116 101 52 53 98 93 102 89 3 -3 18 -29
32 -58 18 -37 36 -57 65 -73 35 -19 43 -20 80 -9 22 7 58 19 80 25 36 11 56
26 129 98 13 12 28 22 33 22 6 0 16 7 23 15 13 15 31 17 32 2 1 -43 24 -96 53
-124 19 -19 35 -38 35 -43 0 -6 5 -10 10 -10 6 0 28 -11 50 -25 60 -38 125
-36 290 5 25 7 67 19 95 28 27 9 72 18 100 20 35 3 65 14 102 38 28 19 54 34
58 34 4 0 27 -18 52 -40 27 -23 60 -42 82 -46 41 -7 92 -33 104 -51 4 -7 20
-13 34 -13 15 0 45 -9 68 -20 34 -17 62 -20 166 -20 173 -1 358 9 379 20 10 5
44 12 76 15 103 10 201 45 242 85 21 20 44 41 53 46 25 14 159 137 159 146 0
7 21 35 48 63 6 8 12 18 12 23 0 5 8 12 18 14 30 8 46 107 26 157 -14 34 -20
40 -62 48 -74 14 -151 -9 -189 -57 -7 -9 -15 -43 -18 -77 -7 -58 -6 -60 17
-65 35 -7 47 0 62 37 16 36 49 60 73 51 36 -14 -92 -172 -196 -243 -42 -29
-81 -56 -87 -61 -22 -20 -121 -58 -137 -54 -4 1 -17 -2 -27 -8 -28 -15 -119
-22 -330 -24 -102 -1 -190 -5 -196 -8 -6 -4 -27 4 -46 17 -32 22 -95 49 -138
60 -16 4 -52 22 -87 45 -21 14 -21 14 30 61 69 65 134 177 144 250 9 62 -12
104 -63 128 -43 20 -46 21 -94 5 -27 -9 -54 -22 -61 -30 -6 -8 -18 -14 -25
-14 -8 0 -14 -9 -14 -20 0 -11 -4 -20 -9 -20 -5 0 -17 -21 -27 -47 -10 -27
-24 -57 -31 -68 -8 -12 -13 -49 -13 -96 0 -61 -4 -79 -18 -92 -10 -10 -24 -17
-30 -17 -7 0 -12 -4 -12 -8 0 -16 -387 -102 -458 -102 -47 0 -82 10 -82 22 0
6 -11 19 -25 30 -19 15 -25 29 -25 61 0 42 19 107 31 107 14 0 50 142 47 188
-3 46 -4 47 -39 50 -31 3 -42 -2 -73 -35 -20 -21 -36 -43 -36 -50 0 -6 -23
-35 -51 -65 -28 -29 -62 -68 -76 -86 -14 -19 -53 -54 -87 -78 -33 -24 -66 -48
-73 -54 -7 -5 -19 -10 -28 -10 -9 0 -25 -5 -36 -11 -15 -8 -26 -7 -43 4 -21
14 -22 20 -15 69 4 29 12 65 18 81 6 15 8 27 5 27 -4 0 1 11 10 25 25 38 32
108 12 127 -9 9 -16 21 -16 27 0 16 -26 13 -44 -4 -8 -8 -19 -15 -24 -15 -9 0
-49 -68 -98 -164 -12 -23 -34 -53 -49 -66 -15 -14 -42 -38 -60 -55 -120 -112
-126 -117 -217 -181 -58 -41 -152 -55 -168 -25 -32 60 -2 168 109 391 l47 95
80 1 c130 3 164 6 170 15 3 5 13 9 24 9 20 0 34 26 23 43 -8 12 -17 14 -91 22
-44 4 -105 16 -114 21 -8 5 30 79 58 110 11 12 29 40 40 60 10 21 36 56 57 78
20 23 37 45 37 50 0 5 6 14 14 20 7 6 21 30 30 54 22 58 6 95 -42 100 -26 3
-34 -1 -41 -20z m1574 -595 c-13 -69 -71 -153 -95 -138 -24 15 28 141 68 164
29 17 34 12 27 -26z"/>
<path d="M4545 353 c-14 -21 -25 -45 -25 -54 0 -44 87 -105 133 -94 28 7 65
70 60 102 -2 12 -17 35 -34 52 -23 24 -38 31 -69 31 -34 0 -43 -5 -65 -37z"/>
<path d="M2048 346 c-27 -20 -21 -58 18 -120 42 -63 56 -68 122 -36 42 20 42
21 42 74 0 70 -18 86 -102 91 -42 3 -69 0 -80 -9z"/>
<path d="M3725 340 c-3 -5 -19 -10 -35 -10 -40 0 -73 -43 -64 -84 7 -37 23
-55 74 -91 36 -25 39 -25 73 -12 40 17 54 54 42 115 -11 59 -32 92 -60 92 -13
0 -27 -4 -30 -10z"/>
<path d="M2880 333 c-14 -3 -29 -9 -34 -14 -6 -5 -18 -9 -27 -9 -31 0 -39 -57
-14 -107 19 -37 33 -50 60 -53 39 -4 54 0 77 23 54 52 62 104 23 142 -24 25
-35 27 -85 18z"/>
<path d="M1322 317 c-47 -21 -40 -97 16 -157 20 -22 42 -40 50 -40 41 0 82
101 62 151 -8 17 -20 29 -31 29 -11 0 -19 6 -19 13 0 16 -46 18 -78 4z"/>
<path d="M523 249 c-48 -14 -64 -44 -59 -114 7 -86 18 -93 128 -79 57 7 58 7
74 51 14 36 15 50 5 82 -6 21 -17 43 -24 48 -19 16 -88 22 -124 12z"/>
<path d="M4910 161 c0 -10 7 -24 15 -31 13 -11 15 -8 15 19 0 21 -5 31 -15 31
-8 0 -15 -8 -15 -19z"/>
</g>
</svg>
