<?xml version="1.0" standalone="no"?>
<!DOCTYPE svg PUBLIC "-//W3C//DTD SVG 20010904//EN"
 "http://www.w3.org/TR/2001/REC-SVG-20010904/DTD/svg10.dtd">
<svg version="1.0" xmlns="http://www.w3.org/2000/svg"
 width="100.000000pt" height="39.555556pt" viewBox="0 0 100.000000 39.555556"
 preserveAspectRatio="xMidYMid meet">
<metadata>
Created by potrace 1.11, written by Peter Selinger 2001-2013
</metadata>
<g transform="translate(0.000000,39.555556) scale(0.022222,-0.022222)"
fill="#000000" stroke="none">
<path d="M1669 1752 c-19 -10 -52 -33 -73 -52 -38 -37 -116 -144 -116 -160 0
-6 -4 -10 -8 -10 -5 0 -13 -10 -19 -22 -68 -144 -117 -239 -129 -249 -9 -7
-32 -47 -51 -88 -38 -80 -111 -161 -145 -161 -10 0 -33 -15 -51 -33 -17 -18
-48 -39 -67 -47 -19 -8 -49 -22 -66 -31 -57 -31 -69 -37 -106 -54 -84 -36
-128 -47 -241 -60 -83 -10 -132 -12 -168 -5 -28 6 -55 7 -60 5 -13 -8 -86 32
-93 51 -7 19 10 44 30 44 27 0 46 76 26 106 -17 26 -51 26 -85 0 -19 -14 -37
-26 -41 -26 -17 0 -45 -48 -51 -86 -16 -100 24 -149 165 -199 69 -24 83 -26
175 -20 144 9 166 12 200 26 17 7 37 14 45 15 109 18 135 26 168 52 20 16 53
34 72 42 19 7 42 20 50 30 16 17 53 40 65 40 13 0 -6 -94 -31 -154 -13 -33
-24 -66 -24 -73 0 -8 -15 -58 -34 -112 -19 -55 -32 -101 -29 -104 3 -3 -2 -27
-11 -54 -26 -81 -28 -141 -8 -223 15 -59 24 -78 43 -89 22 -12 29 -12 55 2 16
9 36 19 46 23 9 3 19 17 22 30 4 14 22 41 40 62 18 20 40 51 49 67 8 17 24 39
35 51 48 51 167 275 179 336 3 18 9 38 13 43 15 20 43 191 42 250 -2 90 -3 90
145 92 70 1 142 4 158 7 131 20 195 35 195 47 0 5 7 9 16 9 9 0 28 8 42 18 15
10 44 23 65 29 35 10 37 10 37 -11 0 -28 -45 -121 -83 -167 -23 -30 -28 -44
-25 -80 3 -40 6 -44 31 -47 39 -5 79 28 106 87 l24 50 60 -6 c69 -7 121 -36
135 -74 9 -25 100 -79 133 -79 8 0 32 -7 55 -15 33 -11 54 -12 105 -3 35 5 85
9 111 8 27 0 63 5 80 13 36 16 165 47 194 47 11 0 41 20 69 45 64 58 90 59
111 5 11 -27 24 -42 40 -46 13 -3 24 -9 24 -13 0 -32 339 -46 537 -23 149 17
258 47 325 90 31 21 78 50 103 66 28 17 53 43 63 64 9 20 27 46 40 58 24 25
29 71 11 121 -9 28 -16 31 -72 41 l-62 10 -35 -34 c-20 -19 -41 -34 -47 -34
-16 0 -26 -35 -18 -60 8 -24 23 -25 61 -5 34 17 64 20 64 5 0 -15 -31 -62 -55
-82 -101 -88 -288 -135 -555 -140 -95 -2 -142 1 -158 11 -13 7 -35 10 -52 6
-27 -6 -66 8 -83 30 -10 13 1 91 18 130 7 17 24 44 39 60 14 17 26 37 26 46 0
8 7 24 15 35 25 33 19 97 -11 128 -33 32 -37 32 -54 0 -8 -14 -22 -30 -31 -35
-10 -5 -23 -26 -29 -46 -23 -72 -61 -143 -93 -176 -39 -38 -140 -107 -158
-107 -7 0 -20 -7 -30 -16 -9 -8 -46 -22 -81 -30 -34 -8 -81 -22 -102 -31 -31
-14 -69 -18 -177 -18 -149 0 -166 5 -231 62 l-37 32 34 19 c18 11 52 45 75 76
23 31 46 56 50 56 19 0 41 73 41 142 1 69 0 74 -32 101 -34 31 -44 32 -161 11
-36 -6 -37 -6 -44 31 -7 37 -7 37 -47 32 -45 -6 -63 -23 -101 -97 -15 -29 -39
-54 -66 -70 -23 -14 -54 -34 -68 -45 -15 -11 -38 -26 -52 -32 -48 -23 -162
-63 -169 -59 -4 3 -31 -1 -61 -8 -30 -7 -86 -11 -125 -10 -201 5 -214 8 -187
54 23 38 88 115 135 160 20 20 37 41 37 47 0 6 13 26 30 44 16 19 30 39 30 46
0 6 9 18 19 25 14 10 22 31 26 74 6 50 3 67 -15 106 -34 72 -63 87 -121 60z
m11 -159 c0 -14 -62 -102 -76 -107 -8 -3 -12 -10 -9 -16 3 -5 -1 -10 -9 -10
-16 0 -14 14 7 59 23 47 87 102 87 74z m-134 -188 c-15 -23 -36 -34 -36 -18 0
10 43 54 48 48 3 -2 -3 -16 -12 -30z m951 -151 c17 -44 -76 -149 -141 -159
-23 -4 -49 -9 -58 -11 -13 -4 -18 0 -18 15 0 24 41 90 57 91 6 0 25 11 41 25
35 29 81 55 100 55 7 0 15 -7 19 -16z m-1130 -336 c-3 -62 -10 -126 -15 -143
-6 -16 -22 -70 -38 -120 -29 -95 -124 -288 -154 -317 -10 -9 -35 -44 -56 -78
-47 -76 -62 -68 -46 22 14 81 41 188 53 210 5 10 9 26 9 36 0 10 6 24 13 30 6
7 12 16 12 20 4 51 40 150 106 288 16 33 29 65 29 71 0 34 51 90 84 92 5 1 6
-47 3 -111z"/>
<path d="M3470 1707 c-35 -28 -40 -43 -29 -76 15 -43 42 -56 74 -35 31 20 33
61 4 98 -23 29 -28 30 -49 13z"/>
<path d="M4203 509 c-36 -23 -39 -39 -21 -97 13 -41 43 -62 89 -62 25 0 28 4
34 43 8 52 -6 112 -26 112 -8 0 -18 6 -22 13 -11 16 -16 15 -54 -9z"/>
<path d="M2977 483 c-18 -5 -47 -62 -47 -92 0 -9 18 -36 40 -60 34 -37 44 -42
66 -37 49 13 68 52 57 120 -9 54 -58 84 -116 69z"/>
<path d="M3647 436 c-8 -9 -20 -16 -26 -16 -19 0 -23 -47 -7 -79 13 -25 23
-31 49 -31 17 1 43 10 56 20 19 16 22 26 17 53 -9 43 -17 54 -47 62 -18 4 -31
1 -42 -9z"/>
<path d="M1698 415 c-10 -13 -18 -33 -18 -45 0 -27 25 -76 42 -82 28 -10 63 9
80 42 23 46 23 47 -11 81 -36 35 -70 37 -93 4z"/>
<path d="M2295 432 c-11 -4 -22 -14 -25 -22 -8 -25 -1 -123 10 -134 17 -17
110 -9 126 11 47 62 -36 170 -111 145z"/>
<path d="M592 375 c-32 -14 -42 -32 -42 -73 0 -69 31 -100 61 -63 15 18 21 19
47 10 48 -16 101 19 102 68 0 42 -112 81 -168 58z"/>
</g>
</svg>
