<?xml version="1.0" standalone="no"?>
<!DOCTYPE svg PUBLIC "-//W3C//DTD SVG 20010904//EN"
 "http://www.w3.org/TR/2001/REC-SVG-20010904/DTD/svg10.dtd">
<svg version="1.0" xmlns="http://www.w3.org/2000/svg"
 width="100.000000pt" height="49.476440pt" viewBox="0 0 100.000000 49.476440"
 preserveAspectRatio="xMidYMid meet">
<metadata>
Created by potrace 1.11, written by Peter Selinger 2001-2013
</metadata>
<g transform="translate(0.000000,49.476440) scale(0.013089,-0.013089)"
fill="#000000" stroke="none">
<path d="M645 3710 c-33 -8 -94 -39 -165 -85 -25 -16 -51 -28 -58 -27 -7 2
-16 -7 -22 -20 -5 -13 -9 -19 -9 -14 -2 16 -38 -38 -60 -89 -12 -27 -28 -56
-35 -65 -7 -8 -16 -40 -20 -70 -4 -30 -16 -92 -27 -137 -14 -54 -19 -100 -16
-135 16 -176 70 -448 88 -448 5 0 9 -7 9 -15 0 -8 18 -53 40 -100 22 -47 40
-92 40 -101 0 -8 6 -27 14 -42 7 -15 19 -51 26 -80 6 -28 16 -55 21 -58 5 -3
9 -12 9 -20 0 -8 9 -34 20 -56 11 -23 20 -50 20 -59 0 -10 5 -21 10 -24 6 -3
10 -19 10 -36 0 -16 5 -29 10 -29 6 0 10 -11 10 -24 0 -13 6 -37 14 -53 43
-86 67 -312 47 -440 -5 -37 -13 -90 -16 -116 -6 -41 -15 -57 -63 -108 -51 -53
-61 -59 -97 -59 -35 0 -46 6 -90 52 -87 91 -87 92 -74 121 11 24 103 81 124
77 53 -11 98 23 86 66 -7 27 -8 28 -96 30 -97 3 -126 -7 -173 -60 -12 -14 -28
-26 -36 -26 -16 0 -21 -12 -32 -72 -6 -36 13 -128 26 -128 3 0 14 -19 24 -43
39 -89 93 -137 155 -137 16 0 33 -4 36 -10 3 -5 17 -10 31 -10 13 0 24 -5 24
-10 0 -13 51 13 69 34 8 10 29 16 52 16 32 0 46 8 87 48 27 26 58 65 69 87 28
55 55 199 67 358 5 53 -50 338 -74 387 -4 8 -12 40 -19 70 -18 80 -41 157 -67
227 -13 34 -24 68 -24 76 0 8 -13 52 -29 98 -16 46 -39 118 -51 159 -12 41
-26 86 -31 100 -4 14 -11 48 -15 75 -4 28 -11 58 -16 68 -8 15 -19 141 -21
242 -1 58 15 185 24 191 5 3 9 16 9 28 0 13 14 50 31 82 41 79 68 92 238 108
70 7 138 -38 184 -121 10 -17 16 -35 15 -40 -1 -4 4 -19 11 -32 7 -13 17 -69
21 -125 15 -175 17 -182 60 -196 20 -7 46 -9 56 -6 57 19 116 118 96 159 -11
22 -18 66 -27 166 -6 60 -14 92 -52 191 -27 71 -46 98 -80 111 -13 5 -23 15
-23 22 0 15 -107 73 -117 64 -3 -4 -15 -1 -27 5 -24 13 -175 18 -221 8z"/>
<path d="M2588 3663 c-9 -2 -24 -23 -34 -46 -17 -42 -22 -65 -43 -227 -15
-112 -45 -233 -55 -223 -4 4 -27 9 -49 9 -23 1 -60 6 -82 12 -58 16 -120 15
-135 -3 -7 -8 -18 -15 -24 -15 -6 -1 -19 -17 -28 -36 -13 -28 -14 -41 -6 -60
6 -13 18 -24 26 -24 7 0 25 -9 39 -20 14 -11 34 -20 44 -20 10 0 21 -4 24 -10
3 -5 23 -14 44 -20 21 -5 50 -21 65 -35 15 -14 31 -25 35 -25 28 0 17 -101
-19 -185 -10 -22 -21 -75 -25 -115 -6 -64 -13 -83 -46 -132 -21 -32 -39 -63
-39 -69 0 -6 -20 -59 -44 -118 -25 -58 -53 -130 -63 -159 -10 -30 -25 -61 -34
-71 -9 -10 -25 -33 -34 -52 -34 -65 -80 -118 -112 -129 -17 -6 -49 -25 -70
-42 -54 -42 -91 -60 -113 -53 -19 6 -80 115 -80 143 0 8 17 42 38 76 21 34 42
72 46 86 4 14 14 50 22 80 8 30 20 61 27 70 26 32 48 82 82 183 37 110 42 157
24 204 -6 15 -13 41 -15 57 -2 16 -22 53 -45 82 -55 71 -96 83 -227 67 -46 -5
-55 -10 -63 -32 -6 -14 -18 -35 -28 -46 -10 -11 -25 -33 -32 -49 -21 -44 -62
-71 -87 -57 -11 6 -40 11 -65 11 -34 0 -51 -6 -78 -30 -19 -16 -39 -34 -46
-40 -7 -5 -16 -10 -20 -10 -4 0 -25 -16 -46 -35 -21 -19 -42 -35 -47 -35 -12
0 -81 -143 -86 -177 -2 -15 -8 -56 -15 -90 -10 -52 -9 -79 6 -165 9 -57 21
-134 25 -171 5 -38 13 -74 18 -80 5 -7 14 -30 20 -52 14 -49 83 -130 128 -151
28 -14 44 -14 104 -4 38 6 70 16 70 21 0 6 15 16 33 24 18 7 56 38 85 69 28
30 61 57 72 61 23 7 63 -25 65 -52 1 -24 36 -63 54 -63 8 0 22 -7 32 -16 16
-14 72 -20 154 -15 28 2 98 33 108 48 4 7 13 13 20 13 15 1 101 116 125 167 9
21 25 44 34 51 9 6 22 29 29 50 13 39 69 132 81 132 7 0 22 -117 17 -135 -4
-18 48 -114 72 -134 13 -10 44 -27 67 -38 38 -17 50 -18 95 -9 57 12 137 51
137 66 0 6 6 10 13 10 20 1 117 138 117 165 0 8 4 15 9 15 5 0 12 10 15 22 5
19 10 14 26 -32 11 -30 19 -63 20 -72 0 -24 30 -89 54 -115 49 -57 159 -10
243 103 12 16 40 48 62 71 23 23 41 50 41 60 0 27 39 85 51 77 6 -4 8 -19 5
-36 -3 -17 0 -56 8 -87 8 -31 15 -93 16 -139 1 -70 5 -90 27 -126 22 -36 34
-45 63 -50 61 -10 104 9 152 66 24 29 59 68 79 87 19 20 52 65 71 101 20 36
46 74 57 84 12 11 21 26 22 35 0 11 3 8 9 -6 6 -14 4 -52 -5 -105 -8 -46 -15
-100 -15 -120 0 -21 -4 -57 -9 -80 -24 -108 -43 -217 -44 -257 -2 -50 15 -68
56 -57 21 5 29 15 38 51 6 25 19 51 29 58 10 7 23 37 30 72 7 33 19 85 27 115
14 52 20 78 38 158 4 17 8 32 9 32 0 0 22 -7 47 -14 31 -10 59 -12 83 -6 20 4
38 5 40 1 3 -5 11 -36 20 -86 2 -11 16 -40 30 -65 14 -25 26 -53 26 -63 0 -24
39 -62 96 -92 l47 -25 51 52 c28 29 68 64 89 78 20 14 40 33 43 43 3 9 9 17
14 17 13 0 62 92 62 117 0 12 8 30 17 40 9 10 17 25 19 32 2 8 11 24 21 36
l17 23 25 -36 c13 -20 23 -40 21 -44 -1 -5 6 -11 15 -15 10 -3 34 -19 53 -35
19 -16 41 -34 49 -40 43 -36 281 39 281 87 0 8 4 15 10 15 5 0 16 15 25 33 8
17 34 52 58 77 23 25 50 55 58 68 16 21 17 19 23 -65 7 -96 32 -238 47 -265 5
-10 9 -30 9 -46 0 -15 14 -55 30 -90 27 -54 34 -62 59 -62 18 0 41 11 61 30
18 17 35 30 39 30 3 1 26 26 51 56 32 39 53 78 71 136 28 86 43 105 54 66 14
-50 69 -148 84 -148 9 0 25 -7 35 -15 11 -8 35 -15 53 -15 43 0 123 20 123 31
0 4 10 11 22 15 13 4 35 16 50 27 27 20 28 20 45 1 10 -11 27 -18 38 -16 10 2
37 -5 60 -16 22 -11 64 -27 94 -36 l53 -16 62 30 c40 20 85 55 126 97 38 39
66 60 68 53 8 -23 59 -70 76 -70 9 0 16 -4 16 -9 0 -15 75 -61 99 -61 27 0
141 49 141 60 0 4 7 11 15 14 13 5 15 -1 10 -37 -18 -119 -46 -372 -50 -452
-1 -22 -8 -83 -15 -135 -8 -52 -14 -110 -14 -127 0 -18 -3 -33 -7 -33 -3 0 -9
-9 -12 -20 -5 -18 -30 -26 -61 -21 -5 1 -12 -2 -15 -7 -3 -5 -82 -17 -176 -27
-204 -20 -230 -31 -270 -107 -15 -29 -44 -75 -65 -103 -21 -27 -52 -87 -70
-133 -28 -71 -32 -89 -26 -135 10 -78 49 -242 58 -245 4 -2 8 -10 8 -18 0 -36
94 -174 118 -174 8 0 31 -9 51 -20 39 -21 173 -40 234 -32 28 3 52 18 97 60
33 30 60 59 60 64 0 6 9 21 20 35 11 14 20 34 20 44 0 10 8 23 19 28 22 12 42
104 37 169 -2 23 1 45 6 48 4 3 6 25 4 50 -3 34 0 46 13 53 11 7 21 34 29 88
13 82 26 151 40 218 l8 40 99 26 c55 14 124 38 154 52 30 15 60 27 65 27 16 0
117 100 111 110 -3 4 2 10 10 14 8 3 15 14 15 24 0 11 7 37 16 58 35 83 11
184 -60 258 -41 42 -46 43 -69 16 -17 -20 -17 -22 1 -48 47 -67 65 -122 58
-173 -16 -121 -80 -183 -232 -224 -49 -14 -99 -25 -110 -25 -28 0 -37 35 -24
93 5 24 12 93 15 153 6 98 26 248 39 292 3 9 10 46 15 82 6 36 13 76 16 90 8
30 20 105 38 225 7 50 16 96 21 103 4 7 10 28 13 45 6 42 32 118 45 134 6 7 8
30 6 50 -3 21 0 49 7 63 18 37 27 107 16 127 -5 10 -12 26 -15 36 -3 9 -14 17
-25 17 -10 0 -51 11 -90 24 -39 13 -73 21 -75 17 -6 -10 10 -80 30 -132 17
-46 17 -47 -4 -83 -12 -21 -22 -45 -22 -55 0 -9 -5 -22 -11 -28 -7 -7 -13 -33
-14 -59 -1 -31 -7 -51 -19 -59 -9 -7 -20 -30 -23 -51 -11 -69 -26 -96 -109
-191 -27 -32 -36 -36 -78 -36 -34 0 -52 5 -70 22 -28 27 -41 98 -22 121 7 8
25 51 41 95 16 44 43 104 62 133 18 29 33 58 33 65 0 6 14 32 30 56 17 24 30
49 30 54 0 6 9 21 21 33 17 19 20 30 14 64 -4 23 -12 43 -18 44 -65 16 -130
43 -137 55 -15 26 -50 -18 -65 -80 -18 -71 -93 -290 -105 -304 -5 -6 -11 -22
-13 -35 -4 -27 -19 -67 -43 -114 -8 -16 -14 -33 -14 -37 0 -15 -83 -130 -124
-170 -28 -29 -46 -39 -62 -36 -16 3 -21 0 -16 -11 11 -30 -96 7 -117 41 -26
40 -22 96 10 140 16 22 29 48 29 57 0 10 20 47 45 83 25 37 45 73 45 81 0 8 6
21 13 28 26 29 86 156 99 213 19 77 15 241 -6 264 -8 9 -17 28 -21 43 -4 17
-16 29 -32 33 -29 7 -63 -2 -63 -17 0 -5 -6 -8 -14 -5 -8 3 -17 -1 -20 -9 -3
-8 -12 -14 -21 -14 -9 0 -21 -5 -28 -11 -7 -6 -30 -20 -51 -32 -21 -12 -47
-37 -57 -55 -9 -19 -24 -41 -32 -50 -8 -9 -17 -26 -19 -37 -3 -18 -10 -20 -57
-17 -30 2 -65 8 -78 13 -22 8 -45 3 -83 -20 -24 -14 -63 -29 -93 -35 -17 -4
-39 -22 -57 -49 -16 -23 -39 -53 -50 -67 -11 -14 -22 -38 -26 -55 -3 -16 -12
-49 -20 -73 -8 -23 -14 -65 -14 -93 0 -28 -5 -59 -11 -71 -18 -34 -59 -152
-59 -170 0 -10 -4 -18 -9 -18 -5 0 -11 -15 -15 -32 -9 -51 -10 -53 -36 -91
-16 -24 -34 -37 -55 -40 -16 -3 -31 -4 -33 -2 -3 2 -15 78 -32 203 -6 46 -14
90 -17 98 -3 8 1 14 10 14 13 0 14 6 6 33 -12 46 39 344 71 412 19 41 42 111
44 135 2 14 7 36 13 50 6 14 15 43 21 65 10 40 45 142 61 180 5 11 26 65 47
120 20 54 45 113 55 130 9 16 20 44 24 61 3 18 15 40 26 50 11 10 19 30 19 49
0 17 11 54 25 81 30 59 31 70 6 110 -16 26 -28 33 -68 39 -26 5 -56 7 -67 6
-30 -4 -64 -52 -71 -101 -7 -54 -33 -159 -44 -180 -5 -8 -16 -42 -25 -75 -9
-33 -28 -87 -42 -120 -41 -102 -104 -357 -104 -427 0 -41 -43 -148 -59 -148
-6 0 -11 7 -11 16 0 8 -12 28 -27 44 -16 15 -35 36 -44 46 -49 58 -86 81 -144
89 -118 17 -170 2 -235 -67 -15 -15 -32 -28 -39 -28 -6 0 -11 -11 -11 -24 0
-19 -8 -27 -33 -35 -23 -8 -37 -22 -50 -48 -9 -21 -21 -45 -26 -53 -25 -42
-61 -124 -61 -139 0 -9 -16 -46 -34 -82 -19 -35 -37 -78 -40 -95 -3 -17 -13
-50 -21 -74 -8 -23 -15 -52 -15 -63 0 -30 -49 -149 -68 -167 -9 -9 -18 -21
-19 -27 -3 -16 -114 -123 -128 -123 -20 0 -41 24 -64 77 -32 69 -27 165 9 190
12 9 30 24 39 35 8 10 20 18 26 18 19 1 101 85 115 118 7 18 21 37 31 43 11 5
19 17 19 25 0 17 38 90 58 112 6 7 12 26 12 40 0 15 7 38 16 51 12 17 18 54
21 140 5 111 4 118 -22 163 -39 70 -83 93 -175 93 -76 0 -108 -11 -231 -76
-44 -23 -49 -23 -49 -4 0 11 -11 15 -39 15 -22 0 -43 5 -47 11 -7 13 -66 4
-95 -14 -14 -9 -19 -24 -19 -55 0 -36 -5 -47 -34 -73 -20 -17 -33 -36 -30 -44
3 -7 -3 -34 -14 -58 -11 -25 -23 -59 -27 -77 -4 -18 -22 -60 -41 -94 -49 -89
-84 -163 -84 -178 0 -13 -30 -85 -50 -118 -4 -8 -23 -43 -40 -77 -18 -34 -51
-82 -74 -106 -22 -24 -50 -56 -60 -71 -10 -14 -21 -24 -24 -22 -9 10 -11 212
-2 246 5 19 11 64 14 100 5 68 13 100 26 100 4 0 10 20 13 45 8 57 56 205 74
226 7 8 13 26 13 40 1 13 7 38 14 54 12 28 10 33 -21 75 -19 24 -45 52 -59 61
-24 15 -28 15 -62 -2 -50 -24 -70 -50 -87 -112 -26 -94 -28 -102 -47 -132 -10
-16 -18 -38 -18 -47 0 -10 -5 -18 -11 -18 -5 0 -8 -4 -5 -9 13 -21 -49 -143
-101 -199 -7 -7 -13 -17 -13 -22 0 -29 -172 -265 -194 -265 -6 0 -17 -4 -24
-9 -20 -12 -24 -2 -11 27 9 21 8 36 -5 77 -17 51 -19 167 -4 176 4 3 8 15 8
26 0 12 6 29 14 37 17 20 66 150 66 176 0 11 7 29 15 39 8 10 12 23 9 27 -4 8
9 39 37 89 29 50 33 62 22 78 -17 28 -133 84 -159 78 -12 -3 -26 -2 -29 4 -3
6 -18 10 -33 10 -37 -1 -122 21 -122 32 0 5 -5 6 -10 3 -6 -3 -23 3 -39 14
-16 12 -36 21 -45 21 -8 0 -25 14 -38 30 -12 17 -27 30 -32 30 -14 0 -49 58
-53 85 -2 18 22 137 48 237 6 23 6 45 -1 62 -5 14 -5 28 -1 31 19 11 50 95 48
126 -2 19 -11 48 -20 66 -9 18 -17 41 -17 52 0 33 -72 74 -112 64z m72 -890
c36 -17 85 -38 111 -46 45 -16 138 -17 192 -2 27 7 28 6 21 -21 -17 -74 -45
-181 -53 -204 -5 -14 -24 -65 -42 -115 -29 -81 -58 -153 -92 -225 -6 -14 -23
-43 -36 -65 -13 -22 -24 -41 -23 -42 6 -10 -89 -103 -104 -103 -6 0 -23 -9
-37 -20 -28 -22 -74 -26 -97 -7 -40 31 -52 140 -31 287 6 41 15 109 20 150 10
72 28 188 34 220 2 8 13 47 24 85 12 39 24 87 28 108 3 21 9 37 13 35 4 -2 36
-18 72 -35z m1831 -94 c35 -67 33 -147 -6 -229 -7 -14 -20 -43 -29 -65 -10
-22 -27 -58 -39 -80 -11 -22 -26 -50 -31 -62 -6 -13 -14 -23 -18 -23 -5 0 -8
-7 -8 -15 0 -8 -4 -15 -10 -15 -5 0 -10 -7 -10 -15 0 -8 -5 -15 -11 -15 -6 0
-8 8 -4 19 3 10 0 25 -7 32 -18 18 -48 81 -43 90 6 9 -76 93 -107 109 -16 7
-28 16 -28 19 0 3 16 17 36 31 19 14 37 37 40 51 3 14 18 33 32 42 15 9 39 27
54 41 15 14 31 26 36 26 19 0 111 52 116 66 7 18 26 14 37 -7z m-2706 -75 c17
-32 18 -42 7 -97 -25 -135 -50 -236 -78 -316 l-29 -83 -6 94 c-3 52 -9 99 -13
106 -4 7 -3 19 4 27 6 7 10 19 9 27 -2 7 0 51 5 98 6 72 12 92 39 132 18 27
34 48 37 48 3 0 14 -16 25 -36z m3416 -14 c10 -18 27 -44 39 -57 25 -29 70
-121 70 -144 0 -10 5 -21 11 -24 17 -11 -1 -65 -44 -129 -23 -34 -45 -62 -49
-64 -5 -2 -8 -10 -8 -17 0 -7 -3 -15 -8 -17 -4 -1 -29 -28 -55 -59 -46 -55
-91 -81 -168 -96 -30 -6 -59 18 -59 48 0 11 -7 27 -15 35 -16 16 -20 59 -16
164 3 68 37 216 52 226 5 3 9 11 9 19 0 17 43 65 59 65 6 0 15 8 18 18 9 23
42 52 67 57 12 2 30 6 41 8 31 7 37 3 56 -33z m1215 -49 c-2 -27 -6 -53 -8
-57 -3 -5 -9 -31 -13 -59 -7 -50 -52 -162 -61 -153 -7 8 15 189 28 223 12 33
47 95 54 95 2 0 2 -22 0 -49z m-279 -76 c21 -5 22 -8 20 -156 -1 -83 1 -153 6
-156 4 -2 7 -38 7 -80 0 -72 -1 -76 -33 -107 -51 -48 -76 -66 -93 -66 -8 0
-24 -5 -34 -10 -35 -19 -64 4 -96 72 -25 55 -29 74 -28 144 2 75 11 113 45
176 5 10 9 24 9 32 0 8 18 31 40 52 22 21 40 43 40 50 0 7 7 14 15 18 8 3 15
11 15 18 0 14 51 22 87 13z m-4659 -78 c0 -84 34 -277 61 -352 4 -11 18 -41
30 -67 l23 -46 -84 -81 c-45 -44 -102 -91 -125 -103 -38 -20 -44 -21 -70 -8
-15 8 -35 22 -44 30 -26 25 -51 157 -46 241 8 125 48 299 68 299 3 0 9 13 12
29 7 35 78 104 115 112 44 9 60 -5 60 -54z m2632 -157 c0 -10 6 -23 14 -27 15
-8 66 -103 66 -121 0 -14 -21 -28 -52 -36 -25 -6 -31 -1 -57 41 -27 43 -28 48
-13 59 14 10 15 15 5 25 -7 7 -13 28 -13 46 0 29 3 33 25 33 18 0 25 -5 25
-20z m2846 -1295 c4 -9 -1 -55 -10 -103 -9 -48 -21 -125 -26 -172 -6 -47 -19
-119 -30 -160 -10 -41 -21 -90 -23 -108 -3 -18 -10 -39 -16 -46 -5 -6 -8 -21
-5 -33 11 -39 -46 -136 -95 -162 -27 -15 -138 -6 -194 16 -41 17 -115 94 -121
127 -3 12 -14 67 -26 123 -37 172 -30 233 37 322 18 24 33 52 33 61 0 14 80
100 92 100 2 0 39 7 83 16 44 8 117 15 162 15 45 -1 84 3 88 9 10 15 45 12 51
-5z"/>
</g>
</svg>
