<?xml version="1.0" standalone="no"?>
<!DOCTYPE svg PUBLIC "-//W3C//DTD SVG 20010904//EN"
 "http://www.w3.org/TR/2001/REC-SVG-20010904/DTD/svg10.dtd">
<svg version="1.0" xmlns="http://www.w3.org/2000/svg"
 width="100.000000pt" height="90.714286pt" viewBox="0 0 100.000000 90.714286"
 preserveAspectRatio="xMidYMid meet">
<metadata>
Created by potrace 1.11, written by Peter Selinger 2001-2013
</metadata>
<g transform="translate(0.000000,90.714286) scale(0.035714,-0.035714)"
fill="#000000" stroke="none">
<path d="M496 2427 c-9 -12 -20 -46 -26 -75 -7 -28 -15 -52 -19 -52 -3 0 -22
13 -41 29 -48 38 -94 61 -126 61 -43 0 -106 -22 -132 -47 l-25 -24 21 -52 c12
-29 22 -58 22 -64 0 -7 10 -17 21 -24 22 -11 53 -38 157 -138 32 -29 64 -59
72 -66 21 -19 18 -109 -10 -288 -10 -64 -15 -77 -28 -72 -9 3 -39 13 -66 22
-28 9 -58 22 -67 30 -20 17 -61 9 -84 -17 -13 -15 -15 -29 -10 -73 7 -51 10
-56 61 -93 30 -21 54 -42 54 -46 0 -5 7 -8 15 -8 8 0 15 -4 15 -8 0 -5 12 -14
26 -21 25 -11 25 -13 19 -79 -4 -37 -13 -94 -20 -127 -7 -33 -18 -94 -25 -135
-7 -41 -16 -88 -21 -104 -5 -16 -9 -46 -9 -66 0 -21 -11 -82 -25 -136 -14 -54
-25 -108 -25 -119 0 -12 -4 -25 -9 -31 -16 -16 -44 -127 -43 -169 1 -40 -18
-148 -43 -240 -8 -27 -15 -66 -17 -85 l-3 -35 55 -3 55 -3 13 43 c6 24 15 63
18 88 4 25 13 55 20 68 8 12 16 44 18 70 4 62 25 159 42 200 8 18 14 44 14 57
0 14 9 44 19 68 11 23 20 49 20 57 1 8 5 51 9 96 4 45 13 88 21 97 7 9 10 24
7 33 -4 9 2 46 13 83 25 86 40 145 51 201 13 67 38 113 59 104 9 -4 32 -9 51
-12 19 -2 40 -8 46 -13 15 -12 82 8 119 36 16 12 44 30 62 39 41 20 59 52 42
72 -6 8 -18 14 -25 14 -8 0 -23 9 -34 20 -19 19 -70 23 -87 7 -13 -14 -115 -7
-143 9 -30 18 -30 20 11 139 6 17 12 39 14 50 12 53 28 77 49 72 33 -9 118
-37 158 -54 20 -9 49 -13 63 -11 14 3 28 1 31 -3 11 -18 138 -10 194 12 30 12
76 26 101 33 46 11 79 31 79 47 0 5 -5 9 -10 9 -12 0 -94 52 -98 63 -2 4 -12
7 -22 7 -10 0 -21 4 -24 9 -3 5 -26 4 -53 -1 -27 -5 -59 -10 -73 -10 -14 0
-31 -5 -38 -11 -9 -7 -20 -6 -38 2 -14 6 -30 9 -35 5 -16 -9 -95 46 -160 110
-27 27 -37 45 -34 60 2 12 9 48 16 81 6 33 16 69 23 80 16 25 30 95 19 95 -10
0 -106 89 -119 110 -12 19 -70 50 -95 50 -10 0 -25 -10 -33 -23z"/>
<path d="M2433 1992 c-12 -4 -36 -28 -53 -54 -41 -62 -39 -103 9 -135 49 -33
83 -30 120 12 44 50 47 75 19 132 -25 50 -46 60 -95 45z"/>
<path d="M1350 1757 c0 -4 -4 -6 -9 -2 -17 10 -33 -36 -37 -104 -8 -137 -7
-132 -40 -146 -18 -7 -35 -18 -38 -24 -4 -6 -12 -9 -17 -5 -6 3 -21 -6 -36
-20 -14 -14 -40 -31 -57 -37 -18 -6 -42 -28 -55 -47 -20 -30 -22 -42 -15 -71
8 -33 12 -36 45 -35 28 1 37 -4 46 -23 10 -21 8 -31 -15 -66 -15 -23 -32 -46
-39 -50 -7 -4 -13 -16 -13 -25 0 -10 -9 -35 -20 -57 -11 -22 -20 -49 -20 -62
0 -31 35 -92 74 -129 l33 -31 -18 -69 c-9 -38 -27 -96 -38 -128 -12 -33 -24
-85 -27 -115 -3 -31 -12 -78 -18 -106 -7 -27 -12 -79 -11 -115 3 -127 1 -120
38 -120 26 0 35 6 45 28 7 15 20 40 29 57 9 16 26 69 39 117 12 48 28 97 34
109 11 20 31 111 47 214 3 22 9 42 12 45 4 3 11 19 16 35 9 27 15 30 58 33 32
2 48 -1 51 -10 6 -23 28 -182 31 -225 5 -73 27 -177 46 -210 10 -18 16 -33 13
-33 -5 0 6 -15 56 -77 19 -22 54 -43 75 -43 38 0 126 53 171 104 66 73 90 99
104 111 6 6 38 38 70 73 32 34 64 62 69 62 6 0 20 -19 31 -42 31 -64 41 -75
108 -108 71 -35 110 -34 199 6 28 13 55 24 60 24 9 1 73 60 111 101 14 17 20
32 16 43 -4 10 -10 14 -13 9 -5 -7 -44 -30 -126 -72 -16 -9 -32 -19 -35 -22
-10 -13 -126 -25 -152 -17 -15 5 -33 23 -42 41 -15 33 -11 58 25 152 4 11 10
48 14 83 3 34 13 81 21 103 7 23 14 53 14 68 0 21 18 77 63 201 3 8 15 53 27
100 12 47 28 95 36 107 11 18 11 28 -2 67 -9 25 -22 46 -29 46 -7 0 -15 4 -17
10 -1 5 -23 12 -48 15 -25 3 -53 8 -63 11 -10 3 -29 -2 -43 -11 -20 -13 -24
-22 -20 -40 6 -22 -17 -130 -34 -164 -16 -32 -30 -69 -73 -191 -25 -69 -60
-156 -77 -195 -18 -38 -32 -72 -32 -75 0 -3 -7 -21 -17 -40 -10 -19 -44 -89
-76 -155 -97 -200 -130 -243 -197 -259 -28 -6 -28 -6 -28 43 0 28 -6 101 -14
163 -8 62 -14 161 -15 221 -1 95 1 109 19 125 11 9 30 27 44 39 14 13 38 31
54 40 87 53 190 189 192 251 0 13 5 32 11 44 6 11 13 47 15 81 3 33 7 64 10
68 5 9 -37 113 -48 117 -4 2 -8 9 -8 16 0 18 -50 61 -102 87 -34 18 -59 22
-123 22 -50 0 -81 -5 -83 -12 -8 -24 -32 -9 -42 27 -16 60 -39 75 -120 76 -39
1 -70 -2 -70 -7z m314 -313 c5 -12 9 -14 20 -5 18 15 45 -16 46 -54 4 -130
-22 -202 -105 -289 -51 -55 -57 -58 -80 -48 -14 7 -38 32 -54 57 -16 25 -41
55 -56 67 -25 20 -26 24 -20 79 13 108 42 163 92 175 15 3 42 12 58 20 41 19
91 18 99 -2z m-290 -471 c7 -17 -9 -33 -31 -33 -16 0 -16 5 -1 30 16 24 24 25
32 3z"/>
</g>
</svg>
