<?xml version="1.0" standalone="no"?>
<!DOCTYPE svg PUBLIC "-//W3C//DTD SVG 20010904//EN"
 "http://www.w3.org/TR/2001/REC-SVG-20010904/DTD/svg10.dtd">
<svg version="1.0" xmlns="http://www.w3.org/2000/svg"
 width="100.000000pt" height="28.415301pt" viewBox="0 0 100.000000 28.415301"
 preserveAspectRatio="xMidYMid meet">
<metadata>
Created by potrace 1.11, written by Peter Selinger 2001-2013
</metadata>
<g transform="translate(0.000000,28.415301) scale(0.018215,-0.018215)"
fill="#000000" stroke="none">
<path d="M1272 1498 c-7 -7 -12 -18 -12 -25 0 -7 -9 -27 -20 -45 -25 -42 -25
-66 1 -94 15 -16 22 -40 26 -97 7 -87 0 -93 -81 -78 -62 11 -120 3 -145 -21
l-21 -19 2 151 c1 178 -2 187 -73 173 l-44 -9 2 -49 c5 -117 1 -334 -7 -385
-5 -30 -12 -121 -15 -201 -7 -145 -7 -147 16 -163 65 -45 138 18 97 84 -10 16
-9 24 8 47 16 22 18 36 13 68 -10 50 -11 148 -3 207 l6 45 24 -24 c24 -24 58
-30 69 -13 7 11 86 13 137 3 24 -4 28 -10 32 -51 4 -26 13 -83 21 -127 8 -44
15 -92 15 -107 0 -15 6 -33 13 -40 6 -7 13 -26 14 -41 0 -15 4 -43 7 -62 6
-33 9 -35 45 -35 46 0 69 23 65 65 -7 81 -27 227 -40 287 -8 37 -14 118 -14
179 0 62 -5 140 -11 173 -23 127 -41 190 -57 202 -22 17 -54 18 -70 2z"/>
<path d="M5252 1445 c-41 -14 -52 -30 -52 -76 0 -19 -7 -44 -15 -55 -8 -10
-15 -27 -15 -37 0 -9 -4 -25 -9 -35 -21 -41 -41 -94 -41 -107 0 -7 -4 -17 -10
-20 -11 -7 -51 12 -48 23 1 4 -12 23 -30 42 -17 19 -41 54 -52 78 -40 85 -95
113 -147 77 -24 -17 -24 -25 -4 -74 11 -26 12 -37 3 -52 -19 -29 -14 -47 16
-66 36 -23 99 -72 131 -103 15 -14 40 -34 56 -46 l30 -21 -34 -134 c-19 -74
-39 -145 -46 -159 -6 -14 -24 -79 -39 -145 -15 -66 -37 -138 -48 -160 -15 -28
-22 -61 -24 -110 -2 -38 -6 -84 -9 -102 -8 -37 10 -63 44 -63 17 0 21 6 21 30
0 26 15 70 41 122 5 10 9 25 9 33 0 9 6 18 14 21 8 3 14 18 14 32 0 15 14 69
31 121 24 71 31 104 26 132 -9 55 48 241 71 232 8 -3 13 19 16 72 2 42 8 79
15 83 10 7 35 58 66 137 8 22 23 74 32 115 9 41 26 89 37 107 16 26 18 40 11
74 -9 48 -15 51 -61 34z"/>
<path d="M655 1440 c-33 -5 -121 -12 -195 -15 -98 -6 -155 -14 -210 -31 -41
-13 -84 -24 -96 -24 -12 0 -26 -11 -35 -26 -13 -24 -12 -28 16 -51 25 -22 35
-24 79 -19 28 3 97 9 152 12 80 5 103 3 110 -7 5 -8 7 -90 5 -184 -7 -323 -2
-474 15 -501 14 -24 69 -37 95 -23 19 10 36 143 21 162 -11 14 -27 85 -24 107
1 8 2 71 2 140 0 142 9 293 19 308 4 6 38 14 76 17 39 4 85 14 103 23 30 15
33 21 30 55 -3 35 -7 40 -43 53 -22 7 -44 13 -50 13 -5 -1 -37 -5 -70 -9z"/>
<path d="M2535 1362 c-51 -5 -250 -55 -256 -64 -11 -16 -10 -151 2 -159 8 -5
8 -12 0 -28 -7 -12 -14 -84 -17 -160 -4 -118 -2 -145 13 -175 18 -39 33 -45
53 -21 7 8 19 15 27 15 7 0 16 7 20 16 3 9 17 27 29 40 22 21 34 74 17 74 -5
0 -8 72 -8 159 l-1 160 51 7 c53 8 118 7 149 -3 15 -4 17 -12 13 -40 -3 -19
-11 -41 -18 -49 -15 -19 -92 -70 -116 -78 -10 -4 -29 -15 -42 -25 l-24 -18 19
-32 c17 -30 94 -91 113 -91 29 0 140 -45 157 -64 27 -30 80 -56 116 -56 51 0
55 68 7 113 -10 10 -19 22 -19 28 0 5 -15 16 -34 24 -19 8 -37 19 -41 25 -3 5
-24 14 -45 20 -24 6 -40 17 -40 25 0 8 3 15 8 15 14 0 130 115 151 150 28 47
26 58 -19 108 -27 30 -49 45 -75 49 -19 3 -38 10 -41 14 -3 5 -20 9 -39 9 -19
0 -44 4 -57 8 -13 4 -36 6 -53 4z"/>
<path d="M3199 1363 c-2 -4 -35 -23 -73 -42 -37 -19 -74 -40 -80 -45 -7 -6
-19 -15 -27 -21 -102 -65 -118 -80 -125 -118 -3 -19 4 -32 33 -56 21 -17 45
-38 53 -45 17 -16 61 -36 133 -61 40 -14 47 -21 47 -43 0 -42 -40 -90 -98
-118 -35 -17 -52 -30 -50 -41 2 -10 -12 -24 -37 -38 -51 -29 -66 -65 -42 -103
13 -22 23 -27 56 -26 36 1 71 21 71 41 0 4 28 26 62 48 33 22 91 68 127 103
36 34 80 72 98 84 17 12 38 34 47 49 54 91 -27 157 -229 189 -38 6 -74 15 -78
19 -14 14 57 76 104 90 56 17 111 73 107 110 -3 23 -8 26 -49 29 -26 2 -49 -1
-50 -5z"/>
<path d="M2000 1338 c-18 -19 -19 -30 -14 -102 6 -78 4 -85 -34 -175 -46 -111
-66 -134 -126 -151 -62 -17 -91 -7 -123 42 -29 43 -33 86 -23 252 4 53 -13 76
-55 76 -35 0 -55 -22 -61 -70 -3 -25 -10 -74 -14 -109 -18 -131 22 -224 130
-301 25 -18 51 -24 106 -28 42 -3 79 0 86 5 7 6 24 13 38 17 122 32 236 347
185 510 -16 51 -20 56 -46 56 -16 0 -37 -9 -49 -22z"/>
<path d="M3671 1303 c-8 -3 -32 -24 -54 -46 -37 -37 -39 -43 -33 -84 3 -24 12
-56 19 -71 9 -16 17 -77 20 -147 4 -66 13 -146 22 -178 8 -32 15 -75 15 -95 0
-47 40 -151 63 -166 18 -12 72 10 113 47 22 19 69 47 114 69 14 7 32 20 40 29
8 8 22 20 31 25 33 18 105 80 156 134 28 30 54 52 56 50 2 -3 -2 -32 -9 -65
-8 -33 -16 -90 -19 -126 -6 -77 5 -93 70 -103 50 -8 67 3 70 46 3 41 11 71 37
125 11 23 17 46 14 51 -3 5 0 40 7 78 l13 69 74 0 74 0 12 -45 c16 -60 43
-136 65 -186 11 -23 19 -46 19 -53 0 -26 33 -61 58 -61 35 0 84 47 72 70 -5 9
-23 61 -40 116 -17 54 -38 115 -46 134 -8 19 -21 58 -28 85 -21 75 -49 147
-67 175 -9 14 -23 39 -30 55 -17 37 -70 53 -126 39 -31 -7 -39 -14 -43 -38 -4
-22 -11 -30 -27 -31 -13 -1 -24 -4 -26 -6 -24 -32 -37 -64 -37 -86 0 -29 -21
-97 -33 -109 -4 -4 -7 2 -7 12 0 11 -4 24 -9 29 -5 6 -16 35 -26 65 -24 73
-71 117 -165 154 -64 25 -89 30 -199 33 -69 2 -142 6 -161 8 -19 2 -41 2 -49
-2z m269 -145 c100 -25 150 -85 150 -180 0 -40 -39 -89 -168 -212 -51 -49
-149 -116 -170 -116 -6 0 7 166 20 255 5 39 9 114 8 167 l-1 97 28 3 c36 4 77
0 133 -14z m536 -13 c21 -21 30 -82 12 -82 -7 0 -25 -3 -40 -6 l-27 -7 14 47
c8 27 15 51 15 56 0 11 10 8 26 -8z"/>
<path d="M1505 637 c-4 -10 -5 -21 -1 -24 10 -10 18 4 13 24 -4 17 -4 17 -12
0z"/>
</g>
</svg>
