<?xml version="1.0" standalone="no"?>
<!DOCTYPE svg PUBLIC "-//W3C//DTD SVG 20010904//EN"
 "http://www.w3.org/TR/2001/REC-SVG-20010904/DTD/svg10.dtd">
<svg version="1.0" xmlns="http://www.w3.org/2000/svg"
 width="100.000000pt" height="85.836910pt" viewBox="0 0 100.000000 85.836910"
 preserveAspectRatio="xMidYMid meet">
<metadata>
Created by potrace 1.11, written by Peter Selinger 2001-2013
</metadata>
<g transform="translate(0.000000,85.836910) scale(0.042918,-0.042918)"
fill="#000000" stroke="none">
<path d="M978 1750 c-10 -6 -43 -12 -74 -13 -45 -3 -61 -8 -75 -26 -18 -22
-18 -24 -1 -53 l17 -29 96 7 c106 7 105 7 121 -55 14 -61 38 -222 38 -263 0
-22 5 -48 10 -58 6 -11 12 -38 14 -62 3 -24 10 -83 16 -132 6 -49 8 -102 5
-118 -4 -16 -2 -34 3 -41 14 -16 34 -145 36 -237 3 -93 25 -290 34 -304 5 -9
19 -130 23 -198 1 -26 35 -51 58 -43 12 3 21 12 21 20 0 7 5 15 10 17 10 3 2
85 -25 273 -4 22 -7 58 -9 80 -2 22 -8 81 -14 130 -6 50 -13 127 -17 172 l-5
82 37 10 c112 31 109 31 132 3 12 -15 21 -33 21 -41 0 -16 10 -48 46 -151 12
-36 25 -83 29 -105 5 -34 50 -140 65 -155 9 -9 30 -44 44 -75 8 -16 23 -37 34
-46 11 -10 24 -23 28 -31 22 -34 168 -52 217 -26 12 6 29 14 37 18 22 10 37
57 22 72 -9 9 -18 9 -37 0 -36 -16 -105 -15 -148 3 -28 11 -41 28 -67 80 -17
36 -35 65 -40 65 -8 0 -19 25 -20 42 0 5 -9 24 -20 43 -11 20 -20 46 -20 58 0
19 -15 72 -38 137 -3 8 -6 23 -7 32 -1 10 -7 23 -12 30 -10 13 -16 41 -29 141
-5 36 -3 47 7 47 13 1 66 76 100 140 13 24 18 168 10 254 -9 84 -81 191 -146
216 -14 5 -25 14 -25 18 0 5 -17 12 -39 16 -21 3 -44 13 -51 21 -7 9 -20 13
-29 10 -9 -2 -50 3 -91 13 -86 20 -267 28 -292 12z m367 -155 c81 -27 132 -53
147 -77 9 -14 24 -33 33 -42 11 -11 18 -42 22 -103 6 -97 -7 -154 -45 -198
-12 -14 -22 -27 -22 -30 0 -13 -98 -93 -138 -112 -61 -30 -90 -30 -96 0 -11
57 -27 174 -27 192 0 11 -11 101 -24 199 -14 99 -25 183 -25 188 0 11 125 -1
175 -17z"/>
<path d="M82 1714 c-12 -8 -22 -20 -22 -26 0 -18 41 -68 56 -68 8 0 46 -14 85
-32 l69 -31 0 -51 c0 -28 4 -67 9 -86 19 -70 52 -395 55 -535 1 -49 4 -97 8
-105 9 -21 18 -113 24 -255 5 -127 27 -225 49 -225 8 0 26 12 41 27 25 25 26
30 20 92 -26 249 -44 527 -35 535 7 7 101 -22 113 -34 5 -5 36 -7 70 -3 109
11 226 71 226 115 0 22 -25 23 -135 3 -85 -15 -129 -10 -181 18 -16 9 -48 26
-71 37 -51 25 -51 24 -69 264 l-7 99 35 -26 c19 -15 39 -27 44 -27 5 0 20 -9
34 -20 14 -11 33 -20 43 -20 9 0 17 -3 17 -8 0 -12 94 -42 133 -42 20 0 39 -5
42 -10 7 -12 165 -3 203 11 29 11 29 47 0 58 -18 7 -172 35 -248 45 -16 2 -66
23 -90 37 -8 5 -25 13 -38 19 -46 20 -126 110 -137 153 -9 36 -14 42 -40 45
-16 2 -41 12 -56 23 -19 13 -36 17 -58 13 -17 -4 -43 -2 -58 4 -53 20 -108 23
-131 6z"/>
<path d="M2003 1698 c-6 -7 -12 -20 -16 -29 -8 -25 22 -360 43 -469 9 -48 28
-262 34 -390 1 -25 5 -52 9 -60 4 -8 13 -71 22 -139 15 -122 30 -166 61 -178
22 -8 55 26 49 51 -3 12 -7 62 -9 111 -6 128 -17 215 -28 215 -5 0 -9 24 -9
53 1 89 -8 278 -14 288 -4 5 -3 13 0 19 3 5 1 27 -4 47 -6 21 -19 115 -30 209
-10 95 -24 181 -30 192 -6 11 -11 29 -11 40 0 20 -29 52 -47 52 -6 0 -15 -6
-20 -12z"/>
</g>
</svg>
