<?xml version="1.0" standalone="no"?>
<!DOCTYPE svg PUBLIC "-//W3C//DTD SVG 20010904//EN"
 "http://www.w3.org/TR/2001/REC-SVG-20010904/DTD/svg10.dtd">
<svg version="1.0" xmlns="http://www.w3.org/2000/svg"
 width="100.000000pt" height="31.518152pt" viewBox="0 0 100.000000 31.518152"
 preserveAspectRatio="xMidYMid meet">
<metadata>
Created by potrace 1.11, written by Peter Selinger 2001-2013
</metadata>
<g transform="translate(0.000000,31.518152) scale(0.016502,-0.016502)"
fill="#000000" stroke="none">
<path d="M2964 1840 c-11 -4 -27 -22 -34 -39 -7 -17 -16 -31 -21 -31 -4 0 -10
-8 -13 -17 -3 -10 -22 -36 -42 -58 -19 -22 -52 -59 -72 -83 -20 -24 -51 -59
-68 -78 -17 -18 -44 -53 -60 -76 -33 -48 -81 -95 -106 -103 -10 -4 -18 -11
-18 -18 0 -13 -156 -167 -170 -167 -6 0 -10 -7 -10 -15 0 -8 -4 -15 -10 -15
-5 0 -10 -6 -10 -12 0 -7 -22 -31 -50 -53 -27 -22 -49 -44 -50 -48 0 -10 -50
-56 -94 -87 -19 -14 -36 -29 -36 -34 0 -12 -51 -55 -72 -62 -10 -3 -18 -12
-18 -19 0 -8 -12 -17 -27 -21 -16 -4 -33 -12 -38 -19 -16 -19 -78 -43 -132
-50 -26 -3 -58 -8 -71 -11 -37 -7 -42 27 -16 125 21 84 27 100 65 188 11 24
19 48 19 55 0 6 6 19 14 27 7 9 28 45 46 81 46 89 61 100 142 100 75 0 98 6
98 26 0 29 -34 54 -73 54 -38 0 -39 1 -32 28 9 37 54 112 71 119 8 3 14 11 14
19 0 8 4 14 9 14 5 0 12 11 15 25 3 13 24 43 47 65 65 64 72 127 18 156 -27
13 -32 13 -54 -3 -13 -10 -25 -21 -25 -25 0 -5 -6 -8 -14 -8 -15 0 -26 -21
-26 -49 0 -10 -25 -49 -55 -88 -30 -39 -55 -76 -55 -81 0 -18 -80 -82 -103
-82 -13 0 -40 16 -60 35 -20 19 -43 35 -50 35 -24 0 -47 -24 -53 -56 -6 -30
-3 -33 49 -63 54 -31 55 -33 46 -61 -6 -16 -20 -35 -32 -43 -12 -8 -47 -38
-77 -67 -30 -28 -68 -59 -85 -67 -16 -9 -42 -29 -56 -44 -15 -16 -31 -29 -37
-29 -5 0 -15 -7 -23 -16 -7 -8 -35 -27 -63 -41 -27 -14 -56 -31 -63 -38 -7 -8
-22 -17 -33 -20 -11 -3 -20 -11 -20 -16 0 -5 -6 -9 -13 -9 -8 0 -22 -8 -31
-19 -9 -10 -72 -47 -139 -81 -67 -34 -140 -71 -162 -83 -81 -41 -91 -45 -130
-52 -22 -4 -46 -12 -53 -18 -18 -14 -197 -49 -247 -48 -82 2 -127 9 -144 25
-10 9 -28 16 -42 16 -13 0 -55 12 -92 27 -51 20 -72 34 -79 53 -6 14 -15 35
-21 47 -12 27 7 105 32 126 14 12 47 31 102 58 36 17 63 -2 97 -71 22 -45 68
-50 91 -9 13 23 12 31 -10 87 -19 49 -31 65 -62 82 -42 24 -130 30 -165 11
-11 -6 -29 -11 -39 -11 -26 0 -116 -97 -135 -145 -37 -94 -41 -120 -28 -173 8
-28 26 -64 41 -80 34 -37 125 -90 168 -98 17 -4 34 -11 37 -15 3 -5 15 -9 27
-9 13 0 32 -7 44 -15 32 -23 190 -29 244 -10 23 8 71 15 107 15 64 0 66 1 199
68 41 22 95 42 108 42 14 0 145 75 155 89 3 4 27 15 54 26 28 10 77 40 110 67
34 28 72 54 86 59 13 6 27 14 30 19 3 4 32 24 65 43 33 20 86 61 117 92 67 64
94 72 84 23 -3 -18 -10 -34 -14 -38 -5 -3 -21 -45 -36 -95 -16 -49 -34 -108
-41 -130 -14 -46 -4 -177 16 -201 19 -24 87 -36 158 -28 64 6 173 48 203 77 7
7 38 28 68 46 30 19 57 37 60 41 3 3 19 15 36 25 17 10 39 31 48 47 10 15 31
38 47 50 16 12 29 28 29 35 0 7 4 13 9 13 13 0 151 137 151 150 0 6 11 15 25
20 14 5 25 14 25 19 0 6 9 15 20 21 17 9 20 8 20 -8 0 -10 -9 -29 -20 -42 -11
-12 -22 -32 -26 -44 -14 -45 -75 -174 -114 -241 -16 -27 -30 -57 -30 -66 0 -8
-8 -24 -18 -34 -21 -23 -18 -71 7 -84 9 -5 29 -9 44 -9 22 0 32 8 47 38 14 27
30 42 55 50 20 7 39 19 42 27 3 8 26 34 50 56 25 23 52 50 62 59 9 9 63 40
121 68 58 29 115 60 127 70 14 11 32 15 49 12 23 -4 25 -8 20 -37 -4 -17 -15
-50 -26 -72 -23 -48 -39 -115 -40 -161 0 -48 30 -132 47 -132 7 0 24 -7 38
-16 34 -22 168 -20 197 3 7 6 48 23 91 39 44 15 81 33 84 41 3 7 12 13 19 13
8 0 23 8 34 18 10 9 40 28 67 42 26 14 63 37 81 53 47 39 60 35 68 -20 7 -53
46 -128 71 -137 9 -4 55 -9 104 -13 84 -6 90 -5 122 20 19 14 46 29 60 33 15
3 39 18 54 33 40 39 78 60 92 52 6 -4 9 -15 5 -24 -10 -27 81 -157 110 -157 5
0 19 -8 30 -19 12 -10 75 -32 141 -49 130 -33 109 -33 530 -18 112 4 185 17
243 43 18 8 37 11 43 8 5 -4 15 -2 22 3 7 5 35 15 62 21 28 7 72 24 100 37 27
14 74 32 104 40 30 8 59 18 65 24 5 5 18 10 28 10 24 0 90 36 125 68 38 35 68
52 92 52 11 0 32 16 47 35 14 19 32 35 38 35 29 0 106 135 106 186 0 37 -41
80 -91 94 -50 15 -160 10 -166 -6 -3 -8 -11 -14 -18 -14 -35 0 -76 -38 -101
-94 -25 -56 -26 -61 -14 -118 7 -32 17 -61 21 -64 5 -3 23 4 39 16 23 17 30
29 30 56 0 58 34 111 77 123 72 20 113 11 113 -24 0 -23 -95 -116 -146 -143
-13 -7 -24 -17 -24 -22 0 -6 -6 -10 -14 -10 -16 0 -50 -17 -91 -46 -17 -11
-75 -35 -130 -53 -55 -18 -108 -37 -117 -42 -10 -5 -24 -9 -32 -9 -7 0 -19 -6
-25 -13 -6 -8 -28 -19 -48 -25 -21 -6 -62 -18 -90 -27 -33 -9 -110 -17 -200
-21 -82 -2 -185 -10 -230 -15 -88 -12 -256 -6 -295 10 -12 5 -44 12 -69 16
-36 4 -54 14 -84 45 l-38 39 6 83 c5 86 38 171 86 227 17 19 21 36 19 70 -3
42 -5 46 -35 52 -22 4 -36 2 -44 -7 -6 -8 -20 -14 -30 -14 -11 0 -19 -6 -19
-14 0 -8 -7 -17 -16 -20 -10 -4 -13 -13 -10 -24 8 -23 -15 -53 -114 -148 -88
-86 -120 -109 -217 -159 l-72 -37 -38 18 c-36 18 -38 21 -41 76 -3 66 13 121
58 199 41 68 49 113 25 139 -18 20 -65 28 -65 12 0 -5 -12 -23 -27 -41 -16
-17 -44 -50 -63 -73 -19 -23 -42 -48 -50 -55 -81 -72 -107 -93 -116 -93 -6 0
-20 -10 -31 -22 -43 -47 -79 -71 -187 -124 -132 -65 -228 -90 -263 -67 -13 9
-23 25 -23 37 1 38 21 110 38 136 9 14 22 43 28 65 6 22 17 61 24 86 23 80 -8
124 -93 134 -32 4 -48 1 -57 -10 -7 -8 -20 -15 -30 -15 -10 0 -23 -7 -30 -15
-7 -8 -19 -15 -27 -15 -14 0 -94 -38 -103 -49 -12 -15 -62 -42 -116 -61 -32
-11 -59 -20 -60 -20 -1 0 15 30 37 68 21 37 43 79 50 95 6 15 15 27 20 27 5 0
9 6 9 14 0 8 25 52 55 97 30 45 55 84 55 87 0 3 11 20 25 38 14 18 25 35 25
39 0 3 18 34 40 69 22 35 40 67 40 72 0 5 8 14 18 20 9 6 39 54 67 107 46 89
49 96 36 121 -15 27 -31 31 -67 16z"/>
<path d="M1463 260 c-14 -6 -26 -24 -34 -49 -15 -50 -1 -90 41 -114 56 -34 94
18 70 96 -11 40 -36 78 -49 76 -3 0 -16 -4 -28 -9z"/>
<path d="M5380 230 c-46 -46 -13 -117 58 -127 48 -6 82 15 82 52 0 31 -74 95
-109 95 -6 0 -20 -9 -31 -20z"/>
<path d="M2242 222 c-31 -5 -51 -40 -45 -79 4 -22 17 -40 49 -63 l44 -31 29
20 c24 17 29 28 29 68 1 56 -28 107 -49 86 -7 -7 -17 -9 -23 -5 -6 4 -21 6
-34 4z"/>
<path d="M2951 208 c-18 -19 -21 -30 -16 -63 16 -97 137 -101 151 -5 6 47 -19
76 -72 85 -36 5 -45 3 -63 -17z"/>
<path d="M3814 212 c-36 -24 -47 -118 -16 -145 22 -20 34 -21 85 -6 35 9 37
12 37 49 0 22 -4 40 -9 40 -5 0 -12 11 -15 24 -4 15 -17 28 -37 35 -37 13 -31
12 -45 3z"/>
<path d="M443 178 c-26 -16 -33 -26 -33 -51 0 -38 7 -50 37 -66 53 -28 93 1
93 67 0 69 -36 88 -97 50z"/>
<path d="M4567 162 c-23 -25 -21 -74 3 -100 22 -24 31 -25 78 -16 36 7 60 50
43 80 -5 11 -12 27 -15 37 -8 24 -87 24 -109 -1z"/>
</g>
</svg>
