<?xml version="1.0" standalone="no"?>
<!DOCTYPE svg PUBLIC "-//W3C//DTD SVG 20010904//EN"
 "http://www.w3.org/TR/2001/REC-SVG-20010904/DTD/svg10.dtd">
<svg version="1.0" xmlns="http://www.w3.org/2000/svg"
 width="100.000000pt" height="21.510673pt" viewBox="0 0 100.000000 21.510673"
 preserveAspectRatio="xMidYMid meet">
<metadata>
Created by potrace 1.11, written by Peter Selinger 2001-2013
</metadata>
<g transform="translate(0.000000,21.510673) scale(0.016420,-0.016420)"
fill="#000000" stroke="none">
<path d="M4820 1286 c0 -24 23 -41 41 -30 5 3 9 16 9 30 0 19 -5 24 -25 24
-20 0 -25 -5 -25 -24z"/>
<path d="M5765 1236 c-43 -25 -65 -73 -60 -134 2 -17 -1 -32 -5 -32 -4 0 -11
-8 -14 -17 -4 -10 -14 -31 -22 -46 l-16 -29 -26 24 c-67 58 -160 153 -156 159
6 10 -43 39 -66 39 -12 0 -28 -13 -41 -32 -25 -42 -19 -82 21 -123 17 -17 30
-36 30 -43 0 -7 3 -12 8 -12 4 0 44 -36 89 -80 78 -76 81 -81 73 -111 -5 -17
-13 -36 -18 -42 -11 -15 -34 -93 -39 -131 -2 -16 -11 -38 -21 -49 -9 -10 -16
-22 -16 -26 1 -3 -3 -17 -8 -31 -17 -42 -33 -189 -33 -305 l0 -110 38 -3 c27
-2 37 1 37 11 0 21 32 46 37 30 8 -22 33 -14 43 13 6 14 10 43 9 63 0 20 5 60
12 89 9 42 9 58 -1 76 -8 16 -9 29 -2 42 9 18 27 101 53 244 6 36 19 76 29 90
9 14 19 39 22 55 5 27 14 54 38 120 18 46 42 101 50 115 29 44 59 115 64 148
6 33 4 38 -21 50 -35 16 -41 15 -88 -12z"/>
<path d="M855 1218 c-16 -5 -97 -11 -178 -12 -111 -1 -150 -5 -157 -15 -5 -9
-17 -11 -34 -7 -29 7 -167 -22 -177 -37 -4 -6 -14 -7 -23 -4 -10 4 -33 -3 -54
-16 -20 -12 -54 -31 -75 -42 -20 -11 -37 -27 -37 -36 0 -10 -5 -19 -11 -21
-16 -5 10 -46 33 -54 18 -5 104 18 154 42 26 13 199 23 209 12 6 -6 26 -337
25 -408 -1 -81 14 -178 30 -194 6 -6 28 -10 50 -10 22 1 40 -2 40 -7 0 -16 67
-10 81 7 18 21 19 55 4 79 -17 28 -25 69 -26 135 -1 30 -6 64 -12 75 -6 11
-10 29 -9 40 2 11 -4 50 -13 85 -9 36 -20 83 -25 106 -5 22 -18 57 -30 76 -14
25 -17 36 -8 35 35 -3 138 17 173 33 22 10 55 24 72 31 18 6 30 16 27 21 -3 5
3 12 15 15 12 3 21 9 21 14 0 5 6 9 14 9 7 0 20 7 27 16 11 14 10 18 -6 30
-22 16 -56 17 -100 2z"/>
<path d="M3382 1190 c-18 -4 -38 -14 -45 -23 -7 -8 -29 -17 -51 -20 -21 -4
-47 -14 -57 -23 -10 -9 -22 -13 -28 -10 -5 4 -12 2 -16 -4 -4 -6 -10 -8 -14
-5 -7 4 -52 -40 -141 -140 -36 -41 -26 -76 31 -105 21 -11 45 -20 54 -20 9 0
30 -7 46 -16 22 -11 61 -15 137 -16 108 0 133 -6 165 -39 16 -17 16 -22 3 -47
-17 -32 -40 -54 -52 -50 -9 3 -84 -40 -94 -53 -3 -3 -23 -12 -45 -20 -22 -7
-55 -25 -73 -38 -25 -19 -36 -22 -41 -12 -6 9 -10 7 -13 -7 -3 -10 -18 -22
-33 -26 -43 -11 -58 -32 -51 -69 4 -21 3 -28 -4 -21 -5 5 -11 22 -12 37 -1 15
-7 27 -13 27 -5 0 -4 4 3 9 52 33 -67 130 -223 182 -59 20 -107 39 -153 62
l-23 11 23 18 c13 10 29 18 36 18 7 0 15 7 18 15 4 8 17 15 29 15 22 0 63 28
109 76 34 34 55 85 62 145 6 54 5 57 -23 77 -31 22 -79 38 -101 33 -7 -1 -33
5 -57 15 -50 18 -153 13 -203 -11 -101 -49 -142 -65 -180 -71 -53 -8 -57 -14
-60 -77 -1 -16 -6 -26 -11 -22 -5 3 -12 1 -16 -5 -6 -10 7 -14 33 -11 18 3 3
-51 -19 -66 -15 -12 -17 -31 -15 -186 3 -150 6 -179 24 -220 22 -51 35 -56 71
-31 17 13 22 24 20 53 -3 55 -1 61 22 61 18 0 20 5 17 59 -1 33 0 63 4 67 4 3
29 -7 55 -24 26 -16 59 -33 73 -37 14 -4 39 -13 55 -20 39 -17 68 -27 80 -30
54 -12 209 -73 241 -96 23 -15 44 -26 47 -23 3 3 11 3 18 -1 8 -6 8 -10 -3
-16 -18 -10 -13 -53 9 -70 11 -10 22 -10 47 -1 18 7 41 12 51 12 10 0 26 6 34
14 9 8 59 28 111 45 52 18 106 39 120 49 14 9 30 17 35 18 26 2 96 29 106 41
6 7 17 13 23 13 7 0 22 11 33 24 12 13 38 32 58 42 47 22 77 63 90 122 13 57
0 90 -51 129 -40 30 -132 42 -323 41 -118 0 -145 8 -121 37 7 8 19 15 26 15 8
0 14 3 14 8 0 13 84 51 130 58 25 4 50 13 57 20 7 7 18 14 24 16 6 2 13 20 15
40 4 29 0 40 -18 52 -24 17 -27 18 -76 6z m-622 -184 c0 -2 -6 -19 -14 -38
-11 -26 -24 -38 -56 -48 -22 -7 -45 -19 -51 -27 -6 -7 -19 -13 -29 -13 -9 0
-42 -18 -72 -39 -31 -21 -66 -42 -77 -46 -12 -3 -21 -14 -21 -23 0 -12 -3 -13
-11 -5 -6 6 -8 17 -3 24 9 16 13 38 15 96 1 35 5 43 29 53 15 6 35 12 44 14 9
1 22 8 28 14 7 7 24 12 38 12 14 0 35 7 46 15 16 12 134 23 134 11z"/>
<path d="M4165 1190 c-44 -4 -93 -12 -108 -18 -16 -7 -39 -12 -52 -12 -13 0
-29 -10 -39 -25 -15 -22 -16 -48 -11 -193 3 -92 9 -198 15 -237 12 -89 12 -85
-2 -85 -21 -1 -59 -67 -45 -78 25 -19 48 -21 86 -7 35 12 41 12 52 -2 17 -19
75 -13 114 13 29 19 133 64 149 64 4 0 21 11 38 25 16 14 35 25 42 25 7 0 26
11 42 25 16 14 34 25 40 25 6 0 16 11 24 24 7 13 28 32 46 42 33 18 74 82 74
115 0 8 4 19 10 25 13 13 15 64 2 95 -16 41 -61 83 -133 127 -105 63 -144 69
-344 52z m194 -145 c18 -3 41 -11 51 -20 9 -8 21 -15 27 -15 23 0 57 -51 56
-86 -1 -19 -3 -37 -5 -38 -1 -2 -61 -40 -133 -84 -135 -83 -221 -129 -229
-121 -9 9 -21 231 -13 236 4 2 4 10 0 16 -5 7 -8 35 -8 62 l0 50 50 7 c46 5
116 3 204 -7z"/>
<path d="M1248 1161 c-12 -17 -13 -30 -5 -64 5 -23 12 -49 16 -57 19 -41 -17
-57 -139 -64 -11 -1 -17 16 -23 69 -5 48 -13 74 -25 83 -25 20 -91 8 -117 -21
-34 -35 -34 -59 -3 -85 24 -21 27 -28 26 -95 0 -65 15 -179 29 -217 4 -8 5
-19 4 -23 -3 -16 23 -82 40 -102 10 -11 19 -31 21 -45 4 -29 42 -46 80 -37 30
8 52 51 39 75 -16 30 -53 145 -66 203 l-12 56 28 0 c16 0 37 7 48 17 13 12 32
16 62 14 47 -3 44 4 59 -118 10 -86 13 -101 22 -115 3 -5 9 -26 13 -45 19 -89
62 -132 113 -114 21 7 28 17 30 42 3 25 0 31 -12 26 -10 -4 -16 -1 -16 9 0 8
-5 17 -11 19 -7 2 -12 34 -14 77 -1 40 -6 76 -11 80 -5 3 -10 26 -11 51 -7
153 -12 200 -21 240 -7 25 -12 61 -12 81 0 45 -25 69 -78 76 -32 4 -42 1 -54
-16z"/>
<path d="M1901 1142 c-14 -26 7 -102 36 -129 24 -23 30 -43 13 -43 -5 0 -7 -7
-4 -15 3 -8 2 -20 -2 -27 -5 -7 -7 -23 -5 -36 3 -30 -69 -102 -103 -102 -46 0
-92 67 -102 147 -5 38 -45 152 -61 172 -7 9 -74 3 -87 -8 -14 -12 -12 -62 4
-116 5 -16 14 -64 21 -105 8 -55 20 -87 43 -120 17 -25 34 -47 39 -48 4 -2 13
-10 20 -17 25 -24 79 -47 101 -41 12 3 32 -1 44 -10 13 -8 22 -11 22 -5 0 6 7
11 16 11 37 0 125 82 144 133 6 18 18 46 25 63 13 31 13 53 -3 160 -11 70 -20
89 -60 127 -36 32 -86 37 -101 9z"/>
<path d="M4882 1138 c-7 -7 -12 -22 -12 -33 0 -27 -34 -59 -55 -52 -35 14 -74
-78 -46 -108 11 -12 -3 -210 -18 -248 -6 -16 -9 -56 -6 -89 3 -33 0 -68 -5
-78 -6 -11 -6 -21 -1 -24 5 -4 5 -20 -2 -41 -16 -53 1 -81 54 -90 35 -6 44 -4
53 11 6 11 11 21 11 24 9 43 16 113 20 190 2 52 7 114 10 136 7 41 8 42 39 33
17 -6 58 -9 91 -8 83 2 77 4 127 -43 49 -48 114 -140 142 -205 11 -24 25 -43
33 -43 7 0 13 -4 13 -10 0 -5 7 -10 15 -10 8 0 15 3 15 8 0 4 18 18 40 32 22
14 40 30 40 37 0 24 -19 61 -49 94 -17 18 -31 39 -31 46 0 6 -13 21 -29 32
-16 12 -40 38 -52 59 -13 20 -45 59 -72 87 -54 55 -107 129 -107 149 0 8 -7
19 -15 26 -8 7 -15 19 -15 27 0 24 -67 84 -86 76 -10 -4 -20 0 -26 10 -10 20
-58 23 -76 5z m-77 -108 c3 -5 1 -10 -4 -10 -6 0 -11 5 -11 10 0 6 2 10 4 10
3 0 8 -4 11 -10z m153 -123 c2 -10 -5 -20 -15 -24 -10 -4 -21 -11 -25 -17 -12
-18 -9 10 4 39 12 28 31 29 36 2z"/>
<path d="M2792 277 c-9 -10 -8 -18 3 -33 15 -19 15 -19 30 1 8 10 14 24 12 30
-6 16 -33 17 -45 2z"/>
<path d="M295 240 c3 -5 8 -10 11 -10 2 0 4 5 4 10 0 6 -5 10 -11 10 -5 0 -7
-4 -4 -10z"/>
</g>
</svg>
