<?xml version="1.0" standalone="no"?>
<!DOCTYPE svg PUBLIC "-//W3C//DTD SVG 20010904//EN"
 "http://www.w3.org/TR/2001/REC-SVG-20010904/DTD/svg10.dtd">
<svg version="1.0" xmlns="http://www.w3.org/2000/svg"
 width="100.000000pt" height="132.727273pt" viewBox="0 0 100.000000 132.727273"
 preserveAspectRatio="xMidYMid meet">
<metadata>
Created by potrace 1.11, written by Peter Selinger 2001-2013
</metadata>
<g transform="translate(0.000000,132.727273) scale(0.060606,-0.060606)"
fill="#000000" stroke="none">
<path d="M323 2123 c-13 -2 -28 -12 -35 -21 -7 -9 -35 -35 -63 -56 -69 -55
-80 -67 -100 -112 -9 -21 -22 -49 -28 -62 -6 -13 -11 -76 -11 -140 0 -96 4
-129 23 -184 12 -37 26 -70 31 -73 5 -3 12 -26 16 -51 7 -47 70 -183 112 -241
12 -17 22 -34 22 -38 0 -3 12 -25 27 -48 43 -65 53 -81 60 -97 4 -8 24 -43 45
-77 20 -35 40 -74 44 -88 3 -14 12 -25 20 -25 8 0 14 -5 14 -12 0 -6 9 -32 21
-57 71 -157 98 -260 100 -388 1 -50 -38 -140 -63 -146 -19 -5 -58 23 -58 42 0
6 -4 11 -9 11 -8 0 -37 54 -56 105 -13 34 -16 129 -7 173 7 28 6 59 -2 94 -10
49 -12 51 -28 34 -29 -28 -58 -163 -58 -268 0 -103 66 -247 135 -292 28 -19
116 -21 148 -5 30 17 53 46 81 104 37 75 41 158 16 299 -11 66 -23 123 -26
128 -3 4 -12 33 -20 65 -9 33 -29 74 -48 97 -18 23 -39 58 -47 79 -7 20 -19
37 -25 37 -7 0 -16 20 -20 45 -4 27 -13 49 -23 55 -10 5 -31 37 -48 73 -17 35
-48 85 -67 110 -20 26 -36 50 -36 53 0 3 -11 20 -24 37 -13 18 -27 48 -31 67
-3 19 -16 55 -27 80 -11 25 -27 59 -34 75 -17 36 -45 149 -48 189 -6 77 30
209 61 229 7 4 25 19 41 32 48 43 51 45 72 45 29 0 66 -43 85 -98 35 -99 57
-158 66 -175 5 -9 12 -38 16 -64 l6 -46 -37 6 c-47 8 -65 0 -77 -31 -13 -33 8
-63 63 -96 39 -23 53 -25 139 -23 107 2 115 7 160 90 16 30 18 42 8 53 -17 20
-37 17 -71 -11 -16 -14 -33 -25 -36 -25 -13 1 -83 172 -77 189 3 10 -6 38 -19
62 -13 24 -27 60 -31 79 -8 45 -26 90 -42 110 -7 8 -27 31 -43 51 -21 26 -41
39 -68 43 -20 4 -44 8 -52 10 -8 2 -25 1 -37 -1z"/>
<path d="M1141 1604 c-25 -32 -25 -41 -7 -131 8 -37 19 -117 26 -178 6 -60 16
-137 21 -169 12 -79 -3 -128 -50 -165 -20 -15 -46 -30 -58 -33 -30 -8 -53 28
-48 73 3 18 -1 39 -7 47 -11 13 -21 71 -33 197 -15 156 -19 165 -66 165 -43 0
-52 -33 -43 -155 4 -55 9 -109 10 -120 2 -11 8 -49 13 -85 9 -62 25 -119 52
-187 12 -30 45 -51 106 -68 21 -6 130 45 144 68 11 16 38 0 52 -30 6 -15 20
-37 29 -47 10 -11 18 -23 18 -28 0 -4 23 -19 50 -33 57 -29 123 -32 152 -7 45
38 76 138 58 186 l-10 29 -25 -29 c-14 -16 -25 -32 -25 -36 0 -13 -51 -58 -65
-58 -28 0 -45 13 -59 44 -30 71 -36 88 -36 111 0 14 -4 25 -9 25 -11 0 -20 71
-27 220 -4 90 -9 119 -23 135 -12 13 -22 53 -30 115 -10 77 -18 101 -40 129
-36 45 -45 47 -70 15z"/>
</g>
</svg>
