<?xml version="1.0" standalone="no"?>
<!DOCTYPE svg PUBLIC "-//W3C//DTD SVG 20010904//EN"
 "http://www.w3.org/TR/2001/REC-SVG-20010904/DTD/svg10.dtd">
<svg version="1.0" xmlns="http://www.w3.org/2000/svg"
 width="100.000000pt" height="35.870699pt" viewBox="0 0 100.000000 35.870699"
 preserveAspectRatio="xMidYMid meet">
<metadata>
Created by potrace 1.11, written by Peter Selinger 2001-2013
</metadata>
<g transform="translate(0.000000,35.870699) scale(0.010428,-0.010428)"
fill="#000000" stroke="none">
<path d="M3224 3336 c-55 -17 -153 -77 -159 -97 -3 -10 -12 -20 -20 -23 -8 -3
-15 -10 -15 -17 0 -6 -8 -23 -18 -37 -11 -15 -22 -38 -26 -52 -31 -111 -67
-263 -75 -318 -6 -37 -18 -101 -27 -142 -8 -41 -15 -105 -15 -142 0 -37 -4
-70 -9 -73 -5 -3 -6 -21 -3 -41 6 -35 5 -36 -25 -31 -17 3 -41 12 -54 21 -15
11 -44 16 -90 16 -71 0 -88 -8 -141 -67 -10 -12 -30 -24 -43 -27 -14 -4 -43
-32 -69 -67 -25 -34 -56 -70 -70 -81 -18 -14 -25 -29 -25 -54 0 -19 -4 -42 -9
-52 -5 -9 -21 -71 -36 -137 -30 -133 -63 -245 -76 -259 -5 -6 -9 -26 -9 -44 0
-47 -61 -138 -106 -160 -34 -16 -35 -15 -59 8 -13 14 -45 45 -70 70 -64 64
-61 94 20 182 51 54 67 81 90 143 10 28 24 57 30 65 24 32 39 107 40 199 l0
97 -60 68 c-70 78 -98 96 -155 96 -46 0 -150 -44 -150 -64 0 -7 -12 -24 -28
-39 -39 -37 -45 -46 -75 -108 -46 -99 -59 -191 -37 -284 6 -27 18 -79 25 -115
8 -36 25 -98 40 -139 l26 -73 -25 -43 c-36 -60 -129 -150 -184 -176 -56 -27
-71 -45 -72 -81 0 -34 24 -48 84 -48 40 0 51 6 110 57 36 32 66 63 66 70 0 7
20 24 44 38 37 21 49 24 65 15 12 -6 21 -14 21 -19 0 -4 12 -14 28 -21 15 -8
35 -21 44 -28 23 -20 114 -18 158 3 77 35 160 98 160 120 0 6 8 20 18 31 10
10 34 45 54 77 l36 58 11 -33 c13 -39 89 -191 115 -231 44 -66 145 -85 221
-43 122 69 161 101 214 179 24 35 36 46 44 38 6 -6 19 -11 29 -11 11 0 23 -14
33 -36 8 -20 26 -49 40 -66 20 -24 25 -38 20 -64 -6 -40 -15 -37 125 -34 119
2 156 16 173 61 6 16 15 29 19 29 4 0 8 6 8 13 0 6 12 23 25 36 l25 23 1 -23
c1 -13 1 -33 0 -44 -3 -36 -42 -210 -52 -227 -14 -27 -11 -68 6 -74 8 -3 27
-2 42 3 24 8 29 17 35 62 5 28 15 65 23 81 8 16 22 64 30 106 8 42 21 86 28
98 8 12 17 49 20 83 4 41 15 73 32 99 14 20 25 51 25 69 0 18 7 39 17 46 20
17 79 105 110 163 12 22 42 63 67 90 25 27 46 51 46 52 0 2 33 35 73 74 80 79
142 120 181 120 24 0 26 -4 27 -42 0 -24 2 -52 4 -63 5 -26 -20 -179 -36 -225
-9 -24 -13 -108 -13 -270 -1 -230 -1 -236 22 -266 48 -64 135 -86 189 -47 14
10 33 22 42 28 9 5 31 21 50 34 l33 24 48 -52 c38 -41 53 -51 79 -51 42 0 116
38 171 89 25 23 53 44 62 47 9 3 18 12 20 21 2 9 13 -4 27 -33 23 -47 133
-163 155 -165 6 0 25 -2 41 -4 17 -3 59 6 95 20 36 13 80 26 98 30 20 4 56 28
91 61 44 40 66 54 89 54 31 0 152 50 152 63 0 10 38 47 49 47 5 0 25 18 44 40
19 22 43 40 54 40 13 0 34 17 54 45 19 24 37 45 40 45 4 0 10 -12 14 -27 15
-65 62 -168 87 -196 16 -16 28 -32 28 -36 0 -3 17 -25 38 -48 l37 -43 105 -11
c99 -11 107 -11 145 9 22 11 67 43 100 71 32 28 65 51 72 51 7 0 13 4 13 9 0
5 22 27 48 50 57 47 51 52 93 -77 25 -77 36 -94 92 -136 37 -29 107 -36 133
-13 160 136 224 198 240 232 10 21 24 41 30 42 7 2 17 -22 25 -58 8 -35 19
-67 24 -73 6 -6 24 -42 40 -80 46 -106 107 -138 228 -122 41 5 75 15 80 23 4
7 15 13 23 13 8 0 17 7 20 15 4 8 10 15 15 15 20 0 120 73 145 105 14 19 33
35 42 35 8 0 45 -24 81 -54 85 -69 148 -88 214 -62 24 9 71 33 103 53 32 19
72 43 89 52 32 18 85 70 85 86 0 5 10 19 23 30 12 11 27 29 33 40 12 22 54 46
66 39 5 -3 22 -35 38 -71 50 -110 119 -151 225 -132 33 6 79 21 103 34 l42 24
0 -27 c-1 -15 -9 -52 -20 -82 -11 -30 -19 -66 -20 -79 0 -13 -9 -80 -20 -150
-10 -69 -22 -151 -25 -182 l-6 -56 -137 -7 c-155 -7 -222 -22 -288 -63 -46
-29 -100 -98 -111 -143 -3 -14 -10 -30 -15 -37 -19 -24 -38 -135 -39 -231 -1
-80 3 -111 21 -161 25 -68 37 -79 159 -149 111 -63 182 -77 269 -53 43 12 91
63 113 119 5 12 13 22 19 22 5 0 10 11 10 24 0 13 9 45 19 72 10 27 29 126 41
219 12 94 30 198 41 233 17 52 25 63 47 68 15 3 45 9 67 14 22 5 63 11 91 15
50 5 114 30 114 43 0 4 15 14 33 21 17 8 56 40 86 70 112 117 166 285 108 339
-12 12 -27 18 -33 14 -17 -12 -25 -42 -14 -62 32 -59 -101 -267 -200 -312 -33
-15 -156 -36 -242 -43 -31 -2 -38 1 -38 16 0 20 18 101 30 134 20 57 26 84 29
130 1 28 11 77 22 109 10 33 19 70 19 82 0 13 4 25 9 29 5 3 17 29 26 58 20
62 33 93 57 129 10 14 18 44 18 66 0 24 6 45 16 52 21 18 93 114 129 173 17
26 54 83 84 125 29 42 56 83 59 92 3 8 16 30 29 47 13 18 38 65 55 105 17 40
34 75 39 78 19 13 30 73 35 198 5 129 4 135 -20 177 -32 54 -99 90 -154 82
-47 -6 -119 -40 -154 -72 -15 -14 -29 -25 -32 -25 -12 0 -57 -54 -71 -83 -17
-38 -46 -87 -62 -104 -6 -7 -15 -27 -18 -45 -4 -17 -20 -60 -36 -96 -36 -81
-78 -315 -93 -527 -15 -201 -13 -194 -77 -257 -91 -90 -187 -102 -236 -29 -23
34 -31 85 -14 95 4 3 14 34 20 68 7 35 21 90 32 123 76 239 91 296 84 322 -5
16 -7 38 -6 49 2 24 -37 61 -75 70 -38 10 -66 -20 -97 -103 -34 -92 -57 -175
-57 -207 0 -12 -7 -31 -15 -42 -8 -10 -35 -61 -59 -111 -25 -51 -59 -107 -77
-124 -17 -17 -41 -48 -53 -69 -79 -145 -214 -243 -301 -219 -20 6 -46 19 -58
30 -12 11 -30 28 -41 37 -23 21 -37 57 -30 76 3 8 42 52 86 98 44 46 91 103
106 128 14 25 32 50 38 57 13 14 55 96 58 115 1 7 9 27 18 43 9 17 19 49 23
70 4 22 13 50 21 62 21 33 17 61 -15 129 -27 58 -31 62 -90 84 -53 19 -72 22
-134 15 -68 -6 -74 -9 -113 -50 -23 -23 -47 -56 -55 -74 -8 -17 -20 -33 -28
-36 -16 -6 -41 12 -41 30 0 24 -43 67 -85 85 -40 17 -113 26 -182 22 -50 -3
-177 -135 -231 -242 -19 -36 -44 -78 -56 -95 -29 -39 -76 -147 -76 -173 0 -29
-50 -133 -67 -139 -7 -3 -13 -11 -13 -18 0 -22 -44 -92 -90 -142 -54 -59 -94
-112 -103 -135 -16 -44 -79 -1 -104 70 -7 20 -16 78 -19 127 l-7 91 32 26 c17
15 31 35 31 46 0 11 7 26 16 33 23 19 64 85 64 103 0 19 37 83 71 123 15 17
31 42 35 55 4 13 21 46 38 73 17 28 36 61 42 75 7 14 25 54 42 90 17 36 43 92
57 125 15 33 33 71 42 85 30 52 73 150 83 192 6 24 13 52 16 63 3 11 8 36 11
55 3 19 14 61 24 92 21 64 18 185 -7 247 -8 18 -12 37 -9 41 6 10 -24 70 -36
70 -5 0 -9 4 -9 9 0 5 17 7 38 4 29 -4 35 -2 25 8 -7 6 -59 16 -118 22 l-105
9 -59 -38 c-42 -28 -65 -51 -77 -79 -10 -22 -22 -42 -25 -45 -4 -3 -30 -52
-58 -110 -28 -58 -63 -125 -79 -150 -15 -25 -36 -67 -46 -95 -10 -27 -23 -54
-27 -59 -5 -6 -9 -17 -9 -25 0 -9 -7 -29 -16 -46 -9 -16 -29 -97 -46 -180 -16
-82 -34 -155 -40 -162 -8 -10 -21 -2 -57 36 -65 70 -150 111 -231 111 -47 0
-68 -5 -88 -20 -15 -12 -62 -43 -104 -71 -50 -32 -90 -68 -115 -102 -21 -29
-41 -54 -46 -56 -4 -1 -18 -26 -31 -55 -13 -28 -31 -58 -41 -66 -23 -19 -48
-80 -64 -155 -7 -33 -18 -69 -24 -80 -6 -11 -26 -50 -45 -86 -36 -70 -126
-171 -181 -202 l-32 -19 2 111 c1 61 8 141 16 178 27 130 21 574 -10 668 -35
108 -98 185 -152 185 -31 0 -37 -5 -58 -47 -14 -27 -43 -83 -66 -126 -22 -42
-41 -82 -41 -87 0 -6 -13 -39 -30 -73 -16 -35 -30 -69 -30 -76 0 -6 -4 -19 -9
-29 -6 -9 -28 -55 -49 -102 -36 -76 -47 -102 -53 -128 -2 -4 -15 -29 -31 -55
-15 -26 -28 -52 -28 -56 0 -5 -11 -25 -25 -45 -14 -20 -28 -48 -31 -61 -3 -14
-10 -25 -15 -25 -10 0 -119 -217 -119 -237 0 -7 -31 -44 -68 -82 -65 -67 -118
-100 -132 -84 -15 17 -30 78 -30 120 0 36 5 50 28 71 16 15 34 37 41 50 6 12
16 22 22 22 6 0 30 17 55 37 44 37 75 84 87 133 3 14 16 37 29 53 48 59 75
222 77 460 1 146 -10 177 -78 212 -85 43 -121 48 -187 25 -58 -20 -75 -36 -81
-75 -2 -11 -16 -33 -32 -50 -48 -50 -81 -149 -96 -289 -4 -33 -11 -71 -16 -85
-29 -74 -25 -443 6 -562 5 -19 0 -33 -18 -55 -33 -39 -111 -78 -141 -70 -43
11 -44 117 -1 218 8 21 15 54 15 75 0 21 12 70 26 108 14 39 27 79 29 90 10
61 23 185 22 220 0 22 3 70 8 107 7 59 5 70 -14 102 -13 20 -29 36 -37 36 -8
0 -17 7 -20 15 -4 8 -15 15 -26 15 -10 0 -32 7 -47 15 -32 16 -92 9 -171 -20
-48 -18 -159 -88 -203 -129 -35 -33 -51 -33 -43 -2 14 55 -29 106 -89 106 -14
0 -25 5 -25 10 0 23 -88 0 -92 -24 -1 -6 -3 -36 -4 -66 -5 -121 -29 -255 -50
-277 -11 -12 -28 -47 -39 -78 -10 -31 -23 -59 -28 -62 -15 -9 -47 -93 -47
-123 0 -43 -55 -155 -102 -209 -13 -14 -29 -37 -36 -51 -15 -29 -97 -84 -111
-76 -16 10 -75 119 -83 151 -31 134 -31 122 11 209 22 45 43 93 47 109 3 15
10 27 14 27 19 0 86 176 116 305 4 17 10 32 13 35 9 7 58 164 72 229 6 30 18
69 25 87 42 100 62 565 28 667 -31 93 -86 122 -180 93z m3953 -12 c-3 -3 -12
-4 -19 -1 -8 3 -5 6 6 6 11 1 17 -2 13 -5z m-3934 -354 c11 -89 -12 -382 -38
-495 -13 -55 -27 -116 -30 -135 -11 -57 -84 -282 -104 -319 -15 -29 -19 -31
-23 -14 -14 52 19 643 36 672 6 9 18 100 18 125 -1 10 5 31 12 45 7 14 16 46
20 69 7 48 37 113 64 140 16 17 18 16 28 -8 6 -14 14 -50 17 -80z m3828 -63
c-9 -84 -19 -124 -61 -227 -75 -183 -130 -303 -142 -308 -5 -2 -8 -9 -8 -15 0
-6 -9 -29 -19 -51 -23 -49 -44 -99 -62 -145 -19 -51 -65 -132 -94 -166 l-25
-30 6 35 c4 19 18 73 31 120 14 47 27 114 30 150 3 36 12 74 19 85 7 11 20 63
29 115 10 52 21 100 25 105 5 6 22 51 39 100 49 141 124 284 178 338 l48 48 8
-26 c6 -16 5 -67 -2 -128z m2271 -309 c8 -21 -11 -167 -28 -217 -47 -141 -170
-368 -244 -451 -29 -33 -31 -33 -26 -10 3 14 8 50 12 80 4 30 14 60 21 65 8 6
18 42 24 85 18 151 55 294 87 341 28 42 120 118 143 119 4 0 9 -6 11 -12z
m-4612 -282 c14 -27 12 -41 -25 -236 -9 -47 -22 -94 -28 -105 -6 -11 -23 -45
-39 -75 -16 -30 -37 -66 -48 -80 l-20 -25 5 125 c2 69 6 136 8 150 17 93 52
198 83 245 21 32 47 32 64 1z m1547 -25 c46 -18 107 -67 215 -172 l48 -47 0
-95 c0 -56 -4 -99 -10 -102 -7 -4 -7 -11 -2 -18 16 -21 22 -65 13 -89 -5 -13
-39 -57 -76 -98 -36 -41 -73 -87 -81 -102 -8 -15 -26 -33 -41 -40 -15 -7 -33
-23 -39 -36 -23 -46 -49 -55 -141 -49 -85 6 -123 22 -123 53 0 7 -5 14 -11 16
-5 2 -12 29 -14 60 -1 32 -11 78 -21 103 -14 38 -16 66 -11 173 6 135 30 225
79 295 28 41 149 167 159 167 5 0 30 -9 56 -19z m-935 -101 c-5 -40 -5 -94 -1
-122 4 -27 6 -54 4 -61 -2 -7 -6 -59 -9 -118 -6 -105 -21 -237 -33 -274 -9
-30 -28 -44 -51 -39 -11 3 -23 1 -26 -5 -7 -10 -66 17 -66 31 0 4 -15 14 -32
23 -49 23 -108 79 -108 103 0 11 6 27 13 34 8 7 22 37 31 65 10 29 28 62 41
75 14 13 25 30 25 39 0 9 7 22 15 29 8 7 15 16 15 21 0 5 9 18 20 29 11 11 20
27 20 35 0 8 5 15 10 15 6 0 10 5 10 11 0 6 15 29 33 52 17 23 38 51 45 62 7
11 20 32 30 47 9 15 18 25 20 24 1 -2 -1 -36 -6 -76z m-3385 28 c15 -34 -7
-202 -34 -268 -4 -8 -8 -22 -9 -30 -1 -8 -16 -55 -34 -105 -17 -49 -34 -98
-37 -107 -3 -10 -9 -18 -14 -18 -14 0 -23 71 -22 195 0 98 4 130 22 175 11 30
21 62 21 70 0 16 76 110 89 110 4 0 12 -10 18 -22z m834 -35 c47 -52 49 -62
65 -277 3 -44 9 -87 15 -97 5 -10 9 -36 9 -58 0 -23 4 -41 10 -41 5 0 12 -11
16 -25 5 -19 -5 -41 -42 -97 -133 -198 -271 -266 -333 -165 -25 41 -31 93 -36
317 -4 151 -2 191 10 214 8 15 15 35 15 43 0 8 10 29 23 46 12 18 31 52 43 77
23 49 51 78 92 97 48 21 67 15 113 -34z m5202 16 c11 -42 -63 -268 -94 -289
-11 -7 -89 -174 -89 -190 0 -6 -4 -9 -8 -6 -5 3 -8 20 -6 38 2 18 5 64 8 102
3 37 7 71 10 74 3 3 6 16 6 29 0 13 7 37 15 53 9 17 15 31 15 32 -1 3 7 31 21
68 5 14 23 41 39 60 17 19 30 38 30 43 0 4 11 7 24 7 16 0 26 -7 29 -21z
m-472 -85 c5 -14 19 -28 31 -33 48 -19 63 -24 71 -23 17 4 27 -57 31 -196 3
-81 10 -169 16 -197 25 -120 26 -116 -26 -167 -26 -27 -54 -48 -61 -48 -7 0
-13 -4 -13 -9 0 -6 -18 -20 -40 -32 -22 -13 -40 -26 -40 -30 0 -10 -95 -39
-125 -39 -38 0 -75 37 -75 75 0 19 -4 36 -8 39 -18 11 -35 174 -28 263 6 81
32 192 49 209 4 4 7 20 7 35 0 15 7 34 15 43 8 8 15 26 15 40 0 39 48 85 92
89 21 2 41 6 44 10 11 11 35 -5 45 -29z m1510 -247 c-10 -9 -11 -8 -5 6 3 10
9 15 12 12 3 -3 0 -11 -7 -18z m-4021 -267 c6 0 26 -11 44 -25 18 -13 49 -32
70 -40 21 -9 40 -25 43 -36 5 -19 36 -33 64 -29 8 2 20 2 28 1 23 -2 -39 -61
-64 -61 -12 0 -40 -9 -63 -20 -64 -31 -93 -26 -144 23 -82 77 -96 123 -58 185
20 33 22 33 45 18 13 -9 29 -16 35 -16z m3727 -774 c3 -3 1 -25 -5 -48 -6 -24
-18 -131 -28 -238 -9 -107 -20 -199 -25 -204 -5 -6 -9 -20 -9 -32 0 -12 -7
-27 -15 -34 -8 -7 -15 -18 -15 -24 0 -6 -11 -28 -25 -48 -20 -30 -31 -37 -67
-40 -38 -4 -114 15 -128 32 -3 4 -31 19 -62 34 -54 27 -108 70 -108 87 0 4 -5
42 -11 84 -20 144 19 284 101 364 33 32 95 60 165 75 26 5 226 -1 232 -8z"/>
<path d="M205 3050 c-27 -11 -62 -19 -77 -20 -52 0 -55 -18 -52 -276 2 -130 1
-241 -3 -247 -3 -6 -5 -74 -3 -151 1 -78 3 -256 4 -396 2 -173 8 -290 19 -365
9 -60 18 -136 21 -168 3 -32 11 -77 17 -100 25 -98 33 -123 42 -134 5 -7 12
-51 16 -98 5 -67 11 -87 26 -98 35 -26 66 -6 112 70 68 116 120 224 138 288 9
33 36 103 60 155 23 52 47 106 52 119 8 20 12 6 26 -80 24 -151 42 -240 54
-270 7 -15 12 -58 12 -97 0 -78 13 -137 35 -167 9 -12 16 -42 16 -71 0 -63 17
-90 51 -78 13 4 31 8 40 9 21 2 61 46 96 105 14 25 42 69 62 99 65 97 71 106
81 129 5 13 10 28 10 33 0 5 4 9 9 9 10 0 77 151 87 195 4 17 13 41 20 55 69
132 100 224 115 340 9 72 17 132 22 170 9 63 31 159 45 200 9 25 21 90 27 145
9 78 14 99 26 96 30 -8 90 -1 111 13 12 9 30 16 40 16 30 0 95 67 142 149 52
88 68 158 42 180 -9 7 -16 20 -16 27 0 17 -14 18 -41 4 -12 -7 -19 -21 -19
-42 0 -41 -52 -122 -99 -154 -51 -34 -82 -31 -129 14 -41 38 -122 183 -122
218 0 30 -29 64 -55 64 -33 0 -63 -51 -58 -98 2 -21 4 -41 5 -47 2 -28 -12
-208 -18 -216 -8 -13 -28 -286 -26 -364 1 -52 -21 -192 -35 -224 -17 -39 -25
-75 -48 -226 -8 -55 -22 -125 -31 -155 -8 -30 -24 -89 -35 -130 -11 -41 -24
-77 -30 -81 -6 -3 -9 -15 -7 -26 1 -11 -4 -35 -13 -54 -101 -211 -154 -310
-157 -294 -1 11 -9 45 -17 75 -8 30 -14 64 -14 75 0 11 -2 220 -5 465 -4 288
-2 484 5 555 6 61 12 140 15 177 2 37 11 82 19 99 20 38 13 70 -22 103 -20 19
-31 23 -44 15 -10 -5 -30 -9 -46 -9 -45 0 -63 -31 -79 -138 -8 -54 -17 -104
-21 -112 -3 -8 -5 -24 -4 -35 1 -11 -8 -51 -19 -90 -11 -38 -20 -81 -20 -94 0
-14 -4 -38 -9 -55 -27 -87 -45 -155 -52 -191 -20 -115 -78 -297 -99 -310 -5
-3 -10 -15 -10 -27 0 -37 -52 -188 -65 -188 -9 0 -12 -13 -11 -42 2 -40 -12
-88 -26 -88 -24 0 -32 702 -10 900 7 58 14 157 17 220 3 63 8 138 10 165 5 45
35 465 35 491 0 6 -11 24 -25 40 -14 16 -25 32 -25 37 0 11 -31 7 -85 -13z"/>
</g>
</svg>
