<?xml version="1.0" standalone="no"?>
<!DOCTYPE svg PUBLIC "-//W3C//DTD SVG 20010904//EN"
 "http://www.w3.org/TR/2001/REC-SVG-20010904/DTD/svg10.dtd">
<svg version="1.0" xmlns="http://www.w3.org/2000/svg"
 width="100.000000pt" height="24.767225pt" viewBox="0 0 100.000000 24.767225"
 preserveAspectRatio="xMidYMid meet">
<metadata>
Created by potrace 1.11, written by Peter Selinger 2001-2013
</metadata>
<g transform="translate(0.000000,24.767225) scale(0.018622,-0.018622)"
fill="#000000" stroke="none">
<path d="M5088 1235 c-31 -17 -35 -29 -37 -105 0 -30 -8 -76 -16 -101 -9 -25
-19 -65 -23 -89 -9 -51 -24 -60 -49 -29 -40 51 -124 129 -138 129 -8 0 -15 5
-15 10 0 6 -23 33 -51 60 -53 52 -100 67 -113 35 -3 -8 -14 -15 -24 -15 -11 0
-25 -7 -33 -16 -11 -13 -8 -20 18 -47 79 -81 128 -127 134 -127 8 0 79 -67 79
-75 0 -9 27 -35 37 -35 5 0 27 -18 48 -40 21 -22 45 -40 52 -40 7 0 13 -9 13
-20 0 -24 -19 -105 -32 -139 -5 -14 -12 -100 -15 -193 -6 -183 -3 -198 47
-198 44 0 50 17 49 141 -1 63 4 126 10 142 6 15 18 58 27 95 8 37 17 72 18 77
2 6 6 28 11 49 4 22 19 66 31 98 13 32 24 69 24 83 0 14 5 25 10 25 6 0 10 14
10 32 0 17 7 39 15 48 12 13 17 49 20 139 l4 121 -42 0 c-23 -1 -54 -7 -69
-15z"/>
<path d="M2321 1169 c-16 -26 -18 -46 -15 -128 4 -105 -2 -171 -17 -171 -5 0
-59 29 -118 65 -60 36 -114 65 -120 65 -6 0 -11 4 -11 8 0 5 -21 24 -47 43
-25 19 -54 40 -64 47 -26 20 -55 7 -116 -54 l-53 -54 1 -63 c3 -84 -9 -191
-27 -253 -8 -29 -16 -63 -18 -78 -1 -14 -6 -29 -9 -33 -4 -3 -7 -20 -7 -38 0
-61 66 -96 116 -60 20 13 29 58 36 170 1 11 12 30 25 43 15 13 21 27 16 35
-11 18 -15 58 -7 76 4 9 9 42 10 74 2 33 5 61 8 64 5 6 69 -28 74 -39 2 -5 12
-8 21 -8 10 0 29 -11 42 -24 14 -14 45 -32 69 -42 25 -10 49 -24 53 -31 4 -7
15 -13 22 -13 8 0 15 -3 15 -8 0 -7 71 -58 124 -90 29 -17 83 -6 124 24 36 28
36 44 0 122 -11 24 -18 54 -15 68 2 13 0 27 -5 30 -4 3 -6 10 -2 15 3 5 1 15
-4 22 -5 7 -9 44 -7 82 3 74 -10 145 -29 157 -23 15 -47 7 -65 -23z"/>
<path d="M3095 1190 c-22 -4 -75 -19 -117 -33 -66 -21 -78 -22 -91 -10 -9 9
-23 12 -41 7 -25 -6 -26 -9 -21 -48 6 -39 5 -42 -27 -55 -18 -7 -37 -13 -41
-12 -13 2 -20 -29 -9 -42 6 -6 13 -29 17 -50 4 -20 11 -40 16 -42 4 -3 6 -11
3 -18 -8 -23 33 -318 51 -359 8 -21 64 -25 97 -7 22 12 40 3 19 -10 -11 -7
-11 -10 0 -14 8 -3 2 -6 -12 -6 -27 -1 -40 -16 -32 -38 6 -17 58 -17 75 0 7 7
54 19 103 27 50 7 106 21 125 31 19 10 64 30 100 45 75 32 100 52 126 100 10
18 22 34 26 34 17 0 51 37 65 73 8 20 19 37 24 37 5 0 9 7 9 15 0 8 4 15 9 15
5 0 21 24 34 53 29 61 26 97 -10 130 -14 12 -35 31 -47 42 -70 64 -135 115
-148 115 -8 0 -19 5 -25 11 -13 13 -224 20 -278 9z m216 -163 c86 -36 98 -45
92 -66 -3 -13 2 -24 16 -33 24 -15 25 -26 9 -80 -10 -33 -21 -44 -75 -74 -34
-20 -65 -40 -69 -45 -3 -5 -14 -9 -24 -9 -11 0 -34 -13 -53 -30 -28 -24 -214
-130 -229 -130 -3 0 -3 30 -1 68 6 90 4 320 -3 354 -4 23 0 29 27 43 76 40
217 40 310 2z"/>
<path d="M133 1178 c-4 -7 -19 -13 -33 -13 -19 0 -24 -5 -22 -20 10 -68 22
-455 16 -530 -9 -113 -5 -392 7 -422 4 -12 19 -29 32 -38 20 -13 29 -14 51 -4
14 7 26 20 26 29 0 9 3 20 8 24 4 4 7 148 7 319 0 172 4 329 9 350 l9 38 33
-32 c19 -18 34 -37 34 -42 0 -13 58 -93 92 -128 16 -15 28 -31 28 -36 0 -14
41 -59 65 -71 12 -6 36 -7 55 -3 32 6 36 10 44 55 5 27 17 57 27 67 11 11 19
25 19 33 0 16 31 78 43 87 5 3 14 23 22 45 l13 39 12 -45 c22 -86 42 -140 51
-140 5 0 9 -12 9 -27 0 -16 9 -39 20 -53 11 -14 20 -32 20 -41 0 -9 9 -28 20
-42 21 -26 63 -117 54 -117 -2 0 2 -10 10 -22 7 -13 19 -40 26 -60 14 -45 22
-51 76 -54 39 -3 43 0 53 26 12 36 3 100 -15 107 -8 3 -14 18 -14 33 0 16 -4
31 -9 34 -5 3 -16 29 -26 58 -9 29 -25 62 -34 73 -21 24 -44 107 -35 129 3 9
2 16 -2 16 -11 0 -28 39 -49 113 -9 31 -21 57 -26 57 -5 0 -9 8 -9 18 -1 9
-14 42 -30 72 -16 30 -37 70 -47 88 -18 35 -22 36 -74 22 -38 -11 -59 -41 -59
-86 0 -14 -6 -35 -14 -47 -8 -12 -17 -33 -20 -47 -9 -47 -74 -171 -94 -178
-12 -4 -82 61 -82 77 0 6 -4 11 -10 11 -5 0 -10 7 -10 15 0 7 -6 18 -12 22 -7
4 -35 40 -62 80 -55 82 -80 108 -116 118 -14 4 -35 18 -47 31 -25 28 -29 29
-40 12z"/>
<path d="M3970 1163 c-36 -14 -70 -69 -87 -139 -3 -12 -15 -27 -26 -33 -20
-10 -22 -22 -25 -98 -2 -48 -7 -107 -13 -131 -5 -24 -10 -66 -11 -95 0 -30 -8
-63 -19 -81 -11 -17 -19 -47 -19 -66 0 -31 4 -37 32 -48 47 -17 104 2 111 37
14 64 35 123 52 143 10 12 20 42 21 67 2 25 7 57 11 71 3 14 5 29 4 34 -1 5
20 6 48 2 37 -5 64 -2 106 13 l57 20 51 -52 c50 -50 74 -82 107 -139 84 -148
105 -171 145 -162 44 9 63 30 57 62 -2 15 -8 32 -12 37 -4 6 -11 24 -14 40 -7
31 -49 85 -66 85 -6 0 -10 7 -10 15 0 8 -9 15 -20 15 -13 0 -18 5 -14 15 6 16
-32 85 -47 85 -5 0 -14 11 -20 23 -6 13 -24 31 -40 41 -16 9 -29 23 -29 30 0
7 -11 23 -25 36 -14 13 -25 29 -25 36 0 6 -17 26 -37 43 -21 17 -46 37 -55 46
-10 8 -22 15 -28 15 -5 0 -10 4 -10 9 0 5 -8 12 -17 15 -34 9 -118 15 -133 9z
m70 -131 c0 -5 14 -22 31 -40 l31 -32 -28 -11 c-16 -6 -37 -18 -48 -27 -18
-16 -19 -16 -14 30 3 26 1 51 -4 56 -6 6 -7 15 -4 21 8 13 36 15 36 3z"/>
<path d="M1313 1101 c-37 -17 -153 -122 -178 -162 -5 -9 -25 -35 -42 -59 -36
-47 -43 -100 -22 -174 20 -72 143 -173 218 -180 21 -1 43 -6 49 -10 6 -3 13
-2 17 4 3 6 21 16 39 24 17 7 43 26 56 42 14 16 40 40 58 52 17 13 32 32 32
42 0 11 9 34 20 52 15 24 20 51 20 101 0 75 -18 128 -57 169 -24 25 -24 28 -9
43 28 29 5 51 -61 58 -32 4 -67 9 -78 12 -11 3 -39 -4 -62 -14z m47 -188 c21
-13 44 -23 51 -23 7 0 21 -7 31 -17 23 -21 26 -103 3 -103 -8 0 -15 -6 -15
-13 0 -35 -79 -77 -143 -77 -39 1 -44 4 -69 46 -52 85 -30 160 63 212 22 12
35 15 37 8 1 -6 20 -21 42 -33z"/>
</g>
</svg>
