<?xml version="1.0" standalone="no"?>
<!DOCTYPE svg PUBLIC "-//W3C//DTD SVG 20010904//EN"
 "http://www.w3.org/TR/2001/REC-SVG-20010904/DTD/svg10.dtd">
<svg version="1.0" xmlns="http://www.w3.org/2000/svg"
 width="43200.000000pt" height="5282.096070pt" viewBox="0 0 43200.000000 5282.096070"
 preserveAspectRatio="xMidYMid meet">
<metadata>
Created by potrace 1.11, written by Peter Selinger 2001-2013
</metadata>
<g transform="translate(0.000000,5282.096070) scale(1.572052,-1.572052)"
fill="#000000" stroke="none">
<path d="M14609 3326 c-2 -2 -138 -6 -302 -9 -164 -2 -300 -7 -304 -11 -4 -3
-21 -4 -39 0 -18 3 -90 1 -161 -6 -70 -6 -180 -11 -243 -10 -339 7 -533 -4
-735 -41 -33 -6 -85 -12 -115 -14 -216 -13 -259 -17 -295 -26 -22 -6 -60 -13
-85 -16 -25 -2 -54 -8 -65 -13 -11 -5 -47 -12 -80 -16 -33 -4 -69 -9 -80 -11
-11 -2 -72 -5 -135 -7 -63 -1 -140 -6 -170 -10 -30 -4 -136 -11 -235 -16 -99
-5 -254 -15 -345 -21 -91 -7 -178 -12 -195 -12 -55 0 -248 -18 -258 -24 -6 -3
-39 -8 -74 -9 -36 -2 -81 -8 -101 -14 -21 -6 -111 -15 -202 -20 -91 -5 -174
-12 -185 -15 -11 -2 -38 -7 -60 -9 -53 -6 -139 -22 -195 -36 -25 -6 -63 -15
-85 -19 -44 -8 -159 -45 -215 -68 -60 -25 -74 -30 -125 -47 -27 -9 -57 -16
-65 -16 -8 0 -36 -11 -61 -24 -25 -14 -73 -34 -107 -45 -34 -12 -77 -30 -97
-41 -20 -11 -44 -20 -53 -20 -10 0 -47 -12 -83 -26 -35 -14 -80 -30 -99 -36
-19 -5 -48 -15 -65 -23 -84 -37 -113 -48 -145 -52 -33 -4 -80 -36 -80 -56 0
-5 -9 -20 -19 -33 -11 -14 -22 -44 -26 -67 -4 -23 -10 -46 -14 -52 -32 -44
-64 -252 -43 -278 5 -7 13 -26 16 -42 6 -27 2 -35 -30 -63 -20 -18 -40 -32
-45 -32 -5 0 -9 -3 -9 -8 0 -13 -53 -30 -114 -37 -33 -4 -71 -11 -84 -16 -13
-5 -65 -14 -116 -19 -92 -10 -111 -13 -201 -29 -83 -16 -215 -12 -351 10 -71
11 -160 22 -199 25 -105 7 -135 14 -135 28 0 22 -55 39 -104 32 -48 -8 -135 6
-306 49 -58 15 -116 29 -130 32 -14 2 -43 13 -65 23 -23 10 -74 28 -115 40
-41 12 -84 26 -95 31 -32 14 -141 47 -182 55 -21 4 -42 10 -48 14 -5 4 -70 20
-144 34 -74 15 -151 35 -170 45 -95 49 -173 70 -296 83 -121 12 -534 77 -565
88 -14 5 -70 12 -125 15 -55 3 -140 10 -190 15 -215 22 -526 26 -681 9 -58 -6
-116 -8 -129 -5 -13 3 -26 2 -29 -2 -3 -5 -31 -10 -63 -11 -52 -1 -217 -19
-358 -37 -27 -4 -102 -20 -165 -36 -63 -16 -162 -40 -220 -53 -58 -12 -118
-27 -135 -33 -57 -19 -140 -41 -214 -57 -41 -9 -114 -36 -163 -61 -49 -24 -97
-44 -107 -44 -9 0 -25 -6 -36 -13 -25 -16 -132 -57 -255 -96 -152 -48 -206
-66 -375 -125 -151 -53 -205 -70 -385 -117 -103 -27 -412 -50 -516 -38 -43 5
-164 11 -268 14 -104 2 -209 7 -235 10 -60 8 -134 34 -144 52 -12 20 -27 16
-27 -7 0 -13 -7 -20 -19 -20 -23 0 -36 -16 -20 -25 5 -4 8 -14 5 -22 -13 -32
7 -65 64 -102 31 -21 68 -41 81 -44 14 -4 48 -28 77 -54 28 -26 68 -59 87 -73
20 -14 45 -33 57 -43 11 -9 27 -17 35 -17 7 0 13 -4 13 -10 0 -24 93 -95 176
-136 50 -24 96 -44 102 -44 6 0 42 -18 81 -40 39 -22 75 -40 80 -40 6 0 14 -6
18 -13 4 -7 23 -19 41 -26 17 -8 32 -17 32 -21 0 -4 -15 -19 -32 -33 -18 -14
-53 -44 -77 -65 -24 -22 -56 -46 -70 -54 -14 -7 -32 -18 -39 -25 -7 -7 -26
-20 -42 -30 -17 -9 -30 -21 -30 -25 0 -4 -7 -8 -15 -8 -8 0 -15 -4 -15 -10 0
-5 -8 -10 -17 -10 -9 0 -35 -12 -57 -27 -23 -14 -59 -38 -81 -52 -22 -14 -58
-39 -79 -55 -22 -17 -60 -41 -85 -54 -122 -64 -143 -73 -163 -77 -11 -3 -45
-11 -74 -20 -36 -10 -75 -14 -121 -10 -59 5 -66 4 -50 -8 9 -8 17 -22 17 -31
0 -9 7 -16 15 -16 8 0 15 -6 15 -13 0 -15 155 -96 231 -121 29 -10 100 -17
195 -20 82 -3 181 -12 221 -21 62 -13 80 -13 131 -1 43 10 74 11 118 4 57 -9
75 -8 289 23 80 12 173 29 195 36 8 3 39 7 69 9 30 3 62 9 71 14 9 5 95 34
191 65 96 31 192 63 214 70 22 8 78 21 125 30 47 9 94 20 105 25 11 5 40 11
65 14 71 9 160 25 260 47 60 13 152 45 220 77 55 26 93 36 187 52 66 10 157
39 258 80 42 17 281 90 296 90 8 0 19 4 25 10 5 5 46 11 91 14 45 2 90 9 101
15 34 18 105 40 114 35 5 -3 32 1 61 10 28 8 85 17 126 20 40 3 76 8 80 11 32
19 431 44 431 26 0 -4 15 -8 32 -8 50 -1 151 -14 173 -22 11 -5 47 -16 80 -26
33 -10 64 -22 69 -27 6 -4 22 -8 37 -8 15 0 31 -4 34 -10 3 -5 16 -10 28 -10
13 0 31 -6 42 -14 11 -7 40 -16 63 -20 24 -3 61 -15 81 -26 21 -10 50 -17 65
-16 14 2 30 -2 34 -9 4 -7 39 -15 81 -18 45 -4 80 -12 90 -22 10 -8 20 -12 24
-9 8 8 86 -23 107 -41 9 -8 31 -17 50 -20 19 -3 39 -10 45 -15 5 -4 35 -16 65
-25 30 -9 80 -27 110 -40 30 -12 82 -33 115 -45 33 -12 83 -33 110 -46 28 -13
62 -24 76 -24 15 0 43 -7 64 -16 21 -8 43 -13 51 -10 7 3 16 1 19 -4 4 -6 20
-10 36 -10 17 0 40 -5 52 -12 12 -6 80 -12 159 -14 76 -2 146 -8 157 -13 10
-6 59 -12 108 -13 48 -2 93 -8 100 -14 6 -6 53 -14 104 -18 51 -4 100 -11 110
-16 10 -6 32 -10 49 -10 25 0 31 -4 26 -15 -4 -12 3 -15 29 -15 24 0 35 -5 35
-15 0 -12 15 -15 78 -14 42 0 71 3 65 6 -7 2 -13 8 -13 13 0 9 47 5 100 -10
39 -10 254 -37 368 -46 56 -4 72 -2 72 8 1 9 5 8 13 -4 9 -11 35 -19 83 -23
38 -3 85 -10 104 -15 19 -5 100 -9 180 -8 80 0 165 -2 189 -5 24 -3 69 -1 100
4 37 6 84 5 140 -3 103 -14 358 3 491 33 161 37 214 47 227 42 7 -3 16 2 19
11 3 9 12 16 20 16 7 0 17 12 20 26 4 14 23 36 44 49 52 33 160 139 160 157 0
8 12 25 26 39 47 44 102 180 84 209 -5 7 -4 23 2 34 7 17 19 22 56 24 58 2
144 19 185 37 17 7 47 10 67 8 21 -3 63 2 94 11 32 9 90 17 129 17 40 0 104 8
142 19 39 10 108 22 155 26 47 3 89 9 93 11 5 3 34 7 65 9 31 2 70 8 87 13 16
6 66 15 110 22 44 6 88 16 98 21 10 5 57 14 105 19 48 5 119 14 157 19 39 6
86 12 105 15 19 2 71 9 115 14 44 6 112 13 150 17 39 3 88 10 110 15 22 5 60
11 85 14 25 2 68 8 95 14 28 5 73 10 101 10 27 1 55 6 61 12 7 7 37 11 67 11
31 0 58 4 62 9 3 5 44 9 92 9 48 1 107 6 132 12 25 5 86 14 135 18 78 7 212
24 365 47 25 4 122 8 215 9 94 1 222 6 285 11 63 5 138 8 165 6 62 -4 147 -3
200 3 170 17 651 20 900 5 105 -6 234 -13 288 -15 53 -2 105 -7 115 -11 9 -4
76 -14 147 -22 230 -25 225 -24 226 -41 1 -10 3 -30 5 -47 2 -16 4 -91 6 -165
3 -119 6 -139 25 -171 12 -19 31 -43 42 -53 11 -10 30 -38 42 -63 13 -26 33
-50 53 -60 17 -9 39 -25 49 -36 19 -23 163 -97 186 -97 8 0 22 -6 30 -14 16
-14 114 -50 162 -60 13 -2 51 -14 84 -26 60 -21 76 -25 218 -54 43 -8 83 -19
90 -23 18 -11 28 -13 217 -34 264 -29 264 -29 456 -38 229 -10 902 -4 973 9
30 5 88 10 128 10 54 0 83 5 110 20 21 11 46 20 57 20 10 0 33 9 50 19 17 11
78 29 136 39 103 20 165 30 440 72 74 11 176 28 225 38 50 9 97 16 105 15 24
-4 57 6 73 22 14 13 136 42 217 50 19 2 46 6 60 9 14 3 97 17 185 32 88 15
165 30 170 34 6 4 35 8 65 9 30 2 58 5 61 7 4 2 37 6 75 10 38 3 89 10 114 15
25 6 95 13 155 15 61 2 166 7 234 11 78 4 148 2 190 -6 36 -6 84 -13 107 -15
22 -3 59 -9 83 -16 23 -6 45 -9 50 -6 4 3 39 -1 77 -8 38 -8 107 -17 154 -20
47 -3 119 -15 160 -26 105 -30 263 -61 340 -66 36 -3 67 -9 70 -14 3 -4 23
-10 45 -13 103 -14 298 -67 362 -99 13 -6 26 -9 29 -5 4 3 15 2 24 -3 10 -5
62 -15 116 -21 55 -6 111 -18 126 -25 15 -8 41 -14 57 -14 17 0 40 -4 53 -9
13 -5 61 -17 108 -27 47 -9 90 -21 95 -24 6 -4 37 -10 70 -13 69 -7 97 -12
180 -33 168 -42 597 -102 704 -99 53 2 98 -2 123 -11 22 -8 43 -12 47 -9 4 2
33 -3 65 -11 31 -8 65 -12 75 -9 9 3 71 0 137 -6 65 -6 229 -12 364 -14 135
-2 256 -6 270 -9 44 -11 565 -20 630 -11 19 3 91 8 160 11 69 3 152 7 185 8
290 17 300 18 405 51 58 18 134 40 170 50 36 9 79 23 97 31 17 8 76 25 130 39
54 14 137 43 185 65 47 22 90 40 95 40 25 1 50 38 49 72 -2 46 -21 68 -58 68
-31 0 -171 35 -200 51 -10 5 -27 9 -38 9 -11 0 -20 4 -20 9 0 5 -9 7 -20 4
-11 -3 -32 3 -47 13 -47 31 -96 54 -104 49 -4 -3 -10 -1 -14 5 -3 5 -15 10
-26 10 -11 0 -30 5 -42 12 -12 7 -26 13 -32 14 -5 1 -35 11 -65 22 -63 22
-113 36 -187 51 -29 6 -71 22 -92 37 -22 14 -44 23 -50 20 -5 -4 -27 3 -48 14
-21 11 -52 20 -70 20 -19 0 -33 5 -33 12 0 6 -2 9 -5 6 -3 -3 -31 7 -62 23
-31 16 -63 29 -70 29 -7 0 -13 4 -13 8 0 16 95 110 140 138 25 16 47 31 50 34
8 8 96 50 105 50 13 0 158 102 200 141 61 56 96 82 148 109 53 27 71 51 62 79
-6 19 5 25 65 40 18 5 24 12 22 26 -2 11 -4 26 -4 33 -1 7 -18 13 -42 13 -23
1 -68 3 -101 4 -33 2 -87 -1 -120 -6 -176 -26 -497 -58 -650 -64 -55 -2 -123
-10 -152 -16 -32 -7 -74 -9 -110 -5 -32 4 -96 9 -143 10 -167 6 -488 60 -581
98 -19 8 -68 15 -109 16 -78 2 -193 23 -270 50 -25 9 -55 15 -68 14 -13 -1
-33 5 -45 12 -12 8 -47 17 -77 20 -91 8 -172 26 -220 48 -75 34 -85 37 -197
48 -59 7 -128 20 -153 30 -25 9 -65 23 -90 29 -147 38 -204 51 -225 51 -13 0
-26 4 -29 9 -3 5 -23 12 -43 16 -21 4 -51 13 -68 20 -16 7 -52 16 -80 19 -52
7 -107 22 -140 39 -29 15 -112 37 -180 47 -33 5 -94 19 -135 30 -111 31 -163
40 -285 50 -103 8 -138 12 -320 41 -134 21 -272 48 -298 58 -33 13 -435 16
-1106 10 -156 -2 -176 -4 -193 -21 -22 -22 -80 -34 -237 -49 -75 -7 -146 -20
-201 -38 -47 -16 -119 -31 -160 -35 -75 -7 -273 -46 -340 -67 -109 -33 -263
-72 -315 -79 -33 -5 -82 -14 -110 -20 -27 -6 -99 -17 -160 -25 -221 -29 -271
-36 -335 -46 -36 -6 -76 -13 -90 -15 -93 -18 -608 -26 -760 -12 -75 7 -216 35
-245 49 -11 5 -48 18 -83 29 -34 11 -104 38 -154 60 -50 22 -96 40 -102 40 -5
0 -20 10 -32 21 -13 12 -38 23 -56 25 -18 2 -38 11 -44 19 -6 8 -16 15 -22 15
-29 0 -18 36 29 98 28 36 55 75 60 87 15 37 47 210 48 255 1 80 -42 217 -79
250 -3 3 -14 23 -25 45 -11 22 -30 50 -43 62 -25 25 -86 40 -96 24 -5 -8 -13
-8 -26 -1 -11 6 -23 9 -27 8 -22 -5 -161 35 -216 63 -10 5 -42 11 -72 14 -30
2 -82 11 -117 19 -35 8 -81 17 -103 21 -52 8 -214 45 -240 55 -11 5 -27 9 -35
9 -8 0 -28 3 -45 6 -16 2 -50 7 -75 9 -25 3 -81 12 -125 21 -44 8 -120 16
-170 18 -49 3 -97 7 -105 10 -45 16 -142 21 -500 23 -217 2 -408 5 -425 7 -16
2 -57 7 -90 11 -33 4 -67 10 -76 12 -8 2 -17 2 -20 0z m310 -192 c81 -11 221
-17 485 -19 357 -3 509 -14 656 -45 58 -12 131 -24 150 -25 8 0 24 -3 35 -7
11 -3 65 -14 120 -23 55 -9 110 -22 122 -28 13 -6 26 -7 30 -4 3 4 16 1 27 -7
12 -7 42 -17 66 -21 25 -4 65 -13 88 -21 24 -8 60 -17 79 -20 19 -3 56 -12 81
-20 26 -7 58 -14 71 -14 13 0 31 -11 42 -24 10 -13 43 -34 73 -47 51 -23 54
-26 65 -74 7 -27 13 -88 15 -135 5 -125 -4 -140 -197 -312 -53 -48 -115 -97
-137 -108 -22 -11 -40 -25 -40 -30 0 -6 -5 -10 -11 -10 -6 0 -20 -11 -30 -24
-11 -14 -28 -28 -39 -31 -11 -4 -20 -12 -20 -19 0 -6 -21 -32 -47 -58 -61 -59
-65 -63 -178 -188 -60 -66 -100 -119 -107 -142 -10 -34 -9 -40 17 -73 l27 -37
40 44 c22 24 68 74 101 111 109 120 219 227 227 222 10 -6 5 -166 -10 -285 -5
-47 -14 -121 -19 -165 -7 -66 -14 -90 -44 -136 -32 -51 -98 -119 -114 -119 -4
0 -23 11 -42 24 -34 23 -172 66 -214 66 -10 0 -31 9 -45 20 -18 15 -34 19 -54
14 -27 -5 -193 26 -246 47 -13 5 -40 9 -60 9 -20 0 -100 12 -177 26 -136 24
-331 45 -605 65 -74 5 -174 13 -222 18 -48 5 -280 7 -515 6 -259 -2 -456 1
-498 7 -71 10 -200 12 -215 3 -5 -3 -48 -8 -97 -11 -48 -3 -137 -10 -198 -15
-60 -6 -184 -12 -274 -15 -90 -2 -171 -6 -180 -8 -9 -3 -81 -10 -161 -16 -80
-6 -164 -15 -186 -20 -23 -5 -88 -12 -145 -16 -57 -3 -120 -9 -139 -14 -19 -5
-95 -12 -169 -15 -95 -5 -146 -13 -175 -26 -25 -11 -88 -22 -161 -28 -66 -6
-151 -20 -190 -31 -93 -28 -101 -29 -235 -36 -63 -3 -117 -9 -120 -14 -3 -4
-25 -8 -49 -8 -24 -1 -49 -6 -54 -11 -6 -6 -44 -11 -83 -11 -40 0 -85 -5 -101
-11 -51 -19 -157 -41 -248 -51 -49 -5 -117 -18 -150 -28 -33 -10 -103 -21
-155 -24 -81 -4 -389 -58 -411 -71 -3 -3 -51 -7 -105 -11 -55 -3 -121 -10
-149 -15 -106 -19 -480 -7 -595 19 l-35 8 2 65 c2 35 10 102 19 149 9 47 16
140 17 208 1 67 2 122 2 122 1 0 46 -23 100 -50 60 -30 120 -70 152 -100 29
-28 57 -50 63 -50 6 0 30 -19 53 -43 71 -72 131 -117 146 -108 20 13 6 43 -60
130 -32 44 -59 83 -59 88 0 6 -12 23 -26 39 -14 16 -36 45 -49 64 -49 75 -116
131 -194 160 -31 12 -81 30 -111 42 -60 22 -102 40 -110 48 -3 3 -21 11 -40
18 -19 8 -57 22 -84 33 -65 25 -133 83 -163 141 -24 45 -24 50 -14 136 6 50
20 111 32 137 13 29 18 56 14 72 -10 40 8 50 87 52 39 1 77 6 84 12 7 6 17 8
23 5 13 -9 118 17 176 44 47 21 135 54 180 67 11 3 36 18 55 32 47 36 68 45
185 87 140 50 172 60 240 75 33 7 71 18 85 25 22 10 104 25 210 38 19 2 69 9
110 15 103 15 424 52 485 55 28 2 95 8 150 14 55 7 134 14 175 16 249 16 336
19 425 18 55 0 172 6 260 15 88 8 184 17 214 19 29 1 61 6 70 9 24 10 206 35
291 41 41 2 91 9 110 14 64 16 195 30 225 24 17 -3 73 4 125 15 62 14 165 25
295 32 110 5 212 14 226 18 14 5 111 9 215 10 104 1 207 6 229 12 22 6 141 13
264 15 123 1 225 5 228 7 11 12 616 -5 722 -19z m-9859 -885 c74 -11 167 -26
205 -34 39 -8 113 -19 165 -25 162 -17 232 -31 315 -60 124 -43 148 -50 227
-64 77 -15 166 -44 231 -77 21 -11 41 -18 44 -15 3 2 26 -4 51 -15 26 -11 60
-22 77 -23 77 -8 141 -19 151 -27 5 -5 35 -15 66 -23 30 -8 64 -19 74 -24 28
-14 88 -32 108 -32 9 0 27 -6 39 -14 23 -15 216 -59 239 -54 7 1 29 -5 48 -14
33 -16 89 -26 275 -49 101 -12 131 -15 405 -28 212 -11 302 -7 370 16 8 2 60
6 115 9 55 2 123 10 150 19 28 8 64 15 81 15 31 0 135 56 167 90 17 19 18 18
65 -25 26 -25 54 -45 63 -45 9 0 35 -10 59 -23 50 -26 94 -100 109 -183 13
-70 6 -232 -12 -274 -13 -32 -28 -136 -30 -217 -2 -60 89 -180 165 -219 18 -9
57 -35 87 -58 30 -22 75 -52 100 -66 35 -19 52 -37 70 -75 41 -83 42 -89 39
-145 l-3 -55 -50 -8 c-27 -4 -327 -9 -665 -11 -605 -4 -618 -4 -795 20 -99 13
-205 29 -235 35 -62 13 -152 27 -220 34 -38 4 -101 15 -120 20 -3 0 -45 7 -95
14 -49 7 -115 16 -145 22 -30 5 -86 11 -125 13 -38 3 -105 12 -148 21 -42 9
-81 14 -86 11 -4 -3 -23 -1 -42 4 -18 5 -81 16 -139 25 -59 8 -120 21 -136 30
-16 8 -35 15 -42 15 -7 0 -31 9 -53 20 -59 31 -201 77 -290 95 -70 14 -314 92
-357 114 -53 27 -95 40 -148 47 -32 4 -79 16 -104 27 -25 11 -83 32 -130 47
-47 16 -102 35 -122 44 -20 9 -78 22 -128 30 -50 8 -96 18 -102 22 -6 4 -29
11 -50 16 -21 4 -57 13 -80 18 -44 10 -374 25 -573 25 -60 0 -144 -6 -185 -13
-87 -15 -281 -70 -294 -83 -6 -5 -19 -9 -31 -9 -12 0 -25 -4 -30 -9 -6 -5 -37
-14 -70 -20 -33 -6 -82 -16 -110 -21 -27 -6 -70 -13 -94 -16 -24 -3 -66 -14
-93 -25 -27 -10 -60 -19 -74 -19 -13 0 -32 -4 -42 -10 -9 -5 -42 -13 -72 -19
-83 -14 -221 -50 -257 -67 -17 -7 -37 -14 -45 -14 -8 0 -23 -7 -34 -15 -10 -8
-26 -15 -34 -15 -8 0 -44 -9 -80 -19 -36 -10 -101 -29 -145 -41 -44 -12 -114
-32 -155 -45 -41 -13 -102 -31 -135 -39 -57 -14 -158 -47 -200 -66 -11 -4 -45
-11 -75 -15 -30 -3 -89 -15 -130 -25 -123 -32 -346 -77 -489 -100 -74 -12
-143 -26 -153 -31 -21 -11 -301 -34 -413 -33 -82 1 -205 11 -212 17 -2 3 6 8
19 12 13 3 32 10 43 15 11 5 45 20 76 33 60 27 111 59 149 95 13 12 28 22 33
22 9 0 75 47 92 66 19 21 79 60 157 103 24 12 63 39 87 60 43 36 102 76 131
88 8 3 31 23 51 45 19 21 38 38 42 38 3 0 17 11 31 25 14 14 34 25 44 25 11 0
23 7 26 17 6 15 8 14 20 -2 8 -11 20 -16 30 -12 24 9 20 26 -9 37 -15 6 -25
17 -25 29 0 22 -38 63 -51 55 -18 -11 -290 49 -359 80 -30 13 -89 38 -130 55
-74 31 -202 103 -228 128 -7 7 -17 13 -22 13 -5 0 -21 11 -37 24 -31 26 -72
51 -145 91 -50 26 -65 51 -25 42 22 -6 193 -30 342 -48 118 -14 273 -12 420 6
192 23 246 32 258 44 6 6 25 11 41 11 27 0 99 18 256 65 25 7 79 23 120 35
136 39 174 52 238 81 35 16 69 29 77 29 14 0 98 33 128 50 10 6 22 8 26 6 11
-7 223 65 286 97 28 14 77 34 110 45 33 11 94 32 135 47 41 15 104 31 139 36
36 5 69 13 75 18 17 12 139 39 261 56 61 9 124 20 140 25 17 6 82 12 145 15
63 3 151 10 195 16 44 6 194 12 333 14 139 1 255 5 259 9 13 12 398 -5 533
-25z m16510 -64 c168 -3 338 -10 378 -16 40 -6 80 -8 87 -5 8 3 17 1 20 -4 5
-8 33 -14 125 -24 19 -3 78 -12 130 -21 52 -9 107 -18 121 -19 14 -2 30 -5 35
-8 5 -3 27 -8 49 -12 22 -4 79 -20 126 -36 47 -16 95 -26 107 -23 12 3 29 0
37 -7 8 -6 18 -10 22 -7 4 2 49 -2 98 -9 50 -8 108 -17 130 -20 22 -3 51 -9
65 -14 14 -5 61 -14 105 -20 74 -11 197 -45 220 -61 6 -4 27 -10 47 -14 21 -4
42 -13 49 -21 6 -8 20 -14 30 -14 11 0 27 -4 37 -10 14 -8 116 -40 147 -46 6
-1 48 -11 95 -22 47 -11 146 -35 220 -52 74 -17 153 -36 175 -43 22 -6 44 -10
49 -8 4 1 19 -5 32 -14 13 -8 34 -15 48 -15 14 0 28 -4 31 -10 3 -5 18 -10 33
-10 33 0 312 -68 327 -79 5 -5 37 -12 70 -16 33 -4 67 -11 76 -16 9 -5 61 -13
115 -19 55 -6 140 -16 189 -22 50 -6 124 -12 165 -13 41 0 122 -7 180 -14 103
-13 388 -10 412 5 6 4 27 8 47 9 85 7 287 45 409 78 30 8 55 10 58 5 3 -5 12
-4 19 2 8 7 22 10 31 8 13 -2 5 -12 -30 -38 -42 -31 -67 -51 -154 -122 -28
-23 -161 -98 -173 -98 -5 0 -23 -15 -39 -34 -16 -18 -60 -48 -96 -65 -37 -18
-86 -47 -109 -66 -23 -19 -46 -35 -51 -35 -9 0 -57 -43 -81 -74 -33 -40 -5
-88 57 -101 69 -13 211 -56 226 -67 7 -5 16 -7 20 -6 5 2 23 -2 39 -8 78 -28
105 -37 170 -55 39 -11 93 -26 120 -33 28 -7 75 -24 105 -38 47 -22 74 -34
100 -43 3 -1 12 -4 20 -7 8 -3 44 -14 80 -24 36 -9 78 -24 93 -31 16 -8 59
-23 95 -32 37 -10 78 -23 92 -29 l25 -10 -30 -7 c-16 -4 -41 -11 -55 -15 -14
-5 -54 -14 -90 -20 -36 -6 -88 -18 -116 -26 -27 -8 -68 -16 -90 -19 -70 -7
-200 -37 -267 -61 -20 -8 -68 -14 -106 -14 -37 0 -70 -3 -74 -6 -3 -4 -93 -8
-199 -10 -106 -3 -210 -6 -230 -7 -21 -1 -39 1 -40 5 -3 6 -321 10 -473 5 -83
-2 -320 15 -338 25 -10 5 -92 11 -180 13 -89 1 -181 8 -203 14 -23 6 -57 11
-75 10 -19 0 -90 9 -159 21 -69 12 -154 23 -190 25 -36 3 -105 7 -155 10 -83
5 -122 10 -262 36 -29 5 -77 13 -107 18 -30 5 -60 12 -66 16 -6 4 -47 6 -91 6
-63 -1 -79 2 -79 14 0 8 -8 18 -17 23 -15 8 -205 25 -388 36 -27 2 -63 9 -80
16 -61 26 -71 29 -105 36 -19 3 -42 12 -50 19 -8 7 -57 20 -109 29 -52 9 -108
20 -125 25 -34 10 -89 24 -186 47 -36 9 -80 22 -98 30 -18 8 -48 14 -67 14
-18 0 -37 5 -40 10 -3 6 -27 10 -52 10 -26 0 -60 4 -77 9 -17 6 -71 15 -121
21 -49 6 -121 16 -160 22 -38 7 -79 12 -91 13 -11 1 -25 5 -32 8 -6 4 -48 10
-94 12 -46 3 -96 7 -113 10 -54 10 -137 15 -320 20 -99 3 -206 10 -238 15 -40
7 -70 7 -97 0 -21 -6 -121 -15 -222 -20 -248 -13 -360 -29 -510 -71 -36 -11
-104 -24 -150 -30 -46 -5 -96 -14 -113 -19 -55 -15 -269 -82 -340 -106 -49
-16 -102 -24 -180 -28 -78 -3 -133 -12 -190 -30 -44 -14 -109 -34 -145 -45
-36 -12 -85 -21 -111 -21 -25 0 -49 -4 -55 -8 -20 -18 -93 -34 -130 -29 -22 2
-68 -2 -103 -10 -35 -8 -95 -16 -135 -18 -39 -3 -134 -12 -211 -20 -167 -18
-353 -21 -415 -6 -25 6 -80 11 -123 11 -43 0 -120 5 -170 10 -51 6 -150 15
-222 20 -71 5 -141 11 -155 15 -14 3 -63 10 -110 15 -121 13 -182 24 -208 39
-15 8 -53 12 -105 10 -61 -2 -90 2 -114 14 -18 9 -40 17 -50 17 -10 0 -43 7
-73 15 -30 9 -65 17 -78 19 -13 2 -28 8 -35 15 -6 6 -19 11 -28 11 -23 0 -113
45 -129 65 -7 8 -23 15 -36 15 -27 0 -29 7 -10 33 8 11 17 14 20 8 10 -16 196
89 196 110 0 5 6 9 14 9 7 0 30 11 50 25 20 14 50 25 66 25 38 0 107 28 114
46 3 8 19 14 36 14 32 0 70 17 83 38 4 6 13 12 19 12 27 0 94 79 132 154 56
111 63 136 71 251 4 55 12 127 20 160 7 33 16 95 20 137 4 43 11 80 16 84 5 3
9 24 9 47 0 49 23 120 40 125 6 2 19 -2 28 -10 22 -18 152 -84 217 -110 27
-11 73 -30 103 -44 29 -13 60 -24 68 -24 8 0 24 -5 35 -10 10 -6 36 -11 56
-11 21 -1 79 -12 128 -25 128 -33 320 -62 460 -69 66 -3 154 -8 195 -11 126
-11 208 -7 380 19 91 14 174 25 185 25 61 2 101 6 110 12 10 7 75 17 168 26
27 3 59 9 73 14 14 6 40 10 57 10 18 0 53 7 80 15 48 14 192 37 237 37 14 0
30 3 35 6 6 4 28 8 50 9 22 1 58 9 80 16 78 28 152 47 295 78 265 57 289 61
433 74 38 3 105 12 150 20 45 7 141 17 212 20 147 8 170 10 205 19 41 11 243
34 265 30 11 -2 157 -6 325 -9z m-5650 -1048 c0 -29 4 -78 10 -110 9 -58 4
-117 -10 -117 -9 0 -19 72 -29 206 -6 86 -5 92 11 83 14 -7 18 -22 18 -62z
m116 -32 c6 -46 3 -58 -15 -81 l-22 -28 5 54 c2 30 5 78 6 105 1 42 3 46 11
27 5 -13 12 -48 15 -77z m130 89 c16 -4 23 -16 27 -47 7 -48 4 -52 -40 -62
l-33 -7 0 61 c0 63 3 67 46 55z m159 -49 c0 -5 -10 -11 -22 -13 -16 -2 -23 2
-23 13 0 11 7 15 23 13 12 -2 22 -7 22 -13z m-6687 -431 c2 -120 -2 -144 -24
-144 -8 0 -14 -4 -14 -9 0 -5 -7 -11 -15 -15 -13 -4 -13 -2 -5 14 5 10 10 79
10 153 0 73 3 137 7 141 4 4 15 -1 24 -12 12 -15 16 -46 17 -128z m101 105
c19 -40 20 -41 1 -85 -11 -24 -21 -44 -24 -44 -3 0 -5 38 -5 85 1 47 2 85 5
85 2 0 12 -18 23 -41z m-253 23 c15 -9 25 -57 28 -137 l3 -66 -33 32 c-27 26
-31 36 -23 51 6 10 8 43 4 73 -6 54 -2 62 21 47z m-2039 -478 c-3 -3 -12 -4
-19 -1 -8 3 -5 6 6 6 11 1 17 -2 13 -5z"/>
<path d="M14602 2738 c-53 -8 -63 -13 -68 -33 -11 -44 -1 -60 38 -63 56 -5 62
-31 55 -230 -4 -91 -12 -180 -19 -198 -10 -28 -9 -36 5 -52 14 -15 17 -39 17
-130 l0 -112 -40 0 c-48 0 -61 -20 -39 -59 10 -17 27 -28 54 -33 22 -5 58 -15
80 -23 22 -7 74 -16 115 -19 93 -6 124 11 124 68 0 46 -6 51 -62 52 -78 2 -84
3 -75 17 4 6 10 61 13 121 l5 110 37 1 c21 0 43 6 49 12 8 8 18 9 29 3 14 -7
22 -4 36 15 17 23 52 37 39 15 -3 -5 -2 -17 3 -27 5 -10 26 -54 47 -98 22 -44
47 -88 56 -98 10 -11 20 -31 24 -45 3 -14 16 -40 28 -56 28 -40 57 -93 57
-106 0 -5 -8 -10 -18 -10 -27 0 -62 -29 -62 -51 0 -32 25 -36 170 -29 25 1 81
-1 125 -3 88 -5 105 2 105 43 0 44 -29 61 -98 59 -67 -2 -84 6 -109 55 -9 17
-19 33 -23 36 -14 9 -140 278 -140 298 0 10 -9 31 -20 45 -28 35 -25 45 18 65
20 9 41 23 45 30 4 6 16 12 25 12 40 0 68 111 40 163 -23 45 -101 137 -122
143 -11 4 -37 17 -56 30 -19 12 -69 30 -110 39 -41 9 -93 25 -114 35 -28 15
-43 17 -52 9 -7 -6 -29 -8 -51 -4 -75 12 -99 12 -161 3z m358 -174 c74 -19
118 -41 131 -65 11 -22 7 -27 -51 -67 -14 -9 -31 -25 -38 -34 -7 -10 -21 -18
-31 -18 -10 0 -55 -13 -100 -29 -74 -26 -82 -28 -90 -13 -11 22 -21 188 -14
226 l6 28 66 -7 c36 -4 91 -13 121 -21z"/>
<path d="M13784 2730 c-14 -14 -187 -29 -248 -23 -35 4 -50 2 -57 -8 -21 -33
-9 -49 52 -76 l60 -26 -2 -156 c-2 -156 -14 -281 -29 -291 -4 -3 -15 -20 -24
-37 -9 -18 -23 -33 -30 -33 -7 0 -25 -9 -39 -21 -15 -11 -50 -24 -79 -28 -62
-10 -81 -1 -146 68 -64 70 -71 78 -71 98 -1 69 -30 269 -46 311 -3 7 2 24 11
37 8 13 14 36 12 52 l-3 28 -84 -3 c-58 -3 -89 -9 -99 -19 -11 -11 -29 -14
-64 -11 -55 6 -72 -7 -62 -46 8 -32 32 -46 79 -48 19 -1 41 -8 49 -17 8 -9 24
-66 36 -126 11 -61 25 -123 31 -140 6 -16 12 -37 13 -46 1 -8 12 -30 25 -48
13 -17 24 -38 25 -46 3 -23 65 -97 120 -143 31 -26 116 -65 124 -57 3 3 10 1
16 -5 30 -24 172 33 206 84 14 20 29 36 33 36 23 0 68 68 102 155 20 53 32
235 24 382 -5 90 -3 93 54 93 62 1 85 44 51 95 -18 27 -25 30 -40 15z"/>
<path d="M10893 2602 c-30 -31 -5 -74 42 -74 31 0 31 -5 3 -35 -12 -13 -51
-67 -87 -121 -55 -81 -70 -97 -92 -97 -14 0 -33 -6 -42 -13 -13 -11 -23 -9
-66 13 -27 15 -55 33 -62 41 -6 8 -16 14 -21 14 -5 0 -29 14 -53 31 l-44 32
24 19 c31 24 33 63 4 78 -22 12 -79 4 -79 -11 0 -5 -15 -9 -33 -9 -34 0 -112
-32 -119 -49 -1 -5 -19 -18 -38 -28 -28 -16 -35 -26 -35 -49 0 -29 0 -29 60
-29 50 0 74 -7 147 -43 48 -24 92 -50 99 -58 6 -8 16 -14 22 -14 6 0 19 -7 28
-16 10 -9 51 -33 91 -53 71 -35 74 -38 91 -91 10 -30 20 -68 22 -85 2 -16 15
-61 29 -100 14 -38 26 -80 26 -92 0 -12 11 -64 25 -115 14 -51 25 -96 25 -99
0 -4 -17 -10 -37 -14 -21 -4 -44 -11 -50 -17 -19 -15 -16 -46 6 -57 28 -15
272 -7 307 11 36 17 41 46 13 82 -19 25 -23 26 -38 12 -28 -25 -40 -19 -47 24
-4 22 -11 43 -15 46 -5 3 -9 14 -9 24 0 10 -9 35 -21 55 -12 19 -23 57 -25 83
-2 26 -12 80 -24 119 -11 40 -20 83 -20 96 0 13 -5 28 -11 34 -6 6 -12 36 -13
65 -1 45 4 61 29 97 17 24 39 58 50 77 12 18 33 47 47 63 15 16 38 47 51 68
30 47 73 93 86 93 5 0 13 -4 16 -10 9 -15 54 -12 71 5 21 21 14 54 -16 70 -63
33 -291 52 -317 27z"/>
<path d="M11845 2570 c-33 -16 -65 -30 -71 -30 -13 0 -126 -125 -136 -149 -3
-10 -9 -47 -13 -84 -6 -55 -4 -73 13 -109 11 -24 24 -56 29 -73 16 -49 90
-155 108 -155 3 0 18 -13 32 -30 13 -16 30 -30 35 -30 6 0 25 -10 42 -23 61
-46 78 -49 244 -44 60 2 77 6 90 22 10 11 38 37 63 57 38 30 49 47 63 95 9 32
23 78 31 103 20 59 19 76 -7 168 -33 115 -122 238 -193 268 -20 8 -40 12 -44
9 -5 -2 -35 4 -67 15 -84 28 -146 25 -219 -10z m169 -109 c3 -4 21 -11 39 -14
70 -11 156 -93 188 -179 22 -59 20 -149 -5 -178 -8 -8 -17 -25 -20 -37 -9 -30
-53 -60 -107 -74 -39 -10 -49 -9 -94 12 -79 37 -103 59 -134 125 -45 97 -57
176 -36 247 9 33 22 49 59 75 46 30 99 42 110 23z"/>
<path d="M3100 1470 c0 -5 5 -10 10 -10 6 0 10 5 10 10 0 6 -4 10 -10 10 -5 0
-10 -4 -10 -10z"/>
<path d="M4602 1338 c-27 -27 5 -73 38 -53 20 12 4 65 -20 65 -3 0 -11 -5 -18
-12z"/>
<path d="M25112 498 c8 -22 36 -34 50 -20 10 10 10 15 -2 22 -21 14 -52 12
-48 -2z"/>
<path d="M6047 2584 c-16 -16 -6 -34 19 -34 19 0 25 5 22 17 -3 19 -29 29 -41
17z"/>
<path d="M14790 830 c0 -5 9 -10 20 -10 11 0 20 5 20 10 0 6 -9 10 -20 10 -11
0 -20 -4 -20 -10z"/>
</g>
</svg>
