<?xml version="1.0" standalone="no"?>
<!DOCTYPE svg PUBLIC "-//W3C//DTD SVG 20010904//EN"
 "http://www.w3.org/TR/2001/REC-SVG-20010904/DTD/svg10.dtd">
<svg version="1.0" xmlns="http://www.w3.org/2000/svg"
 width="43200.000000pt" height="983.681214pt" viewBox="0 0 43200.000000 983.681214"
 preserveAspectRatio="xMidYMid meet">
<metadata>
Created by potrace 1.11, written by Peter Selinger 2001-2013
</metadata>
<g transform="translate(0.000000,983.681214) scale(1.366224,-1.366224)"
fill="#000000" stroke="none">
<path d="M28995 546 c-28 -10 -105 -16 -260 -19 -121 -3 -232 -10 -247 -16
-16 -6 -146 -10 -330 -11 -167 0 -354 -5 -416 -9 -62 -5 -129 -5 -149 -1 -20
5 -81 7 -137 4 -56 -2 -339 -6 -631 -9 -291 -2 -820 -7 -1175 -11 -355 -4
-726 -5 -825 -4 -99 2 -238 3 -310 2 -71 -1 -198 -1 -282 -2 -83 0 -154 -4
-157 -8 -3 -5 -29 -7 -58 -6 -91 6 -267 6 -745 2 -443 -4 -463 -3 -478 15 -15
17 -26 18 -118 12 -56 -4 -149 -8 -207 -10 -58 -2 -175 -6 -260 -9 -459 -20
-602 -24 -940 -31 -135 -3 -267 -4 -295 -3 -95 5 -860 -2 -910 -8 -68 -8 -74
-7 -120 5 -42 12 -629 15 -980 5 -104 -2 -194 -4 -200 -4 -5 0 -154 3 -330 6
-386 8 -407 9 -470 23 -34 8 -92 10 -180 5 -163 -9 -569 -8 -825 3 -288 12
-440 7 -448 -15 -5 -17 -39 -15 -67 4 -23 15 -26 14 -54 -5 -39 -28 -111 -27
-171 1 -38 17 -63 21 -154 20 -79 0 -111 -4 -117 -14 -6 -9 -34 -12 -106 -10
-296 8 -497 1 -548 -18 -11 -4 -52 -5 -90 -2 -39 4 -162 7 -276 6 -160 0 -214
-4 -245 -16 -22 -9 -55 -13 -77 -10 -20 2 -43 0 -50 -6 -7 -5 -136 -10 -312
-12 -644 -5 -1451 -8 -1885 -8 -531 0 -465 1 -710 -7 -107 -3 -217 -10 -245
-15 -27 -4 -95 -5 -150 -2 -55 4 -156 6 -225 5 -338 -7 -970 -14 -1193 -13
-114 0 -139 3 -144 15 -11 31 -91 50 -133 32 -8 -3 -58 -8 -110 -10 -52 -2
-123 -11 -157 -19 -34 -9 -65 -13 -68 -10 -3 3 -36 5 -74 4 -38 -1 -104 5
-147 14 -141 29 -131 29 -146 -3 -12 -26 -18 -28 -83 -33 -118 -9 -826 0 -890
11 -34 6 -174 10 -324 9 l-263 -1 -49 26 -49 25 -292 2 c-161 1 -315 -1 -343
-4 -27 -4 -83 -11 -124 -17 -69 -9 -77 -8 -105 12 -28 20 -41 21 -161 19 -169
-4 -413 -25 -715 -63 -113 -14 -612 -19 -621 -6 -10 14 -135 21 -143 9 -4 -7
-18 -7 -44 0 -35 10 -260 14 -398 8 -34 -1 -76 2 -95 9 -37 12 -308 13 -324 1
-25 -18 -464 -43 -560 -31 -66 8 -150 -2 -194 -23 -13 -6 -49 -9 -80 -7 -98 6
-239 -1 -259 -13 -5 -3 -71 -5 -148 -5 -76 0 -254 -1 -394 -1 -186 -1 -277 3
-337 14 -65 12 -126 14 -290 8 -272 -8 -315 -6 -355 17 -30 18 -76 25 -223 36
-27 1 -66 8 -85 14 -19 6 -53 9 -75 6 -22 -2 -98 -7 -168 -10 -92 -4 -135 -9
-152 -21 -14 -9 -39 -14 -59 -13 -20 2 -39 -1 -44 -6 -4 -6 -6 -46 -3 -90 l6
-80 315 -4 c173 -2 358 -3 410 -2 260 5 1214 3 1347 -2 129 -5 154 -4 161 8 8
15 21 16 210 11 23 0 42 -3 42 -6 0 -3 28 -6 62 -7 35 0 72 -2 83 -3 58 -6
186 4 227 17 35 10 73 13 145 9 236 -14 356 -17 371 -11 20 9 98 12 527 19
176 2 362 7 413 10 52 2 121 0 155 -5 78 -11 631 -22 947 -18 52 0 132 0 178
0 46 0 92 4 103 10 30 15 240 19 444 8 99 -6 277 -12 395 -13 118 -2 240 -7
271 -11 38 -5 59 -3 63 4 5 8 13 8 28 0 12 -7 88 -12 187 -13 91 -1 183 -7
203 -13 20 -6 40 -8 43 -5 11 11 88 31 97 25 5 -3 7 -11 4 -19 -5 -12 7 -14
67 -10 39 2 82 7 93 11 12 4 32 1 44 -5 19 -10 24 -10 32 4 7 13 17 16 40 11
21 -5 34 -3 40 6 7 11 11 11 14 2 5 -12 58 -8 79 7 15 10 831 2 895 -9 30 -5
75 -14 99 -21 34 -8 47 -8 59 2 15 13 36 15 257 22 61 3 135 9 165 14 30 5 87
10 127 11 67 2 71 1 66 -18 -4 -17 0 -21 23 -23 42 -2 78 2 84 10 8 12 132 6
183 -8 40 -11 52 -11 70 -1 11 8 44 13 73 12 29 0 56 4 59 10 5 7 63 8 183 4
98 -4 182 -7 187 -6 142 9 420 -11 443 -32 30 -27 95 -32 134 -11 18 11 36 23
40 28 4 6 34 2 74 -9 77 -21 68 -20 149 -11 84 10 316 11 467 2 l127 -7 7 25
c4 16 13 26 24 26 11 0 22 5 26 11 4 7 59 10 163 8 86 -1 193 1 239 6 77 7 83
6 80 -10 -2 -13 8 -20 47 -30 55 -14 90 -7 99 22 5 16 22 18 178 20 344 5 484
9 518 16 19 3 98 9 175 11 77 3 177 13 223 22 75 15 89 15 160 1 108 -22 349
-13 407 15 29 14 59 18 110 17 151 -3 202 -2 252 6 35 5 57 4 66 -3 23 -19 88
-23 242 -13 83 5 296 10 475 12 179 1 361 5 405 10 44 4 112 11 151 14 69 7
73 6 94 -18 15 -18 33 -25 63 -27 72 -5 149 -1 161 9 17 13 962 19 1936 13 80
-1 170 0 200 1 l55 2 3 -33 c3 -25 7 -32 19 -28 8 3 26 9 39 12 29 7 30 12 7
31 -16 13 -14 14 19 8 20 -3 39 -1 42 4 6 9 91 7 144 -3 15 -3 110 -7 212 -11
102 -3 226 -8 275 -11 50 -3 151 -7 226 -8 76 -2 141 -6 147 -10 13 -8 188
-10 201 -2 14 9 121 15 271 15 69 0 134 0 145 1 56 2 103 -2 132 -11 18 -6
100 -11 182 -12 133 -2 151 0 170 17 14 13 45 21 105 27 46 5 106 16 132 25
40 14 75 16 196 11 80 -3 162 -2 182 3 22 5 38 4 42 -2 3 -5 16 -7 28 -4 13 3
32 -2 45 -10 26 -19 171 -38 213 -29 17 4 28 13 29 23 0 9 3 12 5 6 3 -7 58
-10 175 -8 l170 3 33 -30 c39 -34 75 -37 160 -15 34 9 82 13 123 10 38 -2 114
-5 170 -6 57 -2 103 -7 103 -11 0 -5 42 -5 93 -1 50 4 153 6 227 5 74 -2 151
-2 170 -2 251 5 379 0 423 -17 37 -14 61 -17 105 -11 31 4 111 10 177 14 66 4
136 9 155 11 19 2 107 4 195 4 153 0 454 12 616 25 61 5 78 3 89 -9 16 -21
102 -21 207 -1 51 10 139 15 253 15 189 -1 242 2 250 10 7 8 323 -6 380 -17
44 -8 163 -2 228 12 18 4 38 3 45 -3 15 -13 95 -6 149 12 36 13 44 13 64 -1
19 -12 70 -16 256 -19 128 -3 267 -9 308 -15 238 -31 216 -31 334 2 63 18 132
31 165 31 31 0 106 0 166 0 434 3 614 -1 638 -14 12 -6 23 -6 31 2 10 7 22 7
40 0 15 -5 78 -10 140 -10 75 0 128 -5 156 -15 60 -21 76 -19 155 20 73 37
104 42 122 24 7 -7 52 -11 120 -11 59 1 136 -4 171 -10 57 -11 70 -10 130 10
37 12 81 25 97 28 17 4 37 12 45 19 26 21 66 25 101 11 19 -7 50 -12 69 -11
110 9 164 17 180 25 27 15 61 12 81 -6 13 -12 40 -15 115 -15 135 0 181 8 187
32 5 17 16 19 94 21 232 5 360 3 377 -5 11 -6 55 -4 113 4 76 10 108 10 161 0
37 -6 74 -13 82 -14 12 -2 15 9 13 48 -1 27 -7 51 -13 53 -6 2 -16 16 -21 30
-8 21 -12 23 -19 12 -10 -17 -51 -20 -255 -18 -202 1 -283 5 -375 18 -134 18
-258 21 -345 10 -44 -6 -110 -10 -147 -10 -59 1 -68 -1 -68 -17 -1 -17 -1 -17
-14 -1 -11 16 -14 16 -28 1 -10 -10 -21 -12 -30 -7 -7 5 -56 10 -108 11 -95 2
-274 9 -425 17 -297 15 -511 16 -550 2z m-4747 -175 c2 -7 -16 -11 -57 -11
-50 0 -59 3 -54 15 4 12 17 15 56 12 28 -3 53 -9 55 -16z m345 12 c-7 -2 -19
-2 -25 0 -7 3 -2 5 12 5 14 0 19 -2 13 -5z m-548 -13 c-3 -5 -12 -10 -18 -10
-7 0 -6 4 3 10 19 12 23 12 15 0z m262 4 c-3 -3 -12 -4 -19 -1 -8 3 -5 6 6 6
11 1 17 -2 13 -5z m86 -1 c-7 -2 -19 -2 -25 0 -7 3 -2 5 12 5 14 0 19 -2 13
-5z m-413 -13 c-36 -11 -50 -11 -50 0 0 6 17 10 38 9 33 -1 34 -2 12 -9z
m3655 -11 c11 -17 0 -20 -21 -4 -17 13 -17 14 -2 15 9 0 20 -5 23 -11z
m-14498 -65 c-3 -3 -12 -4 -19 -1 -8 3 -5 6 6 6 11 1 17 -2 13 -5z m-3957 -34
c0 -5 -10 -10 -22 -10 -19 0 -20 2 -8 10 19 13 30 13 30 0z m-270 -10 c12 -8
9 -10 -12 -10 -16 0 -28 5 -28 10 0 13 20 13 40 0z m2847 -25 c3 -9 3 -18 1
-21 -9 -9 -38 8 -38 22 0 19 29 18 37 -1z m-3937 -5 c0 -5 -9 -10 -19 -10 -11
0 -23 5 -26 10 -4 6 5 10 19 10 14 0 26 -4 26 -10z m2182 -12 c-7 -7 -12 -8
-12 -2 0 14 12 26 19 19 2 -3 -1 -11 -7 -17z m1700 7 c0 -5 -5 -11 -11 -13 -6
-2 -11 4 -11 13 0 9 5 15 11 13 6 -2 11 -8 11 -13z m424 -12 c-10 -10 -19 5
-10 18 6 11 8 11 12 0 2 -7 1 -15 -2 -18z"/>
<path d="M18736 221 c-9 -14 4 -41 19 -41 18 0 26 25 12 39 -13 13 -24 14 -31
2z"/>
<path d="M12622 195 c8 -8 98 -9 105 -1 4 3 -20 6 -52 6 -32 0 -56 -2 -53 -5z"/>
<path d="M4383 35 c-37 -26 -27 -35 43 -35 62 0 65 1 62 23 -2 18 -10 23 -43
25 -25 2 -49 -3 -62 -13z"/>
<path d="M14884 35 c-10 -26 7 -35 66 -35 98 0 94 39 -4 46 -43 3 -58 0 -62
-11z"/>
<path d="M3547 20 c-74 -14 -48 -20 79 -19 85 0 119 4 99 9 -46 12 -136 17
-178 10z"/>
</g>
</svg>
