<?xml version="1.0" standalone="no"?>
<!DOCTYPE svg PUBLIC "-//W3C//DTD SVG 20010904//EN"
 "http://www.w3.org/TR/2001/REC-SVG-20010904/DTD/svg10.dtd">
<svg version="1.0" xmlns="http://www.w3.org/2000/svg"
 width="43200.000000pt" height="2880.000000pt" viewBox="0 0 43200.000000 2880.000000"
 preserveAspectRatio="xMidYMid meet">
<metadata>
Created by potrace 1.11, written by Peter Selinger 2001-2013
</metadata>
<g transform="translate(0.000000,2880.000000) scale(1.440000,-1.440000)"
fill="#000000" stroke="none">
<path d="M0 1970 l0 -30 13853 0 13854 0 11 -38 c6 -20 12 -57 14 -82 3 -44 2
-45 -31 -48 -22 -2 -45 4 -69 21 -69 45 -230 44 -287 -3 -21 -17 -81 -44 -125
-56 -30 -8 -70 -42 -70 -60 0 -21 40 -37 75 -31 18 3 36 3 39 -1 15 -15 149 5
203 30 26 12 107 2 137 -17 24 -16 123 -35 175 -35 74 1 91 39 92 208 l1 112
113 0 112 0 22 -56 c11 -31 21 -61 21 -67 0 -7 13 -32 30 -56 16 -25 39 -71
51 -103 22 -60 48 -80 74 -58 17 14 20 61 6 75 -14 15 -51 179 -51 224 l0 41
260 0 260 0 0 -33 c0 -18 5 -38 12 -45 9 -9 9 -21 0 -50 -25 -81 -12 -122 38
-122 49 0 58 24 57 143 l-2 107 200 -1 c176 0 195 -2 160 -13 -22 -7 -55 -21
-74 -30 -18 -10 -67 -20 -109 -23 -61 -5 -81 -11 -99 -29 -34 -34 -29 -52 20
-65 23 -6 55 -15 71 -20 16 -5 52 -9 79 -9 60 0 267 38 284 52 7 6 23 7 35 3
13 -4 46 -11 73 -15 28 -4 68 -15 91 -23 27 -10 79 -16 150 -17 115 -2 123 -1
194 33 39 19 45 26 45 52 0 27 -5 32 -45 44 -39 13 -49 12 -91 -2 -58 -21 -98
-21 -135 -2 -16 8 -36 15 -45 15 -8 0 -20 5 -25 10 -6 6 -21 13 -34 15 -13 2
-28 9 -34 15 -7 7 57 10 202 10 l212 0 0 30 0 30 -15000 0 -15000 0 0 -30z"/>
<path d="M7421 1822 l-34 -36 6 -82 5 -81 -52 -2 c-28 -1 -71 -3 -96 -4 l-45
-2 -1 60 c-2 90 -2 90 -35 114 -29 21 -35 22 -70 11 l-38 -13 -3 -91 -3 -91
-40 -2 c-22 -2 -74 -5 -115 -9 -72 -6 -76 -5 -87 18 -6 12 -14 43 -17 68 -9
74 -22 129 -36 145 -17 20 -94 20 -114 -1 -21 -21 -20 -70 4 -119 11 -22 19
-56 20 -76 0 -35 -2 -37 -37 -43 -81 -13 -238 -26 -272 -22 -34 3 -36 5 -33
37 2 19 12 43 23 55 52 55 -7 134 -100 134 -42 0 -54 -28 -61 -139 l-5 -95
-35 -9 c-19 -5 -39 -12 -45 -17 -14 -11 -119 -40 -144 -40 -16 0 -21 6 -21 29
0 17 -6 31 -16 35 -11 4 -15 18 -14 48 3 64 3 64 -35 82 -31 15 -37 15 -65 1
-38 -19 -47 -55 -26 -99 9 -19 16 -47 16 -64 0 -35 -13 -39 -150 -42 -46 -1
-90 -5 -96 -8 -7 -4 -41 -6 -77 -4 l-65 4 -7 46 c-3 26 -9 64 -12 85 -9 65
-88 104 -114 55 -7 -13 -10 -49 -7 -95 6 -92 13 -89 -185 -98 -135 -7 -147 -6
-166 12 -12 11 -21 30 -20 44 1 41 -14 102 -34 136 -24 42 -66 46 -91 9 -13
-20 -14 -34 -6 -77 6 -28 10 -69 10 -90 l0 -39 -112 -2 c-62 -1 -133 -2 -156
-2 -26 -1 -48 5 -55 13 -7 9 -12 51 -12 108 0 88 -2 96 -24 114 -15 13 -36 19
-55 17 -42 -4 -62 -59 -46 -130 12 -60 13 -125 1 -132 -4 -3 -65 -10 -133 -15
-98 -7 -134 -7 -164 4 -43 15 -48 28 -60 170 -8 99 -18 122 -59 129 -21 4 -42
2 -54 -6 -18 -11 -20 -20 -15 -93 3 -44 10 -109 15 -144 6 -35 9 -65 7 -66 -3
-3 -236 -25 -267 -25 -19 0 -21 6 -21 55 0 54 -25 125 -50 140 -13 8 -76 -20
-87 -38 -13 -21 -13 -47 -1 -75 7 -15 13 -43 13 -62 l0 -35 -55 -6 c-30 -4
-83 -10 -116 -14 -73 -9 -75 -8 -82 84 -3 41 -12 76 -23 92 -34 49 -92 45
-120 -7 -9 -18 -8 -37 6 -94 10 -39 15 -73 12 -76 -8 -9 -80 -26 -104 -25 -12
0 -25 -4 -28 -9 -3 -6 -26 -10 -51 -10 l-44 0 -1 38 c-5 131 -28 182 -83 182
-59 0 -61 -9 -54 -190 l3 -55 -80 -7 c-44 -4 -98 -8 -120 -10 l-40 -3 -1 40
c-3 108 -5 121 -27 148 -20 25 -27 28 -59 22 -46 -9 -57 -35 -55 -134 2 -81 7
-74 -75 -100 -35 -11 -106 -6 -110 8 0 3 -2 18 -3 32 -1 15 -12 43 -25 63 -19
32 -27 37 -54 34 -29 -3 -32 -6 -40 -55 -11 -60 -26 -70 -116 -77 -30 -3 -71
-10 -90 -15 -19 -6 -37 -7 -41 -3 -4 4 -3 30 1 57 14 83 -4 112 -76 120 -58 6
-86 -55 -63 -136 25 -83 24 -84 -63 -81 -47 2 -78 0 -82 -7 -10 -15 -56 -14
-57 2 -1 6 -3 41 -4 77 -3 81 -29 148 -62 161 -32 12 -70 2 -87 -23 -12 -17
-12 -26 0 -60 15 -43 19 -136 6 -154 -11 -16 -165 -59 -242 -67 -17 -2 -17 1
5 61 18 51 11 85 -22 112 -37 29 -79 26 -108 -7 -22 -26 -23 -34 -18 -116 7
-98 -6 -127 -56 -127 -15 0 -35 -6 -46 -14 -11 -8 -39 -19 -62 -26 -82 -25
-106 -72 -54 -109 33 -24 62 -22 139 8 78 31 92 29 94 -16 0 -21 3 -49 5 -63
2 -14 6 -64 9 -112 6 -79 4 -88 -16 -108 -19 -19 -31 -21 -110 -19 -96 3 -110
-3 -136 -52 -36 -70 50 -133 131 -95 32 15 62 20 108 18 29 -2 29 -2 23 -59
-3 -32 -8 -77 -12 -100 -6 -40 -4 -43 27 -62 42 -26 91 -27 112 -3 19 20 24
131 8 148 -5 5 -7 22 -4 37 l5 28 87 -3 86 -3 3 -35 c2 -19 -2 -61 -9 -93
l-12 -58 33 -34 c47 -48 76 -51 118 -9 31 31 32 35 19 56 -15 24 -22 112 -12
159 6 25 8 26 88 28 45 1 91 2 102 3 11 1 39 1 63 0 l42 -2 0 -53 c0 -29 -7
-77 -16 -106 -14 -49 -14 -55 4 -89 16 -32 24 -37 59 -40 28 -2 47 3 64 17 23
18 24 24 23 139 0 75 -5 126 -12 134 -9 11 -5 18 19 32 16 10 35 16 42 13 7
-2 41 2 77 9 36 8 70 12 77 9 8 -2 10 -20 6 -53 -3 -29 0 -59 7 -71 10 -19 18
-22 62 -19 57 3 60 8 76 108 5 34 12 46 27 48 11 2 29 12 40 21 12 11 40 19
68 20 l47 3 1 -34 c3 -184 6 -235 13 -246 10 -16 100 -16 114 1 7 8 13 69 14
147 3 132 3 134 28 147 51 25 63 27 166 38 68 7 71 7 77 -15 3 -12 4 -31 1
-43 -6 -33 -6 -78 2 -128 3 -27 2 -54 -4 -65 -12 -22 8 -68 37 -84 28 -15 77
-12 91 5 12 15 8 203 -6 288 -9 53 7 67 72 67 29 0 63 4 76 9 13 5 54 11 91
15 38 3 73 8 78 11 5 4 9 -29 9 -78 0 -71 -3 -87 -20 -102 -28 -25 -25 -51 10
-85 37 -36 85 -40 117 -10 37 34 41 145 9 245 -12 40 -13 52 -3 62 15 15 212
30 219 17 3 -5 9 -39 12 -75 6 -53 4 -68 -9 -79 -8 -7 -15 -28 -15 -48 0 -28
8 -43 39 -74 22 -21 48 -38 58 -38 64 1 82 104 42 236 -15 50 -11 101 8 108
10 4 69 9 132 12 l114 5 -7 -63 c-4 -35 -8 -70 -9 -78 0 -8 -8 -28 -18 -44
-17 -27 -16 -30 3 -65 11 -20 26 -41 34 -47 18 -14 59 -7 77 15 21 24 47 138
47 207 0 79 7 82 185 86 126 3 140 1 143 -14 2 -10 -8 -28 -22 -41 -32 -30
-33 -49 -3 -88 40 -55 119 -78 148 -43 13 16 15 126 3 166 -7 25 25 35 132 42
49 3 117 8 150 12 l61 7 5 -64 c4 -43 1 -69 -7 -79 -24 -29 -24 -55 -1 -95 21
-36 27 -40 67 -43 35 -2 49 2 63 17 22 24 23 48 6 127 -9 43 -11 74 -4 105 l9
44 145 12 c80 6 162 14 182 16 51 7 63 -9 43 -58 -9 -20 -15 -53 -13 -73 3
-33 7 -38 50 -56 l47 -19 31 30 32 31 -6 90 c-5 80 -3 91 12 96 22 6 90 15
172 22 35 3 67 7 71 10 12 7 99 8 106 1 10 -10 4 -118 -9 -153 -16 -45 -4 -77
36 -96 27 -13 42 -15 70 -7 31 8 36 15 44 52 5 23 6 47 2 52 -4 6 -10 45 -13
87 l-5 77 36 6 c20 3 51 8 67 11 89 17 86 18 79 -29 -3 -23 -10 -55 -15 -71
-5 -16 -9 -62 -9 -102 0 -60 3 -75 18 -82 23 -11 62 -2 93 23 23 18 27 32 38
130 7 61 15 121 18 134 l6 24 181 -7 c100 -3 191 -9 202 -12 19 -5 23 -16 29
-72 9 -92 12 -100 38 -97 12 1 32 3 45 4 43 2 62 35 62 107 l0 67 33 -9 c17
-4 70 -8 117 -9 116 -2 135 -11 144 -71 3 -26 6 -72 6 -104 0 -67 18 -90 72
-90 24 0 42 8 58 25 20 22 22 31 16 80 -3 31 -13 73 -21 93 -23 52 -16 61 42
51 26 -4 79 -10 116 -12 38 -2 74 -10 80 -16 7 -7 14 -50 16 -99 4 -107 23
-142 76 -142 36 0 43 7 62 58 8 24 9 53 2 97 -13 96 -10 99 80 91 41 -3 79
-10 84 -15 5 -5 11 -49 14 -98 7 -112 19 -133 76 -133 24 0 52 6 62 14 17 13
18 19 8 87 -7 40 -8 80 -3 88 4 9 9 21 9 26 1 10 220 11 247 1 11 -4 14 -28
14 -112 0 -91 3 -112 21 -140 25 -41 65 -45 117 -14 26 16 32 26 32 52 0 18
-7 46 -15 62 -8 15 -15 54 -15 87 l0 58 153 0 c83 1 158 -3 166 -8 10 -6 15
-30 16 -68 2 -32 6 -66 10 -75 11 -26 56 -38 91 -23 53 22 66 82 30 137 -18
27 -17 27 9 34 29 7 271 1 280 -7 3 -3 11 -48 19 -99 15 -98 19 -106 75 -116
30 -6 38 -3 59 21 15 18 22 36 18 49 -19 75 -28 127 -23 140 7 19 241 23 253
5 4 -7 8 -34 8 -61 2 -67 26 -91 81 -78 22 5 45 17 52 26 16 22 17 96 2 111
-17 17 -1 21 126 24 l120 4 8 -50 c4 -27 10 -72 13 -100 10 -105 24 -125 85
-125 46 0 44 -9 44 155 l0 120 45 6 c65 10 220 -5 231 -22 5 -8 7 -50 4 -94
-6 -91 2 -110 55 -125 38 -11 74 1 89 29 16 29 13 113 -4 135 -8 11 -15 32
-15 47 0 25 4 28 43 34 51 8 383 3 391 -6 4 -3 9 -36 13 -73 7 -78 25 -97 83
-91 19 2 40 4 46 4 13 1 34 44 34 70 0 10 -6 24 -14 30 -7 6 -13 22 -13 36 l0
25 141 -7 c77 -3 143 -8 146 -10 2 -2 3 -39 1 -83 -2 -68 0 -81 18 -99 21 -21
66 -28 87 -13 22 14 37 58 35 98 -1 22 3 53 9 69 10 26 13 27 53 21 23 -3 109
-11 191 -16 82 -5 156 -12 165 -15 20 -6 51 -87 51 -132 0 -74 52 -130 108
-117 56 12 61 16 67 45 5 23 1 36 -19 59 -24 29 -44 108 -33 128 3 4 23 7 44
5 21 -2 75 -5 120 -6 45 -1 87 -7 92 -12 12 -13 16 -100 7 -142 -11 -47 16
-93 53 -93 44 0 91 30 92 60 4 82 3 118 -4 137 -12 33 20 41 133 31 52 -4 127
-9 165 -10 l70 -3 6 -60 c11 -96 21 -149 32 -163 14 -18 79 -14 106 7 23 18
24 21 13 59 -13 44 -16 131 -4 133 13 2 54 2 158 0 l101 -1 7 -87 c9 -126 44
-165 114 -129 36 19 42 46 33 144 -6 68 -5 73 14 77 11 3 88 -1 170 -8 l150
-13 0 -74 0 -74 40 -23 c57 -32 78 -30 98 12 13 27 15 49 11 91 l-7 54 89 -6
c49 -4 92 -12 97 -18 8 -11 5 -39 -7 -67 -5 -11 3 -29 24 -53 41 -46 87 -50
125 -9 29 32 30 40 9 64 -10 11 -13 25 -9 39 6 20 12 21 73 16 175 -14 202
-19 203 -35 4 -39 6 -47 13 -64 25 -54 133 -52 161 3 10 19 11 30 3 38 -6 6
-8 18 -5 26 5 13 20 15 87 11 45 -2 86 -8 92 -11 7 -4 8 -31 5 -73 -8 -84 4
-102 74 -111 46 -6 52 -4 66 17 13 20 14 35 6 86 -5 34 -14 70 -18 81 -7 15
-5 17 11 13 10 -3 66 -8 124 -12 58 -3 121 -9 140 -13 l35 -8 1 -80 c0 -43 2
-84 2 -89 3 -15 35 -33 73 -40 27 -5 39 -1 60 19 25 23 26 28 22 106 l-5 82
64 -7 c34 -4 86 -7 115 -9 29 -1 56 -5 59 -9 4 -4 7 -32 6 -62 -1 -30 5 -70
13 -89 15 -35 17 -36 93 -27 28 3 52 41 52 84 0 77 10 81 214 72 l174 -7 11
-27 c6 -14 10 -59 9 -98 -2 -40 0 -72 5 -73 4 0 41 0 82 0 72 0 75 1 75 23 0
13 -6 37 -14 53 -21 44 -29 111 -13 116 17 6 235 -9 248 -18 8 -4 10 -27 6
-64 -3 -32 -2 -62 2 -67 11 -17 45 -30 87 -32 37 -1 43 1 57 31 10 22 13 38 6
49 -5 10 -9 32 -9 49 l0 31 133 -5 c73 -3 141 -8 150 -12 10 -4 17 -17 17 -34
0 -16 5 -32 10 -35 7 -4 6 -13 -1 -26 -8 -16 -7 -25 7 -40 15 -16 29 -19 78
-17 l61 3 -3 73 c-2 39 1 72 5 73 59 6 268 -7 285 -18 8 -5 13 -29 13 -68 l0
-60 90 3 c50 2 93 7 98 11 4 4 -2 17 -13 29 -12 12 -18 22 -15 22 3 0 -2 14
-10 30 -9 17 -14 34 -11 38 2 4 40 4 83 1 43 -4 88 -8 100 -8 26 -1 37 -29 34
-83 l-2 -38 87 0 86 0 -6 28 c-4 15 -10 40 -13 56 l-6 29 139 -7 c171 -8 184
-11 184 -43 0 -48 17 -63 70 -63 53 0 63 8 64 55 l1 30 80 0 c44 0 127 -2 185
-5 l105 -5 5 -35 c5 -34 6 -35 55 -37 80 -4 92 2 87 36 l-4 29 86 4 c48 2 118
1 157 0 68 -4 71 -5 81 -33 6 -18 17 -29 29 -30 126 -4 145 1 151 41 3 25 5
25 93 25 l90 0 5 -30 c5 -30 6 -30 70 -30 l65 0 0 35 c0 26 4 34 15 31 8 -2
53 -5 100 -8 121 -6 125 -7 129 -34 4 -32 8 -34 92 -34 70 0 73 1 79 25 6 25
7 25 116 25 118 0 150 -7 157 -36 4 -15 14 -17 72 -15 45 1 69 7 75 16 11 18
145 18 250 1 83 -14 216 -14 241 -1 11 6 24 8 30 5 27 -17 810 -22 909 -5 52
8 175 6 338 -6 60 -5 76 -3 85 10 18 24 277 36 277 13 0 -31 151 -34 163 -3 4
9 38 15 101 19 108 7 156 1 156 -19 0 -11 19 -14 80 -14 71 0 81 2 78 18 -3
15 9 17 122 18 69 0 137 4 152 8 41 12 96 -1 94 -22 -1 -14 10 -17 74 -20 81
-2 119 10 88 29 -28 16 -21 36 13 43 17 3 69 6 115 6 l84 0 0 -35 0 -35 80 0
c64 0 82 3 87 16 3 8 1 20 -6 27 -6 6 -11 17 -11 24 0 10 17 12 76 8 86 -6 96
-10 92 -33 -5 -33 12 -42 79 -42 l66 0 -7 40 -6 40 97 -1 c54 0 116 -3 138 -7
36 -7 40 -11 38 -35 l-2 -27 79 0 c77 0 80 1 86 25 7 27 12 28 114 25 51 -2
75 -14 64 -32 -6 -10 -4 -10 66 -13 72 -4 95 2 80 20 -19 23 5 27 111 21 104
-6 123 -11 114 -27 -10 -16 147 -10 169 6 23 17 59 19 87 5 13 -7 19 -7 19 0
0 5 7 10 15 10 8 0 15 -4 15 -9 0 -11 44 -14 195 -12 67 1 121 6 123 11 2 6
36 10 75 10 40 0 67 -4 60 -8 -6 -4 35 -8 90 -9 56 -2 119 -6 139 -9 29 -4 39
-2 44 10 5 12 21 16 71 16 40 0 62 -4 58 -10 -3 -6 1 -10 9 -10 8 0 18 4 21
10 3 6 11 10 16 10 6 0 8 -4 5 -9 -3 -5 34 -11 82 -14 65 -3 93 -1 110 9 15
10 22 11 22 3 0 -6 9 -9 20 -6 13 3 20 0 20 -9 0 -17 3 -17 43 -1 37 14 97 13
128 -3 11 -6 37 -10 57 -9 21 2 43 0 49 -4 17 -11 61 -1 79 18 10 10 24 13 36
9 14 -4 18 -2 14 5 -5 7 4 11 23 11 22 0 31 -5 31 -16 0 -13 7 -15 30 -11 16
4 32 2 36 -4 4 -6 55 -8 142 -5 76 3 155 5 176 5 42 1 42 15 1 16 -14 0 -25 4
-25 10 0 5 49 11 111 13 63 2 109 0 106 -5 -3 -5 -2 -15 3 -23 13 -21 209 -16
268 7 35 13 45 14 52 4 6 -11 9 -11 13 0 4 12 7 11 16 -1 7 -10 11 -11 11 -2
0 17 27 15 34 -3 8 -22 208 -22 230 0 17 17 151 22 161 5 3 -6 11 -10 16 -10
6 0 8 4 5 9 -3 5 15 3 42 -5 38 -12 64 -13 132 -4 47 5 121 10 165 10 53 0 75
3 65 10 -12 8 -12 10 2 15 9 4 29 5 45 3 l28 -4 -25 -11 c-22 -10 -18 -12 35
-13 33 -1 79 -2 102 -4 40 -2 41 -1 27 18 -16 23 -19 56 -5 56 6 0 13 -5 17
-12 5 -8 10 -7 18 4 28 38 106 26 106 -16 0 -46 7 -51 66 -48 l56 4 -6 146
c-7 169 -14 232 -29 250 -6 7 -11 34 -13 60 -1 26 -5 80 -9 120 -7 68 -6 74
16 93 13 11 36 23 52 26 22 4 27 11 25 27 -2 16 -11 22 -40 24 -34 3 -37 6
-48 50 -12 51 -27 65 -77 76 -27 6 -34 3 -52 -23 -12 -17 -21 -36 -20 -43 5
-40 0 -43 -71 -42 -120 2 -110 -3 -110 62 0 54 -2 59 -45 100 -24 23 -52 42
-62 42 -57 0 -90 -83 -58 -144 12 -22 16 -42 11 -60 l-7 -27 -121 3 c-132 3
-132 3 -143 69 -13 81 -88 115 -140 63 -26 -26 -27 -35 -10 -90 6 -19 3 -21
-47 -20 -29 0 -87 -2 -130 -4 -81 -4 -108 6 -108 41 0 10 -15 29 -33 43 -26
20 -40 24 -74 19 -36 -5 -42 -9 -48 -37 -4 -17 -7 -45 -8 -62 l-1 -31 -65 -3
c-111 -5 -132 -4 -140 9 -4 6 -23 10 -42 9 -32 -3 -34 -1 -34 28 0 39 -46 94
-78 94 -64 -1 -87 -31 -87 -116 0 -36 -4 -54 -15 -57 -8 -4 -17 -1 -21 5 -4 6
-9 7 -13 0 -5 -8 -153 -32 -202 -32 -22 0 -39 42 -39 94 0 56 -23 84 -72 90
-57 7 -82 -18 -80 -80 1 -26 7 -53 12 -58 6 -6 10 -18 10 -28 0 -14 -8 -18
-34 -18 -19 0 -38 -4 -41 -10 -3 -5 -52 -8 -113 -7 l-107 2 3 42 c3 38 1 43
-22 49 -14 3 -30 12 -36 19 -12 15 -22 13 -88 -16 -45 -20 -44 -17 -29 -92 1
-8 -31 -13 -105 -15 l-107 -3 9 30 c11 39 -15 91 -53 109 -40 19 -90 8 -107
-23 -7 -14 -17 -25 -22 -25 -14 0 -9 -47 7 -60 8 -7 15 -16 15 -21 0 -15 -64
-24 -147 -21 l-81 3 -7 42 c-8 49 -17 62 -55 81 -25 12 -32 12 -58 -4 -31 -19
-47 -59 -37 -91 10 -30 -35 -41 -129 -32 -45 4 -87 7 -94 6 -11 -1 -13 9 -8
40 6 45 -9 73 -51 96 -28 15 -86 14 -101 -1 -15 -15 -15 -69 0 -103 6 -14 9
-28 5 -31 -9 -9 -155 -14 -205 -7 l-44 6 7 43 c8 59 -16 84 -82 84 -70 0 -78
-9 -76 -75 2 -30 -1 -54 -5 -53 -4 1 -47 -2 -96 -7 -80 -7 -91 -6 -103 11 -15
21 -17 70 -3 79 18 11 11 22 -31 49 -85 57 -137 -9 -108 -134 3 -12 -13 -15
-98 -18 l-102 -3 -16 38 c-12 27 -13 43 -6 54 8 14 1 19 -45 34 -55 17 -55 17
-80 -6 -17 -16 -24 -33 -24 -60 0 -21 -5 -41 -12 -45 -15 -9 -226 -8 -268 1
-26 6 -30 11 -30 42 0 19 -7 41 -15 49 -8 9 -15 24 -15 34 0 20 -45 50 -74 50
-9 0 -23 -14 -31 -31 -13 -24 -14 -40 -6 -77 12 -56 5 -62 -59 -61 -63 2 -105
12 -106 27 -1 6 -2 23 -3 37 0 14 -10 33 -21 42 -11 10 -20 23 -20 29 0 26
-80 33 -100 9 -15 -17 -17 -47 -7 -97 l8 -36 -43 3 c-24 2 -76 4 -115 4 l-73
1 0 51 c0 28 -5 59 -10 70 -15 26 -62 49 -104 49 -54 0 -63 -26 -44 -135 3
-18 -1 -20 -42 -16 -66 6 -86 6 -177 -3 -83 -9 -83 -9 -84 15 -1 13 -1 28 0
32 1 5 -8 22 -19 38 -18 24 -28 29 -63 29 -24 0 -53 -7 -65 -16 -18 -13 -21
-21 -16 -53 l6 -38 -70 -11 c-76 -13 -142 -15 -165 -7 -10 5 -13 19 -9 56 4
42 1 54 -18 74 -23 24 -30 25 -107 9 -21 -4 -23 -10 -23 -68 0 -80 -4 -82
-174 -92 l-126 -7 0 28 c0 20 -12 39 -40 65 -64 59 -100 39 -100 -55 0 -25
-22 -39 -37 -24 -7 7 -173 -1 -208 -11 -5 -1 -22 -2 -37 -1 -22 1 -28 6 -28
24 0 12 -10 40 -23 62 -29 50 -72 66 -112 39 -26 -17 -27 -21 -21 -75 l6 -57
-78 -7 c-131 -11 -271 -9 -291 4 -8 5 -16 32 -18 62 -4 49 -11 75 -33 119 -4
9 -24 16 -47 18 -37 3 -43 0 -61 -30 -19 -32 -19 -36 -5 -96 9 -34 14 -64 12
-66 -7 -7 -221 -16 -243 -10 -16 4 -22 14 -24 46 -5 69 -35 108 -86 108 -39 0
-56 -28 -56 -95 0 -53 2 -53 -195 -51 l-140 1 3 41 c3 36 0 44 -25 62 -16 11
-46 23 -66 27 -33 7 -40 4 -62 -21 -15 -17 -22 -35 -19 -44 4 -8 9 -26 12 -39
l5 -24 -89 7 c-170 12 -216 19 -219 30 -2 6 -9 33 -16 59 -19 66 -42 89 -87
85 -46 -4 -75 -45 -54 -78 6 -11 12 -33 12 -50 0 -30 0 -30 -62 -32 -78 -2
-143 1 -185 8 -30 4 -33 8 -33 42 -1 54 -28 82 -79 82 -44 0 -46 -2 -68 -75
l-9 -30 -101 0 -102 -1 -6 28 c-4 15 -8 51 -9 79 -2 43 -8 57 -30 76 -15 12
-37 23 -49 23 -34 0 -87 -55 -87 -91 0 -16 4 -29 10 -29 10 0 40 -51 40 -68 0
-6 -10 -10 -23 -10 -12 0 -77 -2 -144 -3 -108 -2 -125 0 -143 16 -17 16 -20
26 -14 62 6 40 5 43 -22 54 -39 16 -73 13 -96 -8 -16 -14 -18 -26 -13 -65 6
-45 5 -48 -19 -54 -14 -3 -60 -3 -103 1 -43 4 -124 8 -181 9 -56 2 -104 5
-107 8 -3 2 -6 30 -6 61 -1 48 -6 60 -31 83 -28 28 -29 28 -71 14 -39 -14 -42
-18 -45 -54 -2 -21 1 -43 7 -49 19 -19 13 -57 -8 -57 -11 0 -23 4 -26 10 -3 5
-39 10 -78 10 -40 0 -96 3 -124 6 l-53 7 0 38 c0 39 -17 88 -35 101 -5 4 -26
8 -46 8 -27 0 -40 -6 -57 -29 -18 -25 -20 -34 -11 -61 19 -52 12 -54 -158 -50
-50 1 -61 9 -66 50 -3 19 -9 47 -15 62 -11 27 -57 58 -86 58 -24 0 -66 -59
-66 -93 0 -32 -1 -32 -48 -30 -26 0 -81 1 -123 2 -83 1 -113 17 -125 69 -4 15
-18 42 -31 60 -28 37 -50 36 -91 -2 -20 -18 -23 -28 -18 -62 l5 -41 -47 -8
c-52 -8 -80 -8 -162 -3 -54 3 -54 3 -64 43 -16 68 -85 101 -146 70 -27 -14
-30 -21 -30 -61 l0 -45 -127 3 c-108 3 -127 5 -124 18 13 49 11 58 -14 88 -24
28 -31 31 -63 26 -21 -3 -45 -7 -56 -8 -27 -4 -46 -34 -46 -74 0 -31 -2 -33
-27 -28 -16 3 -96 7 -180 8 l-152 2 -26 49 c-14 27 -25 55 -25 63 0 16 -39 34
-75 34 -18 0 -26 -8 -35 -34 -6 -19 -8 -46 -4 -62 l7 -27 -118 6 c-65 3 -122
10 -127 15 -6 6 -12 34 -13 64 -8 134 -76 189 -146 118 -28 -28 -29 -31 -15
-57 7 -15 15 -46 17 -68 l4 -40 -50 -8 c-61 -10 -70 -11 -120 -9 -54 3 -63 10
-69 57 -3 22 -10 58 -16 80 -6 22 -12 45 -13 52 -6 26 -51 54 -82 51 -40 -4
-59 -41 -44 -89 21 -66 20 -95 -1 -114 -17 -16 -25 -17 -59 -7 -21 7 -59 12
-84 12 -52 0 -57 7 -57 83 0 41 -5 57 -23 73 -32 30 -84 46 -109 33 -17 -9
-19 -18 -15 -67 3 -31 6 -66 8 -77 4 -18 -2 -20 -56 -22 -33 -2 -85 3 -115 10
l-55 13 0 41 c-1 62 -35 95 -95 91 l-45 -3 -3 -43 c-2 -24 2 -49 8 -57 18 -22
-5 -28 -131 -33 l-119 -4 0 61 c0 53 -3 62 -25 77 -67 44 -163 15 -149 -44 4
-15 11 -31 15 -36 5 -6 9 -18 9 -28 0 -16 -11 -18 -122 -17 -68 0 -143 4 -168
7 -39 6 -45 10 -47 34 -1 15 -12 46 -26 70 -19 35 -29 44 -56 46 -21 2 -40 -3
-53 -14 -17 -16 -18 -26 -12 -82 l7 -64 -90 7 c-60 5 -102 3 -125 -4 -46 -15
-88 -1 -88 31 -1 13 -7 34 -15 48 -8 14 -14 35 -15 47 0 43 -72 69 -103 39
-14 -15 -15 -76 -2 -138 8 -32 -6 -36 -115 -27 -41 4 -85 2 -98 -2 -24 -9 -95
-2 -123 12 -10 5 -16 22 -17 46 -1 21 -7 64 -14 97 -11 51 -18 62 -51 83 -43
27 -68 24 -86 -10 -8 -16 -8 -32 -1 -57 5 -19 10 -47 10 -63 0 -15 5 -36 12
-46 16 -26 3 -54 -22 -46 -21 7 -163 17 -265 19 l-60 1 -3 67 c-2 56 -7 70
-29 92 -52 53 -129 19 -120 -52 2 -21 10 -51 18 -69 7 -18 10 -35 7 -38 -13
-13 -236 -9 -252 4 -10 8 -29 11 -54 6 -48 -8 -59 4 -64 65 -3 41 -6 47 -40
62 -27 13 -44 15 -62 9 -34 -13 -40 -27 -37 -87 2 -63 -3 -66 -114 -62 -38 1
-93 -1 -120 -5 -77 -10 -109 2 -116 44 -6 36 -35 98 -47 100 -90 15 -114 -6
-105 -93 l6 -58 -111 1 c-60 1 -115 -2 -121 -5 -5 -4 -40 -4 -76 0 -58 6 -66
9 -62 25 3 11 1 21 -3 24 -5 3 -14 32 -21 64 -12 63 -31 81 -87 81 -48 0 -55
-12 -49 -76 3 -33 8 -68 12 -80 6 -20 4 -21 -127 -18 -73 1 -138 3 -145 3 -6
1 -14 19 -18 41 -4 22 -11 42 -16 46 -5 3 -9 15 -9 27 0 12 -12 32 -27 44 -69
60 -153 -8 -108 -87 8 -14 14 -29 15 -34 0 -13 -218 -2 -232 12 -6 6 -11 35
-10 64 2 60 -17 92 -62 104 -38 9 -54 -10 -61 -74 -11 -97 -6 -92 -98 -91 -45
0 -100 3 -122 7 l-40 7 0 72 c0 81 -11 100 -71 122 -58 21 -69 2 -67 -109 2
-85 0 -90 -21 -96 -12 -3 -34 0 -50 5 -15 6 -69 11 -119 12 -125 1 -130 3
-131 69 -1 50 -4 56 -35 77 -32 22 -36 22 -60 7 -41 -26 -51 -44 -51 -92 l0
-45 -97 6 c-54 4 -119 7 -145 7 l-46 0 -8 68 c-10 97 -16 109 -65 122 -34 10
-44 9 -59 -5 -31 -28 -44 -72 -31 -101 6 -14 11 -35 11 -48 0 -23 -2 -23 -102
-24 -97 -1 -166 12 -169 30 -1 4 -3 11 -4 16 -1 4 -6 27 -10 51 -5 29 -20 56
-41 79 -27 29 -37 33 -61 27 -15 -3 -34 -11 -40 -17 -15 -12 -18 -94 -4 -102
5 -3 11 -19 13 -35 3 -24 0 -32 -20 -40 -19 -9 -170 -30 -219 -31 -17 0 -17
74 -1 134 15 56 -4 91 -54 98 -28 5 -38 0 -67 -30z m755 -299 l40 -5 2 -149
c1 -82 6 -159 11 -171 5 -13 12 -53 15 -91 l8 -67 -139 6 c-76 3 -142 10 -148
15 -11 11 -24 410 -14 437 3 9 19 20 35 24 33 7 130 8 190 1z m-354 -185 c6
-199 0 -284 -20 -281 -6 2 -44 5 -83 8 -89 5 -109 21 -109 82 0 24 -7 57 -15
74 -9 16 -13 34 -10 39 3 5 1 29 -6 52 -28 105 -39 171 -28 184 11 13 59 19
190 22 l76 2 5 -182z m744 172 c45 -1 86 -5 91 -9 6 -3 12 -67 15 -144 3 -86
9 -142 16 -149 7 -7 12 -43 12 -89 l0 -77 -52 -8 c-29 -4 -96 -7 -148 -6 -106
3 -120 11 -120 67 0 18 -4 45 -9 61 -9 27 -19 130 -27 274 -1 35 1 69 6 75 6
7 35 11 72 9 35 -2 99 -4 144 -4z m-1155 -15 c5 -4 9 -28 9 -55 0 -27 5 -52
10 -55 6 -3 10 -22 10 -40 0 -19 6 -54 14 -77 8 -24 17 -67 21 -95 4 -29 11
-55 16 -59 5 -3 9 -10 9 -16 0 -7 -40 -8 -127 -4 -103 5 -131 10 -145 24 -20
19 -48 200 -48 303 0 86 11 93 128 86 51 -4 97 -9 103 -12z m1642 -11 c74 -8
71 -4 81 -94 10 -92 25 -196 35 -245 10 -52 5 -101 -10 -111 -19 -11 -307 -15
-314 -4 -4 6 -8 30 -10 53 -2 23 -4 42 -5 42 -2 0 -6 40 -15 150 -4 50 -11 95
-15 100 -16 19 -15 106 1 116 14 9 124 6 252 -7z m-2012 -81 c4 -39 9 -76 13
-81 3 -5 6 -36 7 -68 1 -32 8 -75 16 -93 23 -58 17 -61 -114 -57 -65 2 -125 7
-134 11 -18 7 -30 93 -23 155 3 19 7 71 9 114 3 49 9 82 17 87 7 5 55 7 108 6
l95 -2 6 -72z m2372 62 c75 -6 89 -10 100 -28 10 -19 34 -352 28 -399 -2 -14
-218 -9 -229 5 -5 6 -12 58 -15 114 -3 56 -10 110 -15 120 -5 10 -12 57 -15
105 -6 91 -2 99 38 92 11 -1 59 -6 108 -9z m-2729 -152 c-3 -87 -7 -163 -9
-169 -2 -7 -26 -10 -65 -8 -130 7 -216 7 -241 0 -25 -7 -27 -5 -33 31 -4 21
-8 91 -10 155 -5 133 -8 128 82 129 31 0 66 4 77 9 11 5 61 9 112 9 l92 1 -5
-157z m3168 130 l46 -5 6 -82 c3 -44 5 -88 5 -96 0 -8 5 -40 12 -70 6 -30 12
-74 14 -97 4 -50 3 -51 -155 -55 l-105 -3 -6 155 c-4 85 -10 171 -13 190 -4
19 -4 46 -1 59 6 23 8 23 78 17 40 -4 93 -9 119 -13z m1775 -23 c23 -5 83 -12
133 -14 50 -2 92 -5 93 -7 8 -12 29 -103 38 -164 5 -38 14 -89 19 -113 6 -23
10 -63 10 -88 l0 -46 -32 7 c-45 11 -76 14 -198 21 -58 3 -127 11 -154 18 -44
11 -49 16 -51 42 -21 296 -19 329 18 344 29 12 73 12 124 0z m-1369 -16 c54
-5 63 -9 66 -27 15 -81 26 -164 32 -240 l6 -88 -143 3 -142 3 -12 60 c-19 89
-38 273 -31 291 6 16 18 16 224 -2z m1069 0 c10 -2 13 -34 12 -116 0 -62 4
-129 10 -148 6 -19 11 -50 11 -68 l0 -33 -146 5 c-81 3 -150 8 -153 11 -12 12
-74 332 -67 342 1 1 62 6 136 11 124 8 163 7 197 -4z m-5123 -79 c-3 -181 -3
-183 -21 -189 -10 -3 -45 -8 -78 -11 -33 -2 -78 -9 -100 -14 -22 -6 -42 -8
-45 -5 -2 3 -5 31 -5 63 0 32 -6 65 -12 73 -17 20 -8 109 12 124 18 14 151 35
170 28 7 -3 16 0 20 6 4 6 19 10 33 8 27 -3 27 -4 26 -83z m6011 70 c39 -4 77
-9 86 -11 32 -9 53 -143 54 -339 l0 -70 -70 1 c-111 2 -196 11 -206 21 -5 5
-12 27 -15 49 -3 21 -10 48 -14 59 -14 31 -40 174 -43 235 l-2 55 50 6 c28 3
59 5 70 3 11 -1 52 -5 90 -9z m-1337 -136 c13 -73 25 -150 25 -169 l2 -35
-125 0 c-69 0 -141 3 -161 6 -21 3 -44 2 -53 -3 -9 -5 -30 -7 -45 -3 -33 7
-34 13 -47 227 l-6 107 49 3 c26 2 113 3 193 2 l144 0 24 -135z m-5186 110
c134 2 139 -2 132 -124 -3 -44 -5 -96 -5 -116 0 -35 -1 -36 -52 -48 -29 -6
-92 -16 -142 -22 -49 -6 -106 -13 -126 -16 -48 -7 -58 9 -63 98 -3 41 -10 95
-16 120 -6 25 -10 59 -8 75 3 29 4 29 78 34 41 3 79 3 85 1 5 -3 58 -4 117 -2z
m7120 -29 c5 -19 13 -75 18 -125 13 -117 26 -217 29 -230 2 -5 3 -18 2 -29 -1
-17 -7 -18 -88 -13 -224 16 -264 21 -270 30 -9 15 -33 248 -27 272 2 11 -2 38
-10 60 -25 71 -20 73 171 71 l167 -1 8 -35z m424 33 c29 -6 49 -91 41 -175 -3
-35 -1 -97 4 -138 5 -41 11 -86 12 -100 l2 -25 -143 0 c-157 0 -164 3 -155 60
3 18 -1 43 -8 56 -8 13 -17 73 -21 134 -4 61 -10 126 -14 147 -5 30 -3 37 13
41 23 6 241 7 269 0z m409 -3 l71 0 2 -121 c2 -82 7 -130 17 -149 8 -16 18
-55 21 -87 4 -32 11 -64 17 -71 7 -9 7 -16 -2 -25 -14 -14 -201 -11 -216 4 -5
5 -33 9 -62 9 -48 0 -54 3 -63 25 -6 15 -12 94 -15 178 -3 84 -9 169 -14 189
-13 54 -1 61 94 54 44 -3 112 -6 150 -6z m-8360 -27 c3 -15 8 -49 11 -75 2
-27 10 -61 19 -78 8 -16 15 -41 15 -56 0 -15 5 -42 12 -60 17 -46 1 -61 -75
-68 -115 -12 -152 -16 -222 -26 -80 -11 -100 -7 -117 23 -12 23 -23 295 -13
334 6 24 25 27 256 31 l107 2 7 -27z m8802 13 c4 -8 6 -68 3 -133 -3 -65 -3
-164 0 -221 3 -64 1 -102 -5 -102 -5 0 -3 -5 5 -11 11 -7 1 -9 -35 -4 -27 3
-69 6 -93 7 -50 2 -58 9 -65 63 -7 46 -35 173 -44 195 -8 20 -8 194 0 207 4 6
54 11 116 12 87 1 111 -2 118 -13z m-9303 -12 c13 -12 16 -40 16 -137 1 -68 6
-138 13 -157 7 -19 11 -47 9 -62 -3 -26 -5 -26 -90 -32 -48 -3 -122 -10 -166
-16 -43 -5 -82 -7 -87 -5 -4 3 -7 98 -7 210 l2 204 41 3 c22 2 88 4 147 6 86
2 109 -1 122 -14z m9624 5 l65 -11 -7 -73 c-5 -52 -3 -85 8 -116 8 -24 20 -75
27 -114 6 -38 15 -74 20 -79 5 -6 9 -32 9 -59 l0 -50 -135 5 c-75 3 -138 8
-142 11 -8 9 -22 157 -23 252 -1 44 -6 94 -11 112 -8 25 -6 42 12 82 21 51 22
51 67 51 25 0 74 -5 110 -11z m-10064 -32 c3 -12 7 -102 10 -199 5 -161 4
-177 -12 -182 -17 -5 -200 -10 -280 -7 l-44 1 1 108 c1 59 -2 144 -6 189 -7
69 -6 84 7 89 8 3 64 8 125 10 60 3 110 6 111 7 2 1 21 3 43 4 35 1 42 -2 45
-20z m10363 2 c43 -5 85 -12 94 -15 22 -6 30 -54 33 -194 1 -63 8 -146 16
-183 17 -84 16 -84 -91 -84 l-79 0 0 27 c0 15 -9 39 -20 53 -14 18 -18 33 -14
56 4 20 1 39 -8 53 -8 13 -18 57 -22 98 -4 41 -9 96 -12 123 -6 50 -1 77 15
77 5 0 45 -5 88 -11z m-10812 -43 c2 -11 6 -77 9 -146 3 -69 8 -136 11 -150 4
-14 0 -33 -7 -43 -15 -21 -102 -42 -209 -52 l-76 -7 -8 68 c-4 38 -9 77 -10
87 -4 15 -7 181 -6 233 1 20 7 22 94 24 50 1 110 5 132 9 50 9 64 5 70 -23z
m11242 2 c65 -9 84 -15 88 -29 4 -11 4 -23 0 -28 -5 -10 15 -163 36 -266 6
-27 13 -67 16 -87 l5 -37 -124 1 c-67 1 -130 3 -139 5 -29 8 -50 66 -55 153
-6 100 -6 288 0 299 5 8 63 5 173 -11z m461 -14 c20 -4 22 -10 22 -67 0 -34 7
-84 15 -111 8 -27 15 -65 15 -85 0 -20 7 -58 16 -86 31 -97 34 -109 29 -113
-9 -10 -255 -6 -265 4 -5 5 -11 23 -14 39 -2 17 -6 37 -8 45 -8 23 -26 127
-37 215 -20 160 -20 164 -2 168 18 5 195 -2 229 -9z m-12132 -2 c6 -4 12 -41
13 -87 1 -44 11 -126 23 -183 15 -70 18 -106 11 -113 -5 -5 -37 -12 -69 -14
-32 -3 -82 -7 -111 -10 l-51 -6 -5 73 c-5 70 -17 170 -32 269 l-7 46 74 15
c84 17 138 21 154 10z m12660 -33 c29 -9 33 -16 48 -75 9 -36 14 -69 12 -73
-3 -4 4 -36 14 -70 11 -34 19 -79 18 -99 0 -21 4 -47 10 -59 7 -12 12 -40 12
-62 l0 -41 -109 4 c-60 2 -115 7 -121 11 -6 4 -49 6 -96 6 -68 -1 -84 2 -84
14 0 8 1 16 1 18 1 1 -6 19 -15 41 -9 21 -16 51 -16 67 0 15 -4 31 -10 34 -18
11 -29 79 -31 185 -1 58 -1 109 0 114 1 11 326 -2 367 -15z m-13006 -53 c0
-25 5 -57 11 -73 6 -15 12 -66 14 -113 2 -47 8 -98 14 -113 6 -16 11 -30 11
-31 0 -11 -97 -28 -153 -27 -55 1 -73 -3 -94 -19 -60 -47 -77 -19 -73 123 2
62 4 141 5 177 3 100 3 100 28 100 12 0 29 5 37 10 8 5 57 10 108 10 l92 0 0
-44z m13350 30 c129 -6 145 -15 134 -72 -3 -18 -1 -41 6 -53 6 -12 11 -54 11
-93 0 -40 7 -97 15 -127 19 -76 18 -118 -3 -123 -10 -2 -54 -1 -98 2 -44 4
-97 5 -117 2 -34 -4 -38 -2 -38 18 0 12 -4 39 -9 59 -21 82 -40 191 -47 261
-3 41 -11 84 -16 94 -8 15 -7 22 7 32 9 7 22 11 28 9 7 -2 64 -6 127 -9z m553
-25 c9 -7 16 -20 16 -29 0 -9 3 -39 5 -67 12 -127 17 -196 21 -265 3 -41 8
-83 11 -92 4 -15 -1 -18 -28 -19 -18 -1 -42 0 -53 1 -11 1 -60 5 -110 9 -86 6
-90 7 -93 31 -2 14 -8 29 -13 34 -5 6 -9 44 -9 85 0 42 -7 114 -15 161 -8 47
-15 104 -15 128 l0 43 134 -3 c89 -3 139 -8 149 -17z m332 -2 c115 -18 125
-30 125 -157 0 -54 5 -103 10 -108 6 -6 11 -28 12 -50 0 -21 9 -55 18 -74 10
-19 20 -46 21 -60 l4 -25 -135 -2 c-74 -1 -150 0 -168 3 -30 5 -32 8 -31 42 0
20 -4 82 -10 137 -28 252 -29 289 -12 303 10 8 30 11 51 8 19 -3 71 -11 115
-17z m-14615 -212 c3 -111 2 -205 -3 -208 -11 -8 -137 -22 -207 -23 l-55 -1
-2 50 c-1 28 -6 106 -11 175 -13 181 -12 186 55 205 32 10 82 15 119 13 34 -1
66 1 70 5 22 21 29 -27 34 -216z m26842 179 c4 -6 8 -27 8 -46 0 -19 6 -46 13
-61 8 -14 15 -52 16 -84 1 -33 8 -79 16 -102 18 -52 19 -99 3 -109 -23 -14
-138 -18 -152 -4 -5 5 -10 30 -11 57 -1 27 -7 58 -13 69 -6 11 -14 45 -18 75
-4 30 -10 59 -15 65 -5 5 -10 40 -11 77 l-3 67 30 1 c46 2 87 7 92 13 7 7 36
-5 45 -18z m-11807 -15 c57 -7 62 -17 64 -113 1 -31 6 -60 11 -63 6 -4 8 -10
5 -15 -3 -4 2 -24 10 -44 8 -19 15 -53 15 -75 0 -22 4 -42 9 -45 14 -9 19 -67
6 -80 -7 -6 -35 -11 -66 -9 -30 1 -73 2 -96 3 -39 0 -43 3 -62 43 -12 24 -21
62 -21 85 0 22 -4 43 -9 46 -5 4 -12 50 -15 104 -4 53 -11 112 -17 129 -6 18
-8 37 -5 41 5 9 78 6 171 -7z m11062 -2 c16 -6 23 -17 23 -37 0 -15 7 -37 15
-49 10 -14 15 -49 17 -100 1 -43 6 -84 11 -91 5 -7 13 -47 17 -89 9 -87 -1
-108 -44 -97 -14 3 -31 2 -38 -2 -7 -5 -57 -9 -110 -9 -87 -1 -98 1 -98 16 0
10 -4 20 -9 23 -5 3 -7 15 -4 26 3 11 0 26 -6 33 -6 8 -13 64 -16 126 -3 62
-8 117 -11 123 -4 5 -8 36 -10 69 l-4 58 38 6 c20 4 42 8 47 11 16 6 157 -7
182 -17z m-26518 -17 c5 -9 9 -28 9 -42 0 -33 10 -170 18 -247 4 -33 4 -73 0
-87 -6 -23 -11 -26 -54 -26 -26 0 -63 -4 -83 -9 -21 -5 -42 -6 -47 -2 -16 10
-32 58 -32 99 -1 60 -1 72 4 192 6 136 8 140 108 140 54 0 69 -3 77 -18z
m26965 -10 c6 -9 11 -33 13 -52 1 -19 7 -69 13 -110 6 -41 13 -95 16 -120 3
-25 10 -55 16 -67 6 -12 8 -33 4 -47 l-6 -25 -126 1 c-106 0 -126 3 -131 17
-3 9 -9 26 -15 37 -11 23 -17 67 -25 184 -3 45 -10 81 -19 91 -8 9 -17 40 -21
68 l-6 52 139 -6 c116 -5 140 -9 148 -23z m-27294 8 c17 -9 18 -20 13 -145 -4
-88 -1 -157 7 -197 11 -56 10 -63 -6 -75 -10 -7 -35 -13 -55 -13 -21 0 -41 -5
-44 -11 -6 -9 -101 -7 -109 3 -9 10 -13 89 -5 94 5 3 10 24 9 47 0 23 3 66 6
95 3 28 2 64 -3 80 -5 15 -6 45 -3 67 5 36 9 41 45 51 50 15 120 17 145 4z
m16247 -6 c39 -5 43 -8 52 -42 5 -20 13 -59 16 -87 4 -27 10 -59 15 -70 5 -11
11 -41 15 -67 3 -26 10 -50 16 -53 5 -4 9 -33 9 -65 l0 -59 -102 5 c-57 3
-125 6 -153 7 -45 2 -50 4 -60 32 -5 17 -13 32 -16 35 -4 3 -12 39 -18 80 -6
41 -18 100 -28 130 -15 45 -19 94 -14 163 1 8 181 2 268 -9z m10185 -18 c6
-10 12 -69 14 -130 1 -61 8 -129 14 -151 24 -83 34 -135 26 -142 -4 -5 -57 -8
-118 -8 -123 0 -129 3 -149 80 -6 22 -15 49 -20 60 -12 28 -31 123 -33 163 0
17 -5 32 -10 32 -4 0 -6 10 -3 21 3 12 -1 32 -10 45 -29 46 -17 50 137 49 127
0 143 -2 152 -19z m-9724 -2 c67 -4 122 -10 123 -13 0 -3 2 -15 4 -26 2 -11 9
-72 16 -135 6 -63 15 -122 20 -131 5 -9 12 -42 15 -73 l7 -56 -184 3 -184 3
-22 83 c-12 45 -24 111 -27 147 -3 35 -10 72 -15 83 -20 37 -42 112 -36 121 4
6 37 9 83 6 42 -3 132 -8 200 -12z m9264 -9 c0 -6 9 -28 21 -50 20 -38 28 -74
45 -191 4 -29 14 -59 21 -67 7 -9 14 -32 16 -52 3 -31 0 -38 -23 -46 -15 -6
-52 -8 -82 -5 -75 8 -77 8 -141 0 -55 -6 -56 -6 -63 20 -4 15 -4 42 -1 59 4
18 1 46 -6 62 -7 17 -16 57 -20 90 -4 33 -11 84 -15 113 l-7 52 44 1 c24 0 78
6 119 13 83 15 91 15 92 1z m-8681 -9 c13 -6 19 -28 24 -96 4 -56 12 -94 21
-101 8 -6 11 -15 9 -19 -3 -5 1 -28 10 -52 21 -61 20 -145 -2 -156 -10 -5 -88
-8 -173 -6 l-154 2 -8 29 c-5 15 -11 69 -14 118 -3 50 -8 97 -12 105 -15 39
-21 178 -8 184 16 8 288 0 307 -8z m375 -34 c20 -44 30 -102 50 -326 l6 -59
-27 6 c-16 2 -59 1 -98 -4 -46 -6 -74 -5 -82 1 -7 6 -15 36 -19 68 -11 106
-16 147 -21 159 -2 7 0 15 6 19 6 4 5 11 -3 21 -11 14 -36 105 -37 141 -1 9
25 12 104 10 l104 -1 17 -35z m4032 30 c6 -1 12 -9 12 -18 0 -8 5 -25 12 -37
6 -12 13 -47 16 -77 2 -30 10 -66 18 -82 9 -17 14 -58 14 -107 l0 -81 -37 -16
c-28 -13 -77 -18 -179 -22 l-142 -4 -10 33 c-6 19 -13 82 -15 141 -3 84 -8
112 -21 127 -13 14 -16 33 -14 77 l3 59 45 5 c41 5 267 6 298 2z m-22017 -39
c1 -36 -1 -95 -6 -153 -1 -14 -3 -62 -3 -107 -2 -96 -11 -109 -80 -118 -26 -4
-56 -10 -67 -15 -11 -5 -42 -10 -70 -12 -49 -3 -50 -2 -52 27 -4 61 19 380 28
390 6 6 48 10 94 11 47 0 88 4 92 7 3 4 19 7 35 7 26 0 28 -3 29 -37z m21490
32 c36 -6 36 -7 52 -83 10 -43 17 -102 17 -132 0 -30 5 -73 11 -95 19 -70 22
-112 8 -121 -15 -9 -251 -10 -266 -1 -7 5 -11 42 -11 96 0 93 -9 169 -22 186
-5 6 -10 37 -11 70 -2 52 0 61 17 70 24 12 155 18 205 10z m-3118 -14 c23 -9
25 -16 31 -103 17 -244 18 -291 7 -297 -6 -4 -43 -4 -83 0 -40 4 -87 5 -104 3
-51 -9 -53 -2 -74 226 -6 63 -13 122 -17 130 -21 50 -20 50 101 50 63 0 126
-4 139 -9z m4041 -11 c21 -20 73 -336 57 -351 -3 -4 -56 -10 -118 -14 l-112
-7 -5 33 c-3 19 -8 50 -11 69 -4 19 -9 64 -13 100 -4 36 -14 77 -23 91 -13 19
-19 83 -10 95 4 6 228 -10 235 -16z m3453 14 c26 -7 37 -55 68 -304 3 -25 8
-52 11 -62 3 -9 0 -19 -5 -22 -10 -7 -165 -9 -221 -4 -50 5 -56 12 -63 69 -4
28 -14 60 -23 70 -9 10 -13 22 -10 27 9 15 -12 124 -29 142 -8 9 -15 31 -15
48 l0 31 116 0 c64 0 119 3 122 6 7 6 21 6 49 -1z m-7065 -23 c22 -8 25 -18
37 -108 8 -54 18 -103 23 -110 5 -6 8 -51 6 -100 l-3 -88 -30 0 c-16 0 -81 4
-142 9 l-113 8 -1 26 c-2 84 -21 246 -29 257 -7 9 -13 76 -11 114 1 12 22 13
120 8 65 -4 130 -11 143 -16z m2339 -36 c4 -27 11 -84 17 -125 15 -107 17
-219 4 -232 -15 -15 -264 -28 -279 -14 -7 7 -13 67 -17 156 -4 80 -8 166 -10
191 -3 25 -1 50 2 56 9 15 45 18 172 18 l105 0 6 -50z m4309 9 c11 -26 20 -61
20 -78 0 -18 5 -37 12 -44 6 -6 15 -30 19 -54 4 -24 13 -64 20 -89 18 -69 9
-82 -49 -74 -26 3 -69 1 -95 -5 -26 -5 -59 -7 -72 -4 -21 5 -25 12 -25 44 0
23 -7 46 -17 56 -9 9 -18 35 -19 56 -1 22 -7 45 -13 51 -6 6 -11 25 -11 41 0
17 -7 51 -16 75 -8 24 -13 45 -12 47 4 3 161 20 210 23 23 1 30 -6 48 -45z
m-25850 -69 c0 -57 -4 -126 -10 -152 -5 -26 -11 -73 -12 -103 -2 -41 -7 -55
-18 -55 -8 0 -21 -4 -28 -9 -16 -10 -101 -17 -127 -10 -17 4 -21 14 -23 67 -2
34 -7 80 -12 102 -5 22 -10 76 -12 120 l-3 80 37 18 c21 10 68 23 105 28 37 5
69 12 72 14 2 3 10 5 18 5 10 0 13 -24 13 -105z m21122 51 c4 -27 8 -122 10
-210 l3 -161 -55 -7 c-30 -4 -103 -9 -161 -11 l-105 -4 -12 166 c-7 91 -15
187 -18 213 -6 43 -4 48 18 52 12 3 32 7 43 10 11 2 76 3 145 2 l125 -1 7 -49z
m-1397 32 c5 -5 15 -146 20 -278 l5 -125 -30 -14 c-19 -8 -41 -10 -58 -5 -15
4 -31 8 -37 9 -5 1 -14 3 -20 4 -5 2 -50 3 -99 4 l-89 2 -4 90 c-2 50 -11 107
-19 128 -7 20 -14 50 -14 66 0 16 -6 44 -14 62 -27 64 -19 67 180 64 97 -2
177 -5 179 -7z m3385 -8 c16 -31 39 -118 49 -180 5 -36 13 -82 16 -102 3 -22
1 -39 -5 -43 -15 -9 -120 -10 -141 -1 -16 7 -25 49 -34 153 -2 18 -7 38 -11
44 -4 7 -10 29 -14 48 -4 20 -11 48 -15 63 -6 22 -3 27 17 31 49 10 131 2 138
-13z m365 7 l80 -2 6 -40 c4 -22 15 -71 24 -110 10 -38 20 -96 22 -127 l5 -57
-37 -7 c-20 -3 -64 -3 -98 1 -34 4 -84 9 -111 10 -26 2 -52 7 -56 12 -9 11
-30 113 -36 183 -3 30 -10 72 -15 93 -5 20 -7 42 -4 48 4 6 32 8 73 4 37 -4
103 -7 147 -8z m803 0 c12 -15 20 -84 28 -238 l6 -116 -24 -5 c-49 -9 -207 4
-212 18 -3 7 0 41 5 76 12 71 4 164 -18 216 -8 19 -11 38 -6 43 19 18 207 23
221 6z m402 3 c15 -8 19 -22 19 -82 0 -40 4 -118 9 -173 4 -55 5 -105 1 -110
-9 -12 -234 -13 -246 -1 -4 3 -9 48 -11 99 -2 50 -6 99 -9 107 -3 8 -7 26 -9
40 -1 14 -6 44 -9 67 -3 24 -3 47 0 53 8 13 230 13 255 0z m406 0 c7 0 14 -17
17 -37 6 -40 22 -115 38 -173 6 -19 11 -62 12 -95 l2 -60 -125 -5 c-147 -6
-168 -4 -175 20 -3 9 -7 83 -8 164 -2 95 -8 151 -15 158 -7 7 -12 18 -12 25 0
10 27 12 128 8 70 -2 132 -4 138 -5z m361 2 c13 -8 66 -186 65 -216 -1 -11 4
-29 10 -40 10 -18 13 -48 9 -84 -1 -9 -70 -15 -166 -16 l-49 -1 -18 65 c-10
36 -20 88 -22 117 -3 28 -10 61 -16 73 -6 11 -9 24 -6 28 3 5 -2 21 -10 36 -7
16 -14 30 -14 32 0 10 202 16 217 6z m-4829 -8 c18 -5 22 -13 22 -49 0 -23 6
-58 14 -77 17 -40 25 -273 9 -289 -10 -10 -317 -14 -333 -4 -6 4 -10 37 -10
75 0 38 -5 81 -11 97 -10 27 -13 48 -26 181 l-6 63 147 -2 c80 -1 149 1 153 4
8 8 12 8 41 1z m3305 -3 c4 -1 7 -14 7 -30 0 -17 5 -33 10 -36 15 -9 13 -260
-2 -272 -14 -10 -151 -9 -167 2 -6 3 -13 22 -16 43 -4 20 -11 49 -16 63 -6 15
-12 45 -14 68 -1 22 -10 52 -18 65 -16 23 -22 53 -19 89 2 16 12 17 115 13 61
-3 115 -5 120 -5z m-3783 -38 c1 -21 7 -56 15 -78 16 -44 36 -153 40 -227 4
-69 -4 -73 -162 -75 -153 -2 -138 -13 -148 112 -10 118 -13 218 -7 263 l5 42
128 0 129 0 0 -37z m6440 -443 c0 -5 -11 -10 -25 -10 -14 0 -25 5 -25 10 0 6
11 10 25 10 14 0 25 -4 25 -10z m455 -10 c3 -5 -1 -10 -9 -10 -9 0 -16 5 -16
10 0 6 4 10 9 10 6 0 13 -4 16 -10z"/>
<path d="M28646 1122 c-3 -6 -1 -14 5 -17 14 -9 20 -2 10 14 -6 8 -11 9 -15 3z"/>
<path d="M24304 966 c-9 -24 4 -48 23 -44 12 2 18 12 18 28 0 29 -32 41 -41
16z"/>
<path d="M26815 1620 c-11 -18 7 -60 26 -60 21 0 25 21 9 51 -12 21 -25 25
-35 9z"/>
<path d="M18644 1539 c-9 -16 18 -30 33 -17 7 6 10 14 7 19 -7 13 -31 11 -40
-2z"/>
<path d="M26865 1450 c3 -5 8 -10 11 -10 2 0 4 5 4 10 0 6 -5 10 -11 10 -5 0
-7 -4 -4 -10z"/>
<path d="M1570 1280 c0 -5 5 -10 10 -10 6 0 10 5 10 10 0 6 -4 10 -10 10 -5 0
-10 -4 -10 -10z"/>
<path d="M24980 1204 c0 -17 26 -24 39 -11 17 17 13 22 -14 22 -14 0 -25 -5
-25 -11z"/>
<path d="M9237 555 c-8 -18 11 -31 25 -17 11 11 3 32 -12 32 -4 0 -10 -7 -13
-15z"/>
<path d="M8988 553 c6 -2 18 -2 25 0 6 3 1 5 -13 5 -14 0 -19 -2 -12 -5z"/>
<path d="M26900 474 c0 -17 22 -14 28 4 2 7 -3 12 -12 12 -9 0 -16 -7 -16 -16z"/>
<path d="M9260 469 c0 -5 5 -7 10 -4 6 3 10 8 10 11 0 2 -4 4 -10 4 -5 0 -10
-5 -10 -11z"/>
<path d="M29970 440 c0 -5 4 -10 9 -10 6 0 13 5 16 10 3 6 -1 10 -9 10 -9 0
-16 -4 -16 -10z"/>
<path d="M7265 410 c3 -5 8 -10 11 -10 2 0 4 5 4 10 0 6 -5 10 -11 10 -5 0 -7
-4 -4 -10z"/>
<path d="M9160 390 c0 -5 5 -10 10 -10 6 0 10 5 10 10 0 6 -4 10 -10 10 -5 0
-10 -4 -10 -10z"/>
<path d="M9197 383 c-13 -12 -7 -43 8 -43 8 0 15 6 15 13 0 18 -15 38 -23 30z"/>
<path d="M13178 378 c9 -9 15 -9 24 0 9 9 7 12 -12 12 -19 0 -21 -3 -12 -12z"/>
<path d="M8760 329 c0 -5 5 -7 10 -4 6 3 10 8 10 11 0 2 -4 4 -10 4 -5 0 -10
-5 -10 -11z"/>
<path d="M16312 328 c-7 -7 -12 -24 -12 -39 0 -14 -3 -40 -6 -57 -6 -30 -8
-31 -49 -26 -37 6 -46 3 -77 -25 -23 -20 -41 -48 -49 -76 -9 -32 -19 -45 -31
-45 -15 0 -18 10 -20 68 -2 70 -4 115 -6 170 -2 27 -6 32 -27 32 -33 0 -35 -5
-44 -124 -1 -17 -3 -17 -23 -4 -50 32 -139 -31 -154 -107 -7 -42 -25 -41 -36
1 -13 50 -62 101 -106 107 -74 12 -133 -21 -147 -84 -8 -36 0 -49 30 -49 17 0
29 9 39 28 19 36 66 42 95 10 40 -42 30 -48 -89 -48 l-110 0 0 41 c0 59 -42
99 -105 99 -26 0 -57 -7 -71 -16 -19 -13 -28 -14 -37 -5 -13 13 -53 15 -61 3
-3 -4 -1 -25 4 -45 11 -52 3 -77 -26 -77 -21 0 -23 5 -26 62 -3 60 -4 63 -29
66 -30 4 -39 -15 -39 -86 l0 -43 -52 3 -53 3 -1 40 c-2 68 -3 74 -25 85 -34
19 -49 -3 -47 -69 3 -53 2 -56 -22 -59 -25 -3 -26 0 -28 54 -3 68 -6 74 -37
74 -21 0 -24 -5 -30 -65 l-7 -65 -53 0 -53 0 0 55 c1 59 -9 79 -38 73 -21 -4
-35 -49 -29 -95 7 -54 -27 -33 -36 22 -9 51 -101 91 -149 65 -16 -9 -18 -7
-16 15 3 27 32 65 51 65 6 0 24 -14 40 -30 47 -49 86 -34 71 26 -11 43 -53 74
-101 74 -95 0 -151 -84 -139 -207 l6 -63 -116 0 -115 0 1 51 c0 59 -18 85 -51
74 -21 -6 -26 -26 -23 -92 2 -29 -1 -33 -23 -33 -24 0 -25 3 -25 59 0 55 -2
59 -26 65 -37 10 -43 0 -46 -67 l-3 -57 -52 0 -53 0 1 49 c2 60 -4 71 -42 71
-32 0 -33 -2 -29 -72 l2 -48 -95 0 -95 0 -15 39 c-48 120 -199 122 -229 3 -8
-31 -15 -42 -27 -40 -9 2 -17 13 -19 25 -2 12 -14 33 -28 48 -13 14 -22 31
-19 36 3 5 -1 6 -10 3 -8 -4 -22 -1 -30 6 -10 8 -32 11 -61 7 -38 -4 -52 -12
-80 -43 -18 -22 -34 -49 -34 -61 0 -18 -6 -23 -25 -23 -20 0 -25 5 -25 27 0
14 -11 41 -25 59 -33 43 -85 55 -128 29 -22 -13 -32 -15 -35 -7 -5 16 -49 15
-58 0 -4 -7 -6 -34 -5 -60 2 -42 0 -48 -17 -48 -14 0 -22 9 -27 30 -4 16 -4
33 -2 37 10 17 -13 53 -33 53 -24 0 -32 -17 -35 -69 -1 -20 -3 -39 -4 -43 0
-5 -26 -8 -56 -8 l-55 0 0 38 c-1 59 -17 78 -72 81 -44 2 -48 1 -48 -21 0 -30
11 -45 35 -49 12 -3 21 -14 23 -27 3 -22 2 -22 -128 -22 l-132 0 2 32 c4 69 1
78 -24 78 -32 0 -39 -13 -38 -67 0 -41 -1 -43 -30 -43 -23 0 -29 4 -24 16 3 8
3 33 0 55 -6 33 -10 39 -31 39 -28 0 -47 -40 -39 -83 l6 -27 -59 0 -59 0 0 43
c1 54 -6 67 -38 67 -23 0 -24 -3 -24 -55 l0 -55 -113 0 -113 0 -15 52 c-14 47
-19 53 -48 59 -29 6 -35 3 -52 -25 -10 -17 -17 -38 -14 -46 7 -22 -10 -44 -29
-37 -10 4 -16 19 -16 39 -1 42 -20 68 -52 68 -32 0 -55 -26 -63 -72 -7 -36 -9
-38 -45 -38 -31 0 -39 4 -44 22 -3 13 -20 38 -36 56 -42 46 -106 54 -154 21
-20 -13 -43 -41 -52 -61 -20 -44 -57 -55 -53 -15 1 12 -1 37 -5 54 -6 26 -13
33 -31 33 -27 0 -35 -17 -35 -71 l0 -39 -50 0 -50 0 0 39 c0 22 -3 46 -6 55
-13 35 -68 8 -64 -31 6 -58 3 -63 -49 -63 l-50 0 -3 52 c-3 51 -4 53 -33 53
-29 0 -30 -2 -33 -52 -3 -48 -5 -53 -26 -53 -16 0 -26 7 -30 23 -18 73 -116
117 -188 83 -34 -17 -68 -61 -68 -90 0 -10 -9 -16 -24 -16 -23 0 -25 4 -28 53
-3 46 -6 52 -27 55 -30 5 -41 -12 -41 -65 l0 -43 -54 0 -55 0 -3 53 c-3 48 -5
52 -29 55 -22 3 -27 -2 -33 -29 -3 -17 -6 -42 -6 -55 0 -23 -4 -24 -60 -24
-54 0 -60 2 -60 21 0 11 -18 39 -39 61 -39 39 -40 40 -100 35 -50 -3 -65 -8
-86 -31 -15 -16 -25 -39 -25 -57 l0 -29 -99 0 -99 0 -12 35 c-6 19 -25 46 -43
61 -27 23 -37 26 -80 20 -57 -6 -83 -26 -104 -78 -22 -55 -41 -49 -45 15 -3
50 -4 52 -33 52 -29 0 -30 -2 -33 -53 -3 -44 -6 -52 -23 -52 -10 0 -19 6 -19
13 0 6 -18 32 -40 57 -39 44 -42 45 -99 45 -68 0 -102 -23 -121 -81 -9 -26
-17 -34 -36 -34 -21 0 -24 5 -24 38 0 20 -4 42 -8 48 -20 30 -103 47 -117 24
-9 -15 22 -60 40 -60 9 0 15 -10 15 -25 0 -23 -4 -25 -46 -25 -43 0 -45 1 -44
28 5 76 2 83 -32 80 -32 -3 -33 -4 -36 -56 l-3 -52 -55 0 -54 0 0 54 c0 50 -2
54 -27 60 -30 8 -44 -6 -42 -44 3 -58 -1 -70 -21 -70 -14 0 -20 7 -20 21 0 33
-18 57 -64 84 -51 30 -61 31 -118 6 -44 -18 -68 -51 -68 -91 0 -11 -7 -20 -15
-20 -8 0 -12 6 -10 12 8 26 -30 83 -67 100 -31 15 -46 16 -90 8 -59 -11 -83
-34 -93 -87 l-6 -33 -3809 0 -3810 0 0 -30 0 -30 15000 0 15000 0 0 30 c0 30
0 30 -60 30 l-59 0 -3 72 -3 72 -35 9 c-46 12 -60 -8 -60 -90 l0 -63 -130 0
c-123 0 -130 1 -130 20 0 30 59 82 60 53 1 -5 9 -18 19 -30 16 -20 22 -21 55
-11 29 9 36 16 36 37 0 15 -14 43 -31 64 -26 32 -36 37 -72 37 -61 0 -107 -27
-139 -83 -15 -26 -28 -49 -28 -52 0 -3 0 -11 0 -19 0 -11 -23 -14 -105 -15
l-105 -1 13 32 c20 50 41 57 71 25 20 -22 31 -26 53 -21 50 12 56 25 33 72
-23 47 -45 62 -98 67 -74 7 -140 -54 -159 -145 l-6 -32 -66 6 c-36 3 -79 6
-95 6 -38 -1 -48 17 -29 47 18 28 49 30 58 4 4 -12 17 -20 40 -23 18 -2 31 0
29 4 -3 4 5 8 17 8 19 0 21 4 14 37 -9 53 -43 84 -97 90 -69 8 -112 -17 -143
-82 -14 -30 -25 -63 -25 -74 0 -20 -5 -21 -155 -21 l-156 0 3 80 c3 90 -9 115
-49 99 -21 -8 -23 -14 -23 -94 l0 -85 -85 0 -85 0 0 90 c0 75 -3 92 -16 97
-37 14 -49 -10 -52 -101 l-3 -86 -61 0 c-47 0 -58 3 -50 13 19 22 24 84 11
120 -21 60 -99 85 -159 52 -17 -9 -29 -10 -37 -3 -6 5 -24 8 -40 6 l-27 -3 3
-93 3 -92 -26 0 -25 0 2 90 c2 88 1 91 -22 97 -47 12 -56 -5 -52 -100 l3 -87
-56 0 -55 0 -3 98 -3 97 -25 -3 c-32 -5 -33 -6 -34 -42 -1 -16 -3 -30 -6 -30
-3 0 -4 -27 -4 -60 1 -56 0 -60 -21 -60 -12 0 -28 7 -35 14 -6 8 -28 20 -48
27 -89 28 -118 68 -67 91 31 14 66 -2 80 -35 7 -16 19 -22 40 -22 26 0 30 3
30 28 -1 39 -32 82 -70 96 -39 14 -105 15 -105 1 0 -5 -8 -10 -17 -10 -25 0
-63 -60 -63 -99 0 -34 15 -71 34 -83 6 -4 -12 -8 -39 -8 l-51 0 -22 75 c-12
41 -22 83 -22 94 0 21 -18 31 -59 31 -24 0 -31 -7 -44 -42 -9 -24 -23 -68 -30
-98 -13 -51 -17 -55 -46 -58 -30 -3 -31 -2 -31 36 0 64 -10 98 -39 129 -69 75
-171 66 -215 -21 -11 -21 -12 -35 -5 -48 15 -27 39 -22 75 18 42 45 72 43 96
-6 28 -58 27 -60 -66 -60 -97 0 -116 -5 -116 -31 0 -26 -24 -24 -56 6 -15 14
-39 28 -53 32 -35 8 -84 36 -88 50 -6 17 26 43 53 43 24 0 49 -20 70 -56 9
-16 15 -17 37 -7 25 12 26 13 14 54 -31 107 -208 106 -237 -2 -8 -28 -8 -50
-1 -69 5 -16 7 -30 5 -33 -3 -2 10 -12 28 -20 l33 -17 -62 0 -63 0 0 84 c0
103 -19 136 -79 136 -21 0 -40 -2 -43 -5 -12 -12 5 -52 25 -60 19 -9 22 -19
25 -82 l3 -73 -46 0 -45 0 0 93 c0 104 -11 131 -47 121 -22 -6 -23 -12 -24
-93 -1 -47 -1 -94 0 -104 2 -12 -5 -17 -23 -17 -24 0 -25 3 -28 72 -3 76 -11
87 -43 62 -14 -11 -21 -31 -25 -72 l-5 -57 -37 -3 -36 -3 -1 43 c-3 84 -6 93
-48 135 -38 39 -46 43 -91 43 -55 0 -92 -22 -118 -71 -11 -22 -12 -34 -4 -49
12 -23 11 -23 46 -10 15 6 24 13 21 17 -4 3 3 15 16 25 15 14 30 18 51 14 16
-4 30 -7 31 -9 1 -1 9 -18 18 -37 l16 -35 -27 -7 c-15 -5 -54 -6 -87 -5 -69 4
-95 -5 -95 -33 0 -19 -8 -20 -190 -20 l-190 0 0 105 0 105 -100 0 c-64 0 -100
-4 -100 -11 0 -5 -5 -7 -11 -4 -5 4 -25 -3 -43 -16 -33 -22 -68 -86 -81 -147
-5 -23 -12 -32 -26 -32 -16 0 -19 7 -19 48 0 26 -5 53 -12 60 -7 7 -9 12 -4
12 19 0 -33 64 -66 81 -44 23 -70 24 -106 5 -58 -30 -92 -92 -92 -167 0 -32
-3 -39 -20 -39 -18 0 -20 7 -21 63 -1 34 0 76 1 93 1 33 -21 60 -44 51 -15 -6
-25 -59 -28 -150 l-1 -57 -54 0 -53 0 0 88 c0 98 -7 115 -41 110 -23 -3 -24
-6 -27 -100 -3 -95 -3 -98 -26 -98 -13 0 -26 6 -29 13 -3 7 -37 26 -76 41 -60
24 -71 31 -71 52 0 13 9 28 21 34 25 14 69 5 69 -14 0 -17 32 -46 52 -46 56 0
35 86 -29 118 -90 47 -205 -24 -188 -115 3 -19 17 -46 30 -59 l24 -24 -308 0
c-297 0 -309 1 -335 21 -46 36 -30 100 30 113 45 10 79 -2 95 -32 27 -53 51
-82 69 -82 47 0 26 104 -32 156 -43 37 -126 45 -178 16 -49 -27 -82 -94 -75
-150 l6 -42 -39 0 -40 0 19 37 c35 69 19 135 -39 159 -46 19 -65 18 -107 -6
-32 -18 -38 -19 -51 -5 -17 17 -24 18 -41 7 -7 -5 -12 -35 -11 -82 1 -108 0
-110 -22 -110 -19 0 -20 7 -20 96 l0 95 -32 -3 c-27 -2 -33 -7 -34 -28 0 -14
-1 -55 -2 -92 l-2 -68 -34 0 c-32 0 -34 2 -50 57 -43 141 -40 136 -73 139 -40
5 -47 -6 -73 -101 -12 -43 -23 -82 -26 -87 -3 -4 -25 -8 -49 -8 l-44 0 15 27
c7 16 14 47 14 71 0 84 -84 128 -165 86 -23 -12 -34 -13 -51 -3 -44 23 -55 7
-49 -73 9 -121 -15 -150 -35 -43 -9 49 -20 73 -42 95 -32 32 -86 47 -114 32
-11 -5 -33 -7 -50 -5 -18 3 -35 0 -39 -7 -4 -6 -6 -49 -6 -96 1 -76 -1 -84
-18 -84 -19 0 -31 34 -31 87 0 15 -17 40 -45 68 -59 60 -102 62 -164 9 -23
-20 -40 -38 -37 -41 2 -3 -2 -20 -10 -38 -8 -19 -14 -46 -14 -60 0 -18 -5 -25
-20 -25 -17 0 -20 8 -22 92 -3 85 -4 91 -25 94 -32 5 -43 -23 -43 -110 l0 -76
-62 0 c-59 0 -60 1 -45 18 19 20 23 86 8 125 -20 52 -106 65 -168 26 -20 -12
-24 -11 -35 3 -10 12 -19 14 -35 8 -19 -8 -22 -15 -18 -57 1 -26 1 -65 -2 -86
-5 -31 -9 -37 -29 -37 -23 0 -24 3 -24 79 0 97 -4 111 -33 103 -33 -8 -37 -20
-37 -104 l0 -78 -49 0 -50 0 -7 45 c-3 25 -4 60 0 77 7 35 -7 58 -35 58 -28 0
-39 -31 -39 -109 l0 -71 -105 0 c-103 0 -117 4 -93 28 14 14 12 86 -4 111 -16
25 -61 51 -90 51 -13 0 -40 -9 -61 -19 -29 -15 -37 -16 -37 -5 0 16 -37 19
-59 5 -10 -6 -12 -25 -9 -70 3 -37 0 -62 -6 -65 -7 -3 -6 -5 2 -5 6 -1 12 -8
12 -16 0 -10 -11 -15 -35 -15 -34 0 -85 18 -85 29 0 4 -12 8 -26 9 -51 4 -72
42 -35 62 29 15 39 13 64 -16 35 -41 56 -48 77 -29 15 13 17 22 10 41 -5 13
-7 24 -4 24 3 0 -1 6 -8 13 -54 54 -142 67 -195 29 -39 -28 -55 -74 -44 -124
l9 -38 -37 0 c-42 0 -141 30 -165 49 -9 7 -16 19 -16 27 0 16 31 34 58 34 20
0 66 -46 58 -58 -10 -17 43 -10 58 7 17 18 16 21 -8 59 -30 48 -37 53 -89 62
-60 12 -100 -6 -127 -55 -18 -33 -22 -51 -16 -84 6 -41 6 -41 -24 -41 -28 0
-30 2 -19 21 15 28 6 91 -17 123 -27 36 -89 44 -140 18 -39 -20 -40 -20 -63
-1 -13 11 -28 16 -32 12 -5 -5 -9 -45 -10 -91 l-1 -82 -37 0 c-38 0 -133 30
-157 51 -13 10 -12 14 2 30 27 30 72 25 92 -11 17 -29 35 -36 66 -24 53 20
-32 134 -101 134 -97 0 -172 -98 -128 -169 10 -16 -81 -13 -139 4 -27 8 -58
23 -68 32 -17 15 -17 17 -2 35 28 30 94 21 94 -13 0 -11 11 -24 24 -30 20 -9
28 -8 45 8 21 19 21 20 4 60 -20 47 -56 63 -140 63 -39 0 -54 -5 -70 -23 -26
-27 -43 -85 -36 -121 5 -24 2 -26 -26 -26 -23 0 -30 4 -29 18 1 9 0 45 0 78
-2 49 -6 63 -19 69 -32 12 -53 -29 -53 -101 0 -56 -2 -64 -19 -64 -16 0 -19
10 -23 76 -6 83 -12 96 -45 83 -21 -8 -23 -15 -23 -84 l0 -75 -55 0 -55 0 -2
33 c0 17 -1 48 -2 67 -1 45 -11 60 -42 60 -25 0 -25 -1 -29 -85 -3 -70 -5 -75
-19 -75 -11 0 -14 11 -11 47 2 37 -3 55 -22 84 -33 50 -64 56 -124 27 -40 -20
-50 -22 -65 -11 -21 15 -24 16 -43 4 -10 -7 -14 -28 -12 -80 2 -70 2 -71 -23
-71 -25 0 -26 3 -26 55 0 50 -15 104 -29 105 -3 1 -22 3 -41 5 -19 3 -41 1
-48 -3 -19 -13 -4 -62 22 -72 17 -6 22 -16 21 -46 0 -36 -2 -39 -31 -42 -30
-3 -31 -2 -44 57 -7 34 -17 61 -23 61 -6 0 -21 10 -34 22 -32 30 -123 31 -154
2 -28 -25 -59 -88 -51 -100 17 -26 72 -25 72 1 0 18 34 45 57 45 26 0 63 -40
63 -68 0 -22 -2 -23 -107 -20 l-107 3 -7 31 c-11 57 -46 101 -95 120 -42 16
-45 16 -64 -1 -16 -15 -22 -15 -35 -5 -12 10 -19 10 -37 -2 -18 -12 -21 -23
-20 -81 l1 -67 -115 0 -114 0 0 75 0 75 -29 0 c-35 0 -41 -13 -41 -91 0 -56
-1 -59 -25 -59 -26 0 -29 3 -40 53 -8 38 -64 93 -104 102 -73 16 -143 -35
-156 -114 -6 -35 -10 -41 -31 -41 -23 0 -24 3 -24 69 0 52 -4 70 -15 75 -39
15 -52 -15 -48 -116 l1 -28 -127 0 -126 0 -1 50 c-1 59 -20 85 -75 101 -32 10
-44 9 -80 -9 -31 -16 -46 -18 -56 -11 -7 6 -24 8 -39 5 -25 -7 -25 -8 -19 -71
l7 -65 -26 0 c-14 0 -26 6 -27 13 0 6 -1 65 -2 130 -2 92 -6 120 -17 127 -20
13 -24 12 -38 -2z m8475 -133 c22 -16 43 -70 43 -112 0 -22 -4 -23 -70 -23
l-70 0 0 39 c0 35 9 60 33 99 11 16 38 15 64 -3z m-1529 -16 c19 -31 6 -57
-36 -69 -74 -20 -99 -3 -68 46 30 44 83 56 104 23z m-1326 0 c21 -11 48 -66
48 -99 0 -18 -6 -20 -70 -20 -67 0 -70 1 -70 24 0 39 20 83 43 94 28 14 25 14
49 1z m326 -28 c6 -8 12 -32 12 -53 l0 -38 -55 0 c-55 0 -55 0 -55 30 0 35 23
86 42 93 14 5 35 -8 56 -32z m302 20 c5 -11 10 -24 10 -29 0 -26 -93 -60 -118
-44 -20 13 -5 55 26 74 37 22 69 22 82 -1z m2648 -48 l3 -63 -102 0 -101 0 7
28 c20 80 51 104 135 100 l55 -3 3 -62z m2810 51 c37 -38 17 -63 -64 -79 -25
-5 -33 -2 -38 12 -5 13 3 27 28 50 40 37 51 40 74 17z m-7298 -12 c27 -22 20
-60 -13 -66 -83 -17 -87 -16 -87 7 0 26 16 50 45 65 27 15 29 15 55 -6z m774
-4 c15 -24 -3 -52 -35 -56 -76 -10 -84 -8 -81 18 5 53 89 80 116 38z m-2900
-14 c36 -36 7 -70 -64 -76 -46 -4 -52 23 -14 63 31 33 55 37 78 13z m1283 -2
c18 -29 -13 -59 -69 -67 -46 -7 -48 -6 -48 16 0 29 8 42 35 57 30 17 69 14 82
-6z m-2650 -21 c2 -9 9 -24 14 -33 14 -27 13 -28 -60 -28 -64 0 -69 1 -64 20
3 11 9 18 13 15 4 -3 7 3 6 12 -3 37 80 50 91 14z m613 -6 c0 -8 5 -15 10 -15
6 0 10 -9 10 -20 0 -18 -7 -20 -55 -20 -49 0 -55 2 -55 20 0 12 11 32 25 46
20 20 28 23 45 14 11 -6 20 -17 20 -25z m-1871 -1 c34 -44 28 -54 -34 -54 -51
0 -69 10 -45 25 6 4 8 10 5 15 -5 8 32 40 46 40 4 0 17 -12 28 -26z m281 15
c0 -5 5 -7 10 -4 6 3 10 -1 10 -9 0 -9 5 -16 10 -16 6 0 10 -9 10 -20 0 -18
-7 -20 -56 -20 -53 0 -55 1 -48 23 12 42 64 79 64 46z m356 -14 c9 -38 -11
-55 -67 -55 -56 0 -64 17 -27 57 31 33 85 32 94 -2z m-1201 -20 c0 -30 -1 -30
-57 -33 -66 -3 -72 6 -31 44 19 18 36 24 57 22 27 -3 31 -7 31 -33z m-7347 -2
l27 -28 -32 -3 c-18 -2 -48 -2 -65 0 l-33 3 27 28 c15 15 32 27 38 27 6 0 23
-12 38 -27z m4816 5 c24 -34 20 -38 -34 -38 -27 0 -50 3 -50 8 0 18 33 52 50
52 10 0 26 -10 34 -22z m301 8 c0 0 6 -11 13 -23 12 -23 11 -23 -47 -23 l-59
0 11 25 c8 17 18 24 30 21 10 -2 14 0 11 6 -4 6 2 8 17 3 13 -4 24 -8 24 -9z
m281 -3 c25 -33 17 -43 -35 -43 -44 0 -49 2 -44 20 3 11 14 20 25 20 10 0 16
5 13 10 -11 18 27 11 41 -7z m1050 5 c4 -7 3 -8 -4 -4 -7 4 -12 2 -12 -3 0 -6
4 -11 9 -11 5 0 11 -7 15 -15 4 -12 -4 -15 -39 -15 -49 0 -55 10 -25 40 22 22
45 26 56 8z m-6741 -4 c12 -3 26 -14 33 -25 12 -18 9 -19 -48 -19 -62 0 -75
11 -42 36 19 15 28 16 57 8z m1047 -11 c29 -26 22 -33 -32 -33 -54 0 -59 4
-33 32 20 22 41 23 65 1z m402 1 c26 -25 19 -34 -30 -34 -33 0 -43 3 -38 13
24 41 42 47 68 21z m452 -1 c21 -29 17 -33 -35 -33 -52 0 -79 17 -42 27 12 3
21 9 21 14 0 16 42 9 56 -8z m678 1 c27 -26 18 -34 -39 -34 -30 0 -55 3 -55 6
0 11 45 43 62 44 9 0 24 -7 32 -16z m750 6 c14 -5 26 -16 26 -25 0 -11 -12
-15 -50 -15 -54 0 -59 4 -33 32 19 21 23 21 57 8z m11719 -20 c4 -15 0 -20
-14 -20 -21 0 -22 1 -13 24 8 22 21 20 27 -4z m4307 -11 c0 -5 -7 -9 -15 -9
-8 0 -15 7 -15 15 0 9 6 12 15 9 8 -4 15 -10 15 -15z"/>
<path d="M20470 275 c0 -8 2 -15 4 -15 2 0 6 7 10 15 3 8 1 15 -4 15 -6 0 -10
-7 -10 -15z"/>
<path d="M25957 273 c-17 -17 -5 -45 25 -58 28 -11 37 -11 60 1 34 18 35 28 6
48 -23 16 -79 22 -91 9z"/>
</g>
</svg>
