<?xml version="1.0" standalone="no"?>
<!DOCTYPE svg PUBLIC "-//W3C//DTD SVG 20010904//EN"
 "http://www.w3.org/TR/2001/REC-SVG-20010904/DTD/svg10.dtd">
<svg version="1.0" xmlns="http://www.w3.org/2000/svg"
 width="43200.000000pt" height="5725.816024pt" viewBox="0 0 43200.000000 5725.816024"
 preserveAspectRatio="xMidYMid meet">
<metadata>
Created by potrace 1.11, written by Peter Selinger 2001-2013
</metadata>
<g transform="translate(0.000000,5725.816024) scale(1.424332,-1.424332)"
fill="#000000" stroke="none">
<path d="M27670 3760 c18 -12 68 -12 95 0 14 6 0 9 -45 9 -45 1 -60 -2 -50 -9z"/>
<path d="M23585 3557 c-183 -22 -185 -22 -265 -40 -36 -8 -69 -13 -73 -10 -4
3 -15 -1 -23 -8 -15 -12 -64 -14 -254 -8 -66 2 -103 -1 -120 -10 -13 -8 -38
-13 -55 -12 -46 2 -109 -18 -141 -45 -50 -41 -84 -78 -85 -94 -1 -19 -7 -68
-12 -98 -2 -12 -9 -28 -15 -34 -7 -7 -12 -25 -12 -40 0 -15 -4 -28 -9 -28 -5
0 -12 -25 -16 -55 -3 -31 -18 -81 -32 -111 -14 -31 -30 -88 -36 -127 -6 -40
-17 -76 -24 -80 -7 -4 -13 -16 -13 -26 0 -18 -35 -27 -192 -51 -37 -6 -79 -15
-94 -20 -14 -6 -30 -8 -34 -5 -5 3 -25 -1 -44 -9 -19 -8 -36 -11 -38 -6 -2 5
-21 5 -44 0 -66 -15 -182 -26 -369 -35 -166 -8 -198 -11 -290 -31 -76 -16
-303 -26 -310 -13 -10 16 -284 -10 -308 -29 -18 -14 -116 -33 -194 -37 -37 -1
-131 -13 -208 -25 -156 -24 -180 -27 -345 -35 -63 -3 -142 -8 -175 -11 -69 -7
-63 -7 -305 -5 -189 2 -540 -6 -710 -14 -52 -3 -165 -5 -250 -5 -365 1 -477 0
-504 -6 -18 -4 -31 -2 -36 7 -6 9 -12 10 -22 3 -20 -16 -288 -8 -398 11 -102
17 -198 21 -211 8 -4 -4 -9 -19 -11 -33 -3 -21 -7 -24 -33 -21 -16 1 -39 8
-50 14 -32 17 -516 11 -609 -8 -17 -4 -50 -13 -72 -20 -34 -11 -49 -12 -75 -2
-19 7 -37 16 -40 21 -4 5 -12 6 -17 2 -38 -23 -432 -24 -1185 -2 -115 4 -211
7 -215 8 -4 1 -15 -2 -24 -6 -9 -4 -31 -1 -50 8 -35 16 -155 19 -164 4 -3 -4
-15 -1 -27 7 -17 10 -50 14 -117 14 -52 -1 -138 2 -190 6 -52 3 -192 8 -311
10 -131 2 -224 7 -237 14 -11 6 -58 11 -104 11 -45 1 -94 2 -108 2 -14 0 -95
0 -180 -1 -85 -1 -172 3 -192 8 -21 5 -38 7 -38 4 0 -3 -6 -1 -12 5 -7 6 -67
13 -133 16 -318 15 -550 26 -572 26 -7 0 -19 0 -25 0 -37 0 -156 19 -178 28
-14 5 -58 12 -97 15 -40 3 -89 10 -110 16 -23 6 -77 7 -135 3 -54 -4 -105 -4
-115 -1 -10 4 -98 8 -197 8 -113 0 -183 4 -191 11 -18 15 -557 34 -580 21 -13
-8 -55 -9 -55 -1 0 3 -55 5 -122 5 -165 1 -325 12 -368 25 -19 7 -129 14 -245
16 -149 4 -221 10 -248 20 -21 8 -44 11 -50 7 -20 -12 -46 -12 -220 3 -93 8
-172 12 -175 10 -4 -2 -27 0 -52 5 -25 6 -67 12 -95 15 -27 2 -75 9 -105 14
-53 10 -131 17 -250 24 -30 1 -64 7 -75 13 -12 6 -88 15 -170 18 -83 4 -154
10 -160 13 -5 3 -51 5 -102 3 -54 -1 -93 1 -93 7 0 5 -46 13 -103 17 -56 4
-107 11 -113 16 -7 5 -74 11 -150 12 -77 1 -142 6 -145 10 -3 5 -55 10 -115
12 -60 2 -116 5 -125 5 -11 1 -22 27 -37 88 -26 107 -68 351 -78 451 -9 104
-51 145 -114 111 -11 -6 -28 -6 -42 -1 -12 4 -37 4 -55 -1 -42 -12 -209 -30
-253 -28 -19 1 -44 2 -55 1 -78 -6 -121 -7 -130 -1 -5 4 -48 4 -95 0 -47 -4
-128 -6 -180 -5 -53 1 -117 -4 -145 -11 -28 -8 -64 -13 -80 -13 -17 0 -68 -7
-115 -16 -47 -9 -115 -20 -152 -25 -38 -5 -81 -16 -97 -25 -17 -8 -40 -15 -51
-15 -12 0 -29 -4 -39 -10 -10 -5 -43 -12 -73 -15 -30 -2 -76 -14 -102 -26 -26
-11 -50 -18 -53 -15 -4 3 -11 2 -17 -3 -6 -4 -48 -20 -93 -35 -45 -15 -112
-42 -149 -61 -37 -19 -70 -32 -74 -30 -17 11 -130 -49 -183 -96 -10 -9 -42
-28 -72 -44 -30 -15 -55 -31 -55 -35 0 -4 -38 -27 -85 -51 -47 -23 -90 -48
-96 -56 -6 -7 -15 -10 -20 -7 -5 3 -21 -3 -37 -14 -15 -10 -52 -28 -82 -41
-30 -12 -66 -27 -80 -32 -29 -13 -123 -55 -163 -75 -16 -8 -33 -14 -39 -14 -5
0 -30 -13 -55 -30 -24 -16 -49 -30 -56 -30 -7 0 -36 -11 -65 -25 -29 -13 -59
-22 -67 -19 -8 4 -18 -1 -21 -10 -3 -9 -10 -16 -14 -16 -5 0 -45 -22 -90 -49
-85 -52 -216 -111 -247 -111 -19 0 -128 -42 -140 -54 -3 -3 -16 -6 -27 -6 -12
0 -41 -7 -66 -16 -25 -9 -64 -17 -88 -19 -24 -2 -50 -9 -57 -15 -8 -7 -19 -9
-25 -5 -6 4 -17 2 -24 -4 -12 -10 -78 -20 -171 -26 -22 -1 -53 -8 -70 -15 -21
-9 -86 -12 -225 -11 -207 1 -228 3 -248 15 -6 4 -44 6 -84 5 -99 -2 -276 10
-315 22 -30 9 -85 17 -179 23 -22 2 -45 5 -50 9 -5 3 -63 9 -129 12 -66 4
-128 11 -137 16 -9 5 -46 9 -82 9 -35 0 -86 4 -113 9 -100 20 -229 41 -266 43
-21 1 -40 5 -42 8 -4 6 -159 14 -280 14 -109 1 -318 -14 -357 -25 -21 -5 -44
-9 -51 -8 -6 1 -23 -1 -37 -5 -14 -3 -38 -8 -55 -11 -124 -19 -159 -26 -163
-30 -3 -3 -10 -1 -16 4 -6 5 -28 12 -49 16 -34 7 -39 5 -44 -14 -6 -23 -14
-26 -30 -10 -16 16 -65 -40 -57 -66 9 -28 45 -65 64 -65 9 0 37 -13 63 -30 26
-17 53 -30 60 -30 16 0 70 -28 127 -65 67 -45 83 -54 100 -62 8 -3 31 -18 50
-32 19 -15 47 -32 61 -39 30 -16 100 -78 99 -89 0 -5 16 -27 37 -51 43 -48
110 -123 175 -196 23 -26 76 -82 116 -123 70 -70 73 -75 59 -96 -8 -12 -27
-28 -43 -36 -16 -8 -35 -23 -42 -33 -7 -10 -20 -18 -28 -18 -8 0 -17 -6 -20
-14 -3 -8 -20 -17 -37 -20 -46 -9 -137 -47 -137 -57 0 -5 -26 -25 -57 -45 -32
-20 -78 -55 -103 -76 -61 -54 -143 -93 -266 -127 -23 -6 -58 -22 -78 -36 -20
-14 -43 -25 -50 -25 -7 0 -16 -3 -20 -8 -4 -4 -20 -7 -34 -8 -53 -2 -147 -15
-168 -24 -12 -4 -24 -17 -26 -28 -8 -28 35 -72 72 -73 17 -1 33 -2 38 -4 21
-6 50 -21 77 -39 38 -27 155 -87 155 -80 0 3 15 -6 33 -20 19 -15 42 -26 52
-26 10 0 28 -9 40 -20 15 -14 41 -22 76 -26 70 -6 198 -31 224 -44 11 -5 54
-12 95 -15 41 -2 90 -9 109 -15 23 -6 38 -6 47 1 7 6 15 6 18 1 3 -5 43 -10
88 -11 46 -1 103 -4 128 -7 25 -3 54 -4 65 -3 37 3 100 1 190 -7 50 -4 128 -6
174 -5 46 1 118 -6 160 -15 42 -9 137 -18 211 -20 74 -2 154 -6 177 -9 32 -5
52 -1 85 16 73 38 380 99 493 98 53 -1 72 5 141 40 43 23 85 41 92 41 7 0 23
6 35 14 12 8 48 19 80 25 32 6 65 15 74 20 11 6 23 5 34 -2 14 -9 30 -8 66 2
26 8 77 17 113 21 36 4 85 15 110 23 25 9 63 19 85 23 22 3 56 18 75 33 19 14
39 26 45 26 8 0 59 18 150 55 93 37 184 70 194 70 6 0 40 9 74 21 34 11 73 22
87 23 37 3 113 28 128 43 7 7 18 13 24 13 13 0 129 72 179 111 20 16 43 29 51
29 8 0 36 15 64 32 27 18 54 33 59 33 6 1 20 6 31 13 12 6 40 14 63 18 23 4
44 11 47 15 3 5 18 9 34 9 16 0 32 5 35 10 3 5 15 10 26 10 10 0 19 4 19 8 0
5 19 14 42 21 23 7 53 17 67 23 14 5 27 9 29 9 1 -1 17 6 34 15 18 9 59 24 92
34 34 10 75 25 91 34 17 9 47 16 67 16 20 0 38 3 40 8 1 4 37 18 78 31 41 13
87 30 102 38 15 7 36 14 47 16 11 2 24 6 27 10 11 11 69 8 101 -4 15 -6 64
-12 108 -14 44 -2 86 -3 94 -4 11 -1 11 -5 -2 -19 -13 -14 -14 -21 -5 -30 9
-9 7 -13 -8 -19 -10 -4 -20 -15 -22 -22 -5 -23 -56 -126 -64 -129 -5 -2 -8
-14 -8 -27 0 -28 -24 -49 -49 -42 -23 6 -41 -28 -41 -76 0 -36 31 -57 82 -57
16 0 41 -12 61 -30 19 -17 46 -30 59 -30 13 0 28 -4 33 -9 6 -5 53 -16 105
-25 57 -10 99 -22 106 -31 6 -8 20 -15 31 -15 11 0 26 -7 33 -15 7 -8 21 -15
31 -15 10 0 21 -5 24 -10 4 -6 12 -10 18 -9 7 1 26 -4 42 -11 17 -7 57 -15 90
-18 33 -3 69 -10 80 -17 25 -16 75 -29 98 -26 10 1 31 -9 48 -23 17 -14 41
-26 53 -26 13 0 36 -4 52 -9 16 -5 62 -15 102 -22 40 -7 75 -16 78 -21 3 -4
18 -8 34 -8 16 0 55 -7 87 -16 32 -10 70 -17 86 -18 15 -1 27 -4 27 -8 0 -13
85 -9 98 4 23 23 383 5 402 -20 3 -4 16 -8 30 -8 30 -2 121 -10 245 -23 50 -5
93 -7 97 -5 4 2 10 -1 13 -7 4 -5 13 -8 21 -5 7 3 66 -4 131 -14 65 -11 154
-23 198 -26 44 -3 108 -12 143 -20 35 -8 74 -14 87 -14 13 0 30 -6 37 -12 8
-8 45 -14 92 -15 46 -1 82 -7 86 -14 4 -6 23 -10 41 -8 19 1 54 -3 78 -10 30
-9 71 -10 125 -6 111 10 216 12 216 3 0 -3 15 -6 33 -6 46 0 95 -8 152 -26 28
-9 63 -16 79 -16 29 0 94 -15 131 -30 32 -14 92 -22 128 -19 6 1 38 -1 69 -5
149 -17 306 -28 443 -31 107 -2 161 -7 187 -18 25 -10 85 -17 178 -21 77 -3
145 -8 150 -11 5 -3 29 0 55 6 30 8 49 8 58 1 6 -5 48 -8 92 -6 44 2 144 -1
223 -6 120 -8 148 -8 171 5 22 11 56 14 139 11 60 -2 114 -6 118 -8 5 -3 95
-6 199 -6 105 -1 220 -6 257 -11 64 -9 163 -4 361 18 43 5 111 5 155 0 98 -11
330 -18 337 -11 5 5 172 14 225 11 14 0 30 0 35 0 156 13 439 16 457 5 7 -5
69 -9 138 -10 69 -1 170 -7 225 -14 55 -7 109 -13 120 -14 11 -2 27 -5 35 -8
37 -15 206 -22 600 -25 234 -2 456 -4 494 -4 38 0 73 4 79 10 7 7 16 7 29 0
10 -5 23 -7 28 -4 5 3 67 8 137 10 99 4 134 2 158 -10 25 -11 68 -14 216 -10
101 2 195 3 209 3 14 0 52 0 85 -1 33 0 110 1 170 2 61 2 152 2 202 1 51 -1
97 1 102 4 5 4 16 -1 24 -9 16 -15 63 -12 99 6 9 5 19 6 21 2 3 -5 56 -5 119
0 62 4 178 9 258 12 80 3 157 10 171 15 17 7 46 8 85 2 32 -5 86 -6 119 -3 33
4 80 3 105 -2 25 -4 153 -10 284 -12 140 -3 244 -9 250 -15 12 -12 61 -13 101
-1 17 4 53 5 81 2 27 -4 106 -4 175 0 72 4 129 2 136 -3 7 -6 70 -5 165 1 133
9 329 7 347 -3 3 -2 27 -1 54 4 26 4 47 3 47 -2 0 -11 24 -10 57 3 18 8 123
13 288 15 301 4 387 8 403 18 6 4 20 2 31 -3 11 -6 21 -7 23 -2 4 11 108 21
108 10 0 -8 41 -5 95 6 17 4 61 8 99 10 38 3 72 8 75 13 3 5 36 13 74 16 37 4
81 14 98 23 16 8 60 19 97 24 37 4 92 13 122 19 58 12 126 20 175 20 17 0 53
7 80 14 28 8 88 15 135 15 47 0 123 8 170 16 47 8 101 15 120 15 19 0 55 7 80
16 24 8 67 17 95 20 111 9 153 14 210 28 33 8 62 13 65 11 11 -6 265 59 284
73 6 5 21 9 33 10 12 0 37 7 55 15 56 24 102 37 153 43 28 3 64 10 80 15 32 9
59 13 165 24 109 11 258 44 298 64 20 11 80 29 132 41 67 15 99 27 108 40 6
10 22 20 34 22 33 4 58 62 75 176 12 81 13 124 3 259 -6 89 -16 176 -21 195
-6 18 -12 54 -14 81 l-4 47 59 30 c64 32 99 42 235 69 62 12 104 14 135 9 25
-4 69 -4 100 2 76 13 281 5 291 -12 7 -10 9 -10 9 1 0 10 8 12 32 7 18 -3 34
-10 38 -15 6 -9 37 -17 125 -33 33 -5 65 -14 71 -19 6 -4 37 -11 70 -15 32 -3
69 -12 81 -20 12 -7 41 -17 65 -20 24 -4 57 -15 73 -24 17 -9 44 -20 60 -23
17 -3 50 -10 75 -15 25 -5 74 -19 110 -30 36 -11 92 -28 125 -37 33 -9 75 -23
93 -31 18 -8 38 -14 45 -14 7 0 18 -5 25 -12 6 -6 20 -13 29 -14 10 -1 47 -8
83 -14 36 -6 94 -13 130 -16 36 -3 69 -9 75 -15 5 -5 23 -9 41 -9 17 0 37 -6
43 -14 7 -8 20 -12 30 -9 11 3 34 -2 53 -10 36 -15 121 -39 153 -42 11 -1 28
-5 38 -9 11 -6 24 -3 35 7 16 15 24 14 97 -9 44 -14 102 -28 128 -31 30 -4 53
-13 61 -24 7 -11 16 -16 19 -13 3 4 14 3 24 -1 10 -4 25 -9 33 -10 8 -1 42
-10 75 -19 33 -9 114 -21 179 -26 119 -10 143 -14 181 -30 26 -10 116 -28 184
-35 30 -4 60 -9 65 -13 13 -8 31 -9 156 -12 54 -1 98 -6 102 -13 6 -9 110 -13
619 -20 99 -1 140 -6 153 -16 14 -12 19 -11 35 3 10 9 35 17 57 17 163 2 310
6 314 8 8 5 41 9 145 20 55 6 119 16 143 21 24 6 47 8 52 5 5 -3 39 -1 77 5
38 6 86 13 108 15 141 17 145 17 145 4 0 -8 6 -7 18 4 10 10 29 17 43 17 13 0
33 7 43 15 11 8 29 12 42 9 42 -11 87 13 108 55 26 56 -1 121 -51 121 -13 0
-23 4 -23 9 0 5 -24 23 -52 40 -29 18 -80 52 -113 76 -33 24 -86 57 -117 73
-32 16 -54 32 -50 36 3 4 -1 4 -10 1 -12 -5 -32 5 -61 29 -24 20 -49 36 -55
36 -6 0 -24 11 -40 25 -16 13 -65 43 -108 66 -44 22 -86 47 -95 55 -8 8 -21
14 -29 14 -18 0 -101 53 -97 63 1 5 6 8 10 8 4 -1 20 5 36 13 16 9 31 13 34
10 3 -3 35 8 70 25 36 17 68 31 72 31 4 0 36 23 70 50 35 28 79 57 99 65 20 9
36 22 36 31 0 8 12 27 26 42 14 15 33 39 42 55 9 15 20 27 24 27 4 0 8 4 8 10
0 12 25 44 60 77 14 14 30 29 35 34 6 5 22 22 38 36 15 15 27 32 27 39 0 7 9
18 20 24 11 6 31 28 44 48 13 20 36 48 51 62 51 48 139 149 165 190 18 29 92
114 103 118 4 2 7 9 7 16 0 7 15 30 34 53 60 69 55 112 -11 117 -16 2 -38 8
-50 14 -29 16 -54 15 -78 -2 -21 -14 -97 -34 -155 -40 -89 -9 -151 -24 -169
-40 -11 -10 -28 -15 -45 -12 -14 3 -68 -6 -119 -18 -50 -13 -121 -24 -156 -25
-35 -1 -68 -4 -75 -8 -11 -7 -88 -19 -171 -27 -22 -2 -74 -9 -115 -16 -90 -15
-171 -22 -225 -21 -133 2 -190 -1 -200 -9 -7 -6 -15 -7 -18 -3 -10 9 -117 4
-138 -7 -12 -7 -21 -5 -29 5 -7 8 -16 12 -21 10 -4 -3 -81 -8 -171 -10 -90 -3
-181 -7 -203 -10 -22 -3 -53 -1 -70 3 -19 5 -38 4 -53 -4 -19 -9 -32 -8 -70 6
-26 10 -81 21 -122 24 -41 3 -92 10 -112 15 -20 4 -74 7 -119 5 -73 -3 -86 -1
-105 17 -20 18 -34 20 -145 20 -117 0 -216 14 -294 41 -16 6 -79 21 -140 34
-120 25 -184 43 -202 56 -6 5 -44 11 -85 14 -76 6 -103 13 -178 47 -25 11 -70
21 -100 22 -61 2 -122 17 -166 40 -16 8 -36 15 -44 15 -17 0 -135 37 -162 51
-10 5 -24 6 -33 3 -8 -3 -15 -2 -15 4 0 12 -48 31 -105 42 -127 26 -192 41
-207 50 -10 6 -33 10 -51 10 -18 0 -38 5 -45 12 -7 7 -29 13 -49 15 -20 1 -41
7 -47 13 -5 5 -19 10 -29 10 -11 0 -56 9 -101 20 -44 10 -103 21 -131 24 -27
2 -72 9 -99 15 -26 6 -59 8 -72 5 -13 -4 -30 -2 -37 4 -17 13 -104 32 -157 34
-25 0 -51 6 -59 12 -8 6 -70 12 -147 13 -73 2 -135 4 -136 4 -2 1 -70 3 -153
3 -91 1 -209 -6 -300 -17z m467 -146 c13 -4 47 -5 76 -1 29 3 55 3 57 0 3 -4
15 -5 29 -3 13 3 32 0 43 -5 10 -6 66 -12 123 -13 103 -3 160 -13 160 -29 0
-7 84 -31 119 -34 9 -1 25 -7 36 -13 11 -6 58 -15 105 -19 61 -5 89 -12 104
-26 11 -10 32 -21 46 -24 14 -3 37 -10 52 -16 15 -5 53 -14 85 -18 81 -11 174
-30 198 -41 55 -25 116 -36 157 -29 24 5 48 5 53 0 6 -4 27 -10 47 -14 21 -4
41 -12 45 -19 5 -7 22 -13 38 -14 17 -1 64 -11 105 -23 41 -11 98 -25 125 -30
139 -26 200 -41 209 -50 5 -5 17 -10 25 -10 9 0 30 -7 46 -16 17 -9 75 -22
129 -30 55 -8 104 -18 110 -22 19 -13 114 -41 277 -80 81 -19 124 -26 140 -20
13 5 48 6 79 3 111 -12 200 -28 200 -35 0 -5 47 -9 105 -9 57 -1 127 -6 155
-11 28 -5 92 -12 143 -15 50 -4 94 -10 97 -14 3 -5 19 -9 35 -9 17 0 78 -1
137 -2 58 -1 110 0 115 3 5 3 15 2 23 -3 9 -5 20 -4 28 3 18 14 161 15 170 0
9 -13 92 -22 92 -10 0 5 7 4 16 -4 12 -9 17 -10 23 -1 4 7 51 13 131 15 69 2
125 8 127 13 2 6 31 7 81 1 65 -7 116 -12 212 -17 8 0 42 4 75 9 33 6 94 16
135 22 41 7 83 16 92 20 10 6 19 5 23 -1 5 -8 12 -7 22 1 16 14 85 41 168 66
67 21 82 26 138 52 34 16 72 24 132 27 78 3 108 -5 69 -20 -8 -3 -12 -11 -8
-17 4 -8 3 -9 -4 -5 -14 9 -78 -57 -129 -134 -21 -30 -52 -69 -70 -86 -18 -17
-33 -33 -33 -35 0 -3 -27 -34 -60 -69 -33 -35 -60 -70 -60 -77 0 -7 -4 -13
-10 -13 -5 0 -10 -9 -10 -20 0 -11 -8 -24 -17 -27 -20 -8 -83 -66 -83 -77 0
-14 -30 -37 -40 -31 -5 3 -10 2 -10 -3 0 -6 -19 -21 -42 -35 -24 -14 -55 -36
-70 -50 -15 -14 -43 -30 -63 -37 -19 -6 -35 -15 -35 -20 0 -12 -94 -46 -190
-69 -97 -23 -188 -33 -310 -36 -47 -1 -92 -5 -101 -9 -9 -4 -20 -6 -25 -5 -33
6 -44 -2 -44 -32 0 -37 23 -58 63 -59 15 0 30 -7 33 -15 3 -8 22 -17 42 -21
21 -4 42 -10 47 -14 6 -4 24 -11 42 -14 17 -4 37 -13 43 -21 6 -7 29 -16 50
-20 21 -4 49 -15 61 -26 13 -11 39 -30 59 -41 19 -12 37 -25 40 -28 3 -3 30
-21 60 -40 30 -18 66 -43 80 -55 29 -25 152 -85 174 -85 9 0 16 -7 16 -15 0
-8 9 -15 20 -15 11 0 28 -7 37 -15 10 -8 47 -37 83 -65 36 -28 80 -63 98 -78
19 -15 38 -30 44 -33 16 -10 -85 -29 -182 -33 -47 -2 -121 -14 -165 -25 -44
-11 -120 -23 -170 -27 -49 -3 -103 -10 -119 -15 -15 -5 -33 -6 -40 -2 -23 15
-81 18 -261 13 -55 -1 -163 1 -240 4 -77 4 -158 6 -180 5 -22 -1 -51 -2 -65
-1 -14 1 -83 4 -155 7 -71 3 -137 9 -145 12 -8 4 -67 7 -130 8 -145 2 -390 25
-390 37 0 4 -10 8 -23 8 -13 0 -26 3 -30 6 -3 3 -27 8 -53 10 -25 2 -52 9 -60
15 -7 6 -21 9 -31 7 -16 -2 -41 5 -108 32 -39 16 -116 33 -122 27 -8 -9 -60
20 -72 40 -7 13 -20 17 -50 14 -23 -1 -56 2 -74 8 -39 13 -203 43 -232 42 -10
0 -24 3 -30 8 -5 4 -30 13 -55 20 -25 7 -54 17 -65 21 -11 5 -29 11 -40 15
-21 7 -147 22 -280 33 -51 5 -89 13 -105 25 -13 9 -32 17 -42 17 -9 0 -23 6
-30 13 -7 7 -31 14 -53 14 -22 1 -65 13 -95 26 -30 13 -95 32 -145 41 -156 28
-199 39 -220 51 -11 7 -38 15 -60 19 -22 4 -43 13 -47 19 -3 6 -17 11 -30 12
-12 2 -61 10 -108 20 -47 9 -112 21 -145 25 -70 10 -105 19 -122 32 -24 19
-81 30 -168 33 -49 2 -144 7 -210 11 -156 9 -190 7 -223 -9 -15 -8 -32 -12
-38 -10 -20 7 -197 -46 -261 -79 -35 -17 -64 -30 -66 -27 -3 2 -7 26 -11 53
-6 46 -4 50 30 82 19 19 39 34 44 34 5 0 26 17 47 38 85 86 133 150 133 178 0
8 7 17 15 20 8 4 15 17 15 29 0 13 4 26 9 30 5 3 24 42 41 87 28 73 31 91 29
172 -1 51 -8 103 -16 118 -7 15 -13 40 -13 57 0 19 -8 35 -21 44 -11 8 -28 30
-38 48 -10 19 -28 38 -39 44 -13 6 -22 19 -22 31 0 17 -8 23 -36 28 -19 4 -51
16 -70 27 -20 11 -39 17 -44 14 -9 -6 -29 3 -105 50 -22 13 -49 24 -60 25 -11
0 -31 6 -45 13 -25 13 -52 21 -170 53 -71 19 -116 39 -138 60 -7 8 -20 14 -28
14 -8 0 -14 5 -14 10 0 6 -5 10 -11 10 -12 0 -38 29 -39 42 0 4 12 5 28 4 15
-2 33 1 40 6 20 17 96 27 135 19 25 -6 44 -4 63 5 19 10 30 11 39 4 8 -6 25
-8 42 -3 15 4 35 6 45 5 9 -2 19 2 23 8 3 5 15 10 25 10 10 0 31 5 47 11 26
11 62 17 143 23 19 1 53 7 75 14 22 6 91 14 154 17 63 3 117 8 120 10 7 8 48
6 73 -4z m-17228 -110 c3 -5 50 -12 103 -16 54 -4 105 -11 114 -16 10 -5 20
-4 27 3 9 9 15 9 24 0 9 -9 15 -9 26 0 10 9 16 8 23 -3 14 -22 12 -25 -33 -61
-24 -18 -44 -36 -46 -40 -2 -5 -10 -8 -17 -8 -8 0 -18 -8 -24 -17 -5 -10 -13
-14 -17 -10 -4 4 -14 1 -23 -7 -15 -12 -98 -33 -166 -42 -31 -4 -122 -25 -185
-43 -129 -37 -272 -85 -292 -97 -7 -5 -19 -9 -27 -11 -8 -1 -26 -11 -40 -22
-14 -12 -42 -32 -61 -45 -49 -33 -83 -72 -75 -86 4 -6 1 -18 -7 -27 -24 -29
-41 -116 -44 -218 -1 -55 2 -105 8 -111 5 -7 9 -34 10 -60 0 -27 4 -55 8 -64
15 -27 40 -88 40 -94 0 -11 43 -101 56 -116 6 -8 14 -33 16 -55 5 -40 -15
-161 -31 -193 -5 -9 -15 -31 -21 -49 -12 -31 -12 -32 -72 -28 -33 2 -62 6 -65
9 -3 3 -15 1 -25 -5 -12 -7 -24 -7 -29 -2 -21 21 -319 -3 -343 -27 -6 -6 -22
-10 -36 -10 -15 0 -41 -7 -59 -16 -18 -9 -47 -18 -64 -19 -41 -4 -129 -24
-267 -60 -36 -10 -82 -19 -102 -20 -21 -2 -53 -12 -71 -24 -19 -12 -42 -21
-51 -21 -9 0 -34 -12 -55 -26 -21 -14 -49 -26 -62 -28 -13 -1 -34 -8 -47 -15
-12 -6 -28 -11 -35 -10 -6 1 -25 -3 -42 -10 -71 -31 -141 -63 -155 -72 -8 -5
-47 -25 -87 -44 -39 -20 -82 -44 -95 -54 -12 -9 -38 -23 -56 -30 -26 -11 -35
-11 -48 0 -14 11 -21 8 -49 -23 -18 -19 -66 -54 -106 -76 -132 -72 -231 -122
-243 -122 -6 0 -33 -11 -61 -25 -27 -13 -58 -25 -68 -25 -34 0 -115 -32 -133
-51 -9 -10 -23 -19 -31 -19 -7 0 -21 -4 -31 -9 -9 -5 -60 -19 -112 -31 -52
-12 -102 -24 -110 -27 -8 -4 -24 -8 -35 -9 -11 -1 -51 -10 -90 -19 -38 -9 -86
-19 -104 -22 -19 -4 -50 -17 -69 -30 -21 -14 -49 -23 -73 -23 -21 0 -44 -6
-51 -13 -26 -25 -105 -51 -188 -62 -175 -24 -184 -24 -197 -13 -9 7 -17 7 -26
0 -7 -6 -37 -12 -67 -13 -30 -1 -62 -6 -70 -10 -53 -29 -155 -37 -365 -30 -44
1 -124 0 -177 -4 -62 -4 -104 -3 -117 4 -11 6 -65 12 -121 13 -56 1 -104 6
-106 10 -3 5 -29 8 -59 8 -69 0 -208 20 -216 31 -6 10 -221 47 -314 54 -72 6
-162 23 -192 37 -11 6 -25 8 -30 5 -5 -3 -35 1 -68 10 -33 8 -69 15 -80 16
-11 0 -25 8 -32 16 -8 11 -12 12 -13 4 0 -7 -10 -13 -21 -13 -36 0 -6 24 68
56 80 33 127 63 154 98 11 14 26 23 34 20 8 -3 28 4 44 15 16 12 33 21 38 21
5 0 16 8 24 18 28 31 69 62 82 62 7 0 22 7 34 15 47 33 152 85 171 85 12 0 24
4 27 10 3 6 26 10 50 10 37 0 123 13 160 24 6 2 15 5 20 6 86 25 185 30 185 9
0 -5 9 0 20 11 15 15 28 18 63 14 25 -3 47 -1 51 4 7 12 46 4 46 -9 0 -15 73
-10 91 7 26 23 13 44 -27 44 -24 0 -34 5 -34 15 0 8 -4 15 -10 15 -5 0 -10 6
-10 14 0 32 -28 45 -85 40 -41 -3 -57 -1 -61 9 -3 8 -17 14 -32 15 -56 1 -130
19 -170 40 -24 12 -51 22 -61 22 -10 0 -24 6 -30 14 -6 8 -26 20 -44 27 -18 7
-38 18 -44 24 -7 5 -55 46 -107 90 -52 44 -95 84 -95 89 -1 5 -16 27 -34 50
-41 50 -62 87 -59 104 2 6 -4 12 -12 12 -8 0 -19 6 -23 13 -4 7 -28 28 -53 47
-25 18 -55 43 -67 54 -12 12 -37 31 -55 44 -18 12 -49 34 -68 47 -19 14 -46
30 -60 37 -14 6 -34 21 -45 32 -11 12 -37 30 -58 40 -20 11 -35 21 -33 23 2 2
21 6 42 9 22 2 48 6 60 9 76 17 168 24 180 14 8 -7 68 -13 146 -15 73 -2 171
-6 218 -9 47 -2 144 -7 215 -11 72 -3 136 -11 142 -16 7 -6 18 -8 25 -5 23 8
288 -40 288 -52 0 -9 91 -28 130 -29 14 0 39 -3 55 -6 17 -3 82 -7 146 -10 95
-4 125 -9 160 -27 42 -21 56 -22 265 -23 169 -1 225 -4 237 -14 17 -14 142
-20 154 -8 4 3 27 6 52 6 25 0 87 8 136 16 50 9 124 17 165 19 41 2 107 13
145 25 39 12 93 25 120 30 115 20 155 30 189 50 21 11 41 18 46 15 5 -3 17 -2
27 3 57 28 92 41 129 46 23 3 66 17 97 31 31 15 73 29 94 32 21 3 45 11 53 18
8 7 41 20 72 30 31 10 65 26 74 36 9 11 24 19 33 19 9 0 31 9 49 20 18 11 43
20 56 20 24 0 79 33 119 71 12 11 43 31 68 44 25 13 59 35 75 48 16 13 37 26
47 30 9 3 17 13 17 21 0 9 6 13 14 10 8 -3 25 4 37 15 13 12 28 21 33 21 6 0
22 9 36 20 14 11 33 20 44 20 10 0 32 12 50 27 31 26 86 54 118 60 24 4 108
62 108 75 0 5 6 8 14 5 7 -3 17 -2 22 2 5 4 36 16 69 25 67 21 71 22 138 59
26 15 47 25 47 22 0 -2 14 1 30 6 17 6 30 15 30 20 0 5 9 9 20 9 11 0 29 9 40
20 11 11 24 20 29 20 5 0 26 8 47 17 22 9 46 16 56 14 9 -1 19 3 23 10 6 8 9
8 15 -1 6 -9 21 -8 66 5 104 31 167 46 234 55 94 13 113 18 122 34 6 10 19 13
48 9 21 -3 61 0 87 7 26 6 134 14 238 17 105 3 192 7 194 9 7 7 20 4 25 -5z
m15993 -63 c20 -22 21 -25 5 -93 -9 -43 -16 -123 -16 -205 -1 -114 -4 -138
-18 -152 -10 -10 -24 -18 -32 -18 -19 0 -13 291 8 380 8 36 13 75 10 88 -8 29
16 29 43 0z m-15531 -80 c-4 -19 11 -103 29 -156 3 -7 5 -14 5 -17 0 -3 7 -21
15 -41 8 -20 15 -37 15 -39 0 -1 -13 -2 -30 -2 -16 0 -30 4 -30 9 0 4 -5 7
-11 6 -6 -2 -14 3 -16 10 -3 6 -1 12 4 12 5 0 5 41 0 93 -6 61 -5 101 2 120
13 32 26 36 17 5z m15654 -73 c0 -8 5 -15 11 -15 8 0 9 -14 4 -47 -4 -27 -11
-73 -14 -103 -6 -55 -23 -71 -29 -28 -5 41 -4 153 1 173 3 11 6 23 6 28 2 14
21 7 21 -8z m-295 -102 c-2 -16 -4 -40 -4 -55 -1 -16 -6 -28 -12 -28 -12 0 -6
80 7 101 9 16 13 10 9 -18z m-15600 -19 c1 -10 4 -25 8 -32 16 -25 -21 -12
-38 14 -14 22 -15 28 -4 35 20 12 34 5 34 -17z m16135 -5 c0 -5 -4 -9 -10 -9
-5 0 -10 7 -10 16 0 8 5 12 10 9 6 -3 10 -10 10 -16z m160 -27 c0 -4 -9 -13
-20 -20 -18 -11 -20 -10 -20 8 0 13 7 20 20 20 11 0 20 -3 20 -8z m-16695
-149 c117 -3 166 -10 176 -25 3 -5 89 -20 190 -33 101 -14 203 -29 226 -34 28
-5 43 -5 46 2 2 6 17 3 38 -7 26 -14 64 -19 164 -22 72 -1 207 -10 300 -19 94
-9 208 -18 255 -21 47 -2 121 -8 165 -14 44 -5 123 -12 175 -15 119 -7 258
-24 279 -33 20 -9 113 -8 128 1 6 4 24 2 40 -5 30 -13 144 -23 373 -34 80 -3
147 -10 150 -14 6 -10 232 -13 278 -4 18 4 38 2 45 -5 9 -7 24 -8 43 -2 46 13
134 8 143 -8 7 -10 21 -12 52 -8 24 3 51 1 60 -4 10 -5 78 -12 151 -15 73 -3
140 -8 148 -11 45 -16 172 -23 450 -21 74 0 146 -4 160 -10 24 -9 117 -18 300
-28 100 -6 147 -10 215 -19 28 -3 133 -8 235 -9 102 -2 219 -6 260 -10 64 -6
195 -12 440 -20 30 -1 96 -6 145 -10 148 -12 288 -14 314 -4 14 5 28 5 35 0
35 -28 151 -42 346 -42 25 0 56 -4 70 -9 14 -6 54 -12 89 -16 35 -3 72 -10 82
-15 11 -6 45 -5 96 2 43 7 119 12 168 10 112 -2 106 -2 190 -13 39 -5 138 -11
220 -14 83 -3 175 -7 205 -8 30 -1 60 -5 65 -8 22 -13 387 -17 540 -6 83 6
173 7 235 3 25 -2 100 -7 168 -11 67 -4 122 -10 122 -14 0 -4 46 -6 103 -3 57
2 126 -1 157 -7 30 -7 62 -11 70 -11 8 1 51 0 95 -2 188 -6 675 7 770 21 110
16 283 22 291 10 3 -6 13 -8 21 -5 9 4 21 2 28 -4 7 -6 23 -6 43 -1 18 5 34 6
37 1 10 -16 71 -17 107 -3 22 9 45 12 55 8 10 -5 44 -7 76 -6 42 2 57 -1 57
-11 0 -10 2 -10 9 1 7 11 25 12 84 7 50 -4 103 -2 162 9 48 8 91 12 96 9 12
-7 167 -10 174 -3 3 3 30 2 61 -2 78 -11 164 -11 504 -4 572 11 629 13 639 19
5 4 30 2 55 -4 29 -6 54 -6 70 0 14 5 87 12 163 15 347 14 398 17 403 24 3 5
48 11 100 15 52 4 122 11 155 15 164 23 318 39 331 34 8 -3 20 -1 27 5 15 11
84 22 152 24 31 0 60 7 76 19 17 12 52 20 95 24 38 3 85 8 104 10 47 7 210 16
285 15 127 0 152 1 210 11 33 6 98 10 145 10 202 -4 255 0 425 30 33 5 96 12
140 15 71 4 116 12 165 31 8 4 21 5 28 4 6 -1 12 2 12 7 0 5 22 10 49 11 27 1
76 10 109 21 33 11 67 17 75 14 8 -3 17 2 20 10 4 11 17 14 48 11 24 -3 46 0
50 6 3 6 26 13 50 15 24 2 73 10 109 18 36 8 103 22 150 31 47 9 101 20 121
24 19 4 46 4 59 -1 16 -6 28 -4 41 8 10 9 22 13 27 10 5 -3 26 4 46 15 21 11
75 25 119 30 45 6 117 17 161 25 43 7 82 11 87 9 4 -3 40 -9 79 -14 96 -12
106 -26 102 -141 -4 -99 -37 -184 -93 -239 -19 -19 -34 -38 -34 -42 0 -4 -10
-17 -22 -29 -13 -11 -23 -25 -23 -30 0 -12 -41 -60 -86 -102 -17 -15 -48 -63
-69 -105 -21 -43 -41 -80 -45 -83 -19 -16 -90 -115 -90 -125 0 -7 -10 -24 -21
-39 -12 -15 -30 -50 -40 -77 -11 -28 -28 -59 -38 -70 -13 -14 -21 -43 -26 -94
-6 -69 -5 -77 28 -147 34 -75 72 -113 97 -98 11 7 12 17 1 57 -23 87 -24 119
-5 141 9 11 23 18 30 15 11 -4 34 50 34 83 0 6 18 35 40 64 31 41 40 49 40 32
0 -11 5 -24 10 -27 6 -3 10 -17 10 -31 0 -13 4 -24 9 -24 12 0 51 -81 51 -106
0 -10 6 -31 14 -45 8 -16 10 -32 5 -40 -4 -7 -4 -18 0 -24 16 -19 34 -129 34
-201 -1 -79 -21 -124 -55 -124 -11 0 -40 -8 -66 -19 -88 -35 -152 -53 -166
-48 -8 3 -20 -1 -27 -9 -7 -8 -19 -14 -28 -13 -9 1 -23 0 -31 -3 -119 -41
-140 -45 -152 -31 -10 13 -13 13 -23 0 -6 -8 -47 -26 -92 -41 -46 -14 -98 -32
-118 -40 -42 -18 -169 -36 -280 -41 -44 -2 -120 -11 -170 -20 -49 -9 -119 -21
-154 -26 -35 -5 -68 -12 -74 -16 -6 -3 -44 -10 -86 -14 -147 -16 -186 -22
-191 -28 -7 -10 -145 -39 -220 -47 -36 -3 -70 -11 -77 -16 -7 -5 -16 -7 -21
-4 -5 3 -54 -1 -108 -10 -55 -8 -112 -15 -129 -15 -16 1 -77 -6 -135 -15 -58
-9 -132 -17 -166 -18 -33 -2 -76 -8 -95 -14 -19 -7 -43 -12 -54 -12 -36 -1
-99 -7 -165 -15 -36 -5 -69 -8 -74 -6 -5 1 -23 -3 -40 -9 -17 -6 -60 -14 -96
-16 -36 -3 -67 -9 -70 -13 -4 -7 -63 -17 -158 -27 -18 -2 -37 -6 -43 -9 -13
-9 -193 -17 -284 -14 -75 3 -124 3 -275 0 -52 -1 -135 0 -185 2 -49 2 -99 -1
-109 -6 -11 -5 -131 -11 -268 -13 -136 -1 -252 -5 -257 -8 -7 -5 -228 -6 -356
-2 -22 0 -95 -3 -162 -7 -99 -6 -124 -5 -135 7 -10 9 -20 11 -29 5 -8 -5 -44
-9 -81 -9 -50 0 -69 4 -76 15 -7 14 -12 14 -36 2 -18 -10 -43 -13 -74 -9 -26
3 -105 5 -177 4 -71 -1 -161 -2 -200 -3 -38 0 -155 4 -260 11 -433 25 -695 30
-990 16 -192 -9 -840 -13 -910 -6 -27 3 -126 3 -218 0 -93 -3 -171 -2 -173 1
-2 4 -39 7 -81 7 -43 1 -123 4 -178 7 -197 12 -530 13 -537 1 -6 -8 -10 -8
-15 0 -16 22 -81 28 -273 26 -30 -1 -121 2 -202 6 -84 4 -156 3 -168 -2 -13
-6 -29 -5 -44 2 -16 7 -89 9 -217 5 -262 -7 -297 -6 -419 2 -148 10 -451 10
-672 0 -128 -5 -196 -4 -215 3 -31 12 -152 22 -318 27 -61 2 -118 7 -128 11
-13 5 -20 1 -24 -15 -3 -11 -13 -22 -22 -22 -51 -4 -354 2 -362 7 -5 3 -16 1
-23 -5 -11 -9 -18 -8 -31 5 -13 14 -21 15 -42 5 -18 -8 -34 -9 -57 -1 -17 5
-80 8 -139 7 -73 -2 -114 1 -125 9 -11 8 -23 9 -34 3 -19 -10 -58 4 -58 21 0
4 -13 2 -29 -6 -22 -11 -35 -12 -53 -4 -50 22 -172 49 -187 40 -9 -5 -23 -4
-34 2 -10 5 -94 10 -185 10 -92 0 -180 4 -197 8 -16 5 -79 14 -140 20 -73 8
-116 17 -127 27 -13 12 -21 13 -31 5 -13 -11 -46 -10 -77 1 -13 4 -53 11 -130
21 -9 1 -20 4 -25 7 -6 3 -53 6 -105 8 -52 1 -133 9 -179 17 -46 8 -102 14
-125 14 -23 0 -46 4 -51 9 -6 6 -55 11 -110 12 -55 1 -103 4 -108 6 -4 3 -60
7 -125 10 -157 7 -163 8 -192 20 -14 6 -72 19 -130 28 -153 24 -250 46 -250
56 0 5 -22 6 -50 3 -32 -4 -50 -2 -50 4 0 6 -8 11 -17 11 -54 0 -189 13 -268
26 -49 8 -151 22 -225 31 -74 8 -164 23 -200 31 -36 8 -75 15 -88 15 -12 0
-25 4 -28 9 -3 5 -24 9 -48 9 -23 0 -46 4 -51 9 -10 9 -94 38 -136 47 -13 2
-43 9 -66 14 -24 6 -64 14 -89 20 -26 5 -52 14 -58 18 -6 5 -21 9 -33 10 -11
0 -52 10 -91 21 -38 12 -76 21 -85 21 -9 0 -23 7 -32 16 -8 9 -30 18 -48 20
-65 7 -107 16 -113 25 -3 5 -16 9 -30 9 -15 0 -24 6 -24 15 0 14 43 77 91 134
10 13 30 47 44 77 13 29 34 59 45 66 12 8 20 24 20 39 0 15 7 32 15 39 8 7 15
16 15 21 0 17 35 89 43 89 4 0 12 -12 18 -27 6 -16 18 -37 28 -48 27 -31 51
-100 51 -151 0 -34 6 -51 25 -69 26 -27 59 -33 72 -12 21 34 5 272 -23 325 -8
15 -14 37 -14 50 0 12 -8 39 -18 60 -10 20 -27 64 -37 97 -9 33 -21 64 -26 69
-5 6 -9 17 -9 27 0 9 -15 32 -32 51 -55 59 -88 101 -88 114 0 7 -5 14 -11 16
-12 4 -17 67 -23 273 -3 94 0 128 13 155 31 68 71 89 159 81 12 -1 22 3 22 8
0 12 31 20 50 13 8 -3 65 -7 125 -9z"/>
<path d="M4210 2342 c0 -15 18 -34 29 -31 7 3 3 11 -9 21 -11 10 -20 14 -20
10z"/>
<path d="M7283 2431 c-3 -12 -11 -17 -23 -14 -15 4 -18 1 -13 -18 5 -19 3 -21
-15 -17 -12 4 -24 3 -27 -2 -3 -4 -22 -4 -42 1 -58 13 -81 11 -103 -11 -14
-14 -17 -25 -11 -42 7 -19 14 -22 53 -19 50 3 59 -5 78 -64 7 -22 15 -44 19
-50 9 -16 10 -32 16 -191 4 -102 2 -161 -6 -180 -6 -16 -13 -94 -14 -174 -2
-80 -7 -174 -11 -210 -4 -36 -8 -75 -8 -87 -1 -27 -3 -27 -51 -7 -34 14 -39
14 -56 -2 -10 -9 -19 -25 -19 -35 0 -21 74 -79 99 -79 9 0 25 -6 36 -13 42
-27 144 -52 174 -42 26 8 42 55 28 81 -14 25 -27 34 -54 34 -25 0 -29 16 -10
42 7 9 14 50 15 91 2 41 7 90 12 108 6 19 10 82 10 141 0 132 2 138 43 128 37
-8 107 -4 156 10 19 5 37 7 41 5 4 -2 13 -46 21 -97 16 -111 16 -112 19 -118
5 -9 10 -54 25 -205 8 -82 17 -165 20 -182 6 -36 4 -38 -27 -22 -11 6 -35 8
-54 4 -29 -5 -34 -10 -34 -34 0 -16 9 -36 23 -48 32 -29 125 -70 177 -78 25
-4 49 -10 55 -13 5 -4 22 -5 37 -3 14 1 29 -3 33 -9 9 -14 74 -2 98 18 25 22
21 47 -10 72 -22 17 -36 20 -65 16 -27 -4 -38 -3 -39 6 -5 45 -9 70 -23 128
-8 35 -13 68 -10 71 2 4 0 18 -5 31 -6 15 -5 31 1 42 7 12 7 25 0 40 -11 24
-29 103 -37 156 -2 19 -13 89 -24 154 -19 112 -19 120 -3 132 9 8 20 14 25 14
18 0 24 4 57 33 19 17 46 49 59 71 47 81 18 191 -61 236 -21 12 -38 26 -38 31
0 5 -20 19 -45 31 -25 12 -45 26 -45 30 0 5 -11 6 -24 2 -14 -3 -29 0 -39 10
-8 9 -22 16 -29 16 -8 0 -19 5 -26 12 -8 8 -15 8 -26 -1 -10 -8 -21 -9 -33 -3
-10 5 -42 9 -72 10 -30 1 -59 7 -66 12 -7 6 -23 6 -43 1 -35 -11 -62 10 -62
47 0 27 -20 29 -27 3z m332 -244 c45 -4 97 -30 132 -66 l23 -23 -32 -44 c-32
-45 -69 -64 -123 -63 -16 1 -54 -5 -83 -13 -30 -8 -71 -12 -95 -8 -40 5 -42 7
-39 38 1 18 -5 63 -13 99 -9 36 -13 68 -11 71 7 6 157 19 181 15 11 -2 38 -5
60 -6z"/>
<path d="M8636 2263 c-3 -4 -43 -8 -89 -10 -88 -3 -132 -16 -142 -41 -7 -20
15 -42 46 -46 104 -12 126 -57 119 -246 -4 -102 -4 -161 -2 -400 1 -113 -1
-230 -5 -260 l-8 -55 -90 0 c-49 0 -95 -3 -101 -7 -17 -11 -5 -54 19 -66 20
-10 99 -30 142 -36 9 -1 20 -8 24 -15 5 -7 19 -12 32 -10 13 1 32 -2 42 -6 11
-4 28 -2 42 5 16 9 44 10 92 5 184 -18 288 -13 303 15 5 10 12 35 15 56 8 48
-16 68 -62 55 -19 -5 -57 -3 -104 5 -110 21 -111 21 -156 23 -35 1 -43 4 -43
20 0 11 7 26 15 35 15 15 30 167 26 265 -2 35 1 42 13 38 9 -4 18 -2 21 3 3 4
26 8 51 7 33 0 51 5 59 16 7 10 17 17 24 17 6 0 11 3 11 8 0 4 18 6 40 4 35
-4 40 -2 40 17 0 16 6 21 29 21 19 0 34 8 45 25 18 27 21 39 7 31 -4 -3 -16 3
-26 14 -10 11 -31 20 -46 20 -15 0 -30 4 -33 8 -2 4 -52 7 -111 7 -84 -1 -105
1 -101 12 3 7 0 13 -6 13 -7 0 -7 4 -1 13 6 7 6 54 1 126 -8 98 -8 116 6 129
13 13 21 14 48 4 18 -6 87 -14 154 -17 96 -5 123 -3 132 8 16 19 6 79 -15 91
-25 15 -116 35 -190 42 -35 4 -63 10 -63 13 0 4 -8 7 -17 8 -69 6 -156 24
-169 34 -6 5 -14 6 -18 2z"/>
<path d="M22184 2210 c-6 -6 -51 -12 -100 -13 -77 -2 -91 -5 -101 -22 -14 -23
-17 -46 -5 -43 4 1 20 -4 35 -10 16 -7 41 -12 57 -12 16 0 31 -4 34 -9 14 -22
-79 -220 -122 -260 -15 -15 -29 -31 -30 -36 -2 -6 -12 -21 -21 -34 l-18 -24
-23 34 c-13 19 -47 57 -75 85 -28 29 -62 72 -75 98 -22 41 -23 47 -8 58 29 23
28 65 -2 92 -15 13 -37 27 -49 31 -17 5 -21 2 -21 -14 0 -12 -3 -21 -8 -21 -4
0 -39 -7 -77 -15 -39 -9 -77 -17 -85 -19 -8 -2 -19 -14 -24 -28 -13 -37 19
-76 57 -72 19 2 30 -3 34 -14 4 -9 51 -61 105 -114 54 -54 114 -122 133 -150
49 -75 60 -88 77 -88 18 0 36 -37 44 -93 3 -23 12 -60 19 -82 12 -36 19 -79
42 -250 13 -91 10 -160 -7 -162 -8 -1 -36 -4 -62 -8 -58 -8 -70 -30 -33 -62
18 -16 39 -23 70 -23 24 0 47 -5 50 -10 8 -13 93 -4 160 18 28 9 55 15 62 14
13 -3 53 45 53 64 0 7 -5 25 -12 40 -11 24 -16 26 -54 20 -40 -5 -43 -4 -48
22 -3 15 -5 56 -5 92 1 43 -7 88 -23 135 -18 51 -22 78 -17 100 5 16 4 58 -1
93 -7 50 -5 81 9 145 17 79 59 179 81 192 5 3 10 17 10 30 0 13 4 27 10 30 5
3 18 23 28 43 31 64 56 102 72 107 8 3 21 17 27 32 11 23 10 29 -5 42 -28 25
-60 41 -81 41 -12 0 -18 6 -17 18 1 20 -43 29 -60 12z"/>
<path d="M9709 2047 c-40 -10 -35 -7 -43 -34 -10 -33 28 -63 79 -63 30 0 47
-6 62 -22 23 -25 54 -83 51 -95 -2 -12 12 -65 22 -85 5 -9 23 -54 41 -100 17
-45 35 -87 40 -92 5 -6 9 -20 9 -32 0 -12 7 -24 15 -28 8 -3 14 -9 14 -13 -3
-11 7 -38 42 -112 17 -35 28 -66 25 -68 -3 -3 1 -18 10 -34 8 -16 12 -29 10
-29 -3 0 4 -21 15 -46 24 -57 16 -70 -48 -80 -47 -7 -65 -27 -42 -48 28 -26
181 -60 269 -61 47 0 90 -4 97 -8 6 -4 15 -2 18 4 4 5 13 8 21 5 9 -3 15 6 20
31 6 32 4 39 -16 52 -63 42 -62 39 -36 114 13 37 34 83 45 103 12 19 21 47 21
63 0 15 4 31 8 36 5 6 17 33 27 60 29 82 67 168 89 200 22 32 23 33 25 65 0
11 7 20 14 20 7 0 30 20 50 45 36 43 40 45 92 45 55 0 75 14 75 53 0 25 -52
51 -105 53 -27 2 -66 7 -85 13 -19 5 -65 14 -103 18 -60 8 -70 7 -88 -10 -19
-18 -19 -20 -4 -37 9 -10 27 -21 41 -24 33 -9 31 -43 -4 -82 -42 -46 -70 -99
-97 -178 -12 -39 -30 -87 -38 -106 -8 -19 -23 -55 -32 -80 -9 -25 -26 -64 -36
-88 -11 -24 -17 -47 -14 -52 3 -5 -5 -14 -17 -21 -13 -6 -20 -8 -16 -4 4 5 4
13 -1 19 -24 29 -85 146 -96 186 -20 69 -40 119 -53 132 -7 7 -12 21 -12 32 0
12 -7 32 -15 46 -23 41 -35 69 -40 102 -3 17 -15 49 -25 71 -11 22 -20 42 -20
44 0 2 17 3 38 3 65 0 98 63 50 94 -40 25 -280 41 -349 23z"/>
<path d="M11302 2009 c-60 -30 -108 -90 -122 -152 -6 -28 -15 -56 -21 -63 -11
-14 -10 -51 10 -286 7 -79 18 -149 26 -165 8 -15 15 -39 15 -51 0 -53 43 -167
76 -199 17 -18 35 -40 38 -49 15 -40 84 -114 123 -132 23 -10 45 -17 47 -14 3
2 25 6 48 8 85 8 178 55 178 91 0 9 8 21 17 28 20 15 21 29 28 252 2 89 5 165
6 170 1 4 -1 17 -5 28 -19 48 -25 73 -32 115 -3 25 -11 56 -17 70 -5 14 -12
34 -14 44 -2 11 -8 25 -14 32 -6 7 -9 23 -8 36 6 46 -87 208 -118 208 -6 0
-15 6 -21 13 -6 7 -38 14 -72 15 -34 2 -73 8 -87 13 -32 12 -32 12 -81 -12z
m157 -168 c36 -40 51 -65 114 -202 42 -91 63 -229 48 -319 -5 -30 -15 -91 -22
-135 -11 -68 -17 -84 -45 -112 -40 -40 -52 -41 -90 -8 -16 14 -32 25 -35 25
-3 0 -14 19 -24 43 -9 23 -20 49 -25 57 -12 24 -37 123 -38 149 -1 14 -5 36
-11 50 -14 39 -22 281 -11 340 5 29 17 59 25 67 8 9 15 22 15 30 0 8 4 14 9
14 5 0 13 9 16 20 10 30 33 24 74 -19z"/>
<path d="M12210 1958 c-25 -5 -54 -18 -64 -28 -17 -16 -18 -22 -6 -49 10 -26
18 -31 46 -31 28 0 36 -5 44 -25 5 -14 14 -25 20 -25 6 0 9 -4 6 -8 -3 -5 -1
-49 4 -98 12 -117 14 -311 5 -454 -10 -155 3 -427 21 -443 34 -31 44 -37 58
-37 8 0 18 -5 21 -10 10 -17 50 -11 109 15 31 14 65 25 76 25 11 0 20 3 20 8
0 4 21 13 48 20 26 7 52 14 57 16 93 32 100 37 103 81 1 22 7 50 13 61 18 36
8 59 -30 62 -18 2 -40 -3 -49 -11 -19 -16 -116 -37 -172 -37 -20 0 -41 -5 -46
-10 -7 -7 -19 -8 -37 -1 -24 9 -27 17 -29 58 -4 119 -4 234 1 238 6 3 5 194 0
308 -2 33 2 52 12 58 10 6 11 11 3 17 -15 9 -26 60 -26 119 0 41 5 51 31 73
39 32 43 82 9 103 -28 17 -182 20 -248 5z"/>
<path d="M16770 1926 c-7 -10 -29 -23 -47 -31 -35 -15 -63 -38 -63 -52 0 -4
-9 -14 -20 -21 -11 -7 -20 -17 -20 -23 0 -6 -9 -24 -21 -40 -51 -72 -74 -272
-47 -412 6 -31 8 -73 5 -92 -3 -19 -2 -47 3 -62 5 -15 16 -59 26 -98 9 -38 35
-111 58 -161 37 -82 47 -95 101 -135 107 -79 163 -87 250 -38 30 17 55 34 55
38 0 3 20 33 44 65 45 60 61 103 46 121 -10 13 -6 76 9 134 6 24 9 52 6 62 -4
11 3 34 15 55 17 26 20 43 15 67 -3 18 -6 64 -5 102 1 39 -4 84 -11 100 -31
79 -86 239 -88 258 -1 4 -7 7 -15 7 -8 0 -16 15 -19 38 -5 31 -14 42 -48 62
-22 14 -48 32 -57 42 -11 10 -43 19 -87 23 -59 6 -73 4 -85 -9z m81 -159 c9
-7 19 -22 23 -34 4 -11 17 -24 29 -27 12 -3 31 -20 42 -38 98 -162 112 -288
69 -602 -7 -51 -38 -131 -54 -141 -6 -4 -23 -9 -37 -11 -15 -3 -31 -11 -35
-17 -5 -9 -10 -9 -19 0 -6 6 -17 10 -23 8 -18 -6 -67 62 -68 95 -1 16 -4 30
-8 30 -4 0 -12 26 -19 58 -7 31 -17 71 -23 87 -14 39 -29 274 -22 345 13 121
41 196 85 233 37 31 38 31 60 14z"/>
<path d="M14525 1910 c-28 -11 -52 -40 -57 -73 -8 -44 17 -51 167 -44 115 4
133 3 152 -13 12 -9 20 -19 18 -22 -2 -2 0 -29 6 -59 10 -55 26 -232 34 -389
2 -47 9 -139 14 -205 6 -66 11 -167 11 -224 0 -87 3 -106 18 -117 27 -21 73
-18 79 6 3 11 12 20 19 20 10 0 14 15 14 54 0 36 4 56 13 59 16 6 27 104 34
312 2 77 5 151 5 165 2 45 -13 224 -23 279 -5 30 -9 71 -9 92 l0 37 100 -1
c108 -1 126 6 117 45 -15 59 -27 62 -247 59 -271 -3 -416 1 -430 13 -9 9 -22
11 -35 6z"/>
<path d="M20355 1889 c-22 -27 -34 -32 -77 -34 -27 -2 -57 -9 -64 -17 -32 -32
35 -98 86 -85 26 7 47 -18 30 -38 -16 -19 -3 -55 20 -55 15 0 20 -10 25 -47 4
-27 11 -65 17 -86 5 -21 8 -48 7 -60 -1 -12 1 -45 5 -74 6 -41 4 -57 -8 -75
-17 -24 -22 -68 -7 -68 17 0 42 -32 37 -47 -3 -7 -1 -62 4 -121 5 -59 12 -132
15 -164 l5 -56 -41 -7 c-23 -4 -55 -9 -73 -11 -17 -2 -39 -5 -50 -6 -26 -4
-41 -45 -18 -52 50 -14 177 -36 188 -32 7 3 15 0 17 -7 3 -9 10 -9 30 2 15 8
38 11 54 8 16 -3 49 -1 73 4 36 8 50 7 78 -8 l33 -18 25 28 c13 15 24 34 24
41 0 24 -36 59 -61 61 -13 0 -48 5 -76 9 -48 8 -53 11 -55 35 -1 33 -3 42 -13
63 -4 10 -7 28 -6 40 0 13 1 32 1 43 1 11 -3 44 -9 74 -6 30 -7 59 -4 64 4 6
6 28 6 49 0 21 6 43 13 49 8 6 14 8 14 3 0 -5 4 -4 8 2 10 16 124 74 144 74
10 0 24 -12 32 -28 8 -15 23 -36 35 -46 12 -11 21 -26 21 -34 0 -24 20 -81 56
-157 40 -86 57 -141 49 -155 -3 -5 -2 -10 3 -10 17 0 21 -41 6 -75 -13 -32
-13 -35 12 -54 15 -12 36 -21 48 -22 11 0 30 -2 40 -4 57 -11 163 -8 183 5 25
16 36 50 26 77 -10 28 -21 31 -82 26 -52 -5 -57 -3 -68 18 -16 35 -29 77 -42
139 -17 81 -33 130 -42 130 -5 0 -6 6 -3 14 3 8 1 17 -5 21 -6 3 -11 16 -11
29 0 13 -13 42 -30 64 -16 23 -30 46 -30 52 0 5 -16 40 -36 77 -27 51 -33 72
-26 87 5 12 21 47 35 78 30 66 28 101 -10 156 -28 42 -52 61 -76 62 -10 0 -20
7 -23 15 -4 8 -11 15 -18 15 -6 0 -23 7 -38 14 -28 15 -138 28 -216 26 -24 0
-50 4 -57 10 -8 7 -23 9 -34 5 -10 -3 -22 -1 -26 5 -12 19 -43 10 -70 -21z
m337 -165 c84 -15 86 -16 83 -42 -1 -14 -8 -28 -14 -30 -6 -2 -11 -11 -11 -21
0 -20 -119 -141 -149 -153 -12 -4 -21 -12 -21 -18 0 -27 -19 -6 -24 28 -20
118 -27 187 -19 189 5 2 7 17 5 33 -4 28 -2 30 29 30 19 0 73 -7 121 -16z"/>
<path d="M13137 1888 c-6 -4 -14 -5 -18 -2 -15 9 -17 -42 -3 -63 13 -21 22
-23 99 -23 85 0 85 0 79 -24 -3 -15 1 -34 10 -49 9 -13 21 -60 26 -103 5 -44
16 -97 25 -118 10 -24 15 -59 13 -90 -1 -28 1 -56 5 -63 4 -6 10 -47 12 -90 3
-42 10 -82 15 -87 6 -6 10 -20 10 -32 0 -12 7 -35 15 -50 8 -16 15 -37 15 -47
0 -10 7 -20 15 -23 8 -4 15 -14 15 -24 0 -23 44 -77 70 -85 10 -3 23 -19 28
-34 28 -79 215 -57 314 37 37 35 69 123 70 194 1 41 6 66 19 83 11 13 19 32
19 42 0 10 5 24 11 30 35 35 89 366 68 421 -16 41 -3 60 47 68 25 3 55 14 67
24 19 16 20 20 8 43 -16 31 -50 47 -99 47 -20 0 -46 7 -56 15 -26 20 -52 19
-60 -1 -5 -12 -18 -15 -54 -14 -73 4 -97 1 -116 -13 -25 -18 -6 -62 38 -87
l33 -20 -2 -223 c-2 -199 -4 -229 -25 -292 -26 -81 -50 -138 -60 -145 -4 -3
-15 -22 -23 -42 -18 -43 -83 -82 -111 -66 -14 8 -64 94 -67 115 -3 17 -11 39
-21 58 -6 11 -13 44 -14 75 -2 30 -8 73 -15 95 -6 22 -15 67 -19 100 -5 33
-14 89 -20 125 -6 36 -13 89 -15 119 -3 30 -8 57 -10 62 -3 4 0 19 6 33 11 23
18 26 59 26 33 0 52 6 63 18 22 24 21 35 -2 56 -20 18 -19 18 -354 28 -55 2
-104 0 -110 -4z"/>
<path d="M18280 1890 c-14 -4 -41 -8 -61 -9 -20 -1 -41 -7 -47 -13 -28 -34
-10 -88 29 -88 11 0 20 -8 20 -17 1 -10 3 -36 4 -58 1 -22 3 -42 4 -45 5 -9 9
-35 21 -110 6 -41 17 -106 25 -145 17 -81 22 -166 11 -183 -4 -7 -4 -17 0 -23
9 -15 21 -179 14 -179 -10 0 -46 42 -59 68 -6 12 -18 22 -26 22 -7 0 -17 10
-21 22 -3 12 -15 31 -25 42 -11 11 -19 30 -19 43 0 13 -4 23 -9 23 -5 0 -16
15 -25 33 -9 17 -25 46 -36 62 -10 17 -19 38 -19 48 -1 9 -4 16 -8 15 -22 -7
-88 87 -108 152 -4 14 -20 41 -35 60 -14 19 -32 47 -38 62 -10 25 -9 29 18 45
50 29 35 83 -23 83 -31 0 -139 -25 -172 -40 -11 -4 -41 -16 -67 -26 -42 -14
-48 -20 -48 -44 0 -30 15 -40 61 -40 30 0 33 -6 29 -62 -1 -16 3 -28 8 -28 9
0 28 -127 24 -160 -1 -8 4 -49 12 -90 8 -42 11 -77 6 -80 -13 -8 -14 -67 -2
-135 6 -33 11 -67 12 -75 14 -162 14 -193 3 -197 -7 -3 -43 -3 -80 0 -73 5
-103 -4 -103 -31 1 -45 60 -70 175 -73 39 -1 104 -7 145 -14 64 -10 79 -10
103 4 15 8 27 22 27 29 0 8 -20 35 -45 60 -38 38 -45 52 -45 84 0 21 -7 55
-15 75 -9 20 -14 42 -11 48 2 6 1 30 -4 53 -4 23 -4 59 0 80 3 21 3 47 0 58
-4 10 -3 22 3 25 7 5 6 21 -1 50 -6 24 -9 45 -6 48 10 11 64 -55 70 -86 3 -18
9 -33 13 -33 3 0 12 -14 20 -32 8 -17 21 -39 30 -48 62 -66 81 -94 81 -115 0
-14 6 -25 14 -25 16 0 106 -78 106 -92 0 -6 12 -19 26 -30 l25 -20 -20 -22
c-27 -28 -26 -36 4 -64 23 -22 32 -24 146 -23 103 1 126 4 154 21 60 37 51
102 -17 125 -23 7 -38 9 -38 3 0 -5 -5 -8 -12 -6 -7 3 -11 28 -10 74 1 38 -3
87 -9 109 -15 54 -23 369 -17 702 0 12 6 24 14 27 16 6 18 44 4 81 -9 22 -15
26 -52 25 -24 0 -56 2 -73 4 -16 3 -41 1 -55 -4z"/>
<path d="M15758 1854 c-13 -7 -66 -15 -118 -19 -52 -4 -98 -9 -101 -11 -14 -8
-17 -44 -4 -44 8 0 21 -9 29 -21 11 -16 33 -24 84 -32 64 -10 71 -13 76 -38 3
-15 13 -29 24 -31 16 -5 21 -21 31 -119 7 -63 15 -130 18 -149 5 -31 10 -167
16 -390 1 -41 -1 -86 -5 -100 -7 -26 -11 -27 -83 -33 -45 -4 -75 -17 -75 -32
0 -30 97 -85 151 -85 16 0 29 -4 29 -9 0 -5 26 -7 58 -5 31 3 76 6 99 8 24 2
54 11 68 20 13 9 31 16 40 16 34 0 2 55 -45 77 -14 6 -37 14 -51 17 -24 5 -27
12 -31 53 -3 27 -2 57 2 67 4 10 1 49 -5 86 -6 37 -10 87 -7 111 7 79 4 182
-7 188 -7 4 -7 21 0 50 6 25 6 48 1 55 -5 6 -10 42 -11 80 -1 38 -3 72 -3 75
-1 3 2 13 6 23 4 9 1 29 -8 46 -15 29 -15 30 9 36 28 7 39 34 26 68 -9 25 -37
36 -101 44 -14 1 -39 4 -57 6 -18 2 -42 -1 -55 -8z"/>
<path d="M19282 1785 c-8 -10 -33 -15 -70 -15 -61 -1 -88 -14 -94 -45 -2 -15
2 -19 18 -18 12 1 30 -7 39 -17 10 -11 29 -20 43 -20 20 0 23 -4 19 -22 -3
-13 -11 -54 -17 -93 -6 -38 -15 -83 -20 -100 -4 -16 -11 -52 -14 -80 -11 -91
-47 -191 -76 -210 -17 -11 -26 -25 -24 -39 1 -12 3 -31 3 -44 1 -12 7 -21 14
-20 17 4 22 -97 6 -147 -7 -22 -11 -48 -10 -57 1 -10 -7 -37 -17 -61 -17 -38
-25 -45 -56 -51 -20 -4 -40 -15 -46 -26 -9 -16 -5 -22 22 -36 18 -9 39 -21 47
-27 16 -14 16 -14 121 -32 88 -16 130 -9 130 21 0 7 4 14 8 16 5 2 12 16 16
31 4 19 3 26 -4 22 -5 -3 -10 -1 -10 5 0 6 -8 10 -17 9 -47 -4 -53 0 -53 39 0
22 7 61 15 88 8 27 18 81 21 121 4 39 10 76 13 82 4 6 43 12 87 15 l80 4 13
-44 c7 -23 10 -47 7 -53 -3 -5 -2 -11 4 -13 6 -2 13 -28 16 -58 5 -53 9 -67
32 -120 21 -47 19 -79 -5 -78 -53 1 -93 -26 -93 -61 0 -17 54 -55 80 -57 8 -1
22 -4 30 -7 35 -13 148 -16 204 -6 34 6 81 20 106 32 39 19 46 27 51 60 5 33
3 40 -16 47 -35 13 -92 15 -106 3 -8 -6 -24 -14 -36 -17 -19 -6 -22 -2 -28 46
-4 31 -28 95 -56 153 -45 92 -49 106 -51 183 -2 64 -6 86 -18 92 -10 6 -16 25
-18 60 -1 28 -8 61 -16 73 -8 12 -19 47 -26 77 -12 53 -16 67 -38 121 -6 14
-13 51 -17 81 -6 46 -4 56 10 62 9 3 24 2 33 -3 11 -6 29 -4 50 4 51 22 71
100 25 100 -12 0 -25 3 -28 6 -3 3 -27 4 -54 1 -30 -2 -51 0 -55 7 -4 6 -32
11 -62 11 -30 0 -54 5 -54 10 0 15 -43 11 -58 -5z m109 -424 c3 -23 11 -47 17
-53 7 -7 12 -23 12 -36 0 -13 4 -31 9 -41 17 -30 -3 -45 -56 -42 -26 1 -51 5
-54 7 -8 4 9 115 20 129 5 5 11 27 15 48 9 50 29 43 37 -12z"/>
</g>
</svg>
