<?xml version="1.0" standalone="no"?>
<!DOCTYPE svg PUBLIC "-//W3C//DTD SVG 20010904//EN"
 "http://www.w3.org/TR/2001/REC-SVG-20010904/DTD/svg10.dtd">
<svg version="1.0" xmlns="http://www.w3.org/2000/svg"
 width="43200.000000pt" height="2880.000000pt" viewBox="0 0 43200.000000 2880.000000"
 preserveAspectRatio="xMidYMid meet">
<metadata>
Created by potrace 1.11, written by Peter Selinger 2001-2013
</metadata>
<g transform="translate(0.000000,2880.000000) scale(1.440000,-1.440000)"
fill="#000000" stroke="none">
<path d="M11862 1842 c-38 -54 -34 -77 21 -124 191 -165 193 -169 107 -181
-30 -4 -62 -8 -70 -9 -8 -1 -17 -4 -20 -9 -3 -4 -39 -9 -80 -12 -79 -6 -110
-14 -110 -27 0 -5 -6 -7 -14 -6 -20 3 -46 26 -46 42 0 8 -3 14 -7 14 -5 0 -19
16 -32 35 -12 19 -43 44 -68 56 l-45 22 -24 -29 c-13 -16 -23 -36 -24 -45 0
-9 -16 -24 -35 -33 -19 -9 -35 -23 -35 -30 0 -14 44 -76 62 -87 22 -14 -21
-36 -92 -50 -36 -6 -87 -22 -115 -34 -27 -12 -62 -25 -77 -29 -16 -3 -28 -11
-28 -16 0 -6 -13 -10 -28 -10 -23 0 -30 6 -41 38 -14 36 -106 142 -125 142 -5
0 -27 -8 -48 -17 -38 -17 -38 -18 -38 -73 0 -34 7 -68 18 -90 11 -19 21 -51
24 -70 6 -33 3 -36 -31 -52 -35 -17 -46 -23 -103 -60 -14 -10 -33 -18 -40 -18
-8 0 -23 -9 -33 -20 -10 -11 -39 -32 -64 -47 -25 -14 -48 -29 -51 -32 -3 -4
-25 -19 -49 -34 -31 -21 -46 -26 -54 -18 -6 6 -19 11 -29 11 -22 0 -68 -39
-68 -56 0 -8 -9 -18 -19 -23 -32 -18 -26 -79 12 -118 44 -47 67 -43 122 22 27
30 52 55 57 55 6 0 26 16 45 35 19 19 39 35 45 35 5 0 22 9 36 20 15 12 51 37
81 56 46 31 57 35 78 25 37 -17 62 -13 89 14 14 14 32 25 41 25 13 0 15 -8 10
-44 -7 -51 -7 -51 80 -55 59 -2 63 -1 69 23 3 14 10 23 15 20 5 -3 9 -1 9 4 0
5 16 27 35 48 42 45 43 52 10 64 -47 18 -29 41 50 65 33 10 78 26 100 35 67
29 151 51 168 44 10 -3 17 -1 17 5 0 23 18 10 23 -16 24 -115 40 -168 55 -180
25 -19 58 -26 88 -19 l27 7 -7 76 c-4 41 -14 86 -23 99 -15 23 -14 25 10 44
14 11 29 29 32 39 6 20 47 31 114 33 17 1 36 7 42 15 6 7 27 13 46 13 19 0 47
7 62 15 16 8 31 12 34 9 3 -3 32 4 64 16 71 26 124 22 163 -11 42 -36 67 -49
95 -49 14 0 36 -10 48 -23 29 -28 73 -57 88 -57 6 0 24 11 39 24 l28 23 -18
41 c-10 22 -39 61 -65 87 -26 25 -44 49 -41 52 4 4 26 8 49 9 23 1 87 11 142
23 71 16 134 22 220 22 66 1 124 4 130 7 5 4 34 12 64 17 70 13 97 44 80 93
-8 22 -18 32 -32 33 -35 1 -288 7 -327 8 -101 2 -260 -17 -260 -30 0 -4 -17
-11 -37 -14 -21 -3 -45 -10 -54 -15 -13 -7 -135 -15 -176 -11 -7 1 -27 17 -44
36 -18 19 -38 35 -45 35 -24 0 -110 80 -142 133 -17 28 -32 36 -82 42 -23 3
-34 -2 -48 -23z"/>
<path d="M90 1694 c0 -117 1 -126 20 -131 19 -5 19 -5 -1 -22 -18 -14 -20 -26
-17 -96 l3 -80 65 3 c56 3 68 1 84 -17 11 -12 27 -21 37 -21 28 0 89 32 89 47
0 7 3 13 8 14 4 0 25 2 47 5 66 7 246 24 315 29 131 10 142 13 171 41 61 58
28 110 -82 131 -98 19 -192 19 -373 0 -83 -8 -156 -13 -162 -10 -7 3 -23 26
-36 51 -12 26 -33 59 -48 73 -46 50 -80 91 -80 100 0 5 -9 9 -20 9 -19 0 -20
-7 -20 -126z"/>
<path d="M21184 1767 c-11 -12 -26 -37 -32 -55 -11 -32 -10 -35 30 -71 42 -39
43 -46 13 -87 -14 -19 -13 -23 15 -54 17 -19 29 -39 27 -44 -2 -6 -32 -14 -68
-17 -35 -3 -74 -11 -86 -17 -12 -7 -40 -12 -62 -12 -23 0 -41 -4 -41 -10 0
-21 -40 -9 -57 18 -10 15 -23 31 -30 35 -7 4 -13 17 -13 27 0 11 -4 20 -8 20
-5 0 -19 10 -32 23 -14 12 -28 21 -32 19 -5 -1 -8 5 -8 13 0 14 -37 35 -61 35
-5 0 -21 -11 -34 -25 -36 -36 -32 -82 16 -177 14 -27 11 -38 -9 -38 -10 0 -23
-5 -29 -11 -6 -6 -22 -12 -35 -13 -36 -4 -128 -39 -128 -48 0 -4 -10 -8 -22
-8 -13 0 -36 -7 -52 -15 -15 -8 -39 -15 -51 -15 -13 0 -25 -7 -29 -15 -10 -28
-35 -15 -98 49 -75 76 -108 116 -108 133 0 6 -9 18 -21 27 -19 13 -25 12 -60
-3 -22 -10 -46 -27 -54 -37 -15 -21 -10 -72 9 -89 6 -5 16 -21 23 -35 6 -14
20 -45 32 -70 12 -27 17 -48 12 -53 -11 -11 -94 -35 -156 -46 -22 -4 -49 -12
-60 -18 -42 -23 -94 -43 -113 -43 -11 0 -25 -6 -31 -14 -7 -8 -24 -17 -39 -21
-15 -4 -34 -12 -42 -20 -20 -17 -112 -65 -125 -65 -6 0 -32 -21 -58 -47 -55
-54 -59 -80 -21 -130 31 -41 62 -41 124 0 23 15 47 27 54 27 17 0 78 30 95 47
8 9 11 25 7 44 -5 26 -2 31 22 39 15 6 35 15 44 20 10 6 27 10 39 10 11 0 34
9 50 21 16 11 33 17 39 14 5 -3 10 -2 10 4 0 10 15 16 70 26 22 4 30 3 22 -3
-18 -12 -42 -60 -42 -84 0 -31 38 -78 63 -77 12 0 36 9 52 20 17 11 38 22 47
25 10 4 16 10 13 14 -5 8 54 40 73 40 6 0 23 -19 39 -42 26 -39 33 -43 75 -46
45 -3 46 -2 72 43 27 45 27 47 12 97 -15 53 -9 78 19 78 7 0 18 7 25 15 7 8
23 15 36 15 12 0 26 5 29 10 3 6 16 10 29 10 12 0 26 4 32 9 14 14 131 51 159
51 17 0 28 -7 34 -22 5 -13 18 -32 30 -42 11 -11 21 -29 21 -41 0 -14 14 -33
36 -50 43 -33 77 -28 96 15 13 30 35 39 54 20 6 -6 18 -4 33 6 19 14 22 23 18
58 -3 22 -8 54 -12 69 -6 22 -4 28 6 26 8 -1 40 5 72 15 32 10 73 20 90 22 18
2 56 8 85 12 50 8 55 7 69 -15 12 -17 25 -23 53 -23 55 0 100 19 110 46 10 24
11 25 110 28 14 1 30 4 35 8 6 3 48 6 94 7 46 0 89 5 95 10 6 4 44 9 85 10 41
1 78 4 83 7 4 3 23 6 43 8 40 3 105 62 105 95 0 25 -59 91 -75 84 -8 -2 -22 0
-32 5 -28 15 -209 23 -277 12 -34 -5 -106 -12 -161 -14 -55 -2 -111 -6 -125
-9 -65 -15 -90 -12 -90 11 0 9 -9 23 -20 30 -11 7 -20 18 -20 25 0 8 -11 24
-25 37 -14 13 -25 28 -25 35 0 6 -13 25 -30 43 -16 18 -34 41 -40 51 -5 10
-20 21 -32 23 -13 3 -30 8 -38 12 -9 3 -24 -4 -36 -17z"/>
<path d="M8518 1765 c-3 -3 -33 -6 -67 -6 -33 -1 -64 -5 -67 -10 -3 -5 -23 -9
-45 -9 -21 0 -39 -4 -39 -9 0 -5 -25 -13 -56 -17 -30 -3 -58 -12 -60 -19 -3
-8 -32 -12 -85 -13 -44 -1 -84 -4 -89 -7 -5 -3 -9 -93 -9 -200 0 -167 2 -193
14 -188 18 6 30 47 20 70 -4 10 -8 45 -8 77 l-2 60 65 13 c36 7 99 20 140 28
77 16 157 24 286 29 41 1 77 5 80 9 4 4 22 7 40 7 17 0 41 8 52 18 20 17 20
18 4 82 -9 36 -21 71 -25 78 -8 12 -138 18 -149 7z"/>
<path d="M4483 1683 c-12 -2 -27 -11 -33 -19 -7 -8 -19 -14 -27 -14 -8 0 -28
-8 -43 -17 -27 -16 -28 -18 -15 -42 7 -14 16 -33 18 -42 3 -9 17 -19 31 -23
48 -12 129 -76 96 -76 -6 0 -10 5 -10 10 0 6 -5 10 -11 10 -5 0 -8 -4 -5 -9 3
-5 -31 -14 -77 -21 -45 -6 -86 -15 -92 -20 -5 -4 -31 -11 -57 -14 -26 -4 -50
-11 -53 -17 -10 -15 -58 1 -82 27 -12 13 -27 24 -32 24 -6 0 -24 13 -40 29
-35 34 -60 44 -93 36 -51 -13 -56 -101 -8 -152 16 -18 17 -23 5 -33 -7 -6 -30
-12 -49 -13 -20 -1 -36 -5 -36 -8 0 -4 -12 -9 -27 -12 -70 -14 -131 -33 -146
-45 -21 -18 -47 -12 -61 13 -6 11 -14 22 -17 25 -3 3 -12 23 -21 45 -15 38
-18 40 -58 40 -28 0 -54 -8 -76 -23 -39 -26 -38 -23 -22 -77 6 -22 11 -43 10
-48 -1 -4 11 -10 28 -13 30 -7 43 -34 15 -34 -8 0 -15 -4 -15 -10 0 -5 -9 -10
-21 -10 -12 0 -38 -13 -58 -29 -20 -15 -48 -31 -63 -35 -15 -3 -33 -13 -42
-21 -8 -8 -21 -15 -28 -15 -7 0 -25 -8 -38 -17 -41 -29 -112 -63 -132 -63 -10
0 -18 -7 -18 -15 0 -9 -9 -15 -25 -15 -16 0 -25 -6 -25 -15 0 -8 -7 -15 -15
-15 -8 0 -15 -4 -15 -8 0 -5 -20 -23 -44 -41 -29 -22 -50 -48 -61 -77 -16 -41
-15 -45 2 -68 10 -14 24 -28 31 -31 26 -10 60 7 72 35 7 16 22 36 33 44 118
87 162 116 176 116 9 0 22 -13 29 -29 7 -16 20 -32 28 -35 20 -8 74 24 74 44
1 16 53 76 86 98 10 7 35 19 54 27 19 9 43 20 52 25 27 15 61 13 55 -4 -3 -8
3 -30 14 -50 10 -19 22 -55 25 -78 12 -73 71 -112 113 -74 26 24 26 26 -5 124
-38 123 -36 127 71 169 50 19 108 37 130 39 22 3 50 12 61 19 32 21 87 2 116
-38 12 -18 25 -34 29 -37 4 -3 8 -13 10 -23 2 -10 16 -26 31 -35 26 -15 27
-15 55 15 20 21 38 30 61 31 68 2 75 39 25 130 -20 35 -22 44 -9 39 9 -4 16
-3 16 2 0 8 33 23 55 25 6 0 27 6 49 13 21 7 51 13 67 13 15 0 30 4 33 9 4 5
29 12 57 16 44 6 53 4 70 -14 11 -12 17 -21 14 -21 -3 0 1 -13 10 -30 9 -16
22 -30 30 -30 8 0 15 -4 15 -10 0 -5 8 -10 18 -10 9 0 22 -10 27 -22 14 -33
57 -51 89 -38 21 7 26 16 26 42 0 49 -18 103 -40 123 -38 35 -20 81 28 68 11
-2 23 0 27 7 5 8 11 8 22 -1 11 -10 16 -10 22 -1 6 10 38 14 203 25 35 2 37 0
40 -28 3 -27 7 -31 43 -36 22 -3 49 -10 61 -17 16 -8 25 -8 40 2 11 8 38 19
59 25 46 12 80 55 64 83 -7 12 -4 17 14 22 21 5 47 42 47 65 0 4 -10 20 -23
35 -20 23 -31 27 -88 28 -114 3 -284 -4 -300 -12 -8 -5 -44 -11 -80 -15 -79
-7 -160 -19 -259 -38 -41 -8 -80 -13 -85 -10 -6 2 -16 17 -23 33 -7 16 -22 32
-33 35 -11 4 -30 28 -44 54 -21 42 -51 65 -75 60 -3 -1 -15 -4 -27 -6z"/>
<path d="M26185 1670 c-10 -11 -38 -26 -63 -32 -24 -6 -46 -17 -49 -25 -6 -14
61 -103 78 -103 15 0 89 -49 89 -59 0 -10 -41 -23 -88 -27 -19 -2 -39 -7 -45
-12 -7 -6 -32 -13 -57 -17 -51 -8 -111 -25 -124 -37 -21 -17 -75 -8 -103 18
-51 48 -149 109 -174 109 -8 0 -27 -8 -42 -18 -36 -24 -37 -79 -2 -131 14 -21
22 -42 19 -48 -5 -7 -1 -9 9 -5 10 3 17 2 17 -3 0 -6 -7 -11 -15 -11 -28 -3
-33 -4 -41 -11 -4 -5 -17 -8 -30 -8 -12 0 -35 -7 -50 -15 -16 -8 -39 -15 -51
-15 -12 0 -39 -7 -60 -16 -21 -9 -53 -22 -70 -30 -33 -14 -63 -10 -63 8 0 5
-6 15 -12 23 -36 37 -48 58 -48 80 0 29 -7 30 -82 14 -65 -14 -103 -47 -93
-81 12 -39 46 -88 61 -88 8 0 14 -4 14 -9 0 -5 8 -11 18 -14 12 -2 4 -9 -25
-21 -24 -10 -43 -22 -43 -26 0 -5 -13 -11 -30 -15 -16 -4 -33 -12 -37 -19 -5
-7 -24 -18 -43 -26 -19 -8 -38 -18 -42 -24 -3 -5 -19 -11 -35 -14 -15 -2 -29
-7 -31 -13 -2 -5 -12 -9 -22 -9 -10 0 -20 -9 -23 -20 -3 -13 -11 -18 -20 -14
-8 3 -17 -2 -20 -10 -4 -9 -16 -16 -28 -16 -12 0 -38 -13 -59 -30 -21 -16 -44
-30 -52 -30 -8 0 -33 -18 -56 -40 -22 -22 -45 -40 -50 -40 -22 0 -92 -104 -92
-137 0 -17 53 -73 69 -73 29 0 63 26 68 52 4 20 19 36 49 54 24 14 44 32 44
39 0 7 16 19 35 25 19 6 35 15 35 19 0 11 52 35 70 32 8 -2 24 -13 35 -26 33
-39 90 -37 107 3 16 38 156 172 180 172 11 0 32 7 48 16 37 22 55 14 68 -33 6
-21 18 -65 27 -98 32 -114 89 -156 135 -98 25 32 21 71 -17 173 -31 83 -28
112 12 120 17 4 39 11 50 17 44 23 168 67 223 78 17 4 32 10 32 15 0 12 60 6
68 -6 4 -6 17 -16 30 -23 12 -6 22 -16 22 -22 0 -6 21 -35 46 -65 l46 -53 26
17 c36 22 52 38 52 51 0 6 7 8 15 5 8 -4 13 -10 10 -14 -3 -5 7 -8 22 -7 59 4
83 69 43 120 -11 14 -20 30 -20 36 0 6 -9 20 -21 32 -20 20 -20 21 -2 34 10 7
21 11 24 9 4 -2 42 6 85 18 44 11 93 22 109 22 17 1 44 11 62 24 32 22 113 32
113 13 0 -22 64 -103 89 -112 28 -11 61 -42 61 -58 0 -11 51 -41 69 -41 22 0
51 45 51 77 0 46 -20 84 -90 170 -15 19 -12 25 10 18 11 -3 20 -3 20 2 0 8
138 34 182 34 10 0 20 4 23 10 4 5 17 9 31 9 16 0 23 -4 18 -11 -5 -8 -1 -8
14 0 11 6 46 11 77 11 53 0 55 -1 50 -23 -9 -36 13 -47 104 -51 125 -7 189 19
194 79 1 15 16 41 35 60 37 38 40 65 12 106 -19 25 -26 28 -75 28 -29 -1 -58
2 -64 5 -5 3 -21 1 -35 -5 -19 -9 -29 -9 -40 0 -11 9 -24 10 -55 1 -30 -8 -45
-8 -60 2 -15 9 -23 9 -34 0 -8 -7 -43 -15 -78 -18 -35 -4 -69 -11 -76 -16 -7
-6 -19 -5 -31 1 -15 8 -23 7 -32 -4 -7 -8 -17 -12 -22 -9 -5 3 -18 -2 -28 -11
-11 -10 -25 -15 -32 -12 -12 4 -107 -10 -200 -29 -41 -9 -71 2 -92 35 -11 16
-32 36 -48 45 -18 11 -31 30 -38 55 -8 31 -17 42 -42 50 -47 17 -83 13 -103
-9z"/>
<path d="M2577 1612 c-28 -31 -21 -75 18 -118 19 -22 35 -43 35 -47 0 -4 11
-18 24 -30 14 -13 28 -35 31 -49 6 -23 1 -29 -38 -53 -25 -14 -62 -29 -81 -32
-20 -3 -41 -12 -47 -19 -6 -8 -19 -14 -28 -14 -9 0 -21 -4 -26 -9 -10 -9 -40
-16 -112 -28 -24 -4 -33 -1 -33 9 0 21 -65 149 -72 142 -4 -3 -13 7 -22 24
-21 40 -50 46 -82 17 -23 -21 -24 -28 -18 -77 4 -29 15 -65 25 -79 24 -35 16
-85 -15 -93 -11 -2 -81 -8 -154 -12 -73 -4 -135 -11 -138 -15 -16 -26 -24 1
-26 88 l-3 97 -33 8 c-49 13 -77 -9 -93 -72 -7 -27 -16 -50 -21 -50 -4 0 -8
-7 -8 -16 0 -11 -5 -14 -17 -10 -9 4 -20 1 -24 -5 -18 -29 -79 -38 -207 -28
-69 5 -128 12 -130 14 -3 3 -8 22 -11 42 -6 34 -10 39 -44 47 -33 9 -40 7 -65
-16 -23 -22 -30 -24 -52 -14 -14 6 -37 21 -50 33 -31 30 -49 29 -83 -2 -30
-29 -36 -75 -12 -95 8 -7 15 -18 15 -25 0 -7 7 -16 16 -19 8 -3 13 -10 9 -16
-3 -5 -15 -6 -28 -1 -12 5 -53 9 -92 9 -72 0 -134 9 -265 38 -81 17 -138 24
-156 17 -7 -2 -15 -18 -18 -35 -8 -43 15 -75 59 -84 19 -3 38 -10 41 -15 3 -5
16 -9 29 -9 13 0 27 -4 30 -10 3 -5 16 -9 28 -9 24 1 130 -7 276 -21 52 -5 98
-7 103 -4 24 15 2 -27 -37 -71 -52 -57 -55 -79 -20 -118 29 -31 46 -33 79 -12
18 12 29 13 48 5 40 -19 76 2 99 57 11 27 25 57 30 69 6 11 9 29 7 40 -3 18 6
19 165 21 186 2 194 -1 161 -56 -15 -25 -16 -34 -6 -56 24 -52 92 -54 118 -2
11 20 18 26 24 18 10 -17 51 -10 61 9 4 8 16 33 26 54 11 22 28 41 39 43 10 1
64 9 119 17 55 8 138 21 185 29 76 12 86 12 97 -2 7 -9 12 -23 11 -31 -2 -8 1
-21 5 -27 4 -7 3 -22 -3 -34 -16 -30 21 -69 66 -69 39 0 57 20 49 53 -4 14 -2
28 4 31 5 4 8 13 4 21 -3 9 0 21 6 29 6 8 8 27 5 45 -6 28 -4 32 12 30 19 -2
63 12 96 31 10 6 30 10 46 10 15 0 37 7 48 15 10 8 34 15 52 15 18 0 49 7 70
16 32 14 88 25 129 27 7 0 10 4 7 9 -3 4 9 8 25 8 17 0 31 -4 31 -9 0 -5 8
-12 18 -15 9 -3 41 -28 69 -54 29 -27 68 -57 87 -67 l35 -19 20 25 c11 13 20
35 21 48 0 27 -30 101 -41 101 -4 0 -10 11 -13 24 -3 14 -17 28 -33 34 -20 8
-23 11 -9 11 17 1 90 31 126 52 8 5 25 13 38 19 12 5 22 14 22 20 0 5 10 10
23 10 13 0 28 5 35 12 7 7 12 8 12 2 0 -14 84 -2 104 15 8 7 20 10 26 6 20
-12 60 23 60 53 0 50 -11 69 -53 93 -46 25 -138 32 -145 11 -6 -18 -58 -43
-76 -36 -10 4 -16 1 -16 -7 -1 -11 -3 -11 -13 1 -17 21 -59 45 -77 44 -8 0
-32 -8 -54 -17 -21 -9 -40 -17 -42 -17 -2 0 -34 -20 -70 -46 -69 -47 -124 -67
-124 -44 0 6 -14 26 -30 43 -64 66 -70 75 -70 96 0 12 -6 21 -15 21 -8 0 -15
7 -15 15 0 23 -72 20 -93 -3z"/>
<path d="M17493 1619 c-7 -7 -64 -13 -140 -15 -204 -6 -384 -26 -408 -44 -5
-5 -28 -11 -49 -14 -54 -9 -89 -18 -101 -26 -5 -3 -29 -8 -52 -9 -33 -2 -43 1
-43 13 0 22 -89 85 -120 86 -14 0 -38 -13 -57 -32 -27 -27 -33 -29 -39 -15 -5
13 -20 17 -69 17 -75 0 -99 -16 -89 -58 9 -36 13 -42 28 -42 8 0 21 -11 30
-25 9 -14 20 -24 25 -22 18 5 13 -18 -7 -28 -11 -6 -26 -16 -33 -22 -8 -6 -31
-14 -52 -18 -20 -4 -40 -11 -43 -16 -3 -5 -12 -9 -20 -9 -8 0 -36 -10 -62 -21
-26 -12 -49 -21 -51 -20 -2 2 -8 -3 -13 -11 -7 -10 -12 -8 -26 11 -9 13 -43
51 -74 84 l-56 61 -36 -19 c-52 -28 -63 -62 -37 -119 19 -44 19 -46 2 -46 -30
0 -46 -26 -33 -55 9 -19 8 -26 -5 -36 -20 -17 -52 -35 -83 -49 -14 -5 -32 -14
-40 -19 -9 -5 -30 -12 -47 -15 -17 -4 -39 -16 -49 -27 -25 -27 -37 -24 -75 21
-54 64 -130 75 -164 24 -15 -23 -14 -28 11 -79 15 -30 31 -55 36 -55 4 0 8 -7
8 -16 0 -8 -4 -12 -10 -9 -5 3 -15 1 -22 -5 -43 -35 -123 -81 -167 -96 -28 -9
-51 -20 -51 -24 0 -4 -16 -31 -35 -59 -41 -61 -36 -86 24 -114 51 -23 66 -22
86 10 26 39 134 143 149 143 7 0 25 11 40 25 31 29 36 30 36 10 0 -8 5 -15 10
-15 6 0 10 -6 10 -14 0 -20 37 -63 59 -69 11 -2 32 2 48 10 26 13 29 13 45 -6
9 -12 18 -25 20 -31 2 -5 19 -16 40 -24 33 -14 38 -14 57 2 11 9 21 28 22 42
3 27 -32 102 -63 137 -26 28 -20 55 17 72 17 8 31 18 33 22 2 4 38 24 80 45
42 20 85 43 94 51 21 19 35 11 43 -27 4 -17 17 -43 30 -58 20 -24 30 -27 60
-24 29 3 40 11 49 32 l12 28 24 -19 c31 -23 44 -24 75 -3 30 20 31 33 6 104
-19 54 -19 54 2 69 11 8 28 15 36 16 9 0 21 3 26 6 6 3 30 11 55 18 25 7 54
17 65 21 42 18 91 29 115 26 14 -1 34 4 45 11 42 28 145 9 145 -26 0 -20 45
-51 96 -66 51 -15 58 -15 80 -1 39 26 46 50 28 90 -9 19 -27 40 -40 47 -13 7
-24 16 -24 19 0 14 54 29 141 40 47 5 117 19 155 29 64 18 148 28 283 36 36 3
57 9 63 19 5 9 14 16 21 16 13 0 57 48 57 63 0 26 -44 78 -71 84 -16 3 -32 10
-35 14 -7 12 -18 11 -31 -2z"/>
<path d="M24055 1574 c-14 -13 -25 -29 -25 -36 0 -23 44 -108 57 -108 6 0 17
-13 24 -29 8 -17 24 -36 37 -43 26 -13 59 -68 42 -68 -5 0 -10 -6 -10 -12 0
-17 -104 -70 -195 -100 -22 -7 -53 -21 -70 -30 -16 -10 -38 -18 -47 -18 -10 0
-18 -4 -18 -10 0 -5 -18 -10 -40 -10 -33 0 -40 3 -40 20 0 11 -4 20 -10 20 -5
0 -10 9 -10 19 0 11 -4 23 -10 26 -5 3 -10 17 -10 31 0 13 -4 24 -8 24 -5 0
-15 11 -22 25 -7 13 -16 22 -20 20 -4 -2 -12 7 -18 20 -9 20 -19 25 -50 25
-61 0 -90 -48 -61 -102 6 -11 12 -34 15 -51 2 -17 8 -33 14 -37 9 -6 27 -99
19 -100 -2 -1 -47 -5 -99 -10 -52 -5 -133 -15 -179 -23 -47 -8 -90 -13 -96
-10 -14 5 -15 15 -15 113 -1 81 -4 91 -37 109 -57 30 -110 -11 -121 -92 -3
-23 -11 -48 -19 -55 -7 -8 -10 -19 -6 -25 3 -7 -3 -4 -14 6 -20 18 -21 17 -41
-7 -11 -15 -27 -26 -36 -26 -9 0 -16 -7 -16 -15 0 -11 -11 -14 -50 -11 -28 2
-57 9 -65 16 -12 10 -18 10 -29 1 -9 -8 -16 -8 -20 -2 -4 6 -13 8 -22 4 -8 -3
-43 -2 -78 2 -52 5 -65 10 -74 29 -6 14 -6 29 -1 38 7 13 2 22 -19 37 -37 26
-78 21 -108 -14 l-24 -28 -39 18 c-22 10 -42 24 -45 31 -8 20 -69 17 -93 -3
-43 -38 -45 -56 -13 -119 28 -55 31 -82 8 -68 -6 4 -38 8 -72 9 -131 5 -242
18 -270 31 -16 8 -45 14 -65 14 -20 0 -49 7 -65 15 -36 19 -75 19 -82 1 -3 -8
-12 -12 -19 -10 -21 9 -42 -70 -25 -91 21 -25 61 -42 115 -50 28 -4 57 -13 65
-19 9 -8 64 -13 145 -15 72 -1 168 -7 213 -12 46 -5 92 -7 102 -4 38 12 30
-17 -18 -64 -28 -27 -55 -66 -62 -85 -11 -33 -10 -38 12 -56 32 -27 66 -35
100 -22 16 6 36 8 44 5 8 -3 30 -2 49 1 26 5 39 15 50 39 9 18 27 52 41 77 21
36 23 48 15 68 -14 30 -14 31 7 30 9 0 101 2 205 6 185 6 187 6 187 -15 0 -11
-9 -32 -20 -46 -11 -14 -20 -32 -20 -41 0 -19 66 -82 86 -82 20 0 75 61 67 73
-4 6 0 8 10 4 10 -4 23 -9 30 -12 20 -9 66 43 73 81 6 34 25 51 67 60 66 14
137 24 179 24 26 0 49 4 52 9 5 8 83 19 165 24 30 2 35 -2 47 -33 7 -19 13
-55 13 -79 1 -56 29 -83 79 -77 44 5 53 20 46 73 -4 28 -1 56 9 82 11 25 12
42 6 48 -22 22 38 52 85 44 5 -1 16 4 25 12 21 18 69 34 104 36 15 0 37 7 50
15 12 8 46 18 75 22 28 3 52 10 52 14 0 4 19 13 43 20 23 7 63 19 89 28 l47
15 56 -44 c31 -24 63 -49 71 -55 8 -6 14 -16 14 -21 0 -6 11 -18 25 -27 14 -9
25 -13 25 -10 0 4 8 -1 19 -10 51 -46 124 43 81 99 -4 6 -10 23 -14 38 -4 16
-16 38 -26 50 -11 11 -20 27 -20 34 0 7 -9 13 -20 13 -35 0 -22 19 21 30 22 6
48 20 57 31 9 10 23 19 30 19 15 0 54 20 111 58 27 17 49 23 91 22 30 -1 77 4
103 10 40 10 51 18 64 46 14 28 14 38 4 57 -23 43 -61 77 -86 77 -13 0 -25 4
-27 10 -1 5 -22 11 -45 12 -32 1 -47 -4 -60 -20 -37 -43 -143 -82 -130 -48 7
17 -42 39 -83 38 -30 -1 -97 -29 -145 -62 -16 -11 -36 -20 -44 -20 -7 0 -22
-11 -33 -25 -11 -14 -24 -25 -30 -25 -6 0 -19 -7 -29 -16 -17 -15 -21 -13 -66
34 -64 67 -93 107 -93 125 0 21 -48 53 -88 59 -24 3 -39 -1 -57 -18z"/>
<path d="M28491 1591 c-9 -6 -11 -18 -7 -35 6 -23 9 -25 27 -13 11 7 18 20 17
31 -3 23 -17 29 -37 17z"/>
<path d="M1297 1563 c-13 -12 -7 -23 13 -23 11 0 20 7 20 15 0 15 -21 21 -33
8z"/>
<path d="M29709 1564 c-10 -3 -20 -13 -23 -22 -20 -54 -112 -149 -151 -154
-11 -2 -20 -9 -20 -17 0 -8 -14 -18 -31 -23 -17 -4 -37 -15 -44 -23 -7 -8 -23
-15 -36 -15 -13 0 -27 -6 -31 -13 -10 -17 -94 -57 -136 -66 -27 -5 -37 -1 -62
25 -16 17 -30 35 -30 40 0 5 -25 10 -56 12 -54 3 -58 5 -85 43 -47 68 -104 87
-141 47 -37 -41 -36 -59 5 -103 80 -86 92 -106 92 -151 0 -42 -16 -67 -29 -45
-5 8 -13 5 -27 -7 -11 -10 -35 -22 -53 -25 -19 -4 -41 -12 -48 -19 -28 -23
-53 -16 -67 17 -8 17 -25 50 -40 73 -14 23 -26 48 -26 55 0 7 -10 23 -23 35
-19 18 -35 22 -83 21 -91 -2 -108 -9 -112 -48 -5 -44 16 -91 39 -91 19 0 43
-33 32 -43 -3 -4 4 -15 17 -25 17 -14 21 -25 17 -43 -5 -19 -19 -29 -64 -44
-32 -10 -62 -22 -68 -26 -5 -4 -32 -10 -60 -13 -75 -9 -88 -11 -111 -19 -12
-4 -50 -12 -85 -17 -35 -5 -73 -10 -84 -12 -16 -2 -19 2 -17 20 1 13 -9 43
-23 66 -14 24 -23 50 -19 59 8 21 -52 77 -82 77 -13 0 -24 -4 -24 -10 0 -5 -9
-10 -19 -10 -26 0 -30 -17 -24 -104 4 -56 2 -76 -7 -76 -8 0 -11 -11 -8 -30 4
-26 1 -31 -21 -36 -14 -3 -35 -10 -46 -15 -11 -5 -60 -13 -110 -19 -81 -10
-91 -10 -102 7 -8 9 -12 32 -11 49 2 37 -32 73 -69 74 -32 0 -73 -54 -73 -98
-1 -39 -28 -81 -67 -101 -12 -6 -53 -13 -90 -15 -37 -2 -76 -7 -86 -11 -10 -4
-20 -5 -24 -2 -3 3 -22 0 -42 -7 -20 -8 -65 -21 -101 -31 -36 -9 -75 -22 -86
-27 -15 -7 -28 -7 -42 1 -11 6 -30 11 -41 11 -11 0 -27 8 -37 17 -22 22 -104
21 -117 -2 -5 -9 -23 -15 -47 -15 -22 0 -45 -7 -54 -16 -23 -22 -20 -67 7 -97
20 -23 28 -26 77 -22 30 2 140 6 245 10 104 4 193 9 197 11 5 3 8 -1 8 -8 0
-9 2 -10 8 -1 4 6 23 10 44 8 22 -2 41 2 48 10 13 15 120 18 120 3 0 -5 -5
-19 -11 -30 -17 -32 15 -95 53 -103 35 -8 75 15 81 47 3 17 5 14 6 -9 0 -18 5
-33 10 -33 5 0 12 -8 15 -17 3 -10 18 -23 32 -30 22 -10 30 -9 50 5 22 16 23
22 21 126 l-2 109 65 18 c39 11 91 18 130 17 36 -2 75 1 87 5 28 10 38 -17 34
-91 -2 -48 1 -56 26 -78 47 -40 111 -13 97 43 -10 38 3 68 28 70 33 3 61 41
54 75 -5 25 -2 28 32 33 20 4 60 13 89 21 29 8 71 16 93 18 22 2 47 10 55 16
8 7 15 9 15 4 0 -5 4 -3 9 5 9 14 29 19 110 27 24 3 52 9 62 14 29 16 31 13
28 -47 -3 -54 -1 -58 27 -75 40 -25 70 -22 100 7 27 28 49 32 61 12 4 -7 20
-18 34 -24 38 -16 69 7 69 51 0 30 -48 120 -74 138 -11 7 54 49 65 42 4 -2 20
1 36 7 15 6 42 15 60 19 30 7 32 6 46 -34 9 -22 18 -50 21 -61 15 -49 77 -92
112 -78 17 6 54 74 54 99 0 14 2 15 17 3 9 -8 34 -38 55 -66 42 -58 66 -66
106 -35 22 17 22 20 10 67 -7 28 -28 70 -46 94 -18 24 -31 46 -28 48 2 3 -9
17 -25 32 -16 16 -29 31 -29 34 0 3 15 9 33 13 17 3 48 15 67 25 19 11 42 19
50 19 9 0 20 4 26 9 10 11 188 81 204 81 5 0 10 5 10 10 0 6 12 15 28 22 71
29 132 60 132 68 0 5 8 11 19 15 10 3 44 30 76 60 40 39 56 60 52 73 -23 70
-33 92 -41 92 -5 0 -18 8 -28 17 -17 15 -20 15 -28 3 -13 -22 -52 -21 -76 1
-21 20 -75 32 -105 23z"/>
<path d="M6477 1553 c-10 -9 -9 -41 2 -47 4 -3 16 1 27 8 15 12 16 16 5 30
-15 17 -24 20 -34 9z"/>
<path d="M7528 1505 c-10 -13 -18 -28 -18 -33 0 -6 -7 -12 -15 -16 -8 -3 -15
-12 -15 -19 0 -7 -23 -28 -51 -47 -28 -18 -53 -39 -56 -46 -3 -8 -22 -18 -43
-24 -20 -5 -52 -20 -71 -33 -19 -12 -53 -31 -76 -41 -24 -11 -43 -22 -43 -26
0 -21 -39 0 -79 42 -46 49 -67 58 -89 36 -14 -14 -34 7 -57 59 -11 24 -23 34
-49 38 -47 9 -68 1 -88 -35 -19 -33 -15 -56 11 -65 9 -3 28 -23 42 -45 13 -22
27 -40 31 -40 12 0 19 -56 9 -81 -5 -13 -10 -18 -10 -11 -1 10 -6 10 -22 -2
-12 -8 -27 -12 -33 -10 -7 3 -21 -4 -31 -16 -11 -12 -30 -20 -49 -20 -26 0
-34 7 -52 43 -67 136 -73 141 -159 139 -76 -2 -87 -13 -73 -74 9 -36 16 -48
35 -52 12 -4 23 -14 23 -23 0 -9 7 -24 16 -34 21 -23 10 -59 -18 -59 -21 0
-74 -15 -113 -31 -11 -5 -42 -11 -69 -13 -27 -2 -52 -9 -55 -14 -3 -5 -31 -12
-61 -16 -30 -3 -65 -8 -77 -12 -17 -5 -23 -2 -23 10 0 28 -1 31 -15 52 -7 12
-17 39 -21 60 -13 73 -63 103 -113 68 -21 -15 -23 -22 -17 -71 4 -37 2 -64 -8
-88 -9 -20 -13 -41 -10 -48 5 -15 -106 -43 -131 -33 -8 3 -15 2 -15 -3 0 -12
-63 -23 -83 -15 -10 3 -19 25 -24 57 -10 64 -39 85 -84 61 -36 -18 -40 -25
-43 -78 -2 -33 -9 -50 -31 -70 -15 -14 -33 -26 -39 -27 -6 0 -32 -4 -58 -8
-27 -4 -48 -4 -48 1 0 10 -34 11 -44 1 -4 -5 -11 -8 -14 -9 -43 -5 -110 -18
-123 -25 -9 -4 -28 -10 -42 -13 -14 -2 -34 -9 -43 -14 -13 -7 -33 -1 -76 21
l-59 30 -62 -17 c-76 -21 -107 -40 -107 -67 0 -23 18 -61 34 -71 6 -4 76 -5
156 -2 80 3 195 6 255 8 61 2 135 9 165 15 35 7 58 7 64 1 7 -7 6 -10 0 -10
-6 0 -11 -18 -12 -39 -2 -32 3 -44 24 -60 29 -23 80 -28 86 -9 3 8 18 -3 37
-25 37 -42 51 -45 75 -19 13 16 15 34 11 110 -4 60 -2 93 5 97 24 15 148 35
207 34 58 -1 61 -3 66 -28 3 -14 2 -30 -3 -34 -10 -11 4 -73 21 -93 7 -9 24
-20 38 -26 31 -11 51 10 51 56 0 52 10 73 43 87 27 12 32 20 32 47 0 31 1 32
42 32 23 0 44 4 47 9 4 5 25 12 49 16 83 12 96 17 101 33 5 14 21 17 88 19 47
2 84 7 89 14 11 19 21 -8 18 -51 -4 -47 13 -68 56 -70 47 -3 55 -1 55 14 0 25
17 27 55 6 62 -35 85 -24 85 39 0 15 -4 31 -9 36 -5 6 -18 26 -29 47 -19 34
-19 37 -4 50 9 8 31 15 47 17 17 2 35 6 40 11 6 4 20 10 33 13 25 6 32 -4 58
-79 15 -44 46 -84 65 -84 4 0 14 -3 23 -6 19 -7 56 50 56 86 l0 24 28 -31 c15
-17 34 -44 43 -60 20 -37 49 -46 78 -23 20 14 22 22 16 64 -4 27 -16 56 -27
66 -11 10 -17 23 -14 28 3 5 -6 22 -19 38 -14 16 -29 33 -33 39 -10 11 55 58
69 50 5 -4 15 -3 22 2 6 4 18 8 25 9 8 2 22 10 31 18 10 9 28 16 40 16 13 0
34 9 48 20 14 11 36 20 49 20 28 0 104 29 104 40 0 4 25 20 55 35 30 16 55 32
55 36 0 4 10 11 22 15 27 8 81 63 85 85 1 10 -4 22 -12 29 -8 7 -15 23 -15 36
0 14 -6 24 -14 24 -8 0 -16 5 -18 12 -4 10 -13 10 -42 1 -35 -11 -40 -10 -61
13 -33 35 -75 39 -97 9z"/>
<path d="M22606 1494 c-9 -23 19 -53 35 -37 15 15 7 47 -12 51 -9 2 -19 -5
-23 -14z"/>
<path d="M10528 1442 c-20 -20 -57 -48 -83 -61 -42 -22 -48 -23 -56 -9 -5 9
-27 19 -50 23 -35 6 -43 4 -56 -14 -40 -58 -243 -104 -243 -56 0 8 -8 16 -17
19 -10 4 -28 22 -41 41 -12 19 -29 35 -36 35 -8 0 -16 4 -18 9 -1 5 -18 12
-35 16 -26 5 -33 3 -33 -9 0 -9 -6 -16 -13 -16 -23 0 -35 -40 -24 -77 6 -18
14 -33 19 -33 4 0 8 -6 8 -13 0 -7 9 -23 21 -36 12 -12 19 -24 16 -27 -2 -3
-29 -7 -58 -11 -30 -3 -69 -15 -87 -25 -18 -10 -52 -18 -75 -18 -23 1 -76 -3
-117 -8 -41 -5 -80 -7 -87 -5 -20 7 -22 44 -6 85 12 31 13 45 4 64 -6 14 -11
33 -11 43 0 34 -93 38 -117 5 -7 -10 -13 -37 -13 -60 0 -24 -4 -45 -9 -48 -4
-3 -11 -19 -14 -36 -4 -16 -13 -30 -20 -30 -8 0 -27 -12 -42 -26 -27 -25 -31
-25 -109 -19 -45 3 -110 8 -145 11 -35 2 -70 8 -79 13 -13 7 -12 10 6 20 12 7
22 17 22 24 0 7 11 21 25 31 20 15 25 27 25 66 0 40 -4 49 -32 70 -31 23 -31
23 -66 4 -20 -10 -43 -31 -51 -46 -9 -16 -19 -28 -23 -28 -4 0 -14 -16 -22
-35 -8 -19 -20 -35 -25 -35 -6 0 -11 -6 -11 -13 0 -17 -68 -16 -100 2 -14 7
-32 23 -42 34 -13 17 -28 21 -69 22 l-54 0 -10 -48 c-6 -27 -13 -46 -16 -42
-4 3 -24 7 -45 9 -22 2 -44 4 -50 5 -6 0 -16 12 -21 24 -9 18 -24 27 -63 34
-70 14 -93 6 -129 -44 -34 -47 -40 -83 -14 -83 9 0 13 -3 10 -7 -16 -16 19
-33 68 -33 35 0 57 -5 65 -15 10 -12 30 -15 75 -14 34 1 68 -2 76 -7 7 -4 54
-8 104 -9 l90 0 8 -50 c27 -167 64 -176 143 -36 29 51 35 56 70 59 22 2 82 -2
134 -9 52 -6 118 -13 145 -14 28 -2 65 -6 82 -10 29 -6 32 -10 27 -31 -15 -61
45 -116 86 -79 17 16 20 15 40 -5 12 -12 24 -20 28 -18 64 32 62 30 62 74 0
42 1 43 38 50 20 4 55 8 77 9 77 3 85 5 85 20 0 12 4 13 19 6 13 -8 33 -6 67
3 27 8 87 19 134 25 47 6 100 15 118 21 18 5 41 6 50 3 22 -8 51 -44 52 -64 0
-9 9 -26 20 -39 11 -13 20 -30 20 -39 0 -9 14 -28 32 -42 l31 -26 46 30 c58
38 71 54 71 88 0 48 -50 119 -84 119 -8 0 -18 5 -21 10 -9 14 13 40 34 40 10
0 36 9 59 20 22 11 47 20 54 20 7 0 22 7 32 15 11 8 28 15 38 15 10 0 21 7 24
15 4 8 14 15 24 15 10 0 32 11 48 25 17 14 33 25 37 25 3 0 26 14 51 30 39 28
44 35 44 70 0 28 -5 42 -19 49 -10 6 -21 7 -25 4 -3 -3 -14 1 -24 10 -17 15
-20 14 -54 -21z"/>
<path d="M19620 1365 c-7 -8 -19 -15 -28 -15 -21 0 -102 -40 -126 -62 -11 -10
-26 -18 -33 -18 -7 0 -30 -11 -51 -24 -21 -13 -59 -33 -84 -45 -26 -11 -49
-25 -52 -30 -3 -5 -26 -12 -51 -15 -25 -4 -45 -11 -45 -17 0 -5 -8 -9 -17 -9
-10 0 -38 -7 -63 -16 -41 -14 -45 -14 -57 2 -7 10 -11 25 -8 35 3 9 -1 22 -10
29 -8 7 -15 9 -15 5 0 -4 -16 16 -35 44 -19 28 -35 59 -35 70 0 11 -9 25 -20
31 -21 11 -100 3 -100 -11 0 -5 -6 -9 -14 -9 -25 0 -28 -32 -6 -62 11 -15 20
-32 20 -38 0 -5 19 -29 41 -51 33 -33 42 -50 43 -78 1 -20 -3 -36 -9 -37 -5 0
-17 -3 -25 -6 -45 -18 -86 -28 -111 -28 -15 0 -30 -4 -33 -9 -3 -5 -23 -9 -43
-10 -21 0 -65 -5 -98 -10 -69 -10 -89 0 -99 51 -3 17 -17 46 -31 64 -14 18
-25 37 -25 43 0 13 -62 71 -76 71 -17 0 -94 -82 -94 -100 0 -10 -6 -23 -14
-30 -8 -6 -12 -19 -9 -28 10 -33 48 -107 58 -114 13 -9 -213 -14 -310 -7 -44
4 -84 3 -89 -2 -18 -16 -25 -9 -32 29 -12 69 -31 92 -75 92 -15 0 -29 6 -32
13 -2 6 -22 18 -43 26 -36 13 -39 12 -56 -9 -14 -17 -17 -34 -14 -69 l5 -47
-70 2 c-39 1 -76 7 -82 13 -6 6 -22 11 -36 11 -15 0 -35 7 -45 15 -11 8 -32
15 -47 15 -34 0 -78 -35 -74 -57 15 -78 15 -83 -7 -83 -11 0 -37 17 -56 37
-22 24 -37 33 -40 25 -7 -23 -31 -40 -49 -36 -13 3 -23 -6 -36 -34 -22 -46
-15 -90 18 -102 13 -5 26 -14 30 -19 8 -14 72 -14 80 -1 4 7 12 7 24 0 10 -5
21 -7 24 -4 3 3 63 7 133 9 71 2 142 8 157 14 40 15 49 6 47 -48 -3 -62 -2
-67 16 -85 23 -23 61 -19 86 9 l21 24 31 -32 c30 -32 33 -33 66 -21 33 11 35
14 32 52 -5 68 8 81 77 75 33 -3 82 0 112 7 29 7 80 14 114 15 33 1 73 7 90
14 16 7 40 10 52 6 20 -5 23 -12 23 -50 0 -51 10 -79 43 -118 l23 -27 42 16
41 17 -2 80 c-2 79 -1 81 23 87 14 3 25 11 25 17 0 19 6 21 105 38 52 8 104
20 115 24 11 5 58 14 105 20 47 6 97 14 113 17 26 6 29 3 56 -58 36 -78 52
-93 103 -93 44 0 84 36 104 92 16 45 0 123 -26 123 -10 0 -22 -9 -25 -20 -7
-22 -20 -26 -30 -9 -11 16 27 39 62 37 17 -1 37 3 45 9 7 6 29 14 48 18 33 7
69 23 80 36 3 3 28 12 55 19 28 7 53 19 58 26 4 7 20 15 36 19 16 3 35 13 42
21 6 8 17 14 23 14 6 0 27 14 46 30 19 17 46 39 58 50 13 11 28 20 33 20 13 0
11 64 -3 95 -6 14 -17 25 -25 25 -7 0 -13 5 -13 10 0 15 -36 12 -50 -5z"/>
<path d="M14951 1350 c-19 -11 -37 -23 -40 -28 -3 -4 -26 -14 -51 -22 -25 -8
-47 -17 -50 -21 -11 -14 -104 -49 -131 -49 -15 0 -30 -4 -34 -9 -3 -5 -33 -23
-67 -40 -54 -28 -65 -30 -89 -19 -15 7 -38 29 -51 50 -13 21 -31 40 -41 44
-11 3 -25 21 -33 39 -11 28 -20 34 -59 39 -56 9 -79 2 -93 -27 -24 -50 -24
-65 5 -91 15 -14 31 -26 35 -26 7 0 3 -78 -5 -86 -20 -20 -352 -32 -386 -14
-10 5 -21 24 -25 42 -10 49 -41 77 -79 71 -18 -3 -37 -9 -44 -15 -17 -14 -27
-68 -14 -81 6 -6 11 -21 11 -34 0 -23 0 -23 -152 -24 -288 -1 -288 -1 -286 71
1 20 -6 48 -16 62 -17 25 -20 26 -92 19 -14 -1 -44 -45 -49 -71 -2 -11 -13
-30 -25 -42 -21 -22 -27 -23 -169 -21 -94 2 -165 8 -196 17 -27 8 -52 13 -56
10 -5 -2 -17 0 -29 6 -11 5 -29 15 -40 20 -37 19 -107 12 -130 -12 -24 -26
-22 -54 8 -93 29 -37 66 -55 112 -55 21 0 51 -6 67 -14 90 -46 150 -61 268
-66 33 -1 69 -3 81 -4 30 -2 82 -50 90 -82 11 -47 32 -64 79 -64 40 0 43 2 49
31 3 17 6 44 6 60 0 22 5 29 20 29 11 0 20 3 20 8 0 4 60 8 133 10 73 1 142 7
154 14 17 8 26 8 37 -1 8 -7 17 -8 20 -3 3 6 21 12 40 14 33 4 34 3 31 -30 -3
-34 0 -40 73 -120 30 -33 75 -34 103 -1 20 23 21 24 35 5 8 -11 14 -23 14 -28
0 -4 7 -8 15 -8 8 0 15 -4 15 -10 0 -13 37 -13 45 0 4 6 10 8 15 5 4 -3 13 1
19 9 12 15 -2 71 -40 153 -23 51 -23 53 -6 53 7 0 18 5 25 12 6 6 22 13 34 14
13 1 50 5 83 9 33 3 76 10 95 15 19 6 80 14 135 19 l100 8 52 -34 c29 -18 80
-61 114 -93 34 -33 66 -60 70 -60 5 0 11 -11 15 -25 4 -18 15 -26 42 -31 19
-4 42 -2 51 3 20 13 22 69 3 107 -16 33 -135 156 -151 156 -6 0 -11 4 -11 9 0
12 34 23 80 27 47 4 115 23 170 47 25 11 61 22 80 24 19 2 38 11 43 19 5 8 13
12 18 8 12 -7 79 15 79 26 0 4 33 24 74 44 59 30 77 43 85 68 8 21 8 35 1 43
-14 17 -79 24 -113 12 -21 -7 -33 -5 -52 7 -32 21 -102 19 -144 -4z"/>
<path d="M12935 1100 c-3 -5 -1 -10 4 -10 6 0 11 5 11 10 0 6 -2 10 -4 10 -3
0 -8 -4 -11 -10z"/>
<path d="M8238 558 c9 -9 15 -9 24 0 9 9 7 12 -12 12 -19 0 -21 -3 -12 -12z"/>
<path d="M14032 368 c7 -20 48 -23 48 -4 0 11 -9 16 -26 16 -16 0 -24 -5 -22
-12z"/>
<path d="M23755 216 c-13 -9 -15 -15 -6 -20 6 -4 18 -1 26 8 20 19 3 29 -20
12z"/>
<path d="M6870 150 c0 -5 5 -10 10 -10 6 0 10 5 10 10 0 6 -4 10 -10 10 -5 0
-10 -4 -10 -10z"/>
<path d="M0 65 l0 -65 15000 0 15000 0 0 65 0 65 -15000 0 -15000 0 0 -65z"/>
</g>
</svg>
