<?xml version="1.0" standalone="no"?>
<!DOCTYPE svg PUBLIC "-//W3C//DTD SVG 20010904//EN"
 "http://www.w3.org/TR/2001/REC-SVG-20010904/DTD/svg10.dtd">
<svg version="1.0" xmlns="http://www.w3.org/2000/svg"
 width="43200.000000pt" height="4700.296736pt" viewBox="0 0 43200.000000 4700.296736"
 preserveAspectRatio="xMidYMid meet">
<metadata>
Created by potrace 1.11, written by Peter Selinger 2001-2013
</metadata>
<g transform="translate(0.000000,4700.296736) scale(1.424332,-1.424332)"
fill="#000000" stroke="none">
<path d="M9967 3233 c-3 -5 -20 -10 -39 -11 -18 -1 -82 -9 -143 -16 -60 -8
-186 -14 -280 -15 -93 -1 -195 -6 -225 -11 -83 -15 -293 -38 -395 -44 -134 -8
-544 -55 -559 -64 -6 -3 -19 -6 -30 -7 -43 -3 -122 -17 -146 -25 -14 -4 -81
-18 -150 -30 -69 -12 -138 -25 -155 -30 -16 -4 -47 -11 -67 -15 -21 -3 -38 -9
-38 -13 0 -4 -24 -8 -53 -9 -81 -4 -171 -19 -198 -33 -13 -8 -26 -12 -29 -11
-12 5 -70 -11 -70 -19 0 -6 -14 -10 -30 -10 -17 0 -56 -8 -88 -19 -31 -10 -77
-23 -102 -29 -155 -37 -273 -70 -340 -95 -36 -13 -90 -29 -120 -36 -30 -7 -62
-15 -70 -18 -20 -8 -20 -8 -52 -17 -16 -5 -28 -12 -28 -17 0 -5 -7 -9 -15 -9
-8 0 -15 -4 -15 -10 0 -5 -9 -10 -19 -10 -11 0 -23 -5 -26 -10 -4 -6 -12 -10
-18 -9 -7 1 -25 -3 -40 -9 -16 -7 -44 -12 -63 -12 -19 0 -34 -4 -34 -9 0 -7
-42 -22 -75 -26 -5 0 -30 -15 -54 -33 -24 -18 -52 -32 -62 -32 -9 0 -19 -4
-21 -8 -10 -26 -264 -161 -313 -167 -58 -7 -187 -46 -206 -62 -8 -7 -20 -13
-26 -13 -5 0 -24 -7 -42 -16 -27 -13 -40 -14 -76 -5 -56 14 -65 14 -65 -2 0
-16 -64 -31 -200 -47 -103 -12 -204 -30 -345 -62 -49 -11 -115 -22 -145 -23
-30 -2 -63 -6 -74 -11 -11 -4 -21 -2 -26 6 -5 9 -9 9 -15 1 -4 -8 -30 -10 -83
-5 -42 3 -212 7 -377 9 -206 2 -331 8 -400 19 -55 8 -131 18 -170 21 -99 8
-313 45 -355 61 -19 8 -46 16 -59 19 -12 2 -28 8 -35 13 -6 5 -18 10 -26 10
-36 3 -86 15 -96 23 -6 5 -42 8 -80 7 -113 -4 -579 32 -602 46 -6 3 -13 2 -17
-3 -8 -14 -70 -21 -245 -27 -236 -8 -259 -9 -266 -17 -4 -4 -23 -7 -41 -7 -19
0 -51 -9 -73 -20 -22 -11 -50 -20 -62 -20 -13 0 -32 -6 -43 -14 -11 -7 -42
-14 -70 -15 -27 0 -64 -5 -82 -10 -18 -5 -41 -7 -53 -4 -12 3 -20 0 -20 -6 0
-7 -3 -10 -7 -8 -5 3 -37 -2 -73 -9 -36 -8 -88 -18 -117 -23 -28 -4 -59 -14
-68 -21 -9 -7 -31 -15 -48 -17 -18 -2 -57 -11 -87 -20 -30 -9 -58 -16 -63 -15
-4 1 -29 -9 -56 -23 -27 -15 -64 -27 -82 -28 -19 -1 -45 -10 -59 -20 -13 -9
-32 -17 -42 -17 -9 0 -19 -8 -22 -18 -4 -11 -19 -25 -34 -32 -15 -7 -36 -17
-47 -23 -10 -5 -45 -16 -76 -23 -51 -12 -61 -11 -108 7 l-53 20 -5 -21 c-3
-11 -11 -20 -18 -20 -7 0 -15 -6 -18 -12 -2 -8 -22 -13 -53 -13 -46 0 -49 -2
-52 -27 -5 -42 28 -57 147 -64 85 -6 104 -10 108 -24 4 -14 13 -16 52 -12 60
5 137 -11 205 -43 29 -14 60 -25 68 -25 8 0 34 -18 59 -40 24 -22 50 -40 57
-40 7 0 24 -10 38 -23 13 -12 45 -29 72 -36 43 -13 89 -36 102 -52 3 -3 30
-19 60 -34 30 -16 66 -37 79 -47 13 -10 32 -16 42 -13 10 4 21 -1 27 -10 4 -9
28 -21 53 -26 83 -18 89 -19 89 -30 0 -5 -8 -12 -17 -16 -48 -16 -93 -38 -93
-45 0 -4 -30 -39 -67 -76 -38 -38 -103 -105 -146 -150 -43 -45 -84 -82 -91
-82 -7 0 -21 -9 -31 -20 -10 -11 -23 -20 -29 -20 -6 0 -29 -8 -51 -19 -142
-67 -215 -96 -265 -104 -57 -9 -88 -28 -93 -55 -8 -39 15 -58 76 -65 29 -3 70
-14 92 -25 71 -35 132 -45 168 -27 29 15 33 14 58 -4 23 -17 39 -19 125 -15
105 4 194 20 194 35 0 4 7 6 15 3 8 -4 26 1 40 10 14 9 25 14 25 10 0 -4 6 -2
13 4 7 6 64 16 127 23 63 6 123 15 132 20 10 5 62 10 115 10 54 1 103 5 109
10 6 5 33 12 60 15 27 3 58 9 69 14 26 11 209 30 305 32 44 1 85 -4 99 -11 16
-9 44 -11 95 -5 104 11 256 7 272 -7 8 -7 40 -11 70 -10 31 1 61 -2 68 -7 14
-12 94 -29 171 -38 33 -4 87 -19 120 -35 67 -31 73 -32 250 -64 22 -4 48 -14
57 -22 28 -25 108 -41 150 -30 29 7 43 6 60 -5 14 -9 63 -18 122 -22 54 -4
110 -12 125 -18 14 -5 82 -12 151 -14 69 -3 136 -9 150 -13 14 -5 34 -12 45
-17 11 -4 28 -6 38 -5 10 1 33 -3 51 -9 60 -19 744 -35 916 -21 47 4 103 4
125 0 25 -5 51 -3 70 5 16 7 46 11 66 8 19 -2 55 2 80 9 51 15 54 15 179 24
52 4 110 15 129 23 27 12 36 13 39 4 2 -8 8 -9 15 -4 24 19 57 20 67 4 5 -10
10 -12 10 -7 0 21 51 35 335 96 50 10 99 24 109 30 11 6 33 13 49 16 27 4 74
28 87 44 16 20 113 59 147 59 29 0 143 30 168 43 11 7 27 13 35 14 8 1 26 4
40 7 35 5 108 31 145 50 17 9 39 16 50 16 11 0 29 7 39 15 11 8 28 15 38 15
10 0 21 6 24 14 5 13 56 30 80 27 6 -1 17 6 24 14 7 8 24 15 37 15 36 0 217
84 258 120 11 10 36 21 55 25 19 4 41 16 48 27 9 12 20 17 32 13 11 -3 22 0
27 8 11 19 47 37 72 37 12 0 21 5 21 10 0 6 13 10 29 10 17 0 33 5 36 10 3 6
13 10 22 10 8 0 29 6 46 14 18 7 59 19 92 26 33 7 85 19 115 27 169 46 245 64
325 77 50 8 106 19 125 24 19 5 71 19 115 31 43 12 94 21 111 19 18 -1 36 1
40 5 4 4 17 7 30 7 12 0 24 4 26 10 2 5 55 12 119 14 64 3 128 10 141 15 27
10 204 18 213 10 3 -3 116 -4 252 -3 137 2 291 -1 343 -6 52 -5 151 -12 220
-15 69 -4 140 -11 159 -15 19 -5 37 -7 41 -5 12 7 205 -16 215 -26 5 -5 24 -9
41 -9 18 0 36 -5 39 -10 4 -6 21 -8 40 -4 20 3 35 1 40 -5 3 -6 11 -9 16 -6
13 8 271 -25 286 -37 6 -5 52 -8 102 -7 62 1 96 -2 106 -11 9 -8 50 -15 93
-17 64 -3 162 -20 162 -28 0 -1 -14 -42 -31 -91 -17 -49 -33 -105 -36 -124 -3
-19 -9 -39 -12 -45 -4 -5 -7 -68 -6 -140 1 -201 26 -235 180 -250 39 -3 89
-13 113 -22 24 -8 53 -12 66 -9 13 3 49 1 80 -5 69 -12 300 -18 341 -8 17 4
55 12 85 18 87 16 179 38 260 60 41 11 98 21 127 21 28 0 54 4 57 9 8 13 65
21 176 26 125 5 518 66 553 86 10 5 21 8 25 5 5 -3 26 -1 48 4 21 5 89 12 149
16 61 3 117 8 125 11 8 3 31 6 50 8 41 4 98 14 122 21 23 7 163 25 223 29 145
8 164 8 179 -5 12 -9 30 -11 64 -5 76 11 98 13 267 22 186 9 503 8 625 -2 81
-7 171 -10 450 -16 77 -2 177 4 259 14 93 12 136 14 141 7 7 -12 156 -31 233
-29 68 1 209 -19 221 -31 6 -6 28 -10 51 -10 23 0 45 -4 51 -8 16 -14 112 -44
131 -41 10 1 25 -1 33 -4 8 -3 65 -10 125 -16 106 -9 256 -34 274 -46 5 -3 49
-12 97 -20 48 -9 102 -24 118 -35 17 -10 54 -20 81 -22 28 -2 61 -10 74 -17
19 -11 52 -12 135 -8 61 4 117 3 124 -2 18 -11 60 9 68 32 3 9 13 17 21 17 84
0 224 99 229 162 4 61 13 95 32 130 28 48 42 125 42 222 l0 84 63 22 c34 12
83 31 109 41 25 10 64 20 85 21 21 2 41 7 44 12 4 4 19 9 35 11 34 3 110 22
139 35 19 8 73 17 158 26 21 2 41 6 45 8 4 2 39 7 77 11 39 3 81 8 94 11 48
10 279 12 382 4 57 -5 131 -12 164 -14 33 -3 80 -12 104 -21 24 -8 47 -12 52
-10 4 3 16 1 26 -4 16 -9 67 -25 188 -60 22 -6 85 -20 140 -31 223 -42 320
-70 440 -125 38 -18 124 -39 245 -60 52 -9 103 -21 112 -26 10 -5 24 -9 31 -9
7 0 18 -5 25 -12 6 -6 20 -13 29 -14 42 -7 179 -40 188 -46 6 -3 37 -11 70
-17 33 -6 93 -27 134 -46 40 -19 79 -35 87 -35 8 0 14 -4 14 -10 0 -5 9 -10
20 -10 21 0 109 -30 175 -59 22 -10 60 -27 85 -38 25 -11 61 -24 80 -28 19 -4
85 -26 145 -50 185 -72 257 -96 338 -114 43 -10 83 -23 89 -29 7 -7 18 -12 25
-12 7 0 36 -11 63 -24 28 -13 69 -27 93 -31 23 -4 47 -11 52 -15 6 -4 33 -15
60 -23 28 -9 102 -33 165 -55 63 -22 138 -45 165 -52 28 -6 61 -16 75 -21 27
-10 37 -12 125 -30 54 -10 227 -51 345 -80 25 -6 53 -15 63 -21 32 -16 164
-39 312 -53 33 -3 71 -9 85 -12 14 -4 133 -8 265 -10 132 -1 295 -6 363 -11
129 -9 236 -3 392 23 52 8 109 17 125 19 17 2 75 12 130 24 54 11 103 18 107
16 7 -5 120 14 236 38 28 6 55 8 59 5 3 -4 13 -1 22 6 9 7 57 25 106 41 50 15
106 32 125 39 19 6 53 14 75 18 22 4 69 15 105 24 36 9 94 23 130 30 99 21
161 35 205 45 22 5 58 12 80 15 73 10 159 27 205 40 25 7 73 16 107 19 34 3
97 14 140 25 43 10 132 24 198 30 66 6 149 14 185 18 85 8 135 7 315 -6 83 -6
180 -13 217 -15 79 -5 108 -13 108 -29 0 -8 4 -7 9 2 8 12 21 12 80 3 38 -7
88 -12 110 -12 22 0 43 -5 46 -10 4 -6 18 -10 33 -9 15 1 45 -5 67 -13 22 -9
63 -23 90 -31 28 -9 82 -27 120 -40 39 -14 93 -31 120 -37 28 -7 69 -24 93
-37 23 -12 49 -23 57 -23 8 0 34 -11 57 -24 24 -13 57 -27 75 -30 17 -4 41
-16 54 -27 12 -10 30 -19 40 -19 9 0 20 -6 22 -12 4 -10 8 -9 17 2 14 19 5
132 -15 191 -29 83 -78 183 -102 207 -7 7 -20 26 -30 42 -9 17 -21 30 -25 30
-4 0 -8 5 -8 12 0 12 -60 138 -70 148 -3 3 -18 25 -34 50 -34 54 -115 130
-131 124 -6 -3 -22 7 -35 21 -13 14 -22 25 -19 26 2 0 27 2 54 5 54 5 223 55
267 79 14 8 35 15 45 15 10 0 24 5 29 10 12 12 116 40 150 40 14 0 35 5 47 12
24 12 88 29 125 31 12 1 22 5 22 8 0 7 66 21 110 25 14 1 61 5 105 8 55 5 104
3 155 -7 41 -7 96 -12 122 -9 42 3 47 7 53 32 4 16 2 37 -3 47 -20 37 -204
209 -245 228 -23 12 -70 38 -105 58 -34 20 -74 40 -87 43 -14 3 -25 9 -25 13
0 7 -57 34 -100 46 -14 4 -37 16 -52 26 -14 11 -32 19 -40 19 -7 0 -23 7 -34
15 -12 8 -39 21 -60 29 -21 7 -62 23 -91 34 -28 11 -54 17 -57 14 -4 -3 -16 0
-29 6 -22 11 -136 44 -192 56 -179 38 -226 45 -345 51 -164 8 -180 9 -180 17
0 10 -140 31 -198 29 -13 -1 -31 3 -41 8 -10 6 -23 5 -34 -1 -10 -5 -26 -6
-35 -3 -9 4 -58 7 -109 6 -52 -2 -100 2 -112 9 -15 8 -50 8 -124 1 -137 -14
-249 -19 -522 -25 -246 -6 -327 -12 -390 -28 -22 -5 -51 -12 -65 -13 -48 -6
-215 -44 -243 -54 -16 -6 -45 -11 -66 -11 -20 0 -60 -7 -88 -15 -28 -8 -88
-17 -134 -20 -46 -3 -118 -12 -159 -21 -276 -56 -610 -96 -645 -77 -12 7 -35
5 -73 -6 -46 -13 -127 -17 -427 -19 -203 -2 -395 -4 -425 -5 -60 -1 -132 7
-147 16 -5 3 -71 11 -147 16 -76 6 -144 15 -150 20 -6 5 -54 11 -106 14 -52 3
-113 10 -135 16 -22 6 -80 17 -130 25 -124 20 -212 40 -221 48 -4 5 -18 8 -31
8 -31 0 -107 18 -168 40 -99 36 -141 48 -233 70 -52 12 -128 39 -170 60 -43
20 -90 40 -105 44 -16 4 -62 22 -104 41 -41 19 -82 35 -92 35 -9 0 -40 11 -68
25 -28 13 -63 27 -77 31 -14 3 -26 10 -26 15 0 5 -6 9 -12 9 -7 0 -51 15 -98
34 -47 18 -105 39 -130 46 -25 7 -67 21 -95 31 -27 10 -74 23 -104 29 -30 6
-61 16 -68 22 -8 6 -24 12 -36 14 -12 1 -56 18 -98 38 -42 20 -81 36 -87 36
-7 0 -12 4 -12 8 0 11 -69 34 -170 57 -41 9 -84 21 -95 25 -11 5 -38 14 -60
21 -22 6 -47 17 -55 24 -19 17 -130 56 -141 50 -4 -3 -14 1 -22 9 -8 8 -36 19
-63 25 -27 5 -76 19 -109 31 -33 11 -66 20 -75 19 -8 -1 -26 2 -40 8 -14 5
-56 20 -95 33 -38 12 -81 28 -95 35 -25 13 -98 30 -113 27 -4 -1 -20 4 -35 12
-43 21 -189 48 -291 51 -54 3 -102 10 -115 17 -11 8 -37 15 -56 17 -19 1 -45
9 -58 17 -12 8 -27 12 -31 9 -5 -3 -33 1 -63 9 -29 7 -57 11 -62 8 -16 -9 -70
-10 -88 -1 -9 5 -54 15 -100 23 -45 8 -108 22 -138 31 -30 10 -95 19 -145 20
-49 2 -151 6 -225 8 -74 3 -157 1 -185 -4 -27 -5 -134 -12 -236 -14 -103 -2
-217 -9 -255 -15 -70 -10 -141 -18 -227 -24 -26 -2 -53 -8 -60 -14 -7 -5 -41
-15 -77 -21 -72 -13 -130 -37 -130 -52 0 -5 -6 -9 -12 -7 -15 3 -65 -11 -186
-53 -46 -16 -91 -29 -100 -29 -10 0 -35 -9 -57 -20 -22 -11 -45 -20 -51 -20
-7 0 -26 -11 -42 -25 -28 -24 -48 -82 -44 -127 1 -10 -7 -41 -18 -68 -11 -28
-20 -67 -20 -88 0 -61 -7 -64 -86 -42 -86 26 -178 47 -269 64 -38 7 -84 20
-102 29 -18 10 -40 17 -50 17 -10 0 -38 7 -61 15 -39 14 -228 30 -307 27 -16
0 -75 5 -130 13 -55 8 -140 17 -190 20 -49 4 -112 13 -140 21 -29 9 -88 15
-140 15 -85 -1 -175 11 -345 44 -61 13 -141 14 -430 11 -407 -6 -618 -15 -641
-26 -8 -5 -21 -5 -29 0 -9 5 -20 4 -28 -2 -7 -6 -59 -13 -115 -15 -56 -2 -181
-15 -277 -29 -223 -32 -486 -53 -592 -47 -91 5 -188 -6 -318 -36 -52 -12 -141
-23 -227 -26 l-143 -7 0 35 c0 21 -20 74 -55 143 -30 60 -55 121 -55 136 0 30
-39 58 -82 58 -29 0 -42 9 -52 35 -4 11 -10 15 -14 10 -13 -18 -86 -31 -136
-23 -26 3 -65 8 -85 9 -20 2 -40 5 -46 8 -5 3 -21 7 -35 8 -28 2 -48 7 -70 16
-32 13 -138 27 -244 33 -61 3 -116 10 -121 15 -6 4 -17 4 -25 -1 -8 -5 -19 -6
-25 -2 -5 4 -42 7 -82 8 -40 1 -78 6 -85 10 -15 9 -11 9 -143 22 -93 10 -385
26 -430 23 -11 0 -60 6 -110 14 -157 26 -237 31 -335 23 -237 -18 -301 -20
-343 -10 -88 23 -253 30 -364 18 -52 -6 -77 -5 -87 3 -8 7 -17 8 -19 4z m263
-179 c36 -3 121 -7 190 -8 69 -1 131 -5 137 -9 7 -4 21 -3 32 2 11 6 30 7 47
2 36 -10 286 -7 304 4 7 4 16 2 20 -5 6 -9 38 -14 97 -16 48 -1 145 -10 216
-19 70 -8 148 -15 175 -13 26 1 108 -6 182 -16 74 -10 164 -18 199 -17 37 1
70 -4 79 -11 8 -7 29 -11 46 -10 18 2 71 -6 119 -18 48 -12 91 -19 95 -16 9 5
62 -9 96 -26 12 -7 16 -6 11 1 -9 15 13 14 66 -3 24 -8 61 -17 82 -21 77 -13
32 -33 -76 -34 -84 -1 -419 -85 -487 -123 -109 -61 -164 -88 -177 -88 -7 0
-20 -12 -30 -27 -10 -16 -24 -33 -33 -39 -48 -36 -210 -204 -210 -218 0 -9 -8
-33 -19 -54 -26 -54 -34 -151 -17 -230 8 -37 17 -90 20 -118 10 -84 94 -219
176 -284 46 -36 75 -89 84 -152 l7 -46 -42 9 c-23 5 -51 15 -62 21 -12 6 -57
16 -101 23 -73 12 -124 25 -166 45 -8 3 -26 4 -40 0 -14 -4 -38 -3 -55 1 -28
7 -197 22 -240 21 -11 0 -34 4 -51 9 -17 5 -103 11 -190 14 -87 2 -179 8 -204
14 -63 14 -150 14 -150 -1 0 -6 -9 -3 -20 7 -21 19 -44 21 -275 28 -27 1 -57
6 -65 11 -20 13 -152 17 -166 5 -7 -6 -27 -6 -52 0 -23 5 -43 7 -45 4 -5 -4
-259 -15 -327 -13 -24 1 -53 -3 -65 -9 -26 -12 -94 -26 -118 -23 -11 1 -44 -4
-75 -12 -30 -8 -59 -13 -64 -10 -5 3 -17 -1 -26 -9 -21 -19 -167 -33 -177 -17
-4 7 -11 7 -18 2 -7 -5 -34 -12 -61 -16 -27 -3 -55 -11 -62 -17 -7 -6 -18 -8
-23 -4 -6 3 -21 -1 -34 -10 -13 -8 -27 -12 -30 -8 -4 3 -17 1 -30 -5 -12 -7
-53 -16 -92 -21 -136 -19 -286 -59 -338 -91 -20 -13 -36 -16 -47 -10 -9 5 -22
5 -31 -1 -7 -5 -24 -9 -36 -9 -13 0 -23 -4 -23 -9 0 -5 -20 -12 -45 -15 -24
-4 -47 -10 -49 -14 -2 -4 -19 -9 -37 -10 -28 -2 -119 -33 -184 -62 -39 -18
-110 -42 -140 -47 -16 -3 -32 -9 -35 -12 -10 -13 -60 -41 -72 -41 -7 -1 -35
-16 -63 -35 -27 -18 -53 -31 -57 -28 -5 2 -14 0 -21 -5 -15 -12 -132 -58 -172
-68 -16 -4 -51 -18 -76 -31 -26 -13 -53 -23 -61 -23 -8 0 -19 -5 -25 -11 -6
-6 -26 -13 -44 -16 -19 -3 -39 -9 -45 -14 -7 -5 -16 -9 -20 -8 -5 1 -16 0 -24
-4 -74 -28 -170 -60 -195 -64 -16 -3 -34 -9 -40 -12 -5 -4 -30 -13 -55 -20
-25 -7 -54 -17 -65 -21 -51 -19 -93 -30 -114 -30 -55 0 -255 -43 -296 -64 -11
-5 -37 -8 -57 -7 -21 1 -38 -1 -38 -6 0 -10 -79 -33 -115 -33 -13 0 -28 -8
-34 -17 -8 -14 -12 -15 -25 -4 -11 9 -20 10 -28 3 -14 -11 -123 -29 -223 -37
-33 -3 -73 -8 -90 -11 -159 -27 -190 -32 -190 -33 0 -4 -139 -11 -272 -13 -84
-2 -153 -7 -153 -11 0 -5 -8 -6 -18 -3 -10 4 -47 1 -83 -5 -74 -12 -91 -13
-139 -5 -46 6 -132 14 -255 21 -55 3 -113 10 -130 15 -42 12 -165 27 -165 20
0 -6 -65 -2 -90 6 -8 3 -45 6 -81 8 -37 1 -73 7 -81 14 -8 6 -17 10 -19 7 -3
-2 -61 9 -129 25 -69 17 -157 37 -196 45 -39 8 -99 27 -134 41 -35 14 -73 23
-84 20 -11 -3 -56 6 -99 21 -43 14 -81 23 -84 20 -3 -4 -17 0 -32 7 -38 20
-247 67 -316 72 -33 2 -75 9 -94 15 -35 12 -418 15 -469 5 -15 -3 -83 -11
-152 -16 -69 -6 -150 -15 -180 -21 -30 -5 -77 -11 -105 -13 -27 -2 -63 -10
-80 -17 -16 -7 -34 -11 -38 -10 -5 1 -27 -4 -50 -10 -23 -6 -44 -12 -47 -12
-143 -25 -263 -54 -383 -93 -48 -16 -195 -26 -239 -16 -28 7 -11 21 38 33 24
6 44 15 44 20 0 5 18 18 40 29 22 11 40 25 40 30 0 6 6 10 13 10 6 1 30 18 52
40 21 22 54 47 73 56 18 8 36 22 39 30 3 7 28 30 57 51 28 20 68 54 89 75 64
64 123 98 203 118 41 11 78 19 82 18 9 -2 88 11 135 23 20 5 37 16 37 23 0 16
24 28 43 20 36 -13 87 32 57 51 -15 9 -104 33 -230 60 -63 14 -149 34 -190 46
-41 11 -100 26 -131 33 -31 7 -69 21 -85 31 -44 30 -105 63 -150 84 -23 11
-45 24 -49 30 -3 6 -27 20 -53 32 -86 37 -117 54 -142 75 -14 11 -45 28 -70
38 -25 10 -53 22 -62 27 -10 5 -25 9 -33 9 -10 0 -15 10 -15 28 0 27 3 29 73
40 41 7 79 18 85 24 8 8 15 8 25 0 8 -7 16 -10 18 -7 3 2 40 11 84 20 44 9 87
22 95 30 8 7 20 10 27 8 7 -2 22 1 35 9 13 7 57 16 98 20 114 11 153 18 167
29 6 6 17 8 22 4 6 -3 23 1 39 9 15 8 35 14 42 13 32 -3 144 16 189 33 35 12
67 16 111 13 43 -3 74 0 102 12 47 18 103 20 198 5 36 -6 101 -12 145 -15 44
-2 100 -8 125 -12 64 -10 277 -6 300 7 10 5 21 6 24 2 7 -11 115 -36 144 -33
12 1 37 -5 55 -14 17 -9 56 -19 86 -21 29 -3 62 -9 73 -15 11 -6 30 -8 42 -5
12 3 32 -1 43 -9 11 -8 23 -12 26 -8 4 3 12 1 20 -5 7 -6 33 -12 57 -13 25 -2
60 -9 78 -16 25 -10 37 -11 47 -3 13 11 36 10 45 -2 3 -3 41 -10 85 -13 49 -4
87 -13 97 -22 12 -11 29 -14 53 -10 24 4 38 2 41 -6 3 -8 23 -12 52 -11 26 0
53 -4 61 -10 9 -7 86 -11 230 -10 215 2 364 13 431 33 19 5 89 12 155 15 66 3
152 13 190 21 39 9 88 18 110 21 66 7 238 49 260 64 6 4 24 6 40 5 17 -1 36 2
43 8 7 6 37 12 65 14 29 1 95 16 147 32 157 49 214 65 235 67 11 1 31 6 45 11
14 6 41 8 61 6 21 -3 40 0 43 6 4 6 15 11 25 11 10 0 30 9 44 20 14 11 32 20
40 20 8 0 26 9 41 21 16 12 35 19 47 16 10 -3 25 1 32 8 7 7 23 16 36 20 12 4
37 19 54 34 18 16 44 31 59 35 15 3 33 13 42 21 8 8 21 15 28 15 7 0 24 7 36
16 14 9 38 14 63 13 30 -3 45 1 54 14 7 9 18 17 25 17 6 0 36 13 66 30 30 16
54 27 54 25 0 -2 16 3 35 11 19 7 47 14 63 14 15 0 32 4 38 9 5 4 32 16 59 26
28 9 59 21 70 26 25 10 103 31 131 34 11 2 42 13 67 24 26 12 51 20 55 17 12
-7 234 60 287 87 17 9 48 18 70 20 22 3 74 17 115 31 41 14 82 26 91 26 8 0
20 5 27 12 6 6 22 12 34 13 13 2 37 7 53 13 112 38 125 41 156 30 24 -8 38 -7
67 5 22 10 80 18 142 21 58 3 127 12 154 21 83 25 172 38 193 27 20 -11 171 2
208 17 61 26 75 29 94 24 12 -3 39 4 63 17 34 18 58 22 113 21 39 -1 81 -2 95
-2 33 0 135 17 183 29 26 7 48 7 67 1 17 -6 53 -7 93 -1 36 4 73 5 81 0 8 -4
27 -3 42 2 15 6 34 8 42 5 7 -3 38 2 67 10 33 10 74 14 107 11 29 -2 80 -1
113 3 68 8 188 6 285 -5z m9037 -88 c40 -4 86 -9 102 -11 17 -2 31 1 31 7 0 6
12 7 31 3 17 -4 47 -8 67 -10 39 -2 53 -5 175 -36 42 -11 81 -18 86 -15 4 3
23 1 42 -5 39 -12 59 -16 149 -30 72 -10 116 -11 143 -3 9 3 17 1 17 -4 0 -5
35 -13 78 -17 42 -4 92 -13 109 -20 18 -8 35 -10 38 -6 2 5 35 2 72 -6 38 -8
86 -17 108 -19 22 -3 47 -8 55 -11 8 -3 24 -7 35 -8 11 -1 46 -8 78 -14 31 -7
62 -9 67 -6 5 3 27 -3 49 -15 22 -11 51 -20 65 -20 13 0 26 -7 30 -15 4 -11
11 -12 28 -6 16 6 32 4 51 -6 16 -8 36 -12 44 -9 9 4 21 0 27 -7 12 -15 161
-58 216 -62 39 -3 113 -27 180 -59 25 -11 59 -22 75 -24 55 -5 90 -9 98 -12 4
-1 10 -3 15 -4 4 -1 25 -10 47 -20 22 -9 57 -23 78 -29 20 -7 37 -15 37 -19 0
-3 16 -12 35 -18 19 -6 42 -19 51 -27 10 -11 19 -12 26 -5 7 7 21 4 46 -8 74
-36 106 -48 115 -43 4 2 16 1 25 -3 9 -4 22 -8 27 -9 13 -2 43 -13 80 -30 17
-8 52 -21 80 -30 27 -9 55 -21 61 -26 6 -5 18 -7 27 -3 8 3 18 1 22 -5 3 -6
17 -11 31 -11 13 0 24 -5 24 -10 0 -9 38 -29 65 -34 6 -1 15 -4 20 -8 6 -3 34
-13 64 -22 30 -9 66 -24 80 -33 28 -19 81 -41 121 -50 13 -4 47 -21 75 -39 67
-42 154 -84 177 -84 10 0 18 -4 18 -10 0 -5 7 -7 15 -4 8 4 26 -1 40 -10 13
-9 34 -16 45 -16 11 0 28 -4 38 -10 9 -5 42 -18 72 -29 30 -11 80 -29 110 -40
30 -12 62 -19 71 -16 9 3 22 -1 29 -10 7 -8 23 -15 36 -15 13 0 24 -4 24 -10
0 -5 3 -9 8 -8 13 4 196 -44 227 -60 17 -8 38 -21 47 -29 11 -10 30 -14 55
-11 21 3 65 2 98 -3 33 -4 143 -10 245 -14 102 -3 209 -10 238 -16 30 -6 62
-9 72 -6 10 3 37 1 60 -3 23 -4 58 -4 78 1 20 4 41 4 47 -1 5 -4 69 -9 140
-10 72 -1 164 -3 205 -3 41 -1 140 3 220 10 124 10 298 17 337 14 6 -1 14 -9
16 -18 4 -14 5 -14 6 3 1 16 10 23 34 28 47 11 179 20 280 21 48 0 87 3 87 6
0 4 21 10 48 14 26 4 52 10 57 15 13 10 81 20 190 26 50 3 97 8 105 11 8 3 29
7 45 9 17 1 59 10 95 18 36 9 92 18 125 20 33 3 98 14 145 25 74 17 136 26
265 36 48 4 259 28 360 42 61 8 282 19 350 16 195 -5 372 -17 401 -27 11 -3
62 -10 114 -16 52 -6 111 -13 130 -16 19 -3 49 -6 65 -8 80 -8 132 -20 148
-34 12 -10 17 -11 17 -3 0 9 11 10 38 6 20 -3 66 -10 102 -15 36 -6 101 -17
145 -25 44 -9 103 -20 130 -25 72 -13 108 -21 125 -27 8 -3 34 -7 57 -9 23 -2
55 -9 70 -17 15 -8 47 -18 71 -22 23 -4 63 -18 88 -31 25 -13 50 -24 57 -24 7
0 25 -7 41 -15 16 -9 35 -14 42 -11 7 3 18 -2 25 -10 7 -9 21 -13 31 -11 19 5
77 -7 113 -23 111 -51 135 -63 135 -70 0 -3 -24 -5 -52 -3 -29 1 -78 -5 -108
-13 -85 -24 -121 -32 -170 -39 -24 -3 -49 -10 -55 -15 -6 -5 -29 -13 -50 -19
-94 -22 -232 -60 -258 -70 -96 -38 -300 -67 -437 -63 -8 0 -28 1 -45 1 -26 1
-51 -1 -105 -8 -5 0 -10 -7 -10 -13 0 -7 -14 -21 -31 -30 -45 -26 -36 -55 31
-94 30 -18 60 -37 65 -42 6 -4 25 -13 42 -20 42 -14 225 -153 252 -191 12 -16
21 -39 21 -50 0 -12 4 -21 8 -21 5 0 31 -35 59 -77 51 -79 79 -145 69 -162 -4
-5 0 -11 6 -14 7 -2 10 -8 6 -12 -12 -12 -155 35 -231 76 -10 5 -22 7 -28 3
-5 -3 -16 0 -24 6 -8 7 -15 9 -15 6 0 -4 -6 -4 -12 1 -7 4 -53 13 -103 20
-118 15 -180 28 -235 52 -55 23 -103 37 -152 45 -21 4 -42 15 -47 25 -10 17
-28 18 -283 15 -397 -4 -608 -11 -651 -22 -20 -6 -39 -7 -42 -3 -7 13 -157 2
-265 -20 -58 -11 -125 -22 -150 -24 -43 -4 -88 -13 -190 -37 -42 -9 -128 -39
-175 -59 -11 -5 -34 -11 -50 -13 -17 -1 -46 -10 -65 -19 -42 -19 -253 -77
-280 -77 -10 0 -22 -5 -25 -11 -4 -6 -19 -7 -35 -4 -15 3 -31 2 -34 -4 -4 -5
-28 -13 -54 -16 -26 -4 -58 -11 -72 -16 -14 -4 -45 -9 -70 -10 -25 -1 -54 -7
-65 -13 -42 -23 -236 -67 -290 -66 -57 1 -72 -1 -143 -17 -35 -7 -71 -12 -80
-9 -39 12 -271 4 -293 -10 -24 -14 -92 -22 -123 -13 -19 6 -52 5 -85 -1 -46
-8 -57 -7 -73 7 -10 9 -18 11 -18 5 0 -7 -41 -10 -123 -9 -102 2 -124 5 -123
17 1 9 -8 15 -24 15 -14 1 -55 9 -92 19 -60 17 -70 17 -110 3 -36 -12 -49 -12
-67 -2 -13 6 -35 11 -49 9 -15 -1 -30 2 -34 9 -4 6 -33 15 -65 19 -181 24
-235 34 -242 46 -4 7 -32 17 -62 21 -30 4 -76 17 -102 30 -37 18 -63 22 -128
22 -52 0 -91 5 -109 14 -15 8 -30 12 -33 9 -7 -7 -67 23 -97 50 -31 28 -108
57 -146 55 -28 -2 -124 21 -134 31 -3 3 -23 11 -45 18 -22 7 -69 26 -105 42
-63 28 -165 56 -243 67 -20 3 -40 9 -43 14 -3 5 -14 9 -25 9 -10 0 -19 3 -19
8 0 19 -128 59 -219 68 -28 3 -58 15 -79 31 -34 26 -144 62 -190 63 -12 0 -45
11 -72 24 -28 14 -65 28 -83 32 -33 7 -41 10 -95 37 -19 9 -45 17 -58 17 -13
0 -24 5 -24 10 0 6 -4 10 -10 10 -5 0 -43 16 -84 35 -41 19 -80 35 -85 35 -6
0 -39 9 -73 19 -35 10 -97 29 -138 41 -41 13 -88 22 -105 22 -16 -1 -58 12
-93 29 -34 16 -75 29 -90 29 -15 0 -32 4 -37 9 -10 9 -69 20 -130 24 -16 1
-36 8 -44 15 -7 7 -20 11 -28 8 -8 -3 -28 1 -45 10 -17 9 -39 13 -50 11 -11
-3 -30 -2 -42 3 -13 4 -38 11 -57 15 -19 4 -46 9 -61 12 -16 3 -28 12 -28 19
0 9 -11 14 -29 14 -17 0 -32 4 -35 9 -3 5 -23 11 -43 14 -78 11 -207 39 -224
48 -10 5 -31 9 -46 9 -16 0 -34 5 -39 10 -6 6 -77 13 -160 16 -168 6 -181 7
-424 28 -249 22 -350 15 -546 -40 -28 -8 -62 -14 -75 -14 -13 0 -42 -7 -64
-15 -62 -22 -75 -20 -62 10 7 14 15 25 19 25 8 0 48 68 48 82 0 6 16 33 36 61
56 77 67 118 66 232 -1 55 -6 125 -12 155 -6 30 -12 65 -13 77 -1 12 -8 28
-14 35 -7 6 -13 20 -13 30 0 10 -7 18 -15 18 -9 0 -18 7 -21 15 -4 8 -11 15
-18 15 -14 1 -76 57 -76 70 0 5 -10 10 -22 10 -37 0 -138 23 -138 32 0 4 -11
8 -25 8 -14 0 -33 8 -42 18 -10 9 -22 17 -28 18 -19 1 -70 16 -100 29 -16 8
-52 22 -78 31 -26 9 -50 21 -53 25 -3 5 -14 9 -25 9 -10 0 -19 5 -19 10 0 6
-12 10 -27 10 -37 0 -249 201 -239 226 4 10 12 14 22 10 15 -6 74 22 74 35 0
4 21 10 47 14 26 4 59 13 73 20 14 7 73 19 130 26 62 7 112 18 122 27 10 9 27
12 41 8 13 -3 27 -2 31 2 4 4 29 8 54 10 69 4 94 8 122 19 26 11 470 10 597
-1z m-6750 -122 c-3 -3 -12 -4 -19 -1 -8 3 -5 6 6 6 11 1 17 -2 13 -5z m259
-62 c0 -17 5 -36 11 -44 6 -7 14 -38 18 -69 7 -53 6 -56 -16 -62 -13 -4 -27
-3 -32 2 -10 10 -20 189 -11 202 11 19 29 2 30 -29z m-128 -119 l20 -73 -36
-10 c-80 -22 -92 -12 -84 68 4 37 10 47 41 66 20 13 37 23 37 22 1 0 11 -34
22 -73z m-202 -35 c4 -29 8 -55 8 -58 1 -3 -20 -6 -45 -8 -45 -2 -47 -1 -53
29 -11 58 -8 68 27 78 54 15 56 14 63 -41z m5444 -25 c0 -4 13 -18 30 -32 25
-22 31 -35 34 -80 3 -30 3 -58 0 -63 -3 -4 -23 1 -44 12 -22 11 -46 20 -55 20
-9 0 -14 3 -12 8 3 4 1 30 -3 57 -5 28 -6 68 -3 91 l5 41 24 -24 c13 -13 24
-27 24 -30z m-5645 11 c5 -16 15 -33 22 -37 7 -4 13 -12 13 -17 0 -10 -59 -24
-68 -16 -7 8 -12 88 -5 99 9 15 28 1 38 -29z m3577 -9 c45 -3 112 -7 148 -9
36 -2 72 -6 80 -9 32 -12 88 -19 175 -22 50 -2 113 -8 140 -15 28 -6 65 -11
84 -10 35 1 108 -13 171 -32 19 -6 64 -15 100 -19 84 -10 155 -24 204 -39 22
-7 54 -10 71 -7 24 4 34 0 44 -15 10 -16 20 -19 50 -15 21 2 48 -1 62 -8 15
-8 30 -10 40 -4 9 4 19 5 23 2 4 -4 14 -8 22 -9 9 -1 31 -10 49 -18 18 -9 62
-19 97 -22 34 -3 81 -11 103 -19 52 -17 110 -29 160 -31 49 -2 62 -6 150 -37
39 -14 108 -31 155 -37 46 -6 89 -14 94 -17 5 -4 32 -8 60 -9 28 -1 85 -5 126
-8 41 -4 92 -7 112 -9 20 -1 40 -6 44 -10 4 -4 17 -7 29 -7 11 0 26 -5 33 -12
7 -7 15 -8 24 -1 19 15 102 16 164 2 52 -12 54 -14 68 -58 8 -25 17 -60 19
-76 6 -33 -15 -186 -31 -225 -13 -33 -106 -130 -124 -130 -8 0 -23 -9 -33 -20
-10 -11 -23 -20 -30 -20 -6 0 -21 -9 -34 -21 -12 -12 -28 -22 -34 -23 -7 -1
-38 -14 -71 -29 -32 -15 -62 -27 -67 -27 -5 0 -9 -4 -9 -9 0 -5 -8 -12 -17
-15 -31 -11 -83 -41 -116 -66 -52 -40 -147 -141 -147 -156 0 -8 -4 -14 -10
-14 -16 0 -24 -51 -10 -60 10 -6 10 -17 -1 -54 -7 -25 -17 -46 -21 -46 -4 0
-8 -16 -8 -35 0 -32 2 -35 30 -35 20 0 30 5 30 15 0 7 7 18 16 23 9 5 28 31
43 58 21 40 32 50 56 52 21 3 39 16 60 42 17 21 44 46 60 56 17 9 33 23 38 30
12 20 34 6 46 -28 6 -16 13 -82 17 -146 6 -109 5 -119 -14 -140 -12 -13 -18
-30 -15 -38 3 -8 0 -14 -5 -14 -6 0 -13 -10 -17 -22 -18 -67 -38 -96 -80 -117
-23 -12 -49 -19 -58 -16 -8 4 -38 -1 -66 -11 -34 -11 -65 -14 -92 -10 -43 7
-220 61 -256 78 -11 6 -26 7 -32 4 -6 -4 -11 -3 -11 2 0 5 -22 10 -48 10 -27
1 -66 9 -86 17 -21 9 -61 18 -90 19 -82 6 -137 18 -143 32 -3 9 -15 11 -33 7
-16 -3 -45 1 -67 8 -21 7 -40 14 -43 14 -3 1 -12 4 -20 8 -18 7 -63 17 -110
24 -19 3 -40 10 -47 15 -7 5 -29 9 -50 8 -21 -1 -41 -1 -45 0 -5 2 -12 3 -17
4 -5 0 -13 4 -17 8 -4 4 -13 3 -21 -3 -9 -8 -17 -8 -26 0 -8 6 -16 9 -19 6 -2
-3 -55 2 -117 10 -61 8 -155 14 -209 14 -53 -1 -99 0 -102 1 -3 1 -14 3 -25 5
-128 22 -216 24 -540 10 -104 -5 -209 -8 -232 -8 -24 1 -51 2 -60 2 -10 0 -88
1 -173 2 -138 2 -266 5 -325 9 -60 4 -391 -12 -455 -21 -41 -7 -111 -13 -155
-15 -98 -5 -139 -9 -285 -27 -208 -27 -235 -30 -267 -31 -17 0 -35 -4 -39 -8
-4 -5 -26 -8 -48 -8 -23 0 -57 -5 -77 -10 -19 -5 -65 -11 -102 -12 -38 -2 -69
-8 -71 -14 -3 -7 -26 -12 -54 -12 -27 0 -58 -5 -70 -11 -11 -6 -38 -11 -59
-11 -21 0 -63 -6 -93 -14 -64 -17 -188 -35 -292 -42 -40 -3 -86 -7 -103 -8
-16 -1 -43 -8 -60 -15 -16 -7 -59 -14 -95 -16 -64 -3 -180 -21 -296 -45 -80
-17 -77 -16 -98 -25 -10 -5 -26 -4 -35 2 -10 6 -25 7 -40 1 -42 -15 -141 -21
-155 -8 -10 7 -16 8 -21 0 -7 -11 -34 -8 -88 9 -18 5 -59 15 -92 22 -57 11
-87 27 -142 77 -31 28 -28 59 16 179 66 182 73 215 68 320 -3 54 -9 113 -13
132 l-7 34 34 -7 c18 -3 45 -17 59 -30 14 -13 33 -26 43 -29 9 -4 17 -11 17
-17 0 -5 7 -10 17 -10 9 0 30 -10 47 -22 17 -13 47 -31 67 -41 27 -14 47 -38
75 -88 22 -38 44 -69 51 -69 6 0 23 -14 37 -31 19 -23 33 -30 53 -27 25 3 28
6 25 38 -2 19 -13 66 -24 103 -16 52 -31 77 -62 107 -60 57 -88 80 -97 80 -4
0 -30 20 -58 44 -29 24 -82 56 -119 72 -37 15 -85 40 -107 55 -22 15 -68 42
-102 60 -64 35 -153 112 -153 133 0 7 -9 30 -19 52 -39 80 -56 156 -54 249 1
86 14 148 30 143 18 -5 133 14 138 22 4 6 17 10 31 10 13 0 51 9 83 21 33 11
66 19 73 17 7 -1 22 3 33 9 11 6 45 14 75 17 30 4 65 12 77 18 16 8 30 8 45 1
13 -6 32 -7 43 -3 17 6 125 15 300 25 28 1 67 10 87 18 21 9 40 12 43 7 3 -4
26 -6 52 -4 142 10 210 14 323 19 160 6 250 15 250 23 0 4 44 7 98 7 53 0 115
4 137 9 22 5 65 8 95 7 30 -1 69 3 87 8 17 5 47 6 65 2 29 -7 153 0 268 14 19
3 41 4 48 4 67 -3 101 -2 192 4 58 5 152 14 210 22 111 15 163 20 352 35 65 5
122 12 128 15 5 3 10 2 10 -4 0 -11 52 -7 100 9 21 7 120 13 245 15 213 3 395
12 403 19 2 3 19 -2 37 -10 18 -7 71 -16 117 -19z m-3719 -12 c-2 -16 6 -24
29 -32 38 -13 31 -23 -21 -28 -38 -4 -39 -3 -43 31 -5 44 0 58 21 54 10 -2 15
-12 14 -25z m-126 -48 c7 -20 3 -23 -35 -31 -27 -6 -32 -4 -32 13 0 11 3 23 7
26 12 13 54 7 60 -8z m6118 -67 c18 -8 25 -19 25 -39 0 -15 5 -31 11 -35 23
-14 -8 -23 -44 -12 -35 11 -37 13 -33 47 3 20 5 39 5 44 1 10 6 9 36 -5z m208
-101 c41 -35 38 -37 -49 -28 -13 1 -25 37 -16 45 12 12 40 5 65 -17z m-17553
-583 c0 -10 -7 -14 -22 -12 -32 5 -35 28 -4 28 17 0 26 -5 26 -16z"/>
<path d="M4253 1144 c-7 -18 12 -34 40 -34 26 0 21 25 -8 38 -21 10 -27 9 -32
-4z"/>
<path d="M25390 1570 c0 -5 -7 -7 -15 -4 -8 4 -15 1 -15 -5 0 -11 20 -15 48
-12 8 1 20 -6 28 -16 8 -10 13 -13 14 -6 0 7 -8 22 -17 33 -18 21 -43 27 -43
10z"/>
<path d="M25510 1001 c0 -11 29 -35 35 -29 10 9 -7 38 -21 38 -8 0 -14 -4 -14
-9z"/>
<path d="M15370 2380 c-8 -5 -27 -10 -41 -10 -17 0 -44 -18 -84 -55 -32 -30
-64 -55 -72 -55 -16 0 -93 -76 -93 -92 0 -5 -7 -16 -15 -24 -8 -9 -15 -30 -15
-48 0 -17 -5 -37 -11 -43 -19 -19 -7 -138 18 -165 11 -13 33 -46 49 -75 16
-29 41 -58 59 -67 139 -74 205 -101 283 -117 24 -5 58 -16 75 -25 59 -31 67
-34 83 -34 22 0 94 -58 94 -76 0 -8 -7 -17 -15 -20 -8 -4 -15 -14 -15 -25 0
-13 -11 -21 -39 -29 -21 -5 -54 -20 -72 -33 -69 -47 -208 -58 -276 -22 -43 22
-49 34 -25 51 21 14 20 45 -1 72 -12 15 -130 16 -159 1 -11 -6 -46 -13 -76
-15 -64 -5 -97 -29 -104 -75 -4 -27 0 -33 36 -51 34 -17 47 -19 82 -11 41 10
45 8 74 -22 39 -40 133 -89 180 -93 19 -2 87 -4 150 -4 98 -1 122 2 163 21 26
12 47 26 47 31 0 6 9 10 19 10 11 0 23 5 26 10 3 5 16 10 28 10 46 1 97 64
113 141 12 57 11 64 -9 103 -45 86 -166 173 -272 196 -94 20 -171 42 -179 50
-6 6 -20 10 -32 10 -21 0 -61 29 -127 93 -25 24 -29 33 -24 64 4 19 13 43 22
53 8 9 15 26 15 37 0 11 3 23 7 26 4 4 14 29 23 55 19 55 56 78 142 88 56 7
80 -4 158 -66 14 -11 30 -20 35 -20 15 -1 49 -32 70 -63 18 -28 18 -28 -6 -45
-13 -9 -26 -17 -29 -18 -66 -16 -68 -17 -74 -46 -8 -41 6 -62 52 -77 33 -11
47 -11 74 -1 33 13 87 25 168 39 25 4 55 13 67 19 12 7 32 12 45 13 13 0 33
13 47 30 l24 30 -34 29 c-31 27 -39 29 -99 26 l-65 -4 -22 51 c-12 29 -25 65
-29 80 -3 15 -22 40 -42 55 -20 15 -50 40 -66 55 -41 37 -102 63 -167 71 -30
4 -70 9 -89 12 -19 2 -42 0 -50 -6z"/>
<path d="M14160 2265 c-66 -24 -158 -37 -179 -25 -26 14 -74 13 -89 -2 -13
-13 -16 -86 -4 -105 9 -14 120 -34 127 -23 3 4 15 5 28 3 27 -5 57 -78 57
-136 0 -20 5 -48 10 -62 11 -30 16 -64 55 -384 14 -117 23 -216 20 -220 -4 -3
-32 -8 -63 -11 -31 -3 -57 -9 -57 -15 -1 -5 -4 -20 -8 -31 -9 -25 9 -78 23
-69 5 3 12 -6 16 -20 6 -23 10 -26 33 -20 57 16 76 14 94 -8 l17 -22 28 33
c15 18 36 32 49 32 12 0 25 5 28 10 3 6 21 10 40 10 19 0 37 5 40 10 3 6 21
10 40 10 19 0 45 4 59 10 22 8 26 16 26 51 0 53 -22 73 -60 54 -28 -14 -183
-29 -161 -16 9 6 12 21 8 52 -3 24 -13 116 -21 204 -17 171 -34 251 -67 316
-14 29 -17 44 -10 53 6 8 8 48 5 107 -7 106 1 123 60 126 46 2 46 2 46 18 0 8
5 15 10 15 16 0 12 37 -6 54 -19 19 -140 20 -194 1z"/>
<path d="M13942 1321 c-20 -12 -10 -46 13 -49 32 -4 52 14 39 35 -13 21 -33
27 -52 14z"/>
</g>
</svg>
