<?xml version="1.0" standalone="no"?>
<!DOCTYPE svg PUBLIC "-//W3C//DTD SVG 20010904//EN"
 "http://www.w3.org/TR/2001/REC-SVG-20010904/DTD/svg10.dtd">
<svg version="1.0" xmlns="http://www.w3.org/2000/svg"
 width="43200.000000pt" height="1521.126761pt" viewBox="0 0 43200.000000 1521.126761"
 preserveAspectRatio="xMidYMid meet">
<metadata>
Created by potrace 1.11, written by Peter Selinger 2001-2013
</metadata>
<g transform="translate(0.000000,1521.126761) scale(1.448692,-1.448692)"
fill="#000000" stroke="none">
<path d="M16370 1040 c30 -19 95 -22 131 -7 34 15 33 15 -56 16 -61 0 -85 -2
-75 -9z"/>
<path d="M17153 1043 c9 -2 23 -2 30 0 6 3 -1 5 -18 5 -16 0 -22 -2 -12 -5z"/>
<path d="M26416 857 c-34 -34 -43 -90 -22 -133 28 -59 96 -71 162 -28 52 34
64 54 57 97 -4 29 -13 38 -50 57 -24 12 -62 24 -83 27 -32 5 -43 1 -64 -20z"/>
<path d="M28574 845 c-30 -33 -33 -40 -30 -91 4 -64 13 -74 72 -74 35 0 47 6
87 45 26 26 48 59 52 77 10 46 -31 78 -99 78 -43 0 -53 -4 -82 -35z"/>
<path d="M29104 826 c-27 -12 -30 -18 -29 -56 1 -53 30 -80 86 -80 59 0 77 52
40 115 -20 35 -51 41 -97 21z"/>
<path d="M29473 790 c2 -22 6 -42 9 -45 12 -12 -5 -45 -23 -45 -27 0 -32 -17
-6 -24 38 -10 72 -7 94 9 25 17 22 37 -9 71 -14 16 -16 23 -7 26 17 6 -25 48
-47 48 -12 0 -14 -9 -11 -40z"/>
<path d="M22208 788 c-39 -24 -88 -103 -88 -141 0 -42 26 -65 83 -72 60 -8
126 15 169 58 26 26 42 74 27 83 -5 3 -9 13 -9 23 0 63 -112 93 -182 49z"/>
<path d="M28050 776 c-16 -20 -9 -57 14 -70 14 -8 20 -8 23 2 3 6 8 10 13 7 5
-3 12 5 16 17 5 16 1 27 -16 40 -27 22 -34 22 -50 4z"/>
<path d="M28348 766 c-24 -10 -25 -13 -10 -23 15 -10 12 -12 -15 -12 -27 -1
-34 -6 -39 -28 -6 -21 -2 -31 20 -50 15 -13 31 -23 35 -23 10 0 81 71 81 81 0
3 -9 14 -19 23 -11 10 -17 24 -14 32 6 17 -2 17 -39 0z"/>
<path d="M25902 738 c2 -15 10 -23 23 -23 13 0 21 8 23 23 3 18 -1 22 -23 22
-22 0 -26 -4 -23 -22z"/>
<path d="M15123 716 c-39 -18 -83 -81 -83 -121 0 -40 56 -86 97 -81 49 6 63
17 73 57 6 21 15 41 20 44 5 3 1 28 -9 58 -20 58 -41 68 -98 43z"/>
<path d="M18468 709 c-23 -25 -23 -61 2 -108 23 -46 39 -54 82 -39 64 20 86
77 51 128 -24 35 -33 40 -78 39 -26 0 -46 -7 -57 -20z"/>
<path d="M23140 720 c0 -6 -12 -23 -26 -37 -28 -28 -26 -45 9 -67 41 -26 97
43 66 80 -18 22 -49 37 -49 24z"/>
<path d="M27890 720 c0 -6 -12 -15 -26 -20 -19 -7 -25 -16 -22 -33 3 -19 9
-22 48 -22 43 0 45 1 43 28 -2 34 -43 79 -43 47z"/>
<path d="M27337 702 c-33 -20 -31 -41 5 -61 35 -20 78 -2 78 32 0 46 -35 59
-83 29z"/>
<path d="M26938 685 c-21 -27 -15 -51 13 -58 50 -13 78 23 42 55 -31 26 -38
26 -55 3z"/>
<path d="M25263 680 c-36 -14 -29 -48 12 -66 44 -18 42 -18 49 12 14 55 -9 75
-61 54z"/>
<path d="M23721 654 c-27 -34 -27 -36 10 -56 37 -22 65 -11 75 29 5 19 2 30
-11 40 -28 20 -51 16 -74 -13z"/>
<path d="M24552 663 c-35 -17 -45 -56 -16 -67 62 -24 112 26 66 67 -16 14 -20
14 -50 0z"/>
<path d="M11449 662 c-8 -4 -28 -17 -43 -29 -28 -22 -28 -23 -13 -60 13 -32
21 -39 55 -46 49 -10 108 14 98 39 -3 9 -6 21 -6 28 0 17 -50 76 -64 75 -6 0
-18 -3 -27 -7z"/>
<path d="M10815 650 c-10 -16 5 -29 35 -32 19 -2 25 2 25 17 0 14 -8 21 -27
23 -14 2 -29 -2 -33 -8z"/>
<path d="M5715 637 c-38 -48 -38 -57 0 -103 36 -44 58 -54 70 -33 4 5 17 9 30
7 24 -3 65 26 65 47 0 7 -9 20 -20 30 -11 10 -20 23 -20 28 0 32 -103 51 -125
24z"/>
<path d="M18860 636 c0 -10 9 -16 21 -16 24 0 21 23 -4 28 -10 2 -17 -3 -17
-12z"/>
<path d="M21733 619 c-23 -8 -32 -50 -15 -75 26 -40 142 -27 142 17 0 44 -74
78 -127 58z"/>
<path d="M22643 606 c-4 -8 -17 -15 -27 -17 -29 -6 -29 -23 1 -36 60 -28 103
-7 82 41 -13 28 -43 35 -56 12z"/>
<path d="M8597 602 c-52 -7 -113 -125 -76 -148 6 -3 42 -8 79 -9 66 -3 69 -2
79 24 20 51 24 81 10 81 -7 0 -24 13 -38 28 -19 21 -33 27 -54 24z"/>
<path d="M18820 584 c-11 -28 -6 -44 14 -44 22 0 34 23 25 48 -11 29 -27 28
-39 -4z"/>
<path d="M1031 586 c-44 -12 -83 -57 -61 -71 5 -3 10 -17 10 -30 0 -41 83 -51
116 -12 30 35 44 65 38 81 -5 13 -49 48 -56 45 -2 -1 -23 -7 -47 -13z"/>
<path d="M10805 570 c-13 -20 4 -60 25 -60 11 0 20 -6 20 -14 0 -28 47 -54 82
-47 27 6 33 12 34 34 1 31 -12 44 -54 56 -20 6 -34 5 -41 -2 -6 -6 -12 -7 -12
-1 -1 5 -2 16 -3 24 -1 18 -41 26 -51 10z"/>
<path d="M14596 555 c-22 -33 -21 -75 2 -77 55 -5 57 -4 63 32 12 65 -32 96
-65 45z"/>
<path d="M491 546 c-11 -20 -10 -27 5 -45 30 -35 84 -22 84 20 0 18 -40 49
-63 49 -7 0 -19 -11 -26 -24z"/>
<path d="M17493 563 c-14 -5 -17 -42 -5 -59 14 -21 40 -23 58 -3 16 18 16 20
-10 44 -15 14 -28 25 -29 24 -1 0 -8 -3 -14 -6z"/>
<path d="M19040 555 c-31 -38 51 -109 85 -74 10 10 12 24 7 49 -7 31 -12 35
-43 38 -24 2 -40 -2 -49 -13z"/>
<path d="M2831 553 c-35 -7 -62 -43 -55 -73 3 -13 19 -35 35 -48 16 -14 26
-30 22 -36 -4 -6 0 -6 9 2 8 7 22 10 30 7 8 -3 27 6 42 22 22 22 26 33 22 58
-11 51 -52 77 -105 68z"/>
<path d="M15522 538 c-17 -17 -15 -44 4 -62 21 -22 31 -20 50 9 16 24 16 27
-1 45 -21 23 -36 25 -53 8z"/>
<path d="M18012 538 c-32 -32 2 -79 43 -60 25 12 30 27 19 56 -7 19 -45 21
-62 4z"/>
<path d="M21145 517 c-31 -49 12 -109 66 -92 27 9 35 52 16 84 -21 36 -61 39
-82 8z"/>
<path d="M19869 498 c-7 -13 -6 -28 3 -48 26 -60 94 -25 81 42 -4 22 -10 26
-40 25 -23 -1 -38 -7 -44 -19z"/>
<path d="M5217 491 c-3 -12 -1 -21 3 -21 5 0 10 -12 12 -26 4 -34 27 -49 61
-40 23 5 27 12 27 40 0 40 -12 52 -61 61 -31 6 -37 4 -42 -14z"/>
<path d="M14053 500 c-27 -11 -40 -54 -22 -76 7 -9 24 -14 43 -12 27 3 31 7
34 36 3 30 -11 63 -27 61 -3 0 -16 -4 -28 -9z"/>
<path d="M20454 492 c-13 -9 -10 -70 5 -85 11 -11 64 -12 81 -2 18 11 11 57
-12 76 -22 19 -55 24 -74 11z"/>
<path d="M1428 483 c-10 -2 -18 -11 -18 -19 0 -23 28 -71 45 -77 35 -14 63 19
45 54 -6 10 -7 19 -3 19 4 0 -2 7 -13 15 -20 15 -27 16 -56 8z"/>
<path d="M10360 475 c-16 -19 -8 -40 24 -61 29 -18 76 -12 76 10 0 19 -50 66
-70 66 -10 0 -23 -7 -30 -15z"/>
<path d="M13420 476 c0 -8 -10 -16 -22 -18 -29 -4 -35 -34 -12 -59 33 -37 66
-21 77 39 5 24 3 32 -8 32 -8 0 -15 5 -15 10 0 6 -4 10 -10 10 -5 0 -10 -6
-10 -14z"/>
<path d="M16810 465 c-17 -21 3 -68 27 -63 23 4 40 57 22 69 -20 13 -35 11
-49 -6z"/>
<path d="M9620 430 c-15 -46 -8 -60 31 -60 25 0 29 4 29 28 0 17 -9 36 -24 49
l-24 21 -12 -38z"/>
<path d="M12829 451 c-23 -19 -23 -21 -9 -48 13 -22 23 -28 50 -28 34 0 35 1
34 39 -2 56 -33 71 -75 37z"/>
<path d="M16238 456 c-24 -18 -23 -53 1 -66 33 -17 52 -2 49 39 -3 39 -22 49
-50 27z"/>
<path d="M9203 440 c3 -11 1 -23 -4 -26 -5 -3 -9 -18 -9 -33 0 -38 31 -47 59
-17 27 29 26 35 -4 69 -30 32 -49 35 -42 7z"/>
<path d="M1964 435 c-11 -27 3 -42 40 -43 43 -2 60 23 31 44 -25 18 -64 18
-71 -1z"/>
<path d="M12017 433 c-20 -10 -27 -21 -27 -43 0 -24 6 -32 33 -43 43 -18 64
-11 71 25 10 49 8 56 -22 66 -21 7 -35 6 -55 -5z"/>
<path d="M2390 391 c0 -21 5 -31 15 -31 8 0 15 -8 15 -17 0 -15 4 -13 20 7 29
37 22 64 -17 68 -31 3 -33 1 -33 -27z"/>
<path d="M3364 413 c-16 -3 -23 -14 -27 -39 -10 -61 15 -87 70 -72 50 13 56
52 13 89 -18 16 -33 28 -34 28 0 -1 -11 -4 -22 -6z"/>
<path d="M8848 396 c-15 -33 -4 -56 27 -56 28 0 34 25 15 61 -14 26 -28 24
-42 -5z"/>
<path d="M4008 379 c-23 -13 -23 -50 0 -56 10 -2 22 -14 28 -26 6 -15 17 -21
33 -19 60 6 69 55 16 90 -38 24 -52 26 -77 11z"/>
<path d="M4523 383 c-17 -6 -16 -28 2 -43 8 -7 13 -16 10 -20 -2 -4 1 -15 8
-24 17 -24 61 -12 76 20 15 33 15 32 -21 54 -33 20 -51 23 -75 13z"/>
<path d="M8202 378 c-16 -16 -15 -28 2 -28 12 0 12 -7 4 -36 -13 -48 0 -61 41
-44 25 10 31 19 31 41 0 19 -5 29 -15 29 -8 0 -15 7 -15 15 0 21 -34 37 -48
23z"/>
<path d="M7294 345 c-15 -23 -15 -27 0 -50 21 -33 81 -36 91 -5 10 30 -4 60
-32 71 -35 13 -41 12 -59 -16z"/>
<path d="M7809 368 c0 -2 -2 -22 -4 -46 -3 -44 13 -72 41 -72 18 0 54 36 54
54 0 25 -41 66 -66 66 -13 0 -24 -1 -25 -2z"/>
<path d="M20805 360 c-9 -15 4 -30 25 -30 24 0 36 20 19 31 -19 12 -36 11 -44
-1z"/>
<path d="M6762 318 c-16 -16 -15 -43 1 -56 6 -5 31 -13 55 -17 42 -7 42 -7 42
23 0 24 -7 34 -32 46 -37 19 -50 20 -66 4z"/>
<path d="M6197 306 c-27 -21 -20 -90 10 -94 15 -2 27 5 39 23 16 25 16 29 2
53 -20 32 -28 35 -51 18z"/>
<path d="M1673 3 c9 -2 23 -2 30 0 6 3 -1 5 -18 5 -16 0 -22 -2 -12 -5z"/>
</g>
</svg>
