<?xml version="1.0" standalone="no"?>
<!DOCTYPE svg PUBLIC "-//W3C//DTD SVG 20010904//EN"
 "http://www.w3.org/TR/2001/REC-SVG-20010904/DTD/svg10.dtd">
<svg version="1.0" xmlns="http://www.w3.org/2000/svg"
 width="43200.000000pt" height="6849.455477pt" viewBox="0 0 43200.000000 6849.455477"
 preserveAspectRatio="xMidYMid meet">
<metadata>
Created by potrace 1.11, written by Peter Selinger 2001-2013
</metadata>
<g transform="translate(0.000000,6849.455477) scale(1.383728,-1.383728)"
fill="#000000" stroke="none">
<path d="M10585 4850 c-10 -12 -25 -18 -32 -16 -12 5 -39 -13 -85 -56 -10 -10
-22 -18 -26 -18 -5 0 -27 -19 -50 -42 -55 -57 -102 -98 -113 -98 -5 0 -9 -7
-9 -15 0 -8 -7 -15 -15 -15 -8 0 -15 -7 -15 -15 0 -8 -4 -15 -9 -15 -5 0 -12
-9 -16 -19 -3 -11 -15 -23 -25 -26 -10 -3 -21 -14 -24 -23 -3 -9 -28 -42 -56
-72 -27 -30 -49 -60 -50 -67 0 -7 -9 -17 -20 -23 -11 -6 -20 -19 -20 -30 0
-21 -37 -112 -49 -120 -12 -8 -41 -67 -41 -85 0 -8 -2 -15 -5 -15 -10 0 -44
34 -40 40 6 10 -94 57 -140 65 -22 4 -49 12 -60 18 -20 10 -212 21 -348 18
-114 -1 -125 -18 -122 -176 3 -137 15 -275 26 -297 5 -9 13 -45 18 -80 5 -35
21 -89 36 -121 43 -96 52 -92 -195 -94 -118 -1 -237 -4 -263 -7 -26 -3 -238
-8 -470 -12 -448 -6 -544 -8 -782 -18 -82 -3 -247 -9 -365 -12 -233 -7 -302
-10 -310 -14 -14 -7 -117 -5 -127 3 -7 5 -13 6 -13 1 0 -5 -26 -9 -57 -9 -32
-1 -110 -4 -173 -9 -63 -4 -134 -9 -158 -10 -23 -2 -45 1 -48 6 -3 4 -14 3
-25 -2 -11 -6 -38 -11 -62 -10 -23 0 -69 -2 -102 -4 -33 -3 -116 -8 -185 -11
-230 -11 -390 -26 -490 -45 -30 -6 -80 -13 -110 -16 -30 -3 -75 -9 -100 -13
-25 -5 -72 -9 -104 -10 -33 -1 -64 -5 -69 -8 -7 -4 -186 -13 -572 -28 -49 -2
-200 -6 -335 -9 -135 -3 -360 -8 -500 -11 -435 -10 -683 -15 -745 -13 -153 4
-428 0 -505 -7 -138 -12 -333 -9 -359 4 -17 10 -30 10 -49 2 -16 -7 -75 -10
-147 -8 l-120 3 0 129 c0 100 -4 137 -16 160 -9 17 -20 46 -24 65 -4 19 -13
44 -19 55 -17 26 -57 143 -61 177 -2 14 -8 35 -13 45 -29 58 -62 135 -62 147
0 47 -91 62 -130 21 -13 -14 -29 -25 -36 -25 -6 0 -17 -7 -24 -15 -7 -8 -21
-15 -30 -15 -10 0 -31 -6 -47 -14 -15 -8 -53 -22 -83 -32 -30 -10 -66 -24 -80
-31 -14 -7 -30 -13 -37 -13 -7 0 -28 -9 -48 -20 -34 -19 -65 -18 -65 3 0 6 -9
29 -19 51 -11 23 -27 57 -35 76 -32 69 -77 144 -101 166 -14 13 -25 29 -25 36
0 7 -16 28 -35 47 -19 18 -33 37 -30 40 5 8 -23 34 -54 51 -12 6 -21 17 -21
25 0 8 -4 15 -10 15 -5 0 -24 16 -42 35 -49 53 -58 63 -58 73 0 17 -190 202
-208 202 -5 0 -34 18 -65 41 -32 22 -62 37 -67 34 -6 -3 -10 -39 -10 -78 0
-63 3 -75 21 -87 95 -65 289 -249 289 -273 0 -6 24 -36 52 -67 148 -159 194
-215 216 -260 7 -14 32 -62 57 -108 25 -46 45 -88 45 -94 0 -5 6 -24 14 -41
26 -59 45 -127 41 -148 -2 -11 2 -31 9 -42 7 -12 21 -61 30 -109 31 -159 22
-265 -18 -240 -6 3 -42 7 -80 8 -72 3 -103 21 -92 51 3 7 2 13 -3 13 -4 0 -13
35 -19 78 -27 182 -39 222 -93 334 -5 10 -9 25 -9 33 0 9 -18 44 -40 79 -22
35 -40 70 -40 78 0 9 -7 21 -15 28 -8 7 -15 19 -15 26 0 7 -11 21 -25 30 -14
9 -25 24 -25 34 0 10 -6 23 -14 29 -8 6 -19 25 -26 41 -7 17 -19 30 -26 30 -8
0 -14 7 -14 15 0 8 -7 15 -15 15 -8 0 -15 4 -15 8 0 5 -18 27 -40 50 -22 22
-40 45 -40 50 0 9 -25 33 -89 84 -11 10 -21 17 -22 15 0 -1 -3 -26 -6 -56 -8
-84 2 -111 60 -171 62 -65 157 -189 157 -205 0 -6 12 -22 26 -36 28 -25 74
-109 74 -132 0 -8 6 -20 14 -26 8 -7 18 -27 22 -44 3 -17 10 -38 15 -47 26
-50 50 -110 53 -136 2 -16 9 -44 15 -63 6 -19 9 -37 6 -41 -2 -3 2 -26 9 -51
13 -48 14 -54 3 -86 -8 -21 -11 -22 -205 -22 -108 -1 -208 -3 -222 -5 -14 -2
-28 -5 -32 -5 -5 -1 -8 -57 -8 -126 l0 -124 67 -88 c36 -48 80 -104 97 -124
17 -20 42 -50 56 -68 14 -18 39 -47 56 -65 17 -18 40 -46 50 -62 10 -16 27
-35 36 -42 10 -7 18 -17 18 -22 0 -5 10 -20 23 -32 12 -13 36 -41 52 -63 17
-21 37 -46 45 -54 9 -9 29 -34 45 -56 53 -72 168 -195 183 -195 5 0 48 -37 95
-82 150 -147 229 -218 239 -218 6 0 8 -7 4 -15 -3 -8 0 -15 7 -15 7 0 25 -16
41 -35 16 -19 33 -35 38 -35 5 0 21 -11 36 -25 15 -13 45 -40 67 -60 22 -20
73 -60 113 -88 39 -28 72 -54 72 -59 0 -4 7 -8 15 -8 8 0 15 -4 15 -10 0 -5 7
-10 15 -10 9 0 31 -16 51 -35 19 -19 38 -35 43 -35 4 0 18 -11 31 -25 13 -14
29 -25 35 -25 7 0 20 -10 31 -21 10 -12 62 -50 114 -86 52 -35 131 -89 175
-119 44 -31 100 -67 125 -80 25 -14 59 -33 75 -44 17 -11 39 -24 50 -29 12 -5
27 -16 34 -25 7 -9 18 -16 23 -16 11 0 72 -42 76 -52 2 -5 8 -8 14 -8 6 0 29
-13 53 -29 24 -16 62 -32 84 -36 23 -4 54 -18 68 -31 14 -13 32 -24 40 -24 8
0 55 -20 104 -45 49 -25 95 -45 102 -45 7 0 35 -12 62 -25 28 -14 54 -25 58
-25 4 0 24 -7 45 -16 20 -9 44 -18 52 -19 31 -6 56 -13 95 -28 22 -8 60 -20
85 -28 25 -7 49 -16 54 -21 6 -4 20 -8 33 -8 13 0 26 -7 30 -16 3 -8 11 -13
18 -11 16 7 123 -19 140 -33 8 -6 19 -9 25 -5 6 3 24 -1 42 -9 17 -9 39 -16
50 -16 10 0 26 -4 36 -10 31 -17 184 -51 317 -70 72 -10 162 -24 200 -30 39
-6 90 -13 115 -15 25 -3 86 -11 135 -19 50 -9 136 -16 193 -16 56 0 148 -7
205 -16 116 -18 630 -26 732 -11 292 41 388 57 545 88 98 20 102 21 135 32 24
7 61 15 135 28 30 6 59 14 65 19 5 4 28 11 50 15 22 4 86 20 143 36 56 16 110
29 120 29 10 0 26 6 37 13 11 7 47 19 80 27 61 13 221 89 353 167 41 24 78 43
84 43 5 0 31 14 56 31 25 17 55 35 66 40 12 6 32 16 46 24 14 8 34 15 46 15
12 0 36 10 55 23 42 28 70 41 87 38 6 -1 12 3 12 9 0 5 8 10 19 10 10 0 24 6
30 14 7 8 23 17 38 21 14 3 39 19 55 36 17 16 44 37 62 45 17 9 72 47 123 85
50 38 96 69 102 69 6 0 15 9 21 20 6 11 17 20 25 20 8 0 18 6 22 13 7 12 29
25 125 74 15 8 30 18 33 24 4 5 15 9 26 9 10 0 19 7 19 15 0 8 5 15 12 15 12
0 121 79 126 92 2 4 11 8 20 8 10 0 26 14 37 30 11 16 23 30 27 30 4 0 24 16
45 35 21 19 46 38 55 41 9 3 19 13 22 22 3 9 22 28 41 41 19 13 35 27 35 32 0
5 7 9 15 9 8 0 15 5 15 11 0 6 7 9 14 6 10 -4 13 -1 9 8 -3 9 4 18 21 25 14 5
26 13 26 18 0 7 99 112 131 138 26 22 109 111 109 118 0 4 17 23 38 42 107
103 133 130 138 147 3 10 17 22 30 27 13 5 24 15 24 22 0 7 16 24 35 37 47 32
95 82 95 98 0 7 4 13 10 13 5 0 49 41 97 90 48 50 93 90 100 90 7 0 15 10 18
23 4 12 22 33 41 47 19 14 45 33 57 43 12 10 35 28 50 40 15 12 40 33 56 47
15 14 51 46 79 72 29 26 52 51 52 55 0 5 14 14 31 22 17 7 35 24 41 37 6 13
20 26 30 30 11 3 53 39 94 80 41 41 79 74 85 74 5 0 23 14 40 31 17 17 33 28
37 24 4 -4 8 -28 8 -53 14 -447 14 -438 -28 -470 -9 -7 -15 -19 -11 -28 3 -8
-1 -22 -10 -32 -8 -9 -22 -44 -32 -76 -9 -32 -23 -69 -31 -81 -8 -13 -14 -27
-12 -31 5 -18 -26 -84 -40 -84 -7 0 -10 -5 -7 -11 4 -6 -2 -20 -13 -32 -19
-21 -39 -56 -62 -106 -6 -14 -22 -35 -35 -47 -14 -13 -25 -32 -25 -44 0 -11
-4 -20 -10 -20 -26 0 -5 -52 50 -125 34 -44 68 -95 77 -114 9 -19 29 -41 45
-50 15 -9 28 -20 28 -25 0 -5 6 -17 14 -25 21 -24 56 -90 56 -106 0 -8 9 -15
20 -15 12 0 20 -7 20 -16 0 -24 53 -95 97 -131 38 -30 40 -35 51 -115 6 -45
14 -114 17 -151 2 -37 7 -71 9 -76 3 -4 6 -25 7 -47 1 -21 6 -52 12 -67 7 -20
7 -31 -2 -40 -14 -14 -15 -64 -1 -72 18 -11 49 15 55 48 10 55 21 187 15 187
-9 0 -2 242 9 290 6 25 24 72 41 104 16 32 30 65 30 72 0 7 9 19 21 28 14 9
27 40 40 88 26 99 38 137 56 177 8 18 15 50 16 70 0 51 -35 171 -64 221 -5 8
-14 27 -20 43 -6 15 -15 27 -19 27 -5 0 -11 13 -15 30 -4 16 -11 30 -16 30
-15 0 -70 83 -64 97 2 8 1 12 -4 9 -9 -6 -58 59 -86 114 -10 19 -21 37 -25 40
-22 16 -28 57 -25 194 1 82 -1 162 -5 178 -5 15 -5 28 -1 28 8 0 5 134 -4 158
-2 6 -1 12 4 12 4 0 9 39 10 87 1 78 11 113 31 113 14 0 58 -51 75 -85 9 -19
23 -35 31 -35 8 0 13 -4 10 -8 -3 -5 12 -26 32 -48 56 -59 98 -116 106 -141 4
-13 12 -23 18 -23 6 0 8 -9 5 -20 -3 -11 -2 -18 3 -15 7 4 100 -125 100 -139
0 -6 33 -47 67 -83 12 -12 24 -31 28 -43 3 -11 26 -44 51 -74 24 -30 44 -60
44 -66 0 -6 7 -13 15 -16 8 -4 15 -12 15 -20 0 -7 9 -18 20 -24 11 -6 20 -17
20 -26 0 -8 7 -17 15 -21 9 -3 25 -23 36 -45 11 -22 34 -54 51 -71 17 -18 37
-42 45 -54 8 -12 23 -25 33 -28 10 -3 21 -17 24 -30 3 -13 15 -29 26 -35 11
-6 20 -17 20 -25 0 -8 7 -15 16 -15 10 0 14 -5 10 -16 -3 -8 -2 -12 4 -9 5 3
21 -11 37 -31 15 -20 36 -44 47 -53 10 -9 30 -28 44 -43 14 -16 31 -28 39 -28
7 0 13 -7 13 -15 0 -8 7 -15 15 -15 8 0 15 -5 15 -10 0 -12 90 -100 102 -100
4 0 8 -3 8 -7 0 -12 116 -123 128 -123 12 0 55 -50 42 -50 -6 0 -8 -5 -5 -10
5 -8 11 -8 20 0 10 8 16 8 22 -2 4 -7 33 -33 63 -58 30 -24 63 -52 73 -62 10
-10 24 -18 32 -18 8 0 15 -4 15 -9 0 -13 110 -93 160 -117 8 -4 17 -10 20 -13
3 -4 22 -15 43 -26 21 -11 50 -32 64 -48 15 -15 32 -27 39 -27 7 0 23 -11 36
-24 13 -13 43 -34 68 -47 25 -13 49 -30 53 -36 4 -7 36 -26 70 -43 74 -36 99
-54 90 -64 -4 -4 0 -4 8 -1 18 7 151 -53 144 -65 -3 -4 3 -6 13 -3 11 2 31 -6
48 -20 16 -13 47 -32 69 -41 74 -32 110 -50 140 -72 17 -11 53 -29 80 -39 28
-10 79 -32 115 -50 36 -18 76 -36 90 -40 14 -4 29 -13 35 -20 5 -6 30 -20 55
-30 25 -11 47 -22 50 -26 3 -3 31 -14 62 -23 32 -9 79 -28 105 -42 27 -14 68
-32 93 -40 25 -9 61 -22 80 -30 64 -28 75 -32 118 -44 24 -6 46 -9 50 -6 3 3
11 1 18 -5 12 -10 85 -32 219 -65 127 -32 210 -57 220 -65 5 -5 30 -9 56 -9
26 0 49 -4 51 -9 2 -6 37 -12 78 -16 41 -3 98 -10 125 -15 28 -5 113 -16 190
-25 77 -9 158 -20 180 -25 22 -4 90 -13 150 -20 61 -6 166 -17 235 -25 216
-24 306 -28 640 -26 296 2 591 19 689 39 20 4 73 7 118 7 46 0 84 4 86 8 3 11
102 37 137 37 26 0 104 23 155 46 17 7 48 16 70 20 22 4 78 24 124 45 46 22
94 39 107 39 12 0 25 4 28 9 3 4 27 14 53 21 27 7 53 17 58 21 6 4 33 13 60
19 28 6 59 15 70 20 11 5 47 20 80 34 64 27 119 43 200 56 64 10 210 76 310
139 22 14 54 32 70 41 17 9 39 21 50 27 11 6 47 24 80 39 65 30 67 30 139 70
45 23 103 61 116 74 3 3 21 13 40 22 50 25 94 52 98 60 2 5 14 8 27 8 13 0 54
21 92 46 37 25 94 59 126 76 31 17 63 38 70 47 12 18 23 24 162 94 44 22 82
43 85 46 8 10 94 66 113 73 9 4 17 12 17 18 0 5 6 10 13 10 7 0 19 9 27 20 8
11 20 20 26 20 7 0 23 12 36 27 13 16 36 34 51 42 15 8 38 29 51 46 24 30 128
137 178 181 12 11 30 29 39 40 9 10 25 26 35 35 10 9 39 40 64 69 25 29 55 63
68 77 12 13 22 28 22 33 0 5 8 11 18 14 10 4 29 24 43 46 13 22 28 40 33 40
10 0 66 61 66 73 0 4 7 7 15 7 8 0 27 18 41 40 15 22 31 40 35 40 5 0 9 4 9
10 0 9 58 110 69 120 18 16 101 132 101 140 0 5 15 20 33 32 19 12 39 34 46
50 7 16 18 34 25 41 25 26 73 93 79 110 4 9 11 17 17 17 5 0 10 6 10 14 0 8 9
18 20 21 11 4 30 24 43 46 12 21 28 39 35 39 7 0 15 7 18 15 16 41 24 -11 24
-158 1 -89 5 -181 9 -205 7 -37 5 -48 -14 -77 -13 -18 -21 -36 -18 -39 3 -3
-2 -23 -11 -46 -9 -22 -16 -53 -16 -69 0 -16 -7 -36 -15 -45 -8 -8 -15 -21
-15 -28 0 -7 -13 -30 -30 -49 -16 -20 -40 -66 -54 -103 -14 -37 -32 -74 -41
-82 -8 -9 -15 -25 -15 -38 0 -12 -4 -26 -8 -31 -17 -20 -53 -131 -47 -147 4
-9 2 -19 -4 -23 -6 -3 -11 -27 -11 -52 0 -41 4 -50 47 -89 26 -24 53 -44 60
-44 12 0 17 -12 14 -32 0 -4 11 -16 24 -26 14 -11 25 -24 25 -30 0 -5 18 -29
40 -53 95 -106 110 -125 110 -140 0 -9 7 -20 15 -23 9 -3 23 -22 31 -41 8 -19
19 -35 24 -35 6 0 18 -16 27 -35 9 -19 22 -35 30 -35 15 0 33 -32 33 -60 0
-11 8 -35 17 -53 21 -39 43 -193 29 -207 -6 -6 -5 -15 3 -24 6 -7 16 -38 21
-67 33 -181 42 -209 63 -209 14 0 16 384 3 501 -6 47 -4 78 5 103 7 20 15 36
19 36 3 0 6 14 7 31 1 17 6 36 11 43 5 6 12 27 16 47 4 21 13 42 21 49 8 7 15
24 15 39 0 14 7 35 15 45 8 11 15 26 15 34 0 8 6 28 14 45 8 18 19 55 26 82 7
28 19 70 28 95 15 46 17 94 5 114 -4 6 -6 21 -4 34 1 13 -2 28 -7 35 -5 7 -13
27 -17 46 -4 18 -18 49 -31 68 -13 20 -24 42 -24 49 0 8 -5 14 -10 14 -6 0
-15 11 -20 25 -5 14 -14 25 -20 25 -5 0 -10 8 -10 18 0 9 -13 30 -30 45 -16
16 -30 33 -30 38 0 6 -9 20 -20 31 -11 12 -25 37 -32 55 -7 18 -18 33 -25 33
-6 0 -20 17 -29 37 -10 21 -24 42 -31 46 -7 4 -13 14 -13 22 0 8 -10 21 -22
29 -21 15 -21 22 -25 281 -4 246 -3 266 13 272 11 4 20 1 22 -6 4 -13 22 -35
84 -103 15 -17 25 -35 21 -41 -3 -5 -1 -7 4 -4 10 6 113 -103 113 -119 0 -5 9
-17 19 -29 66 -70 81 -87 81 -95 0 -5 11 -21 25 -36 14 -15 25 -33 25 -40 0
-8 6 -14 14 -14 8 0 16 -6 18 -14 3 -15 108 -136 176 -203 23 -24 42 -45 42
-47 0 -2 23 -28 52 -58 29 -29 51 -56 50 -60 -1 -4 11 -20 26 -35 15 -16 41
-46 57 -67 44 -57 122 -136 134 -136 6 0 15 -8 20 -17 18 -32 109 -117 188
-175 23 -17 46 -44 52 -59 5 -16 17 -29 25 -29 9 0 16 -4 16 -8 0 -5 12 -15
27 -23 15 -8 36 -23 48 -34 41 -39 73 -63 119 -90 25 -15 46 -31 46 -36 0 -5
9 -9 20 -9 11 0 20 -6 20 -12 0 -7 17 -21 38 -30 20 -10 55 -33 76 -53 22 -19
46 -35 53 -35 7 0 13 -4 13 -10 0 -5 7 -10 15 -10 8 0 15 -4 15 -10 0 -5 16
-16 35 -24 19 -8 38 -22 41 -31 3 -8 13 -15 20 -15 22 0 94 -51 94 -66 0 -9
11 -14 29 -14 16 0 31 -6 35 -15 3 -8 13 -15 22 -15 9 0 29 -11 46 -25 16 -14
38 -25 49 -25 10 0 19 -7 19 -16 0 -8 15 -22 33 -30 46 -22 79 -41 86 -51 3
-4 26 -18 51 -31 82 -43 125 -67 130 -73 3 -4 24 -17 48 -29 23 -12 44 -26 47
-30 3 -5 27 -16 53 -25 61 -22 113 -46 133 -63 9 -7 31 -15 49 -17 18 -2 39
-10 46 -16 8 -7 17 -9 21 -6 3 4 15 0 27 -8 11 -8 32 -15 47 -15 15 0 29 -7
32 -15 4 -8 18 -14 34 -13 15 0 69 -14 118 -32 50 -18 122 -40 161 -50 39 -10
80 -23 92 -29 11 -6 31 -11 44 -11 13 0 32 -6 43 -14 11 -7 60 -19 110 -25 49
-7 94 -16 100 -21 11 -8 79 -19 133 -19 19 -1 31 -5 27 -11 -4 -6 16 -10 52
-11 32 0 81 -3 108 -5 242 -19 367 -25 568 -24 235 0 278 2 377 19 30 5 89 14
130 21 41 7 84 17 95 23 11 5 56 16 100 24 43 8 82 18 86 24 3 5 31 11 62 12
30 1 55 6 54 12 -1 5 13 11 32 12 18 1 38 6 44 12 6 6 18 11 27 11 8 0 27 6
42 14 15 8 42 17 60 21 18 4 47 13 63 19 17 7 63 23 103 36 39 13 72 29 72 35
0 7 19 15 43 18 23 3 66 18 94 32 29 14 59 25 67 25 7 0 19 6 25 13 6 8 29 20
51 27 22 7 40 17 40 21 0 4 15 11 33 14 17 4 37 11 42 15 6 4 21 11 35 15 32
10 93 37 207 91 50 24 98 42 105 39 7 -3 29 6 48 20 19 14 41 25 51 25 9 0 22
7 29 15 7 8 18 15 24 15 6 0 34 12 61 25 28 14 58 25 67 25 9 0 29 12 45 26
15 14 40 28 55 31 15 3 28 11 28 18 0 7 11 16 25 19 14 4 25 11 25 16 0 6 8
10 17 10 9 0 27 10 39 21 27 26 51 40 121 73 28 14 56 33 61 43 7 12 23 17 51
17 25 1 41 6 41 13 0 7 14 19 30 28 25 13 30 22 30 50 0 33 3 37 60 63 33 15
60 33 60 40 0 7 14 12 36 12 35 0 94 26 94 42 0 5 11 13 25 18 14 5 25 14 25
19 0 5 17 20 38 32 45 28 115 80 124 94 3 6 36 34 72 64 36 30 66 60 66 66 0
7 11 17 25 23 14 6 25 18 25 27 0 8 6 15 14 15 7 0 26 18 41 40 15 22 36 42
46 45 11 4 26 20 34 36 9 16 51 65 95 109 44 44 80 85 80 89 0 5 18 29 40 53
22 23 42 51 45 61 4 9 11 17 16 17 12 0 58 51 59 65 1 17 70 86 80 80 6 -3 7
1 4 9 -4 11 2 19 20 26 14 5 26 15 26 22 0 17 43 78 55 78 6 0 17 9 25 20 8
11 18 20 22 20 5 0 39 32 77 70 38 39 66 70 63 70 -4 0 27 32 68 70 41 38 78
70 82 70 3 0 16 16 28 35 12 19 26 35 31 35 12 0 43 31 97 99 25 31 50 61 56
66 46 40 56 67 56 150 l0 82 -51 5 c-29 3 -66 2 -83 -3 -48 -12 -173 -29 -257
-36 l-76 -6 -6 38 c-7 41 5 116 25 160 7 16 31 48 53 71 22 24 47 51 56 61 18
20 67 63 73 63 9 0 66 59 66 67 0 6 10 14 23 20 21 10 74 55 155 131 34 32 35
34 34 113 -1 44 -4 84 -8 90 -6 11 -25 -4 -133 -111 -87 -85 -148 -140 -156
-140 -3 0 -30 -25 -61 -55 -31 -30 -61 -55 -65 -55 -5 0 -9 -7 -9 -15 0 -8 -9
-15 -20 -15 -45 0 -127 -131 -155 -247 -9 -39 -14 -81 -10 -94 5 -15 4 -19 -4
-15 -8 5 -10 -4 -5 -33 5 -31 3 -41 -7 -42 -43 -5 -106 -6 -120 -2 -23 5 -30
64 -19 138 6 33 13 80 17 104 6 45 95 233 123 261 7 7 29 42 37 59 3 7 26 33
49 58 24 25 51 57 60 72 9 15 26 31 37 37 12 5 31 23 42 41 11 18 26 32 33 33
6 0 12 7 12 15 0 8 8 15 18 15 21 1 52 23 52 39 0 6 7 11 14 11 8 0 28 12 43
26 15 15 40 31 56 36 15 6 27 16 27 24 0 8 7 14 15 14 9 0 18 6 21 14 6 15 99
50 112 42 4 -2 7 29 7 70 0 43 -4 74 -10 74 -28 -1 -99 -29 -110 -43 -7 -9
-17 -17 -22 -17 -6 0 -28 -12 -49 -28 -21 -15 -51 -33 -65 -40 -14 -8 -41 -27
-60 -43 -19 -16 -48 -36 -65 -44 -16 -8 -48 -33 -70 -57 -22 -24 -65 -66 -95
-95 -30 -28 -66 -64 -80 -80 -15 -15 -45 -45 -67 -66 -22 -22 -46 -52 -53 -68
-6 -16 -14 -27 -17 -24 -3 2 -11 0 -19 -6 -10 -9 -13 -8 -13 5 0 10 -5 14 -10
11 -6 -4 -31 12 -56 34 -25 22 -62 45 -82 52 -21 6 -47 17 -59 25 -23 15 -125
32 -188 33 -22 0 -66 7 -98 16 -32 8 -62 15 -67 15 -19 0 -41 -77 -46 -160 -3
-47 -10 -96 -14 -110 -14 -39 -22 -223 -11 -271 5 -24 12 -81 16 -126 6 -75 5
-82 -13 -87 -11 -4 -229 -8 -485 -10 -256 -2 -471 -7 -477 -11 -6 -4 -41 -9
-77 -11 -36 -2 -71 -8 -77 -13 -13 -11 -74 -20 -141 -22 -27 -1 -58 -6 -68
-11 -11 -5 -56 -11 -100 -13 -45 -1 -102 -5 -127 -8 -25 -4 -116 -9 -203 -11
-86 -3 -161 -7 -165 -10 -20 -12 -635 -22 -654 -10 -6 4 -112 8 -237 10 -482
8 -612 13 -627 25 -8 6 -14 7 -14 3 0 -13 -197 -20 -450 -16 -25 0 -61 0 -80
0 -19 0 -66 0 -105 1 -38 0 -162 0 -275 -2 -113 -1 -286 -1 -385 1 -99 2 -189
3 -200 2 -11 -1 -56 0 -100 2 -44 3 -90 1 -102 -4 -13 -4 -33 -4 -45 1 -21 7
-135 1 -242 -13 -42 -5 -175 -13 -352 -21 -100 -4 -163 -9 -434 -31 -47 -4
-121 -7 -165 -6 -198 3 -230 4 -236 8 -3 2 0 45 7 96 18 127 9 206 -32 293
-12 28 -26 73 -30 100 -3 28 -10 52 -14 55 -4 3 -13 25 -20 49 -14 54 -53 138
-78 170 -17 21 -24 23 -67 16 -27 -3 -58 -13 -69 -20 -12 -8 -43 -19 -71 -26
-27 -6 -58 -16 -69 -21 -12 -7 -22 -6 -28 0 -7 7 -15 6 -24 -3 -8 -7 -35 -21
-61 -31 -27 -9 -57 -26 -69 -36 -41 -36 -49 -27 -80 80 -2 8 -13 16 -24 19
-11 3 -22 13 -25 23 -11 36 -317 334 -400 390 -53 36 -111 82 -117 95 -5 7
-29 23 -55 35 -27 12 -56 26 -65 31 -37 19 -65 10 -102 -36 -21 -25 -42 -45
-47 -45 -9 0 -158 -126 -229 -193 -75 -71 -180 -201 -180 -223 0 -4 -8 -14
-17 -23 -18 -17 -38 -45 -50 -71 -4 -8 -12 -21 -19 -27 -7 -7 -14 -18 -16 -25
-3 -8 -22 1 -55 25 -57 41 -152 89 -165 81 -4 -3 -8 1 -8 9 0 10 -11 13 -37
12 -21 -1 -53 4 -72 11 -18 8 -37 11 -43 8 -5 -3 -15 -1 -22 5 -14 12 -22 14
-127 30 -31 5 -67 15 -80 22 -38 20 -87 17 -98 -6 -15 -32 -23 -58 -27 -85
-29 -204 -31 -354 -7 -439 8 -31 18 -77 22 -103 4 -25 12 -52 18 -60 6 -7 13
-26 15 -42 l3 -29 -78 2 c-43 1 -99 5 -125 7 -26 3 -96 7 -157 9 -145 4 -226
15 -218 28 4 7 0 8 -13 2 -32 -13 -67 -18 -62 -9 4 5 -82 10 -200 12 -126 2
-211 7 -219 14 -7 5 -18 8 -25 5 -7 -2 -58 -1 -113 4 -55 5 -104 9 -110 9 -5
1 -59 1 -120 1 -207 -1 -490 8 -550 17 -33 5 -69 7 -80 3 -11 -3 -47 -5 -80
-4 -198 7 -307 14 -360 21 -33 5 -79 8 -102 8 -24 -1 -43 2 -43 5 0 4 -9 5
-20 2 -11 -3 -27 0 -35 7 -8 6 -19 9 -25 5 -11 -7 -315 17 -450 36 -62 8 -386
14 -480 8 -49 -3 -361 11 -371 16 -5 4 -14 3 -21 -1 -14 -9 -16 -9 -288 8
-107 7 -239 11 -292 10 -75 -3 -98 0 -98 10 -1 8 -6 6 -15 -6 -11 -15 -17 -17
-29 -7 -8 7 -17 8 -20 3 -4 -6 -22 -6 -48 0 -24 5 -98 7 -165 4 -86 -4 -123
-2 -123 6 0 7 -4 7 -13 0 -7 -6 -26 -10 -42 -10 -17 1 -38 -2 -49 -7 -11 -5
-26 -4 -37 3 -12 8 -19 8 -21 1 -3 -10 -112 -13 -711 -22 -55 -1 -101 2 -104
7 -3 4 -9 3 -12 -3 -7 -11 -271 -24 -436 -20 -106 2 -101 2 -235 -9 -58 -5
-117 -5 -132 -1 -16 4 -49 6 -75 3 -72 -7 -319 -7 -330 -1 -5 3 -43 5 -84 5
-41 0 -153 4 -249 11 -96 6 -241 11 -322 11 -81 0 -149 4 -152 8 -3 5 2 28 10
52 12 34 14 70 9 159 -8 157 -8 155 -17 162 -5 3 -11 23 -15 45 -3 21 -18 66
-34 99 -15 33 -30 75 -34 94 -4 19 -24 51 -45 73 -35 35 -43 38 -94 38 -31 0
-56 -4 -56 -10 0 -5 -9 -10 -19 -10 -11 0 -22 -4 -25 -9 -7 -10 -80 -20 -206
-27 -52 -4 -106 -12 -120 -19 -92 -48 -140 -54 -140 -16 0 10 -7 24 -15 31 -8
7 -15 18 -15 25 0 7 -7 15 -15 19 -8 3 -15 12 -15 21 0 8 -4 15 -10 15 -5 0
-10 7 -10 14 0 8 -17 27 -37 43 -21 15 -59 49 -85 75 -26 26 -52 48 -57 48 -6
0 -11 7 -11 15 0 9 -8 19 -17 22 -10 4 -29 17 -43 30 -14 13 -29 23 -33 23 -5
0 -7 7 -3 15 3 9 0 15 -8 15 -7 0 -34 18 -59 40 -25 22 -48 40 -52 40 -3 0
-20 13 -37 29 -18 17 -43 35 -57 42 -56 25 -104 51 -111 60 -3 3 -15 11 -27
18 -13 6 -23 18 -23 26 0 22 -34 18 -55 -5z m77 -185 c20 -14 42 -25 47 -25 6
0 11 -5 11 -10 0 -6 12 -16 28 -23 26 -11 38 -20 65 -43 7 -5 19 -13 27 -17
33 -15 96 -68 192 -159 10 -10 23 -18 28 -18 6 0 10 -7 10 -15 0 -8 6 -15 13
-15 16 0 115 -97 122 -121 4 -11 11 -19 16 -19 5 0 9 -5 9 -12 0 -6 9 -21 20
-33 11 -12 22 -31 25 -43 2 -11 10 -31 18 -44 8 -13 24 -61 37 -108 12 -47 28
-103 35 -125 14 -44 39 -261 30 -274 -2 -5 -60 -8 -127 -7 l-121 1 -4 55 c-1
30 -6 66 -9 80 -4 14 -6 29 -5 33 1 5 -10 31 -24 59 -14 28 -24 57 -21 64 3 7
-2 15 -10 18 -8 3 -14 17 -14 31 0 14 -7 28 -15 31 -8 4 -15 10 -15 15 0 11
-4 16 -50 69 -16 19 -30 40 -30 47 0 7 -6 13 -12 13 -7 0 -20 15 -29 33 -9 17
-31 43 -50 55 -19 13 -33 30 -33 38 1 7 -2 12 -6 9 -4 -3 -31 18 -59 45 -28
28 -58 50 -66 50 -8 0 -15 4 -15 9 0 19 -32 41 -59 41 -29 0 -81 -37 -81 -58
0 -7 -5 -12 -11 -12 -14 0 -84 -79 -123 -139 -45 -69 -53 -82 -77 -131 -12
-25 -30 -57 -40 -72 -11 -15 -19 -43 -19 -65 0 -21 -5 -44 -11 -50 -7 -7 -11
-40 -11 -77 1 -36 -3 -68 -9 -72 -6 -4 -6 -11 2 -20 9 -11 9 -14 -1 -14 -9 0
-10 -3 -1 -14 12 -15 7 -94 -8 -109 -5 -5 -35 -9 -68 -10 -72 -1 -93 14 -99
74 -2 22 -10 63 -18 92 -8 30 -12 82 -10 122 2 39 3 91 3 117 0 29 12 75 32
125 17 43 35 87 39 98 39 104 157 286 200 310 10 6 33 30 52 55 18 25 44 49
56 55 12 5 22 13 22 17 0 5 7 8 15 8 7 0 18 6 22 13 17 27 109 97 128 97 11 0
37 -11 57 -25z m11013 -277 c19 -13 35 -29 35 -35 0 -7 7 -13 15 -13 7 0 18
-6 22 -13 7 -12 81 -71 147 -117 45 -32 247 -241 241 -250 -3 -6 0 -10 8 -10
17 0 107 -129 107 -153 0 -9 5 -19 10 -22 6 -3 10 -16 10 -28 0 -12 7 -35 15
-51 8 -15 15 -34 15 -41 0 -7 5 -15 10 -17 13 -4 59 -239 60 -303 l0 -50 -38
-4 c-98 -9 -181 -1 -191 18 -5 9 -11 57 -14 107 -5 85 -13 113 -58 209 -10 22
-23 52 -28 68 -6 15 -15 27 -21 27 -5 0 -10 7 -10 15 0 8 -9 24 -20 35 -11 11
-21 25 -22 31 -2 7 -19 28 -38 49 -19 20 -48 53 -65 73 -16 20 -34 36 -38 37
-5 0 -23 15 -40 33 -18 18 -45 41 -60 52 -16 11 -40 30 -53 43 -17 14 -38 22
-62 22 -34 0 -45 -9 -144 -112 -60 -62 -108 -119 -108 -125 0 -7 -4 -13 -10
-13 -5 0 -12 -11 -16 -25 -3 -14 -9 -25 -14 -25 -9 0 -60 -130 -60 -154 0 -10
-6 -32 -14 -49 -8 -18 -17 -52 -20 -77 -3 -25 -11 -80 -17 -122 l-12 -78 -55
0 c-44 0 -58 4 -73 22 -21 23 -24 49 -9 64 7 7 7 43 0 111 -9 90 -8 106 10
164 11 35 20 73 20 85 0 11 11 42 24 70 13 27 31 66 41 87 9 20 21 37 26 37 5
0 9 6 9 13 0 13 32 57 68 92 12 12 22 30 22 39 0 9 8 20 17 23 10 4 28 20 41
35 13 15 29 28 36 28 7 0 48 34 91 75 44 41 83 75 87 75 4 0 10 10 14 22 16
50 56 60 109 26z m-10933 -306 c21 -15 40 -35 43 -44 4 -10 12 -18 20 -18 7 0
21 -12 31 -27 9 -15 26 -37 37 -48 44 -46 65 -85 96 -178 18 -55 34 -104 36
-110 1 -7 5 -19 8 -27 10 -25 3 -69 -13 -76 -8 -4 -55 -9 -105 -10 -49 -2
-124 -6 -165 -9 -41 -3 -82 -6 -90 -6 -8 -1 -46 -8 -83 -15 -75 -15 -136 -18
-154 -6 -12 7 -36 150 -27 163 2 5 5 25 6 46 1 69 57 243 77 243 4 0 20 26 35
59 15 32 42 73 61 90 19 17 35 38 35 45 0 27 25 23 70 -11 25 -19 62 -46 82
-61z m1208 38 c0 -6 8 -23 17 -37 22 -33 43 -91 43 -118 0 -12 4 -25 9 -30 14
-15 41 -153 41 -211 0 -36 -4 -54 -14 -57 -10 -4 -16 -24 -18 -58 -3 -49 -4
-52 -33 -55 -40 -4 -53 10 -54 59 0 23 -7 68 -16 100 -8 32 -15 69 -15 82 0
13 -4 27 -10 30 -5 3 -10 15 -10 27 0 62 -80 115 -131 87 -13 -7 -37 -14 -54
-15 -65 -3 -132 -17 -163 -35 -19 -11 -38 -17 -43 -14 -5 3 -16 31 -25 61 -16
56 -9 84 20 84 6 0 17 9 23 19 18 29 96 49 208 55 109 5 162 14 171 27 7 13
54 11 54 -1z m-2325 -51 c66 -2 136 -23 210 -63 55 -29 60 -35 63 -69 4 -43
-10 -53 -51 -38 -15 6 -66 13 -114 17 -49 3 -89 10 -91 15 -2 5 -14 9 -26 9
-12 0 -27 5 -34 12 -9 9 -12 9 -12 0 0 -6 -18 -15 -39 -18 -58 -9 -65 -30 -58
-176 5 -91 13 -141 30 -193 13 -38 22 -75 20 -82 -8 -21 -71 19 -83 52 -6 17
-22 51 -35 76 -13 25 -24 54 -24 65 1 19 -5 50 -16 84 -19 58 -30 266 -17 300
l10 25 108 -7 c60 -4 132 -8 159 -9z m20421 -106 c54 -18 83 -32 80 -40 -3 -7
1 -10 8 -7 7 3 32 -14 56 -37 34 -33 41 -45 33 -58 -11 -17 -73 -29 -73 -14 0
14 -97 45 -146 47 -48 1 -49 0 -84 -75 -15 -32 -8 -243 10 -312 7 -26 10 -50
7 -53 -3 -3 -23 -8 -44 -11 -37 -5 -39 -4 -62 44 -13 26 -25 66 -26 88 -2 22
-8 60 -13 85 -6 25 -7 52 -2 60 5 8 4 22 -1 32 -10 18 -4 126 10 198 5 25 7
48 5 52 -24 39 124 39 242 1z m-9606 -12 c3 -4 23 -7 45 -7 80 -1 285 -50 305
-73 3 -3 19 -13 35 -22 17 -8 29 -22 29 -31 -1 -9 5 -14 15 -12 32 8 64 -40
55 -84 -6 -29 -7 -29 -35 -15 -16 8 -29 19 -29 25 0 6 -3 8 -7 5 -3 -4 -12 -2
-18 3 -7 6 -32 12 -56 14 -24 3 -57 10 -74 16 -39 15 -108 4 -130 -20 -16 -18
-17 -34 -11 -146 3 -70 10 -132 14 -138 7 -11 31 -93 32 -110 0 -14 -152 1
-161 16 -5 7 -9 23 -9 34 0 12 -7 24 -15 28 -8 3 -15 15 -15 27 0 23 -17 91
-31 124 -17 41 -28 180 -18 224 5 25 7 57 4 72 -4 17 0 40 10 59 13 25 20 30
38 24 12 -4 24 -10 27 -13z m1259 -73 c17 -15 31 -30 31 -35 1 -4 21 -24 46
-43 128 -100 231 -314 222 -460 l-3 -55 -35 -1 c-19 0 -44 3 -55 7 -11 3 -27
1 -37 -4 -12 -8 -31 -8 -65 0 -26 6 -91 12 -143 13 -52 1 -101 6 -107 12 -9 7
-18 7 -28 -2 -9 -8 -20 -9 -27 -3 -7 4 -38 8 -68 7 -93 -3 -94 -3 -86 80 6 67
22 131 51 201 7 17 18 48 25 70 20 64 61 146 76 152 8 3 14 11 14 17 0 7 23
34 51 60 l50 47 28 -18 c16 -10 42 -30 60 -45z m1121 -77 c7 -25 21 -68 32
-95 11 -28 22 -59 23 -70 2 -12 10 -40 19 -63 28 -76 36 -155 22 -224 -7 -34
-11 -70 -9 -79 3 -12 -3 -19 -22 -24 -15 -4 -30 -5 -33 -2 -3 3 -6 43 -8 88
-1 47 -9 99 -18 120 -9 21 -16 43 -16 49 0 21 -23 79 -32 79 -4 0 -12 18 -18
39 -13 48 -52 78 -97 75 -18 -1 -35 -3 -38 -4 -3 -1 -8 -3 -12 -5 -26 -7 -62
-25 -68 -35 -7 -11 -70 -40 -87 -40 -6 0 -8 6 -5 13 3 8 -2 28 -10 46 -16 31
-15 33 18 67 18 19 45 37 59 41 14 3 32 11 40 17 8 7 49 22 90 35 41 12 84 26
95 30 35 14 62 -7 75 -58z m-21325 -29 c9 -31 23 -70 30 -87 7 -16 16 -47 19
-67 4 -21 11 -38 16 -38 6 0 10 -7 10 -16 0 -8 12 -41 27 -72 25 -51 28 -69
30 -177 2 -107 0 -121 -17 -138 -15 -13 -25 -15 -38 -8 -12 6 -23 6 -28 1 -5
-5 -15 -5 -23 0 -11 6 -15 36 -18 112 -3 112 -19 204 -51 285 -32 83 -46 95
-108 94 -28 -1 -141 -59 -170 -88 -13 -13 -31 -23 -42 -23 -10 0 -23 -5 -30
-12 -17 -17 -28 -2 -40 56 -9 45 -8 52 11 76 12 15 40 35 62 44 22 10 48 22
57 27 10 5 25 9 33 9 8 0 32 9 52 20 21 11 48 20 60 20 12 0 25 5 29 11 3 6
15 9 25 6 11 -3 19 0 19 7 0 18 42 36 56 25 6 -5 19 -35 29 -67z m8190 14 c42
-2 81 -8 87 -14 6 -6 24 -8 40 -5 42 8 88 -37 88 -86 0 -20 5 -54 11 -76 21
-78 22 -95 8 -96 -8 -1 -43 -3 -79 -4 -36 -1 -69 -3 -75 -5 -5 -1 -29 -2 -52
-1 -29 1 -43 5 -43 15 0 7 -7 19 -15 26 -8 7 -12 16 -9 21 3 5 0 9 -5 9 -6 0
-11 8 -11 19 0 10 -7 38 -15 61 -21 59 -32 155 -17 146 7 -4 46 -8 87 -10z
m2097 -26 c7 -19 11 -39 10 -43 -1 -4 5 -21 13 -37 8 -16 15 -52 15 -79 l0
-51 -134 2 c-74 0 -140 4 -147 9 -8 5 -12 23 -10 48 1 22 -2 48 -8 59 -16 30
-3 56 43 85 29 18 57 27 87 28 24 0 52 4 62 8 39 15 57 7 69 -29z m18359 -86
c6 -8 18 -14 25 -14 12 0 13 -19 8 -102 -4 -57 -11 -106 -16 -109 -5 -3 -6
-13 -3 -21 8 -20 -16 -29 -55 -22 -39 8 -50 45 -56 184 l-4 105 45 -3 c24 -2
49 -10 56 -18z m-9392 -48 c27 -13 61 -26 75 -30 14 -3 26 -10 26 -15 0 -5 14
-12 30 -16 17 -4 30 -13 30 -21 0 -8 5 -14 11 -14 13 0 9 -173 -4 -186 -10
-10 -119 -7 -149 5 -17 6 -28 22 -37 53 -7 23 -17 50 -21 59 -5 9 -11 38 -15
65 -3 27 -11 62 -17 77 -9 23 -8 31 3 38 18 11 12 13 68 -15z m1938 -145 c29
-62 36 -149 14 -175 -9 -11 -10 -16 -2 -16 13 0 15 -26 3 -34 -5 -3 -50 0
-100 6 -107 14 -104 9 -105 136 -1 78 1 87 18 91 11 2 42 18 70 36 59 38 65
36 102 -44z m-21337 9 c38 -38 42 -60 41 -223 -1 -46 -6 -76 -18 -93 -16 -26
-19 -26 -102 -21 -127 8 -135 13 -147 100 -5 40 -8 90 -6 112 3 37 6 42 50 62
54 25 100 53 120 71 19 17 39 15 62 -8z m14772 -59 c59 -5 248 -13 420 -16
440 -8 609 -14 713 -25 50 -5 126 -10 170 -10 44 0 109 -5 145 -10 36 -6 94
-12 130 -15 119 -9 174 -14 245 -24 39 -4 136 -9 215 -9 80 0 186 -3 235 -6
50 -3 187 -9 305 -12 329 -9 376 -11 500 -21 63 -6 126 -10 140 -10 45 0 181
-13 189 -17 4 -3 69 -6 145 -7 75 -1 158 -5 184 -9 40 -7 114 -11 387 -24 28
-2 158 -4 290 -6 132 -1 301 -6 375 -11 229 -14 390 -21 503 -22 59 0 110 -4
113 -9 3 -4 10 -6 15 -3 17 11 9 -8 -28 -64 -36 -54 -50 -70 -167 -194 -31
-32 -64 -72 -73 -88 -10 -16 -21 -29 -25 -29 -4 0 -14 -12 -22 -27 -9 -16 -34
-48 -56 -73 -23 -25 -48 -58 -56 -73 -9 -16 -38 -56 -65 -90 -28 -34 -59 -78
-69 -97 -17 -33 -56 -82 -153 -193 -22 -26 -47 -45 -54 -43 -8 3 -13 -2 -13
-14 0 -11 -22 -42 -50 -70 -27 -28 -50 -55 -50 -60 0 -10 -11 -13 -40 -11 -10
0 -11 -1 -3 -5 17 -8 -1 -41 -26 -49 -11 -3 -22 -14 -25 -23 -3 -9 -28 -42
-56 -72 -27 -30 -50 -58 -50 -62 0 -5 -5 -8 -11 -8 -6 0 -28 -18 -49 -40 -21
-22 -42 -40 -46 -40 -3 0 -38 -32 -75 -71 -38 -40 -69 -69 -69 -66 0 2 -21
-15 -47 -39 -27 -24 -53 -44 -60 -44 -6 0 -30 -17 -52 -38 -43 -40 -131 -92
-156 -92 -8 0 -15 -7 -15 -15 0 -8 -7 -15 -15 -15 -9 0 -25 -9 -37 -20 -12
-11 -30 -20 -40 -20 -10 0 -44 -20 -77 -45 -32 -25 -66 -45 -75 -45 -9 0 -19
-6 -22 -14 -6 -15 -113 -72 -126 -68 -5 1 -8 -4 -8 -11 0 -15 -41 -37 -68 -37
-9 0 -28 -12 -41 -25 -13 -14 -40 -33 -60 -42 -20 -9 -38 -20 -41 -23 -3 -3
-34 -21 -70 -39 -36 -18 -72 -40 -81 -47 -8 -8 -21 -14 -28 -14 -7 0 -20 -7
-28 -16 -9 -8 -24 -13 -34 -11 -10 3 -25 -4 -35 -14 -9 -10 -21 -16 -26 -13
-5 4 -16 -3 -24 -15 -8 -12 -21 -21 -29 -21 -24 0 -84 -34 -85 -47 0 -7 -6
-13 -14 -13 -8 0 -54 -20 -103 -45 -48 -25 -95 -45 -103 -45 -16 0 -126 -43
-137 -54 -3 -3 -26 -6 -50 -6 -38 0 -78 -14 -165 -61 -10 -5 -26 -9 -36 -9
-11 0 -33 -7 -50 -16 -18 -8 -37 -12 -43 -8 -8 4 -9 3 -5 -4 4 -7 -4 -16 -21
-23 -15 -7 -43 -18 -61 -26 -19 -8 -42 -13 -52 -10 -11 3 -20 1 -22 -4 -2 -5
-21 -12 -43 -16 -22 -3 -47 -11 -55 -18 -8 -7 -33 -16 -54 -20 -22 -3 -51 -16
-65 -26 -15 -12 -34 -18 -46 -15 -12 3 -30 -1 -41 -9 -10 -8 -31 -15 -46 -15
-15 0 -30 -5 -33 -10 -3 -6 -19 -10 -34 -10 -15 0 -32 -5 -38 -11 -6 -6 -33
-12 -60 -14 -27 -2 -68 -11 -91 -21 -27 -10 -56 -14 -77 -11 -19 3 -35 2 -35
-2 0 -5 -26 -6 -57 -3 -95 9 -140 6 -244 -17 -37 -8 -106 -10 -205 -6 -82 3
-280 7 -440 9 -161 2 -296 6 -301 9 -14 9 -181 28 -282 33 -47 2 -100 9 -119
15 -18 6 -63 13 -100 14 -58 4 -94 8 -112 15 -3 1 -9 2 -14 1 -5 -1 -16 1 -25
5 -9 3 -43 8 -76 10 -119 8 -244 23 -265 32 -16 6 -115 29 -165 38 -16 3 -44
12 -62 20 -17 8 -45 14 -63 14 -17 0 -43 6 -58 13 -15 8 -54 19 -87 26 -33 7
-76 19 -95 26 -62 22 -103 33 -170 46 -77 14 -142 40 -172 69 -12 11 -33 20
-46 20 -24 0 -81 27 -94 45 -4 5 -20 11 -35 12 -26 2 -56 13 -93 34 -8 4 -44
22 -80 40 -36 17 -91 44 -123 60 -32 16 -65 29 -73 29 -22 0 -64 30 -64 46 0
10 -8 12 -30 8 -17 -4 -30 -2 -30 4 0 5 -26 20 -57 32 -32 13 -65 28 -73 35
-8 6 -31 18 -50 25 -19 7 -42 18 -50 25 -8 6 -44 24 -80 40 -66 31 -77 37
-110 67 -10 9 -20 14 -23 12 -11 -11 -56 9 -60 27 -3 11 -14 19 -26 19 -12 0
-24 7 -27 15 -4 8 -14 15 -24 15 -10 0 -20 9 -23 20 -3 11 -9 20 -14 19 -14
-4 -63 20 -63 31 0 5 -11 12 -25 16 -13 3 -30 13 -37 21 -7 8 -23 19 -35 24
-13 5 -27 19 -32 32 -10 26 -51 57 -76 57 -9 0 -18 6 -21 14 -3 8 -16 17 -29
20 -14 4 -29 15 -35 26 -6 11 -19 20 -29 20 -10 0 -24 7 -31 15 -7 8 -17 15
-22 15 -12 0 -24 10 -121 105 -45 44 -84 80 -87 80 -9 0 -62 40 -78 59 -37 43
-93 96 -102 96 -4 0 -20 15 -35 32 -66 82 -81 98 -90 98 -5 1 -30 24 -55 52
-25 28 -75 83 -112 122 -38 39 -68 77 -68 83 0 7 -7 13 -15 13 -8 0 -15 4 -15
10 0 5 -20 31 -44 57 -47 52 -136 177 -136 193 0 5 -7 7 -16 3 -10 -4 -17 1
-21 16 -3 11 -9 21 -13 21 -5 0 -16 18 -26 40 -10 22 -21 40 -26 40 -4 0 -8 5
-8 10 0 10 -9 22 -56 74 -13 15 -24 31 -24 35 0 4 -9 16 -19 25 -11 10 -31 42
-46 72 -15 30 -31 54 -37 54 -5 0 -8 7 -4 15 3 9 0 15 -7 15 -7 0 -22 17 -33
38 -39 73 -87 142 -99 142 -7 0 -16 12 -20 27 -3 15 -15 33 -26 41 -10 7 -19
19 -19 26 0 7 -11 23 -25 36 -19 18 -22 26 -13 32 9 5 8 8 -5 8 -21 0 -45 46
-31 60 5 5 78 11 162 14 85 3 193 8 241 12 84 6 87 6 118 -20 34 -29 42 -27
106 17 14 10 19 9 27 -3 6 -10 10 -11 10 -3 0 10 22 11 88 7 48 -3 143 -5 212
-4 69 1 141 2 160 2 19 0 85 0 145 -1 61 -1 166 -1 235 0 135 1 406 -8 455
-16 48 -8 411 -9 423 -1 6 3 14 1 17 -5 4 -6 18 -8 34 -4 14 4 121 9 236 11
273 5 414 11 460 20 27 5 36 4 31 -5 -4 -6 -2 -9 6 -7 7 3 87 8 178 11 169 7
256 9 650 20 123 3 226 8 228 9 8 9 918 -3 1014 -13z m-5534 -65 c-10 -7 -18
-16 -18 -20 0 -4 -6 -14 -12 -21 -7 -7 -24 -32 -38 -54 -13 -23 -30 -41 -37
-41 -7 0 -20 -11 -29 -25 -9 -14 -23 -25 -30 -25 -8 0 -14 -4 -14 -10 0 -5 -6
-10 -14 -10 -8 0 -17 -8 -20 -17 -3 -10 -24 -27 -46 -37 -22 -11 -40 -24 -40
-31 0 -13 -73 -75 -89 -75 -6 0 -15 -8 -20 -18 -5 -10 -25 -27 -45 -37 -19
-10 -33 -22 -31 -25 2 -4 -6 -16 -18 -27 -12 -11 -30 -29 -39 -39 -18 -21 -28
-29 -75 -62 -17 -12 -36 -22 -42 -22 -14 0 -51 -37 -51 -50 0 -5 -4 -10 -10
-10 -5 0 -20 -16 -33 -35 -13 -19 -26 -32 -29 -29 -3 3 -21 -13 -39 -35 -18
-23 -38 -41 -45 -41 -6 0 -15 -7 -18 -16 -3 -9 -13 -14 -21 -11 -9 4 -12 1 -9
-7 5 -14 -59 -86 -76 -86 -6 0 -8 -5 -4 -12 5 -8 2 -9 -10 -5 -9 4 -15 3 -12
-2 6 -9 -54 -79 -124 -144 -24 -23 -61 -58 -82 -78 -21 -20 -41 -33 -44 -30
-4 3 -4 1 0 -6 4 -7 -14 -31 -44 -60 -132 -127 -150 -143 -160 -143 -5 0 -10
-5 -10 -10 0 -9 -154 -170 -162 -170 -2 0 -53 -48 -113 -106 -77 -75 -114
-104 -127 -101 -10 3 -16 1 -13 -3 7 -12 -26 -50 -43 -50 -7 0 -10 -5 -7 -10
3 -6 -2 -13 -12 -17 -10 -3 -22 -12 -26 -20 -4 -7 -13 -13 -20 -13 -7 0 -30
-16 -52 -36 -38 -34 -162 -119 -174 -119 -6 -1 -63 -36 -71 -45 -3 -3 -22 -14
-43 -25 -20 -11 -49 -30 -63 -43 -14 -14 -32 -21 -41 -18 -10 4 -14 2 -10 -8
4 -10 -2 -18 -16 -22 -23 -7 -48 -25 -123 -86 -25 -21 -50 -38 -56 -38 -15 0
-148 -90 -148 -100 0 -4 -15 -11 -34 -14 -19 -4 -45 -15 -57 -25 -13 -10 -51
-28 -84 -40 -89 -33 -178 -74 -193 -88 -7 -7 -19 -13 -26 -13 -8 0 -19 -7 -26
-15 -7 -9 -18 -14 -24 -12 -11 4 -23 -4 -56 -37 -10 -10 -23 -15 -28 -12 -5 3
-21 -3 -35 -14 -14 -11 -32 -20 -41 -20 -9 0 -16 -4 -16 -10 0 -5 -11 -10 -25
-10 -13 0 -32 -9 -43 -20 -20 -22 -86 -52 -95 -44 -3 3 -23 -3 -44 -14 -34
-19 -178 -61 -228 -67 -11 -1 -27 -5 -35 -8 -53 -20 -162 -48 -270 -70 -69
-14 -165 -34 -215 -45 -93 -21 -190 -37 -285 -48 -30 -4 -60 -10 -66 -15 -5
-4 -82 -11 -170 -14 -87 -3 -184 -8 -214 -10 -35 -3 -57 0 -62 8 -6 9 -8 9 -8
0 0 -18 -79 -26 -145 -14 -33 5 -121 13 -195 16 -74 4 -138 9 -143 12 -4 2
-74 9 -155 14 -81 5 -167 12 -192 14 -25 2 -73 6 -107 9 -34 3 -71 10 -82 15
-10 6 -43 13 -73 16 -119 12 -194 22 -208 29 -9 3 -51 13 -95 20 -85 15 -160
33 -185 43 -40 17 -112 32 -148 33 -18 0 -40 4 -50 9 -9 5 -62 26 -117 46 -55
20 -107 40 -115 44 -8 4 -40 14 -70 21 -30 7 -64 19 -75 26 -11 8 -29 14 -40
14 -12 0 -25 4 -31 9 -5 4 -40 19 -79 31 -38 13 -74 27 -79 32 -6 4 -17 8 -25
8 -18 0 -263 120 -272 133 -3 5 -12 7 -20 5 -8 -1 -25 5 -39 15 -70 50 -97 67
-115 76 -12 5 -27 16 -34 25 -7 9 -19 16 -26 16 -6 0 -32 13 -56 30 -24 16
-52 30 -61 30 -10 0 -18 6 -18 14 0 8 -20 20 -45 27 -25 7 -45 17 -45 21 0 4
-21 22 -47 39 -27 18 -52 39 -56 46 -4 7 -13 13 -18 13 -6 0 -25 11 -43 25
-18 14 -38 25 -45 25 -6 0 -25 12 -41 28 -50 46 -59 52 -70 52 -5 0 -10 4 -10
8 0 4 -14 16 -31 26 -18 10 -39 26 -49 35 -43 41 -93 81 -101 81 -5 0 -26 16
-48 35 -21 19 -41 35 -44 35 -19 0 -151 103 -208 162 -20 21 -39 38 -42 38 -4
0 -16 8 -26 17 -11 10 -26 23 -33 29 -7 6 -48 48 -90 93 -42 44 -79 81 -83 81
-10 0 -95 91 -95 102 0 4 -5 8 -10 8 -11 0 -154 117 -177 144 -7 9 -13 21 -13
29 0 7 -11 20 -25 27 -14 7 -25 19 -25 27 0 7 -4 13 -10 13 -5 0 -17 15 -26
32 -9 18 -30 45 -45 61 -16 15 -29 31 -29 36 0 5 -9 13 -20 16 -11 4 -18 10
-15 15 3 5 -4 14 -15 20 -11 6 -20 16 -20 23 0 7 -23 34 -51 61 -28 28 -56 64
-63 80 -8 17 -32 51 -55 76 -22 25 -41 50 -41 56 0 7 -7 14 -15 18 -8 3 -15
12 -15 20 0 7 -9 16 -20 19 -11 3 -23 13 -27 24 -8 21 -11 25 -58 78 -46 53
-45 65 8 66 23 1 51 3 62 4 103 14 606 -1 641 -20 20 -10 33 -10 67 0 24 7 56
11 72 8 64 -11 420 -11 439 -1 12 7 169 12 420 15 221 2 437 6 481 8 44 3 256
7 470 10 681 11 849 14 890 20 22 3 209 8 415 10 206 3 404 10 440 15 56 9
180 17 540 37 41 2 89 8 105 13 17 5 57 12 90 15 33 3 85 11 115 17 65 14 89
16 240 22 63 3 144 7 180 11 36 3 160 7 276 10 117 2 222 6 235 9 13 3 83 8
154 11 192 7 341 15 422 20 40 3 178 8 305 11 128 2 280 7 338 9 145 7 390 13
753 19 264 4 309 3 314 -10 5 -13 7 -13 17 0 6 9 25 15 46 14 40 -2 667 23
720 28 19 2 51 6 70 10 68 11 108 13 382 19 168 4 292 2 313 -4 19 -5 35 -6
35 -2 0 4 44 8 97 9 53 1 99 5 102 7 2 3 11 5 20 5 14 -1 14 -2 -1 -14z
m20295 -73 c7 -7 -15 -46 -42 -75 -28 -30 -41 -47 -41 -55 0 -4 -21 -23 -45
-42 -25 -18 -45 -40 -45 -47 0 -8 -4 -14 -9 -14 -8 0 -197 -187 -431 -425 -11
-12 -20 -24 -20 -27 0 -4 -10 -18 -22 -31 -48 -51 -88 -101 -88 -109 0 -5 -4
-7 -9 -4 -5 3 -24 -15 -42 -40 -19 -25 -58 -73 -86 -107 -29 -34 -53 -65 -53
-69 0 -4 -31 -39 -70 -78 -38 -39 -70 -74 -70 -78 0 -4 -16 -18 -35 -31 -19
-13 -35 -28 -35 -33 0 -13 -205 -208 -220 -208 -3 0 -20 -13 -38 -30 -18 -16
-37 -30 -43 -30 -5 0 -9 -4 -9 -10 0 -5 -21 -24 -47 -41 -27 -18 -49 -36 -51
-41 -2 -4 -9 -8 -16 -8 -6 0 -27 -13 -46 -30 -19 -16 -41 -29 -48 -30 -7 0
-35 -20 -61 -45 -26 -25 -55 -45 -64 -45 -9 0 -21 -9 -27 -20 -6 -11 -16 -20
-22 -20 -6 0 -26 -11 -44 -25 -18 -14 -37 -25 -43 -25 -6 0 -11 -4 -11 -10 0
-5 -6 -10 -14 -10 -22 0 -106 -40 -106 -50 0 -6 -9 -10 -20 -10 -11 0 -20 -4
-20 -9 0 -5 -10 -13 -22 -16 -13 -4 -45 -24 -73 -44 -67 -50 -157 -99 -173
-93 -6 2 -15 -3 -18 -12 -3 -9 -17 -16 -30 -16 -14 0 -27 -6 -30 -14 -3 -8
-20 -20 -37 -26 -18 -7 -45 -18 -62 -25 -64 -28 -151 -68 -167 -76 -10 -5 -28
-9 -41 -9 -20 0 -112 -51 -127 -71 -3 -3 -16 -9 -30 -13 -14 -4 -34 -11 -45
-16 -93 -38 -125 -48 -125 -37 0 6 -13 -3 -29 -21 -17 -17 -37 -32 -45 -32
-15 0 -67 -20 -116 -45 -14 -7 -54 -21 -90 -30 -36 -9 -80 -25 -98 -36 -18
-10 -40 -19 -48 -19 -8 0 -22 -4 -32 -10 -31 -17 -112 -40 -142 -40 -26 0
-107 -34 -120 -50 -3 -4 -48 -15 -100 -24 -52 -10 -115 -24 -140 -31 -62 -19
-145 -37 -156 -34 -5 1 -20 -1 -34 -4 -14 -4 -52 -9 -85 -11 -33 -3 -74 -9
-92 -15 -47 -14 -728 -2 -753 14 -3 2 -48 6 -99 10 -51 3 -101 9 -110 14 -9 5
-50 12 -91 16 -41 3 -77 10 -80 15 -3 4 -28 10 -55 11 -28 2 -61 9 -75 15 -14
7 -60 20 -102 30 -43 9 -78 21 -78 26 0 6 -11 7 -26 4 -16 -4 -35 -1 -48 7
-11 7 -34 14 -49 15 -16 1 -49 11 -74 22 -25 11 -54 20 -64 20 -11 0 -19 5
-19 10 0 6 -11 10 -24 10 -13 0 -26 5 -28 11 -2 6 -23 13 -47 14 -24 2 -48 9
-52 16 -4 7 -26 14 -49 16 -23 2 -56 13 -78 28 -20 14 -44 25 -53 25 -9 0 -37
11 -63 25 -26 14 -55 27 -65 28 -9 1 -34 13 -55 25 -20 12 -39 22 -41 22 -3 0
-25 16 -51 35 -25 19 -53 35 -61 35 -9 0 -23 8 -32 18 -9 10 -31 24 -48 31
-18 8 -33 20 -33 29 0 8 -3 13 -6 9 -9 -9 -60 19 -76 41 -12 18 -29 28 -126
77 -23 12 -40 24 -37 27 4 3 -8 12 -24 19 -17 8 -31 17 -31 21 0 5 -7 8 -15 8
-8 0 -15 5 -15 10 0 6 -7 10 -16 10 -22 0 -77 34 -121 76 -20 19 -44 34 -53
34 -10 0 -20 7 -24 15 -3 8 -12 15 -21 15 -8 0 -15 4 -15 9 0 5 -8 12 -17 15
-10 4 -36 22 -58 41 -22 19 -47 35 -55 35 -8 0 -24 14 -35 30 -11 16 -26 30
-32 30 -7 0 -13 4 -13 10 0 5 -16 17 -35 26 -19 9 -35 20 -35 25 0 4 -16 16
-36 25 -20 9 -38 23 -41 31 -3 7 -13 13 -23 13 -11 0 -30 19 -46 45 -16 24
-39 49 -51 56 -13 7 -25 20 -28 30 -3 9 -20 23 -38 30 -32 13 -97 74 -97 90 0
5 -4 9 -10 9 -5 0 -10 9 -10 20 0 12 -7 20 -16 20 -17 0 -99 66 -99 80 0 4
-21 31 -47 58 -27 28 -48 55 -48 60 0 6 -4 12 -8 14 -4 2 -21 20 -36 40 -16
21 -32 35 -37 32 -5 -3 -9 2 -9 10 0 8 -10 26 -22 40 -60 65 -68 76 -68 86 0
5 -4 10 -10 10 -14 0 -115 109 -149 161 -16 24 -41 57 -55 73 -14 16 -28 36
-31 46 -3 10 -12 21 -20 24 -8 3 -15 11 -15 19 0 7 -13 26 -30 42 -16 16 -28
31 -25 33 3 3 -4 11 -15 19 -11 8 -20 20 -20 27 0 8 -7 16 -15 20 -8 3 -15 12
-15 21 0 8 -4 15 -10 15 -5 0 -19 9 -30 20 -27 27 -120 177 -119 192 0 10 2 9
6 -1 4 -11 7 -11 13 0 10 15 173 15 214 -1 17 -6 26 -6 26 0 0 7 40 8 108 4
59 -3 134 -7 167 -8 33 -2 76 -7 95 -13 21 -6 45 -6 59 -1 13 4 60 6 105 3
202 -14 270 -17 571 -19 192 -2 394 2 505 10 499 35 662 46 735 49 110 5 565
5 650 0 69 -4 333 -5 570 -3 109 2 606 1 630 -1 73 -5 1051 -31 1150 -30 44 0
131 4 192 9 62 5 192 11 290 14 98 3 196 8 218 11 22 2 78 7 123 10 82 5 253
26 362 45 149 26 301 32 760 30 267 -1 503 -4 525 -6 76 -9 636 -11 623 -3
-16 11 5 12 50 3 34 -7 33 -18 -7 -61 -11 -11 -21 -34 -23 -50 -3 -27 -1 -28
35 -27 25 1 47 9 60 23 12 12 34 30 49 41 17 14 28 32 30 53 3 29 6 32 33 30
16 -1 32 2 35 7 3 6 28 12 54 14 27 3 51 7 54 10 7 8 17 7 25 -1z m-20275
-949 c18 -19 32 -194 15 -194 -15 0 -54 -37 -69 -65 -7 -14 -12 -44 -10 -65 4
-45 -12 -64 -61 -75 -35 -7 -50 2 -72 44 -11 20 -9 28 13 62 14 21 26 45 26
54 0 8 4 15 9 15 5 0 19 20 31 45 12 25 26 45 30 45 5 0 15 18 21 41 12 38 14
40 27 23 12 -17 13 -17 7 9 -7 27 0 77 11 77 3 0 13 -7 22 -16z m132 -103 c0
-6 5 -11 10 -11 6 0 10 -7 10 -14 0 -8 11 -27 25 -42 14 -15 30 -45 37 -68 6
-23 19 -48 28 -56 23 -21 43 -70 28 -70 -6 0 -16 -7 -22 -16 -10 -13 -14 -12
-35 10 -17 18 -24 38 -25 71 -1 38 -7 52 -29 71 -16 13 -34 24 -41 24 -8 0
-16 17 -19 43 -3 23 -9 59 -13 80 l-7 39 27 -25 c14 -13 26 -29 26 -36z
m10948 -45 c2 -10 11 -26 20 -35 43 -46 112 -142 112 -156 0 -7 9 -20 20 -30
11 -10 20 -23 20 -30 0 -7 9 -22 20 -35 11 -13 20 -31 20 -42 0 -10 5 -18 10
-18 6 0 10 -9 10 -20 0 -11 6 -20 13 -20 7 0 18 -9 25 -20 11 -19 10 -20 -24
-20 -19 0 -44 -4 -54 -10 -26 -14 -50 -2 -50 26 0 26 -30 94 -41 94 -3 0 -12
14 -19 30 -7 17 -15 30 -19 31 -24 3 -56 10 -59 14 -13 13 -40 209 -34 243 5
26 25 24 30 -2z m-120 -61 c-3 -13 -2 -26 3 -27 17 -7 14 -162 -4 -180 -25
-24 -33 -52 -31 -105 1 -43 -2 -53 -15 -53 -10 0 -21 -4 -26 -9 -9 -8 -72 -16
-101 -12 -13 1 5 64 35 121 10 19 33 78 51 129 37 109 102 209 88 136z
m-10884 -125 c-11 -11 2 -124 21 -179 3 -7 -3 -20 -12 -28 -10 -8 -12 -11 -4
-7 10 5 12 3 6 -5 -4 -7 -16 -10 -28 -7 -12 3 -32 -4 -49 -16 -21 -15 -33 -17
-40 -10 -8 8 -4 14 14 21 24 9 26 15 32 98 10 134 13 143 44 143 18 0 23 -3
16 -10z m206 -165 c0 -20 -7 -46 -15 -59 -8 -12 -16 -36 -18 -52 -2 -24 -32
-92 -82 -186 -24 -44 -55 -10 -55 61 0 59 18 91 52 91 27 0 43 47 29 86 -18
49 -14 69 17 81 15 6 37 11 50 12 19 1 22 -4 22 -34z m-367 -2 c-5 -12 -3 -14
7 -8 9 5 11 4 6 -3 -11 -19 -26 -14 -26 8 0 11 4 20 10 20 5 0 6 -7 3 -17z
m11210 -12 c-2 -12 3 -21 11 -21 22 0 37 -123 18 -142 -13 -13 -90 -14 -102
-2 -5 5 -15 37 -21 69 -5 33 -12 68 -15 77 -6 21 40 45 81 42 24 -1 30 -6 28
-23z m-177 -137 c-6 -16 14 -51 57 -98 15 -17 27 -36 27 -44 0 -7 5 -10 10 -7
6 4 10 -8 10 -29 0 -19 4 -36 8 -38 5 -1 6 -14 2 -27 -5 -23 -8 -22 -52 30
-25 30 -64 79 -86 109 -23 30 -49 63 -58 73 -17 16 -16 17 14 17 17 0 37 7 44
15 17 19 32 19 24 -1z m380 -45 c-2 -17 -12 -39 -21 -49 -11 -13 -13 -20 -5
-25 8 -5 8 -11 -2 -23 -23 -30 -38 -61 -38 -82 0 -11 -4 -28 -10 -38 -20 -36
-60 -129 -60 -140 0 -19 -17 -22 -31 -5 -8 9 -9 14 -4 11 6 -4 11 26 13 80 3
85 -14 154 -42 174 -16 11 21 21 54 15 24 -5 33 -1 50 22 11 16 20 36 20 45 0
9 8 16 19 16 10 0 24 7 31 15 20 24 32 17 26 -16z"/>
<path d="M20550 3769 c0 -5 5 -7 10 -4 6 3 10 8 10 11 0 2 -4 4 -10 4 -5 0
-10 -5 -10 -11z"/>
<path d="M11076 3262 c-2 -4 -7 -23 -11 -42 -8 -45 9 -69 58 -77 31 -5 41 -2
57 17 25 29 25 29 -9 63 -28 28 -87 52 -95 39z"/>
<path d="M11850 3222 c-60 -4 -73 -24 -42 -59 12 -14 36 -23 79 -28 55 -6 62
-5 72 13 8 16 6 25 -9 45 -23 29 -39 33 -100 29z"/>
<path d="M11414 3210 c-25 -10 -34 -37 -23 -66 8 -24 54 -45 101 -47 29 -2 33
1 36 27 4 31 -30 76 -58 76 -9 0 -20 4 -25 9 -6 5 -20 5 -31 1z"/>
<path d="M12177 3123 c-13 -12 -7 -60 8 -73 8 -6 33 -14 56 -17 24 -4 54 -12
68 -19 24 -13 26 -12 33 14 10 33 4 52 -17 52 -8 0 -15 4 -15 9 0 17 -120 47
-133 34z"/>
<path d="M20836 3048 c-10 -5 -28 -8 -40 -6 -14 3 -22 -1 -23 -11 -1 -9 -5
-30 -9 -48 -5 -29 -3 -33 20 -39 44 -11 76 3 92 41 8 19 14 39 14 44 0 18 -34
30 -54 19z"/>
<path d="M11286 3029 l-26 -20 19 -37 c31 -59 114 -120 138 -100 15 12 17 64
3 81 -91 109 -92 109 -134 76z"/>
<path d="M21296 3027 c-63 -40 -82 -82 -52 -113 26 -25 55 -17 78 23 25 41 30
72 16 91 -12 14 -17 14 -42 -1z"/>
<path d="M11710 2979 c-17 -30 7 -59 74 -92 59 -29 94 -32 87 -6 -2 8 -4 21
-5 29 -1 21 -96 89 -123 90 -13 0 -27 -9 -33 -21z"/>
<path d="M12598 2984 c-16 -15 -7 -52 15 -66 12 -8 43 -18 68 -21 37 -5 48 -3
62 14 21 24 21 32 0 52 -19 17 -133 34 -145 21z"/>
<path d="M20327 2857 c-62 -34 -83 -58 -73 -84 5 -13 17 -15 64 -10 31 2 69
10 84 17 53 25 57 111 5 109 -12 0 -48 -15 -80 -32z"/>
<path d="M12982 2858 c-35 -35 6 -68 86 -70 67 -2 67 -2 76 29 5 16 1 25 -16
36 -29 18 -129 22 -146 5z"/>
<path d="M20810 2801 c-33 -31 -38 -62 -15 -81 38 -32 119 45 95 90 -15 28
-45 25 -80 -9z"/>
<path d="M12057 2773 c-6 -32 26 -65 91 -93 60 -27 78 -25 86 6 8 32 -9 54
-64 80 -22 10 -40 22 -40 26 0 3 -15 6 -34 6 -29 0 -35 -4 -39 -25z"/>
<path d="M21022 2760 c-12 -11 -25 -20 -30 -20 -5 0 -17 -9 -27 -20 -13 -14
-16 -28 -11 -54 9 -45 16 -49 55 -30 37 19 84 84 79 111 -6 37 -34 42 -66 13z"/>
<path d="M13417 2724 c-7 -40 12 -57 81 -73 74 -16 102 -5 102 39 0 25 -5 31
-37 39 -21 6 -61 13 -89 17 -50 6 -51 6 -57 -22z"/>
<path d="M11576 2714 c-15 -40 -5 -66 49 -122 30 -31 55 -60 55 -64 0 -16 30
-7 40 11 13 24 13 81 1 81 -6 0 -19 17 -31 38 -12 20 -37 45 -56 55 -43 21
-50 21 -58 1z"/>
<path d="M19860 2720 c-19 -3 -61 -18 -92 -33 -61 -27 -74 -51 -43 -77 19 -16
120 2 147 26 16 15 36 81 27 88 -2 1 -20 0 -39 -4z"/>
<path d="M14040 2629 c0 -5 -13 -9 -28 -9 -36 0 -44 -8 -32 -30 13 -24 53 -37
131 -44 70 -7 98 6 85 39 -11 29 -156 70 -156 44z"/>
<path d="M12420 2585 c-20 -24 4 -59 59 -85 61 -28 107 -25 103 8 -2 25 -38
61 -60 62 -7 0 -15 7 -18 15 -8 20 -68 20 -84 0z"/>
<path d="M14485 2569 c-4 -6 -13 -8 -20 -5 -7 2 -18 -6 -25 -18 -13 -26 -10
-61 5 -61 6 -1 27 -4 48 -9 29 -5 45 -3 63 9 32 20 31 53 0 61 -14 3 -27 12
-30 20 -6 17 -32 19 -41 3z"/>
<path d="M19345 2572 c-4 -4 -10 -7 -13 -7 -24 -2 -52 -33 -52 -58 0 -35 41
-58 71 -39 11 7 24 10 29 7 5 -3 12 1 17 8 4 7 15 16 23 19 19 7 24 54 7 65
-16 10 -73 14 -82 5z"/>
<path d="M20491 2565 c-32 -18 -43 -39 -35 -69 8 -33 38 -42 69 -22 20 13 25
25 25 61 0 49 -12 56 -59 30z"/>
<path d="M14818 2509 c-10 -5 -18 -19 -18 -29 0 -23 51 -53 74 -44 9 4 22 2
29 -3 6 -5 33 -8 60 -5 44 4 47 6 47 33 0 19 -8 33 -22 43 -27 16 -145 20
-170 5z"/>
<path d="M15214 2485 c-12 -47 2 -62 62 -70 85 -10 147 1 160 30 6 13 9 28 5
33 -6 10 -120 29 -183 30 -32 0 -39 -3 -44 -23z"/>
<path d="M18936 2470 c-45 -21 -55 -49 -26 -75 27 -25 96 -13 132 22 35 33 35
51 2 63 -35 14 -63 11 -108 -10z"/>
<path d="M15785 2473 c-51 -6 -81 -34 -63 -62 7 -11 21 -22 31 -25 10 -2 16
-9 12 -15 -3 -6 -1 -11 4 -11 6 0 11 4 11 9 0 5 26 15 58 21 101 20 131 39
112 70 -9 14 -90 20 -165 13z"/>
<path d="M20775 2462 c-37 -13 -95 -57 -95 -74 0 -9 -3 -23 -6 -31 -4 -11 4
-17 27 -22 27 -6 36 -4 47 14 8 11 19 21 24 21 27 0 60 59 47 83 -11 18 -13
19 -44 9z"/>
<path d="M11865 2414 c-23 -35 -9 -64 45 -100 22 -15 40 -33 40 -40 0 -8 12
-17 28 -20 15 -4 33 -11 40 -17 9 -7 18 -4 32 8 31 28 24 52 -20 80 -22 14
-40 32 -40 40 0 8 -7 15 -15 15 -8 0 -15 7 -15 15 0 8 -4 15 -10 15 -5 0 -10
7 -10 15 0 27 -55 19 -75 -11z"/>
<path d="M16179 2428 c-15 -6 -20 -15 -17 -35 3 -27 6 -28 57 -29 94 -2 134
22 101 61 -13 15 -101 17 -141 3z"/>
<path d="M18500 2400 c-72 -14 -87 -25 -82 -59 7 -48 21 -53 86 -26 70 29 70
28 62 58 -7 30 -20 35 -66 27z"/>
<path d="M16690 2391 c0 -6 -22 -10 -49 -9 -91 0 -121 -26 -79 -69 27 -27 98
-33 168 -13 74 20 80 49 17 79 -48 23 -57 25 -57 12z"/>
<path d="M19055 2390 c-3 -5 -1 -10 4 -10 6 0 11 5 11 10 0 6 -2 10 -4 10 -3
0 -8 -4 -11 -10z"/>
<path d="M17471 2361 c-33 -9 -49 -36 -35 -58 20 -31 154 -16 154 16 0 4 -9
17 -20 29 -21 22 -52 26 -99 13z"/>
<path d="M12838 2349 c-23 -13 -25 -69 -3 -69 8 0 15 -4 15 -10 0 -5 6 -10 13
-10 8 0 29 -7 46 -16 30 -15 34 -15 49 0 15 15 15 18 1 42 -9 15 -29 34 -45
43 -16 9 -30 19 -32 24 -5 10 -24 8 -44 -4z"/>
<path d="M17000 2346 c-6 -8 -10 -25 -8 -38 3 -22 6 -23 100 -23 110 0 129 9
110 50 -11 24 -15 25 -101 25 -65 0 -92 -4 -101 -14z"/>
<path d="M20110 2340 c-47 -18 -60 -41 -40 -65 26 -32 125 -6 149 38 7 14 10
30 7 36 -10 16 -64 12 -116 -9z"/>
<path d="M17893 2328 c-28 -14 -39 -46 -22 -63 16 -15 119 -26 119 -14 0 5 9
9 20 9 21 0 40 27 40 59 0 19 -6 21 -67 20 -38 0 -78 -5 -90 -11z"/>
<path d="M20475 2179 c-49 -22 -92 -66 -97 -99 -2 -20 3 -26 30 -34 32 -9 35
-7 78 40 45 50 47 54 36 90 -7 20 -8 20 -47 3z"/>
<path d="M13198 2166 c-25 -18 -22 -48 6 -75 28 -26 138 -45 156 -27 29 29 -6
78 -73 100 -57 19 -67 19 -89 2z"/>
<path d="M19688 2173 c7 -3 16 -2 19 1 4 3 -2 6 -13 5 -11 0 -14 -3 -6 -6z"/>
<path d="M19755 2170 c-43 -9 -75 -28 -75 -45 0 -7 -3 -20 -6 -28 -3 -10 4
-18 23 -25 25 -8 35 -5 69 17 62 42 55 96 -11 81z"/>
<path d="M12258 2118 c-16 -30 -12 -48 17 -75 27 -26 118 -58 140 -49 8 3 15
16 15 29 0 26 -66 79 -113 91 -15 3 -27 11 -27 16 0 18 -19 10 -32 -12z"/>
<path d="M19401 2044 c-7 -9 -22 -13 -33 -11 -11 3 -21 0 -25 -9 -3 -8 -9 -12
-13 -9 -4 2 -14 -3 -22 -13 -12 -13 -13 -25 -6 -51 8 -28 13 -32 31 -27 12 3
38 9 58 12 40 7 72 41 81 86 4 21 0 28 -16 32 -31 8 -40 7 -55 -10z"/>
<path d="M13615 2013 c-21 -20 -15 -63 10 -77 11 -6 33 -19 48 -30 28 -18 29
-18 53 5 13 12 24 32 24 44 0 49 -101 92 -135 58z"/>
<path d="M12610 1891 c-19 -36 -12 -67 18 -81 15 -8 33 -19 40 -24 7 -5 23
-11 35 -12 12 -1 34 -6 49 -9 34 -9 48 16 24 40 -9 9 -16 20 -16 25 0 10 -56
42 -79 46 -8 2 -18 10 -23 18 -12 22 -35 20 -48 -3z"/>
<path d="M20050 1874 c-19 -14 -42 -32 -51 -40 -8 -8 -23 -14 -32 -14 -14 0
-16 -6 -11 -27 4 -16 9 -31 11 -36 7 -12 62 -4 67 10 3 7 12 13 20 13 9 0 29
14 46 30 23 22 30 38 28 58 -4 36 -33 38 -78 6z"/>
<path d="M13974 1856 c-13 -52 -5 -55 115 -52 61 1 114 5 117 9 4 4 1 7 -6 7
-8 0 -23 11 -35 26 -18 22 -29 26 -102 30 -82 5 -82 5 -89 -20z"/>
<path d="M18801 1861 c-24 -11 -31 -21 -31 -42 0 -42 28 -53 87 -33 63 21 75
32 71 63 -3 24 -7 26 -50 26 -26 0 -61 -6 -77 -14z"/>
<path d="M14195 1850 c3 -5 8 -10 11 -10 2 0 4 5 4 10 0 6 -5 10 -11 10 -5 0
-7 -4 -4 -10z"/>
<path d="M18298 1793 c7 -3 16 -2 19 1 4 3 -2 6 -13 5 -11 0 -14 -3 -6 -6z"/>
<path d="M14476 1771 c-9 -14 12 -62 35 -82 16 -14 32 -16 77 -13 62 6 72 9
72 28 0 28 -27 47 -83 56 -33 5 -67 12 -77 15 -10 3 -21 2 -24 -4z"/>
<path d="M18415 1751 c-11 -5 -44 -12 -73 -16 -37 -5 -55 -13 -63 -26 -13 -26
-3 -56 22 -64 31 -10 104 4 131 24 13 10 31 20 41 24 21 8 24 57 3 57 -8 0
-20 2 -28 4 -7 3 -22 1 -33 -3z"/>
<path d="M18858 1753 c6 -2 18 -2 25 0 6 3 1 5 -13 5 -14 0 -19 -2 -12 -5z"/>
<path d="M17975 1712 c-30 -6 -65 -42 -65 -67 0 -30 60 -49 98 -32 37 16 61
47 62 77 0 23 -4 25 -37 26 -21 0 -47 -2 -58 -4z"/>
<path d="M12966 1664 c-10 -26 -7 -33 22 -63 61 -64 152 -79 152 -26 0 23 -41
65 -64 65 -6 0 -17 9 -24 20 -15 25 -77 28 -86 4z"/>
<path d="M19663 1673 c-7 -3 -13 -11 -13 -19 0 -7 -11 -16 -25 -20 -14 -3 -25
-10 -25 -15 0 -5 -5 -9 -11 -9 -11 0 -39 -25 -39 -35 0 -13 29 -35 47 -35 10
0 42 12 71 28 47 24 52 30 50 56 -3 30 -34 57 -55 49z"/>
<path d="M14940 1660 c-29 -4 -36 -10 -38 -31 -4 -36 14 -47 83 -49 78 -3 78
-3 103 19 30 25 28 36 -10 54 -33 15 -71 17 -138 7z"/>
<path d="M15415 1633 c-23 -6 -45 -22 -45 -34 0 -4 10 -18 23 -31 20 -21 31
-23 109 -23 70 0 91 4 109 18 18 16 19 21 8 33 -8 7 -25 15 -39 18 -14 2 -24
9 -22 15 1 6 -2 11 -8 11 -5 0 -10 -5 -10 -11 0 -6 -8 -8 -17 -6 -35 10 -88
15 -108 10z"/>
<path d="M17516 1625 c-23 -12 -31 -42 -17 -64 11 -17 92 -17 134 0 20 9 27
18 27 40 0 18 -6 30 -17 33 -27 8 -103 3 -127 -9z"/>
<path d="M17235 1620 c-3 -5 -1 -10 4 -10 6 0 11 5 11 10 0 6 -2 10 -4 10 -3
0 -8 -4 -11 -10z"/>
<path d="M17131 1611 c-54 -15 -41 -83 19 -96 45 -10 102 41 81 72 -17 27 -56
37 -100 24z"/>
<path d="M15925 1596 c-45 -32 -6 -85 69 -93 54 -5 86 10 86 40 0 33 -15 50
-47 53 -15 2 -42 5 -58 9 -19 3 -38 0 -50 -9z"/>
<path d="M16515 1600 c3 -5 8 -10 11 -10 2 0 4 5 4 10 0 6 -5 10 -11 10 -5 0
-7 -4 -4 -10z"/>
<path d="M16787 1566 c-31 -24 -19 -67 25 -91 35 -19 38 -19 73 -2 19 9 45 17
55 17 15 0 20 7 20 30 0 38 -29 54 -87 47 -24 -2 -46 -1 -49 4 -7 12 -16 11
-37 -5z"/>
<path d="M14888 1563 c7 -3 16 -2 19 1 4 3 -2 6 -13 5 -11 0 -14 -3 -6 -6z"/>
<path d="M16437 1559 c-10 -6 -24 -8 -32 -5 -7 2 -26 1 -42 -3 -25 -7 -28 -11
-25 -42 3 -33 32 -79 32 -51 0 9 18 12 63 10 85 -4 117 26 87 83 -12 21 -53
25 -83 8z"/>
<path d="M17503 1523 c9 -2 23 -2 30 0 6 3 -1 5 -18 5 -16 0 -22 -2 -12 -5z"/>
<path d="M13063 1513 c9 -2 23 -2 30 0 6 3 -1 5 -18 5 -16 0 -22 -2 -12 -5z"/>
<path d="M13352 1498 c-7 -7 -12 -18 -12 -26 0 -17 41 -62 56 -62 6 0 18 -9
25 -21 19 -28 82 -32 87 -6 9 46 -37 97 -88 97 -9 0 -23 7 -30 15 -15 18 -22
19 -38 3z"/>
<path d="M15418 1493 c7 -3 16 -2 19 1 4 3 -2 6 -13 5 -11 0 -14 -3 -6 -6z"/>
<path d="M19250 1446 c-81 -26 -104 -68 -54 -101 38 -25 92 -1 117 51 18 36
18 38 1 51 -20 15 -17 15 -64 -1z"/>
<path d="M13766 1293 c-11 -11 -6 -50 7 -60 24 -20 162 -39 171 -24 9 14 -23
49 -51 56 -15 3 -34 11 -41 17 -14 12 -77 20 -86 11z"/>
<path d="M18855 1270 c-16 -5 -46 -14 -65 -22 -34 -12 -35 -15 -26 -43 6 -16
12 -32 13 -35 6 -8 77 1 90 12 7 5 19 8 26 5 15 -6 40 44 35 70 -4 21 -30 25
-73 13z"/>
<path d="M18389 1135 c-48 -26 -44 -63 7 -79 14 -4 27 0 39 14 10 11 26 20 37
20 13 0 18 8 18 30 0 28 -2 30 -37 30 -21 -1 -50 -7 -64 -15z"/>
<path d="M14265 1121 c-16 -15 26 -62 68 -76 25 -9 39 -8 65 4 37 17 40 31 13
55 -14 12 -39 18 -81 20 -33 1 -63 0 -65 -3z"/>
<path d="M18006 1073 c-4 -4 -13 -8 -19 -8 -43 -2 -78 -19 -83 -41 -7 -27 10
-54 35 -54 28 0 119 44 131 64 10 16 9 22 -6 33 -20 14 -47 17 -58 6z"/>
<path d="M14677 970 c-31 -44 10 -83 98 -93 47 -5 82 9 90 34 7 21 -2 42 -15
34 -4 -3 -10 1 -13 9 -3 7 -26 16 -51 19 -25 4 -57 9 -70 13 -17 4 -28 0 -39
-16z"/>
<path d="M17525 950 c-16 -5 -52 -14 -78 -21 -47 -12 -48 -13 -41 -43 8 -40 8
-40 52 -38 63 4 152 48 152 76 0 10 -44 39 -53 35 -1 -1 -15 -5 -32 -9z"/>
<path d="M14892 900 c0 -14 2 -19 5 -12 2 6 2 18 0 25 -3 6 -5 1 -5 -13z"/>
<path d="M15115 880 c-18 -20 -13 -59 8 -61 119 -14 158 -12 179 9 18 17 18
19 -4 39 -33 31 -159 40 -183 13z"/>
<path d="M15538 846 c-27 -20 -23 -55 9 -67 15 -5 39 -9 53 -8 14 0 28 0 33
-1 8 -2 34 -3 72 -1 18 1 25 7 25 20 0 41 -11 51 -55 51 -24 0 -47 5 -50 10
-9 14 -67 12 -87 -4z"/>
<path d="M16017 845 c-41 -30 -9 -74 58 -80 27 -2 51 -9 53 -14 5 -14 29 -14
34 0 2 6 18 12 36 13 47 3 58 18 36 51 -11 18 -19 22 -24 14 -6 -9 -18 -8 -51
4 -61 22 -122 27 -142 12z"/>
<path d="M16601 830 c-56 -9 -76 -33 -54 -66 16 -24 37 -31 47 -15 3 5 26 14
51 20 32 8 45 16 45 29 0 20 -19 43 -34 41 -6 -1 -31 -5 -55 -9z"/>
<path d="M17030 830 c-8 -5 -17 -7 -21 -4 -13 8 -31 -25 -24 -46 5 -17 15 -20
65 -20 54 0 120 23 120 42 0 13 -42 30 -62 25 -11 -3 -30 -2 -42 3 -13 4 -29
4 -36 0z"/>
<path d="M15278 783 c7 -3 16 -2 19 1 4 3 -2 6 -13 5 -11 0 -14 -3 -6 -6z"/>
<path d="M14260 580 c0 -6 7 -10 15 -10 8 0 15 2 15 4 0 2 -7 6 -15 10 -8 3
-15 1 -15 -4z"/>
<path d="M10263 3282 c-55 -59 -63 -81 -38 -102 23 -19 62 -4 106 41 32 33 38
45 33 67 -8 32 -22 52 -38 52 -6 0 -35 -26 -63 -58z"/>
<path d="M9555 3260 c-3 -5 -16 -10 -29 -10 -12 0 -26 -3 -30 -7 -4 -5 -11 -8
-14 -9 -23 -3 -60 -25 -65 -38 -10 -26 28 -56 71 -56 47 0 117 32 132 60 9 17
8 26 -5 46 -16 24 -49 32 -60 14z"/>
<path d="M9910 3220 c-23 -23 -25 -39 -7 -64 16 -22 46 -18 61 9 6 11 15 23
20 26 14 10 -13 49 -34 49 -11 0 -29 -9 -40 -20z"/>
<path d="M9638 3071 c-54 -35 -62 -45 -54 -75 9 -36 49 -41 99 -13 39 21 42
26 40 62 -3 34 -15 54 -34 55 -3 0 -26 -13 -51 -29z"/>
<path d="M9990 3085 c-7 -8 -16 -12 -21 -9 -5 3 -9 0 -9 -7 0 -7 -7 -20 -16
-30 -11 -12 -13 -27 -9 -53 10 -51 43 -49 95 5 44 46 49 68 22 92 -23 21 -46
22 -62 2z"/>
<path d="M9045 3043 c-27 -15 -52 -28 -53 -29 -9 -6 11 -45 28 -54 23 -12 144
39 154 65 18 49 -53 59 -129 18z"/>
<path d="M523 2942 c-6 -4 -14 -19 -18 -33 -7 -28 25 -68 76 -93 25 -13 29
-12 47 8 24 26 17 55 -21 96 -28 29 -60 38 -84 22z"/>
<path d="M8677 2918 c-48 -13 -62 -52 -27 -80 29 -23 45 -23 82 3 23 17 29 27
26 53 -3 35 -20 40 -81 24z"/>
<path d="M842 2878 c-16 -16 -15 -63 1 -76 7 -6 31 -15 54 -20 44 -10 83 5 83
31 0 18 -42 53 -72 60 -14 4 -32 9 -40 12 -7 3 -19 0 -26 -7z"/>
<path d="M1251 2871 c-38 -38 -22 -72 35 -77 22 -1 57 -8 79 -13 60 -16 74
-13 87 14 9 21 8 27 -13 44 -13 11 -46 25 -74 31 -27 6 -59 13 -71 16 -15 4
-30 -2 -43 -15z"/>
<path d="M9390 2862 c-13 -2 -37 -15 -53 -28 -16 -13 -35 -24 -43 -24 -7 0
-21 -11 -29 -24 -13 -19 -14 -29 -5 -45 6 -12 15 -21 20 -21 17 0 65 24 73 37
4 7 16 13 25 13 33 1 54 26 48 60 -5 38 -4 37 -36 32z"/>
<path d="M8345 2830 c-55 -12 -115 -52 -115 -75 0 -6 6 -19 13 -29 13 -17 16
-17 78 -1 35 10 72 25 82 33 39 34 -2 85 -58 72z"/>
<path d="M9726 2825 c-15 -8 -35 -15 -42 -15 -8 0 -14 -6 -14 -14 0 -8 -10
-22 -21 -30 -18 -12 -20 -21 -15 -49 6 -33 8 -34 50 -33 30 1 42 5 39 14 -3 6
11 30 32 53 56 62 38 109 -29 74z"/>
<path d="M1675 2771 c-22 -6 -31 -47 -17 -69 6 -8 37 -16 78 -19 38 -3 66 -2
62 2 -4 5 -3 14 3 21 15 18 1 54 -20 54 -10 0 -21 3 -25 7 -9 10 -55 12 -81 4z"/>
<path d="M7874 2703 c-30 -6 -57 -38 -59 -71 -1 -22 3 -27 24 -29 14 -1 31 2
36 6 6 4 31 14 57 21 48 13 63 29 53 61 -5 15 -15 19 -48 18 -23 -1 -52 -4
-63 -6z"/>
<path d="M1117 2693 c-15 -14 -6 -53 18 -71 28 -22 104 -46 131 -40 10 2 20
11 22 20 4 22 -28 67 -48 68 -8 0 -24 7 -34 15 -20 15 -77 20 -89 8z"/>
<path d="M816 2651 c-13 -14 -14 -24 -7 -45 6 -14 17 -26 25 -26 8 0 28 -13
44 -30 33 -33 53 -37 71 -16 16 20 -21 93 -54 108 -14 6 -25 15 -25 20 0 15
-37 8 -54 -11z"/>
<path d="M9003 2662 c-12 -4 -41 -24 -64 -45 -38 -36 -40 -39 -26 -60 19 -29
39 -32 81 -12 42 20 61 60 47 98 -6 15 -12 27 -13 26 -2 -1 -13 -4 -25 -7z"/>
<path d="M2047 2644 c-22 -12 -27 -20 -21 -37 8 -27 22 -36 54 -38 14 0 53 -3
87 -5 56 -3 62 -2 68 17 5 15 0 28 -17 45 -30 31 -128 41 -171 18z"/>
<path d="M7443 2585 c-73 -34 -85 -50 -64 -83 7 -12 19 -11 70 2 35 9 73 16
86 16 37 0 48 55 17 83 -24 22 -24 22 -109 -18z"/>
<path d="M9420 2557 c-14 -12 -36 -29 -48 -37 -19 -12 -22 -21 -16 -48 9 -44
28 -50 78 -23 43 23 87 94 70 111 -22 21 -59 20 -84 -3z"/>
<path d="M2510 2534 c-13 -32 -7 -41 37 -59 46 -19 83 -19 111 1 30 21 28 27
-16 58 -26 18 -51 26 -80 26 -36 0 -44 -4 -52 -26z"/>
<path d="M1416 2504 c-12 -32 -5 -46 37 -63 60 -26 142 -34 158 -15 10 12 7
20 -16 44 -45 47 -165 70 -179 34z"/>
<path d="M7036 2485 c-40 -32 -33 -69 13 -73 46 -5 81 5 81 24 0 8 7 17 15 20
19 8 19 19 0 38 -22 22 -76 17 -109 -9z"/>
<path d="M8675 2472 c-40 -30 -50 -44 -50 -67 0 -43 33 -45 89 -5 47 34 65 72
45 96 -17 21 -29 18 -84 -24z"/>
<path d="M2967 2449 c-22 -13 -22 -52 0 -70 20 -17 138 -18 155 -1 19 19 -6
62 -36 62 -14 0 -27 4 -30 9 -8 12 -68 12 -89 0z"/>
<path d="M6589 2410 c-6 -4 -19 -5 -30 -3 -11 3 -28 -5 -44 -21 -25 -25 -25
-27 -9 -51 16 -25 20 -26 73 -19 57 7 104 25 116 44 4 6 4 21 1 33 -4 18 -13
22 -50 23 -25 0 -50 -2 -57 -6z"/>
<path d="M1082 2396 c-22 -28 -20 -45 9 -70 16 -14 29 -30 29 -35 0 -18 71
-35 106 -27 32 8 21 34 -34 88 -48 46 -95 64 -110 44z"/>
<path d="M3388 2388 c-7 -4 -21 -9 -31 -12 -16 -5 -16 -8 -3 -34 12 -24 24
-30 62 -36 120 -16 193 -1 178 37 -3 9 -10 17 -15 17 -5 0 -9 7 -9 15 0 11
-13 15 -55 16 -30 1 -68 2 -84 3 -16 0 -35 -2 -43 -6z"/>
<path d="M6158 2356 c-72 -14 -96 -35 -80 -71 10 -22 17 -25 64 -25 49 1 88
16 88 35 0 5 7 16 15 25 18 20 10 51 -14 49 -9 -1 -42 -7 -73 -13z"/>
<path d="M8383 2353 c-12 -2 -27 -11 -33 -19 -7 -8 -17 -14 -23 -14 -16 0 -47
-41 -47 -63 0 -11 8 -25 17 -32 13 -10 25 -8 63 12 58 30 75 58 61 96 -6 15
-12 26 -13 26 -2 -1 -13 -4 -25 -6z"/>
<path d="M1840 2335 c-16 -20 -3 -72 21 -86 11 -5 43 -9 72 -7 48 3 52 5 55
29 3 22 -3 30 -29 43 -18 9 -40 16 -50 16 -10 0 -21 5 -24 10 -9 14 -31 12
-45 -5z"/>
<path d="M5708 2325 c-39 -53 -10 -84 67 -72 52 9 85 35 85 68 l0 29 -67 0
c-60 -1 -70 -3 -85 -25z"/>
<path d="M3854 2325 c-27 -19 -13 -58 26 -76 49 -23 134 -13 138 17 4 30 -26
50 -91 61 -41 7 -62 7 -73 -2z"/>
<path d="M9162 2305 c-18 -19 -38 -35 -46 -35 -17 0 -51 -41 -51 -60 1 -32 14
-39 48 -28 72 25 136 74 137 105 0 12 -38 53 -49 53 -3 0 -21 -16 -39 -35z"/>
<path d="M5238 2281 c-39 -22 -35 -48 8 -66 74 -31 154 -6 154 47 0 32 4 30
-75 33 -38 1 -70 -5 -87 -14z"/>
<path d="M4248 2274 c-16 -16 -8 -63 13 -78 21 -14 106 -14 151 0 24 7 33 43
15 61 -16 16 -167 31 -179 17z"/>
<path d="M4731 2255 c-18 -6 -37 -18 -41 -26 -11 -19 -2 -56 13 -62 22 -7 168
11 183 23 17 15 18 44 2 58 -20 15 -120 20 -157 7z"/>
<path d="M8003 2156 c-29 -11 -57 -31 -64 -42 -14 -27 -4 -60 20 -67 27 -7
102 15 125 35 11 10 23 18 28 18 13 0 9 55 -4 68 -16 16 -44 13 -105 -12z"/>
<path d="M1348 2145 c-9 -19 -8 -29 6 -50 9 -14 22 -25 28 -25 7 0 23 -11 37
-24 15 -13 40 -26 57 -29 29 -6 32 -4 36 23 4 24 -3 36 -33 65 -20 19 -44 35
-52 35 -8 0 -20 7 -27 15 -18 22 -39 18 -52 -10z"/>
<path d="M2231 2152 c-17 -32 -13 -48 14 -66 66 -44 168 -26 158 28 -4 20 -14
27 -52 36 -94 23 -108 24 -120 2z"/>
<path d="M8805 2063 c-49 -26 -75 -55 -75 -84 0 -35 12 -43 53 -35 44 9 103
87 87 116 -13 24 -25 24 -65 3z"/>
<path d="M7665 2063 c-16 -3 -34 -9 -39 -14 -6 -5 -18 -9 -27 -9 -29 0 -33
-82 -5 -93 20 -8 112 26 140 50 54 47 20 78 -69 66z"/>
<path d="M2707 2012 c-26 -29 -3 -92 34 -92 10 0 39 -7 65 -16 61 -21 97 -8
92 33 -2 22 -11 30 -43 41 -22 8 -58 22 -81 33 -50 23 -47 23 -67 1z"/>
<path d="M1665 1945 c-3 -8 -7 -21 -9 -29 -7 -21 57 -74 98 -81 52 -10 76 1
76 35 0 33 -31 60 -61 53 -10 -3 -19 -1 -19 4 0 11 -44 33 -66 33 -8 0 -17 -7
-19 -15z"/>
<path d="M7427 1943 c-4 -3 -7 -17 -7 -30 0 -18 6 -23 24 -23 31 0 40 14 26
40 -11 20 -31 26 -43 13z"/>
<path d="M7221 1886 c-6 -7 -25 -16 -41 -20 -27 -5 -30 -9 -30 -46 0 -44 5
-46 59 -29 107 34 142 66 104 94 -23 18 -77 19 -92 1z"/>
<path d="M8472 1882 c-11 -11 -29 -23 -40 -26 -30 -10 -44 -58 -26 -85 15 -21
39 -28 46 -13 6 13 69 54 75 48 11 -10 44 44 41 66 -4 32 -68 38 -96 10z"/>
<path d="M3172 1854 c-12 -8 -22 -20 -22 -25 0 -18 35 -45 76 -58 36 -12 44
-11 71 6 25 15 29 22 22 40 -9 26 -26 37 -60 39 -14 1 -34 4 -45 8 -11 3 -29
-1 -42 -10z"/>
<path d="M2033 1770 c-37 -15 -31 -68 10 -101 53 -42 73 -50 101 -39 31 11 30
8 11 54 -9 22 -30 46 -50 58 -19 11 -35 24 -35 29 0 11 -8 11 -37 -1z"/>
<path d="M3521 1749 c-6 -16 -5 -28 2 -35 16 -15 93 -36 137 -38 30 -1 35 2
38 25 5 41 -29 62 -103 67 -61 4 -65 3 -74 -19z"/>
<path d="M6859 1766 c-2 -2 -30 -6 -63 -10 -32 -3 -60 -7 -62 -9 -2 -2 -7 -17
-10 -34 -5 -25 -2 -33 15 -43 30 -16 150 -3 177 19 29 23 40 61 23 72 -14 9
-72 12 -80 5z"/>
<path d="M3947 1692 c-44 -49 4 -90 90 -78 57 8 66 15 58 49 -5 18 -15 27 -33
31 -91 16 -99 16 -115 -2z"/>
<path d="M8145 1675 c-67 -31 -98 -65 -90 -98 11 -41 34 -41 94 2 62 43 84 82
60 105 -12 12 -21 11 -64 -9z"/>
<path d="M6360 1681 c-8 -5 -32 -11 -52 -15 -33 -6 -38 -10 -38 -35 0 -32 27
-61 58 -61 31 0 112 52 112 72 0 44 -38 63 -80 39z"/>
<path d="M4391 1604 c-57 -29 -49 -67 16 -83 79 -20 131 4 119 54 -5 20 -13
25 -36 25 -16 0 -39 4 -52 8 -15 6 -32 4 -47 -4z"/>
<path d="M5867 1602 c-26 -28 -21 -58 11 -70 28 -12 106 -11 118 1 4 4 17 7
29 7 18 0 45 33 45 54 0 11 -44 19 -111 22 -64 3 -79 1 -92 -14z"/>
<path d="M5523 1588 c-26 -13 -37 -39 -28 -69 9 -29 44 -39 80 -23 17 7 38 15
48 18 29 9 22 53 -13 71 -33 17 -56 18 -87 3z"/>
<path d="M4780 1572 c-17 -14 -20 -23 -15 -45 9 -35 38 -50 78 -41 68 15 105
68 65 93 -28 17 -103 14 -128 -7z"/>
<path d="M5167 1563 c-24 -4 -26 -8 -21 -31 4 -15 11 -33 17 -39 10 -14 56
-17 106 -7 26 5 31 11 31 35 0 15 -3 30 -7 32 -14 8 -97 14 -126 10z"/>
<path d="M2346 1531 c-16 -18 -16 -21 -2 -43 28 -42 68 -66 104 -60 18 2 35 8
38 13 11 19 -8 68 -29 75 -11 4 -27 13 -35 20 -19 20 -56 17 -76 -5z"/>
<path d="M7763 1458 c-13 -6 -23 -15 -23 -20 0 -4 -8 -8 -17 -8 -10 -1 -28 -9
-41 -20 -19 -16 -21 -22 -11 -44 13 -28 30 -28 129 4 42 14 56 24 63 45 6 17
5 30 -3 40 -14 17 -65 19 -97 3z"/>
<path d="M2647 1403 c-16 -15 -6 -68 16 -84 38 -26 101 -46 127 -40 29 8 39
44 18 68 -11 14 -71 46 -90 47 -3 1 -10 4 -14 9 -9 9 -48 9 -57 0z"/>
<path d="M7395 1304 c-15 -8 -49 -20 -74 -26 -61 -15 -71 -24 -71 -65 0 -35 0
-35 38 -29 94 17 140 36 172 72 17 20 28 40 23 44 -18 16 -60 19 -88 4z"/>
<path d="M2998 1243 c-18 -5 -24 -39 -10 -59 21 -33 112 -55 156 -38 22 9 21
60 -1 68 -108 37 -112 38 -145 29z"/>
<path d="M3304 1153 c-9 -33 24 -63 67 -63 15 0 49 -7 74 -16 36 -12 50 -13
61 -3 33 27 7 70 -47 76 -17 2 -40 10 -52 18 -12 8 -38 15 -59 15 -32 0 -39
-4 -44 -27z"/>
<path d="M6945 1160 c-3 -5 -11 -7 -19 -4 -7 3 -26 -1 -42 -7 -16 -7 -32 -12
-36 -11 -15 3 -8 -56 8 -69 12 -10 20 -10 35 -1 10 7 24 12 30 12 6 0 26 7 44
16 36 17 53 59 28 68 -22 9 -41 7 -48 -4z"/>
<path d="M3723 1055 c-29 -33 -4 -75 44 -75 16 0 34 -5 39 -10 11 -11 61 8 68
26 7 19 -31 52 -71 63 -50 14 -65 13 -80 -4z"/>
<path d="M6503 1042 c-17 -2 -37 -10 -43 -18 -7 -8 -18 -14 -25 -14 -14 0 -25
-22 -25 -51 0 -25 39 -41 59 -25 8 6 15 10 15 8 2 -7 61 20 77 34 35 31 -1 71
-58 66z"/>
<path d="M6064 1028 c-56 -12 -81 -40 -68 -76 9 -25 13 -27 64 -25 45 2 59 8
87 35 26 25 30 35 21 43 -27 23 -63 31 -104 23z"/>
<path d="M5671 980 c-113 -11 -87 -90 29 -90 40 0 80 29 80 57 0 23 -52 39
-109 33z"/>
<path d="M4113 949 c-7 -7 -13 -23 -13 -36 0 -44 143 -91 184 -60 17 12 18 20
10 48 -7 24 -16 34 -29 34 -11 1 -26 4 -32 8 -25 15 -108 19 -120 6z"/>
<path d="M5350 943 c-65 -8 -92 -57 -48 -87 55 -39 187 33 147 80 -11 14 -29
15 -99 7z"/>
<path d="M4903 892 c-16 -17 -17 -54 -1 -70 27 -27 157 -7 192 28 l21 22 -22
15 c-29 20 -171 24 -190 5z"/>
<path d="M4595 885 c-5 -2 -22 -6 -37 -9 -30 -7 -37 -31 -18 -67 12 -22 67
-26 118 -8 38 13 53 56 26 76 -16 12 -65 16 -89 8z"/>
<path d="M29739 3071 c-26 -24 -30 -33 -20 -44 21 -27 69 -29 102 -5 32 24 36
42 15 64 -23 23 -62 16 -97 -15z"/>
<path d="M21957 3022 c-3 -4 -2 -25 2 -47 5 -31 11 -41 29 -43 12 -2 22 -8 22
-13 0 -18 39 -9 54 13 21 29 20 40 -5 69 -20 23 -92 38 -102 21z"/>
<path d="M30370 3011 c0 -5 -10 -11 -22 -13 -48 -7 -75 -116 -32 -132 30 -12
114 74 114 117 0 8 -11 19 -25 25 -31 14 -35 15 -35 3z"/>
<path d="M22228 2979 c-22 -12 -24 -62 -3 -79 18 -15 112 -15 129 -1 31 26
-13 88 -51 74 -7 -3 -13 0 -13 6 0 14 -39 14 -62 0z"/>
<path d="M22584 2955 l-26 -26 27 -29 c16 -16 32 -27 36 -24 5 3 17 0 27 -5
13 -7 22 -7 30 1 7 7 12 8 12 4 0 -5 7 -3 15 4 34 28 -2 84 -62 96 -26 5 -37
1 -59 -21z"/>
<path d="M29415 2961 c-18 -4 -35 -17 -45 -34 -14 -27 -14 -29 9 -48 28 -23
74 -25 92 -3 7 9 23 20 36 25 24 9 29 25 14 47 -9 15 -63 22 -106 13z"/>
<path d="M28923 2943 c-29 -6 -43 -52 -20 -65 9 -5 19 -24 23 -43 6 -35 34
-49 50 -24 22 37 7 141 -21 138 -5 -1 -20 -4 -32 -6z"/>
<path d="M29996 2925 c-8 -8 -19 -15 -25 -15 -13 0 -81 -81 -81 -97 0 -16 21
-17 70 -2 50 15 95 57 103 97 6 30 5 32 -23 32 -16 0 -35 -7 -44 -15z"/>
<path d="M22874 2894 c-4 -13 -1 -30 5 -38 13 -15 67 -29 121 -30 29 -1 36 3
38 22 6 37 -26 58 -96 64 -59 6 -62 5 -68 -18z"/>
<path d="M29085 2843 c-65 -34 -77 -50 -58 -80 17 -25 75 -30 94 -6 6 7 17 13
24 13 14 0 25 31 25 73 0 35 -18 35 -85 0z"/>
<path d="M22520 2829 c-7 -11 -9 -27 -6 -35 8 -22 72 -45 102 -38 21 5 25 11
22 36 -2 25 -10 32 -43 44 -54 18 -62 18 -75 -7z"/>
<path d="M23241 2832 c-1 -7 -9 -12 -18 -11 -33 4 -53 -12 -53 -42 0 -30 11
-35 69 -30 13 1 36 -3 52 -9 19 -8 33 -9 47 -1 40 22 -3 81 -59 81 -15 0 -30
6 -32 13 -4 9 -6 9 -6 -1z"/>
<path d="M22261 2774 c-19 -42 17 -79 130 -132 9 -4 29 46 29 72 0 16 -14 32
-49 54 -60 40 -94 41 -110 6z"/>
<path d="M23579 2733 c-5 -13 -9 -28 -9 -33 0 -19 46 -33 114 -34 64 -1 71 1
74 19 4 34 -10 43 -91 58 l-78 15 -10 -25z"/>
<path d="M30096 2747 c-41 -25 -71 -57 -60 -65 6 -4 13 -15 17 -24 9 -24 41
-23 88 4 39 22 57 54 45 83 -7 18 -62 19 -90 2z"/>
<path d="M28770 2718 c0 -4 -7 -5 -15 -2 -21 8 -43 -42 -28 -64 13 -20 42 -18
90 4 28 14 33 22 31 43 -3 23 -8 26 -40 26 -21 0 -38 -3 -38 -7z"/>
<path d="M22817 2712 c-38 -5 -54 -37 -31 -63 9 -10 29 -19 43 -19 14 0 44 -7
66 -14 45 -16 75 -7 75 23 0 23 -60 73 -78 66 -7 -3 -21 -1 -30 3 -9 4 -29 6
-45 4z"/>
<path d="M29680 2685 c-7 -9 -19 -14 -25 -11 -6 2 -19 -8 -28 -24 -18 -30 -16
-34 37 -60 27 -14 29 -13 52 15 33 41 38 62 20 80 -19 19 -40 19 -56 0z"/>
<path d="M29028 2683 c7 -3 16 -2 19 1 4 3 -2 6 -13 5 -11 0 -14 -3 -6 -6z"/>
<path d="M23996 2661 c-21 -23 -9 -58 22 -66 58 -15 126 -11 145 9 23 26 22
33 -13 51 -45 23 -136 26 -154 6z"/>
<path d="M24386 2601 c-23 -25 -13 -61 17 -62 143 -8 166 1 129 51 -16 21 -29
26 -74 28 -44 2 -58 -1 -72 -17z"/>
<path d="M28430 2611 c-51 -10 -60 -18 -60 -52 0 -34 21 -46 54 -31 13 6 29 6
36 2 13 -8 22 1 46 48 10 19 -3 42 -23 41 -10 -1 -34 -4 -53 -8z"/>
<path d="M22527 2582 c-33 -36 -21 -55 51 -90 73 -35 103 -34 99 1 -2 25 -21
48 -68 82 -39 30 -60 31 -82 7z"/>
<path d="M28016 2569 c-53 -8 -61 -13 -70 -45 -6 -19 0 -23 53 -36 56 -13 60
-13 85 7 28 22 34 53 14 73 -13 13 -12 13 -82 1z"/>
<path d="M23146 2514 c-8 -32 14 -56 73 -80 55 -22 85 -16 89 18 3 24 -3 29
-45 48 -26 11 -56 25 -65 30 -29 16 -46 11 -52 -16z"/>
<path d="M24804 2530 c-64 -9 -74 -15 -74 -45 0 -28 9 -32 100 -41 74 -7 89
-1 90 34 0 13 -48 63 -59 61 -3 -1 -29 -5 -57 -9z"/>
<path d="M29855 2513 c-11 -3 -22 -8 -25 -12 -3 -4 -20 -17 -38 -30 -41 -29
-40 -61 1 -72 54 -14 127 44 127 100 0 21 -18 25 -65 14z"/>
<path d="M27707 2503 c-51 -8 -92 -38 -89 -64 3 -30 6 -32 44 -31 64 2 72 3
105 19 36 17 43 42 17 67 -15 16 -23 17 -77 9z"/>
<path d="M25203 2492 c-26 -4 -42 -46 -26 -71 8 -12 24 -16 61 -14 91 3 143
66 65 78 -61 9 -77 11 -100 7z"/>
<path d="M29344 2480 c-6 -6 -31 -21 -55 -34 -34 -19 -45 -30 -47 -52 -5 -56
11 -62 75 -31 100 49 108 55 111 77 6 37 -57 67 -84 40z"/>
<path d="M27958 2463 c7 -3 16 -2 19 1 4 3 -2 6 -13 5 -11 0 -14 -3 -6 -6z"/>
<path d="M25586 2441 c-12 -13 -15 -27 -10 -46 l7 -27 78 4 c77 5 109 17 109
44 0 19 -31 30 -106 38 -52 6 -63 4 -78 -13z"/>
<path d="M27264 2412 c-51 -24 -59 -34 -54 -72 3 -26 15 -30 45 -14 17 9 41
17 55 19 42 4 85 18 92 28 3 6 2 20 -4 33 -15 33 -68 36 -134 6z"/>
<path d="M25918 2408 c-27 -41 -8 -65 59 -73 75 -8 113 5 113 40 0 30 -19 39
-101 49 -51 6 -57 5 -71 -16z"/>
<path d="M26868 2425 c-3 -4 -26 -11 -49 -16 -24 -6 -49 -15 -56 -21 -20 -16
-15 -44 11 -61 20 -14 26 -14 42 -2 11 8 40 15 67 15 26 0 47 5 47 10 0 6 7
10 15 10 19 0 20 34 2 49 -17 14 -70 25 -79 16z"/>
<path d="M26344 2402 c-15 -9 -21 -43 -11 -59 9 -14 75 -16 117 -4 28 8 38 35
20 56 -13 16 -105 21 -126 7z"/>
<path d="M23487 2340 c-7 -27 1 -50 18 -50 7 0 15 -7 19 -15 6 -17 101 -22
111 -5 9 14 -6 61 -17 54 -5 -3 -17 1 -26 9 -9 8 -36 18 -58 22 -37 6 -42 4
-47 -15z"/>
<path d="M22793 2325 c-14 -16 -17 -54 -5 -71 4 -6 19 -14 35 -18 16 -4 27
-13 27 -24 0 -14 2 -14 9 -3 5 8 16 11 25 8 46 -18 20 68 -30 101 -41 26 -45
26 -61 7z"/>
<path d="M28942 2313 c2 -22 9 -29 30 -31 23 -3 27 0 22 15 -7 19 -32 43 -47
43 -4 0 -7 -12 -5 -27z"/>
<path d="M29655 2290 c-3 -5 -14 -10 -23 -10 -9 0 -40 -11 -69 -24 -42 -20
-52 -30 -58 -56 -11 -48 11 -66 56 -47 19 9 46 26 61 39 14 12 37 31 51 41 18
13 23 24 19 42 -4 25 -26 34 -37 15z"/>
<path d="M28952 2258 c-25 -25 -4 -78 30 -78 24 1 68 52 68 80 0 14 -83 13
-98 -2z"/>
<path d="M23832 2193 c-20 -4 -23 -9 -17 -31 14 -57 94 -92 128 -57 15 15 15
18 1 40 -15 22 -68 57 -83 54 -3 -1 -17 -4 -29 -6z"/>
<path d="M22994 2135 c-18 -45 28 -89 103 -101 46 -7 58 4 42 38 -25 54 -131
100 -145 63z"/>
<path d="M28665 2130 c-4 -6 -28 -21 -55 -35 -60 -30 -66 -39 -46 -71 19 -29
54 -27 98 6 15 11 31 20 36 20 12 0 42 34 42 48 0 30 -60 56 -75 32z"/>
<path d="M29320 2073 c-8 -3 -32 -21 -53 -39 -20 -19 -42 -34 -48 -34 -7 0 -8
-12 -4 -32 9 -39 5 -34 32 -42 18 -6 34 5 88 59 37 36 65 71 62 78 -4 13 -53
19 -77 10z"/>
<path d="M24145 2036 c-13 -19 -14 -29 -6 -45 8 -14 8 -20 -1 -23 -6 -2 8 -4
33 -3 24 1 54 -5 66 -12 12 -8 34 -13 50 -11 33 4 41 31 21 69 -11 20 -22 25
-63 27 -27 2 -54 8 -59 13 -15 14 -24 11 -41 -15z"/>
<path d="M28207 1966 c-2 -6 -20 -10 -40 -10 -24 0 -32 -3 -24 -9 9 -7 9 -10
0 -14 -16 -6 -17 -45 -1 -61 16 -16 43 -15 58 3 7 8 16 12 21 9 10 -6 79 44
79 58 0 30 -84 51 -93 24z"/>
<path d="M23265 1910 c-4 -6 -4 -24 0 -40 5 -22 14 -32 33 -36 15 -4 34 -12
42 -18 38 -28 64 -39 68 -27 2 6 10 11 19 11 10 0 12 6 7 23 -8 26 -33 57 -46
57 -6 0 -21 9 -35 20 -27 21 -78 27 -88 10z"/>
<path d="M24584 1905 c-4 -10 -3 -29 2 -44 8 -23 15 -26 59 -27 51 0 97 15 92
30 -7 21 -54 45 -99 52 -40 5 -49 3 -54 -11z"/>
<path d="M27858 1913 c-14 -2 -32 -11 -38 -19 -7 -8 -21 -14 -31 -14 -26 0
-34 -37 -13 -61 9 -10 22 -19 29 -19 20 0 76 31 82 46 3 8 12 14 19 14 8 0 17
7 20 15 7 17 -13 46 -30 44 -6 -1 -23 -4 -38 -6z"/>
<path d="M24953 1833 c-13 -2 -23 -10 -22 -16 1 -28 17 -51 35 -52 10 -1 45
-6 76 -10 56 -7 57 -7 64 19 3 14 4 32 1 40 -9 22 -88 32 -154 19z"/>
<path d="M28946 1792 c-55 -30 -72 -51 -63 -76 9 -22 44 -20 92 4 22 11 45 20
53 20 11 0 42 55 42 75 0 15 -81 0 -124 -23z"/>
<path d="M27475 1780 c-11 -5 -33 -11 -48 -15 -16 -3 -31 -15 -36 -28 -14 -35
9 -49 79 -51 37 0 100 37 100 60 0 10 -59 46 -72 43 -1 0 -12 -4 -23 -9z"/>
<path d="M25343 1753 c-30 -11 -13 -44 32 -64 52 -23 77 -19 93 16 16 36 -7
55 -66 54 -26 0 -53 -3 -59 -6z"/>
<path d="M26548 1713 c7 -3 16 -2 19 1 4 3 -2 6 -13 5 -11 0 -14 -3 -6 -6z"/>
<path d="M27055 1715 c-5 -2 -26 -6 -46 -9 -32 -6 -37 -11 -41 -37 -6 -38 20
-56 60 -40 15 6 46 13 70 15 23 3 47 8 52 11 16 10 11 44 -7 53 -17 9 -68 13
-88 7z"/>
<path d="M23637 1703 c-15 -14 -6 -43 22 -69 25 -23 61 -41 124 -61 19 -6 47
13 47 32 0 46 -163 129 -193 98z"/>
<path d="M25673 1676 c-24 -11 -26 -19 -14 -50 8 -20 17 -22 113 -27 44 -3 61
1 77 15 12 11 21 23 21 28 0 27 -155 54 -197 34z"/>
<path d="M26133 1665 c-33 -23 -29 -51 10 -70 51 -24 110 -17 148 17 38 35 31
47 -32 52 -24 2 -57 6 -74 10 -21 5 -37 2 -52 -9z"/>
<path d="M28640 1665 c-7 -9 -15 -13 -18 -10 -10 9 -43 -39 -40 -60 4 -26 53
-33 76 -11 10 9 27 24 39 34 17 13 20 22 13 40 -11 26 -51 30 -70 7z"/>
<path d="M28920 1659 c0 -5 5 -7 10 -4 6 3 10 8 10 11 0 2 -4 4 -10 4 -5 0
-10 -5 -10 -11z"/>
<path d="M26545 1638 c-12 -53 -3 -63 67 -68 37 -3 64 -2 61 3 -2 4 11 14 30
22 42 17 55 51 23 59 -11 3 -56 6 -98 6 -72 0 -78 -2 -83 -22z"/>
<path d="M25868 1563 c7 -3 16 -2 19 1 4 3 -2 6 -13 5 -11 0 -14 -3 -6 -6z"/>
<path d="M28210 1520 c0 -5 4 -10 9 -10 6 0 13 5 16 10 3 6 -1 10 -9 10 -9 0
-16 -4 -16 -10z"/>
<path d="M28295 1522 c-11 -3 -23 -9 -26 -14 -3 -5 -23 -10 -45 -11 -31 -2
-40 -7 -42 -24 -8 -55 36 -78 95 -49 15 7 42 20 58 28 23 11 30 20 30 43 0 25
-4 30 -25 30 -14 0 -34 -1 -45 -3z"/>
<path d="M24037 1514 c-4 -4 -7 -19 -7 -34 0 -20 10 -32 41 -50 22 -14 46 -30
54 -37 7 -7 27 -10 47 -7 32 6 34 9 37 46 1 22 -2 37 -7 34 -5 -3 -22 4 -38
16 -15 12 -35 24 -43 26 -44 10 -77 13 -84 6z"/>
<path d="M27855 1346 c-48 -25 -60 -35 -57 -52 2 -12 13 -27 26 -33 19 -11 31
-8 80 13 32 14 62 24 66 21 20 -12 35 49 16 64 -29 22 -72 18 -131 -13z"/>
<path d="M24356 1342 c-14 -23 7 -64 38 -77 45 -19 162 -30 170 -16 9 14 -12
53 -25 46 -5 -4 -9 -2 -9 2 0 26 -161 66 -174 45z"/>
<path d="M27581 1267 c-19 -7 -37 -22 -42 -34 -12 -33 23 -53 85 -51 43 2 51
6 72 38 23 32 23 36 7 48 -21 15 -77 15 -122 -1z"/>
<path d="M28530 1220 c0 -5 5 -10 11 -10 5 0 7 5 4 10 -3 6 -8 10 -11 10 -2 0
-4 -4 -4 -10z"/>
<path d="M24756 1207 c-21 -16 -13 -67 12 -67 8 0 34 -11 57 -25 32 -18 49
-22 71 -16 26 7 29 12 29 47 l0 39 -58 12 c-32 7 -66 14 -75 18 -10 3 -26 -1
-36 -8z"/>
<path d="M27254 1159 c-3 -6 -18 -9 -32 -6 -32 6 -72 -19 -72 -45 0 -29 40
-59 63 -47 10 6 26 7 36 4 34 -10 88 56 75 90 -7 17 -59 20 -70 4z"/>
<path d="M25142 1108 c-28 -28 -4 -75 35 -69 6 1 14 -3 18 -9 3 -5 30 -10 60
-10 67 0 82 23 38 57 -15 13 -32 22 -38 21 -9 -1 -31 4 -85 18 -9 2 -21 -1
-28 -8z"/>
<path d="M26685 1097 c-56 -16 -68 -29 -54 -60 11 -25 64 -43 75 -26 3 5 26 8
53 8 71 -2 91 7 91 41 0 16 -3 31 -7 33 -20 11 -122 14 -158 4z"/>
<path d="M25482 1084 c-16 -17 -7 -54 14 -54 8 0 14 -4 14 -9 0 -16 72 -21
105 -7 26 11 32 18 28 38 -2 13 -16 29 -31 36 -36 17 -114 15 -130 -4z"/>
<path d="M25798 1046 c-16 -22 -16 -24 0 -38 35 -30 69 -46 109 -52 34 -6 48
-3 83 19 35 22 40 28 29 42 -18 21 -57 35 -109 38 -25 2 -56 6 -70 9 -19 5
-29 1 -42 -18z"/>
<path d="M26191 1037 c-18 -20 -20 -28 -11 -52 9 -24 14 -27 48 -22 20 3 61 9
90 13 49 6 52 8 52 35 0 37 -24 49 -98 49 -49 0 -62 -4 -81 -23z"/>
<path d="M26308 503 c12 -2 32 -2 45 0 12 2 2 4 -23 4 -25 0 -35 -2 -22 -4z"/>
<path d="M10606 2277 c3 -10 9 -15 12 -12 3 3 0 11 -7 18 -10 9 -11 8 -5 -6z"/>
<path d="M31020 4665 c0 -8 5 -15 10 -15 6 0 10 7 10 15 0 8 -4 15 -10 15 -5
0 -10 -7 -10 -15z"/>
<path d="M4760 3981 c0 -22 13 -39 25 -35 16 7 7 44 -11 44 -8 0 -14 -4 -14
-9z"/>
<path d="M26020 3975 c0 -8 7 -15 15 -15 9 0 12 6 9 15 -4 8 -10 15 -15 15 -5
0 -9 -7 -9 -15z"/>
<path d="M21840 2271 c0 -5 5 -13 10 -16 6 -3 10 -2 10 4 0 5 -4 13 -10 16 -5
3 -10 2 -10 -4z"/>
<path d="M11121 1775 c1 -11 -2 -31 -5 -45 -4 -20 0 -27 21 -37 39 -19 52 -16
65 12 14 30 -3 55 -38 55 -13 0 -27 8 -33 18 -9 16 -10 15 -10 -3z"/>
<path d="M9135 1750 c-3 -5 -1 -10 4 -10 6 0 11 5 11 10 0 6 -2 10 -4 10 -3 0
-8 -4 -11 -10z"/>
<path d="M24450 620 c0 -5 5 -10 11 -10 5 0 7 5 4 10 -3 6 -8 10 -11 10 -2 0
-4 -4 -4 -10z"/>
<path d="M24695 540 c3 -5 8 -10 11 -10 2 0 4 5 4 10 0 6 -5 10 -11 10 -5 0
-7 -4 -4 -10z"/>
<path d="M14090 460 c0 -5 5 -10 10 -10 6 0 10 5 10 10 0 6 -4 10 -10 10 -5 0
-10 -4 -10 -10z"/>
<path d="M24858 443 c7 -3 16 -2 19 1 4 3 -2 6 -13 5 -11 0 -14 -3 -6 -6z"/>
</g>
</svg>
