<?xml version="1.0" standalone="no"?>
<!DOCTYPE svg PUBLIC "-//W3C//DTD SVG 20010904//EN"
 "http://www.w3.org/TR/2001/REC-SVG-20010904/DTD/svg10.dtd">
<svg version="1.0" xmlns="http://www.w3.org/2000/svg"
 width="43200.000000pt" height="4907.986502pt" viewBox="0 0 43200.000000 4907.986502"
 preserveAspectRatio="xMidYMid meet">
<metadata>
Created by potrace 1.11, written by Peter Selinger 2001-2013
</metadata>
<g transform="translate(0.000000,4907.986502) scale(1.619798,-1.619798)"
fill="#000000" stroke="none">
<path d="M12480 2949 c-69 -4 -154 -12 -190 -18 -36 -5 -129 -15 -207 -21 -78
-5 -148 -12 -155 -15 -7 -3 -83 -9 -169 -14 -89 -5 -166 -14 -180 -21 -28 -15
-160 -45 -289 -65 -52 -8 -117 -21 -145 -29 -87 -26 -177 -46 -265 -61 -47 -7
-123 -27 -170 -44 -47 -17 -101 -33 -120 -35 -19 -2 -55 -11 -79 -20 -24 -9
-56 -16 -70 -16 -15 0 -31 -4 -37 -8 -8 -8 -46 -20 -179 -57 -27 -7 -76 -21
-108 -30 -32 -9 -95 -20 -140 -25 -45 -5 -91 -12 -102 -14 -11 -3 -40 -11 -65
-17 -89 -23 -204 -56 -282 -81 -32 -10 -64 -18 -73 -18 -9 0 -41 -8 -73 -18
-31 -11 -77 -25 -102 -32 -25 -8 -66 -24 -91 -37 -26 -13 -58 -23 -72 -23 -13
0 -30 -7 -37 -15 -7 -8 -18 -15 -25 -15 -17 0 -67 -58 -88 -102 -29 -61 -32
-171 -7 -258 12 -41 25 -94 30 -117 5 -23 15 -51 22 -62 16 -27 11 -31 -58
-41 -33 -5 -81 -15 -109 -23 -60 -18 -221 -27 -290 -17 -218 32 -572 120 -630
156 -32 19 -151 53 -244 69 -176 29 -197 33 -221 44 -14 6 -69 19 -122 31 -53
11 -116 26 -140 34 -24 8 -68 19 -98 26 -100 22 -155 41 -187 66 -17 13 -42
24 -55 24 -29 0 -177 30 -203 41 -11 4 -45 13 -75 19 -30 5 -91 17 -135 26
-44 8 -111 21 -150 29 -38 7 -97 21 -130 30 -33 9 -96 21 -140 26 -44 6 -111
17 -150 25 -110 25 -152 33 -265 49 -58 8 -139 24 -180 35 -100 27 -172 37
-309 45 -63 3 -120 10 -126 15 -6 5 -26 9 -45 8 -19 0 -96 3 -170 7 -156 8
-564 8 -630 0 -25 -3 -92 -7 -150 -10 -146 -7 -374 -25 -440 -35 -140 -22
-392 -81 -480 -113 -30 -10 -109 -32 -175 -47 -222 -52 -258 -63 -263 -82 -2
-10 -11 -18 -18 -18 -8 0 -22 -4 -32 -9 -9 -6 -48 -14 -87 -20 -118 -17 -256
-41 -335 -59 -41 -9 -106 -17 -145 -18 -38 0 -142 -4 -230 -9 -201 -10 -290
-7 -374 11 -36 7 -80 14 -96 14 -17 0 -62 7 -100 16 -39 8 -106 22 -150 30
-44 8 -91 19 -105 25 -14 6 -61 21 -105 34 -44 13 -105 37 -136 53 -31 16 -74
35 -95 42 -45 14 -82 45 -95 78 -8 21 -29 31 -29 14 0 -5 -13 -9 -30 -10 -16
0 -34 -3 -38 -6 -14 -8 -7 -246 8 -291 25 -79 72 -188 96 -226 13 -21 24 -43
24 -49 0 -5 11 -17 25 -26 13 -9 27 -23 30 -32 3 -10 20 -27 38 -40 17 -12 55
-40 82 -62 28 -22 88 -60 135 -83 47 -23 87 -45 88 -49 2 -5 10 -8 18 -8 31 0
3 -18 -38 -24 -24 -4 -68 -15 -98 -26 -30 -10 -89 -26 -130 -35 -126 -26 -191
-43 -203 -53 -15 -12 -61 -22 -112 -24 -22 0 -45 -5 -52 -10 -6 -5 -26 -8 -45
-7 -18 2 -63 2 -100 1 -56 -2 -69 -5 -78 -22 -6 -12 -8 -30 -5 -41 10 -32 75
-99 95 -99 9 0 29 -11 44 -25 15 -14 34 -25 42 -25 7 0 14 -4 14 -10 0 -5 8
-10 19 -10 21 0 85 -29 146 -66 22 -13 56 -31 75 -40 19 -8 49 -21 65 -29 48
-21 136 -45 167 -45 16 0 39 -6 51 -14 18 -12 91 -28 133 -31 6 0 18 -6 26
-12 8 -7 34 -13 59 -14 24 -1 82 -9 128 -17 100 -17 293 -8 326 14 11 8 38 14
60 14 22 0 49 7 59 15 29 22 392 22 423 0 19 -13 58 -15 267 -11 135 2 251 8
258 12 6 4 39 9 73 10 33 1 87 7 120 14 73 14 109 18 300 25 83 3 152 10 153
16 2 5 15 9 29 9 25 0 56 5 243 35 47 8 130 21 185 30 55 9 112 22 126 29 18
9 32 10 48 2 15 -7 49 -6 104 1 89 11 844 9 987 -3 110 -9 223 -6 256 6 18 7
30 7 40 -1 7 -6 69 -13 141 -15 129 -5 363 -37 395 -55 10 -5 40 -9 67 -9 28
0 53 -5 57 -11 4 -7 24 -9 50 -6 25 2 45 0 47 -6 1 -5 30 -12 62 -15 33 -3 65
-11 73 -18 7 -8 25 -16 40 -19 53 -11 97 -27 117 -41 20 -15 20 -15 -5 -34
l-25 -20 45 0 c25 0 54 -6 65 -14 11 -7 47 -16 80 -20 32 -4 72 -13 87 -21 17
-8 28 -9 28 -3 0 18 64 -2 195 -62 44 -20 114 -45 155 -54 41 -10 82 -24 91
-32 36 -32 235 -118 272 -117 23 0 37 -4 37 -12 0 -6 19 -20 43 -29 23 -10 56
-24 72 -31 57 -25 250 -85 275 -85 8 0 48 -11 90 -24 128 -41 340 -78 377 -65
26 9 50 0 56 -21 4 -15 15 -18 63 -18 33 0 66 -2 74 -5 42 -15 474 -29 536
-18 33 6 47 5 50 -4 3 -7 15 -10 30 -7 13 2 31 -1 39 -8 10 -8 32 -10 67 -6
29 4 127 9 218 11 91 3 223 7 294 10 84 3 134 1 143 -6 9 -8 17 -7 28 5 11 11
34 16 71 16 40 0 72 8 122 31 37 17 87 41 112 52 56 26 122 91 140 137 7 19
21 49 30 65 20 35 35 131 23 148 -5 7 -6 57 -3 111 l5 99 50 14 c28 8 55 19
61 24 7 5 25 7 42 4 35 -6 90 15 117 45 13 15 26 19 42 15 13 -3 40 2 60 10
21 9 49 18 63 20 43 8 124 23 155 30 17 4 39 6 50 6 11 0 61 10 110 24 171 47
270 67 350 72 44 3 84 9 89 14 5 5 14 2 20 -6 9 -11 21 -12 61 -4 28 6 68 12
90 14 22 1 86 10 142 19 57 9 131 16 165 16 35 0 92 5 128 11 129 20 412 30
595 20 86 -5 191 2 226 14 27 10 57 11 119 4 45 -5 228 -8 407 -6 178 2 326 1
328 -1 3 -3 46 -6 97 -8 183 -5 387 -16 548 -29 30 -3 154 -8 275 -11 299 -9
289 -8 301 -16 6 -4 76 -12 155 -18 79 -6 171 -17 204 -25 33 -7 89 -16 125
-19 239 -22 408 -46 419 -60 6 -6 13 -27 16 -46 9 -56 37 -153 51 -180 7 -14
21 -43 31 -65 19 -45 53 -94 115 -174 62 -76 190 -143 362 -188 71 -18 144
-33 161 -33 17 0 35 -4 40 -9 6 -6 46 -12 90 -16 44 -3 161 -12 260 -20 99 -8
277 -15 395 -15 118 0 233 -4 254 -9 22 -5 44 -7 49 -4 15 9 220 25 472 38 76
4 144 13 220 31 33 7 81 14 108 14 26 0 47 3 47 8 0 4 23 8 50 9 53 2 196 29
214 40 10 7 130 29 211 39 22 3 54 12 72 20 17 8 36 14 42 14 14 0 182 55 207
67 45 24 101 40 219 63 86 17 235 63 235 72 0 4 8 8 18 8 10 0 27 7 38 15 10
8 26 15 35 15 16 0 110 37 199 78 140 64 281 112 330 112 22 0 156 49 235 86
37 17 112 34 119 26 3 -2 11 0 19 6 7 6 33 14 57 18 25 3 79 16 120 27 41 11
82 21 90 22 8 1 26 5 40 8 126 30 167 38 245 48 150 18 360 22 544 9 95 -7
262 -14 370 -15 168 -3 371 -15 476 -29 17 -3 93 -9 170 -16 76 -6 166 -18
200 -26 101 -25 196 -44 280 -55 44 -6 143 -26 220 -46 77 -20 158 -37 180
-38 22 -1 53 -7 68 -13 16 -7 44 -12 63 -12 20 0 43 -8 54 -18 24 -22 84 -38
235 -62 122 -20 329 -73 390 -100 17 -8 131 -29 245 -45 38 -5 97 -16 235 -41
114 -22 392 -22 469 0 28 8 114 17 191 21 77 4 167 8 200 10 116 6 399 51 441
70 16 8 38 23 49 35 13 14 30 20 61 20 23 0 55 5 71 11 32 12 83 63 83 84 0
17 -26 26 -56 19 -13 -3 -30 -2 -37 4 -6 5 -25 12 -42 16 -31 7 -139 39 -214
63 -25 8 -56 20 -70 28 -14 7 -48 23 -76 35 -90 40 -160 75 -163 83 -2 4 -9 7
-15 7 -25 0 -137 63 -186 105 -30 25 -56 43 -59 40 -3 -2 -11 4 -18 14 -8 10
-28 21 -47 25 -18 3 -57 22 -86 42 -30 19 -60 33 -67 30 -8 -3 -33 3 -56 13
-40 17 -41 18 -22 29 12 6 41 14 65 18 23 4 54 13 68 21 14 7 32 13 40 13 18
0 142 91 206 151 28 26 72 65 99 86 27 21 61 49 76 63 15 14 44 30 66 37 21 6
73 21 114 33 83 25 100 35 100 59 -1 42 -12 46 -174 48 -86 0 -170 6 -188 12
-18 6 -121 13 -228 16 -216 6 -233 7 -340 28 -63 13 -147 26 -177 29 -5 0 -16
6 -27 13 -10 8 -24 11 -32 8 -7 -3 -25 5 -40 16 -15 12 -36 21 -47 21 -11 0
-25 7 -31 15 -6 8 -42 22 -81 32 -38 9 -72 20 -75 23 -9 12 -67 19 -76 10 -9
-9 -106 21 -209 64 -33 14 -70 26 -81 26 -12 0 -27 7 -34 15 -7 8 -20 15 -30
15 -10 0 -35 9 -57 19 -87 45 -141 69 -178 81 -22 7 -53 21 -70 30 -54 30
-216 70 -277 68 -31 -1 -63 3 -70 9 -7 5 -47 18 -88 28 -41 9 -88 23 -105 29
-48 21 -97 37 -150 53 -136 38 -590 75 -898 72 -122 -1 -256 1 -297 4 -41 3
-128 -2 -193 -9 -65 -8 -121 -12 -126 -10 -5 3 -28 0 -52 -8 -24 -7 -68 -19
-98 -26 -29 -7 -65 -19 -80 -26 -14 -8 -49 -14 -78 -14 -28 0 -54 -4 -57 -9
-3 -5 -20 -11 -38 -14 -18 -3 -100 -24 -183 -46 -182 -51 -326 -89 -380 -102
-22 -5 -71 -25 -110 -43 -38 -19 -99 -42 -135 -51 -36 -9 -103 -28 -150 -42
-47 -13 -110 -31 -140 -40 -30 -8 -77 -24 -105 -35 -27 -11 -66 -24 -85 -29
-19 -4 -62 -15 -95 -23 -61 -15 -78 -20 -195 -62 -36 -12 -83 -26 -105 -29
-53 -7 -135 -26 -160 -35 -52 -19 -95 -29 -150 -35 -125 -14 -157 -20 -260
-50 -157 -47 -311 -83 -375 -90 -35 -3 -69 -10 -75 -14 -5 -5 -35 -12 -65 -16
-30 -4 -60 -11 -65 -16 -6 -4 -20 -8 -30 -7 -11 1 -49 -6 -85 -15 -85 -21
-224 -36 -330 -36 -47 0 -160 -1 -252 -1 -203 -2 -298 6 -298 27 0 8 -4 12 -9
9 -5 -4 -58 10 -118 29 -59 20 -149 47 -200 60 -102 26 -150 46 -180 75 -19
17 -20 22 -7 77 13 57 26 375 17 400 -3 7 -11 13 -19 13 -8 0 -14 6 -14 14 0
14 -25 25 -162 75 -51 18 -96 31 -128 36 -8 2 -62 14 -120 28 -58 14 -157 33
-220 42 -154 21 -341 61 -495 105 -22 6 -57 13 -78 15 -21 3 -43 8 -49 11 -16
10 -122 34 -197 45 -36 5 -78 13 -95 18 -17 5 -60 13 -96 16 -36 4 -108 18
-160 32 -52 14 -115 29 -140 34 -25 6 -76 16 -115 24 -165 35 -281 55 -342 60
-35 3 -68 7 -73 10 -5 3 -11 1 -15 -5 -4 -6 -14 -5 -28 4 -12 7 -45 14 -74 14
-28 1 -64 7 -80 13 -32 13 -457 25 -1110 32 -376 4 -433 3 -433 -10 0 -10 -6
-12 -22 -7 -13 4 -72 8 -133 9 -60 1 -117 4 -125 7 -8 3 -71 1 -140 -3z m653
-155 c116 -2 227 -8 246 -14 19 -5 38 -7 43 -4 5 3 17 2 26 -2 9 -4 172 -9
362 -10 427 -3 498 -8 563 -41 32 -16 58 -22 73 -19 15 4 34 0 49 -10 14 -9
34 -14 45 -11 11 3 41 -1 68 -8 26 -8 72 -18 102 -24 30 -5 89 -17 130 -25 41
-9 86 -16 101 -16 14 0 29 -4 35 -9 20 -19 148 -34 319 -37 99 -2 189 -8 200
-13 33 -17 245 -54 318 -56 37 -1 73 -7 79 -13 7 -7 22 -12 35 -12 33 0 175
-30 197 -42 10 -5 55 -12 100 -14 58 -3 84 -8 93 -20 7 -10 32 -16 76 -19 64
-4 142 -21 162 -36 6 -4 35 -11 65 -15 30 -3 71 -13 90 -21 19 -8 62 -16 95
-19 77 -6 147 -29 171 -55 17 -19 19 -38 18 -153 0 -102 -4 -137 -16 -156 -9
-14 -19 -39 -23 -57 -9 -45 -90 -120 -178 -165 -39 -21 -80 -38 -89 -38 -10 0
-18 -4 -18 -10 0 -5 -6 -10 -14 -10 -14 0 -136 -58 -146 -70 -3 -3 -30 -17
-60 -31 -30 -15 -75 -36 -100 -48 -68 -33 -122 -128 -134 -237 -5 -39 -3 -54
9 -64 8 -7 15 -21 15 -31 0 -11 3 -19 8 -19 9 1 52 90 52 108 0 6 5 12 10 12
6 0 18 19 27 42 15 37 17 39 24 20 10 -28 29 -28 36 -2 3 12 20 28 37 37 17 9
45 27 61 40 59 47 135 93 155 93 17 0 20 -7 21 -42 3 -104 30 -239 60 -302 16
-34 23 -66 22 -101 -2 -63 -30 -155 -51 -163 -9 -3 -45 0 -81 7 -36 6 -110 18
-164 26 -53 8 -111 22 -127 30 -17 9 -34 14 -38 11 -4 -2 -41 5 -82 16 -41 11
-100 24 -130 28 -30 4 -109 15 -175 24 -66 10 -129 21 -140 25 -29 12 -297 52
-569 85 -76 9 -135 21 -145 29 -25 23 -73 28 -286 33 -110 2 -294 9 -410 15
-115 6 -298 12 -405 15 -107 2 -229 7 -270 9 -41 3 -282 8 -536 11 -409 5
-470 4 -550 -11 -62 -12 -156 -18 -314 -21 -124 -2 -254 -6 -290 -9 -36 -3
-94 -8 -130 -11 -36 -3 -103 -11 -150 -18 -47 -8 -128 -19 -180 -26 -52 -6
-104 -14 -115 -17 -11 -3 -51 -9 -90 -13 -38 -4 -99 -12 -135 -18 -36 -6 -97
-13 -136 -16 -53 -4 -90 -14 -146 -40 -42 -21 -90 -36 -111 -36 -19 0 -48 -6
-64 -14 -77 -39 -183 -68 -338 -91 -93 -15 -181 -28 -195 -31 -14 -2 -49 -10
-79 -19 -29 -8 -82 -17 -117 -20 l-64 -6 0 29 c0 60 -54 48 -66 -14 -7 -37
-13 -41 -32 -22 -22 22 -85 17 -157 -12 -38 -15 -84 -31 -102 -35 -28 -6 -32
-4 -37 22 -19 99 -17 140 9 243 15 58 30 139 34 180 l6 75 35 -1 c38 -2 64
-12 125 -47 30 -18 42 -33 49 -60 10 -40 33 -49 59 -23 12 13 19 11 51 -15 41
-34 69 -35 74 -1 4 23 -113 212 -131 212 -4 0 -23 11 -40 24 -64 48 -225 114
-294 121 -83 8 -202 67 -234 115 -13 19 -34 44 -46 55 -13 11 -23 25 -23 31 0
6 -9 19 -20 29 -11 10 -20 23 -20 28 0 6 -8 29 -19 51 -58 129 -58 124 -17
208 27 55 30 57 74 63 26 4 63 11 82 17 19 5 49 13 65 18 17 5 82 27 145 50
111 40 168 53 370 84 52 8 120 22 150 31 30 9 82 23 115 29 33 7 74 19 90 26
17 7 34 12 38 11 16 -3 143 27 192 46 28 11 109 34 180 52 72 18 159 41 195
52 36 10 76 19 90 19 14 0 57 9 96 20 39 10 95 24 125 29 66 12 151 33 244 59
66 19 134 25 390 38 150 7 205 16 380 61 39 9 108 18 155 18 47 1 101 6 120
13 41 13 213 32 354 38 55 3 102 7 104 9 3 2 9 2 14 -1 4 -3 104 -7 221 -10z
m9682 -389 c97 -7 224 -24 415 -57 36 -6 151 -33 255 -60 105 -27 208 -54 230
-59 22 -5 63 -21 91 -34 28 -14 54 -25 58 -25 4 0 31 -11 59 -23 59 -27 106
-44 227 -82 47 -15 109 -38 138 -51 29 -13 56 -24 61 -24 8 0 60 -23 93 -41
10 -5 25 -9 34 -9 9 0 42 -11 73 -24 31 -13 99 -41 151 -62 52 -20 102 -40
110 -45 47 -24 156 -60 170 -57 3 1 15 -4 26 -10 44 -24 176 -43 296 -43 122
0 392 15 478 28 43 6 44 5 30 -12 -29 -36 -127 -101 -220 -147 -83 -41 -183
-78 -350 -129 -31 -10 -90 -13 -192 -12 -134 2 -151 4 -201 27 -60 29 -102 33
-110 12 -7 -18 -2 -23 50 -46 37 -16 43 -23 43 -50 0 -20 6 -33 18 -37 9 -4
23 -15 30 -25 10 -14 27 -18 78 -18 55 0 75 -5 131 -35 36 -19 74 -35 84 -35
10 0 21 -5 25 -11 3 -6 17 -9 29 -6 16 2 25 -1 28 -12 2 -9 26 -24 53 -34 67
-26 131 -55 254 -117 231 -117 381 -190 391 -190 17 0 153 -60 170 -76 8 -7
20 -14 26 -14 6 0 32 -10 59 -22 42 -18 46 -22 29 -29 -11 -4 -34 -8 -52 -8
-17 -1 -34 -5 -37 -9 -3 -5 -34 -10 -68 -11 -35 -1 -101 -6 -148 -12 -158 -21
-764 -2 -920 28 -19 4 -44 8 -55 9 -11 1 -54 12 -95 24 -41 12 -91 20 -111 19
-20 -2 -44 3 -52 10 -9 7 -46 19 -84 27 -37 8 -81 20 -98 28 -16 8 -51 17 -76
20 -57 8 -191 42 -237 62 -19 8 -46 14 -59 14 -14 0 -37 6 -51 14 -38 21 -167
46 -262 52 -51 3 -91 11 -106 20 -27 18 -161 47 -176 38 -5 -3 -15 -1 -22 5
-8 7 -58 13 -111 16 -54 2 -101 7 -104 12 -5 8 -101 24 -321 54 -36 5 -76 13
-90 19 -26 10 -30 11 -265 29 -82 6 -184 16 -225 21 -68 9 -178 19 -270 24
-19 1 -45 6 -58 10 -27 9 -202 -12 -219 -26 -12 -9 -80 -10 -278 -5 -48 2 -98
-3 -125 -11 -25 -8 -66 -18 -92 -23 -27 -5 -72 -14 -100 -19 -29 -6 -62 -12
-73 -13 -11 -2 -38 -8 -60 -15 -22 -6 -79 -13 -127 -15 -47 -3 -91 -8 -96 -11
-6 -3 -25 -8 -43 -10 -18 -2 -35 -9 -37 -15 -2 -6 -14 -11 -26 -11 -23 0 -114
-24 -151 -39 -31 -13 -94 -29 -165 -41 -36 -6 -74 -15 -85 -19 -11 -5 -60 -21
-110 -36 -49 -15 -106 -33 -125 -40 -19 -8 -46 -17 -60 -21 -14 -3 -56 -21
-95 -39 -83 -39 -118 -51 -165 -60 -19 -4 -51 -16 -70 -27 -19 -11 -58 -22
-87 -25 -30 -3 -56 -10 -59 -14 -3 -5 -27 -9 -54 -9 -27 0 -51 -4 -54 -9 -3
-4 -20 -11 -38 -15 -29 -5 -55 -14 -163 -56 -11 -4 -38 -13 -60 -20 -22 -7
-71 -28 -110 -45 -38 -18 -81 -35 -95 -39 -14 -4 -34 -11 -45 -16 -35 -15
-219 -62 -260 -67 -22 -2 -49 -8 -60 -13 -18 -8 -69 -20 -160 -36 -16 -2 -66
-7 -110 -10 -44 -3 -87 -8 -95 -11 -8 -3 -28 -7 -45 -8 -88 -6 -345 -18 -380
-18 -22 0 -78 1 -125 1 -47 1 -191 -1 -320 -3 -183 -3 -251 -1 -308 11 -40 8
-94 14 -120 13 -26 0 -78 2 -117 5 -38 3 -113 8 -165 11 -52 2 -124 11 -160
20 -36 8 -74 17 -85 19 -41 7 -79 19 -104 32 -14 8 -32 14 -38 14 -30 0 1 108
44 157 19 21 72 46 126 57 15 4 27 13 27 21 0 8 10 16 23 17 64 4 113 3 123
-5 14 -9 53 -3 85 14 13 7 31 15 39 19 24 11 70 95 70 129 0 10 6 38 14 63 19
65 3 236 -28 298 -41 82 -67 175 -69 253 -2 41 0 84 4 94 7 20 106 73 135 73
9 0 30 10 46 22 l30 21 52 -26 c28 -14 71 -29 96 -32 25 -4 90 -22 145 -40 55
-18 150 -40 210 -50 61 -9 135 -20 165 -25 257 -40 342 -45 484 -26 61 8 167
18 236 22 69 4 136 11 150 16 14 5 45 13 70 18 67 11 254 50 370 76 108 24
223 44 253 44 16 0 63 9 105 21 43 11 109 29 148 39 67 18 74 18 104 4 30 -15
33 -15 54 5 12 12 30 21 40 21 17 0 95 38 106 51 3 4 34 16 70 28 56 18 355
120 355 121 0 3 208 72 228 75 41 7 123 33 204 66 40 16 79 29 87 29 15 0 110
27 141 41 11 5 61 16 110 24 50 9 118 25 152 36 34 10 71 19 82 19 11 0 30 4
43 9 13 5 43 14 68 21 25 7 62 19 83 26 20 8 57 14 80 14 24 0 47 4 53 9 5 6
32 12 59 15 28 4 84 13 125 21 109 20 288 44 452 60 126 12 440 12 603 0z
m-18549 -191 c-4 -11 -1 -12 12 -5 26 14 288 17 304 3 7 -5 81 -13 163 -16 83
-3 168 -8 190 -11 22 -3 57 -6 77 -5 20 0 39 -4 42 -8 3 -5 26 -9 53 -10 26
-2 87 -7 135 -12 48 -6 91 -10 95 -9 5 1 10 0 13 -1 3 -1 16 -3 30 -5 14 -2
77 -15 140 -30 63 -14 144 -30 179 -36 36 -5 69 -13 75 -18 13 -9 78 -26 161
-41 33 -6 78 -17 100 -25 38 -13 142 -36 177 -40 9 0 22 -6 30 -12 7 -6 29
-10 48 -9 19 2 37 0 40 -4 15 -20 141 -59 202 -62 38 -2 68 -8 68 -13 0 -14
71 -35 115 -35 20 0 46 -6 58 -14 12 -8 45 -19 72 -24 28 -6 76 -17 108 -26
32 -9 78 -16 102 -16 25 0 61 -9 84 -21 29 -15 49 -18 74 -14 29 6 40 2 69
-24 26 -22 46 -31 71 -31 20 0 39 -4 42 -10 3 -5 23 -10 44 -10 20 0 41 -4 46
-9 9 -9 84 -18 203 -25 29 -1 58 -8 64 -14 7 -7 19 -12 28 -12 9 0 25 -9 35
-20 13 -15 31 -20 65 -20 26 0 67 -7 91 -15 28 -10 58 -13 86 -9 28 4 48 2 58
-6 8 -6 18 -9 24 -6 5 3 11 -1 15 -9 4 -11 21 -15 61 -15 30 0 63 -4 73 -9 34
-18 179 -31 212 -19 18 6 47 7 68 3 20 -4 48 -6 61 -6 13 1 29 -3 35 -8 18
-15 214 -23 239 -10 20 11 144 30 217 33 19 1 40 5 46 8 13 9 61 -5 129 -38
28 -13 56 -24 62 -24 7 0 22 -19 34 -42 18 -35 20 -50 13 -78 -5 -19 -9 -138
-9 -265 0 -271 10 -333 56 -354 16 -7 29 -19 29 -26 0 -19 40 -45 68 -45 13 0
35 -9 49 -19 13 -11 30 -18 37 -15 12 5 86 -69 119 -118 9 -15 17 -36 17 -47
0 -34 12 -51 36 -51 17 0 25 -7 29 -25 3 -14 7 -36 10 -49 5 -24 -25 -63 -39
-49 -18 18 -674 18 -703 0 -6 -4 -13 -2 -15 4 -4 11 -11 12 -188 23 -58 3
-159 13 -225 20 -66 8 -172 20 -235 26 -63 6 -182 21 -265 32 -82 10 -163 17
-179 14 -19 -4 -38 0 -53 10 -14 8 -48 18 -76 20 -29 3 -68 6 -88 8 -19 2 -44
8 -55 13 -10 5 -46 18 -79 27 -33 10 -77 24 -98 32 -21 8 -42 12 -47 9 -5 -3
-12 1 -17 9 -4 7 -37 21 -73 30 -36 9 -101 34 -145 55 -73 35 -172 76 -250
103 -16 5 -56 23 -87 39 -74 37 -240 99 -266 99 -11 0 -46 12 -78 26 -33 14
-70 28 -84 31 -14 2 -29 8 -34 14 -6 5 -16 9 -23 9 -7 0 -52 15 -101 34 -48
18 -116 41 -152 51 -36 10 -70 22 -76 27 -6 4 -13 5 -16 2 -8 -8 -90 15 -108
31 -17 14 -186 35 -283 35 -34 0 -78 4 -97 9 -40 10 -205 30 -300 36 -84 5
-126 5 -410 3 -129 -2 -255 -1 -280 0 -66 4 -479 -5 -573 -13 -141 -11 -179
-14 -272 -24 -49 -6 -132 -15 -184 -21 -52 -5 -99 -14 -105 -20 -5 -5 -27 -10
-47 -10 -20 0 -104 -9 -185 -19 -82 -11 -171 -22 -199 -25 -27 -2 -68 -7 -90
-11 -22 -3 -55 -5 -74 -5 -19 1 -66 -4 -105 -9 -39 -6 -154 -15 -256 -21 -102
-6 -225 -16 -275 -22 -49 -6 -101 -12 -115 -13 -14 -1 -47 -5 -75 -9 -56 -7
-420 -18 -680 -20 -168 -1 -253 8 -375 41 -30 9 -59 19 -65 22 -5 4 -21 8 -34
9 -12 0 -60 18 -105 40 -109 52 -155 72 -166 72 -5 0 -33 11 -62 24 -81 36
-92 39 -111 37 -25 -3 -21 18 6 23 12 3 74 10 137 16 63 7 126 14 140 16 14 2
45 7 70 10 25 3 62 12 83 20 20 8 53 14 71 14 34 0 212 43 251 60 23 10 190
40 254 45 24 2 45 6 48 9 3 2 7 23 9 45 4 45 -19 80 -53 82 -10 0 -40 2 -68 3
-48 2 -154 28 -185 46 -8 5 -52 28 -98 51 -46 23 -89 47 -95 53 -7 7 -39 30
-72 53 -82 55 -163 129 -170 156 -4 12 -28 42 -54 67 -58 55 -104 114 -127
163 -18 37 -11 67 7 34 6 -9 19 -17 30 -17 11 0 42 -11 69 -25 28 -14 80 -32
117 -41 36 -8 77 -24 91 -34 13 -11 46 -23 73 -26 27 -4 54 -13 60 -20 6 -8
22 -14 35 -14 13 0 24 -4 24 -9 0 -5 18 -12 40 -16 22 -4 40 -12 40 -18 0 -8
22 -13 57 -15 31 -2 61 -6 66 -9 15 -9 472 -10 507 0 19 5 82 11 140 12 58 1
137 8 175 14 39 7 106 16 150 22 104 12 135 18 165 34 58 31 106 39 128 22 8
-6 16 -6 25 1 6 5 29 13 50 16 21 3 48 11 59 17 20 11 89 31 232 69 38 10 72
24 76 31 5 6 30 14 56 16 27 2 76 11 109 18 89 20 183 35 246 39 30 2 65 9 77
15 13 7 31 9 42 6 10 -3 21 -1 25 5 4 6 12 7 21 2 17 -9 163 9 269 33 39 9 98
16 133 16 35 -1 72 4 84 10 26 14 113 26 151 20 19 -2 26 -8 23 -17z m11837
-1378 c14 -1 23 -11 29 -31 7 -29 17 -115 12 -115 -12 0 -34 14 -34 21 0 5
-11 27 -25 49 -26 41 -35 97 -14 84 7 -4 21 -7 32 -8z m171 -121 c4 -36 2 -64
-5 -78 -12 -21 -12 -21 -20 -2 -14 36 -11 135 5 135 9 0 15 -18 20 -55z
m-6115 -97 c-1 -37 -2 -39 -9 -18 -12 36 -12 60 0 60 6 0 10 -19 9 -42z m-287
-57 c2 -20 -2 -36 -9 -38 -9 -3 -13 9 -13 43 0 54 17 50 22 -5z m195 -138 c-2
-16 -4 -3 -4 27 0 30 2 43 4 28 2 -16 2 -40 0 -55z"/>
<path d="M14492 2393 c-19 -20 -30 -24 -54 -19 -40 8 -68 -16 -68 -56 0 -21 6
-31 20 -35 11 -3 20 -9 20 -14 0 -4 17 -9 38 -11 l37 -3 -3 -95 c-2 -52 -8
-124 -13 -160 -6 -36 -15 -99 -19 -140 -5 -41 -11 -99 -15 -127 l-8 -53 -38 0
c-45 0 -61 -20 -48 -60 7 -20 23 -31 62 -44 49 -17 65 -19 157 -26 81 -5 110
9 110 55 0 27 -26 45 -65 45 -29 0 -53 43 -36 64 6 7 10 41 10 77 -1 122 23
142 146 120 112 -20 151 -24 189 -17 30 6 36 12 42 40 9 52 -8 73 -63 79 -95
11 -178 28 -181 37 -2 6 -15 10 -28 10 -47 0 -64 17 -63 63 2 77 11 92 50 89
19 -1 102 -4 184 -5 139 -2 152 -4 181 -25 33 -25 68 -21 60 7 -3 9 -7 29 -10
45 -3 16 -10 32 -16 36 -7 4 -11 9 -10 11 1 2 -2 12 -5 21 -7 16 -29 22 -130
33 -22 3 -64 9 -94 14 -30 6 -58 8 -62 5 -15 -9 -184 17 -194 30 -9 12 -50 37
-57 35 -2 -1 -13 -12 -26 -26z"/>
<path d="M13177 2373 c-4 -4 -66 -8 -138 -9 -133 -3 -153 -9 -162 -44 -4 -14
3 -24 26 -35 16 -8 38 -15 49 -15 31 0 60 -37 53 -69 -5 -24 4 -140 20 -256 2
-16 7 -95 10 -175 5 -135 9 -179 21 -222 3 -10 29 -29 57 -44 47 -23 59 -25
135 -20 46 3 87 8 92 11 6 3 91 6 190 6 161 0 182 2 187 17 4 9 13 22 20 27
19 14 -3 44 -36 50 -14 2 -27 8 -30 13 -11 17 -59 21 -245 23 l-187 1 1 46 c0
26 -4 69 -9 95 -6 26 -13 103 -16 170 -7 159 -15 238 -26 259 -14 26 -11 68 5
68 25 0 66 41 66 65 0 34 -61 61 -83 38z"/>
<path d="M12030 2334 c-14 -3 -55 -11 -92 -19 -37 -8 -82 -15 -100 -15 -19 0
-39 -5 -45 -11 -6 -6 -46 -13 -89 -16 -51 -3 -88 -11 -104 -22 -21 -15 -93
-43 -148 -57 -8 -3 -12 -16 -10 -36 3 -27 8 -33 35 -39 17 -3 37 -2 45 2 7 5
34 9 60 9 45 0 49 -2 68 -39 18 -37 35 -90 47 -153 4 -20 1 -28 -9 -28 -22 0
-42 -44 -34 -75 4 -16 19 -32 40 -42 29 -13 36 -24 49 -72 8 -31 15 -69 16
-84 0 -15 7 -40 15 -56 8 -15 16 -41 18 -57 3 -24 -2 -30 -27 -39 -47 -16 -55
-24 -55 -54 0 -45 20 -54 102 -46 62 5 217 51 293 85 25 12 78 33 85 34 3 1
21 13 41 29 20 15 46 27 57 27 17 0 22 6 22 29 0 15 -5 42 -11 60 -13 38 -36
40 -99 10 -24 -12 -89 -36 -146 -54 l-103 -32 -12 51 c-7 28 -20 70 -31 94
-26 64 -24 75 25 95 23 9 46 17 50 17 4 0 30 15 56 33 27 17 68 43 91 57 47
28 59 60 36 95 -24 37 -60 32 -161 -20 -73 -38 -91 -44 -118 -37 -23 6 -34 16
-41 38 -5 16 -14 45 -22 64 -7 19 -12 48 -11 64 2 25 8 31 42 42 91 29 153 42
210 44 33 0 64 5 70 11 5 5 19 9 32 9 13 0 23 6 23 14 0 8 14 19 30 25 34 11
36 19 16 46 -11 15 -29 19 -97 21 -46 1 -95 0 -109 -2z"/>
<path d="M10598 2268 c-25 -6 -58 -30 -97 -70 -64 -65 -69 -75 -95 -185 -15
-62 -16 -83 -6 -149 17 -109 54 -158 157 -209 43 -21 86 -45 96 -54 15 -12 22
-13 37 -3 20 12 45 7 70 -14 9 -8 36 -16 61 -19 98 -12 128 -27 157 -76 l26
-46 -35 -70 -34 -70 -70 -23 c-38 -12 -77 -24 -85 -27 -27 -8 -116 9 -140 27
-24 18 -24 19 -6 39 11 12 25 21 32 21 21 0 26 36 10 74 -19 46 -51 48 -96 6
-19 -18 -43 -30 -59 -30 -14 0 -42 -4 -61 -9 -19 -5 -52 -12 -72 -16 -34 -5
-38 -9 -38 -35 0 -17 5 -31 10 -31 10 -2 23 -5 38 -9 8 -2 35 -5 72 -8 17 -1
33 -14 49 -40 25 -40 64 -66 116 -78 17 -4 37 -12 45 -19 8 -7 56 -15 107 -17
81 -5 98 -3 140 17 27 12 57 32 67 44 11 11 24 21 31 21 9 0 58 59 87 104 16
26 38 118 38 160 0 61 -14 92 -58 132 -55 50 -110 74 -209 89 -100 17 -171 33
-193 46 -8 5 -37 20 -63 32 -58 28 -76 60 -84 144 -5 54 -2 70 18 110 27 53
87 87 127 72 13 -5 35 -9 49 -9 17 0 42 -17 78 -52 51 -49 53 -53 34 -66 -22
-15 -25 -50 -6 -76 13 -17 16 -17 88 3 42 12 91 21 110 21 25 0 43 8 58 24 28
30 24 62 -10 83 -25 15 -30 15 -64 -1 -34 -16 -38 -17 -55 -1 -10 9 -23 37
-30 63 -11 45 -53 101 -76 102 -6 0 -21 13 -33 29 -39 51 -143 73 -233 49z"/>
<path d="M17392 53 c4 -21 33 -25 33 -3 0 8 -8 16 -18 18 -14 3 -18 -1 -15
-15z"/>
<path d="M8646 15 c-18 -14 -16 -15 33 -15 46 0 52 2 41 15 -16 19 -49 19 -74
0z"/>
</g>
</svg>
