<?xml version="1.0" standalone="no"?>
<!DOCTYPE svg PUBLIC "-//W3C//DTD SVG 20010904//EN"
 "http://www.w3.org/TR/2001/REC-SVG-20010904/DTD/svg10.dtd">
<svg version="1.0" xmlns="http://www.w3.org/2000/svg"
 width="43200.000000pt" height="2658.461538pt" viewBox="0 0 43200.000000 2658.461538"
 preserveAspectRatio="xMidYMid meet">
<metadata>
Created by potrace 1.11, written by Peter Selinger 2001-2013
</metadata>
<g transform="translate(0.000000,2658.461538) scale(1.329231,-1.329231)"
fill="#000000" stroke="none">
<path d="M0 1000 l0 -1000 16250 0 16250 0 0 1000 0 1000 -16250 0 -16250 0 0
-1000z m1051 868 c0 -10 2 -10 6 0 4 9 1751 12 8688 12 5549 0 8686 -3 8690
-10 4 -6 15 -6 31 0 15 6 310 10 749 10 709 0 724 0 730 -19 3 -11 14 -23 24
-26 24 -7 71 14 71 32 0 11 280 13 1660 13 l1660 0 0 -34 c0 -49 9 -66 36 -66
20 0 23 5 26 48 l3 47 4058 3 4057 2 0 -885 0 -885 -14579 0 -14579 0 -11 44
c-13 52 -82 120 -132 130 -113 22 -235 -24 -347 -131 l-45 -43 -438 0 -439 0
0 885 0 885 40 0 c25 0 40 -5 41 -12z m1250 -1705 c4 -11 13 -24 18 -28 32
-19 -3 -25 -161 -25 l-173 0 41 41 c39 38 63 49 154 68 42 8 108 -22 121 -56z"/>
<path d="M7237 1830 c-7 -28 16 -44 42 -30 17 9 19 15 11 30 -14 26 -46 26
-53 0z"/>
<path d="M1053 1740 c0 -36 2 -50 4 -32 2 17 2 47 0 65 -2 17 -4 3 -4 -33z"/>
<path d="M26120 1730 c0 -5 5 -10 10 -10 6 0 10 5 10 10 0 6 -4 10 -10 10 -5
0 -10 -4 -10 -10z"/>
<path d="M4770 1655 c-15 -9 -52 -15 -92 -15 -57 0 -69 -3 -78 -20 -6 -11 -17
-20 -25 -20 -16 0 -85 -39 -85 -49 0 -3 -16 -24 -35 -46 -19 -22 -35 -46 -35
-52 0 -7 -4 -13 -9 -13 -5 0 -13 -9 -16 -20 -3 -11 -12 -20 -20 -20 -7 0 -16
-16 -19 -35 -8 -42 -44 -114 -68 -136 -21 -19 -23 -33 -5 -47 8 -7 14 -40 16
-89 1 -43 7 -80 13 -84 6 -4 12 -31 13 -61 2 -29 3 -65 4 -80 0 -15 15 -42 31
-60 17 -18 30 -36 30 -40 0 -4 21 -29 48 -56 26 -26 60 -67 76 -91 16 -23 39
-47 50 -53 11 -6 28 -19 39 -28 31 -30 234 -46 280 -23 15 8 33 13 40 11 6 -2
32 5 57 15 59 24 153 129 157 175 2 18 11 47 20 65 10 19 33 65 51 103 19 38
40 82 48 97 8 16 14 34 14 41 0 7 5 17 12 24 12 12 38 79 38 100 0 7 9 25 20
40 35 48 16 153 -53 291 -7 13 -25 30 -42 37 -16 7 -43 27 -60 44 -34 36 -81
64 -95 55 -5 -3 -11 -1 -15 5 -3 5 -19 10 -35 10 -16 0 -31 4 -34 9 -3 5 -32
11 -63 14 -32 3 -78 8 -103 11 -29 3 -54 0 -70 -9z m152 -137 c10 -2 21 -7 24
-11 4 -4 23 -7 42 -7 18 0 48 -10 65 -22 68 -47 137 -110 137 -127 0 -9 4 -21
9 -26 28 -29 -2 -165 -60 -277 -5 -10 -9 -27 -9 -39 0 -14 -11 -25 -40 -37
-33 -14 -40 -22 -40 -45 0 -15 -11 -54 -25 -87 -14 -32 -22 -65 -19 -73 6 -18
-93 -120 -107 -111 -5 3 -16 0 -24 -6 -16 -14 -90 -6 -110 10 -7 5 -33 11 -59
11 -43 2 -62 12 -109 57 -30 29 -97 122 -97 136 0 9 -4 16 -10 16 -8 0 -24 58
-19 70 1 3 -3 15 -10 28 -18 34 -24 128 -13 217 9 68 14 82 37 98 21 16 24 22
13 34 -10 13 1 28 75 99 84 81 89 84 135 84 26 0 54 5 62 11 13 9 107 7 152
-3z"/>
<path d="M16895 1650 c-10 -11 -28 -20 -40 -20 -11 0 -30 -7 -41 -15 -10 -8
-33 -15 -51 -15 -17 0 -35 -4 -38 -10 -3 -5 -23 -10 -44 -10 -78 0 -144 -115
-139 -245 1 -39 -1 -75 -5 -82 -4 -6 0 -16 8 -23 8 -7 15 -27 15 -45 0 -18 7
-49 15 -68 8 -20 15 -47 15 -60 0 -38 69 -192 115 -257 14 -19 41 -52 60 -72
19 -20 35 -44 35 -52 0 -20 27 -20 95 0 71 20 101 45 110 90 3 20 10 44 15 53
5 9 11 24 14 34 3 9 14 21 24 25 23 9 73 67 92 107 8 17 34 65 58 108 33 60
44 90 46 133 2 31 10 62 19 72 8 9 21 37 28 62 7 25 16 49 21 55 30 34 -16
165 -73 206 -51 36 -231 62 -274 39 -16 -9 -28 -9 -42 -1 -16 8 -24 6 -38 -9z
m241 -132 l46 -21 -6 -76 c-5 -55 -16 -95 -41 -146 -18 -39 -43 -97 -53 -128
-11 -31 -28 -64 -37 -73 -8 -9 -22 -32 -31 -52 -32 -78 -119 -187 -148 -187
-5 0 -19 18 -30 40 -12 22 -28 51 -37 65 -15 22 -33 77 -84 250 -22 77 -27
127 -15 150 9 16 9 25 1 33 -18 18 -13 46 12 61 18 12 113 37 152 40 19 2 60
18 73 29 8 6 21 12 30 13 10 2 33 7 52 12 53 15 66 14 116 -10z"/>
<path d="M2170 1645 c-7 -8 -16 -12 -22 -9 -5 3 -16 0 -25 -7 -9 -8 -21 -14
-27 -14 -11 -1 -19 -4 -91 -33 -47 -19 -100 -66 -158 -142 -23 -30 -48 -61
-54 -68 -7 -7 -13 -23 -13 -34 0 -11 -6 -34 -14 -51 -30 -70 -32 -86 -30 -176
3 -77 8 -104 29 -146 14 -29 25 -56 25 -60 0 -4 11 -23 25 -41 14 -18 25 -37
25 -42 0 -8 53 -63 124 -128 6 -6 23 -15 36 -19 14 -4 32 -13 40 -20 14 -11
50 -25 140 -54 51 -16 97 -1 192 62 27 18 48 40 48 49 0 9 10 29 23 45 13 15
34 45 46 66 13 21 28 43 35 50 19 20 126 217 126 232 0 8 4 15 8 15 16 0 42
71 42 113 0 24 5 48 11 54 7 7 12 38 12 70 0 32 4 66 9 75 14 28 -34 120 -74
141 -18 9 -40 21 -48 26 -61 36 -119 52 -168 47 -29 -3 -54 -1 -57 4 -3 6 -50
10 -104 10 -75 0 -102 -4 -111 -15z m297 -137 c18 -9 45 -19 60 -23 33 -7 54
-22 70 -52 10 -18 9 -25 -7 -46 -11 -14 -17 -32 -13 -45 3 -12 -4 -41 -15 -64
-11 -24 -23 -61 -26 -83 -6 -43 -67 -177 -91 -201 -7 -8 -17 -24 -20 -35 -4
-12 -26 -47 -50 -78 -107 -141 -147 -160 -237 -118 -54 26 -131 89 -188 154
-26 30 -45 66 -57 108 -6 22 -17 58 -23 81 -10 33 -10 46 1 65 7 13 12 32 10
42 -1 10 2 24 8 31 6 7 22 33 35 57 13 24 40 61 60 82 20 21 36 42 36 47 0 5
17 14 38 21 20 7 52 21 71 31 18 10 38 17 45 15 6 -2 27 2 46 9 56 21 71 23
145 21 41 -2 83 -9 102 -19z"/>
<path d="M7587 1643 c-2 -1 -21 -3 -42 -4 -41 -1 -115 -28 -115 -41 0 -5 -6
-8 -13 -8 -19 0 -137 -109 -137 -126 0 -15 -25 -59 -47 -82 -7 -7 -16 -25 -20
-40 -3 -14 -12 -37 -19 -51 -8 -14 -14 -33 -14 -43 0 -9 -5 -18 -10 -20 -7 -2
-3 -36 11 -93 12 -50 22 -98 21 -108 0 -9 12 -27 28 -39 17 -12 37 -42 47 -67
20 -54 33 -73 118 -163 45 -48 71 -68 88 -68 13 0 41 -11 62 -25 31 -21 45
-25 83 -20 26 3 59 15 78 30 18 14 37 25 43 25 5 0 20 15 32 33 13 17 32 38
43 46 38 28 90 84 116 124 15 23 51 66 80 96 51 53 53 58 71 149 13 64 15 99
9 107 -6 7 -11 48 -11 91 -1 60 -5 85 -20 105 -10 15 -19 32 -19 37 0 19 -94
109 -125 120 -52 18 -147 32 -243 35 -51 2 -94 2 -95 0z m227 -145 c53 -15 94
-53 106 -99 6 -20 12 -85 15 -143 5 -94 3 -110 -15 -144 -44 -81 -116 -182
-130 -182 -6 0 -30 -19 -55 -42 -94 -91 -93 -91 -143 -83 -54 8 -106 46 -133
98 -11 20 -23 37 -27 37 -4 0 -16 17 -27 38 -11 20 -26 43 -32 50 -7 7 -13 19
-13 26 0 8 -10 20 -22 28 -18 12 -22 26 -26 100 l-4 86 41 52 c22 28 41 55 41
59 0 14 71 81 86 81 8 0 33 9 57 19 23 11 51 22 62 24 42 10 179 7 219 -5z"/>
<path d="M1045 1581 c-3 -5 -1 -12 5 -16 5 -3 10 1 10 9 0 18 -6 21 -15 7z"/>
<path d="M23260 1530 c-13 -25 3 -52 26 -43 18 7 18 37 0 52 -12 10 -17 8 -26
-9z"/>
<path d="M24232 1535 c3 -3 40 -7 82 -9 42 -1 71 1 64 6 -14 8 -155 11 -146 3z"/>
<path d="M9878 1520 c-9 -5 -39 -11 -67 -12 -28 -1 -51 -5 -51 -8 0 -12 -135
-92 -160 -94 -19 -2 -26 -10 -28 -30 -2 -14 -7 -26 -12 -26 -11 0 -45 -72 -60
-130 -7 -25 -16 -54 -20 -65 -10 -28 19 -236 36 -256 8 -8 14 -21 14 -29 0 -7
15 -30 33 -51 17 -21 41 -50 52 -65 11 -14 27 -32 35 -40 8 -7 44 -41 78 -74
50 -47 71 -60 95 -60 17 0 45 -5 63 -12 50 -18 109 4 166 62 26 27 57 51 68
55 11 3 20 12 20 18 0 7 20 32 45 57 24 25 44 48 45 52 0 13 65 113 77 121 7
4 13 13 13 20 0 25 51 119 80 148 16 17 33 42 36 56 12 44 -42 206 -74 226 -8
5 -25 22 -40 38 -41 47 -79 60 -214 75 -27 3 -48 9 -48 13 0 3 -17 7 -37 8
-21 1 -58 5 -83 8 -25 3 -52 1 -62 -5z m86 -129 c3 -5 15 -7 25 -4 11 3 40 -3
65 -12 26 -10 56 -15 70 -11 21 5 32 -1 63 -34 21 -22 41 -40 45 -40 5 0 19
-10 33 -22 33 -29 32 -69 -3 -121 -15 -23 -39 -64 -52 -92 -14 -27 -37 -65
-52 -83 -16 -18 -28 -39 -28 -48 0 -21 -82 -143 -125 -184 -29 -29 -39 -33
-53 -23 -10 6 -29 9 -43 7 -36 -7 -89 30 -89 62 0 21 -3 24 -20 19 -15 -5 -34
3 -65 27 -109 82 -143 352 -56 442 17 17 47 40 68 51 21 10 45 24 53 31 8 6
36 15 62 18 26 4 50 11 53 17 8 12 42 12 49 0z"/>
<path d="M12207 1520 c-15 -4 -50 -11 -78 -13 -29 -3 -56 -10 -62 -16 -6 -6
-35 -11 -64 -11 -58 0 -133 -35 -166 -77 -10 -13 -26 -30 -35 -40 -28 -27 -82
-134 -85 -168 -1 -11 -13 -42 -26 -68 -23 -47 -23 -49 -7 -86 10 -20 19 -48
20 -62 3 -28 20 -62 53 -105 12 -17 23 -35 23 -40 0 -6 16 -25 35 -44 19 -19
35 -41 35 -47 0 -7 6 -13 13 -13 17 0 53 -38 61 -65 7 -25 50 -75 64 -75 5 0
27 -18 49 -40 l39 -41 54 17 c30 10 63 24 73 32 9 9 42 17 73 20 45 4 57 9 64
26 4 11 26 39 47 61 21 22 50 57 63 77 14 21 30 38 36 38 6 0 19 19 29 43 10
23 30 54 43 69 14 15 26 36 27 47 1 11 6 25 12 33 5 7 22 38 38 68 15 30 31
63 36 72 20 39 10 115 -26 192 -19 42 -38 76 -43 76 -4 0 -21 12 -39 28 -77
68 -96 82 -115 82 -10 0 -28 5 -39 11 -11 5 -39 12 -62 14 -23 3 -58 7 -77 9
-19 3 -47 1 -63 -4z m171 -169 c2 -6 10 -11 18 -11 21 0 95 -51 89 -61 -3 -4
3 -13 14 -19 11 -5 25 -27 31 -48 9 -33 8 -39 -10 -51 -11 -7 -20 -22 -20 -32
0 -23 -31 -89 -42 -89 -4 0 -8 -6 -8 -14 0 -7 -7 -19 -15 -26 -8 -7 -15 -23
-15 -36 0 -29 -36 -108 -56 -125 -8 -6 -14 -18 -14 -25 0 -12 -12 -18 -32 -15
-3 0 -23 -20 -43 -44 -20 -25 -44 -45 -54 -45 -10 0 -21 -3 -24 -7 -11 -11
-71 -11 -99 1 -15 6 -32 22 -38 36 -32 68 -37 75 -58 73 -15 -2 -30 10 -52 41
-16 25 -37 52 -46 60 -14 14 -75 122 -73 128 0 2 -3 11 -6 20 -4 11 6 43 24
81 17 35 31 68 31 74 0 6 21 34 46 62 40 45 51 51 84 51 22 0 42 5 45 10 3 6
32 10 64 10 31 0 61 4 67 9 22 22 184 15 192 -8z"/>
<path d="M24775 1510 c4 -6 11 -8 16 -5 14 9 11 15 -7 15 -8 0 -12 -5 -9 -10z"/>
<path d="M6233 1480 c-13 -5 -23 -13 -23 -19 0 -13 -43 -22 -54 -11 -16 16
-23 12 -35 -20 -5 -16 -15 -30 -20 -30 -6 0 -11 -6 -11 -12 0 -16 -60 -58 -82
-58 -9 0 -18 -7 -22 -15 -3 -8 -14 -15 -24 -15 -22 0 -91 -64 -112 -103 -8
-16 -22 -33 -32 -38 -10 -5 -18 -15 -18 -20 0 -6 -20 -44 -45 -83 -45 -73 -56
-121 -34 -143 6 -6 12 -39 14 -73 2 -53 5 -63 25 -73 13 -7 35 -34 50 -62 27
-50 105 -115 140 -115 9 0 25 -9 35 -20 10 -12 31 -20 48 -20 17 0 46 -6 65
-12 29 -11 35 -10 47 5 12 17 55 23 69 10 19 -19 92 -34 186 -37 58 -3 113 -7
122 -11 37 -15 184 21 200 48 5 9 20 17 34 17 37 0 119 89 133 145 12 46 6
190 -9 238 -8 24 -6 29 15 37 22 8 23 12 14 40 -6 16 -17 30 -24 30 -15 0 -75
77 -75 96 0 6 -16 31 -34 56 -19 25 -38 57 -41 71 -6 24 -63 77 -82 77 -4 0
-14 9 -21 21 -7 12 -16 18 -19 15 -7 -7 -83 34 -83 45 0 26 -250 59 -297 39z"/>
<path d="M14630 1455 c-36 -7 -98 -13 -137 -14 -41 -1 -73 -5 -73 -11 0 -5 -6
-10 -13 -10 -8 0 -22 -9 -32 -20 -11 -12 -28 -20 -39 -19 -38 3 -54 -1 -68
-14 -7 -8 -23 -19 -36 -26 -14 -7 -22 -21 -22 -36 0 -14 -4 -25 -10 -25 -5 0
-17 -17 -25 -37 -9 -20 -21 -43 -27 -51 -67 -80 -42 -304 44 -393 22 -22 42
-48 46 -57 4 -10 25 -42 46 -72 53 -73 104 -98 216 -106 81 -6 87 -5 115 18
17 14 49 29 72 32 42 8 60 22 84 67 53 99 75 137 105 180 19 27 34 57 34 67 0
11 7 33 16 51 9 18 14 41 11 52 -3 12 3 41 13 65 22 50 23 125 3 164 -7 14
-13 29 -13 33 0 5 -24 37 -52 71 -51 61 -91 86 -136 86 -11 0 -24 5 -27 10 -7
11 -8 11 -95 -5z m90 -151 c32 -11 53 -28 69 -52 21 -32 23 -44 19 -124 -4
-55 -11 -96 -21 -111 -9 -13 -18 -39 -22 -58 -4 -19 -17 -52 -31 -74 -13 -22
-30 -54 -38 -71 -15 -35 -70 -89 -112 -110 -41 -22 -80 -17 -102 11 -11 14
-27 25 -36 25 -21 0 -66 29 -66 42 0 6 -11 20 -25 32 -13 12 -31 39 -38 61 -8
22 -20 40 -28 40 -16 0 -52 152 -38 161 5 3 9 12 9 21 0 9 14 38 31 65 24 37
46 56 90 78 32 17 61 35 66 42 4 7 28 14 53 15 25 1 65 6 90 11 67 14 81 14
130 -4z"/>
<path d="M21725 1450 c-3 -5 -33 -10 -66 -10 -45 0 -71 -6 -102 -24 -23 -13
-57 -32 -76 -43 -29 -16 -37 -29 -53 -83 -17 -64 -17 -65 3 -107 11 -24 25
-43 30 -43 5 0 9 -6 9 -13 0 -7 12 -25 28 -42 29 -31 32 -36 76 -117 15 -29
34 -60 40 -68 6 -8 20 -31 29 -50 45 -89 76 -143 103 -178 16 -20 37 -49 47
-64 23 -36 117 -98 161 -105 45 -7 58 3 93 78 15 32 31 59 35 59 5 0 8 7 8 16
0 8 11 30 25 48 22 29 54 95 131 266 14 30 29 63 34 72 6 10 10 23 10 29 0 6
13 29 28 52 16 23 34 70 41 105 l12 64 -29 26 c-82 75 -103 90 -136 96 -20 4
-36 11 -36 16 0 14 -21 12 -54 -5 -18 -9 -33 -12 -40 -6 -6 5 -49 9 -96 10
-51 1 -95 7 -114 16 -33 17 -132 20 -141 5z m133 -154 c8 -5 82 -10 169 -11
141 -1 156 -2 169 -20 20 -27 9 -75 -37 -160 -20 -38 -43 -90 -50 -115 -7 -25
-19 -55 -28 -68 -20 -33 -44 -76 -86 -157 -19 -38 -39 -73 -44 -78 -18 -18
-55 21 -92 98 -22 44 -50 100 -64 124 -14 24 -25 50 -25 56 0 7 -11 20 -25 29
-14 9 -38 43 -55 76 -16 32 -50 80 -75 105 -25 26 -45 54 -45 64 0 19 30 40
85 57 47 15 184 15 203 0z"/>
<path d="M3264 1419 c-9 -10 -20 -16 -24 -14 -11 7 -67 -24 -74 -40 -3 -8 -10
-15 -16 -15 -14 0 -59 -51 -60 -67 0 -7 -4 -13 -8 -13 -11 0 -42 -55 -42 -77
0 -10 -23 -58 -50 -107 -28 -49 -50 -97 -50 -106 0 -22 -29 -139 -40 -160 -4
-8 -10 -35 -14 -60 -6 -42 -4 -48 28 -82 19 -20 42 -48 51 -62 10 -14 23 -26
30 -26 10 0 41 -14 193 -88 27 -13 139 -24 232 -23 83 2 248 15 261 22 10 5
29 4 47 -3 27 -10 35 -8 79 20 57 36 86 66 89 89 2 8 15 30 31 47 40 45 53 71
53 111 0 23 -6 37 -18 44 -17 9 -45 75 -48 111 -4 52 -19 118 -34 144 -10 17
-23 48 -30 69 -6 20 -16 37 -21 37 -5 0 -9 8 -9 18 0 27 -57 112 -75 112 -9 0
-25 19 -36 45 -21 46 -27 50 -104 59 -22 2 -62 9 -90 14 -27 6 -91 13 -142 15
-81 5 -93 3 -109 -14z"/>
<path d="M15497 1433 c-4 -3 -7 -19 -7 -35 0 -23 4 -28 24 -28 30 0 40 14 32
46 -6 23 -34 33 -49 17z"/>
<path d="M19315 1430 c-3 -5 -21 -10 -39 -10 -19 0 -39 -6 -45 -14 -7 -8 -20
-12 -30 -9 -10 2 -35 -3 -56 -11 -20 -9 -47 -16 -59 -16 -12 0 -27 -5 -32 -10
-6 -6 -34 -11 -62 -11 -40 -1 -55 -6 -63 -20 -5 -11 -17 -19 -27 -19 -39 -1
-56 -28 -60 -96 -5 -73 10 -134 40 -160 10 -10 18 -23 18 -30 0 -7 9 -19 19
-26 11 -8 39 -45 62 -84 23 -38 47 -72 54 -76 7 -4 15 -18 19 -31 3 -13 17
-29 30 -35 14 -6 45 -42 70 -79 83 -125 92 -133 169 -143 76 -11 172 6 193 35
6 8 15 15 20 15 13 0 68 61 81 90 6 14 21 56 33 93 12 38 28 71 36 74 8 3 14
12 14 20 0 9 17 43 37 77 44 70 62 114 72 173 4 23 15 53 24 67 15 22 16 31 5
66 -7 22 -29 58 -49 79 -28 32 -44 41 -85 46 -27 4 -68 16 -92 27 -28 12 -48
16 -55 10 -7 -5 -30 -7 -52 -5 -22 3 -68 4 -102 4 -37 -1 -63 3 -63 9 0 13
-17 13 -25 0z m147 -151 c11 -6 59 -13 106 -15 65 -3 91 -8 104 -22 16 -16 16
-20 3 -46 -8 -15 -15 -43 -15 -60 0 -18 -4 -36 -8 -42 -5 -5 -17 -29 -26 -53
-10 -25 -33 -68 -52 -96 -19 -29 -34 -57 -34 -64 0 -6 -4 -11 -10 -11 -5 0
-10 -7 -10 -15 0 -15 -48 -93 -87 -142 -10 -13 -26 -23 -35 -23 -30 0 -68 23
-68 41 0 9 -10 19 -23 23 -15 3 -32 22 -46 51 -12 25 -29 45 -37 45 -8 0 -14
9 -14 20 0 12 -10 24 -24 29 -13 5 -35 29 -49 53 -14 24 -34 54 -46 67 -11 13
-30 44 -42 70 -12 25 -29 54 -37 64 -8 9 -13 18 -11 20 30 20 84 35 107 31 23
-5 32 -1 45 20 12 18 26 26 47 26 16 0 32 5 35 10 3 6 30 10 58 10 29 0 59 5
67 10 20 13 77 13 102 -1z"/>
<path d="M27873 1378 c-60 -53 -73 -71 -126 -163 -16 -27 -35 -54 -43 -58 -8
-4 -14 -16 -14 -25 0 -30 -25 -67 -45 -67 -15 0 -20 -8 -21 -33 -1 -18 -17
-57 -35 -85 -18 -29 -45 -74 -59 -102 -14 -27 -36 -54 -48 -60 -12 -5 -22 -14
-22 -20 0 -6 -9 -18 -20 -28 -23 -19 -21 -59 5 -124 12 -28 19 -32 62 -38 26
-4 72 -15 102 -25 52 -19 53 -19 58 1 4 15 14 19 47 19 24 0 46 3 50 7 4 5 29
9 54 9 26 1 121 9 212 17 124 12 176 13 208 5 39 -10 45 -8 67 12 22 20 24 29
21 94 -4 77 -9 94 -41 146 -47 75 -105 196 -111 229 -9 55 -26 104 -41 119 -7
7 -13 20 -13 28 0 8 -4 22 -9 32 -5 9 -17 34 -26 55 -9 20 -22 37 -29 37 -8 0
-19 14 -26 30 -8 20 -20 30 -34 30 -11 0 -31 3 -43 6 -16 4 -35 -7 -80 -48z"/>
<path d="M23125 1412 c-44 -10 -115 -75 -196 -178 -34 -42 -48 -71 -53 -103
-3 -26 -16 -55 -28 -69 -14 -14 -24 -38 -25 -60 -3 -63 -9 -82 -30 -97 -12 -8
-25 -30 -28 -48 -4 -17 -11 -36 -15 -42 -14 -19 -24 -70 -21 -112 2 -25 -2
-43 -7 -43 -23 0 -23 -40 -1 -71 30 -43 75 -59 164 -59 41 0 83 -4 93 -9 29
-16 154 -41 203 -41 25 0 49 -3 53 -7 21 -21 89 -18 133 6 12 6 25 6 34 0 43
-27 138 6 161 56 6 14 15 25 20 25 4 0 8 22 8 49 0 28 5 53 10 56 22 14 9 55
-30 94 -22 22 -40 47 -40 55 0 18 -18 52 -38 74 -7 8 -20 32 -29 53 -8 22 -19
39 -23 39 -11 0 -70 125 -70 150 0 12 -9 33 -20 47 -11 14 -20 31 -20 38 0 21
-69 138 -98 166 -27 27 -71 40 -107 31z"/>
<path d="M26358 1411 c-17 -6 -77 -88 -78 -105 0 -6 -9 -19 -20 -31 -18 -19
-19 -26 -9 -49 7 -14 16 -26 20 -26 4 0 19 -24 33 -52 40 -81 50 -95 131 -183
22 -24 67 -74 100 -110 33 -37 69 -76 80 -88 21 -23 43 -59 69 -114 39 -81
186 -47 186 43 0 17 7 37 15 44 8 7 15 19 15 26 0 8 10 19 23 25 13 6 29 23
35 37 20 45 111 215 137 257 14 22 28 47 32 55 4 8 14 20 24 27 23 17 31 69
17 115 l-12 40 -55 -7 c-103 -11 -289 -4 -366 15 -22 5 -83 10 -136 10 l-97 0
-35 35 c-23 23 -41 33 -51 29 -9 -3 -22 -2 -29 4 -6 5 -20 7 -29 3z m216 -225
c36 -11 91 -14 221 -11 103 3 177 0 180 -5 7 -11 -57 -144 -87 -182 -37 -47
-65 -96 -83 -142 -22 -58 -32 -65 -45 -31 -6 15 -29 47 -53 72 -183 193 -223
247 -226 301 -1 16 35 15 93 -2z"/>
<path d="M28832 1413 c-26 -4 -35 -11 -47 -40 -26 -61 -19 -94 28 -155 24 -31
50 -70 56 -87 7 -16 24 -37 37 -46 13 -8 24 -25 24 -36 0 -22 23 -63 56 -97
12 -12 25 -35 29 -50 3 -15 18 -39 31 -53 14 -14 24 -31 22 -37 -4 -15 91
-112 109 -112 32 0 163 101 163 126 0 7 32 44 70 84 48 49 70 80 70 96 0 14 7
27 15 30 8 4 15 10 15 15 0 6 19 29 43 53 52 54 79 91 94 135 17 48 1 73 -72
113 -54 29 -68 32 -135 31 -41 -1 -80 3 -86 8 -6 5 -36 9 -65 8 -30 0 -79 3
-110 8 -31 5 -65 6 -75 3 -10 -4 -29 -3 -40 2 -14 7 -28 6 -43 -1 -13 -8 -27
-8 -38 -3 -18 10 -91 12 -151 5z m453 -146 c33 1 74 3 92 3 19 1 44 -8 62 -21
27 -20 29 -25 17 -38 -7 -9 -17 -26 -20 -38 -4 -12 -15 -25 -25 -28 -10 -3
-24 -18 -32 -33 -7 -15 -20 -35 -29 -44 -32 -36 -40 -47 -40 -58 0 -5 -4 -10
-10 -10 -5 0 -17 -16 -26 -35 -9 -20 -25 -40 -35 -46 -15 -8 -22 -3 -42 28
-13 21 -33 63 -46 93 -30 71 -79 148 -102 161 -11 5 -19 21 -19 35 0 25 2 26
43 21 25 -4 56 -1 77 7 19 7 44 11 55 7 11 -3 47 -5 80 -4z"/>
<path d="M30388 1398 c-7 -13 -11 -26 -10 -30 2 -9 -24 -71 -64 -151 -19 -37
-34 -75 -34 -85 0 -9 -23 -66 -50 -126 -28 -61 -50 -115 -50 -121 0 -6 -11
-26 -25 -45 -25 -33 -33 -92 -17 -116 22 -34 29 -34 572 -48 75 -2 208 15 232
30 19 12 48 86 46 116 -1 18 -15 59 -30 90 -15 31 -28 60 -28 63 0 4 -12 19
-27 35 -41 41 -53 58 -53 73 0 15 -31 47 -46 47 -21 0 -79 71 -76 94 2 13 -6
30 -18 41 -11 10 -20 24 -20 31 0 7 -13 33 -30 57 l-30 44 -88 12 c-125 16
-139 15 -154 -11z"/>
<path d="M17835 1357 c-64 -45 -145 -122 -145 -138 0 -10 -39 -69 -51 -79 -4
-3 -14 -23 -23 -45 -9 -21 -24 -47 -33 -57 -16 -17 -49 -91 -80 -173 -8 -22
-23 -49 -34 -61 -18 -19 -18 -23 -4 -65 9 -24 24 -53 34 -64 10 -11 24 -36 30
-56 26 -82 103 -117 276 -125 44 -3 100 -6 125 -7 25 -1 62 -11 82 -21 25 -12
47 -16 68 -11 17 4 68 8 113 10 45 1 95 8 110 14 16 6 39 8 53 5 15 -4 41 2
68 14 35 17 47 30 66 74 13 29 23 58 22 63 -3 48 -26 143 -36 155 -8 8 -23 37
-35 64 -12 28 -40 65 -66 88 -25 22 -45 48 -45 57 0 10 -13 37 -30 59 -16 23
-30 46 -30 52 0 13 -20 49 -38 68 -7 8 -24 37 -39 66 -28 55 -68 96 -94 96 -9
0 -24 9 -34 20 -10 11 -31 20 -46 20 -15 0 -31 5 -34 10 -3 6 -25 10 -48 9
-32 0 -56 -10 -102 -42z"/>
<path d="M24385 1384 c-16 -7 -62 -13 -101 -14 -39 0 -74 -3 -77 -7 -4 -4 -32
-6 -61 -4 -84 4 -140 -33 -178 -117 -18 -41 -17 -82 3 -82 5 0 9 -7 9 -16 0
-9 11 -27 25 -40 14 -13 25 -30 25 -39 0 -8 6 -15 13 -15 14 0 57 -52 57 -70
0 -5 8 -18 18 -28 9 -10 25 -33 35 -52 44 -85 58 -106 97 -145 22 -22 40 -48
40 -56 0 -30 60 -99 104 -120 46 -21 81 -19 101 7 5 7 26 21 45 31 26 14 44
37 72 93 21 41 49 88 63 105 14 16 25 34 26 40 2 26 9 44 38 95 17 30 34 62
38 70 3 8 9 17 12 20 9 7 31 74 31 92 0 8 11 36 25 62 14 26 25 56 25 67 0 32
-50 110 -79 121 -42 17 -370 19 -406 2z m150 -126 c19 -9 34 -8 65 2 34 11 44
11 66 0 27 -15 27 -16 8 -95 -4 -16 -13 -33 -20 -38 -7 -4 -11 -14 -7 -23 3
-8 -1 -22 -9 -32 -8 -9 -38 -65 -68 -125 -29 -59 -57 -110 -62 -113 -6 -4 -16
-22 -24 -40 -8 -19 -21 -34 -29 -34 -17 0 -85 63 -85 79 0 8 -25 52 -85 150
-32 51 -51 77 -66 88 -9 7 -20 25 -23 39 -4 15 -16 39 -27 52 -27 35 -24 42
17 42 19 0 45 6 57 12 13 8 61 13 118 13 73 1 102 5 120 17 30 21 23 20 54 6z"/>
<path d="M24441 1167 c-9 -12 -9 -21 0 -41 15 -31 44 -34 79 -6 20 16 23 22
14 37 -14 23 -76 29 -93 10z"/>
<path d="M25454 1353 c-55 -38 -78 -62 -98 -100 -9 -18 -25 -37 -36 -43 -11
-6 -20 -17 -20 -24 0 -8 -7 -19 -15 -26 -8 -7 -15 -23 -15 -36 0 -12 -4 -25
-9 -28 -5 -3 -11 -20 -14 -38 -19 -115 -46 -184 -109 -280 -26 -40 -23 -175 4
-184 10 -3 35 -20 54 -38 29 -27 45 -33 84 -35 27 -1 51 3 55 9 3 5 30 10 59
10 28 0 56 4 62 9 5 6 34 10 64 10 30 0 75 0 100 0 92 0 271 19 284 30 16 13
46 100 45 128 -1 37 -35 122 -61 154 -16 18 -28 37 -28 41 0 5 -20 39 -44 76
-24 37 -50 86 -57 109 -6 23 -20 51 -31 62 -10 11 -18 23 -18 26 0 3 -9 18
-20 33 -11 15 -34 56 -52 92 l-33 65 -55 3 c-46 2 -61 -2 -96 -25z"/>
<path d="M30792 1363 c2 -13 12 -18 33 -18 43 0 40 29 -3 33 -28 3 -33 0 -30
-15z"/>
<path d="M20550 1340 c-14 -11 -31 -20 -37 -20 -7 0 -13 -7 -13 -15 0 -15 -12
-30 -86 -108 -23 -24 -45 -57 -48 -74 -4 -16 -22 -45 -41 -63 -19 -19 -35 -40
-35 -47 0 -7 -7 -13 -15 -13 -11 0 -15 -12 -15 -44 0 -25 -4 -48 -10 -51 -16
-10 -43 -74 -37 -89 3 -8 0 -19 -7 -25 -8 -6 -19 -31 -26 -54 -10 -37 -9 -52
5 -95 10 -29 31 -69 47 -89 27 -34 34 -38 84 -39 30 -1 61 -7 69 -14 17 -14
313 -4 332 12 7 6 43 9 80 8 76 -2 82 -2 139 0 23 1 50 -1 61 -4 30 -10 98 58
114 114 13 46 13 81 0 90 -4 3 -16 26 -26 51 -15 36 -29 51 -61 69 -43 22
-100 93 -89 110 3 5 -3 15 -15 22 -11 7 -20 23 -20 35 0 12 -6 26 -12 30 -17
10 -38 49 -38 68 0 32 -49 122 -85 155 -21 19 -49 46 -64 60 -14 14 -35 25
-46 26 -11 0 -33 4 -50 7 -22 5 -37 2 -55 -13z"/>
<path d="M15660 1313 c-14 -2 -32 -7 -40 -10 -8 -3 -22 -7 -30 -9 -8 -2 -16
-8 -18 -13 -2 -6 -8 -11 -14 -11 -12 0 -53 -31 -109 -83 -23 -21 -54 -44 -70
-52 -19 -10 -26 -20 -22 -30 3 -9 -1 -23 -8 -33 -22 -27 -39 -60 -39 -76 0 -7
-8 -24 -18 -37 -12 -15 -23 -58 -31 -117 -17 -121 -16 -154 2 -189 8 -15 20
-40 27 -55 8 -16 19 -28 25 -28 6 0 24 -14 40 -30 18 -18 51 -37 82 -46 29 -8
55 -20 58 -25 4 -5 16 -9 29 -9 12 0 26 -3 29 -7 4 -3 19 -8 33 -9 15 -2 34
-6 43 -10 9 -4 18 -8 21 -9 3 -1 13 -5 23 -10 10 -4 31 -2 49 6 17 7 54 12 82
12 52 -1 104 18 119 43 4 8 18 14 31 14 15 0 32 14 52 42 16 23 46 59 67 79
34 33 38 41 32 72 -5 23 -1 54 9 85 12 35 14 56 7 73 -5 13 -15 47 -21 74 -7
28 -22 73 -35 100 -12 28 -33 77 -45 110 -13 33 -27 65 -33 72 -13 18 -97 64
-132 74 -16 4 -48 14 -70 22 -50 18 -93 25 -125 20z"/>
<path d="M8615 1287 c-44 -24 -58 -38 -79 -82 -8 -16 -35 -50 -60 -75 -29 -28
-46 -53 -46 -68 0 -13 -15 -41 -32 -64 l-33 -40 0 -133 0 -132 43 -43 c23 -23
42 -51 42 -61 0 -10 17 -31 37 -46 20 -15 51 -40 67 -55 17 -16 35 -28 41 -28
6 0 17 -6 24 -12 13 -14 235 -12 260 2 8 4 28 3 44 -2 34 -12 140 -5 210 14
60 16 117 73 117 116 0 17 9 37 21 48 17 16 20 26 14 64 -4 25 -11 49 -16 55
-5 5 -9 21 -9 35 0 17 -13 38 -35 60 -19 18 -32 37 -29 41 3 5 -4 26 -16 48
-11 22 -20 47 -20 56 0 8 -4 15 -9 15 -5 0 -26 28 -47 61 -22 34 -48 71 -60
83 -37 39 -101 90 -108 87 -4 -2 -20 9 -35 24 -16 14 -32 25 -37 24 -5 -1 -20
1 -34 5 -14 3 -45 8 -70 10 -25 2 -58 6 -75 9 -20 4 -43 -1 -70 -16z"/>
<path d="M13249 1296 c-2 -2 -24 -7 -49 -10 -88 -10 -147 -33 -170 -66 -8 -12
-25 -26 -38 -31 -13 -5 -28 -23 -34 -41 -7 -18 -28 -67 -49 -108 -29 -59 -39
-92 -44 -155 -4 -44 -12 -88 -17 -99 -7 -12 -6 -22 0 -28 6 -6 8 -17 5 -25 -3
-8 2 -42 12 -76 15 -50 28 -71 68 -109 112 -107 152 -136 203 -146 84 -17 165
-42 187 -57 12 -8 36 -15 54 -15 17 0 34 -4 37 -9 3 -5 21 -9 40 -9 18 0 43
-5 55 -12 18 -9 28 -8 54 9 18 10 46 21 62 22 46 5 154 92 179 143 19 40 21
139 4 158 -28 30 -78 153 -78 194 0 12 -11 47 -25 78 -14 31 -25 62 -25 69 0
29 -95 197 -119 211 -9 5 -28 23 -43 39 -15 15 -33 25 -39 22 -6 -4 -21 -3
-32 3 -84 39 -122 52 -155 52 -21 0 -41 -2 -43 -4z"/>
<path d="M10845 1191 c-3 -6 -18 -11 -33 -11 -15 0 -38 -9 -52 -20 -14 -11
-37 -20 -52 -20 -21 0 -29 -6 -34 -24 -3 -15 -18 -29 -37 -37 -40 -16 -60 -40
-92 -106 -33 -68 -43 -172 -21 -233 13 -37 13 -47 2 -60 -19 -21 -18 -73 3
-112 33 -63 63 -108 71 -108 5 0 12 -9 15 -20 4 -11 12 -20 18 -19 25 4 74
-15 111 -44 26 -21 52 -32 80 -34 22 -1 50 -5 61 -7 11 -2 49 -7 85 -11 36 -4
72 -13 80 -21 16 -13 89 -19 152 -11 30 3 50 17 98 66 42 42 68 61 85 61 42 0
60 41 57 129 -2 42 -8 80 -13 86 -5 5 -9 45 -9 90 -1 98 -18 165 -50 202 -31
35 -50 68 -50 87 0 19 -60 65 -76 59 -7 -2 -36 14 -64 36 -29 23 -57 41 -63
41 -7 0 -25 8 -42 17 -32 17 -52 21 -156 29 -43 4 -69 2 -74 -5z"/>
<path d="M1310 896 c0 -14 4 -27 9 -31 12 -7 25 31 16 45 -11 18 -25 10 -25
-14z"/>
<path d="M24430 202 c0 -11 127 -22 165 -14 51 9 22 18 -70 21 -54 1 -95 -2
-95 -7z"/>
<path d="M16520 175 c0 -11 7 -15 23 -13 12 2 22 8 22 13 0 6 -10 11 -22 13
-16 2 -23 -2 -23 -13z"/>
</g>
</svg>
