<?xml version="1.0" standalone="no"?>
<!DOCTYPE svg PUBLIC "-//W3C//DTD SVG 20010904//EN"
 "http://www.w3.org/TR/2001/REC-SVG-20010904/DTD/svg10.dtd">
<svg version="1.0" xmlns="http://www.w3.org/2000/svg"
 width="43200.000000pt" height="2658.461538pt" viewBox="0 0 43200.000000 2658.461538"
 preserveAspectRatio="xMidYMid meet">
<metadata>
Created by potrace 1.11, written by Peter Selinger 2001-2013
</metadata>
<g transform="translate(0.000000,2658.461538) scale(1.329231,-1.329231)"
fill="#000000" stroke="none">
<path d="M0 1000 l0 -1000 16250 0 16250 0 0 1000 0 1000 -16250 0 -16250 0 0
-1000z m31930 0 l0 -810 -786 2 -785 3 -14 25 c-27 50 -45 93 -45 111 0 10 -4
21 -10 24 -5 3 -10 19 -10 36 0 25 7 32 48 53 26 13 67 35 92 49 39 23 58 26
145 28 55 2 136 -1 180 -5 67 -7 87 -6 113 8 59 30 38 48 -66 57 -41 3 -77 10
-80 16 -8 12 -110 48 -162 57 -88 17 -139 17 -172 3 -60 -27 -95 -35 -109 -26
-23 15 -59 10 -66 -8 -4 -10 -11 -21 -17 -25 -16 -11 -84 -10 -91 1 -3 5 -31
13 -61 17 -43 5 -65 3 -91 -10 -18 -9 -41 -16 -49 -16 -8 0 -29 -13 -47 -30
-18 -16 -37 -30 -42 -30 -6 0 -26 -13 -44 -28 -31 -26 -33 -30 -20 -50 17 -27
35 -34 57 -23 80 40 172 50 234 27 24 -9 54 -15 68 -14 20 2 26 -2 28 -22 2
-14 6 -32 9 -40 3 -8 7 -28 9 -44 3 -17 11 -40 19 -53 8 -12 15 -33 15 -46 0
-12 5 -28 12 -35 9 -9 -62 -12 -319 -12 -182 0 -338 3 -347 6 -9 3 -16 14 -16
24 0 11 -5 22 -10 25 -6 4 -22 29 -36 57 -14 27 -45 78 -69 112 -24 34 -45 73
-47 87 -3 21 -8 24 -43 24 l-40 0 -1 -57 c0 -31 -9 -78 -19 -104 -10 -26 -19
-76 -19 -111 l-1 -63 -158 0 -157 0 -10 25 c-13 34 -73 90 -130 121 -103 56
-130 73 -144 87 -36 36 -289 32 -322 -4 -9 -11 -22 -19 -28 -19 -19 0 -100
-91 -136 -152 l-34 -58 -11662 0 -11663 0 -12 35 c-14 39 -41 49 -32 12 3 -12
10 -28 16 -35 7 -9 -5 -12 -57 -12 -66 0 -66 0 -66 28 0 34 -32 67 -55 58 -17
-6 -17 -29 -1 -26 7 1 36 -44 36 -56 0 -9 -37 -3 -48 8 -9 9 -12 9 -12 0 0 -9
-448 -12 -1985 -12 l-1985 0 0 810 0 810 15675 0 15675 0 0 -810z m-3427 -691
c7 -9 28 -20 47 -24 43 -9 104 -42 136 -72 l23 -23 -216 0 -215 0 16 25 c9 14
24 37 33 51 33 51 150 79 176 43z"/>
<path d="M17885 1770 c3 -5 10 -10 16 -10 5 0 9 5 9 10 0 6 -7 10 -16 10 -8 0
-12 -4 -9 -10z"/>
<path d="M23680 1710 c0 -5 5 -10 10 -10 6 0 10 5 10 10 0 6 -4 10 -10 10 -5
0 -10 -4 -10 -10z"/>
<path d="M23248 1703 c7 -3 16 -2 19 1 4 3 -2 6 -13 5 -11 0 -14 -3 -6 -6z"/>
<path d="M23280 1696 c0 -25 -47 -39 -139 -40 -69 -2 -86 -5 -97 -21 -17 -23
-18 -89 -1 -102 14 -12 248 -15 262 -3 6 4 93 2 195 -5 184 -13 305 -37 355
-72 11 -7 29 -13 41 -13 33 0 152 -40 165 -56 15 -18 6 -18 -66 7 -84 29 -168
40 -330 45 -77 2 -147 7 -155 10 -42 18 -94 21 -125 8 -18 -7 -52 -13 -76 -12
-85 1 -224 -14 -245 -27 -24 -16 -36 -69 -20 -89 30 -35 193 -43 273 -13 22 8
43 13 46 11 2 -3 31 -7 63 -9 105 -8 348 -22 379 -23 57 -2 128 -17 132 -28 2
-7 -14 -25 -35 -40 -58 -42 -73 -100 -37 -144 7 -8 16 -26 20 -39 4 -12 25
-41 46 -63 45 -47 48 -58 14 -58 -13 0 -48 -11 -77 -24 -72 -33 -196 -74 -244
-80 -101 -14 -182 -27 -214 -36 -19 -6 -98 -15 -174 -21 -77 -5 -143 -12 -148
-15 -14 -9 -9 -61 8 -74 21 -18 262 -31 289 -17 11 6 45 14 75 18 91 11 133
20 167 35 17 8 48 14 70 14 41 0 216 50 272 78 39 19 136 21 154 3 13 -13 -20
-43 -41 -36 -6 2 -33 -7 -59 -20 -25 -14 -54 -25 -65 -25 -10 0 -26 -4 -36 -9
-42 -22 -91 -41 -109 -41 -10 0 -43 -9 -73 -20 -30 -11 -80 -25 -110 -31 -30
-5 -93 -17 -140 -26 -93 -18 -224 -19 -338 -3 -90 12 -112 4 -112 -44 0 -22 8
-40 26 -57 25 -23 29 -24 182 -22 87 1 177 3 202 6 119 12 227 29 250 39 24
10 58 20 125 33 17 4 39 10 50 15 11 5 49 16 84 24 35 8 71 22 80 30 9 8 30
18 46 21 68 16 121 38 159 65 37 28 41 29 63 15 12 -8 30 -15 39 -15 28 0 83
-20 174 -64 l85 -41 232 0 c205 0 234 2 251 18 10 9 34 17 53 17 19 0 57 11
85 24 27 13 66 26 86 29 21 3 52 17 70 31 54 41 86 48 231 52 152 5 254 15
367 38 114 23 133 28 155 42 11 6 44 15 74 19 30 4 69 18 89 31 19 13 42 24
51 24 9 0 26 7 38 15 18 13 24 13 52 -1 17 -8 31 -19 31 -22 0 -14 159 -142
176 -142 10 0 26 -8 36 -17 22 -20 113 -53 145 -53 12 0 46 -11 76 -24 45 -19
77 -24 207 -30 85 -4 200 -9 255 -12 91 -5 103 -3 127 15 14 12 32 21 39 21
13 0 79 64 79 77 0 5 9 14 20 21 11 7 20 23 20 37 0 29 9 32 139 39 52 3 99
10 104 15 6 6 34 11 62 11 27 1 100 8 160 16 61 9 130 17 155 19 25 2 56 5 70
8 191 42 279 44 467 12 46 -8 97 -12 113 -8 23 4 37 0 53 -15 18 -17 36 -20
106 -21 46 0 107 5 135 11 28 6 78 13 111 15 128 6 157 10 163 20 16 23 60 22
137 -6 44 -15 90 -33 102 -39 12 -7 31 -12 43 -12 11 0 33 -9 48 -19 15 -10
63 -24 107 -31 44 -7 89 -18 100 -24 22 -11 325 -18 413 -9 29 3 60 12 68 21
10 10 45 17 103 21 82 6 91 9 129 41 22 19 41 40 41 46 1 6 9 19 20 28 28 26
44 99 45 205 0 116 -6 143 -52 241 -11 25 -23 55 -27 68 -3 12 -10 22 -14 22
-5 0 -29 18 -54 40 -25 22 -50 40 -56 40 -6 0 -11 3 -11 8 0 11 -100 60 -160
78 -30 9 -60 20 -66 25 -12 10 -263 31 -275 23 -4 -2 -28 1 -52 8 -40 10 -49
9 -91 -10 -25 -12 -52 -22 -59 -22 -8 0 -27 -6 -43 -14 -16 -8 -69 -24 -119
-36 -49 -12 -98 -26 -107 -31 -23 -12 -48 -11 -48 0 0 11 -80 51 -102 51 -20
0 -85 27 -92 39 -7 11 -111 16 -241 12 -85 -2 -103 -5 -118 -22 -18 -19 -20
-19 -37 -4 -16 14 -27 14 -126 1 -60 -8 -136 -24 -170 -34 -34 -11 -82 -22
-107 -26 -26 -4 -49 -11 -52 -17 -9 -13 -89 -11 -103 3 -36 36 -151 47 -272
27 -36 -7 -76 -11 -89 -10 -13 0 -69 -8 -123 -19 -55 -11 -126 -20 -157 -20
-31 0 -61 -4 -66 -9 -6 -4 -35 -16 -65 -26 -80 -26 -89 -29 -153 -58 -31 -15
-67 -27 -78 -27 -12 0 -34 -8 -49 -17 -27 -15 -30 -15 -57 3 -31 21 -98 57
-158 86 -22 10 -49 24 -60 30 -57 33 -85 39 -231 53 -88 7 -174 19 -193 24
-37 11 -156 0 -224 -21 -30 -9 -43 -9 -58 0 -54 34 -129 51 -250 57 -69 4
-132 7 -140 8 -32 4 -156 -16 -180 -28 -14 -8 -54 -17 -90 -21 -35 -3 -80 -15
-99 -24 -19 -10 -57 -24 -85 -30 -27 -6 -64 -20 -81 -31 -17 -10 -37 -19 -43
-19 -7 0 -30 -9 -52 -19 -21 -11 -58 -22 -82 -26 -23 -4 -55 -15 -72 -25 -16
-10 -46 -21 -65 -25 -19 -4 -46 -14 -60 -22 -23 -13 -31 -12 -78 6 -29 12 -63
21 -75 21 -12 0 -40 7 -62 15 -22 8 -57 14 -77 15 -20 0 -40 5 -43 11 -5 6
-52 8 -143 4 -277 -12 -283 -13 -303 -31 -28 -25 -108 -14 -142 20 -15 14 -31
26 -38 26 -7 0 -39 13 -73 29 -67 31 -154 61 -180 61 -9 0 -24 4 -34 9 -41 23
-173 53 -243 57 -80 3 -154 26 -163 50 -4 10 -24 14 -78 13 -61 -1 -67 -3 -38
-10 l35 -8 -40 3 c-22 2 -48 6 -57 10 -13 6 -18 4 -18 -8z m6980 -107 c30 -6
77 -13 104 -15 45 -4 153 -46 166 -64 3 -4 16 -13 30 -20 37 -20 100 -73 100
-86 0 -6 12 -33 26 -60 41 -76 55 -143 47 -229 -4 -52 -11 -80 -24 -94 -11
-11 -19 -23 -19 -25 0 -3 -8 -15 -17 -27 -35 -41 -61 -48 -242 -64 -29 -2 -59
-10 -67 -16 -16 -13 -210 -13 -269 1 -22 5 -53 10 -69 10 -15 0 -50 11 -78 25
-27 14 -56 25 -64 25 -14 0 -46 9 -159 45 -48 15 -53 27 -25 55 15 15 29 20
43 16 12 -4 51 -9 87 -12 73 -6 135 -21 165 -41 11 -7 36 -13 55 -13 20 0 42
-6 49 -12 20 -21 303 -16 366 6 58 21 140 78 157 109 34 65 38 177 8 219 -11
15 -20 30 -20 34 0 17 -99 96 -140 111 -25 9 -49 20 -55 24 -22 15 -190 30
-372 32 -106 1 -193 5 -193 10 0 4 10 7 21 7 28 0 102 22 109 32 17 23 196 34
280 17z m-907 -26 c42 -9 77 -19 77 -24 0 -12 -30 -39 -44 -39 -8 0 -33 7 -57
16 -53 19 -384 23 -464 5 -64 -15 -60 -15 -130 -12 -72 3 -51 15 41 26 32 4
93 13 134 21 41 9 102 16 135 16 33 0 69 5 80 9 26 11 129 3 228 -18z m-3132
-17 c9 -12 -10 -66 -24 -67 -7 -1 -65 0 -130 1 -115 2 -180 -6 -317 -37 -88
-20 -135 -30 -200 -44 -30 -6 -77 -20 -104 -30 -27 -11 -60 -19 -75 -18 -26 1
-26 1 6 15 17 7 34 18 38 24 3 5 14 10 23 10 9 0 29 6 43 14 14 7 43 16 64 20
21 4 57 16 79 25 81 36 97 41 124 41 15 0 36 6 47 14 19 12 87 24 178 31 21 1
41 5 45 9 10 10 196 3 203 -8z m599 -46 c19 -5 76 -12 125 -14 100 -6 160 -23
184 -53 9 -11 30 -24 46 -28 45 -10 88 -55 53 -55 -6 0 -20 -8 -30 -17 -17
-15 -21 -15 -46 -2 -42 24 -152 62 -159 56 -3 -4 -19 3 -36 15 -17 12 -49 25
-71 29 -174 33 -246 53 -246 69 0 18 112 18 180 0z m1490 5 c-7 -9 -30 -23
-49 -31 -20 -8 -47 -23 -61 -32 -15 -10 -47 -18 -80 -18 -94 -3 -183 -11 -235
-22 -27 -6 -83 -16 -123 -22 -41 -5 -97 -21 -126 -34 -55 -25 -148 -38 -156
-21 -8 17 145 81 239 100 18 4 53 16 77 26 24 11 63 20 86 20 113 0 178 7 201
22 15 10 52 17 93 19 38 2 87 4 108 6 35 2 38 1 26 -13z m1913 -79 c12 -8 49
-17 82 -21 33 -4 65 -10 70 -15 6 -4 25 -11 43 -15 33 -7 82 -50 82 -71 0 -6
10 -18 22 -26 34 -23 27 -83 -14 -126 -18 -18 -41 -38 -50 -43 -24 -13 -174
-40 -217 -40 -81 2 -122 9 -134 23 -7 9 -33 18 -60 22 -26 3 -61 12 -77 21
-16 8 -55 15 -86 15 -71 0 -96 18 -83 58 22 72 26 121 12 153 -24 56 -17 59
131 60 49 0 98 5 110 9 34 14 144 11 169 -4z m-958 -8 c35 -3 40 -6 43 -30 3
-22 -2 -30 -23 -38 -21 -8 -32 -6 -55 12 -25 18 -33 20 -55 10 -21 -10 -25
-19 -25 -51 0 -54 7 -67 46 -92 19 -11 34 -29 34 -39 0 -27 -60 -34 -247 -28
-140 4 -156 7 -175 26 -17 17 -19 24 -9 36 9 10 9 20 3 33 -6 10 -13 34 -16
55 -3 20 -11 48 -17 62 -7 14 -10 28 -7 31 2 3 35 6 71 7 37 1 71 4 76 7 10 6
286 6 356 -1z m400 -38 c10 -11 15 -23 12 -26 -3 -4 0 -19 8 -35 21 -39 19
-73 -5 -94 -17 -15 -27 -17 -57 -9 l-37 9 -1 75 c0 65 3 77 20 87 28 17 39 16
60 -7z m-3125 -16 c9 -9 15 -33 15 -63 0 -38 -6 -55 -30 -84 -38 -45 -66 -47
-109 -4 -29 28 -32 37 -28 72 9 84 99 131 152 79z m-1735 -9 c22 -8 52 -15 67
-15 24 0 70 -16 120 -41 10 -5 25 -9 33 -9 14 0 21 -21 10 -32 -4 -3 -23 -2
-44 3 -59 13 -281 31 -435 35 -111 2 -142 6 -155 19 -23 23 -3 32 89 40 41 4
80 8 85 10 29 10 194 3 230 -10z m1272 9 c25 -5 35 -17 58 -67 16 -34 31 -65
33 -69 1 -3 -14 -12 -35 -18 -21 -7 -42 -16 -47 -21 -6 -5 -16 -9 -24 -9 -8 0
-26 -9 -42 -20 -15 -11 -53 -22 -86 -26 -33 -3 -68 -12 -79 -19 -25 -15 -72
-24 -155 -29 -36 -2 -104 -7 -152 -11 l-87 -8 -7 29 c-4 16 -18 47 -32 68 -24
38 -24 40 -6 54 33 25 124 62 153 62 15 0 61 11 102 25 41 14 90 31 109 37 70
23 231 35 297 22z m751 -25 c24 -11 54 -19 66 -19 12 0 31 -7 42 -15 10 -8 32
-15 47 -15 16 0 38 -11 53 -25 14 -14 29 -23 34 -20 4 3 19 -4 31 -14 l24 -20
-42 -43 c-47 -48 -51 -64 -27 -111 26 -49 73 -95 137 -129 31 -17 57 -35 57
-39 0 -10 -56 -14 -145 -10 -66 3 -128 22 -222 70 -33 17 -66 31 -72 31 -7 0
-21 9 -33 20 -12 11 -30 20 -39 20 -10 0 -21 5 -24 10 -3 6 -16 10 -28 10 -12
0 -39 13 -59 29 l-38 28 26 24 c52 49 82 163 59 227 -8 24 -8 24 51 16 32 -4
78 -15 102 -25z m1820 -6 c11 -21 20 -57 20 -80 l2 -43 -58 0 c-55 0 -58 1
-69 30 -6 16 -25 38 -42 47 -17 10 -31 21 -31 24 0 19 79 58 117 58 39 1 44
-2 61 -36z m-3315 2 c-7 -20 -53 -43 -75 -38 -26 6 -22 33 5 33 12 0 29 5 37
10 23 15 40 12 33 -5z m2661 -77 c4 -21 29 -53 71 -95 36 -35 61 -63 57 -64
-4 0 -18 -2 -32 -5 -65 -11 -184 -23 -270 -28 -52 -3 -107 -8 -123 -12 -25 -5
-29 -2 -52 50 -14 31 -30 56 -36 56 -19 0 -5 45 16 48 11 2 26 9 34 15 20 17
82 37 114 37 16 0 38 6 50 12 22 12 132 27 153 20 7 -2 15 -17 18 -34z m-3746
4 c3 -9 -3 -13 -19 -10 -12 1 -24 9 -27 16 -3 9 3 13 19 10 12 -1 24 -9 27
-16z m3102 -7 c0 -8 -9 -15 -20 -15 -20 0 -26 11 -13 23 12 13 33 7 33 -8z
m-2630 -70 c41 -4 93 -8 115 -9 47 -4 118 -29 123 -45 2 -6 -10 -25 -27 -42
l-31 -30 -25 19 c-37 29 -83 11 -112 -45 -21 -40 -21 -45 -7 -85 17 -49 7 -61
-41 -54 -16 3 -68 10 -115 17 -122 17 -140 25 -140 63 0 17 4 46 9 64 7 22 6
43 0 60 -7 18 -6 34 2 54 10 25 16 28 58 28 25 0 53 5 61 10 8 5 24 7 35 5 11
-3 54 -7 95 -10z m-670 -25 c0 -5 -7 -10 -15 -10 -8 0 -15 -5 -15 -12 0 -6 -3
-8 -7 -4 -5 4 1 14 11 22 23 17 26 17 26 4z m3460 -50 c52 -66 13 -86 -45 -22
-32 34 -33 38 -18 50 24 18 28 16 63 -28z m2077 4 c2 -5 -11 -15 -28 -21 -26
-10 -37 -9 -61 3 -16 8 -26 19 -23 25 8 12 107 7 112 -7z m-5255 -6 c1 -7 2
-34 2 -60 1 -52 -9 -62 -50 -52 -30 8 -32 45 -4 92 20 32 49 43 52 20z m1939
-39 c21 -23 36 -45 34 -50 -3 -4 -22 -11 -43 -15 -20 -3 -53 -15 -72 -25 -100
-52 -267 -87 -381 -81 -34 2 -75 -3 -104 -12 -32 -11 -74 -16 -132 -14 -78 3
-84 4 -79 23 3 11 6 25 6 32 0 16 34 26 100 30 154 8 353 44 379 67 18 16 90
35 134 36 16 0 40 11 55 25 37 35 58 31 103 -16z m3078 -10 c40 -19 42 -22 25
-34 -30 -20 -97 -27 -247 -27 -95 1 -143 5 -154 13 -8 8 -54 14 -111 16 -117
4 -149 10 -135 24 7 7 60 7 166 -1 224 -16 371 -6 413 29 0 1 20 -8 43 -20z
m-2812 -66 c-8 -7 -37 9 -31 19 3 5 12 4 20 -3 8 -6 13 -14 11 -16z m-1477 -7
c0 -14 30 -23 108 -33 23 -3 42 -8 42 -12 0 -11 -68 -44 -78 -37 -6 3 -21 2
-34 -3 -16 -6 -44 -4 -83 6 -76 19 -86 29 -40 37 26 5 42 16 53 36 16 28 32
31 32 6z m1558 -38 c7 -7 12 -8 12 -3 0 5 10 -1 23 -12 21 -20 106 -53 134
-53 8 0 21 -7 29 -15 9 -8 27 -18 42 -21 15 -3 41 -12 59 -20 17 -8 42 -14 55
-14 12 0 34 -9 47 -19 l24 -18 -38 -6 c-25 -4 -52 0 -85 13 -26 10 -50 17 -52
14 -3 -2 -35 9 -72 26 -38 16 -74 30 -81 30 -15 0 -125 89 -125 101 0 13 14
11 28 -3z m-2155 -125 c18 -10 41 -18 52 -19 11 -1 81 -10 155 -19 86 -11 205
-17 328 -16 l194 0 -48 -24 c-36 -18 -78 -27 -164 -36 -222 -22 -294 -19 -375
16 -35 15 -72 27 -135 46 -53 15 -81 36 -73 55 7 19 27 18 66 -3z m3023 -28
c-39 -32 -60 -40 -139 -52 -44 -6 -130 5 -123 16 7 10 100 28 161 30 28 1 55
8 60 15 11 14 67 36 75 29 3 -3 -13 -20 -34 -38z m-296 -35 c0 -5 -7 -10 -15
-10 -8 0 -15 5 -15 10 0 6 7 10 15 10 8 0 15 -4 15 -10z"/>
<path d="M22600 1680 c-13 -18 -31 -20 -155 -25 -77 -2 -203 -11 -280 -20 -77
-8 -166 -15 -197 -15 -44 0 -60 -4 -70 -19 -12 -17 -86 -32 -159 -31 -14 0
-39 -10 -55 -22 -37 -29 -98 -29 -179 1 -52 19 -82 22 -230 23 -336 4 -411 -1
-532 -32 -61 -15 -121 -34 -133 -40 -34 -18 -178 5 -206 33 -4 4 -27 7 -51 7
-25 0 -54 6 -66 12 -15 8 -82 13 -202 15 -182 2 -219 -3 -328 -43 -50 -19 -70
-18 -118 6 -35 16 -150 46 -199 50 -148 14 -471 -3 -508 -27 -13 -8 -35 -16
-50 -18 -79 -12 -110 -19 -134 -31 -15 -8 -49 -14 -75 -14 -49 0 -67 -7 -74
-26 -2 -6 -37 -39 -77 -74 -68 -59 -75 -62 -110 -55 -20 4 -41 10 -47 14 -38
26 -167 43 -196 26 -8 -5 -43 -8 -77 -6 -35 1 -104 -3 -154 -10 -81 -12 -93
-11 -120 4 -16 9 -35 17 -42 17 -7 0 -43 14 -79 30 -37 17 -82 30 -102 30 -19
0 -54 4 -77 10 -24 5 -83 18 -132 29 -86 20 -89 20 -125 2 -26 -13 -68 -20
-157 -24 -79 -3 -134 -11 -155 -21 -19 -8 -69 -20 -112 -25 -69 -10 -84 -9
-145 11 -37 12 -76 29 -87 39 -16 14 -45 19 -140 24 -164 8 -223 13 -270 23
-47 9 -294 -11 -324 -27 -11 -6 -31 -11 -45 -11 -15 0 -30 -8 -36 -20 -6 -11
-17 -20 -24 -20 -7 0 -27 -14 -44 -30 -18 -17 -36 -30 -42 -30 -5 0 -10 -4
-10 -9 0 -5 -18 -28 -41 -52 -22 -23 -38 -48 -35 -55 3 -8 2 -14 -3 -14 -5 0
-23 -19 -41 -43 l-33 -42 -76 76 c-42 41 -94 95 -117 120 -39 43 -64 59 -189
121 -33 17 -68 34 -77 39 -10 5 -26 9 -36 9 -10 0 -27 7 -38 15 -10 8 -29 15
-42 15 -13 0 -33 5 -45 12 -12 6 -39 11 -59 9 -21 -1 -43 1 -50 6 -7 4 -38 9
-68 9 -30 1 -68 4 -85 8 -110 22 -222 27 -265 13 -8 -3 -58 -8 -110 -12 -52
-3 -113 -11 -135 -16 -22 -6 -58 -15 -80 -21 -22 -5 -47 -14 -55 -19 -8 -5
-29 -16 -46 -24 -17 -8 -34 -21 -37 -29 -4 -11 -19 -13 -69 -9 -35 3 -70 11
-78 19 -29 24 -106 42 -281 64 -172 21 -284 24 -304 10 -5 -4 -39 -10 -73 -14
-35 -3 -78 -12 -95 -20 -50 -23 -94 -28 -129 -17 -18 6 -78 12 -133 14 -55 2
-166 11 -247 22 -137 17 -149 17 -172 2 -14 -10 -45 -17 -69 -17 -47 0 -196
-36 -211 -51 -6 -5 -17 -9 -26 -9 -20 0 -77 -27 -85 -40 -3 -5 -25 -18 -49
-29 -40 -17 -70 -19 -342 -19 -308 -1 -350 -4 -560 -50 -50 -11 -102 -27 -115
-35 -13 -8 -40 -18 -59 -22 -47 -10 -153 -54 -165 -69 -27 -33 -91 -50 -200
-52 -140 -3 -207 -12 -253 -31 -20 -9 -50 -15 -65 -14 -16 2 -37 -5 -47 -14
-11 -10 -49 -21 -96 -26 -42 -6 -85 -14 -95 -19 -10 -6 -27 -10 -38 -10 -12 0
-21 -3 -21 -8 0 -4 -14 -13 -32 -21 -30 -13 -33 -13 -46 7 -8 12 -20 22 -26
22 -7 0 -42 18 -79 40 -36 22 -71 40 -78 40 -6 0 -34 18 -61 40 -49 39 -60 44
-85 41 -7 -1 -38 12 -70 28 -54 28 -68 30 -213 36 -208 10 -344 7 -382 -9 -17
-8 -49 -11 -73 -8 -30 3 -50 -1 -66 -12 -13 -9 -37 -16 -53 -16 -35 0 -96 20
-96 32 0 4 -8 8 -18 8 -10 0 -28 7 -41 17 -90 62 -191 94 -293 92 -40 0 -107
3 -148 9 -70 9 -175 2 -199 -13 -6 -3 -37 -8 -68 -11 -32 -3 -65 -12 -73 -19
-8 -7 -37 -16 -63 -20 -27 -4 -56 -16 -65 -25 -22 -23 -42 -27 -68 -12 -33 18
-266 40 -435 42 -19 0 -64 -9 -99 -20 -34 -11 -79 -20 -100 -20 -21 0 -43 -6
-49 -13 -6 -8 -30 -19 -53 -26 -24 -7 -57 -21 -75 -31 -47 -27 -100 -35 -121
-19 -30 24 -61 39 -83 39 -25 0 -54 15 -80 41 -10 10 -25 16 -33 13 -7 -3 -31
4 -52 15 -21 12 -55 21 -76 21 -21 0 -58 7 -84 16 -26 9 -59 13 -73 11 -14 -3
-74 -1 -134 5 -102 10 -113 9 -220 -17 -61 -15 -121 -31 -133 -35 -17 -7 -33
3 -88 54 -46 42 -89 71 -134 90 -37 15 -82 34 -100 42 -18 8 -41 14 -51 14
-10 0 -29 8 -42 19 -80 63 -534 119 -615 76 -16 -8 -45 -18 -65 -21 -23 -4
-55 -22 -87 -50 -28 -24 -54 -44 -58 -44 -4 0 -18 -10 -30 -21 -21 -20 -34
-22 -151 -21 -70 0 -144 -3 -163 -8 -19 -5 -79 -12 -133 -15 -54 -3 -107 -10
-117 -15 -10 -6 -30 -10 -43 -10 -14 0 -30 -6 -36 -14 -6 -7 -46 -21 -88 -31
-43 -10 -87 -26 -99 -36 -11 -11 -25 -19 -30 -19 -25 0 -138 -97 -171 -146
-14 -22 -21 -25 -52 -19 -20 4 -161 7 -315 7 -227 -1 -281 -3 -295 -15 -9 -8
-34 -18 -56 -22 -21 -4 -52 -13 -68 -21 -43 -23 -125 -9 -211 36 -143 76 -167
85 -251 102 -27 5 -57 16 -65 23 -27 23 -434 40 -461 19 -8 -6 -47 -14 -88
-18 -68 -6 -76 -9 -110 -44 -20 -20 -48 -45 -63 -54 -25 -17 -37 -34 -83 -128
-24 -50 -24 -119 1 -155 8 -11 14 -27 14 -36 0 -15 76 -127 104 -154 35 -34
150 -105 170 -105 12 0 33 -11 45 -24 27 -29 105 -64 181 -82 56 -12 223 -30
250 -26 8 1 54 3 102 4 83 3 88 2 100 -20 21 -40 69 -74 94 -68 14 4 24 1 27
-8 3 -7 18 -16 34 -19 15 -3 55 -15 88 -26 52 -19 87 -22 257 -25 185 -2 202
-1 270 21 40 13 87 32 106 43 18 11 42 20 53 20 10 0 19 4 19 8 0 10 51 28
102 37 21 4 42 13 49 21 6 8 19 14 28 14 10 0 28 11 41 25 12 13 38 29 56 35
19 7 34 16 34 21 0 4 14 16 31 25 24 12 45 14 93 9 33 -4 69 -12 79 -17 11 -5
67 -11 125 -12 59 -2 119 -6 135 -10 18 -6 38 -3 60 7 18 9 68 20 112 25 44 5
134 24 200 42 66 18 131 35 145 38 14 2 32 10 40 17 8 7 33 19 55 26 22 7 53
22 68 32 33 22 75 18 147 -15 25 -11 54 -25 65 -29 47 -21 211 -37 285 -29 41
5 120 6 175 3 76 -4 111 -1 145 11 42 14 46 14 75 -4 16 -11 46 -28 66 -39 19
-11 41 -27 48 -35 8 -9 25 -16 40 -16 14 0 41 -4 60 -10 18 -5 68 -12 110 -15
42 -3 109 -10 150 -16 41 -6 92 -8 115 -5 27 4 51 1 70 -9 25 -13 34 -13 80
-1 28 8 75 15 105 15 29 0 67 8 84 16 16 8 40 15 53 15 12 0 64 14 114 30 71
23 96 28 106 19 8 -6 46 -16 86 -21 40 -5 105 -14 143 -20 91 -12 315 -12 435
0 176 19 338 61 400 105 30 21 49 21 92 3 18 -8 50 -22 70 -31 37 -15 209 -47
335 -61 51 -5 77 -2 145 18 195 59 275 75 300 59 10 -6 29 -11 43 -11 17 0 29
-8 37 -25 6 -14 19 -25 28 -25 15 0 117 -49 145 -70 6 -4 46 -19 90 -33 82
-26 146 -54 155 -69 3 -4 30 -9 60 -11 30 -3 73 -12 95 -21 34 -15 85 -18 333
-21 171 -2 292 1 292 6 0 5 -5 9 -12 9 -8 0 -8 4 2 14 25 23 122 50 170 46 71
-5 153 3 239 21 74 16 91 19 186 29 156 18 178 22 214 42 34 20 54 26 97 32
12 2 34 15 50 29 16 15 34 27 39 27 19 0 45 -25 37 -35 -13 -18 -76 -62 -100
-69 -12 -4 -34 -18 -49 -32 -14 -13 -34 -24 -44 -24 -10 0 -26 -8 -36 -19 -10
-10 -37 -21 -60 -24 -23 -3 -54 -14 -68 -25 l-25 -20 57 -6 c97 -10 209 -3
230 15 35 31 123 89 134 89 7 0 38 25 70 55 48 46 62 55 83 49 14 -3 42 -6 63
-6 21 1 49 1 63 1 14 0 52 1 85 1 33 0 71 5 85 10 14 5 63 14 110 19 47 5 112
16 145 25 33 8 77 15 98 16 23 0 40 5 43 15 3 8 26 17 52 20 26 4 60 16 76 27
32 23 97 28 119 9 8 -6 43 -14 78 -18 35 -3 73 -12 84 -19 28 -17 122 -26 284
-27 125 0 142 2 175 21 21 12 47 22 59 22 34 0 166 48 194 70 14 11 31 20 38
20 6 0 42 15 80 33 65 32 70 33 116 21 27 -7 88 -29 136 -49 49 -20 108 -38
133 -41 25 -2 87 -11 139 -19 114 -19 239 -22 266 -8 11 6 70 14 130 17 61 3
124 8 142 12 27 5 39 1 72 -25 21 -17 45 -31 53 -31 8 0 29 -11 47 -24 19 -14
48 -28 65 -31 17 -3 40 -10 51 -14 55 -22 94 -35 140 -45 28 -6 61 -17 73 -25
13 -7 49 -15 80 -18 31 -4 63 -13 71 -20 11 -12 43 -13 170 -7 86 4 163 10
171 14 8 4 43 8 78 9 35 1 76 8 92 16 16 8 35 15 42 15 7 0 51 20 97 44 58 29
90 52 101 72 45 82 68 94 88 49 15 -33 26 -46 86 -105 27 -27 61 -54 75 -60
14 -7 35 -17 45 -22 10 -6 78 -19 150 -30 152 -23 448 -30 506 -11 19 7 76 15
125 18 195 14 262 22 299 38 21 10 49 17 62 17 12 0 29 8 36 18 32 42 57 46
230 32 162 -12 245 -10 303 9 17 5 58 12 92 15 34 3 109 17 167 31 58 14 109
24 113 23 4 -1 28 4 52 11 24 7 47 9 50 4 3 -4 22 -15 41 -24 74 -34 106 -49
120 -58 8 -5 35 -14 60 -21 25 -6 66 -22 91 -36 28 -14 64 -24 89 -24 24 0 72
-5 107 -12 48 -9 72 -9 96 0 50 17 167 31 275 32 12 0 32 10 43 21 12 12 36
22 53 23 47 2 132 61 162 112 14 24 29 44 32 45 4 0 61 2 127 4 66 3 143 9
170 15 46 10 130 26 165 32 28 4 95 -14 115 -32 34 -29 78 -49 140 -64 33 -7
80 -20 105 -29 98 -33 123 -38 237 -44 65 -3 127 -5 138 -5 11 1 65 2 120 2
56 0 126 7 158 15 32 8 74 15 93 15 19 0 42 4 52 9 9 4 38 19 64 32 44 22 51
22 95 11 26 -7 55 -19 63 -27 10 -9 30 -12 62 -8 32 4 53 1 64 -8 19 -16 211
-30 235 -18 9 5 70 13 135 20 80 7 125 16 136 26 20 18 90 10 109 -13 6 -8 22
-14 35 -14 12 0 26 -4 29 -10 3 -5 16 -10 29 -10 13 0 43 -10 67 -23 52 -27
109 -47 132 -47 9 0 17 -7 17 -15 0 -9 9 -15 21 -15 27 0 170 -49 189 -65 33
-27 167 -56 270 -58 l75 -2 0 35 c0 40 -28 60 -87 60 -20 0 -40 4 -43 10 -3 5
-17 10 -30 10 -13 0 -36 7 -52 15 -15 8 -54 22 -85 31 -68 20 -78 39 -15 29
43 -7 124 -30 165 -46 13 -5 45 -9 73 -9 65 0 94 24 84 69 -8 37 -30 51 -84
51 -22 0 -52 5 -68 12 -15 6 -57 15 -93 19 -90 11 -130 20 -130 30 0 4 -19 13
-42 20 -24 6 -47 14 -53 18 -5 4 -24 8 -41 9 -17 1 -52 13 -78 27 -26 14 -56
25 -67 25 -22 0 -25 13 -5 29 18 15 55 134 56 181 3 76 -28 193 -58 217 -22
18 -6 53 25 53 15 0 34 6 42 14 24 20 102 36 144 29 23 -3 42 -1 52 7 9 8 75
15 182 21 93 5 188 10 212 13 43 4 46 2 102 -56 33 -33 59 -67 59 -74 0 -8 4
-14 9 -14 5 0 14 -13 20 -30 5 -16 14 -30 20 -30 5 0 12 -14 16 -30 7 -32 58
-90 79 -90 25 0 49 40 50 83 1 39 -5 50 -52 105 -30 34 -60 62 -67 62 -8 0
-17 9 -20 20 -3 11 -16 25 -28 31 -11 7 -38 28 -59 47 -29 27 -38 43 -38 69 0
21 5 33 13 33 18 0 36 40 28 61 -5 15 -77 100 -83 99 -2 -1 -10 -10 -18 -20z
m-17773 -174 c62 -2 118 -8 125 -13 7 -6 24 -13 38 -16 34 -7 111 -35 132 -47
10 -6 24 -10 31 -10 33 0 150 -63 194 -105 26 -24 51 -45 56 -45 12 0 8 -30
-5 -30 -6 0 -20 -8 -30 -17 -16 -14 -23 -15 -38 -5 -11 7 -26 12 -34 12 -7 0
-19 6 -25 14 -6 7 -32 16 -57 20 -25 3 -82 21 -127 40 -99 41 -176 51 -412 51
-165 0 -172 1 -229 28 l-58 28 26 24 c15 14 32 25 39 25 7 0 26 7 42 16 39 22
141 42 185 38 19 -2 86 -6 147 -8z m9781 -10 c4 -2 74 -12 154 -21 81 -8 163
-22 182 -30 20 -8 46 -15 59 -15 13 0 27 -4 33 -9 5 -5 39 -25 76 -44 90 -47
117 -67 185 -139 80 -84 86 -90 106 -127 29 -54 22 -67 -17 -37 -19 14 -46 26
-60 26 -14 0 -26 5 -26 10 0 6 -12 16 -27 23 -16 7 -46 24 -68 38 -22 14 -60
31 -85 38 -25 7 -63 26 -85 42 -29 21 -65 34 -125 45 -47 9 -91 21 -99 27 -7
7 -19 12 -25 12 -6 1 -35 8 -64 18 -81 25 -248 33 -293 14 -23 -9 -53 -13 -80
-10 -24 3 -69 0 -99 -5 -30 -6 -57 -7 -60 -3 -3 4 -35 22 -72 41 -70 35 -77
41 -55 57 15 12 116 35 127 28 4 -2 31 4 60 14 46 16 76 18 203 15 81 -2 152
-6 155 -8z m-1124 -39 c74 -2 141 -9 148 -15 7 -5 31 -13 53 -17 22 -4 45 -11
50 -15 6 -5 24 -10 40 -12 42 -4 39 -30 -5 -40 -22 -4 -51 -2 -80 7 -80 25
-172 37 -318 41 -124 3 -150 7 -195 28 l-52 24 45 6 c73 10 144 12 162 4 9 -4
77 -9 152 -11z m-859 -6 c28 -5 85 -10 128 -10 42 -1 77 -5 77 -11 0 -22 -35
-80 -49 -82 -19 -1 -12 -2 -174 15 -107 12 -135 12 -165 1 -20 -7 -60 -13 -89
-14 -28 0 -54 -4 -57 -9 -6 -9 -45 -16 -150 -27 -47 -5 -67 -3 -93 11 -18 10
-33 21 -33 24 0 14 59 40 125 56 38 8 73 19 79 24 10 7 96 24 176 34 42 6 172
-1 225 -12z m6852 7 c18 -7 33 -15 33 -19 0 -3 -20 -14 -45 -25 -25 -10 -45
-21 -45 -25 0 -4 -17 -16 -37 -26 -30 -16 -69 -22 -181 -27 -78 -4 -157 -12
-175 -17 -68 -20 -124 -31 -179 -33 -31 -1 -64 -9 -74 -17 -29 -24 -124 6
-124 40 0 19 89 65 145 74 69 13 115 25 127 34 21 15 111 34 159 33 24 0 64 4
89 9 69 13 269 13 307 -1z m1950 -13 c15 -8 41 -15 56 -15 l28 0 -34 -29 c-18
-16 -46 -33 -63 -37 -16 -4 -35 -11 -41 -17 -16 -12 -69 -11 -189 3 -69 8
-109 9 -142 1 -26 -6 -99 -12 -162 -13 -109 -3 -116 -2 -142 21 -16 14 -28 27
-28 31 0 12 67 32 125 37 33 3 67 9 75 13 9 5 74 10 145 11 72 2 139 6 150 10
33 12 190 0 222 -16z m-1162 -9 c39 -4 88 -12 110 -17 22 -6 52 -13 67 -16 36
-7 26 -27 -26 -54 l-43 -21 -41 21 c-23 12 -58 21 -79 21 -21 0 -61 6 -88 13
-28 7 -77 11 -110 10 -72 -4 -107 -3 -227 6 -10 0 -18 5 -18 10 0 11 27 21 77
27 21 3 38 6 40 7 5 5 270 -1 338 -7z m1573 2 c-3 -7 -15 -14 -29 -16 -23 -2
-23 -2 -5 13 24 18 39 20 34 3z m-8757 -74 c31 -38 -23 -56 -103 -33 -41 11
-46 20 -25 41 17 17 112 11 128 -8z m3310 11 c101 -6 205 -28 226 -48 3 -4
-14 -16 -38 -27 -24 -11 -51 -25 -61 -32 -12 -9 -25 -9 -55 0 -32 9 -230 26
-298 25 -75 -2 -156 -18 -171 -34 -10 -11 -25 -19 -34 -19 -10 0 -23 -7 -30
-15 -7 -8 -17 -12 -22 -9 -5 4 -22 1 -36 -6 -15 -7 -36 -17 -47 -22 -23 -11
-75 -88 -75 -111 0 -9 -4 -18 -9 -21 -11 -7 -20 -54 -27 -142 -5 -68 -4 -73
22 -97 15 -14 24 -32 21 -39 -10 -28 58 -79 125 -94 92 -21 450 -30 530 -14
34 7 101 14 148 16 82 4 150 14 198 29 14 5 22 3 22 -4 0 -6 6 -11 14 -11 8 0
18 -5 21 -10 8 -13 -78 -50 -117 -50 -16 0 -64 -9 -106 -19 -58 -15 -88 -18
-122 -11 -25 4 -52 4 -61 0 -17 -9 -322 -14 -395 -6 -65 7 -216 36 -251 49
-18 6 -35 19 -38 28 -3 9 -12 20 -20 23 -8 3 -15 12 -15 20 0 8 -12 29 -27 47
-62 73 -69 163 -22 260 17 35 38 75 46 89 7 14 22 40 31 59 32 65 163 171 211
171 15 0 36 7 47 15 21 14 178 25 264 19 19 -2 87 -6 151 -9z m1178 -48 c26
-12 64 -26 85 -32 50 -13 55 -29 14 -41 -24 -7 -40 -7 -58 3 -14 7 -37 13 -51
13 -14 0 -40 7 -58 16 -39 19 -139 33 -243 34 -82 0 -105 11 -60 28 42 17 57
18 196 9 100 -6 140 -13 175 -30z m4111 11 c-1 -31 -56 -64 -90 -53 -19 6 -20
9 -9 20 18 18 70 45 87 45 6 0 12 -6 12 -12z m-17536 -33 c-9 -44 -11 -45 -60
-40 -24 3 -63 0 -87 -6 -23 -7 -62 -13 -87 -14 -59 -3 -126 -18 -172 -39 -21
-9 -50 -16 -66 -16 -16 0 -35 -7 -42 -15 -7 -8 -21 -15 -32 -15 -10 0 -44 -13
-76 -28 -50 -25 -72 -29 -129 -23 -31 3 -6 30 75 82 86 55 163 86 183 73 6 -3
18 1 27 9 24 20 79 37 121 37 21 0 41 4 47 9 10 11 88 17 217 16 l87 0 -6 -30z
m9893 13 c7 -5 17 -7 23 -3 5 3 10 4 10 1 0 -2 3 -11 6 -20 8 -21 -24 -21 -63
-2 -15 8 -36 17 -45 20 -10 3 -18 11 -18 17 0 13 68 3 87 -13z m3099 -4 c-11
-8 -46 -12 -89 -12 l-72 1 80 16 c84 18 109 16 81 -5z m3514 -23 c0 -17 -27
-31 -62 -31 -44 0 -46 5 -17 36 18 19 25 21 50 12 16 -5 29 -13 29 -17z
m-6985 -1 c100 -15 111 -25 118 -106 4 -37 13 -76 20 -88 8 -11 17 -38 21 -60
l7 -39 -92 8 c-85 6 -216 42 -243 67 -6 4 -22 8 -36 8 -44 0 -64 22 -58 61 8
48 -14 138 -37 156 -18 14 -7 15 105 9 69 -4 156 -11 195 -16z m-9315 2 c0
-16 -25 -32 -51 -32 -29 0 -44 13 -34 30 7 12 85 14 85 2z m3803 -3 c46 -8 83
-20 104 -35 17 -13 40 -24 50 -24 10 0 35 -11 55 -25 20 -14 42 -25 47 -25 6
0 11 -9 11 -20 0 -23 -5 -24 -46 -11 -16 5 -63 14 -104 21 -41 6 -91 18 -110
25 -19 8 -91 20 -160 29 -140 17 -240 11 -280 -17 -29 -20 -59 -22 -95 -5 -29
13 -29 30 1 34 10 1 37 8 59 14 48 14 136 27 270 38 55 5 106 10 113 11 7 0
46 -4 85 -10z m3551 3 c10 -16 -36 -92 -58 -97 -11 -2 -70 -6 -131 -9 -60 -3
-157 -12 -215 -21 -58 -8 -142 -20 -187 -25 -60 -8 -93 -17 -119 -35 -44 -30
-70 -31 -132 -6 -26 11 -65 22 -86 26 l-40 7 45 27 c24 15 69 34 99 41 30 7
72 19 93 26 20 8 49 14 63 14 13 0 42 9 63 20 29 14 66 20 151 24 61 2 114 7
117 10 9 9 332 6 337 -2z m2985 -46 c63 -9 119 -20 125 -25 6 -4 37 -11 70
-15 40 -4 77 -17 116 -40 31 -19 68 -37 81 -41 26 -8 57 -25 104 -55 17 -11
40 -24 52 -29 34 -15 35 -27 8 -68 -14 -21 -31 -46 -38 -57 -18 -27 -44 -51
-70 -63 -98 -45 -99 -45 -253 -44 -163 2 -170 2 -235 24 -24 8 -71 18 -104 22
-38 4 -71 15 -90 29 -16 13 -42 26 -57 30 -40 9 -35 27 17 64 38 27 45 37 45
66 0 22 -9 45 -25 64 -14 17 -25 35 -25 41 0 6 -7 11 -15 11 -8 0 -15 6 -15
14 0 8 -18 29 -40 46 -45 36 -45 51 3 44 17 -3 42 -2 54 3 26 9 126 2 292 -21z
m5431 19 c153 -10 251 -41 190 -60 -17 -5 -20 -15 -20 -69 0 -44 5 -67 15 -76
8 -7 15 -18 15 -25 0 -7 11 -20 25 -29 14 -9 25 -23 25 -31 0 -8 9 -19 21 -25
26 -14 17 -25 -24 -27 -95 -5 -191 -3 -201 5 -6 4 -24 9 -41 11 -16 2 -38 9
-49 17 -11 8 -38 14 -59 14 -33 0 -107 25 -107 36 0 2 11 19 24 39 35 51 40
85 22 155 -9 34 -14 65 -12 69 3 4 20 6 38 5 18 -2 80 -6 138 -9z m-14120 -10
c175 -21 191 -25 226 -50 17 -13 48 -27 70 -31 39 -7 39 -7 11 -15 -16 -4 -39
-4 -52 1 -13 5 -26 6 -29 3 -3 -4 -6 -1 -6 6 0 9 -18 11 -72 6 -40 -3 -125 -7
-188 -9 -63 -1 -124 -7 -135 -13 -12 -7 -48 -15 -82 -18 l-61 -7 -27 41 c-15
22 -32 41 -36 41 -20 0 -7 28 14 29 56 2 199 19 204 25 9 8 21 8 163 -9z
m5962 -8 c15 -12 13 -15 -17 -31 -19 -10 -36 -25 -39 -32 -6 -15 -63 -19 -84
-5 -11 6 -7 16 18 45 26 29 39 36 69 36 20 0 44 -6 53 -13z m755 7 l53 -6 0
-48 c0 -55 20 -99 65 -145 43 -42 31 -55 -53 -55 -35 0 -73 -5 -85 -12 -12 -6
-48 -11 -80 -10 -32 1 -67 -3 -78 -9 -11 -5 -80 -13 -154 -16 -133 -6 -154 -1
-122 26 21 16 12 93 -19 161 -15 33 -33 60 -40 60 -26 0 -14 20 14 22 15 1 36
2 47 3 29 2 65 15 65 24 0 10 317 14 387 5z m-7760 -18 c21 -7 58 -17 83 -20
25 -4 64 -16 87 -27 24 -10 48 -19 55 -19 7 0 32 -13 55 -28 34 -22 40 -31 32
-45 -6 -9 -7 -17 -3 -17 4 0 -1 -9 -12 -21 -10 -12 -19 -33 -20 -48 -3 -143
-1 -135 -42 -153 -31 -13 -47 -15 -83 -6 -24 5 -57 11 -74 13 -102 9 -153 20
-173 36 -13 10 -39 23 -59 29 -29 10 -34 15 -27 34 15 45 16 145 1 173 -8 16
-23 44 -32 63 -10 19 -22 38 -27 41 -19 12 203 8 239 -5z m8092 -20 c14 -8 36
-25 49 -38 l22 -25 -34 -35 c-48 -50 -83 -56 -119 -22 -28 26 -67 102 -67 129
0 27 90 21 149 -9z m5036 24 c3 -5 -1 -10 -9 -10 -8 0 -18 5 -21 10 -3 6 1 10
9 10 8 0 18 -4 21 -10z m190 0 c-3 -5 -12 -10 -20 -10 -8 0 -17 5 -20 10 -4 6
5 10 20 10 15 0 24 -4 20 -10z m-13735 -10 c13 -8 13 -10 -2 -10 -9 0 -20 5
-23 10 -8 13 5 13 25 0z m2669 0 c10 -5 45 -12 77 -15 117 -10 136 -24 97 -67
-20 -22 -46 -23 -78 -2 -19 12 -63 17 -202 21 -98 2 -202 4 -231 3 -33 -1 -52
3 -48 8 10 16 96 42 140 42 23 0 48 5 56 10 19 13 166 13 189 0z m12605 -12
c20 -29 20 -48 -1 -95 -25 -54 -43 -73 -70 -73 -46 0 -63 17 -63 63 0 24 -7
52 -15 63 -22 30 -18 40 23 51 66 19 109 16 126 -9z m1499 3 c4 -4 2 -22 -4
-40 -14 -40 -5 -128 15 -150 9 -9 22 -33 31 -54 15 -36 15 -37 -7 -41 -62 -13
-193 -12 -219 1 -16 8 -45 16 -66 19 -91 12 -90 11 -119 123 -8 29 -24 66 -35
82 l-20 29 23 9 c13 5 57 15 98 21 41 7 80 14 85 15 19 6 210 -6 218 -14z
m-2956 3 c-3 -3 -12 -4 -19 -1 -8 3 -5 6 6 6 11 1 17 -2 13 -5z m3461 -21 c15
-38 25 -136 17 -162 -11 -35 -22 -23 -27 30 -4 40 -12 57 -38 84 -33 34 -33
35 -15 55 25 28 51 25 63 -7z m-5108 13 c0 -3 -4 -8 -10 -11 -5 -3 -10 -1 -10
4 0 6 5 11 10 11 6 0 10 -2 10 -4z m2541 -82 c18 -36 38 -68 46 -71 36 -14 -7
-43 -73 -49 -24 -3 -55 -9 -69 -14 -15 -6 -42 -10 -61 -10 -36 0 -43 6 -112
84 -18 20 -44 41 -58 46 -29 12 -34 45 -4 35 10 -3 32 1 48 9 60 31 216 59
239 43 6 -4 26 -37 44 -73z m-5287 61 c11 -8 32 -15 48 -15 23 0 28 -4 28 -25
0 -14 11 -47 24 -74 28 -55 22 -71 -28 -71 -67 0 -102 31 -113 95 -16 103 -16
105 3 105 11 0 28 -7 38 -15z m3471 -6 c22 -6 54 -14 70 -18 28 -6 30 -10 27
-45 -4 -40 31 -143 55 -162 22 -18 4 -43 -41 -55 -44 -13 -347 -15 -403 -4
-31 7 -33 10 -33 50 0 65 -29 143 -62 166 -35 25 -35 30 0 48 50 26 312 40
387 20z m-8201 -25 c16 -8 41 -14 56 -14 15 0 33 -7 40 -15 7 -8 21 -15 31
-15 10 0 44 -13 76 -30 31 -16 62 -30 68 -30 6 0 26 -16 45 -35 18 -19 46 -37
61 -40 34 -8 53 -29 45 -51 -4 -11 -12 -14 -24 -9 -9 5 -37 14 -62 22 -46 15
-78 27 -140 56 -72 32 -168 59 -264 73 -54 9 -110 23 -124 32 -20 13 -55 17
-184 18 -99 1 -164 6 -170 12 -16 16 31 32 100 33 31 1 71 5 87 9 49 12 326 0
359 -16z m9333 9 c5 -15 -36 -28 -49 -15 -6 6 -7 15 -3 22 9 14 47 9 52 -7z
m2913 2 c10 -12 10 -25 1 -59 -17 -68 -14 -94 14 -118 26 -23 32 -38 15 -38
-5 0 -10 6 -10 14 0 8 -7 17 -16 20 -23 9 -52 86 -50 132 4 62 21 80 46 49z
m-15935 -26 c42 -37 45 -52 8 -43 -35 9 -78 48 -69 63 11 17 23 13 61 -20z
m-3819 11 c38 -5 95 -11 127 -13 34 -2 64 -10 75 -20 10 -10 35 -17 55 -17 38
0 126 -41 140 -65 10 -18 8 -18 -36 0 -19 8 -63 17 -98 20 -35 3 -138 15 -229
26 -181 22 -225 18 -284 -25 -28 -21 -97 -56 -137 -69 -15 -5 -36 -69 -30 -92
2 -5 5 -18 7 -29 5 -28 33 -66 48 -66 7 0 24 -16 37 -35 14 -20 38 -40 57 -46
18 -6 45 -22 59 -35 18 -17 38 -24 67 -24 23 -1 59 -8 81 -16 22 -9 60 -20 85
-24 25 -4 72 -15 105 -23 33 -9 72 -18 88 -21 15 -4 27 -11 27 -16 0 -22 -40
-28 -150 -21 -92 6 -122 12 -150 29 -19 12 -42 22 -50 22 -14 0 -75 27 -195
87 -27 14 -57 33 -65 43 -9 9 -26 22 -38 29 -12 6 -22 18 -22 26 0 7 -7 20
-15 29 -38 37 -57 153 -34 199 14 28 80 97 92 97 5 0 24 7 43 16 86 41 203 53
340 34z m10354 0 c0 -5 -8 -10 -17 -10 -15 0 -16 2 -3 10 19 12 20 12 20 0z
m4306 -20 c21 -8 30 -33 26 -71 -1 -3 12 -30 28 -60 16 -30 36 -69 44 -86 8
-18 22 -33 30 -33 9 0 23 -11 32 -24 8 -14 25 -26 36 -28 12 -2 23 -8 25 -15
4 -12 -62 -22 -204 -30 -145 -8 -168 -8 -303 1 -74 5 -144 9 -155 9 -11 0 -37
4 -57 9 -37 8 -38 10 -38 53 0 56 34 147 70 189 16 17 62 48 103 69 61 31 82
37 113 32 22 -3 59 -2 84 3 44 8 118 0 166 -18z m-12236 -15 c0 -19 4 -43 9
-53 5 -9 14 -29 21 -44 7 -15 30 -44 51 -65 44 -45 40 -61 -17 -69 -21 -3 -48
-10 -59 -15 -72 -33 -332 -79 -450 -79 -31 0 -36 3 -30 18 4 9 9 25 12 34 7
24 -27 107 -48 119 -11 5 -26 23 -34 39 l-15 30 77 36 c50 23 95 37 127 39 28
1 65 9 81 16 17 7 77 16 135 19 58 4 113 7 123 8 13 2 17 -6 17 -33z m203 21
c9 -7 17 -17 17 -22 0 -4 19 -27 42 -51 35 -35 39 -44 28 -57 -14 -18 -86 -40
-100 -31 -15 9 -50 81 -50 103 0 10 -5 23 -11 29 -33 33 34 59 74 29z m2044
-13 c5 -15 -33 -5 -47 12 -9 11 -6 12 16 6 15 -4 29 -12 31 -18z m353 17 c0
-5 -4 -10 -10 -10 -5 0 -10 5 -10 10 0 6 5 10 10 10 6 0 10 -4 10 -10z m14046
-30 c4 -21 15 -47 25 -56 11 -9 19 -28 19 -41 0 -18 -5 -23 -27 -23 -29 0 -63
25 -63 48 0 8 -11 27 -25 44 -14 16 -25 33 -25 37 0 11 41 30 67 30 19 1 24
-6 29 -39z m-13246 -16 c0 -8 -10 -14 -25 -14 -29 0 -33 15 -8 29 21 11 33 6
33 -15z m494 16 c48 -6 98 -17 109 -25 12 -8 32 -15 45 -15 13 0 54 -9 92 -21
l68 -20 0 -57 c0 -31 2 -73 4 -91 2 -29 -1 -37 -22 -47 -57 -28 -77 -34 -105
-32 -16 0 -56 -5 -88 -11 -66 -14 -184 0 -225 27 -21 13 -21 17 -8 37 28 43
11 93 -60 170 l-65 70 53 11 c70 15 96 16 202 4z m8887 -41 c28 -31 38 -54 43
-91 4 -27 4 -53 1 -57 -11 -19 -95 20 -95 44 0 18 -51 95 -63 95 -32 0 31 43
73 49 2 1 21 -18 41 -40z m1383 -29 c11 -47 26 -79 46 -102 43 -47 40 -62 -12
-54 -24 3 -70 6 -103 7 -33 1 -72 9 -86 17 -23 13 -25 19 -19 48 8 33 0 89
-15 113 -16 27 16 41 95 41 l77 0 17 -70z m2156 28 c0 -30 -1 -31 -16 -16 -9
9 -14 24 -11 32 11 27 27 17 27 -16z m1203 -19 c-16 -16 -47 -7 -51 15 -6 29
20 38 43 16 14 -14 16 -23 8 -31z m-2854 6 c18 -19 42 -37 52 -40 10 -4 19
-13 19 -22 0 -12 -9 -14 -52 -8 -63 9 -83 18 -114 54 -21 24 -22 27 -7 39 30
22 66 14 102 -23z m-825 10 c15 -12 17 -22 11 -60 -7 -52 0 -50 -95 -24 -42
11 -51 17 -67 46 -16 28 -7 34 66 43 31 4 58 8 61 8 3 1 13 -5 24 -13z
m-10835 -6 c47 -5 89 -13 95 -17 6 -4 33 -12 61 -17 46 -10 50 -13 56 -45 4
-19 13 -49 20 -67 15 -37 12 -42 -27 -47 -16 -2 -57 -14 -92 -25 -34 -12 -80
-23 -101 -24 -21 -1 -46 -8 -54 -16 -13 -10 -39 -11 -114 -6 -54 4 -105 11
-114 16 -9 4 -19 26 -23 48 -3 22 -16 51 -29 65 -12 13 -32 38 -45 55 -13 17
-30 31 -38 31 -33 0 -10 17 49 36 73 23 227 29 356 13z m3381 -19 c0 -35 -23
-50 -83 -54 -111 -9 -176 -16 -222 -26 -27 -6 -77 -15 -110 -21 -33 -5 -73
-15 -90 -20 -65 -23 -97 -27 -126 -17 -43 15 -31 30 36 45 32 7 63 17 69 22 6
5 29 12 51 16 22 3 69 13 105 20 148 33 238 49 288 51 29 1 56 4 59 8 14 14
23 4 23 -24z m1114 14 c3 -9 6 -29 6 -45 0 -38 24 -85 50 -99 31 -16 24 -40
-12 -47 -18 -4 -37 -6 -42 -5 -4 2 -13 -1 -20 -7 -19 -15 -118 -31 -186 -28
-36 1 -99 -2 -142 -7 -42 -5 -88 -6 -103 -2 -24 6 -27 11 -22 39 9 59 -37 121
-84 113 -25 -5 -49 8 -49 26 0 4 9 8 19 8 11 0 22 4 26 9 3 5 31 12 63 16 31
3 73 10 92 15 19 5 64 12 100 16 36 3 67 8 69 10 2 2 55 4 117 4 93 0 113 -3
118 -16z m-6173 -42 c35 -21 36 -24 29 -62 -4 -23 -9 -42 -11 -45 -2 -2 -37
-7 -78 -11 l-74 -7 6 56 c3 35 14 67 28 86 20 28 25 30 43 18 12 -7 37 -23 57
-35z m717 32 c23 -8 63 -14 87 -14 55 0 64 -14 31 -46 -38 -39 -50 -84 -37
-146 8 -34 8 -55 2 -61 -13 -13 -130 -15 -156 -3 -11 5 -42 8 -70 7 -27 -1
-81 5 -120 14 -38 9 -81 17 -95 18 -17 1 -24 7 -21 17 15 56 12 79 -18 120
-41 56 -40 78 2 84 178 27 330 31 395 10z m5692 -8 c5 -13 14 -27 19 -31 31
-18 -6 -75 -48 -75 -20 0 -33 10 -54 42 -15 23 -27 52 -27 65 0 21 4 23 50 23
44 0 52 -3 60 -24z m-8997 -7 c67 1 148 -2 180 -5 52 -6 58 -9 55 -28 -3 -19
-11 -22 -88 -27 -47 -3 -98 -11 -113 -17 -16 -7 -69 -12 -118 -12 -57 0 -103
-5 -126 -15 -56 -24 -93 -19 -136 19 -25 23 -34 37 -26 41 16 10 232 53 242
48 4 -2 62 -4 130 -4z m7814 0 l28 -12 -25 -7 c-26 -7 -54 6 -44 21 7 11 7 11
41 -2z m-1719 -23 c15 -7 47 -16 72 -20 121 -17 200 -36 240 -56 23 -12 53
-24 66 -26 38 -7 178 -71 182 -84 2 -6 -7 -22 -21 -36 -14 -14 -38 -57 -53
-95 -15 -39 -31 -72 -36 -75 -15 -10 -151 18 -188 37 -19 11 -44 19 -55 19
-11 0 -42 12 -70 25 -27 14 -56 25 -63 25 -7 0 -30 11 -52 25 -23 14 -54 28
-70 32 -17 3 -33 10 -36 14 -3 5 -16 9 -28 9 -30 0 -52 25 -39 43 6 6 13 32
17 56 6 39 4 47 -21 73 -23 24 -25 30 -13 38 23 15 137 12 168 -4z m4387 -20
c19 -18 43 -27 83 -31 31 -3 75 -13 97 -21 22 -8 110 -22 195 -31 118 -12 162
-21 183 -36 32 -22 31 -41 -4 -44 -13 -1 -53 -5 -89 -9 -36 -4 -92 -7 -125 -8
-86 -1 -274 23 -299 38 -11 8 -48 17 -80 21 -65 7 -136 39 -136 61 0 7 10 19
23 25 12 7 33 23 46 35 31 31 73 31 106 0z m2059 8 c3 -8 1 -24 -5 -36 -8 -15
-7 -24 5 -37 20 -22 19 -39 -4 -76 -11 -16 -27 -43 -36 -60 -20 -35 -71 -85
-88 -85 -6 0 -31 -14 -56 -30 -25 -16 -56 -30 -70 -30 -14 -1 -43 -8 -65 -16
-42 -17 -56 -18 -253 -27 -106 -5 -131 -3 -175 13 -29 10 -72 24 -97 30 -25 6
-52 14 -60 17 -8 3 -22 7 -30 8 -32 5 -168 54 -226 82 l-62 30 33 26 c19 15
41 27 50 27 15 0 23 -3 82 -34 17 -9 40 -16 50 -16 10 0 24 -5 29 -10 10 -10
43 -16 132 -25 49 -4 75 -11 119 -31 18 -8 63 -17 100 -19 37 -3 84 -7 103
-10 19 -3 87 -1 150 4 88 6 125 14 160 32 25 12 47 26 50 29 3 4 13 9 23 13
10 4 25 24 34 44 8 21 24 48 34 61 10 13 26 50 36 83 18 61 26 71 37 43z
m-13644 -14 c115 -12 190 -31 261 -67 26 -13 56 -23 67 -23 30 0 52 -10 52
-25 0 -7 -13 -29 -30 -49 -16 -21 -36 -62 -45 -93 l-16 -55 -57 5 c-100 9
-210 36 -249 60 -23 14 -63 27 -98 31 -66 8 -142 41 -159 69 -6 9 -16 17 -22
17 -20 0 -36 29 -30 53 6 24 48 49 103 61 17 4 37 14 44 22 9 10 23 14 43 10
17 -3 78 -10 136 -16z m468 4 c20 -6 14 -24 -9 -24 -25 0 -59 17 -59 31 0 8
28 6 68 -7z m6280 0 c33 -9 23 -35 -20 -50 -44 -15 -49 -11 -36 27 10 30 17
33 56 23z m11072 -26 c0 -12 -25 -9 -38 4 -20 20 -14 27 13 15 14 -7 25 -15
25 -19z m2190 -13 c0 -10 -10 -15 -26 -15 -22 0 -25 2 -14 15 7 8 19 15 26 15
8 0 14 -7 14 -15z m-15336 -54 c1 -34 6 -47 24 -59 33 -21 27 -32 -17 -32 -33
0 -43 5 -61 30 -12 17 -20 35 -18 40 6 19 53 69 62 66 6 -1 10 -22 10 -45z
m7721 29 c14 -22 -87 -58 -115 -41 -17 12 -17 12 40 33 55 19 67 21 75 8z
m5265 -10 c0 -5 -16 -10 -36 -10 -19 0 -44 -5 -55 -11 -11 -5 -37 -9 -57 -7
l-37 3 45 16 c51 19 140 24 140 9z m-8588 -17 c15 -14 15 -17 -2 -55 -10 -22
-25 -47 -34 -56 -14 -15 -18 -14 -43 6 -16 12 -37 27 -48 33 -11 6 -31 24 -44
41 -20 25 -22 32 -10 39 22 15 161 8 181 -8z m2054 -18 c-16 -14 -34 -25 -41
-25 -6 0 -38 -13 -70 -30 -32 -16 -65 -30 -72 -30 -8 0 -24 -7 -38 -16 -13 -8
-50 -18 -82 -21 -32 -3 -68 -12 -81 -20 -20 -12 -38 -13 -110 -4 -48 6 -107
13 -132 16 -71 8 -163 23 -190 31 -47 13 -53 45 -14 71 30 19 73 19 257 -3
120 -14 132 -14 170 2 29 11 72 17 138 18 57 1 102 6 110 13 14 11 56 17 144
21 l40 2 -29 -25z m-2373 -13 c6 -31 31 -59 102 -117 27 -22 57 -48 67 -58 19
-18 16 -37 -4 -37 -7 0 -32 -10 -56 -21 -24 -12 -65 -24 -90 -26 -26 -2 -56
-8 -67 -13 -23 -9 -85 -26 -130 -35 -48 -10 -248 -25 -254 -20 -3 3 0 15 7 25
18 29 15 51 -12 79 -13 15 -36 50 -51 79 -15 28 -31 52 -36 52 -5 0 -9 8 -9
18 0 19 45 47 60 37 4 -3 27 2 50 10 23 8 67 15 97 15 30 0 64 5 76 12 24 12
110 24 193 27 49 1 52 -1 57 -27z m9322 18 c3 -5 15 -10 25 -10 10 0 20 -5 22
-11 2 -6 42 -15 88 -20 47 -4 130 -15 185 -24 115 -17 254 -20 305 -5 47 14
87 12 135 -4 l40 -14 -27 -11 c-57 -22 -151 -31 -343 -32 -192 -2 -204 -1
-300 26 -55 15 -114 30 -132 33 -17 2 -39 13 -49 23 -9 10 -23 19 -30 19 -7 0
-16 5 -19 10 -12 19 6 30 50 30 24 0 47 -4 50 -10z m-1998 -16 c-3 -3 -12 -4
-19 -1 -8 3 -5 6 6 6 11 1 17 -2 13 -5z m-14566 -32 c5 -13 8 -26 7 -27 -2 -1
-12 -7 -24 -13 -16 -9 -22 -7 -32 9 -21 33 -15 57 14 57 18 0 28 -8 35 -26z
m1428 3 c23 -14 48 -25 54 -25 6 0 18 -6 26 -14 14 -12 89 -24 284 -43 64 -6
86 -22 35 -25 -18 -1 -53 -3 -78 -5 -64 -4 -329 27 -369 43 -18 8 -44 14 -57
14 -31 0 -30 15 3 51 34 35 46 36 102 4z m-1631 0 c6 -3 12 -18 12 -34 0 -16
6 -31 14 -34 23 -9 26 -57 5 -78 -11 -11 -23 -19 -29 -19 -5 0 -31 -14 -57
-30 -32 -20 -60 -30 -87 -30 -22 0 -47 -6 -55 -14 -14 -11 -85 -28 -171 -40
-14 -2 -43 -9 -65 -15 -33 -8 -68 -9 -105 -1 -15 3 46 40 66 40 12 0 26 5 29
11 4 5 12 8 18 6 41 -15 76 63 53 117 -7 17 -20 37 -29 45 -10 7 -17 22 -17
32 0 14 10 19 48 24 26 3 58 8 72 11 14 3 52 7 84 10 33 2 61 6 63 8 5 4 132
-4 151 -9z m17977 -15 c49 -10 251 -18 270 -11 24 8 126 0 120 -9 -3 -5 -17
-10 -30 -10 -13 0 -26 -4 -30 -9 -8 -14 -330 -6 -378 9 -20 6 -41 9 -46 6 -5
-3 -15 1 -22 10 -17 21 6 37 41 29 14 -3 48 -10 75 -15z m-3356 -11 c36 -13
40 -27 9 -33 -13 -3 -52 -10 -88 -17 -36 -7 -80 -19 -99 -26 -18 -8 -57 -13
-85 -12 -28 1 -64 -2 -79 -6 -15 -4 -80 -4 -143 0 -99 6 -115 9 -112 24 3 13
18 16 83 18 304 7 374 15 445 50 30 16 30 16 69 2z m-15409 -19 c0 -11 -5 -20
-10 -20 -6 0 -22 -12 -35 -26 -30 -32 -34 -12 -7 35 19 35 52 42 52 11z m2075
10 c10 -16 -30 -47 -70 -53 -21 -3 -48 -15 -60 -27 -12 -11 -34 -20 -50 -20
-16 0 -48 -10 -73 -21 -24 -12 -66 -22 -95 -23 -29 -1 -80 -8 -114 -16 -50
-11 -90 -12 -205 -3 -123 9 -146 8 -166 -5 -18 -12 -26 -12 -35 -3 -9 10 -5
19 21 42 29 26 39 29 100 28 37 0 98 -4 137 -8 50 -5 83 -4 115 6 25 8 72 14
105 14 33 0 74 7 90 15 17 7 57 18 90 23 61 10 157 40 171 54 10 10 32 9 39
-3z m13795 -19 c41 -4 84 -12 95 -19 21 -11 274 -32 335 -26 19 1 69 8 110 15
41 6 91 11 110 11 19 -1 54 -1 77 -2 23 0 44 -4 47 -8 10 -16 -66 -64 -107
-69 -23 -2 -58 -11 -77 -18 -37 -14 -140 -26 -255 -29 -104 -3 -290 32 -326
60 -8 7 -24 15 -36 18 -11 4 -27 13 -33 21 -7 8 -20 15 -30 15 -22 0 -44 25
-35 40 4 7 16 9 29 5 11 -4 55 -10 96 -14z m-1200 -6 c0 -19 -27 -19 -60 0
-25 14 -24 14 18 15 31 0 42 -4 42 -15z m-9435 -12 c19 -9 35 -20 35 -25 0
-16 -82 -48 -152 -59 -40 -6 -87 -18 -104 -26 -20 -9 -77 -16 -165 -20 -74 -3
-152 -6 -173 -7 -21 -1 -74 2 -116 5 -172 15 -217 28 -152 44 15 3 35 14 45
23 24 21 43 22 172 8 110 -12 199 -8 283 13 23 6 59 15 80 19 21 5 45 13 53
18 13 8 79 19 136 23 12 0 38 -7 58 -16z m2146 -78 c-1 -38 -4 -72 -7 -74 -11
-12 -95 -17 -104 -6 -12 14 29 104 61 134 41 38 53 25 50 -54z m1305 29 c-3
-8 -13 -14 -21 -14 -12 0 -15 6 -9 23 4 12 12 25 18 29 13 8 21 -16 12 -38z
m-2204 9 c9 -8 22 -16 30 -17 36 -7 75 -20 98 -31 14 -7 45 -22 70 -33 25 -11
74 -34 110 -50 36 -16 83 -35 105 -42 36 -11 61 -16 178 -36 20 -3 40 -10 43
-15 3 -5 22 -9 43 -9 31 0 40 -4 44 -21 5 -19 3 -21 -31 -14 -20 3 -80 10
-132 14 -52 5 -108 13 -125 19 -101 36 -156 52 -183 52 -17 0 -37 6 -44 14
-17 17 -73 46 -88 46 -16 0 -238 109 -245 120 -19 30 94 33 127 3z m-3026 1
c26 -9 62 -14 80 -11 18 3 44 -1 60 -10 17 -8 54 -14 89 -14 33 0 82 -7 108
-15 41 -14 63 -14 145 -5 97 11 156 11 167 0 12 -13 -23 -27 -80 -33 -33 -3
-90 -14 -128 -25 -37 -10 -69 -16 -71 -12 -3 3 -69 8 -148 9 -78 2 -161 7
-183 12 -22 5 -66 10 -99 10 -64 0 -132 16 -157 37 -8 7 -21 13 -28 13 -7 0
-9 5 -6 10 3 6 16 10 28 10 12 0 38 8 57 19 44 24 106 25 166 5z m2117 -10 c4
-8 25 -15 45 -15 20 -1 51 -5 67 -10 21 -6 13 -7 -30 -3 -61 5 -145 32 -145
48 0 13 54 -4 63 -20z m3727 6 c-8 -5 -31 -10 -50 -10 -34 0 -99 -14 -130 -28
-8 -3 -42 -7 -75 -9 -33 -1 -89 -5 -125 -8 -82 -8 -111 1 -99 32 8 21 11 22
164 19 86 -2 171 0 188 4 49 12 145 12 127 0z m-3230 -19 c-18 -10 -100 -23
-100 -16 0 7 61 23 90 24 19 0 21 -2 10 -8z m-150 -21 c0 -5 -9 -10 -20 -10
-11 0 -20 5 -20 10 0 6 9 10 20 10 11 0 20 -4 20 -10z m-4985 -90 c-3 -5 -13
-10 -21 -10 -8 0 -12 5 -9 10 3 6 13 10 21 10 8 0 12 -4 9 -10z m6715 -20 c0
-16 -7 -20 -31 -20 l-31 0 23 20 c31 25 39 25 39 0z m-7893 -6 c-3 -3 -12 -4
-19 -1 -8 3 -5 6 6 6 11 1 17 -2 13 -5z m1109 -23 c-4 -6 -15 -11 -25 -11 -10
0 -30 -9 -44 -20 -14 -11 -34 -20 -45 -20 -10 0 -27 -9 -37 -20 -10 -11 -24
-20 -31 -20 -13 0 -25 -5 -125 -48 -25 -11 -88 -28 -140 -37 -81 -14 -111 -14
-219 -4 -86 8 -135 18 -158 30 -18 11 -39 19 -46 19 -16 0 -74 28 -80 39 -3 4
32 14 77 21 71 11 87 11 112 -2 69 -35 238 -38 375 -8 47 10 103 22 125 25 55
9 132 33 180 55 22 11 47 21 55 23 19 6 34 -8 26 -22z m-1153 12 c-7 -2 -19
-2 -25 0 -7 3 -2 5 12 5 14 0 19 -2 13 -5z m7731 -59 c24 -9 19 -19 -16 -31
-36 -13 -99 -4 -105 14 -3 7 12 13 39 16 24 2 48 4 55 5 6 1 18 -1 27 -4z"/>
<path d="M22532 814 c-28 -19 -28 -32 1 -67 l22 -27 197 -5 c214 -5 221 -3
234 51 9 34 -8 49 -51 46 -19 -2 -50 -3 -67 -4 -50 -1 -301 12 -308 17 -4 2
-16 -3 -28 -11z"/>
<path d="M30215 752 c-2 -3 -2 -9 1 -13 7 -12 64 -12 64 0 0 9 -57 21 -65 13z"/>
<path d="M30300 749 c0 -11 46 -23 59 -14 21 12 11 21 -24 22 -19 1 -35 -3
-35 -8z"/>
<path d="M30428 753 c6 -2 18 -2 25 0 6 3 1 5 -13 5 -14 0 -19 -2 -12 -5z"/>
<path d="M29720 700 c0 -5 5 -10 10 -10 6 0 10 5 10 10 0 6 -4 10 -10 10 -5 0
-10 -4 -10 -10z"/>
<path d="M22983 379 c-28 -10 -45 -43 -41 -77 3 -24 8 -27 44 -30 56 -4 71 15
55 67 -12 43 -26 52 -58 40z"/>
<path d="M10428 363 c7 -3 16 -2 19 1 4 3 -2 6 -13 5 -11 0 -14 -3 -6 -6z"/>
<path d="M4510 270 c-8 -16 -8 -24 4 -35 19 -20 32 -19 16 0 -10 12 -10 18 -1
29 8 9 8 16 2 20 -6 4 -15 -3 -21 -14z"/>
<path d="M4416 244 c-4 -11 -1 -14 11 -12 9 2 18 9 21 16 6 18 -25 15 -32 -4z"/>
</g>
</svg>
