<?xml version="1.0" standalone="no"?>
<!DOCTYPE svg PUBLIC "-//W3C//DTD SVG 20010904//EN"
 "http://www.w3.org/TR/2001/REC-SVG-20010904/DTD/svg10.dtd">
<svg version="1.0" xmlns="http://www.w3.org/2000/svg"
 width="43200.000000pt" height="8416.122841pt" viewBox="0 0 43200.000000 8416.122841"
 preserveAspectRatio="xMidYMid meet">
<metadata>
Created by potrace 1.11, written by Peter Selinger 2001-2013
</metadata>
<g transform="translate(0.000000,8416.122841) scale(1.381958,-1.381958)"
fill="#000000" stroke="none">
<path d="M22925 5788 c-27 -5 -100 -14 -160 -22 -61 -7 -120 -18 -132 -24 -12
-7 -42 -12 -67 -12 -26 0 -60 -8 -80 -19 -19 -11 -36 -18 -39 -15 -2 2 -39
-10 -83 -28 -70 -28 -103 -43 -179 -85 -11 -6 -62 -32 -114 -58 -52 -25 -111
-60 -132 -76 -20 -16 -40 -29 -44 -29 -4 0 -17 -10 -29 -23 -12 -13 -29 -26
-38 -30 -10 -3 -34 -31 -54 -61 -20 -31 -40 -53 -45 -51 -4 3 -10 -4 -14 -15
-4 -11 -19 -27 -35 -35 -16 -8 -31 -24 -35 -35 -3 -11 -19 -28 -34 -39 -15
-11 -50 -41 -78 -68 -29 -26 -82 -68 -118 -93 -71 -49 -242 -172 -262 -189 -7
-6 -18 -11 -26 -11 -7 0 -33 -18 -57 -40 -24 -22 -50 -40 -57 -40 -8 0 -28
-13 -46 -30 -18 -16 -40 -30 -49 -30 -10 0 -22 -8 -27 -19 -6 -10 -22 -22 -35
-25 -14 -3 -47 -20 -73 -36 -26 -16 -77 -44 -113 -60 -36 -17 -72 -35 -80 -40
-8 -6 -22 -13 -30 -16 -8 -3 -29 -12 -47 -20 -17 -8 -41 -14 -52 -14 -12 0
-29 -4 -39 -9 -18 -11 -107 -26 -132 -24 -13 2 -70 -15 -125 -37 -44 -18 -63
-22 -145 -31 -47 -6 -101 -12 -120 -14 -19 -3 -55 -8 -80 -13 -25 -4 -94 -5
-155 -2 -106 7 -213 -4 -226 -22 -3 -4 -42 -9 -86 -11 -47 -2 -88 -9 -97 -16
-11 -9 -28 -11 -53 -6 -21 3 -68 9 -105 12 l-66 5 -7 -66 c-7 -64 -8 -66 -39
-72 -18 -3 -59 -1 -92 5 -32 5 -172 13 -309 17 -214 5 -257 4 -297 -9 -25 -9
-73 -18 -105 -21 -33 -2 -78 -9 -99 -15 -21 -5 -58 -12 -81 -14 -23 -2 -48 -9
-56 -16 -8 -6 -41 -12 -74 -11 -204 1 -382 -13 -395 -33 -3 -6 -37 -12 -73
-13 -37 -2 -81 -8 -99 -13 -17 -6 -67 -17 -111 -25 -44 -8 -107 -21 -140 -29
-33 -8 -69 -15 -80 -15 -20 -1 -89 -14 -180 -34 -27 -7 -81 -13 -120 -14 -109
-4 -216 -13 -260 -23 -96 -23 -164 -33 -174 -27 -6 4 -21 1 -33 -5 -30 -16
-115 -31 -203 -35 -215 -10 -292 -8 -355 9 -36 9 -80 18 -99 19 -21 2 -46 14
-70 35 -20 18 -41 37 -48 42 -7 6 -10 24 -7 43 9 59 -18 103 -83 134 -32 16
-64 34 -71 41 -6 6 -21 15 -32 18 -11 3 -20 10 -20 15 0 14 -88 52 -102 44
-22 -14 -102 -3 -150 21 -27 13 -55 22 -63 18 -9 -3 -23 2 -33 10 -24 22 -207
24 -241 2 -6 -3 -33 -8 -60 -9 -27 -2 -55 -7 -62 -11 -7 -5 -24 -10 -38 -11
-33 -3 -108 -31 -135 -49 -11 -8 -41 -15 -66 -15 -25 0 -51 -5 -56 -10 -6 -6
-21 -12 -34 -15 -13 -2 -34 -15 -48 -27 -28 -27 -142 -257 -142 -288 0 -32
-27 -78 -50 -85 -11 -3 -20 -13 -20 -22 0 -9 -6 -13 -14 -10 -8 3 -20 -1 -26
-8 -7 -8 -22 -15 -34 -14 -54 0 -167 -9 -231 -19 -38 -6 -83 -11 -100 -10 -43
2 -275 -31 -306 -43 -14 -6 -55 -9 -90 -8 -66 2 -140 -3 -339 -23 -113 -11
-353 -14 -741 -8 -107 2 -201 0 -208 -5 -8 -4 -45 -8 -85 -9 -39 0 -75 -3 -81
-6 -18 -10 -590 1 -790 15 -120 9 -195 9 -462 0 -78 -2 -155 0 -172 5 -18 5
-59 5 -98 -1 -154 -22 -412 -33 -429 -18 -7 5 -34 9 -60 8 -85 -4 -256 11
-301 26 -25 9 -80 15 -128 15 -82 0 -161 13 -198 32 -10 5 -47 11 -81 12 -35
2 -81 12 -102 21 -22 10 -52 23 -69 30 -16 8 -33 11 -38 8 -5 -3 -12 -1 -16 6
-4 6 -49 13 -101 16 -69 4 -108 12 -145 29 -33 15 -77 25 -128 29 -55 4 -85
11 -98 23 -11 9 -22 14 -25 11 -4 -3 -16 0 -28 8 -11 8 -29 15 -40 15 -11 0
-27 7 -37 16 -9 8 -36 17 -60 19 -24 2 -71 14 -104 26 -33 11 -98 31 -145 44
-90 24 -130 39 -170 65 -14 9 -45 22 -69 29 -25 7 -61 21 -80 32 -20 10 -43
19 -53 19 -9 0 -23 6 -30 14 -8 7 -27 16 -43 19 -17 3 -70 20 -119 37 -48 17
-95 29 -103 26 -8 -3 -40 8 -71 26 -85 47 -277 107 -359 112 -13 0 -23 4 -23
7 0 9 -76 18 -170 21 -121 3 -268 -19 -321 -49 -18 -10 -64 -35 -102 -55 -39
-21 -80 -44 -93 -53 -13 -8 -29 -13 -36 -10 -8 3 -19 -9 -28 -27 -8 -18 -24
-35 -35 -38 -11 -3 -37 -17 -56 -32 -20 -16 -43 -28 -52 -28 -10 0 -17 -4 -17
-8 0 -5 -16 -14 -35 -22 -31 -12 -35 -18 -35 -50 0 -68 13 -76 139 -74 61 1
114 -3 117 -7 3 -5 19 -9 35 -9 16 0 40 -7 53 -15 12 -8 58 -20 102 -25 81
-10 103 -17 189 -55 55 -25 161 -55 215 -62 19 -2 45 -9 57 -15 13 -6 26 -8
30 -5 3 4 13 1 22 -7 9 -8 58 -22 110 -30 52 -9 100 -21 106 -26 6 -5 42 -14
80 -20 39 -7 77 -13 85 -15 8 -2 18 -4 23 -4 4 -1 7 -5 7 -10 0 -13 -39 -21
-47 -9 -4 7 -12 4 -21 -8 -8 -11 -16 -14 -18 -8 -3 8 -20 7 -57 -3 -29 -7 -74
-13 -102 -13 -97 2 -223 -8 -243 -19 -11 -6 -22 -8 -25 -4 -4 3 -12 1 -19 -4
-17 -14 -141 -39 -259 -54 -80 -9 -105 -9 -155 4 -38 10 -65 12 -76 6 -22 -12
-162 -4 -262 15 -52 10 -85 12 -97 5 -29 -15 -159 -12 -159 4 0 17 -54 34
-137 43 -60 6 -63 5 -63 -15 0 -25 -17 -27 -40 -6 -12 11 -49 17 -126 21 -59
3 -112 8 -116 11 -5 2 -16 -1 -24 -8 -13 -10 -17 -10 -24 0 -4 8 -13 10 -20 6
-7 -4 -35 -9 -64 -11 -85 -6 -176 -14 -283 -25 -71 -8 -107 -8 -121 0 -11 6
-22 8 -25 5 -2 -3 -47 -11 -98 -19 -67 -10 -97 -11 -106 -3 -9 7 -17 7 -27 -1
-7 -6 -38 -10 -68 -10 -31 1 -62 -2 -69 -7 -8 -5 -39 -10 -69 -10 -30 -1 -88
-5 -127 -9 -64 -6 -73 -4 -73 10 0 14 -2 14 -14 3 -11 -11 -31 -13 -91 -7 -58
6 -89 4 -120 -6 -23 -8 -77 -15 -121 -16 -43 -1 -90 -7 -104 -14 -42 -21 -220
-49 -310 -50 -47 0 -114 -8 -150 -17 -133 -35 -240 -58 -265 -58 -15 0 -35 -4
-45 -10 -10 -5 -51 -12 -90 -15 -39 -2 -86 -7 -103 -10 -18 -3 -61 -8 -97 -10
-148 -9 -233 -21 -316 -46 -17 -5 -43 -9 -58 -9 -16 0 -54 -7 -85 -14 -31 -8
-74 -17 -96 -20 -22 -3 -58 -10 -79 -15 -22 -5 -52 -7 -68 -4 -16 3 -34 0 -43
-7 -8 -6 -20 -10 -27 -7 -7 2 -25 -2 -40 -9 -15 -8 -65 -26 -110 -40 -46 -15
-90 -33 -99 -40 -8 -8 -20 -14 -25 -14 -5 0 -22 -7 -37 -15 -15 -8 -45 -17
-65 -21 -48 -9 -68 -19 -117 -61 -55 -46 -63 -53 -70 -53 -3 0 -18 -8 -32 -17
-15 -10 -31 -18 -37 -19 -6 0 -17 -2 -23 -2 -7 -1 -13 -9 -13 -17 0 -8 -17
-25 -37 -39 -21 -13 -51 -41 -68 -62 -16 -22 -48 -57 -71 -79 -22 -22 -58 -66
-78 -97 -40 -61 -88 -108 -112 -108 -8 0 -14 -9 -14 -20 0 -11 -7 -23 -15 -26
-8 -4 -15 -10 -15 -15 0 -19 -92 -149 -106 -149 -22 0 -36 -38 -29 -79 4 -24
1 -47 -9 -66 -9 -17 -16 -40 -16 -52 0 -13 -4 -23 -9 -23 -5 0 -12 -14 -16
-30 -4 -17 -10 -30 -14 -30 -9 0 -33 -55 -48 -110 -15 -52 -40 -137 -61 -205
-15 -50 -16 -73 -8 -139 7 -68 6 -84 -9 -112 -11 -22 -17 -53 -16 -95 1 -89
20 -220 35 -244 7 -11 16 -42 21 -70 4 -27 10 -52 14 -55 4 -3 21 -25 38 -50
26 -39 128 -145 193 -202 10 -10 44 -24 75 -33 30 -9 61 -22 67 -28 28 -26
153 -72 169 -62 5 4 9 1 9 -4 0 -7 27 -11 69 -11 39 0 72 -4 75 -9 9 -14 114
-20 149 -9 17 6 61 14 97 18 144 16 257 32 295 43 22 6 45 12 52 12 6 0 24 13
40 28 55 53 86 77 94 71 8 -5 74 10 114 26 11 5 32 11 47 14 29 7 78 49 97 84
9 16 9 26 0 40 -13 21 -89 65 -89 51 0 -5 -8 -9 -18 -9 -10 0 -22 -3 -26 -7
-11 -11 -98 -2 -129 13 -15 8 -36 14 -45 13 -21 -3 -155 8 -247 21 -38 5 -96
12 -128 15 -32 2 -63 8 -70 12 -6 4 -25 8 -42 10 -27 3 -83 19 -157 46 -16 5
-28 13 -28 18 0 5 -15 15 -32 22 -18 8 -71 52 -117 98 -109 109 -131 158 -126
281 3 77 15 124 35 138 4 3 20 29 35 57 15 29 38 63 51 75 14 13 34 41 46 63
11 22 40 70 64 106 24 37 44 70 44 74 0 3 7 13 15 21 8 9 15 30 15 49 0 26 5
35 28 43 57 22 69 23 76 6 5 -13 9 -15 18 -6 21 21 40 13 80 -33 22 -25 46
-45 54 -45 8 0 14 -5 14 -10 0 -6 8 -14 17 -18 27 -11 102 -66 103 -75 0 -4
10 -23 23 -42 25 -39 59 -53 130 -53 62 0 147 -12 147 -21 0 -4 8 -7 18 -8 38
-4 184 -42 214 -57 17 -9 37 -16 45 -16 7 0 46 -12 86 -26 45 -16 103 -28 157
-31 47 -3 90 -9 95 -13 6 -5 31 -11 57 -15 27 -4 48 -11 48 -15 0 -5 22 -16
49 -25 27 -9 55 -23 61 -31 7 -7 17 -14 21 -14 24 0 189 -129 189 -147 0 -5 9
-18 21 -29 18 -16 42 -20 158 -24 79 -3 144 -10 152 -16 8 -6 32 -15 54 -19
21 -3 52 -13 68 -21 45 -24 205 -28 372 -9 145 15 190 21 190 25 0 3 141 29
183 34 41 5 116 22 209 47 39 10 87 19 106 19 72 0 136 46 123 88 -8 24 -64
65 -116 85 -45 17 -169 38 -181 31 -15 -9 -229 -11 -235 -3 -3 5 -83 10 -177
10 -95 1 -183 1 -197 1 -14 1 -65 0 -115 0 -49 -1 -106 0 -125 3 -193 30 -259
60 -386 180 -23 22 -68 53 -98 69 -31 16 -56 33 -56 38 0 5 -4 7 -8 4 -8 -5
-28 3 -128 49 -29 13 -60 21 -71 19 -10 -3 -28 3 -41 14 -12 10 -56 27 -99 37
-43 10 -90 24 -105 31 -15 8 -47 14 -72 14 -25 0 -48 5 -51 10 -4 6 -15 8 -25
5 -10 -3 -21 -1 -25 5 -4 6 -13 9 -21 6 -7 -3 -16 -1 -19 4 -3 5 -47 7 -103 3
-145 -9 -142 -10 -262 13 -88 16 -179 62 -180 91 -1 16 -46 59 -77 72 -33 13
-43 34 -43 92 0 27 12 55 46 105 26 38 54 77 63 88 26 30 172 94 241 105 34 6
73 17 86 26 13 8 28 15 35 15 6 0 34 11 62 25 28 14 93 37 146 51 53 14 103
30 112 35 9 4 18 6 21 4 2 -3 31 0 64 5 32 5 82 11 109 14 141 13 240 28 253
38 8 7 28 13 45 14 18 1 43 6 57 12 31 14 270 62 302 61 13 0 41 2 63 5 22 2
78 7 125 11 47 3 100 11 117 16 18 6 104 9 195 7 90 -1 197 1 238 5 47 5 105
4 157 -3 58 -9 96 -9 135 -1 29 5 100 13 158 16 118 7 187 11 308 20 57 4 82
3 82 -5 0 -7 14 -9 40 -5 21 3 52 8 67 10 15 2 38 7 50 10 47 11 60 13 143 19
47 4 130 2 185 -5 55 -6 123 -10 151 -9 30 0 57 -4 65 -12 14 -13 28 -16 89
-19 38 -1 144 8 169 15 9 3 72 7 141 11 69 3 146 8 173 11 31 4 47 2 47 -5 0
-7 8 -6 23 3 16 11 32 13 61 6 22 -5 44 -6 50 -2 6 3 73 12 151 19 77 7 167
17 200 22 205 32 270 40 350 45 50 3 128 10 175 17 47 6 108 13 135 15 57 4
111 10 210 21 85 10 401 10 411 0 12 -11 -16 -35 -73 -63 -61 -30 -108 -42
-203 -50 -36 -3 -69 -9 -75 -14 -5 -4 -39 -10 -74 -14 -35 -3 -69 -10 -75 -14
-22 -17 -124 -43 -162 -41 -21 1 -68 -1 -104 -5 -36 -3 -103 -8 -150 -11 -109
-7 -147 -14 -161 -31 -6 -8 -22 -14 -36 -14 -13 0 -26 -7 -30 -16 -4 -11 -14
-14 -34 -10 -17 3 -32 0 -39 -9 -7 -8 -17 -15 -23 -15 -9 0 -80 -31 -122 -53
-88 -47 -117 -67 -168 -116 -31 -31 -60 -64 -63 -73 -3 -10 -13 -18 -23 -18
-20 0 -71 -43 -71 -59 0 -6 -15 -18 -32 -27 -18 -9 -37 -23 -41 -30 -4 -8 -14
-14 -21 -14 -7 0 -21 -9 -31 -20 -10 -11 -23 -20 -30 -20 -13 0 -135 -133
-135 -148 0 -5 -11 -14 -24 -20 -30 -13 -44 -69 -26 -102 9 -17 17 -20 37 -15
14 3 31 1 40 -6 12 -10 20 -7 44 17 61 60 75 73 109 96 49 33 114 81 121 91 3
4 10 7 15 5 12 -3 103 50 131 77 12 12 39 30 60 41 21 10 40 22 41 26 2 5 9 8
16 8 7 0 26 7 43 15 23 12 63 14 189 11 87 -2 164 -4 169 -6 6 -1 12 -1 15 0
3 1 41 4 85 6 116 6 167 10 195 18 14 4 54 10 90 15 36 5 99 18 139 29 41 12
79 18 83 16 4 -3 11 2 14 10 4 10 18 16 35 16 16 0 29 5 29 10 0 6 7 10 15 10
9 0 26 7 38 15 12 8 31 14 42 13 29 0 120 33 190 70 22 11 76 39 120 60 74 37
180 108 229 153 11 11 25 19 32 19 7 0 22 14 34 30 21 30 53 39 65 20 4 -7 14
-6 28 1 11 7 37 13 57 14 19 2 64 9 100 18 75 18 213 35 320 41 41 2 111 9
155 14 106 14 288 14 297 -1 4 -7 87 -11 250 -13 226 -2 351 -9 367 -19 11 -6
162 15 182 25 10 6 20 6 23 1 3 -5 96 -8 211 -6 119 2 207 -1 211 -6 3 -5 10
-7 15 -3 5 3 25 0 45 -6 20 -7 42 -8 52 -4 9 5 53 9 97 10 44 0 152 4 240 9
240 12 397 11 434 -5 24 -10 61 -11 144 -6 172 11 407 15 407 7 0 -4 26 -7 58
-6 31 1 69 -2 83 -6 23 -6 129 -1 319 15 69 6 242 10 255 5 9 -2 34 0 167 16
15 2 31 6 37 9 5 4 30 1 55 -6 34 -9 51 -9 70 0 19 8 27 8 35 -2 16 -19 397
-41 408 -23 3 5 9 3 13 -4 9 -13 38 -13 306 -3 l150 6 32 -36 c37 -42 37 -41
18 -109 -8 -29 -18 -70 -21 -92 -3 -21 -11 -46 -18 -55 -28 -34 -57 -125 -57
-181 0 -19 -4 -40 -9 -48 -14 -22 33 -138 90 -219 18 -25 14 -71 -7 -79 -18
-7 -18 -47 1 -83 18 -34 52 -39 97 -16 30 16 37 11 71 -52 10 -18 38 -54 63
-79 24 -26 44 -51 44 -55 0 -7 72 -81 126 -130 56 -51 104 -115 104 -139 0
-10 -12 -24 -27 -31 -69 -34 -87 -165 -35 -256 15 -26 34 -60 42 -77 8 -16 20
-38 28 -47 10 -12 11 -21 3 -37 -9 -15 -7 -31 8 -69 11 -27 17 -58 15 -69 -4
-14 10 -32 50 -69 31 -27 56 -54 56 -60 0 -6 11 -22 23 -35 13 -13 27 -36 30
-50 4 -15 20 -40 35 -55 61 -61 102 -94 117 -94 8 0 15 -6 15 -13 0 -8 18 -30
40 -50 37 -35 59 -44 73 -31 12 12 81 14 94 2 9 -7 17 -7 28 2 8 7 47 15 87
18 59 4 83 12 142 45 76 42 110 71 120 104 9 30 109 133 128 133 17 0 68 54
68 71 0 5 9 19 20 31 11 12 20 30 20 40 0 17 29 88 40 98 4 3 19 32 35 65 39
81 47 186 17 218 -17 19 -19 29 -13 69 4 27 14 56 22 65 8 10 22 34 32 53 22
44 81 86 136 99 23 5 52 16 66 25 13 9 39 16 58 16 38 0 68 24 137 110 24 30
65 76 92 103 107 103 128 248 70 468 -5 21 -6 43 -1 50 4 8 3 19 -3 27 -12 14
-19 382 -7 382 3 0 11 11 17 25 8 17 20 25 38 25 16 0 28 6 31 18 4 17 105 73
132 72 7 0 36 12 65 27 76 39 78 40 124 48 23 4 42 11 42 16 0 5 11 9 24 9 13
0 40 7 60 15 20 8 36 13 36 10 0 -3 20 6 45 20 25 14 54 25 63 25 10 0 22 4
27 8 6 5 30 14 55 21 25 8 69 22 97 33 29 11 60 18 68 14 8 -3 28 -1 43 5 15
6 59 17 97 24 39 8 88 19 110 25 66 18 196 38 214 33 10 -2 43 3 73 12 31 9
60 15 64 14 24 -6 173 15 199 29 45 23 139 42 146 30 6 -10 75 4 110 22 17 9
109 25 122 22 19 -5 251 40 318 62 41 13 110 34 154 46 95 25 243 41 248 25 2
-6 18 -3 40 7 23 11 48 15 67 12 17 -4 49 -1 73 5 23 6 98 14 167 16 156 6
236 13 297 26 27 5 68 9 92 9 43 -1 132 15 161 29 8 4 34 4 59 -1 25 -4 53 -6
62 -3 10 3 82 8 161 10 79 2 146 4 151 4 4 1 7 8 7 16 0 21 17 19 22 -3 5 -17
24 -18 287 -20 155 -1 287 -4 293 -8 14 -9 59 -14 121 -14 26 0 62 -6 80 -14
39 -17 116 -29 177 -27 43 1 195 -17 323 -38 53 -9 208 -76 215 -93 2 -4 15
-5 28 -2 15 4 41 -2 69 -15 25 -12 49 -21 55 -21 12 0 58 -28 78 -47 8 -7 18
-10 24 -7 5 4 20 2 31 -4 12 -5 53 -24 92 -43 38 -18 75 -32 82 -32 7 0 14 -6
17 -14 3 -7 14 -13 24 -13 11 0 31 -9 45 -20 13 -11 56 -36 93 -56 38 -19 74
-41 79 -48 6 -6 26 -18 45 -26 19 -7 42 -19 51 -27 8 -7 23 -13 32 -13 18 0
48 -15 78 -39 10 -8 37 -21 60 -29 23 -7 65 -31 93 -51 28 -21 65 -45 81 -53
17 -9 39 -25 49 -37 11 -12 31 -21 48 -21 16 0 49 -9 74 -20 25 -12 53 -18 63
-15 11 3 35 -8 64 -30 34 -26 56 -35 85 -35 24 0 45 -6 53 -16 8 -10 23 -14
41 -12 15 3 28 1 28 -3 0 -5 15 -15 34 -24 19 -9 37 -23 40 -30 2 -7 22 -21
42 -31 35 -17 70 -19 189 -14 44 3 85 -3 102 -13 5 -3 25 -8 42 -9 18 -1 35
-6 37 -10 7 -12 73 -38 94 -38 10 0 23 -7 30 -15 8 -10 9 -15 2 -15 -19 0 -60
-70 -55 -91 3 -10 15 -21 27 -24 88 -20 111 -22 130 -15 11 5 78 18 148 30 70
11 149 27 175 35 26 8 50 14 53 13 3 -1 15 4 28 11 24 13 103 22 212 25 36 1
75 7 86 13 12 7 24 10 27 7 3 -3 14 -1 24 4 10 6 46 7 87 3 38 -4 94 -4 125 0
31 5 148 11 261 15 195 6 225 7 260 1 34 -4 211 16 295 34 50 11 113 22 140
25 28 3 54 9 60 15 20 19 73 9 122 -25 56 -38 117 -52 150 -33 12 7 33 27 46
45 22 29 24 37 15 80 -6 26 -15 53 -20 59 -10 12 9 44 57 100 26 31 33 41 44
60 6 12 11 38 11 57 0 20 4 36 9 36 5 0 11 8 14 18 4 9 13 35 22 57 16 43 17
102 2 123 -15 20 -78 14 -148 -14 -57 -23 -165 -53 -196 -54 -6 0 -13 8 -15
17 -3 14 -12 17 -53 14 -27 -1 -58 -7 -68 -13 -11 -5 -42 -11 -71 -13 -28 -2
-80 -10 -116 -18 -68 -14 -198 -8 -236 11 -11 5 -33 17 -51 26 -17 9 -40 16
-51 16 -11 0 -25 6 -31 14 -6 7 -30 16 -53 19 -22 3 -44 10 -47 16 -4 5 -18
15 -31 21 -37 16 -68 35 -88 53 -10 10 -22 14 -25 11 -8 -8 -118 14 -162 32
-16 6 -55 15 -85 19 -71 8 -221 53 -240 71 -12 12 -5 14 50 14 36 0 79 -4 96
-9 20 -6 37 -5 50 2 11 7 70 12 134 13 155 1 188 -4 195 -27 11 -33 71 -52
160 -49 106 4 96 4 210 -4 176 -11 336 -33 346 -48 3 -5 61 -13 128 -18 67 -5
131 -15 142 -21 12 -6 49 -10 83 -8 33 2 93 -1 131 -5 39 -5 77 -10 85 -11 77
-8 139 -20 160 -30 14 -7 54 -16 90 -19 35 -4 71 -11 80 -16 9 -5 36 -11 60
-15 25 -4 48 -9 53 -12 4 -3 27 -7 50 -10 23 -2 47 -9 54 -15 16 -13 153 -39
165 -32 11 7 138 -36 156 -53 7 -7 30 -13 49 -13 60 0 166 -20 203 -38 19 -9
51 -34 70 -54 50 -52 134 -87 228 -94 131 -10 139 -11 152 -19 7 -4 43 -14 79
-22 36 -7 84 -18 106 -24 22 -6 60 -14 85 -19 67 -12 272 -69 284 -78 6 -5 31
-14 56 -21 25 -7 62 -22 83 -32 22 -10 43 -19 49 -19 5 0 17 -9 26 -19 10 -10
41 -27 69 -36 29 -9 55 -21 59 -26 3 -5 14 -7 24 -4 10 3 20 0 23 -8 3 -8 26
-19 52 -26 25 -6 63 -20 83 -31 20 -11 45 -20 54 -20 10 0 18 -7 18 -15 0 -8
7 -15 15 -15 9 0 41 -13 72 -30 31 -16 64 -30 73 -30 25 0 63 -84 55 -120 -3
-16 -13 -35 -22 -42 -9 -7 -26 -34 -38 -59 -11 -26 -44 -69 -73 -97 -29 -28
-52 -55 -52 -60 0 -16 -104 -107 -137 -121 -18 -7 -35 -21 -38 -30 -6 -21
-102 -101 -121 -101 -7 0 -28 -13 -46 -29 -75 -68 -119 -100 -131 -96 -7 3
-43 -25 -82 -61 -38 -36 -88 -74 -109 -86 -22 -11 -68 -48 -102 -82 -35 -33
-90 -83 -123 -111 -34 -27 -61 -53 -61 -57 0 -13 -174 -178 -192 -184 -10 -3
-18 -8 -18 -12 0 -13 -67 -82 -78 -82 -7 0 -12 -6 -12 -13 0 -7 -16 -32 -35
-54 -19 -23 -35 -45 -35 -50 0 -5 -9 -15 -21 -23 -11 -8 -32 -40 -47 -70 -15
-30 -30 -57 -33 -60 -3 -3 -16 -23 -28 -45 -12 -22 -37 -67 -56 -100 -19 -33
-35 -67 -35 -75 0 -15 -77 -70 -97 -70 -6 0 -14 -11 -17 -25 -4 -14 -17 -32
-31 -41 -14 -9 -25 -25 -25 -36 0 -11 -7 -47 -16 -80 -14 -56 -14 -63 2 -97
37 -79 49 -88 119 -90 42 -1 74 3 94 14 33 17 65 70 76 125 6 34 55 100 74
100 5 0 15 10 24 23 8 12 36 45 63 72 27 28 72 79 99 114 28 35 58 73 68 85
10 11 22 26 25 31 4 6 24 23 45 38 20 15 37 32 37 38 0 5 35 44 78 88 42 43
93 99 112 124 19 25 41 46 48 46 6 1 12 8 12 16 0 8 3 15 8 15 4 0 25 16 46
35 22 19 50 43 63 52 27 21 81 85 85 103 4 13 77 90 87 90 7 0 41 32 115 109
22 23 45 41 52 41 6 0 18 10 27 23 33 50 135 147 155 147 12 0 24 5 27 10 3 6
18 10 32 10 15 0 33 10 45 25 11 14 26 25 34 25 8 0 17 7 20 15 4 8 12 15 19
15 7 0 18 7 26 16 7 9 21 13 34 10 15 -4 34 7 70 39 35 32 52 42 60 35 9 -7
22 -7 41 0 15 6 40 10 54 8 14 -1 31 1 38 5 6 5 12 4 12 -2 0 -6 16 -25 35
-42 19 -18 35 -35 35 -39 0 -4 12 -34 27 -66 30 -68 31 -126 3 -165 -10 -15
-25 -43 -34 -63 -8 -20 -20 -36 -25 -36 -6 0 -27 -24 -46 -52 -19 -29 -57 -73
-85 -96 -27 -24 -50 -49 -50 -56 0 -7 -11 -18 -25 -24 -14 -6 -25 -17 -25 -23
0 -13 -40 -48 -55 -49 -6 0 -27 -15 -47 -34 -20 -19 -47 -36 -60 -38 -14 -2
-23 -10 -23 -21 0 -19 -43 -49 -57 -41 -10 6 -48 -33 -48 -48 0 -7 -7 -22 -15
-32 -8 -11 -15 -31 -15 -44 0 -28 -53 -82 -81 -82 -10 0 -19 -7 -19 -15 0 -7
-7 -18 -16 -23 -8 -5 -21 -20 -28 -33 -6 -13 -20 -24 -31 -24 -13 0 -27 -15
-42 -45 -13 -25 -23 -50 -23 -56 0 -7 -15 -25 -32 -41 -18 -15 -39 -41 -45
-56 -7 -15 -20 -30 -28 -33 -8 -4 -15 -15 -15 -26 0 -10 -4 -17 -9 -14 -5 3
-14 -1 -21 -9 -7 -8 -18 -15 -25 -15 -7 0 -21 -12 -31 -27 -9 -16 -23 -32 -30
-38 -6 -5 -21 -38 -33 -72 -22 -66 -21 -134 4 -183 17 -33 60 -69 82 -69 10 1
41 -2 68 -5 65 -8 132 23 157 73 9 19 22 37 28 41 6 4 12 14 14 23 1 9 9 24
18 34 8 10 28 41 44 68 33 59 64 95 82 95 6 0 12 7 12 15 0 8 15 21 33 28 17
8 40 24 50 35 11 11 25 18 32 16 14 -6 55 41 55 61 0 17 23 25 69 25 31 0 43
7 71 39 19 22 38 37 42 35 11 -7 56 36 62 60 3 12 19 29 36 39 16 10 30 22 30
26 0 5 11 6 24 4 13 -3 27 0 30 6 4 6 17 11 29 11 12 1 40 8 62 16 22 9 50 15
62 15 12 0 25 4 28 9 3 6 13 10 21 10 8 0 33 9 57 20 42 20 54 22 134 21 35 0
45 4 69 35 30 37 143 114 168 114 8 0 17 4 21 9 3 6 25 13 49 16 28 5 55 18
75 36 18 16 38 29 46 29 7 0 19 16 25 35 8 25 18 35 32 35 11 0 22 8 25 20 3
11 9 20 15 20 17 0 103 65 106 80 5 21 55 100 65 100 4 0 7 6 7 14 0 8 14 40
30 71 17 31 30 67 30 79 0 12 5 27 11 33 7 7 11 52 10 125 -1 63 2 125 6 139
5 13 6 94 3 179 -7 165 -15 195 -67 250 -13 14 -57 60 -98 103 -46 48 -94 89
-126 104 -29 15 -59 39 -68 55 -9 15 -21 28 -27 28 -6 0 -18 7 -25 16 -25 31
-151 104 -177 104 -10 0 -27 8 -38 18 -10 9 -32 24 -48 32 -16 8 -33 25 -39
36 -6 14 -22 25 -42 28 -18 4 -51 20 -73 36 -34 24 -91 54 -112 58 -37 6 -200
83 -200 94 0 12 -131 72 -163 75 -16 2 -43 14 -61 28 -18 14 -42 25 -53 25
-11 0 -32 9 -45 20 -14 10 -52 29 -84 41 -32 12 -66 28 -75 35 -9 8 -39 21
-68 29 -28 9 -57 25 -64 35 -6 11 -16 20 -20 20 -5 0 -21 8 -35 19 -15 10 -43
21 -63 25 -21 4 -42 13 -49 21 -7 8 -19 15 -28 15 -27 0 -91 23 -110 39 -34
30 -81 61 -93 61 -7 0 -20 6 -28 14 -20 17 -78 25 -111 16 -14 -3 -32 -3 -40
1 -8 3 -33 12 -55 19 -21 7 -45 19 -52 26 -7 7 -22 10 -33 7 -11 -3 -28 -2
-37 2 -10 5 -22 9 -28 11 -5 1 -32 12 -60 25 -27 12 -66 26 -85 30 -88 19
-110 29 -142 60 -32 33 -37 34 -115 35 -64 1 -88 6 -116 23 -19 11 -43 21 -54
21 -11 0 -46 13 -79 29 -36 18 -84 31 -124 35 -66 7 -180 41 -191 58 -3 4 -23
10 -45 13 -68 8 -111 22 -184 59 -40 20 -80 36 -90 36 -10 0 -22 5 -25 11 -4
6 -38 10 -78 9 -90 -1 -183 12 -199 28 -7 7 -26 12 -44 12 -17 0 -37 6 -43 14
-6 8 -26 16 -44 19 -87 15 -134 30 -205 67 -75 40 -80 41 -185 44 -68 1 -111
7 -116 14 -4 6 -27 18 -51 27 -25 9 -56 23 -69 32 -17 11 -49 17 -98 17 -42 1
-78 7 -85 14 -6 6 -24 12 -39 12 -15 0 -40 5 -56 11 -15 6 -50 12 -78 14 -27
2 -86 9 -130 15 -44 6 -100 13 -125 15 -25 2 -63 6 -85 8 -42 5 -250 46 -275
55 -15 5 -143 14 -209 13 -19 0 -43 5 -53 10 -9 5 -53 14 -95 19 -117 14 -147
21 -160 40 -9 13 -22 16 -55 13 -60 -6 -83 -5 -253 17 -77 9 -107 18 -132 36
-36 28 -48 29 -83 11 -14 -8 -43 -14 -64 -15 -21 -1 -47 -4 -57 -7 -10 -3 -29
1 -41 9 -19 12 -52 15 -154 14 -71 -1 -134 1 -139 4 -22 13 -108 1 -121 -16
-10 -14 -27 -17 -81 -17 -37 1 -80 1 -96 1 -15 -1 -37 6 -48 14 -17 12 -26 12
-52 1 -18 -7 -53 -11 -79 -8 -28 2 -48 -1 -48 -6 0 -6 -6 -8 -13 -6 -7 3 -34
1 -61 -4 -29 -5 -59 -5 -72 0 -14 5 -26 4 -29 -1 -4 -6 -29 -8 -58 -4 -29 3
-130 7 -224 8 -95 1 -176 5 -179 9 -3 3 -17 2 -31 -4 -27 -10 -290 -9 -313 2
-8 3 -73 3 -145 -1 -157 -9 -181 -1 -133 42 18 15 35 28 38 28 4 0 20 11 36
25 16 14 34 25 40 25 5 0 24 13 40 29 16 16 43 37 61 47 17 11 63 40 102 67
39 26 77 47 86 47 8 0 25 11 36 24 12 14 34 30 50 36 16 7 29 16 29 19 0 12
76 51 98 51 10 0 30 8 43 19 13 10 42 26 64 35 22 10 59 26 81 37 26 13 77 24
135 29 52 5 141 16 199 26 127 20 604 21 629 1 11 -9 15 -9 18 0 3 7 17 10 36
8 18 -3 78 -10 135 -16 56 -6 102 -14 102 -18 0 -10 136 1 220 18 71 15 191
52 207 64 7 5 19 7 28 4 8 -4 39 2 69 13 30 10 72 17 93 15 30 -2 43 3 60 22
13 13 23 28 23 34 0 5 11 9 25 9 17 0 25 -6 25 -17 0 -14 3 -13 20 5 12 12 29
22 40 22 10 0 22 5 25 10 3 6 15 10 25 10 10 0 20 3 22 8 2 4 30 20 63 36 61
30 125 81 125 100 -1 23 -48 63 -80 68 -26 4 -44 -2 -77 -24 -23 -16 -47 -27
-52 -24 -5 3 -14 -1 -22 -10 -7 -8 -22 -14 -33 -13 -12 2 -30 -2 -41 -8 -11
-6 -31 -12 -45 -12 -14 0 -61 -4 -106 -7 -68 -5 -88 -3 -125 14 -61 27 -137
42 -222 42 -40 0 -91 7 -114 15 -40 14 -70 22 -125 32 -16 3 -28 9 -28 13 0
12 -49 28 -105 35 -59 8 -115 26 -115 37 0 4 -16 8 -36 8 -20 0 -67 14 -105
30 -41 18 -95 33 -132 36 -60 6 -116 18 -222 47 -35 10 -60 11 -83 5 -22 -6
-44 -6 -64 1 -17 6 -34 10 -37 10 -3 -1 -28 -6 -56 -11z m1283 -345 c2 -9 -6
-12 -25 -11 -36 2 -45 7 -37 19 8 14 56 7 62 -8z m-530 -1195 c-3 -8 -32 -13
-82 -14 -66 -2 -75 0 -65 12 15 18 153 20 147 2z m67 2 c-3 -5 -10 -10 -16
-10 -5 0 -9 5 -9 10 0 6 7 10 16 10 8 0 12 -4 9 -10z m95 0 c0 -5 -7 -10 -15
-10 -8 0 -15 5 -15 10 0 6 7 10 15 10 8 0 15 -4 15 -10z m734 -176 c23 -23 20
-31 -16 -37 -43 -6 -48 -2 -35 28 14 29 29 32 51 9z m-10164 -19 c0 -3 -19
-17 -42 -32 -23 -16 -70 -56 -105 -90 -36 -34 -73 -65 -84 -68 -10 -4 -19 -13
-19 -21 0 -18 -37 -60 -45 -52 -3 3 12 46 34 96 23 49 41 94 41 100 0 13 24
22 58 22 27 1 127 32 139 44 7 7 23 8 23 1z m402 -48 c98 -6 121 -14 203 -67
17 -11 53 -30 80 -44 28 -13 59 -31 70 -40 19 -15 18 -15 -21 -16 -22 0 -45
-5 -51 -11 -7 -7 -41 -11 -85 -10 -157 4 -234 5 -263 2 -31 -2 -60 1 -108 14
-20 5 -33 3 -47 -10 -10 -9 -33 -18 -52 -20 -18 -2 -62 -6 -97 -10 -35 -3 -73
-12 -85 -20 -29 -21 -66 -19 -66 3 0 17 15 34 123 137 53 51 144 107 153 94 7
-11 94 -2 108 12 5 4 16 4 25 0 9 -5 60 -11 113 -14z m7233 13 c3 -5 1 -10 -4
-10 -6 0 -11 5 -11 10 0 6 2 10 4 10 3 0 8 -4 11 -10z m-4822 -215 c-2 -5 -14
-9 -28 -8 -36 1 -37 2 -30 12 7 12 61 9 58 -4z m-3122 -58 c-8 -8 -11 -7 -11
4 0 20 13 34 18 19 3 -7 -1 -17 -7 -23z m626 7 c9 -24 57 -43 119 -48 33 -2
71 -7 86 -11 15 -4 51 -1 80 5 29 7 67 14 83 15 17 1 53 8 81 15 47 12 53 11
77 -6 15 -10 27 -24 27 -31 0 -6 14 -16 30 -22 22 -7 30 -16 30 -35 0 -18 13
-34 50 -60 28 -20 52 -36 55 -36 7 0 65 -62 66 -71 3 -20 5 -25 12 -37 5 -7 6
-20 3 -30 -4 -13 8 -34 39 -68 24 -27 45 -54 45 -60 0 -6 9 -21 20 -34 11 -13
20 -25 20 -26 0 -2 -18 -15 -40 -29 -22 -14 -40 -32 -40 -40 0 -8 -21 -42 -46
-75 -49 -63 -52 -90 -11 -90 27 0 51 22 66 63 6 16 20 31 31 34 11 3 20 9 20
13 0 10 67 50 84 50 8 0 21 -16 30 -35 9 -19 21 -37 26 -40 11 -7 60 -102 60
-116 0 -8 -16 -20 -98 -74 -32 -21 -71 -71 -72 -91 0 -46 -35 -114 -57 -115
-4 0 -7 -8 -5 -17 13 -80 13 -93 3 -106 -9 -11 -8 -24 5 -57 9 -24 19 -67 21
-94 4 -40 9 -53 26 -60 11 -6 25 -24 29 -41 4 -17 19 -43 33 -58 28 -30 49
-128 32 -145 -5 -5 -10 -29 -11 -52 -1 -38 -5 -46 -46 -75 -52 -38 -148 -88
-170 -89 -13 -1 -68 -51 -118 -110 -11 -13 -23 -47 -48 -133 -6 -19 -24 -4
-24 19 0 23 -27 36 -42 21 -19 -19 -17 -105 3 -131 23 -28 23 -40 5 -83 -34
-78 -56 -138 -55 -145 3 -13 -13 -46 -38 -79 -13 -17 -23 -38 -23 -46 0 -18
-99 -118 -116 -118 -7 0 -14 -6 -17 -12 -2 -8 -8 -9 -13 -4 -5 5 -4 11 4 13
16 6 15 43 -3 67 -8 10 -12 23 -9 28 3 4 7 27 9 50 2 24 9 44 15 46 5 2 10 14
10 27 0 24 23 55 42 55 5 0 7 7 4 15 -3 10 1 18 12 22 28 11 101 94 96 108 -3
7 0 23 6 34 11 21 14 53 25 216 3 44 9 81 15 83 5 2 10 13 10 24 0 12 11 35
24 52 13 17 27 50 31 74 6 35 4 43 -10 49 -10 3 -25 1 -35 -5 -13 -8 -21 -7
-29 1 -6 6 -11 8 -11 4 0 -4 -10 1 -22 13 l-22 20 -44 -42 c-24 -24 -59 -57
-77 -75 -45 -43 -62 -115 -45 -181 7 -26 18 -53 23 -60 5 -7 7 -15 4 -18 -7
-7 -67 24 -67 35 0 5 -18 28 -40 50 -22 22 -40 45 -40 51 0 5 -4 10 -10 10
-27 0 -52 129 -30 156 13 15 3 19 -17 6 -10 -7 -19 -30 -22 -64 -1 -4 -13 -13
-28 -20 -15 -7 -30 -26 -35 -43 -16 -52 -31 -79 -63 -110 -30 -31 -68 -77 -85
-104 -7 -12 -12 -12 -34 3 -24 15 -26 22 -26 85 0 69 0 69 29 76 21 4 33 15
40 35 11 33 1 46 -39 52 -26 3 -48 38 -59 92 -4 19 -18 35 -39 47 -19 9 -41
24 -51 33 -10 9 -25 16 -33 16 -9 0 -28 14 -42 31 -20 23 -35 31 -61 32 -19 1
-38 -3 -42 -7 -4 -4 -11 -47 -14 -94 -5 -84 -2 -106 30 -162 23 -43 31 -61 31
-75 0 -8 5 -15 10 -15 6 0 10 -4 10 -10 0 -5 -7 -10 -15 -10 -15 0 -65 95 -65
123 0 10 -4 17 -10 17 -16 0 -80 61 -74 71 3 5 -2 9 -10 9 -8 0 -24 13 -36 30
-25 35 -21 75 16 155 26 58 32 90 40 201 4 54 2 84 -5 89 -6 3 -11 21 -11 40
0 19 -4 36 -9 39 -4 3 -16 27 -26 53 -10 26 -26 57 -36 68 -9 11 -23 39 -31
63 -7 23 -18 42 -24 42 -20 0 -59 65 -74 125 -14 56 -17 60 -50 66 -26 6 -40
3 -54 -9 -18 -16 -19 -16 -13 1 4 10 7 27 7 37 0 19 126 158 135 148 3 -3 13
-21 23 -40 9 -20 41 -61 69 -92 29 -31 55 -66 57 -79 3 -12 8 -39 11 -60 4
-26 10 -37 19 -34 8 3 18 1 24 -5 6 -6 15 -2 25 12 13 19 14 26 3 44 -8 11
-16 36 -20 55 -6 36 -72 151 -93 164 -7 4 -13 13 -13 20 0 6 -17 29 -37 50
-37 37 -37 39 -19 53 25 18 28 18 52 -3 45 -40 61 -44 96 -24 23 12 32 24 29
37 -2 11 -4 52 -5 92 -1 58 2 75 15 82 9 5 22 22 29 37 42 96 170 122 305 63
22 -10 49 -21 61 -24 25 -8 49 -49 40 -71 -3 -9 -1 -48 4 -88 5 -40 11 -99 13
-133 2 -38 10 -73 23 -95 11 -19 23 -43 27 -53 6 -15 10 -17 19 -8 7 7 24 12
39 12 18 0 35 9 48 26 l20 25 -20 47 c-23 53 -43 209 -34 261 l6 33 57 -5 c94
-9 137 -17 140 -27 2 -6 11 -10 20 -10 32 -1 103 -53 182 -132 20 -21 44 -38
53 -38 10 0 17 -6 17 -13 0 -7 14 -21 30 -30 17 -10 30 -22 30 -28 0 -5 19
-23 42 -40 l43 -30 22 26 c13 14 23 32 23 40 0 22 -22 65 -34 65 -6 0 -5 5 2
12 15 15 16 58 1 58 -6 0 -13 -9 -16 -20 -8 -31 -31 -24 -76 25 -24 25 -47 45
-54 45 -6 0 -19 20 -29 44 -10 25 -30 51 -44 60 -14 8 -38 27 -55 43 -25 24
-40 29 -107 34 -43 4 -84 12 -91 17 -7 6 -32 9 -57 7 -28 -2 -72 6 -117 21
-39 13 -78 21 -86 18 -18 -7 -129 13 -136 24 -3 5 -34 17 -68 27 -35 10 -63
21 -63 24 1 9 81 44 104 46 13 1 23 11 26 26 7 29 49 39 62 15 5 -9 14 -16 19
-16 6 0 7 5 4 10 -11 17 2 26 40 27 23 1 38 -4 42 -13z m3200 -10 c-3 -3 -12
-4 -19 -1 -8 3 -5 6 6 6 11 1 17 -2 13 -5z m-147 -14 c0 -5 -7 -10 -15 -10 -8
0 -15 5 -15 10 0 6 7 10 15 10 8 0 15 -4 15 -10z m-2261 -82 c1 -14 -16 -8
-31 10 -31 36 -31 46 -1 22 18 -14 32 -28 32 -32z m7041 32 c-20 -13 -43 -13
-35 0 3 6 16 10 28 10 18 0 19 -2 7 -10z m205 -18 c53 -27 27 -26 -155 5 -27
5 -31 7 -16 12 29 11 138 0 171 -17z m209 2 c18 -7 12 -24 -10 -24 -8 0 -14 7
-14 15 0 17 2 18 24 9z m-8748 -24 c40 0 38 -21 -5 -60 -22 -21 -41 -42 -41
-47 0 -5 -20 -26 -45 -47 l-46 -38 7 29 c4 15 15 39 26 52 10 13 18 29 18 35
0 6 9 31 21 55 15 34 22 42 31 33 7 -7 22 -12 34 -12z m2544 -54 c0 -3 -4 -8
-10 -11 -5 -3 -10 -1 -10 4 0 6 5 11 10 11 6 0 10 -2 10 -4z m-1086 -22 c3 -9
6 -26 6 -39 0 -13 5 -27 10 -30 7 -4 7 -12 0 -25 -5 -10 -7 -26 -4 -34 9 -24
-9 -19 -27 7 -16 22 -24 65 -20 115 1 25 26 30 35 6z m-8369 -31 c43 -7 135
-51 135 -64 0 -7 -9 -9 -22 -5 -13 4 -32 9 -42 11 -11 3 -24 11 -28 20 -11 18
-28 20 -28 2 0 -10 -15 -12 -62 -9 -35 2 -64 5 -64 6 -1 0 1 15 3 32 5 31 6
31 41 22 21 -5 51 -12 67 -15z m6115 -3 c0 -5 -7 -10 -15 -10 -8 0 -15 5 -15
10 0 6 7 10 15 10 8 0 15 -4 15 -10z m-100 -10 c0 -5 -18 -10 -41 -10 -24 0
-38 4 -34 10 3 6 22 10 41 10 19 0 34 -4 34 -10z m-4420 -10 c0 -5 -2 -10 -4
-10 -3 0 -8 5 -11 10 -3 6 -1 10 4 10 6 0 11 -4 11 -10z m13654 -6 c3 -8 2
-12 -4 -9 -6 3 -10 10 -10 16 0 14 7 11 14 -7z m-8710 -20 c9 -8 16 -20 16
-25 0 -14 -20 -11 -37 6 -8 8 -19 13 -24 10 -5 -4 -9 -2 -9 4 0 5 8 12 18 14
9 3 18 5 19 6 1 0 9 -6 17 -15z m2846 -78 c0 -11 -50 -35 -55 -26 -4 6 4 14
17 19 26 11 38 13 38 7z m-4441 -47 c-18 -11 -39 -11 -39 0 0 5 12 9 26 9 18
0 22 -3 13 -9z m79 0 c-12 -7 -24 -7 -35 0 -15 9 -12 10 17 10 29 0 32 -1 18
-10z m120 0 c23 -2 42 -7 42 -12 0 -13 -80 -1 -94 14 -7 7 -7 10 0 6 6 -3 29
-7 52 -8z m4032 -49 c-14 -11 -36 -20 -50 -20 -14 0 -37 -6 -52 -14 -26 -14
-38 -12 -38 6 0 4 8 8 18 8 10 0 22 3 26 7 11 12 69 31 96 32 l25 1 -25 -20z
m-255 -75 c0 -11 -8 -21 -17 -23 -14 -3 -18 3 -18 23 0 20 4 26 18 23 9 -2 17
-12 17 -23z m6907 -29 c8 -7 27 -20 43 -29 27 -14 28 -16 8 -17 -20 0 -73 39
-73 54 0 10 7 7 22 -8z m-10052 -8 c0 -7 -11 -14 -24 -14 -17 -1 -23 2 -19 12
6 17 43 19 43 2z m-1043 -14 c-3 -3 -12 -4 -19 -1 -8 3 -5 6 6 6 11 1 17 -2
13 -5z m1113 -20 c0 -2 -9 -4 -21 -4 -11 0 -18 4 -14 10 5 8 35 3 35 -6z
m-7670 -48 c0 -3 -4 -8 -10 -11 -5 -3 -10 -1 -10 4 0 6 5 11 10 11 6 0 10 -2
10 -4z m10468 -28 c-20 -29 -38 -34 -38 -10 0 24 8 32 33 32 18 0 18 -2 5 -22z
m12876 -24 c9 -3 16 -10 16 -15 0 -13 -43 -4 -48 9 -4 13 8 15 32 6z m-26059
-74 c-3 -5 -16 -10 -28 -10 -18 0 -19 2 -7 10 20 13 43 13 35 0z m-70 -9 c-6
-6 -21 -11 -35 -13 -14 -2 -30 -7 -36 -10 -6 -4 -31 -10 -55 -13 -24 -4 -53
-10 -64 -15 -35 -14 -126 -30 -137 -24 -5 3 -22 1 -38 -6 -15 -6 -39 -10 -52
-8 -18 3 -14 7 22 17 25 8 54 15 65 17 86 15 133 26 152 36 12 6 28 8 35 6 7
-3 40 0 73 7 77 17 81 17 70 6z m23030 -111 c3 -5 1 -10 -4 -10 -6 0 -11 5
-11 10 0 6 2 10 4 10 3 0 8 -4 11 -10z m-18665 -44 c0 -2 -7 -6 -15 -10 -8 -3
-15 -1 -15 4 0 6 7 10 15 10 8 0 15 -2 15 -4z m-70 -26 c-8 -5 -22 -10 -30
-10 -13 0 -13 1 0 10 8 5 22 10 30 10 13 0 13 -1 0 -10z m17035 -120 c3 -5 -1
-10 -10 -10 -9 0 -13 5 -10 10 3 6 8 10 10 10 2 0 7 -4 10 -10z m-8165 -45 c0
-14 0 -27 0 -30 0 -3 -3 -5 -7 -5 -5 0 -8 14 -8 30 0 17 3 30 8 30 4 0 7 -11
7 -25z m13807 -11 c-3 -3 -12 -4 -19 -1 -8 3 -5 6 6 6 11 1 17 -2 13 -5z
m-13794 -73 c18 -37 17 -86 -3 -86 -9 0 -16 12 -18 30 -2 16 -8 33 -14 36 -6
4 -5 14 3 28 8 11 15 21 16 21 1 0 8 -13 16 -29z m-1933 -55 c0 -5 -9 1 -20
14 -11 13 -20 30 -20 39 0 10 8 5 20 -14 11 -16 20 -34 20 -39z m-12860 -306
c0 -5 -7 -10 -16 -10 -8 0 -12 5 -9 10 3 6 10 10 16 10 5 0 9 -4 9 -10z
m14140 -220 c0 -10 -40 -96 -68 -145 -16 -30 -17 -30 -20 -6 -7 46 9 113 33
137 24 24 55 32 55 14z m-830 -25 c7 -8 18 -15 26 -15 20 0 34 -33 41 -100 5
-54 4 -60 -11 -54 -9 4 -23 18 -31 33 -7 14 -32 46 -54 70 -50 53 -54 81 -12
81 16 0 34 -7 41 -15z m705 -103 c-10 -68 -15 -77 -30 -50 -7 13 -8 28 -3 34
5 7 10 25 11 42 1 20 6 28 15 24 10 -4 12 -17 7 -50z m-200 -103 c4 -11 11
-16 17 -13 6 4 8 -1 4 -14 -5 -15 -1 -25 14 -34 12 -7 38 -35 58 -63 28 -39
36 -59 35 -90 0 -22 4 -43 10 -47 8 -5 5 -13 -6 -26 -10 -11 -20 -39 -22 -63
-2 -24 -7 -73 -12 -109 -4 -36 -8 -106 -8 -155 0 -90 0 -91 -31 -111 -47 -31
-88 -37 -109 -14 -14 16 -16 35 -11 152 3 73 8 156 10 183 3 28 6 105 7 173 1
71 6 122 12 122 6 0 6 5 -1 13 -15 19 -22 88 -9 108 13 20 34 15 42 -12z
m-12345 1 c0 -5 -7 -7 -15 -4 -8 4 -12 10 -9 15 6 11 24 2 24 -11z m12216 -57
c-4 -38 -10 -138 -12 -223 -2 -85 -10 -171 -16 -190 -14 -45 -14 -188 1 -203
16 -16 14 -67 -3 -73 -15 -6 -75 21 -77 34 -1 6 -7 79 -10 132 -1 8 -8 51 -16
95 -9 44 -18 119 -20 167 -4 78 -2 90 19 125 22 34 52 100 53 113 0 3 15 20
33 38 17 18 32 37 32 42 0 6 5 10 11 10 8 0 10 -19 5 -67z m-360 40 c3 -10 10
-25 15 -33 25 -41 39 -87 39 -125 0 -25 6 -48 14 -54 8 -7 24 -41 35 -77 11
-35 27 -71 36 -80 8 -8 15 -28 15 -44 0 -16 5 -32 10 -35 6 -3 10 -19 10 -34
0 -15 5 -32 11 -38 15 -15 21 -133 7 -133 -15 0 -68 40 -68 52 0 5 -13 28 -30
51 -16 23 -31 54 -32 69 -1 15 -5 25 -9 22 -8 -5 -38 74 -38 101 0 27 -20 136
-30 160 -5 11 -16 38 -26 61 -22 53 -8 154 21 154 8 0 17 -8 20 -17z m-11766
-23 c0 -5 -9 -10 -19 -10 -11 0 -23 5 -26 10 -4 6 5 10 19 10 14 0 26 -4 26
-10z m11591 -132 c22 -41 55 -200 50 -241 -1 -9 -60 49 -62 61 -1 4 -3 29 -5
55 -2 27 -9 58 -15 69 -11 21 -3 78 11 78 5 0 15 -10 21 -22z m-11481 -113 c0
-21 -10 -19 -37 7 -32 30 -29 41 7 23 17 -9 30 -22 30 -30z m11568 -187 c-6
-18 -25 -21 -25 -3 0 8 7 15 15 15 7 0 12 -5 10 -12z m22 -93 c0 -7 6 -15 13
-18 14 -5 57 -82 57 -103 0 -8 -4 -14 -9 -14 -11 0 -23 29 -16 40 3 4 -1 10
-9 13 -8 3 -26 29 -40 57 -30 60 -32 67 -11 50 8 -7 15 -18 15 -25z m305 -293
c22 -2 47 -10 55 -17 8 -7 34 -18 56 -24 38 -10 79 -40 58 -42 -5 0 -20 -2
-34 -4 -35 -4 -142 14 -157 27 -7 6 -13 8 -13 4 0 -4 -11 1 -25 10 -36 24 -32
74 4 58 9 -4 34 -9 56 -12z m354 -4 c-2 -39 -115 -90 -149 -68 -13 8 -12 11 5
24 11 8 27 13 35 11 8 -2 33 7 55 20 47 28 55 30 54 13z m-14359 -138 c0 -5
-5 -10 -11 -10 -5 0 -7 5 -4 10 3 6 8 10 11 10 2 0 4 -4 4 -10z"/>
<path d="M15223 2680 c-13 -5 -23 -14 -23 -20 0 -5 -5 -10 -11 -10 -18 0 -77
-61 -91 -94 -12 -29 -13 -64 -8 -258 1 -42 -3 -85 -9 -96 -9 -17 -14 -81 -9
-122 0 -8 -2 -25 -6 -37 -5 -17 -3 -23 7 -23 10 0 17 22 25 73 6 39 14 90 18
112 3 22 10 81 14 130 13 130 24 173 58 235 22 39 42 61 66 73 25 11 34 21 30
32 -7 17 -27 18 -61 5z"/>
<path d="M14386 2611 c-17 -19 -16 -50 4 -76 4 -5 10 -23 14 -38 4 -15 20 -47
37 -69 20 -28 26 -45 19 -52 -12 -12 -13 -53 -2 -60 21 -12 61 -115 64 -161 2
-38 7 -51 21 -53 15 -3 17 3 12 50 -7 68 -15 110 -26 124 -5 6 -13 48 -18 93
-7 69 -13 87 -36 111 -24 25 -27 34 -23 87 3 56 2 58 -23 61 -15 2 -32 -5 -43
-17z"/>
<path d="M15245 2140 c-3 -5 1 -10 9 -10 9 0 16 5 16 10 0 6 -4 10 -9 10 -6 0
-13 -4 -16 -10z"/>
<path d="M15210 2094 c0 -8 5 -12 10 -9 6 3 10 10 10 16 0 5 -4 9 -10 9 -5 0
-10 -7 -10 -16z"/>
<path d="M7186 4465 c-10 -7 -15 -19 -11 -25 5 -8 13 -5 26 9 30 32 21 43 -15
16z"/>
<path d="M17158 3238 c9 -9 15 -9 24 0 9 9 7 12 -12 12 -19 0 -21 -3 -12 -12z"/>
<path d="M27630 2096 c0 -15 24 -28 34 -19 7 7 -13 33 -25 33 -5 0 -9 -6 -9
-14z"/>
<path d="M24730 806 c0 -11 9 -16 26 -16 31 0 28 23 -4 28 -15 2 -22 -2 -22
-12z"/>
<path d="M24110 332 c0 -33 16 -43 27 -16 3 8 -2 23 -11 32 -15 15 -16 14 -16
-16z"/>
</g>
</svg>
