<?xml version="1.0" standalone="no"?>
<!DOCTYPE svg PUBLIC "-//W3C//DTD SVG 20010904//EN"
 "http://www.w3.org/TR/2001/REC-SVG-20010904/DTD/svg10.dtd">
<svg version="1.0" xmlns="http://www.w3.org/2000/svg"
 width="43200.000000pt" height="5180.487805pt" viewBox="0 0 43200.000000 5180.487805"
 preserveAspectRatio="xMidYMid meet">
<metadata>
Created by potrace 1.11, written by Peter Selinger 2001-2013
</metadata>
<g transform="translate(0.000000,5180.487805) scale(1.463415,-1.463415)"
fill="#000000" stroke="none">
<path d="M13916 3472 c-3 -5 -19 -9 -36 -10 -16 0 -66 -8 -110 -17 -44 -9 -90
-17 -102 -17 -13 0 -41 -5 -62 -10 -22 -5 -78 -11 -125 -13 -47 -2 -124 -6
-171 -9 -47 -3 -130 -8 -185 -11 -56 -3 -155 -14 -220 -26 -66 -11 -158 -22
-205 -25 -47 -2 -168 -12 -270 -20 -110 -10 -209 -13 -245 -9 -151 18 -195 17
-274 -9 -42 -14 -107 -28 -146 -31 -85 -6 -234 -16 -255 -17 -8 0 -87 -4 -175
-10 -88 -5 -212 -10 -275 -12 -84 -2 -134 -9 -185 -25 -43 -14 -118 -26 -195
-31 -288 -21 -705 -71 -755 -90 -46 -17 -157 -40 -166 -34 -6 3 -15 1 -22 -4
-7 -5 -52 -15 -102 -22 -49 -6 -121 -18 -160 -25 -38 -7 -106 -16 -150 -19
-44 -4 -120 -14 -170 -22 -49 -9 -117 -16 -150 -15 -53 1 -176 -19 -287 -47
-21 -6 -38 -7 -38 -4 0 3 -5 1 -12 -6 -7 -7 -20 -12 -30 -12 -10 0 -64 -11
-121 -24 -56 -13 -164 -32 -239 -42 -76 -9 -138 -21 -138 -25 0 -5 -15 -9 -33
-9 -18 0 -41 -6 -52 -14 -11 -7 -33 -16 -50 -19 -269 -55 -389 -78 -435 -80
-23 -2 -25 3 -36 60 -14 76 -31 102 -114 164 -25 19 -56 45 -70 57 -50 47
-136 114 -160 127 -64 33 -455 35 -661 4 -41 -6 -103 -13 -138 -15 -35 -2 -70
-9 -78 -15 -7 -6 -23 -9 -35 -6 -12 4 -27 2 -32 -2 -10 -8 -69 -26 -214 -67
-35 -10 -65 -21 -68 -26 -3 -4 -14 -8 -24 -8 -11 0 -57 -18 -104 -40 -46 -22
-87 -40 -91 -40 -8 0 -127 -57 -278 -131 -43 -22 -85 -39 -93 -39 -8 0 -31
-10 -52 -23 -31 -20 -60 -34 -82 -42 -33 -11 -159 -71 -200 -94 -8 -5 -39 -19
-67 -32 -29 -13 -53 -27 -53 -31 0 -5 -4 -8 -10 -8 -5 0 -33 -11 -62 -25 -53
-24 -97 -41 -198 -76 -30 -10 -63 -23 -72 -29 -10 -5 -27 -10 -38 -10 -11 0
-20 -4 -20 -10 0 -5 -8 -10 -17 -10 -10 0 -42 -9 -71 -20 -30 -11 -59 -20 -65
-19 -7 1 -28 -5 -48 -14 -19 -9 -54 -22 -77 -29 -23 -7 -42 -16 -42 -20 0 -5
-15 -8 -33 -8 -18 0 -37 -4 -43 -9 -10 -9 -182 -51 -212 -51 -11 0 -38 -7 -61
-15 -23 -8 -63 -16 -89 -19 -26 -3 -96 -13 -157 -23 -145 -23 -666 -26 -760
-4 -33 8 -71 15 -85 17 -14 1 -52 6 -85 9 -33 4 -78 13 -100 20 -22 8 -62 18
-90 24 -27 6 -90 21 -140 35 -119 33 -157 43 -235 56 -61 10 -107 22 -155 40
-11 4 -49 13 -85 19 -36 7 -87 18 -115 26 -212 59 -619 60 -880 0 -62 -14
-155 -24 -380 -42 -44 -3 -102 1 -155 10 -162 30 -208 -2 -129 -88 23 -25 47
-45 53 -45 6 0 17 -13 24 -29 7 -16 34 -51 60 -78 75 -79 131 -145 165 -195
18 -26 37 -48 44 -48 6 0 20 -11 31 -25 11 -14 23 -25 27 -25 4 0 18 -9 32
-20 14 -11 38 -20 53 -20 15 0 30 -3 34 -7 8 -9 75 -33 101 -38 11 -2 56 -12
99 -24 44 -12 90 -21 102 -21 12 0 29 -6 36 -13 7 -8 19 -12 26 -9 7 2 25 -1
41 -6 19 -7 32 -7 39 0 19 19 25 -13 6 -33 -26 -29 -136 -85 -213 -108 -92
-28 -179 -87 -281 -192 -101 -103 -115 -121 -211 -264 -87 -129 -111 -155
-174 -185 -35 -17 -45 -26 -39 -39 3 -9 10 -32 14 -51 11 -57 28 -80 58 -80
47 1 116 20 144 40 15 11 37 20 48 20 12 0 31 5 43 12 12 7 27 12 32 13 6 0
28 6 50 12 22 6 85 23 140 38 55 14 113 30 129 35 16 5 32 7 37 4 4 -2 29 1
56 7 26 6 60 11 75 10 14 -1 39 4 55 10 32 13 175 22 349 22 109 0 123 -2 151
-22 29 -22 32 -22 87 -8 52 13 59 13 79 -3 12 -9 47 -20 77 -23 72 -8 117 -22
160 -49 28 -17 47 -21 92 -19 46 2 58 0 58 -12 0 -15 50 -30 73 -21 8 3 20 -2
27 -11 15 -18 43 -19 72 -4 14 8 23 8 31 0 6 -6 29 -11 51 -11 23 0 54 -7 70
-15 18 -10 33 -12 40 -6 7 6 38 6 81 1 39 -5 96 -9 128 -10 32 0 67 -5 77 -10
11 -6 57 -17 104 -25 74 -13 120 -16 296 -17 53 0 184 9 255 18 28 3 88 7 135
9 97 3 244 20 310 35 45 10 165 31 315 55 44 7 104 22 134 34 30 11 84 25 120
30 98 15 192 37 237 56 21 9 50 18 64 20 27 4 92 27 100 35 22 22 222 93 325
116 17 3 59 20 95 36 157 70 252 111 265 113 6 1 17 5 25 8 8 3 41 15 72 26
32 11 66 25 75 31 63 35 284 132 321 141 25 5 68 21 97 34 28 14 59 25 68 25
23 0 97 18 192 45 74 22 160 39 245 49 19 2 51 7 72 11 44 9 50 1 78 -116 12
-50 31 -99 48 -123 34 -48 42 -67 53 -121 4 -22 28 -101 54 -175 45 -129 49
-137 103 -188 31 -29 66 -54 77 -55 11 -2 30 -8 42 -15 35 -20 190 -14 218 9
6 4 29 12 50 18 22 5 58 15 80 20 22 6 69 16 105 21 148 23 159 26 270 80 8 4
40 13 70 20 30 7 60 17 67 22 7 6 27 14 45 18 18 4 74 19 123 33 50 14 112 30
140 36 27 7 57 19 66 27 22 20 67 32 179 49 146 22 203 33 251 51 27 9 88 17
157 19 63 2 128 7 145 11 17 3 49 8 71 9 63 4 178 25 206 36 14 6 77 13 140
15 63 2 126 6 140 9 81 17 140 25 184 26 44 0 124 11 342 48 28 5 60 13 70 19
11 6 49 7 94 3 41 -4 95 -4 120 1 25 5 63 8 85 8 22 0 72 5 110 10 39 6 117
13 175 16 58 3 110 10 115 14 6 4 37 4 71 -1 51 -7 146 -6 164 1 3 1 9 2 14 1
4 -1 13 2 20 7 6 5 47 12 91 16 44 4 123 16 176 27 68 14 145 20 260 22 90 2
171 7 179 12 8 5 38 10 65 11 28 1 70 7 94 14 24 6 58 9 75 6 45 -8 196 -8
306 -1 120 9 440 12 440 5 0 -3 114 -6 253 -5 215 1 259 3 302 19 49 17 263
32 410 28 166 -4 410 -3 495 1 52 2 104 1 115 -3 21 -8 198 -20 380 -25 61 -2
142 -8 180 -14 39 -6 98 -11 132 -11 34 0 65 -4 68 -10 3 -5 22 -10 42 -10 46
0 162 -19 188 -30 11 -5 79 -12 150 -15 354 -17 396 -20 403 -32 5 -8 13 -9
22 -3 9 5 19 5 27 -2 7 -5 25 -11 40 -13 55 -6 179 -24 233 -35 30 -6 75 -13
100 -16 25 -2 63 -7 85 -10 22 -3 56 -8 75 -10 19 -3 69 -12 110 -21 41 -8 95
-19 120 -23 25 -4 72 -15 105 -24 32 -9 71 -16 86 -16 14 0 46 -7 70 -16 40
-14 66 -20 181 -44 26 -5 41 -3 48 5 8 10 23 9 73 -4 34 -9 76 -24 92 -33 34
-18 151 -46 345 -83 74 -14 205 -44 290 -66 85 -23 166 -43 180 -45 126 -18
200 -38 200 -54 0 -3 6 -7 13 -8 6 -1 27 -4 46 -6 18 -2 36 -9 40 -14 3 -5 26
-13 51 -16 25 -4 54 -11 65 -16 36 -15 208 -62 265 -72 30 -5 60 -14 67 -20 7
-6 13 -7 13 -2 0 5 5 1 11 -9 7 -12 17 -16 29 -12 11 3 41 -1 67 -11 26 -9 55
-17 63 -18 8 -1 22 -5 30 -8 18 -7 57 -16 120 -27 25 -4 79 -20 120 -34 41
-15 78 -23 83 -18 11 11 185 -24 203 -42 4 -4 17 -7 29 -7 12 0 37 -10 56 -23
46 -30 118 -57 155 -57 17 0 45 -7 61 -15 19 -9 53 -15 85 -13 37 1 74 -6 125
-25 39 -15 87 -29 106 -31 19 -2 44 -9 55 -15 12 -6 34 -11 51 -11 16 0 33 -4
36 -10 3 -5 21 -10 39 -10 19 0 58 -7 87 -16 30 -9 75 -22 101 -30 26 -8 73
-16 105 -19 86 -6 217 -27 226 -36 5 -4 25 -5 46 -2 26 4 41 0 50 -11 10 -12
16 -13 32 -3 14 8 22 9 27 1 10 -14 38 -24 47 -16 4 4 25 8 48 9 23 1 85 4
137 6 105 5 155 19 171 48 5 10 14 19 20 19 6 0 17 7 25 15 20 20 24 229 5
263 -7 13 -13 38 -13 55 -1 18 -7 47 -15 65 l-13 33 43 18 c50 22 243 59 335
66 34 2 108 10 165 16 118 14 129 14 217 -1 36 -6 92 -13 125 -15 118 -7 261
-24 340 -40 44 -9 95 -18 114 -21 19 -2 50 -9 70 -14 110 -27 161 -38 206 -45
28 -4 91 -20 140 -37 105 -34 121 -39 155 -43 51 -6 148 -35 235 -71 37 -15
77 -28 90 -29 6 0 28 -9 50 -18 21 -10 46 -19 55 -21 8 -1 36 -12 62 -24 79
-37 101 -44 145 -47 24 -2 57 -8 75 -14 18 -5 69 -17 113 -26 44 -9 85 -17 90
-18 6 -2 16 -6 23 -10 6 -5 16 -5 22 -2 5 3 18 1 29 -5 11 -5 69 -14 128 -20
147 -12 421 -48 458 -60 17 -5 43 -12 59 -14 16 -3 53 -10 82 -16 28 -6 71
-13 95 -15 24 -2 96 -15 159 -29 63 -13 118 -22 122 -20 4 3 56 0 115 -6 97
-10 225 -19 293 -21 14 -1 102 -2 195 -2 94 0 199 0 235 -1 89 -1 405 12 460
19 25 3 88 8 140 10 52 2 133 10 180 19 47 8 115 20 153 25 170 27 195 31 237
41 25 6 63 13 84 16 22 3 58 16 80 28 43 24 96 38 206 56 162 26 218 46 330
120 23 15 84 37 120 44 36 7 136 49 337 142 28 13 55 24 58 24 8 0 50 18 161
71 45 22 88 39 97 39 29 0 67 23 67 40 0 45 -63 64 -198 60 -81 -2 -120 7
-126 28 -4 10 -42 31 -93 51 -49 19 -99 42 -113 51 -34 24 -114 50 -151 50
-20 0 -45 12 -72 34 -23 18 -58 37 -77 41 -19 3 -57 15 -85 25 -27 10 -77 23
-110 30 -33 6 -79 18 -102 27 -23 8 -50 13 -60 9 -10 -3 -2 6 17 21 57 44 199
192 227 236 15 23 63 114 108 202 121 237 176 339 185 345 4 3 15 20 24 39 27
52 89 137 147 203 71 79 70 78 52 117 -14 27 -21 32 -42 28 -77 -15 -119 -31
-141 -51 -32 -30 -126 -82 -165 -90 -16 -4 -57 -20 -90 -35 -33 -16 -76 -34
-95 -41 -19 -7 -73 -26 -120 -42 -47 -17 -87 -34 -90 -39 -3 -4 -24 -12 -47
-17 -23 -5 -55 -19 -71 -31 -17 -11 -37 -21 -46 -21 -18 0 -90 -26 -128 -46
-14 -8 -37 -14 -50 -14 -14 0 -33 -9 -43 -20 -10 -11 -26 -18 -35 -15 -9 3
-43 -4 -76 -16 -32 -11 -93 -29 -134 -39 -41 -10 -102 -26 -135 -35 -33 -10
-76 -21 -96 -25 -19 -3 -41 -10 -49 -15 -7 -4 -29 -9 -49 -11 -20 -1 -58 -7
-86 -13 -27 -6 -79 -17 -114 -24 -35 -8 -72 -12 -82 -10 -10 3 -71 -7 -136
-21 -65 -15 -128 -29 -140 -32 -13 -2 -23 0 -23 7 0 8 -4 8 -12 1 -8 -6 -111
-13 -253 -16 -132 -4 -265 -9 -295 -11 -30 -3 -147 -6 -260 -7 -211 -2 -286 6
-435 43 -44 12 -107 27 -139 35 -33 8 -65 18 -70 23 -6 4 -38 16 -71 25 -33
10 -78 24 -100 31 -22 7 -56 16 -75 20 -19 4 -44 14 -55 21 -11 8 -34 14 -52
14 -18 0 -33 4 -33 8 0 11 -118 62 -141 62 -9 0 -33 7 -53 15 -21 9 -56 18
-78 20 -22 2 -68 18 -102 34 -34 17 -68 31 -76 31 -7 0 -32 9 -54 19 -23 10
-79 36 -126 56 -47 20 -112 50 -146 65 -66 32 -142 60 -161 60 -7 0 -36 11
-66 24 -29 14 -80 35 -113 46 -32 12 -77 30 -99 40 -46 21 -123 40 -160 40
-14 0 -42 7 -63 16 -20 9 -64 20 -97 24 -33 5 -78 14 -100 21 -22 6 -94 15
-160 19 -66 4 -160 14 -210 21 -49 7 -142 13 -205 14 -111 2 -226 9 -320 20
-25 3 -86 7 -136 9 -61 2 -99 9 -115 19 -17 12 -52 17 -119 18 -52 1 -102 5
-111 10 -9 5 -73 12 -141 15 -136 7 -245 -9 -322 -48 -39 -20 -107 -84 -136
-128 -8 -12 -26 -39 -40 -59 -14 -20 -36 -58 -50 -84 -13 -26 -27 -50 -30 -52
-4 -2 -39 7 -79 20 -40 14 -81 25 -91 25 -10 0 -23 6 -29 14 -6 7 -21 11 -34
9 -29 -6 -206 66 -246 99 -22 19 -46 27 -95 32 -37 4 -92 18 -123 31 -30 14
-61 25 -68 25 -7 0 -24 9 -39 21 -14 11 -31 17 -36 14 -6 -4 -21 0 -33 8 -12
8 -40 19 -62 26 -22 7 -49 16 -60 20 -206 84 -468 166 -625 195 -93 18 -164
36 -285 71 -44 13 -107 29 -140 35 -33 7 -87 18 -120 25 -33 8 -89 17 -125 20
-36 4 -69 11 -75 15 -26 20 -257 73 -375 86 -25 3 -52 8 -60 12 -8 3 -19 6
-25 7 -5 0 -23 5 -40 11 -51 19 -144 45 -193 54 -26 5 -117 23 -202 40 -85 18
-191 38 -235 45 -44 7 -93 18 -110 23 -16 6 -64 15 -105 22 -41 7 -86 16 -100
20 -14 5 -45 12 -70 15 -25 4 -80 13 -123 22 -43 8 -87 13 -97 10 -10 -3 -28
2 -39 9 -13 9 -22 11 -26 4 -4 -7 -13 -6 -27 1 -11 6 -45 15 -77 19 -31 5 -67
11 -81 14 -71 16 -129 26 -165 31 -22 2 -72 9 -112 15 -39 5 -102 9 -140 8
-210 -4 -323 0 -458 15 -219 24 -575 41 -685 32 -125 -10 -127 -10 -255 4
-212 23 -600 17 -706 -10 -47 -12 -105 -4 -126 16 -10 10 -29 15 -49 13 -18
-1 -36 1 -40 5 -10 9 -22 9 -28 -1z m834 -204 c102 1 211 4 243 8 35 3 62 2
70 -4 12 -10 97 -13 282 -11 260 4 365 -5 365 -29 0 -13 3 -12 14 3 11 16 16
17 29 6 11 -9 21 -10 35 -2 11 6 21 9 23 6 2 -2 58 -6 123 -10 66 -3 127 -10
135 -14 9 -5 45 -11 81 -14 36 -3 109 -13 164 -21 54 -9 101 -14 105 -12 4 3
25 0 47 -6 21 -6 70 -12 108 -14 38 -1 82 -8 99 -13 16 -6 51 -11 76 -11 25 0
84 -10 131 -21 104 -27 159 -36 325 -54 72 -8 155 -19 185 -25 30 -6 78 -14
105 -19 28 -4 61 -13 75 -19 14 -6 81 -20 150 -32 69 -12 139 -28 157 -36 17
-7 37 -14 44 -14 7 0 53 -19 103 -42 65 -30 108 -43 151 -46 33 -2 65 -9 72
-14 7 -5 16 -8 20 -5 15 9 148 -13 213 -34 36 -12 97 -32 135 -45 39 -12 131
-32 205 -44 74 -12 146 -27 160 -34 14 -7 61 -19 105 -25 86 -13 92 -15 237
-60 53 -17 113 -31 132 -31 20 0 53 -9 73 -20 21 -11 44 -20 51 -20 7 0 52
-13 100 -28 48 -16 119 -36 157 -46 72 -18 255 -72 290 -85 11 -5 31 -13 45
-19 23 -9 188 -64 290 -96 25 -8 74 -20 110 -26 36 -6 74 -15 85 -19 41 -18
125 -41 150 -41 25 0 119 -34 218 -79 25 -12 57 -21 72 -21 14 0 33 -4 43 -10
120 -65 424 -129 585 -121 69 3 69 3 48 -112 -4 -26 -4 -50 0 -53 12 -7 11
-121 -1 -129 -5 -3 -8 -18 -8 -33 1 -15 -6 -55 -16 -89 -28 -96 -90 -158 -218
-221 -149 -71 -333 -127 -507 -152 -90 -13 -113 -24 -109 -53 3 -20 11 -23 78
-30 41 -4 98 -5 125 -1 28 3 70 7 95 10 88 7 186 26 230 44 25 9 57 20 73 24
27 6 27 5 26 -31 -3 -54 16 -158 40 -230 12 -34 21 -75 21 -90 0 -15 9 -43 20
-61 12 -19 27 -59 35 -89 8 -31 21 -63 29 -72 18 -20 31 -140 17 -161 -7 -11
-24 -14 -63 -11 -71 5 -124 5 -178 0 -87 -7 -301 12 -364 33 -43 14 -94 21
-173 22 -62 2 -118 8 -125 13 -11 9 -85 26 -172 38 -31 5 -89 21 -121 35 -11
5 -49 14 -85 20 -36 6 -108 25 -160 42 -126 40 -228 67 -234 61 -3 -3 -18 4
-33 15 -18 12 -79 30 -162 46 -74 14 -159 37 -190 50 -31 14 -94 36 -141 50
-90 26 -610 146 -636 146 -8 0 -25 5 -37 12 -12 6 -29 13 -37 14 -45 5 -148
26 -165 33 -24 11 -223 57 -285 66 -25 4 -112 29 -194 56 -82 27 -151 47 -154
45 -2 -3 -16 1 -31 8 -45 23 -367 99 -460 109 -36 4 -52 8 -196 48 -44 12 -98
26 -120 30 -22 4 -67 14 -100 22 -33 8 -98 20 -145 27 -47 6 -139 20 -205 30
-66 11 -174 24 -239 30 -66 6 -138 15 -160 20 -23 4 -75 14 -116 20 -41 6 -97
15 -125 20 -27 6 -115 15 -195 21 -80 6 -194 17 -255 26 -60 8 -130 18 -155
20 -25 3 -49 9 -54 14 -6 5 -15 4 -21 -1 -8 -7 -31 -6 -66 0 -30 6 -112 10
-184 8 -88 -1 -156 4 -210 14 -51 11 -162 19 -305 23 -124 3 -274 9 -335 13
-144 9 -203 9 -630 -1 -198 -5 -485 -10 -637 -12 -166 -2 -293 -8 -319 -15
-28 -8 -104 -11 -209 -9 -200 5 -491 -8 -528 -22 -15 -6 -107 -13 -205 -15
-98 -3 -183 -7 -190 -9 -7 -2 -55 -6 -107 -9 -220 -13 -280 -18 -365 -31 -49
-8 -151 -17 -225 -20 -145 -6 -356 -29 -405 -45 -17 -5 -104 -16 -195 -25
-177 -16 -267 -27 -425 -50 -55 -8 -138 -15 -185 -16 -47 -1 -106 -5 -133 -9
-34 -5 -50 -3 -58 6 -15 18 -43 18 -59 -1 -6 -7 -33 -17 -58 -21 -26 -3 -86
-15 -134 -25 -48 -10 -106 -19 -128 -19 -22 0 -40 -4 -40 -8 0 -4 -8 -8 -17
-9 -19 -2 -46 -6 -146 -23 -34 -6 -90 -15 -125 -20 -34 -6 -81 -14 -105 -19
-23 -5 -86 -15 -139 -21 -53 -6 -139 -20 -190 -31 -93 -21 -247 -49 -368 -69
-36 -6 -99 -21 -140 -35 -41 -13 -104 -34 -140 -45 -36 -12 -90 -28 -120 -36
-30 -8 -64 -18 -75 -23 -11 -6 -62 -26 -113 -45 l-93 -36 -42 19 c-66 30 -154
124 -171 181 -30 104 -36 145 -39 260 -3 145 0 154 61 166 18 4 32 10 32 14 0
14 153 30 245 26 118 -5 207 -16 222 -28 6 -5 31 -11 55 -13 24 -1 76 -6 116
-10 62 -7 72 -5 72 8 0 13 9 16 40 13 25 -2 44 2 51 10 9 11 2 18 -32 33 -30
13 -48 15 -56 9 -9 -8 -13 -6 -13 6 0 9 -8 16 -17 16 -10 0 -37 7 -61 15 -24
9 -62 17 -85 20 -23 2 -87 11 -142 19 -115 18 -248 23 -320 12 -74 -10 -274
-7 -299 6 -11 6 -31 23 -44 39 -17 21 -32 29 -55 29 -33 0 -73 28 -154 106
-47 45 -67 110 -43 139 11 13 11 20 0 40 -16 30 -9 57 35 126 34 55 37 57 103
74 60 15 125 38 232 81 19 8 71 23 116 34 45 11 96 26 115 34 19 8 75 24 124
35 50 12 106 26 125 31 19 5 67 14 105 20 71 11 164 35 200 50 23 10 137 33
246 49 42 7 121 27 175 46 53 19 108 35 120 35 13 0 26 4 29 10 3 5 25 10 48
10 23 0 60 5 82 11 96 24 220 49 247 49 15 0 28 3 28 8 0 4 28 8 63 10 34 1
76 7 92 12 17 5 76 12 133 14 56 3 106 7 110 10 4 2 52 9 107 15 186 21 465
74 530 102 11 4 67 10 125 14 58 3 143 7 190 10 162 9 231 16 258 27 15 7 45
13 67 14 22 1 69 7 105 13 119 19 234 31 355 36 124 6 232 20 274 37 13 5 56
8 95 7 39 0 82 3 96 8 14 5 54 9 90 7 36 -1 88 3 115 8 28 5 75 11 105 13 275
20 377 25 515 25 140 1 270 9 410 26 22 3 114 7 205 8 229 4 452 26 580 57 25
5 79 15 120 21 41 5 80 13 85 16 8 6 81 6 250 2 11 -1 72 2 135 6 63 3 180 8
260 10 80 3 174 8 210 13 36 5 79 6 95 3 17 -3 113 -5 215 -4z m-7715 -341
c55 -15 57 -19 74 -138 13 -97 -8 -157 -84 -235 -53 -54 -170 -134 -196 -134
-5 0 -9 -3 -9 -7 0 -5 -20 -16 -44 -26 -25 -10 -57 -29 -73 -43 -15 -13 -50
-35 -78 -48 -27 -13 -75 -49 -107 -80 l-56 -57 -3 -77 c-1 -42 -2 -100 -2
-128 1 -74 47 -165 123 -245 37 -39 40 -45 24 -56 -9 -7 -21 -10 -26 -7 -6 4
-20 2 -31 -4 -34 -16 -61 -25 -69 -24 -4 1 -25 -5 -45 -13 -41 -15 -180 -45
-213 -45 -11 0 -20 -4 -20 -9 0 -5 -15 -11 -32 -14 -54 -9 -139 -36 -178 -56
-20 -10 -50 -22 -67 -25 -17 -4 -37 -14 -44 -22 -6 -8 -18 -14 -26 -14 -8 0
-27 -8 -41 -19 -45 -30 -114 -66 -167 -85 -27 -10 -59 -21 -70 -26 -11 -4 -29
-12 -40 -16 -11 -4 -40 -15 -65 -24 -25 -10 -90 -34 -144 -54 -55 -19 -104
-40 -110 -46 -5 -5 -18 -10 -27 -10 -10 0 -40 -11 -67 -25 -28 -14 -54 -25
-60 -25 -5 0 -15 -6 -21 -14 -7 -8 -35 -17 -64 -21 -29 -4 -72 -15 -97 -25
-25 -10 -65 -23 -90 -31 -25 -7 -54 -17 -65 -23 -11 -5 -24 -11 -30 -11 -31
-4 -76 -19 -81 -26 -3 -5 -16 -9 -29 -9 -13 0 -34 -4 -47 -9 -97 -37 -200 -59
-303 -66 -39 -3 -117 -12 -175 -20 -58 -9 -143 -18 -190 -21 -47 -2 -98 -8
-115 -13 -33 -10 -138 -20 -280 -27 -49 -2 -133 -7 -185 -10 -138 -8 -381 -5
-463 7 -40 5 -88 12 -107 13 -19 2 -78 11 -130 19 -52 8 -142 18 -200 22 -57
3 -107 10 -110 14 -3 5 -36 16 -75 24 -38 8 -97 23 -130 32 -94 26 -420 82
-516 88 -30 2 -61 7 -69 10 -23 8 -194 27 -297 32 -149 8 -350 -27 -479 -85
-22 -10 -57 -22 -78 -26 -35 -6 -37 -5 -28 12 6 11 53 64 106 119 53 55 96
102 96 105 0 13 151 132 185 145 20 9 38 22 42 30 3 8 18 15 33 15 17 0 58 21
106 53 43 28 98 66 124 83 25 17 63 34 83 38 21 4 53 16 70 27 34 20 103 26
109 9 2 -6 12 -2 24 8 11 11 30 23 42 26 12 4 22 14 22 22 0 8 5 14 12 14 8 0
6 6 -4 17 -13 12 -47 18 -140 25 -68 5 -150 15 -183 23 -33 8 -83 18 -110 21
-28 4 -54 10 -60 14 -5 4 -32 13 -60 20 -27 8 -83 28 -122 47 -40 18 -115 50
-165 72 -121 50 -140 62 -233 149 -43 39 -81 72 -85 72 -4 0 -14 10 -22 23
l-15 22 80 2 c44 1 99 6 121 12 23 6 61 13 86 16 25 2 79 11 120 19 170 34
211 39 348 41 110 2 145 -1 149 -11 2 -7 12 -13 21 -13 9 -1 60 -3 112 -4 184
-7 336 -29 397 -58 23 -11 68 -23 100 -25 32 -3 67 -9 78 -14 11 -5 45 -16 75
-25 30 -9 76 -24 102 -32 28 -9 60 -12 78 -8 19 4 30 3 30 -4 0 -6 11 -11 25
-11 15 0 39 -7 56 -15 16 -9 34 -13 39 -10 5 3 25 -4 46 -15 47 -27 144 -49
234 -53 25 -1 51 -6 58 -11 7 -4 109 -5 225 -2 117 4 304 9 417 11 113 2 225
8 250 14 25 6 82 11 125 12 126 2 330 35 359 57 10 9 74 20 153 28 18 2 53 10
78 19 25 8 56 15 68 15 12 0 44 9 72 19 27 10 82 29 120 40 89 28 168 62 178
78 4 7 15 13 23 13 13 0 60 25 74 40 7 8 111 70 116 70 3 0 14 9 26 19 11 11
76 47 144 81 68 34 126 66 130 71 3 5 15 9 27 9 13 0 31 6 42 13 11 8 58 34
105 58 47 23 106 56 132 72 26 16 65 33 85 38 21 6 47 14 58 18 11 5 36 16 55
24 19 8 73 27 120 42 47 15 92 29 100 32 8 3 27 7 42 9 14 2 49 13 78 24 28
11 62 20 75 20 13 0 54 11 92 24 37 13 95 27 128 30 33 4 103 12 155 20 123
18 302 19 365 3z m195 -360 c0 -34 -7 -50 -19 -42 -10 6 0 75 10 75 5 0 9 -15
9 -33z m14330 -147 c32 -16 206 -37 375 -45 44 -2 134 -8 200 -14 66 -6 192
-13 280 -16 143 -5 352 -27 397 -41 9 -3 36 -7 60 -9 24 -2 79 -11 123 -19 44
-8 119 -22 168 -30 48 -9 120 -27 160 -41 39 -14 122 -42 182 -61 61 -20 151
-50 200 -66 50 -16 126 -42 170 -58 44 -16 127 -43 185 -61 127 -38 260 -85
317 -110 23 -11 48 -19 55 -19 8 0 18 -4 24 -8 5 -5 29 -15 54 -22 25 -7 71
-21 102 -32 32 -10 66 -18 75 -18 10 0 28 -7 41 -15 42 -30 207 -87 307 -106
55 -10 120 -24 145 -29 25 -6 68 -15 95 -20 28 -6 68 -14 90 -19 22 -5 76 -16
120 -25 44 -9 107 -22 140 -29 33 -6 67 -11 75 -10 8 1 62 -5 120 -14 106 -15
377 -20 530 -8 208 16 311 27 342 36 18 6 82 19 141 29 59 11 115 24 125 28 9
5 51 14 92 21 41 7 93 19 115 26 22 7 65 16 95 20 30 3 66 8 80 11 183 36 265
56 330 84 48 20 228 88 320 122 30 11 77 28 104 39 27 10 54 19 62 19 7 0 14
5 16 12 2 6 11 12 20 14 8 1 44 16 79 33 35 17 69 31 74 31 6 0 20 8 31 18 10
9 50 33 87 52 37 19 77 40 89 47 12 7 24 10 27 8 4 -5 -69 -154 -111 -225 -11
-19 -30 -53 -41 -75 -12 -22 -30 -46 -39 -53 -10 -7 -18 -22 -18 -32 0 -10 -4
-22 -10 -25 -5 -3 -28 -36 -50 -74 -22 -37 -67 -94 -100 -127 -68 -67 -119
-114 -126 -114 -3 0 -20 -16 -40 -35 -19 -19 -46 -38 -59 -41 -14 -3 -25 -10
-25 -15 0 -5 -5 -9 -11 -9 -6 0 -34 -15 -62 -33 -84 -54 -127 -77 -146 -77
-10 0 -24 -7 -31 -15 -7 -8 -18 -15 -24 -15 -7 0 -17 -5 -23 -11 -9 -9 -5 -21
15 -48 15 -20 34 -41 42 -48 18 -15 62 -17 76 -3 6 6 31 6 69 0 55 -8 111 -16
205 -26 137 -15 300 -62 339 -98 10 -9 25 -16 33 -16 9 0 21 -7 28 -15 7 -8
19 -15 27 -15 7 0 24 -7 36 -14 12 -8 38 -17 57 -19 20 -2 42 -7 50 -13 37
-23 64 -34 85 -34 12 0 37 -7 54 -16 31 -15 31 -17 13 -28 -62 -36 -103 -56
-114 -56 -7 0 -44 -16 -83 -34 -79 -39 -250 -95 -370 -121 -44 -10 -100 -23
-125 -30 -25 -8 -74 -21 -110 -30 -36 -9 -79 -20 -95 -26 -17 -5 -53 -11 -80
-15 -28 -3 -59 -9 -70 -14 -11 -5 -65 -15 -120 -24 -55 -8 -118 -20 -140 -26
-83 -25 -263 -60 -325 -63 -36 -2 -81 -9 -100 -15 -82 -25 -185 -33 -525 -37
-363 -4 -488 2 -668 31 -54 9 -110 14 -124 11 -15 -3 -49 2 -77 11 -28 9 -62
16 -76 17 -14 1 -77 8 -140 15 -63 7 -128 14 -145 15 -71 8 -121 19 -130 30
-9 12 -54 22 -190 46 -73 12 -86 15 -105 22 -48 17 -86 27 -107 27 -13 0 -48
11 -76 24 -29 14 -88 30 -132 36 -44 6 -93 15 -110 20 -16 5 -59 16 -95 25
-36 9 -96 28 -135 41 -38 13 -84 24 -101 24 -26 0 -97 24 -179 60 -31 13 -111
30 -144 30 -16 0 -32 4 -35 9 -3 5 -20 11 -38 13 -18 3 -94 21 -168 41 -74 20
-164 39 -200 43 -36 4 -87 15 -115 24 -75 27 -136 38 -280 50 -71 7 -173 18
-225 26 -233 36 -718 4 -827 -54 -20 -11 -173 -28 -173 -20 0 2 -5 29 -10 59
-6 30 -14 97 -19 149 -5 52 -12 103 -16 112 -5 13 0 19 22 24 15 4 36 14 46
22 9 8 20 12 24 9 16 -16 88 115 136 248 5 17 17 45 24 63 9 21 14 64 13 115
-1 45 3 107 9 137 20 97 13 137 -30 184 -11 11 -19 23 -19 28 0 4 -9 8 -19 8
-11 0 -21 5 -23 11 -5 14 -95 49 -126 49 -12 0 -40 11 -62 25 -22 14 -42 25
-46 25 -10 0 -134 93 -134 101 0 4 -21 31 -46 61 -25 29 -51 67 -58 83 -12 28
-11 30 13 36 29 7 118 0 141 -11z m-249 -96 c10 -13 10 -23 -4 -62 -10 -26
-17 -62 -17 -79 0 -18 -4 -33 -8 -33 -6 0 -9 154 -4 183 3 12 19 8 33 -9z
m-20771 -1505 c0 -5 -7 -9 -15 -9 -15 0 -20 12 -9 23 8 8 24 -1 24 -14z"/>
<path d="M14430 2845 c-14 -15 -35 -25 -52 -25 -19 0 -33 -8 -44 -26 -17 -25
-16 -26 9 -50 14 -13 32 -24 39 -24 15 0 61 -46 64 -64 1 -6 9 -51 19 -100 9
-50 18 -149 21 -220 2 -72 8 -144 13 -161 5 -16 12 -48 16 -69 8 -47 -2 -56
-66 -56 -57 0 -81 -16 -68 -48 10 -25 35 -37 102 -47 25 -4 48 -13 51 -21 7
-19 45 -18 68 3 13 12 33 16 71 14 68 -3 112 26 102 68 -14 55 -40 67 -97 46
-12 -5 -15 13 -17 92 -1 54 -7 141 -12 193 -5 52 -11 127 -13 165 -3 39 -12
97 -20 130 -23 86 -22 95 14 95 24 0 33 6 41 27 12 33 5 53 -21 60 -11 3 -22
14 -26 25 -6 19 -6 19 -25 -1 -25 -26 -63 -27 -96 -1 -33 26 -45 25 -73 -5z"/>
<path d="M11105 2790 c-10 -11 -25 -20 -34 -20 -9 0 -48 -16 -88 -36 -60 -29
-77 -44 -105 -87 -18 -29 -40 -75 -49 -103 -16 -46 -16 -59 -3 -132 8 -45 25
-121 39 -168 14 -47 25 -94 25 -104 0 -46 181 -270 217 -270 7 0 21 -9 30 -20
10 -11 23 -20 30 -20 6 0 19 -10 28 -22 13 -20 24 -23 73 -22 165 4 189 14
287 111 31 31 72 195 79 315 7 120 -6 174 -79 322 -68 141 -153 226 -225 226
-11 0 -28 4 -38 9 -16 9 -141 41 -160 41 -5 0 -17 -9 -27 -20z m194 -158 c19
-9 39 -26 45 -37 14 -26 26 -34 41 -28 13 4 70 -91 94 -157 7 -19 17 -44 22
-55 15 -35 17 -126 3 -179 -13 -50 -16 -59 -45 -121 -8 -16 -36 -51 -63 -77
-46 -45 -53 -48 -100 -48 -28 0 -64 7 -80 15 -15 8 -34 15 -42 15 -14 0 -84
86 -84 104 0 6 -6 23 -14 37 -7 15 -19 51 -27 80 -7 30 -16 59 -20 64 -29 40
-41 232 -19 291 17 43 49 74 105 100 57 27 124 26 184 -4z"/>
<path d="M13307 2769 c-11 -6 -57 -11 -104 -10 -85 1 -113 -7 -113 -35 0 -17
62 -44 101 -44 33 0 35 -6 14 -46 -8 -16 -15 -36 -15 -44 0 -9 -4 -20 -8 -25
-5 -6 -18 -41 -31 -80 -13 -38 -27 -81 -33 -95 -6 -14 -14 -34 -18 -45 -44
-118 -90 -228 -99 -235 -3 -3 -6 -11 -6 -19 0 -34 -23 -16 -65 51 -78 122 -90
142 -108 178 -10 19 -31 55 -47 79 -17 24 -38 56 -47 70 -27 41 -88 170 -88
186 0 8 6 15 14 15 17 0 30 51 21 81 -6 17 -12 19 -33 14 -15 -4 -52 -13 -82
-21 -30 -7 -82 -22 -114 -33 -33 -12 -67 -21 -78 -21 -24 0 -24 -40 0 -69 15
-19 21 -20 55 -10 35 9 40 8 62 -15 19 -21 55 -76 101 -157 6 -10 17 -27 25
-36 8 -10 23 -34 33 -53 11 -19 53 -84 93 -143 40 -59 73 -111 73 -115 0 -4
13 -22 29 -39 16 -18 34 -47 42 -64 11 -28 10 -33 -6 -45 -10 -8 -28 -14 -39
-14 -49 -1 -74 -50 -35 -70 24 -13 353 -3 381 11 32 17 40 46 21 75 -14 22
-22 25 -50 21 -38 -7 -42 6 -17 54 8 17 16 48 16 69 0 22 7 45 14 51 8 6 14
17 14 25 0 7 9 19 19 26 11 8 23 27 26 43 9 39 42 132 57 159 14 25 17 36 27
96 4 25 15 59 24 75 9 17 23 45 32 63 10 21 22 32 36 32 36 0 59 19 59 49 0
32 -31 51 -74 47 -14 -2 -31 3 -37 10 -14 17 -18 17 -42 3z"/>
<path d="M16388 2744 c-14 -30 -5 -39 53 -48 21 -3 40 -10 43 -15 3 -4 -3 -39
-13 -77 -10 -38 -26 -136 -35 -219 -9 -82 -22 -169 -27 -192 l-11 -42 -42 57
c-23 31 -46 64 -52 73 -5 9 -34 45 -64 79 -30 34 -61 72 -70 85 -15 23 -100
124 -139 166 -19 20 -19 24 -6 39 23 25 20 81 -5 87 -11 3 -20 9 -20 14 0 5
-7 9 -15 9 -8 0 -15 -4 -15 -9 0 -5 -28 -12 -62 -16 -35 -3 -82 -13 -105 -22
-29 -11 -46 -12 -59 -5 -13 7 -26 6 -45 -3 -15 -8 -29 -12 -32 -9 -9 9 -67
-35 -67 -51 0 -19 24 -25 108 -25 42 0 82 -4 89 -8 14 -9 10 -334 -6 -451 -5
-41 -7 -96 -4 -122 l6 -47 -49 -7 c-68 -9 -94 -21 -94 -44 0 -26 27 -40 71
-39 41 2 104 -8 120 -18 24 -14 173 -13 197 2 44 29 11 94 -48 94 -37 0 -75
34 -65 58 4 9 11 58 16 107 28 298 37 348 55 300 3 -8 14 -17 24 -20 11 -3 22
-16 26 -28 4 -12 15 -31 25 -42 70 -76 139 -162 139 -173 0 -6 4 -12 9 -14 10
-3 131 -157 131 -165 0 -3 -14 -18 -31 -34 -34 -32 -31 -45 16 -65 41 -17 261
-46 287 -38 30 9 39 37 20 62 -12 16 -35 25 -80 33 -66 12 -66 13 -26 56 6 6
17 49 24 95 7 46 23 103 35 128 23 45 40 109 56 210 4 30 13 86 20 123 l11 68
44 -2 c60 -4 79 14 58 57 -15 31 -16 31 -110 37 -52 4 -103 11 -112 16 -10 6
-51 12 -90 16 -70 5 -73 5 -84 -21z"/>
<path d="M9505 2589 c-128 -18 -215 -58 -215 -99 0 -22 25 -33 48 -21 9 4 33
11 53 15 35 6 37 5 37 -21 0 -14 6 -31 13 -37 22 -17 69 -111 69 -137 0 -22
35 -163 77 -309 9 -30 24 -73 34 -95 11 -21 24 -66 29 -98 10 -65 23 -87 50
-87 11 0 22 -12 28 -29 11 -30 53 -46 82 -31 9 5 45 12 80 16 36 3 72 10 81
15 9 5 59 13 110 19 52 6 114 17 139 24 25 8 68 19 95 24 91 19 105 28 105 64
0 18 -4 38 -8 44 -14 22 -90 26 -204 10 -62 -9 -149 -15 -193 -14 -44 1 -107
-2 -141 -6 l-61 -9 -18 69 c-10 38 -24 76 -32 85 -7 8 -13 28 -13 43 0 15 -6
39 -13 54 -8 15 -21 56 -31 92 -9 36 -33 97 -52 135 -19 39 -39 92 -44 119 -6
27 -15 57 -21 67 -9 17 -6 19 30 19 22 0 43 5 46 10 3 6 17 10 31 10 28 0 28
-1 8 38 -15 31 -17 32 -77 31 -34 -1 -89 -5 -122 -10z"/>
<path d="M11705 2590 c-11 -18 5 -31 21 -16 8 8 14 17 14 20 0 10 -28 7 -35
-4z"/>
<path d="M17906 2590 c-22 -4 -48 -17 -57 -29 -9 -11 -22 -21 -27 -21 -20 0
-85 -76 -107 -125 -35 -78 -38 -87 -36 -130 1 -22 1 -101 0 -175 -1 -203 19
-292 105 -470 34 -72 66 -120 104 -162 22 -24 34 -28 78 -28 90 0 218 42 231
76 3 7 11 14 19 14 7 0 19 8 26 18 17 22 84 72 97 72 6 0 11 4 11 8 0 5 8 18
18 30 9 11 34 41 55 66 21 25 45 46 52 46 26 0 27 20 4 70 -15 32 -30 52 -43
55 -348 73 -376 75 -376 21 0 -33 70 -90 103 -85 15 3 107 -12 107 -17 0 -2
-22 -26 -49 -53 -129 -128 -225 -171 -287 -129 -26 18 -34 33 -47 92 -40 176
-49 386 -21 454 56 132 87 166 176 193 49 15 56 15 97 0 33 -12 49 -26 67 -59
29 -52 30 -62 3 -62 -56 0 -81 -52 -33 -70 14 -6 38 -10 54 -10 16 0 55 -7 87
-15 82 -21 101 -20 115 11 16 34 2 54 -50 72 -40 13 -42 16 -42 54 0 39 -21
79 -62 120 -9 9 -26 34 -37 55 -10 21 -32 49 -48 63 -56 50 -179 71 -287 50z"/>
<path d="M17080 2071 c0 -5 6 -11 13 -13 17 -7 38 2 31 13 -7 12 -44 12 -44 0z"/>
<path d="M17420 1330 c0 -5 5 -10 10 -10 6 0 10 5 10 10 0 6 -4 10 -10 10 -5
0 -10 -4 -10 -10z"/>
<path d="M19337 1054 c-10 -11 3 -24 24 -24 23 0 25 15 3 24 -19 7 -19 7 -27
0z"/>
<path d="M27974 557 c-8 -22 3 -37 27 -37 24 0 24 12 -1 35 -17 16 -20 16 -26
2z"/>
<path d="M22474 2855 c-8 -19 3 -35 25 -35 26 0 44 23 29 38 -17 17 -47 15
-54 -3z"/>
<path d="M21391 2644 c0 -11 3 -14 6 -6 3 7 2 16 -1 19 -3 4 -6 -2 -5 -13z"/>
</g>
</svg>
