<?xml version="1.0" standalone="no"?>
<!DOCTYPE svg PUBLIC "-//W3C//DTD SVG 20010904//EN"
 "http://www.w3.org/TR/2001/REC-SVG-20010904/DTD/svg10.dtd">
<svg version="1.0" xmlns="http://www.w3.org/2000/svg"
 width="100.000000pt" height="86.818981pt" viewBox="0 0 100.000000 86.818981"
 preserveAspectRatio="xMidYMid meet">
<metadata>
Created by potrace 1.11, written by Peter Selinger 2001-2013
</metadata>
<g transform="translate(0.000000,86.818981) scale(0.017575,-0.017575)"
fill="#000000" stroke="none">
<path d="M1725 4925 c-71 -5 -135 -13 -142 -18 -6 -4 -31 -10 -55 -13 -82 -9
-113 -16 -173 -36 -75 -25 -196 -57 -255 -67 -25 -4 -54 -12 -65 -18 -29 -17
-115 -43 -141 -43 -12 0 -27 -7 -34 -15 -7 -8 -23 -15 -37 -15 -13 0 -37 -7
-54 -15 -16 -9 -59 -19 -94 -22 -36 -3 -65 -10 -65 -14 0 -5 -16 -9 -35 -9
-19 0 -35 -4 -35 -10 0 -5 -17 -10 -37 -10 -44 -1 -103 -47 -103 -80 0 -11 -4
-20 -10 -20 -5 0 -12 -16 -16 -35 -3 -20 -12 -35 -20 -35 -9 0 -14 -12 -14
-34 0 -19 -9 -56 -20 -81 -27 -63 -48 -226 -34 -263 7 -17 7 -38 2 -51 -4 -13
-4 -30 1 -40 5 -9 12 -50 16 -91 5 -66 31 -174 55 -235 23 -55 29 -106 34
-286 5 -154 4 -207 -8 -250 -18 -70 -26 -89 -46 -119 -10 -14 -32 -59 -49
-100 -18 -41 -39 -82 -47 -91 -7 -8 -14 -24 -14 -34 0 -10 -9 -36 -19 -59 -33
-71 -61 -215 -61 -313 0 -51 5 -95 10 -98 6 -3 10 -16 11 -28 0 -12 9 -35 20
-52 10 -16 23 -41 29 -55 6 -14 22 -47 35 -75 40 -85 73 -168 79 -201 5 -32
35 -97 100 -216 20 -37 36 -73 36 -80 0 -8 9 -21 20 -31 11 -9 20 -24 20 -32
0 -8 4 -23 10 -33 5 -9 17 -33 25 -52 9 -19 25 -53 37 -75 49 -93 62 -207 41
-355 -10 -65 -14 -79 -38 -135 -8 -16 -17 -43 -21 -60 -3 -16 -15 -39 -25 -50
-10 -11 -25 -37 -34 -58 -8 -21 -27 -47 -40 -59 -14 -12 -30 -40 -36 -62 -6
-23 -24 -79 -42 -125 -25 -69 -37 -87 -64 -103 -30 -18 -33 -24 -33 -69 0 -46
2 -49 25 -49 14 0 25 5 25 10 0 6 7 10 15 10 8 0 15 4 15 10 0 5 18 13 40 16
22 4 40 10 40 14 0 4 39 10 88 14 48 4 114 9 147 12 88 9 227 -13 301 -47 34
-16 74 -29 88 -29 15 0 34 -4 44 -9 9 -6 51 -22 92 -37 41 -15 84 -33 95 -41
11 -7 27 -13 35 -13 9 0 42 -13 73 -29 31 -16 78 -32 104 -36 26 -4 53 -11 60
-17 7 -5 18 -8 25 -5 7 2 31 -2 53 -10 22 -8 71 -16 108 -19 38 -3 78 -9 90
-13 12 -5 40 -7 62 -5 22 1 67 -4 100 -12 84 -19 431 -20 438 0 6 15 103 49
118 41 5 -4 23 1 40 9 17 9 54 19 83 22 28 4 71 18 95 31 24 12 52 23 61 23
10 0 23 7 30 15 7 8 25 15 41 15 16 0 46 6 66 14 21 8 52 17 68 21 40 8 105
37 105 46 0 4 16 10 36 14 20 3 44 10 53 15 9 5 60 18 114 31 85 19 113 21
218 15 74 -4 129 -12 142 -20 12 -8 33 -14 47 -14 14 0 48 -10 75 -22 46 -21
194 -65 257 -77 15 -3 33 -11 39 -19 6 -8 18 -14 25 -14 7 0 39 -11 71 -26 32
-14 79 -27 104 -28 26 -2 52 -6 57 -10 6 -3 30 -7 54 -8 23 0 46 -5 49 -10 14
-22 240 -38 339 -23 25 3 83 7 130 9 70 3 147 11 272 30 9 1 22 7 30 13 13 11
51 17 171 29 37 4 67 11 67 15 0 5 20 9 44 9 27 0 48 6 56 15 7 8 27 19 44 23
l31 9 -2 68 c-2 38 -6 71 -11 74 -5 3 -14 33 -20 65 -7 33 -23 79 -37 103 -14
23 -24 43 -21 43 12 0 -30 79 -65 123 -21 27 -41 65 -45 85 -4 21 -15 49 -25
64 -11 14 -19 42 -19 62 0 22 -9 49 -22 67 -21 29 -23 41 -23 177 1 113 5 161
19 207 10 33 20 74 23 90 3 17 14 41 24 54 11 13 19 28 19 34 0 6 9 20 20 32
18 19 35 69 73 215 7 25 12 90 12 145 0 81 -4 109 -21 145 -12 25 -25 61 -29
80 -4 19 -21 58 -39 85 -17 28 -37 61 -44 75 -7 14 -29 43 -48 64 -19 22 -41
54 -49 72 -7 18 -26 45 -42 61 -30 30 -47 68 -68 152 -7 29 -22 66 -34 82 -33
44 -56 223 -32 253 4 6 17 39 27 73 10 35 22 63 27 63 4 0 7 6 7 14 0 7 9 25
20 39 11 14 20 31 20 38 0 6 11 26 24 43 13 17 26 41 30 54 4 12 18 34 30 50
13 15 26 48 30 75 4 26 11 47 17 47 5 0 9 11 9 24 0 15 7 27 18 30 13 5 17 18
19 56 1 28 9 70 18 94 22 57 15 298 -10 366 -9 25 -23 66 -30 93 -8 26 -17 52
-21 58 -3 6 -15 45 -25 86 -11 44 -29 87 -44 105 -14 16 -25 38 -25 48 0 10
-4 22 -10 25 -5 3 -26 38 -46 78 -20 40 -39 74 -44 77 -4 3 -10 21 -14 41 -4
21 -13 42 -21 49 -8 7 -15 23 -15 35 0 13 -11 32 -25 43 -14 11 -25 25 -25 31
0 6 -9 11 -20 11 -12 0 -32 11 -46 25 -14 14 -31 25 -39 25 -8 0 -15 7 -15 15
0 11 -11 15 -40 15 -22 0 -40 -4 -40 -10 0 -5 -11 -10 -25 -10 -16 0 -25 -6
-25 -15 0 -10 -10 -15 -34 -15 -19 0 -37 -4 -41 -9 -3 -5 -18 -12 -34 -16 -17
-3 -65 -21 -108 -39 -43 -18 -104 -40 -135 -50 -31 -10 -66 -26 -78 -36 -11
-10 -35 -23 -53 -30 -17 -7 -57 -24 -87 -37 -116 -53 -263 -96 -460 -134 -30
-6 -66 -13 -80 -16 -55 -13 -315 -1 -400 17 -47 10 -134 29 -195 41 -100 19
-198 51 -250 81 -10 6 -42 16 -70 23 -27 7 -66 19 -85 25 -19 7 -42 15 -50 18
-8 3 -44 15 -80 28 -36 13 -71 24 -78 24 -8 0 -30 7 -50 16 -21 9 -46 20 -57
24 -11 4 -42 18 -68 29 -27 12 -63 24 -80 28 -18 3 -36 9 -42 13 -5 4 -25 11
-42 15 -18 3 -33 11 -33 16 0 5 -13 9 -29 9 -16 0 -58 7 -92 16 -35 9 -80 14
-101 11 -20 -3 -52 -2 -70 2 -18 3 -91 2 -163 -4z m110 -137 c6 0 33 3 61 5
28 3 76 2 105 -2 52 -8 198 -45 229 -58 8 -4 22 -7 30 -9 8 -1 45 -16 82 -33
36 -17 71 -31 78 -31 6 0 30 -9 52 -20 23 -11 56 -20 74 -20 17 0 37 -6 43
-14 11 -13 32 -19 109 -33 19 -3 36 -11 39 -19 2 -7 30 -18 61 -24 32 -6 70
-21 85 -32 16 -11 37 -18 48 -15 10 3 22 1 25 -4 3 -5 16 -9 29 -9 13 0 26 -4
29 -9 6 -10 61 -21 117 -24 20 -2 48 -11 64 -21 16 -10 65 -24 110 -31 45 -6
87 -15 93 -19 18 -11 270 -15 376 -5 63 6 114 16 141 29 23 11 57 20 76 21 57
1 146 23 166 42 11 9 28 17 39 17 29 0 222 65 264 88 35 20 92 50 142 74 10 4
23 8 28 8 6 0 29 9 50 19 22 10 62 24 90 31 l52 12 40 -38 c22 -22 47 -54 54
-71 8 -18 18 -33 22 -33 4 0 16 -16 26 -35 11 -19 22 -35 26 -35 4 0 13 -13
20 -30 7 -16 16 -30 20 -30 5 0 21 -25 36 -56 15 -31 42 -74 61 -96 18 -22 33
-46 33 -53 0 -7 7 -19 16 -26 9 -7 26 -33 39 -59 12 -25 39 -78 59 -119 l37
-73 -16 -163 c-8 -89 -15 -172 -15 -184 0 -26 -24 -27 -65 -3 -17 11 -48 22
-70 26 -22 4 -53 14 -70 21 -37 17 -72 27 -105 32 -14 2 -59 8 -100 14 -259
36 -413 32 -605 -17 -127 -31 -141 -36 -180 -54 -70 -33 -220 -90 -235 -90 -8
0 -28 -9 -45 -20 -16 -11 -40 -20 -53 -20 -12 0 -30 -4 -40 -9 -70 -37 -174
-81 -191 -81 -11 0 -22 -4 -25 -9 -4 -5 -25 -12 -49 -16 -23 -4 -55 -13 -72
-20 -16 -7 -66 -20 -110 -30 -44 -9 -94 -20 -111 -26 -17 -5 -46 -9 -66 -9
-19 0 -53 -6 -75 -14 -64 -22 -486 -40 -628 -26 -63 6 -129 15 -147 21 -18 5
-61 9 -95 9 -34 0 -65 5 -68 10 -4 6 -31 9 -63 7 -31 -2 -73 2 -92 9 -34 12
-108 25 -140 25 -20 0 -112 18 -185 36 -33 8 -87 19 -120 23 -66 8 -145 29
-159 42 -6 4 -22 8 -37 8 -38 0 -169 30 -201 46 -15 8 -33 11 -41 8 -8 -3 -44
7 -81 22 -37 14 -80 27 -96 28 -16 1 -32 4 -35 8 -4 4 -28 4 -55 1 -34 -4 -54
-1 -72 11 -22 15 -26 27 -36 109 -10 86 -38 172 -67 207 -11 13 -39 93 -66
186 -15 50 -10 99 15 171 13 37 26 94 28 125 5 62 27 98 60 98 10 0 31 6 46
14 15 8 46 17 67 21 62 11 75 15 75 29 0 14 67 46 97 46 11 0 31 8 44 19 13
10 40 23 59 29 156 47 186 56 200 57 15 1 82 20 185 53 28 9 57 17 65 18 8 1
38 9 65 18 28 9 82 16 120 17 39 0 79 4 90 9 11 5 34 7 50 4 17 -3 35 -6 40
-6z m3020 -1226 c17 -6 73 -20 125 -32 120 -27 240 -71 240 -88 0 -14 -16 -45
-42 -81 -10 -13 -18 -31 -18 -40 0 -10 -27 -42 -60 -72 -32 -30 -59 -62 -60
-72 0 -9 -4 -25 -9 -35 -5 -9 -12 -25 -15 -36 -5 -15 -12 -17 -44 -11 -20 4
-50 13 -67 20 -37 17 -72 27 -105 32 -14 2 -59 8 -100 14 -259 36 -413 32
-605 -17 -127 -31 -141 -36 -180 -54 -70 -33 -220 -90 -235 -90 -8 0 -28 -9
-45 -20 -16 -11 -40 -20 -53 -20 -12 0 -30 -4 -40 -9 -70 -37 -174 -81 -191
-81 -11 0 -22 -4 -25 -9 -4 -5 -25 -12 -49 -16 -23 -4 -55 -13 -72 -20 -16 -7
-66 -20 -110 -30 -44 -9 -94 -20 -111 -26 -17 -5 -46 -9 -66 -9 -19 0 -53 -6
-75 -14 -64 -22 -486 -40 -628 -26 -63 6 -129 15 -147 21 -18 5 -61 9 -95 9
-34 0 -65 5 -68 10 -4 6 -31 9 -63 7 -31 -2 -73 2 -92 9 -34 12 -108 25 -140
25 -20 0 -112 18 -185 36 -33 8 -87 19 -120 23 -66 8 -145 29 -160 42 -5 4
-21 8 -36 8 -38 0 -169 30 -201 46 -15 8 -33 11 -41 8 -8 -3 -44 7 -81 22 -37
14 -80 27 -96 28 -16 1 -32 5 -36 9 -4 3 -24 4 -45 1 l-38 -6 10 33 c6 19 18
63 25 99 8 36 22 83 30 105 9 22 19 60 23 85 6 44 7 45 46 46 22 1 48 5 58 9
25 11 124 -1 150 -17 29 -18 180 -54 206 -49 8 1 35 -6 60 -17 65 -28 103 -38
211 -57 52 -9 138 -26 190 -37 52 -11 124 -24 160 -29 36 -5 103 -16 150 -24
47 -9 110 -18 140 -20 86 -8 121 -13 173 -25 27 -6 51 -9 55 -6 4 2 32 0 62
-6 70 -12 323 -11 549 2 211 12 236 15 326 45 39 12 108 28 155 35 106 15 326
85 360 115 8 7 31 16 50 20 19 4 48 14 63 22 16 8 55 23 87 33 32 10 76 28 98
39 23 12 50 21 60 21 11 0 25 7 32 15 7 8 21 15 31 15 11 0 27 4 37 9 9 5 31
14 47 21 17 7 44 18 60 26 17 7 72 18 123 23 52 5 99 14 105 21 15 15 306 8
352 -8z m-170 -530 c17 -6 73 -20 125 -32 52 -12 110 -27 127 -33 l33 -11 -3
-120 c-2 -130 -5 -118 65 -248 14 -25 43 -65 64 -88 22 -22 47 -55 56 -72 9
-17 28 -43 41 -57 21 -22 42 -71 32 -71 -2 0 -50 -9 -107 -19 -163 -31 -169
-31 -258 -40 -47 -5 -114 -13 -150 -19 -36 -6 -108 -9 -160 -7 -52 2 -118 4
-146 4 -27 0 -86 7 -130 17 -43 9 -101 20 -129 24 -27 5 -102 27 -165 49 -63
22 -129 40 -145 41 -17 0 -35 4 -40 9 -25 23 -182 78 -290 101 -22 4 -58 15
-80 24 -44 17 -250 23 -259 8 -3 -5 -42 -12 -86 -15 -45 -4 -100 -15 -123 -25
-23 -10 -62 -24 -87 -31 -25 -8 -74 -25 -110 -39 -36 -14 -94 -33 -130 -43
-132 -36 -146 -40 -180 -58 -44 -24 -169 -61 -202 -61 -14 0 -56 -11 -93 -25
-45 -17 -85 -25 -119 -24 -28 1 -127 1 -219 0 -93 -1 -173 2 -179 5 -6 4 -38
11 -72 15 -286 39 -397 67 -552 140 -34 16 -68 29 -75 29 -8 0 -26 6 -40 14
-14 7 -52 21 -85 31 -32 10 -108 35 -167 57 -60 21 -112 36 -116 34 -13 -9
-145 14 -152 26 -13 21 8 187 26 208 7 8 15 26 18 40 4 14 26 47 50 74 36 39
46 46 53 33 10 -18 41 -23 67 -12 25 11 124 -1 150 -17 29 -18 180 -54 206
-49 8 1 35 -6 60 -17 65 -28 103 -38 211 -57 52 -9 138 -26 190 -37 52 -11
124 -24 160 -29 36 -5 103 -16 150 -24 47 -9 110 -18 140 -20 86 -8 121 -13
173 -25 27 -6 51 -9 55 -6 4 2 32 0 62 -6 70 -12 323 -11 549 2 211 12 236 15
326 45 39 12 108 28 155 35 106 15 326 85 360 115 8 7 31 16 50 20 19 4 48 14
63 22 16 8 55 23 87 33 32 10 76 28 98 39 23 12 50 21 60 21 11 0 25 7 32 15
7 8 21 15 31 15 11 0 27 4 37 9 9 5 31 14 47 21 17 7 44 18 60 26 17 7 72 18
123 23 52 5 99 14 105 21 15 15 306 8 352 -8z m-4180 -658 c28 -4 78 -20 112
-35 34 -16 76 -29 95 -29 19 0 38 -4 43 -8 6 -5 48 -21 95 -37 47 -15 94 -34
105 -42 11 -7 27 -13 35 -13 9 0 42 -13 73 -29 31 -16 78 -32 104 -36 26 -4
54 -11 60 -17 7 -6 19 -8 28 -5 8 4 34 -1 57 -9 24 -8 75 -17 115 -20 39 -2
82 -8 95 -13 13 -5 41 -7 63 -5 22 1 67 -4 100 -12 86 -20 451 -20 458 0 7 17
65 37 125 41 24 2 49 8 56 14 6 5 36 13 66 17 30 4 75 18 99 31 24 12 51 23
60 23 9 0 25 7 35 15 11 8 31 15 45 15 14 0 46 7 71 15 25 8 71 22 103 31 33
10 64 23 71 29 7 7 27 16 46 20 19 4 41 11 50 15 8 5 59 18 113 31 86 19 113
21 228 15 82 -4 139 -12 152 -20 12 -8 33 -14 47 -14 14 0 48 -10 75 -22 44
-20 187 -61 267 -77 15 -3 33 -11 39 -19 6 -8 20 -14 30 -14 10 0 44 -11 76
-26 32 -14 78 -27 103 -29 25 -3 65 -9 89 -14 25 -5 51 -7 59 -4 8 3 17 1 21
-6 16 -25 243 -42 351 -26 25 3 86 7 135 9 77 3 197 16 283 31 13 2 29 8 35
13 13 10 62 18 185 30 70 7 73 7 78 -15 3 -12 12 -27 20 -34 8 -6 14 -21 14
-33 0 -12 7 -31 15 -42 8 -10 15 -36 15 -56 0 -20 4 -39 9 -43 15 -9 24 -110
12 -132 -5 -11 -11 -37 -13 -57 -1 -20 -8 -42 -15 -48 -7 -6 -13 -17 -13 -26
0 -8 -11 -29 -23 -46 -13 -17 -30 -49 -36 -71 -7 -22 -22 -58 -32 -81 -10 -22
-19 -45 -19 -51 0 -7 -8 -14 -17 -16 -73 -20 -163 -35 -278 -47 -49 -5 -112
-13 -140 -18 -27 -6 -93 -8 -145 -6 -52 2 -118 3 -146 3 -28 0 -84 7 -125 16
-41 9 -96 20 -124 25 -27 4 -101 26 -163 49 -62 23 -123 41 -134 41 -21 0 -81
24 -141 57 -28 15 -96 35 -182 53 -22 4 -58 15 -80 24 -44 16 -240 23 -249 7
-3 -4 -39 -11 -81 -14 -41 -4 -92 -14 -113 -23 -20 -8 -57 -22 -82 -31 -25 -8
-79 -27 -120 -43 -41 -15 -115 -40 -165 -55 -49 -14 -106 -35 -125 -44 -47
-25 -163 -61 -193 -61 -14 0 -55 -11 -92 -25 -41 -16 -86 -25 -114 -24 -25 0
-119 0 -209 0 -90 -1 -168 2 -174 5 -6 4 -38 11 -72 15 -247 33 -378 67 -532
140 -34 16 -68 29 -76 29 -7 0 -22 6 -33 14 -11 7 -47 21 -80 31 -33 9 -100
33 -148 52 -55 21 -112 36 -150 39 -99 6 -100 7 -121 73 -10 33 -24 66 -32 72
-8 6 -14 17 -14 25 0 7 -13 28 -29 46 -15 18 -32 44 -36 58 -4 14 -13 32 -20
40 -7 8 -27 49 -45 90 -17 41 -35 79 -41 85 -5 5 -9 19 -9 31 0 13 -4 25 -9
28 -7 5 -16 30 -27 86 -2 8 -6 37 -10 64 l-7 49 34 -6 c19 -3 57 -9 84 -13z
m392 -885 c34 -16 73 -29 87 -29 15 0 34 -4 44 -9 9 -6 51 -22 92 -37 41 -15
84 -33 95 -41 11 -7 27 -13 35 -13 9 0 42 -13 73 -29 31 -16 78 -32 104 -36
26 -4 53 -11 60 -17 7 -5 18 -8 25 -5 7 2 31 -2 53 -10 22 -8 71 -16 108 -19
38 -3 78 -9 90 -13 12 -5 40 -7 62 -5 22 1 67 -4 100 -12 84 -19 431 -20 438
0 6 15 103 49 118 41 5 -4 23 1 40 9 17 9 54 19 83 22 28 4 71 18 95 31 24 12
52 23 61 23 10 0 23 7 30 15 7 8 25 15 41 15 16 0 46 6 66 14 21 8 52 17 68
21 40 8 105 37 105 46 0 4 16 10 36 14 20 3 44 10 53 15 9 5 60 18 114 31 85
19 113 21 218 15 74 -4 129 -12 142 -20 12 -8 33 -14 47 -14 14 0 48 -10 75
-22 46 -21 194 -65 257 -77 15 -3 33 -11 39 -19 6 -8 18 -14 25 -14 7 0 39
-11 71 -26 32 -14 79 -27 104 -28 26 -2 52 -6 57 -10 6 -3 30 -7 54 -8 23 0
46 -5 49 -10 14 -22 240 -38 339 -23 25 3 83 7 130 9 71 3 148 11 273 30 9 1
23 8 29 14 11 11 68 17 68 7 0 -2 -5 -16 -12 -30 -8 -19 -8 -31 1 -51 9 -20 9
-30 0 -40 -7 -8 -8 -30 -5 -56 4 -24 9 -72 11 -108 5 -75 23 -157 42 -185 21
-31 16 -52 -14 -60 -47 -12 -134 -25 -228 -35 -49 -5 -112 -13 -140 -18 -27
-6 -93 -8 -145 -6 -52 2 -118 3 -146 3 -28 0 -84 7 -125 16 -41 9 -96 20 -124
25 -27 4 -101 26 -163 49 -62 23 -123 41 -134 41 -21 0 -81 24 -141 57 -28 15
-96 35 -182 53 -22 4 -58 15 -80 24 -44 16 -240 23 -249 7 -3 -4 -39 -11 -81
-14 -41 -4 -92 -14 -113 -23 -20 -8 -57 -22 -82 -31 -25 -8 -79 -27 -120 -43
-41 -15 -115 -40 -165 -55 -49 -14 -106 -35 -125 -44 -47 -25 -163 -61 -193
-61 -14 0 -55 -11 -92 -25 -41 -16 -86 -25 -114 -24 -25 0 -119 0 -209 0 -90
-1 -168 2 -174 5 -6 4 -38 11 -72 15 -247 33 -378 67 -532 140 -34 16 -68 29
-76 29 -7 0 -22 6 -33 14 -11 7 -47 21 -80 31 -33 9 -100 33 -150 53 -49 19
-106 36 -125 37 -67 4 -71 5 -66 14 3 5 6 64 5 132 0 68 0 137 1 153 0 16 -6
36 -13 45 -8 9 -18 34 -22 56 -4 22 -11 45 -16 52 -6 6 -14 25 -19 43 l-9 31
47 -7 c26 -4 75 -20 109 -35z m75 -642 c31 -15 68 -27 82 -27 15 0 34 -4 44
-9 9 -6 51 -22 92 -37 41 -15 84 -33 95 -41 11 -7 27 -13 35 -13 9 0 42 -13
73 -29 31 -16 78 -32 104 -36 26 -4 53 -11 60 -17 7 -5 18 -8 25 -5 7 2 31 -2
53 -10 22 -8 71 -16 108 -19 38 -3 78 -9 90 -13 12 -5 40 -7 62 -5 22 1 67 -4
100 -12 84 -19 431 -20 438 0 6 15 103 49 118 41 5 -4 23 1 40 9 17 9 54 19
83 22 28 4 71 18 95 31 24 12 52 23 61 23 10 0 23 7 30 15 7 8 25 15 41 15 16
0 46 6 66 14 21 8 52 17 68 21 40 8 105 37 105 46 0 4 16 10 36 14 20 3 44 10
53 15 9 5 60 18 114 31 85 19 113 21 218 15 74 -4 129 -12 142 -20 12 -8 33
-14 47 -14 14 0 48 -10 75 -22 46 -21 194 -65 257 -77 15 -3 33 -11 39 -19 6
-8 18 -14 25 -14 7 0 39 -11 71 -26 32 -14 79 -27 104 -28 26 -2 52 -6 57 -10
6 -3 30 -7 54 -8 23 0 46 -5 49 -10 14 -22 240 -38 339 -23 25 3 83 7 130 9
71 3 148 11 273 30 9 1 23 8 29 14 7 7 29 12 49 12 34 0 39 -4 57 -42 11 -24
25 -60 32 -80 6 -20 16 -38 22 -40 18 -6 80 -192 76 -228 -3 -26 1 -24 -148
-56 -120 -25 -179 -34 -275 -44 -49 -5 -112 -13 -140 -18 -27 -6 -93 -8 -145
-6 -52 2 -118 3 -146 3 -28 0 -84 7 -125 16 -41 9 -96 20 -124 25 -27 4 -101
26 -163 49 -62 23 -123 41 -134 41 -21 0 -81 24 -141 57 -28 15 -96 35 -182
53 -22 4 -58 15 -80 24 -44 16 -240 23 -249 7 -3 -4 -39 -11 -81 -14 -41 -4
-92 -14 -113 -23 -20 -8 -57 -22 -82 -31 -25 -8 -79 -27 -120 -43 -41 -15
-115 -40 -165 -55 -49 -14 -106 -35 -125 -44 -47 -25 -163 -61 -193 -61 -14 0
-55 -11 -92 -25 -41 -16 -86 -25 -114 -24 -25 0 -119 0 -209 0 -90 -1 -168 2
-174 5 -6 4 -38 11 -72 15 -247 33 -378 67 -532 140 -34 16 -68 29 -76 29 -7
0 -22 6 -33 14 -11 7 -47 21 -80 31 -33 9 -100 33 -148 52 -58 23 -112 36
-155 39 -37 3 -83 9 -102 13 -30 8 -91 7 -132 -1 -17 -4 -22 40 -7 58 7 9 14
38 15 66 1 28 6 53 11 57 14 10 81 154 89 191 13 65 18 68 98 55 39 -6 97 -24
128 -38z"/>
<path d="M3680 4245 c-6 -14 -10 -30 -10 -34 0 -5 -7 -14 -15 -21 -9 -8 -15
-29 -15 -56 0 -23 -4 -46 -10 -49 -6 -4 -10 12 -10 40 0 31 -5 47 -15 51 -8 4
-15 10 -15 15 0 5 -12 23 -27 39 -32 36 -82 42 -90 10 -3 -11 -9 -20 -14 -20
-14 0 -10 -20 9 -48 17 -25 18 -43 11 -212 -7 -200 -9 -192 49 -294 29 -50 56
-76 79 -76 10 0 13 27 13 118 0 75 4 112 9 102 6 -8 8 -17 5 -21 -2 -4 3 -12
11 -19 8 -7 15 -22 15 -34 0 -43 23 -100 51 -128 23 -24 32 -27 48 -19 43 24
60 109 34 171 -6 14 -14 41 -18 60 -9 42 -73 143 -86 135 -15 -10 -10 11 6 25
8 6 17 21 21 33 3 11 19 31 35 45 16 13 29 30 29 38 0 7 10 18 21 25 18 9 21
17 16 51 -3 23 -9 44 -14 47 -4 3 -13 15 -19 26 -8 14 -23 21 -53 23 -36 3
-42 0 -51 -23z"/>
<path d="M1813 4212 c-16 -2 -23 -10 -23 -25 0 -13 -7 -32 -15 -43 -19 -29
-26 -353 -8 -376 7 -8 17 -38 24 -66 6 -29 16 -52 23 -52 7 0 23 -11 36 -25
34 -36 64 -32 107 16 46 51 63 83 63 120 0 19 5 29 15 29 8 0 15 -6 15 -13 0
-8 9 -22 20 -32 11 -10 20 -26 20 -37 0 -10 6 -18 14 -18 7 0 16 -9 19 -20 14
-54 167 -52 167 2 0 5 9 21 20 35 13 17 20 41 20 72 0 25 7 59 15 75 11 20 12
33 5 40 -12 12 -13 49 -1 61 8 9 31 144 31 180 0 18 -72 65 -98 65 -43 0 -50
-26 -54 -196 -3 -116 -8 -166 -17 -178 -7 -9 -10 -16 -6 -16 4 0 2 -7 -6 -16
-11 -14 -15 -13 -31 8 -9 13 -18 30 -18 39 0 8 -16 31 -36 50 -19 18 -47 53
-62 76 -21 34 -33 42 -65 47 -65 11 -79 -9 -76 -115 2 -87 -12 -144 -25 -103
-10 32 -9 123 3 263 6 74 9 136 7 138 -8 9 -63 18 -83 15z"/>
<path d="M3143 4207 c-29 -5 -53 -14 -53 -18 0 -5 -6 -9 -12 -9 -17 0 -108
-99 -108 -117 0 -15 -29 -74 -41 -83 -22 -17 -44 -176 -29 -215 16 -41 97
-134 123 -140 29 -8 211 22 215 35 2 5 10 10 17 10 20 0 62 48 60 68 -2 19
-13 50 -24 72 -5 8 -22 19 -39 24 -26 7 -35 4 -58 -17 -50 -47 -154 -60 -154
-19 0 17 59 42 98 42 10 0 22 3 26 8 4 4 11 7 14 8 4 0 20 6 35 12 15 7 39 15
52 18 13 3 26 12 29 20 3 8 11 14 19 14 7 0 29 16 48 36 31 32 34 40 33 90 -1
42 -8 62 -29 90 -16 20 -36 39 -47 42 -10 2 -18 8 -18 12 0 4 -17 11 -37 14
-21 4 -45 8 -53 10 -8 2 -39 -1 -67 -7z m100 -145 c-2 -10 -21 -24 -41 -32
-20 -7 -43 -15 -49 -17 -30 -11 -10 25 25 45 47 27 72 29 65 4z"/>
<path d="M2633 4170 c-13 -5 -23 -16 -23 -25 0 -8 -6 -15 -14 -15 -18 0 -101
-66 -101 -82 -2 -22 -17 -52 -39 -76 -17 -19 -22 -39 -25 -108 -2 -51 1 -90 8
-97 7 -9 7 -17 1 -23 -7 -7 9 -31 46 -72 45 -50 59 -60 70 -51 11 9 20 8 39
-5 34 -22 88 -21 110 4 9 10 37 22 61 26 24 3 44 10 44 15 0 5 11 14 25 21 45
20 41 108 -5 108 -18 0 -57 -17 -70 -30 -3 -3 -25 -14 -50 -24 -25 -10 -53
-22 -62 -27 -10 -5 -26 -9 -37 -9 -36 0 -70 81 -57 135 5 20 12 25 39 25 18 0
38 -5 45 -12 9 -9 17 -9 36 2 14 7 34 10 46 7 32 -8 130 97 130 140 0 32 -36
115 -53 122 -4 1 -19 14 -31 28 -26 28 -94 40 -133 23z m72 -161 c0 -32 -3
-34 -43 -43 -23 -5 -45 -6 -49 -3 -9 9 14 57 27 57 7 0 18 7 27 15 23 23 38
13 38 -26z"/>
<path d="M2 2840 c0 -14 2 -19 5 -12 2 6 2 18 0 25 -3 6 -5 1 -5 -13z"/>
</g>
</svg>
