<?xml version="1.0" standalone="no"?>
<!DOCTYPE svg PUBLIC "-//W3C//DTD SVG 20010904//EN"
 "http://www.w3.org/TR/2001/REC-SVG-20010904/DTD/svg10.dtd">
<svg version="1.0" xmlns="http://www.w3.org/2000/svg"
 width="100.000000pt" height="30.747922pt" viewBox="0 0 100.000000 30.747922"
 preserveAspectRatio="xMidYMid meet">
<metadata>
Created by potrace 1.11, written by Peter Selinger 2001-2013
</metadata>
<g transform="translate(0.000000,30.747922) scale(0.009234,-0.009234)"
fill="#000000" stroke="none">
<path d="M1735 3048 c-33 -5 -87 -12 -120 -16 -64 -8 -73 -18 -61 -68 10 -39
42 -64 81 -64 28 0 37 -5 49 -28 17 -33 33 -173 41 -352 3 -69 9 -150 14 -180
5 -30 9 -66 9 -80 0 -14 4 -131 8 -260 l7 -234 -83 77 c-46 42 -100 103 -121
134 -20 32 -76 100 -122 151 -47 52 -98 113 -114 135 -15 23 -31 44 -34 47
-10 8 -69 88 -114 154 -22 32 -53 73 -69 90 -16 17 -41 57 -57 89 -15 32 -53
88 -84 123 -72 81 -70 95 14 109 76 12 93 30 68 69 -14 20 -26 26 -54 26 -20
0 -52 5 -70 12 -27 10 -38 10 -55 -1 -36 -22 -60 -25 -220 -26 -138 -1 -160
-4 -178 -20 -11 -10 -20 -26 -20 -35 0 -33 33 -47 117 -49 17 -1 23 -10 31
-48 12 -54 19 -113 27 -223 3 -41 12 -111 20 -155 18 -103 23 -180 30 -455 3
-124 8 -268 10 -320 2 -52 7 -200 10 -329 3 -128 8 -237 11 -243 3 -5 8 -53
10 -106 3 -53 11 -140 19 -192 16 -104 22 -230 12 -247 -4 -5 -2 -24 2 -41 9
-30 8 -31 -32 -44 -31 -10 -46 -22 -59 -47 -20 -39 -14 -59 19 -72 32 -12 147
-10 302 4 116 11 125 14 144 39 15 20 18 34 13 63 -8 40 -33 55 -92 55 -30 0
-34 3 -35 28 0 33 -17 244 -23 292 -21 168 -39 389 -42 505 -10 384 -13 489
-24 715 -6 135 -15 265 -20 290 -5 25 -12 59 -15 75 l-6 30 28 -31 c15 -17 45
-56 66 -85 20 -30 45 -65 55 -79 9 -13 35 -47 58 -75 22 -27 45 -57 50 -66 5
-9 28 -38 51 -65 86 -101 151 -181 162 -203 7 -12 27 -39 45 -59 18 -21 53
-66 77 -100 61 -89 71 -103 97 -145 13 -20 28 -37 33 -37 5 0 9 -6 9 -12 0
-16 52 -81 102 -128 20 -19 38 -42 40 -50 2 -8 9 -21 16 -28 6 -7 12 -34 12
-60 1 -45 2 -72 15 -292 3 -52 15 -186 26 -298 11 -112 18 -210 15 -218 -4 -9
-21 -14 -53 -14 -67 0 -98 -18 -98 -55 0 -28 4 -31 55 -44 59 -14 161 -5 285
25 33 8 83 17 110 20 97 9 127 18 136 41 15 41 -16 62 -96 66 -69 4 -70 4 -72
33 -1 16 -6 49 -13 74 -15 62 -35 294 -46 535 -2 44 -6 109 -8 145 -5 69 -16
515 -21 866 -2 131 -7 219 -14 232 -6 12 -10 34 -9 49 7 71 -29 422 -48 477
-20 55 -18 64 19 71 56 11 67 16 67 29 0 7 11 23 25 36 27 25 30 37 15 60 -7
11 -37 15 -142 16 -73 0 -160 -3 -193 -8z"/>
<path d="M4090 3050 c-99 -17 -176 -46 -198 -73 -29 -35 40 -87 105 -80 l43 5
-6 -33 c-3 -19 -15 -79 -26 -134 -11 -55 -22 -113 -24 -130 -2 -16 -13 -74
-23 -130 -11 -55 -25 -167 -31 -250 -11 -135 -56 -425 -80 -515 -5 -19 -19
-98 -30 -175 -11 -77 -23 -157 -26 -177 -3 -21 -10 -40 -15 -44 -5 -3 -9 -20
-10 -37 l-1 -32 -8 29 c-5 16 -7 32 -5 36 4 7 -11 147 -35 325 -15 115 -16
121 -39 215 -11 47 -21 103 -22 125 -1 22 -5 45 -8 50 -9 16 -12 33 -31 170
-18 136 -33 222 -57 340 -7 39 -22 117 -33 175 -11 58 -22 116 -25 130 -6 22
-2 27 30 39 20 7 51 10 69 7 25 -5 37 -2 51 14 26 28 5 66 -41 74 -94 18 -331
11 -366 -10 -7 -4 -33 -7 -58 -5 -38 2 -50 -2 -73 -25 -52 -52 -30 -84 59 -84
70 0 78 -7 88 -65 3 -22 10 -62 16 -90 28 -143 52 -282 65 -390 9 -66 20 -136
24 -155 5 -19 12 -60 15 -90 4 -30 14 -89 22 -130 8 -41 22 -122 30 -180 9
-58 22 -148 29 -200 31 -211 35 -249 40 -340 7 -124 32 -322 50 -385 8 -27 17
-89 20 -136 3 -47 14 -117 25 -155 11 -38 20 -73 20 -79 0 -6 -15 -16 -32 -24
-104 -44 -141 -71 -136 -98 7 -34 34 -38 126 -19 65 13 108 16 159 11 59 -6
77 -4 121 15 29 12 59 19 69 16 9 -4 33 1 53 10 19 9 46 22 60 28 14 6 27 20
29 31 6 31 -27 45 -107 45 l-75 0 7 58 c3 31 8 83 12 115 3 31 14 97 24 145
10 48 26 121 34 162 9 41 23 107 32 145 9 39 18 79 20 90 6 37 25 140 39 205
8 36 17 99 20 140 4 41 15 113 25 160 10 47 24 119 30 160 7 41 16 92 21 112
5 20 12 83 15 140 7 148 34 353 48 377 4 6 15 69 26 142 10 72 25 138 33 148
8 9 17 24 20 34 5 13 18 17 65 17 l59 0 11 -37 c25 -89 34 -162 28 -229 -3
-42 -1 -85 5 -105 30 -92 28 -233 -10 -784 -12 -187 -2 -814 17 -995 4 -36 5
-96 2 -135 l-5 -69 -84 -12 c-90 -13 -117 -29 -106 -63 14 -44 44 -52 232 -62
117 -7 192 -7 218 0 36 9 221 23 284 21 14 0 34 6 46 14 12 8 38 18 59 21 20
4 36 10 37 14 0 3 3 15 5 26 19 90 17 101 -19 129 -37 29 -28 28 -307 23 -44
-1 -44 -1 -53 38 -5 25 -4 57 3 83 6 27 8 68 3 105 -4 34 -6 65 -5 70 7 26 27
782 24 890 -1 40 2 57 10 58 45 3 201 -1 216 -5 9 -3 24 -1 31 4 19 11 61 -43
61 -77 0 -16 8 -27 26 -33 61 -24 78 0 63 86 -6 33 -12 126 -13 208 -3 131 -6
151 -22 163 -23 17 -45 17 -69 -1 -17 -13 -22 -29 -24 -92 -1 -22 -6 -23 -183
-25 -116 -1 -118 1 -118 125 0 111 -13 235 -35 331 -7 33 -16 82 -19 108 l-6
49 188 -3 c230 -3 246 0 271 52 27 55 19 184 -13 204 -30 18 -125 27 -316 30
-91 2 -211 4 -267 5 l-101 3 5 32 c9 55 -8 62 -159 64 -73 1 -146 3 -163 5
-16 2 -50 0 -75 -4z"/>
<path d="M9275 3042 c-45 -4 -63 -16 -76 -51 -9 -22 -11 -22 -22 -7 -22 30
-167 39 -607 39 -437 0 -489 -4 -511 -44 -24 -46 38 -72 163 -70 l68 1 15 -37
c21 -49 58 -365 69 -583 24 -469 31 -782 28 -1355 0 -132 0 -282 0 -333 0 -53
-4 -98 -10 -104 -6 -6 -50 -12 -98 -15 -130 -6 -158 -14 -162 -43 -5 -51 6
-55 165 -57 81 -1 177 -4 213 -7 36 -2 103 0 150 4 47 5 163 10 259 12 156 4
175 6 187 23 20 27 17 79 -6 125 -11 22 -20 46 -20 54 0 8 -10 25 -22 36 -22
21 -30 21 -196 17 -200 -6 -188 -12 -203 107 -11 84 -13 422 -2 439 10 16 12
110 2 122 -4 6 -7 39 -7 75 0 148 -11 448 -17 473 -14 56 -4 62 97 60 51 -2
137 -8 190 -15 54 -6 101 -10 104 -9 15 6 24 -27 22 -81 -2 -65 12 -88 52 -88
37 0 47 29 53 150 3 53 13 122 22 154 24 81 15 145 -25 196 -28 35 -34 38 -54
28 -29 -13 -43 -40 -49 -96 -3 -24 -8 -46 -10 -49 -3 -3 -35 2 -70 11 -36 9
-71 14 -80 10 -8 -3 -17 -1 -20 3 -4 5 -41 6 -89 0 -56 -5 -96 -5 -123 3 -39
11 -40 12 -40 58 0 102 -23 379 -40 498 l-7 50 70 13 c38 7 128 12 198 11 265
-3 257 -4 298 34 29 28 37 45 42 83 9 75 11 79 35 57 16 -14 40 -20 101 -23
70 -3 80 -6 87 -25 5 -11 6 -26 4 -33 -3 -6 2 -56 11 -110 10 -64 15 -167 15
-298 0 -110 3 -238 7 -285 7 -91 9 -258 5 -490 -1 -80 1 -179 6 -220 8 -81 8
-84 4 -490 -3 -278 4 -552 15 -602 5 -27 4 -28 -33 -29 -21 -1 -48 0 -61 1
-25 2 -62 -25 -62 -44 0 -6 18 -26 40 -43 33 -29 46 -33 95 -33 31 0 66 -5 77
-11 31 -16 166 -19 172 -4 2 7 29 16 58 19 29 4 74 9 101 12 39 5 50 11 62 34
30 58 14 82 -50 78 -11 -1 -42 -1 -70 0 l-50 2 2 422 c2 233 3 484 3 559 l0
136 38 11 c20 7 62 19 92 28 30 8 70 22 88 30 18 8 37 14 42 14 5 0 21 -39 35
-87 14 -49 32 -110 40 -137 8 -26 15 -60 15 -74 0 -14 9 -70 20 -126 11 -56
31 -166 45 -246 13 -80 31 -178 40 -217 8 -40 16 -121 18 -179 l2 -107 -29 -3
c-16 -2 -32 -8 -36 -14 -4 -7 -18 -17 -30 -23 -38 -20 -47 -43 -25 -67 20 -22
8 -21 265 -23 72 -1 282 28 318 43 18 8 23 17 20 38 -3 25 -7 27 -53 32 -32 3
-49 9 -48 17 4 20 -36 35 -73 28 -34 -6 -34 -6 -34 32 -1 21 -5 56 -9 78 -48
225 -60 275 -65 283 -7 12 -29 142 -27 169 0 12 -4 25 -9 28 -6 3 -10 24 -10
46 0 92 -48 317 -107 502 -19 60 -32 114 -30 120 2 7 0 21 -6 31 -8 16 -1 26
38 63 26 23 51 43 55 43 8 0 103 143 137 206 12 22 33 77 48 122 24 73 26 93
21 181 -2 55 -9 108 -14 118 -5 10 -12 34 -16 54 -12 67 -61 151 -139 237 -27
30 -166 113 -214 128 -29 9 -53 20 -53 24 0 11 -207 100 -286 123 -28 8 -67
23 -85 33 -29 15 -64 17 -224 18 -104 1 -208 0 -230 -2z m515 -326 c25 -7 95
-39 156 -70 97 -50 120 -67 180 -133 88 -96 106 -140 105 -255 -2 -119 -16
-183 -54 -246 -32 -55 -127 -150 -180 -182 -16 -10 -35 -27 -43 -39 -8 -11
-21 -21 -29 -21 -7 0 -15 -4 -17 -9 -4 -12 -158 -72 -169 -66 -4 3 -9 133 -9
288 0 298 -7 544 -19 665 -4 40 -5 75 -2 77 8 8 34 5 81 -9z"/>
<path d="M9770 1930 c0 -5 5 -10 10 -10 6 0 10 5 10 10 0 6 -4 10 -10 10 -5 0
-10 -4 -10 -10z"/>
<path d="M7155 3028 c-55 -5 -135 -7 -178 -5 -43 2 -97 0 -120 -4 -23 -5 -103
-11 -177 -14 -74 -3 -139 -10 -144 -15 -6 -6 -18 -10 -28 -10 -31 0 -68 -30
-68 -56 0 -27 19 -39 79 -49 43 -7 43 -8 38 -41 -3 -19 -20 -53 -37 -74 -18
-22 -38 -63 -45 -91 -7 -27 -18 -55 -23 -62 -5 -7 -12 -25 -16 -42 -4 -16 -18
-52 -30 -80 -13 -27 -31 -75 -41 -105 -9 -30 -22 -64 -28 -75 -44 -84 -67
-137 -67 -154 0 -12 -6 -21 -13 -21 -15 0 -67 51 -67 66 0 5 -13 24 -28 41
-15 18 -43 56 -62 85 -19 28 -45 62 -57 75 -13 13 -23 28 -23 32 0 5 -18 28
-40 51 -22 23 -40 45 -40 49 0 3 -10 18 -23 33 -47 57 -59 74 -78 111 -11 21
-36 59 -55 84 -43 56 -42 84 4 97 43 12 55 51 23 77 -26 21 -90 23 -291 8
-239 -17 -306 -33 -316 -76 -11 -40 11 -53 91 -53 70 0 73 -1 83 -27 31 -82
44 -138 53 -228 5 -55 14 -122 19 -150 15 -79 20 -122 30 -255 4 -69 13 -188
19 -265 10 -136 16 -275 26 -615 2 -91 7 -201 10 -245 11 -177 16 -428 9 -484
-6 -60 -7 -61 -43 -67 -75 -14 -103 -46 -72 -86 16 -20 27 -24 63 -21 24 2 88
6 143 8 175 7 304 21 320 35 19 16 20 64 1 79 -7 6 -43 12 -80 13 -62 2 -66 4
-66 26 0 13 9 35 20 49 29 37 34 83 20 191 -7 53 -12 120 -11 148 1 28 -3 71
-8 96 -6 24 -11 134 -11 244 -1 109 -7 298 -14 419 -15 251 -14 226 -19 410
-2 77 -8 161 -12 188 -4 28 -3 47 2 47 5 0 32 -33 59 -72 27 -40 55 -78 62
-83 7 -6 18 -20 25 -32 7 -12 34 -52 61 -90 27 -37 56 -83 65 -100 9 -18 21
-33 26 -33 6 0 20 -23 32 -51 l23 -51 -20 -43 c-11 -24 -20 -49 -20 -56 0 -7
-8 -31 -19 -53 -67 -145 -81 -178 -81 -190 0 -8 -4 -17 -8 -20 -5 -3 -15 -30
-22 -61 -12 -52 -12 -58 7 -83 17 -23 30 -28 94 -35 97 -12 177 -10 269 4 61
10 88 9 148 -3 81 -16 101 -11 154 39 l26 25 6 -29 c3 -15 8 -76 11 -134 3
-58 9 -139 14 -180 11 -86 6 -478 -6 -489 -4 -4 -32 -15 -61 -25 -75 -24 -91
-66 -37 -95 19 -10 34 -11 62 -3 34 10 146 16 293 18 47 0 55 -3 55 -18 0 -32
59 -49 150 -43 268 17 371 28 419 47 28 11 74 26 101 34 28 7 72 25 98 39 26
14 53 26 60 26 7 0 18 9 24 19 7 11 32 29 56 41 25 12 71 48 103 79 65 63 179
206 207 261 11 19 24 44 31 55 7 11 20 45 30 75 9 30 21 64 26 75 5 11 14 56
20 101 13 97 -7 270 -40 333 -11 22 -20 47 -20 54 0 28 -119 166 -163 188 -23
12 -55 31 -71 42 -15 11 -42 23 -58 26 l-30 6 34 35 c22 22 44 64 62 115 16
44 35 87 42 96 8 8 14 20 14 26 0 6 6 14 13 16 9 4 9 7 -1 15 -10 6 -11 20 -4
53 5 24 8 98 7 164 -2 104 -6 129 -29 186 -14 36 -26 71 -26 78 0 14 -54 134
-69 153 -128 163 -260 222 -568 253 -81 8 -150 14 -153 14 -3 -1 -50 -6 -105
-11z m-75 -145 c23 -50 64 -260 74 -378 2 -33 9 -118 15 -190 13 -173 21 -360
27 -650 2 -132 11 -296 20 -365 8 -69 17 -230 19 -359 3 -128 7 -247 9 -265
11 -67 15 -206 6 -211 -5 -3 -26 -7 -47 -9 -21 -2 -62 -7 -92 -11 -45 -7 -53
-6 -49 6 3 8 2 24 -3 37 -7 19 -16 22 -59 22 l-51 0 0 63 c1 192 -9 630 -15
638 -3 6 -8 151 -9 322 -2 172 -5 364 -6 427 0 63 -1 178 0 255 0 77 -1 185
-4 240 -2 55 -7 165 -10 245 -3 80 -8 157 -11 172 -5 25 -3 27 33 31 21 2 61
4 89 5 46 2 52 0 64 -25z m430 -138 c14 -7 40 -16 58 -20 34 -7 111 -60 150
-104 37 -41 90 -152 106 -222 16 -71 14 -113 -12 -208 -17 -64 -18 -66 -120
-154 -31 -27 -142 -82 -142 -70 0 3 -6 1 -12 -5 -7 -6 -24 -8 -39 -5 -25 5
-25 5 -24 102 1 54 5 103 9 109 4 7 0 22 -8 34 -12 17 -16 49 -16 128 -1 58
-5 150 -10 205 -6 55 -12 130 -15 168 l-6 68 28 -7 c15 -4 39 -12 53 -19z
m-868 -524 c3 -122 5 -175 12 -346 13 -275 14 -425 4 -431 -14 -9 -37 16 -60
65 -32 72 -51 109 -107 211 -32 59 -50 103 -47 115 2 11 11 40 19 65 8 25 20
74 27 109 6 36 18 74 26 85 8 11 14 28 14 37 0 9 7 19 15 23 8 3 15 11 15 19
0 7 9 30 19 51 11 21 23 52 27 69 6 29 7 30 20 12 8 -11 15 -47 16 -84z m1098
-580 c97 -25 187 -92 226 -169 11 -20 22 -39 25 -42 3 -3 16 -27 30 -55 20
-41 25 -68 27 -157 4 -124 -9 -177 -66 -272 -82 -136 -140 -178 -342 -242 -25
-7 -50 -14 -55 -14 -15 0 -37 226 -40 410 -1 85 -9 216 -18 290 -9 74 -18 159
-20 188 l-4 52 31 1 c17 1 42 5 56 9 34 11 108 11 150 1z"/>
<path d="M2503 2893 c-15 -12 -40 -25 -56 -29 -30 -6 -114 -51 -135 -71 -7 -6
-27 -43 -44 -80 -31 -67 -31 -71 -34 -240 -3 -197 27 -471 66 -593 6 -19 13
-45 16 -57 7 -34 62 -135 91 -166 42 -46 174 -107 277 -128 80 -17 117 2 276
141 25 21 56 60 70 87 14 26 30 54 37 61 7 7 16 25 19 40 4 15 10 32 14 37 21
27 31 162 27 340 -6 279 -10 312 -58 445 -28 79 -41 100 -82 131 -23 18 -47
38 -53 46 -18 21 -151 46 -281 52 -116 6 -123 5 -150 -16z m247 -213 c0 -5 15
-27 34 -47 40 -46 52 -68 65 -119 5 -22 16 -64 24 -94 16 -62 15 -56 17 -238
1 -159 -2 -177 -47 -265 -36 -67 -131 -167 -161 -167 -23 0 -72 40 -96 79 -25
40 -60 140 -52 148 3 3 -2 19 -11 36 -8 17 -17 49 -19 71 -2 23 -8 77 -14 121
-5 44 -10 125 -11 180 -1 55 -2 114 -2 132 -1 61 22 106 71 140 43 30 53 33
125 33 44 0 77 -4 77 -10z"/>
<path d="M2423 792 c-47 -25 -65 -55 -59 -99 6 -54 13 -65 54 -92 54 -35 102
-38 151 -11 53 30 73 78 57 135 -9 33 -19 44 -56 63 -52 26 -103 28 -147 4z"/>
<path d="M2806 734 c-15 -23 -26 -52 -26 -72 0 -57 3 -60 133 -124 33 -16 107
16 107 48 0 7 4 14 9 16 5 2 12 22 16 45 6 39 4 45 -29 79 -34 35 -40 37 -110
42 l-74 4 -26 -38z"/>
<path d="M8983 214 c9 -3 17 -12 17 -20 0 -8 7 -14 15 -14 8 0 15 -7 15 -15 0
-9 9 -15 21 -15 21 0 21 0 2 33 -15 25 -26 32 -53 34 -19 1 -27 -1 -17 -3z"/>
</g>
</svg>
