<?xml version="1.0" standalone="no"?>
<!DOCTYPE svg PUBLIC "-//W3C//DTD SVG 20010904//EN"
 "http://www.w3.org/TR/2001/REC-SVG-20010904/DTD/svg10.dtd">
<svg version="1.0" xmlns="http://www.w3.org/2000/svg"
 width="100.000000pt" height="31.856540pt" viewBox="0 0 100.000000 31.856540"
 preserveAspectRatio="xMidYMid meet">
<metadata>
Created by potrace 1.11, written by Peter Selinger 2001-2013
</metadata>
<g transform="translate(0.000000,31.856540) scale(0.010549,-0.010549)"
fill="#000000" stroke="none">
<path d="M175 2900 l-120 -5 -3 -27 c-2 -19 3 -31 20 -41 28 -18 122 -39 142
-31 11 4 16 -9 21 -61 4 -36 5 -68 2 -72 -3 -3 1 -22 9 -43 9 -21 14 -44 13
-51 -2 -8 1 -29 5 -47 8 -33 12 -65 22 -157 7 -66 9 -313 4 -605 -2 -129 0
-260 4 -290 9 -70 14 -123 21 -235 4 -49 8 -115 11 -145 2 -30 4 -91 2 -135
-1 -44 -2 -133 -2 -198 -1 -138 -3 -141 -89 -131 -76 8 -87 -2 -87 -76 l0 -57
258 -8 c141 -4 284 -9 317 -11 33 -2 73 -1 88 2 28 6 28 6 8 21 -12 8 -34 14
-49 13 -15 -1 -61 -1 -102 0 l-75 1 60 29 c33 16 67 29 76 29 9 1 22 8 30 17
7 8 31 25 53 36 38 18 121 92 199 177 18 19 51 55 75 80 39 42 122 194 122
225 0 6 4 16 8 22 5 5 14 29 21 54 7 25 22 63 32 84 10 22 19 47 19 56 0 9 9
50 19 91 10 41 21 99 24 129 3 30 10 84 15 120 26 154 31 220 22 245 -5 14
-12 49 -15 77 -8 85 -42 254 -55 283 -6 11 -16 38 -24 60 -16 46 -65 137 -89
166 -9 10 -17 23 -17 29 0 5 -26 35 -57 68 -32 32 -74 77 -93 98 -41 45 -134
124 -147 124 -4 0 -25 11 -44 24 -20 14 -49 28 -65 32 -16 4 -45 14 -64 23
-37 17 -267 22 -525 11z m470 -346 c36 -20 65 -40 65 -45 0 -5 4 -9 9 -9 10 0
108 -62 126 -79 104 -99 145 -159 166 -247 7 -27 16 -57 21 -68 15 -29 37
-189 44 -322 6 -102 3 -137 -15 -229 -13 -59 -26 -115 -31 -124 -5 -9 -23 -63
-40 -121 -30 -98 -56 -168 -82 -215 -6 -10 -23 -42 -38 -71 -27 -53 -99 -136
-135 -157 -12 -7 -50 -31 -85 -54 -35 -24 -69 -43 -76 -43 -17 0 -22 79 -11
185 4 44 5 179 1 300 -3 121 -7 337 -9 480 -5 307 -13 670 -15 670 -1 0 -3
153 -1 173 2 21 38 13 106 -24z"/>
<path d="M2645 2893 c-44 -8 -99 -22 -122 -30 -55 -20 -139 -103 -165 -162
-10 -25 -25 -53 -33 -61 -7 -8 -16 -26 -20 -40 -4 -14 -13 -32 -20 -40 -7 -8
-25 -51 -40 -95 -15 -44 -32 -84 -36 -89 -5 -6 -9 -24 -9 -41 0 -18 -3 -35 -7
-39 -10 -10 -14 -70 -15 -274 -1 -111 -5 -176 -11 -167 -19 35 -26 148 -13
202 7 28 4 36 -22 63 -17 16 -40 30 -51 30 -32 0 -64 -37 -57 -65 12 -46 3
-50 -116 -50 l-112 0 -7 35 c-4 19 -15 127 -24 240 -9 113 -18 222 -21 243 -6
36 -5 37 24 37 16 0 42 6 57 14 21 11 58 14 149 11 157 -4 166 1 159 83 -4 39
-2 62 6 66 16 10 14 61 -4 76 -12 10 -37 10 -118 2 -70 -8 -125 -8 -177 -2
-99 14 -237 14 -330 1 -41 -6 -100 -11 -130 -11 -30 0 -66 -6 -80 -13 -30 -15
-37 -53 -16 -82 12 -17 24 -20 77 -18 49 2 65 -1 74 -14 7 -10 16 -62 20 -118
4 -55 9 -111 10 -125 8 -73 17 -231 21 -341 6 -160 5 -150 16 -249 5 -47 12
-233 15 -415 3 -181 6 -348 6 -370 1 -60 -12 -272 -18 -298 -5 -18 -14 -23
-51 -25 -55 -4 -81 -14 -115 -44 -34 -30 -41 -53 -27 -83 11 -25 12 -25 162
-27 83 -1 189 -1 236 0 229 8 365 14 369 17 2 2 3 17 3 32 0 15 5 32 12 36 8
6 8 10 -1 14 -9 3 -13 26 -13 64 0 50 -3 61 -23 74 -37 24 -107 29 -160 11
-51 -17 -73 -14 -82 14 -6 19 -18 446 -16 550 1 30 2 110 3 177 1 67 6 119 10
117 4 -3 8 2 8 11 0 9 -4 13 -10 10 -6 -3 -10 5 -10 18 0 26 39 46 51 26 5 -8
9 -8 13 0 4 6 36 11 74 11 74 0 99 -14 120 -62 7 -18 19 -28 32 -28 30 0 60
18 60 35 0 8 5 15 10 15 6 0 10 10 10 23 0 18 -2 19 -10 7 -7 -11 -10 -7 -10
18 0 22 5 32 16 32 12 0 15 -11 14 -52 -2 -92 10 -320 20 -398 15 -115 29
-233 35 -305 1 -16 9 -50 17 -75 8 -25 23 -74 33 -110 21 -77 21 -78 79 -201
25 -52 58 -107 73 -121 16 -14 44 -43 63 -63 19 -21 59 -49 87 -62 51 -24 65
-47 23 -36 -35 9 -21 -13 15 -24 34 -11 40 -7 36 20 -2 11 27 9 34 -3 3 -5 0
-10 -7 -10 -9 0 -9 -3 2 -10 22 -14 250 -8 250 7 0 7 -18 13 -42 15 -52 4 -59
23 -16 44 31 15 118 111 118 130 0 5 11 26 24 45 14 20 28 48 31 62 4 14 14
33 24 44 15 15 32 46 35 63 1 3 5 10 9 17 4 6 12 49 18 95 5 46 14 99 18 118
5 19 9 59 10 87 1 29 8 83 16 120 8 38 15 71 15 76 0 4 26 6 58 5 66 -3 92 10
92 48 0 34 -55 71 -115 78 -88 10 -271 8 -329 -4 -47 -9 -57 -16 -62 -36 -7
-27 18 -64 43 -64 7 0 13 -11 13 -27 0 -47 -22 -197 -31 -213 -26 -47 -59
-121 -59 -135 0 -25 -49 -162 -73 -204 -30 -53 -47 -70 -64 -64 -17 7 -37 51
-34 76 1 9 -3 17 -8 17 -6 0 -11 6 -11 14 0 8 -7 27 -14 43 -22 42 -66 161
-71 191 -2 15 -13 64 -24 109 -10 45 -16 84 -14 87 3 3 0 19 -6 37 -6 19 -7
37 -2 47 6 11 4 20 -6 28 -14 9 -16 54 -19 319 -2 169 -1 311 1 316 3 4 7 80
10 169 3 142 9 197 30 297 4 18 77 114 121 160 19 20 61 26 130 18 57 -6 69
-11 99 -42 39 -40 48 -70 61 -189 11 -102 9 -110 -25 -117 -34 -7 -61 -32 -61
-57 0 -10 -11 -25 -24 -33 -51 -34 6 -98 61 -69 10 6 39 13 65 17 39 6 53 3
81 -14 46 -28 71 -26 104 8 25 26 35 30 103 33 90 4 110 17 110 71 0 54 -35
88 -83 80 -34 -5 -35 -5 -42 35 -4 23 -5 45 -2 49 3 4 -5 63 -18 131 -26 142
-43 173 -146 272 -94 90 -156 120 -245 119 -38 -1 -105 -8 -149 -16z"/>
<path d="M3302 2865 c-28 -36 -37 -71 -23 -89 10 -12 61 -36 102 -49 18 -6 28
-58 35 -166 1 -31 8 -117 14 -191 6 -74 13 -193 15 -265 3 -71 8 -191 11 -265
4 -74 7 -157 7 -185 1 -71 -12 -448 -19 -525 -3 -36 -7 -123 -9 -195 -7 -262
-9 -276 -34 -296 -13 -10 -27 -17 -31 -14 -16 10 -108 -16 -125 -35 -26 -29
-16 -71 24 -97 23 -16 38 -20 46 -13 7 5 111 11 241 13 126 2 245 7 264 11 19
4 62 7 95 5 138 -4 162 -3 192 10 42 17 72 88 54 127 -6 14 -11 36 -11 49 0
14 -13 34 -32 50 -30 26 -37 27 -93 20 -33 -4 -89 -10 -125 -14 -36 -4 -74
-12 -85 -18 -11 -6 -42 -13 -70 -14 -47 -4 -50 -3 -52 21 -1 14 -4 43 -8 65
-3 22 -2 84 2 137 5 58 5 94 -1 91 -5 -4 -6 10 -2 32 4 20 9 92 11 159 1 67 6
180 9 252 4 71 3 161 -2 200 -4 40 -4 83 1 98 8 23 14 26 55 26 26 0 64 -3 85
-7 36 -5 39 -8 33 -33 -6 -32 20 -62 59 -66 13 -1 37 -13 54 -25 26 -19 34
-21 56 -11 30 14 31 34 13 161 -10 66 -10 85 -1 88 9 3 8 11 -4 30 -14 20 -14
30 -5 57 17 48 15 71 -14 127 -24 48 -27 51 -57 45 -49 -10 -63 -29 -61 -83 2
-82 -4 -87 -105 -80 -66 5 -89 10 -99 24 -7 10 -16 18 -20 18 -4 0 -8 26 -8
57 -1 31 -6 99 -12 150 -6 51 -14 137 -17 190 -3 53 -8 103 -11 111 -4 12 16
16 118 23 68 5 144 7 169 5 40 -2 49 1 67 23 11 14 24 26 30 26 13 0 52 75 52
98 0 10 4 22 9 27 6 6 4 18 -7 32 -15 19 -30 23 -116 28 -55 3 -108 11 -120
17 -11 6 -54 15 -96 19 -41 5 -111 13 -155 19 -44 6 -123 13 -176 16 l-95 7
-22 -28z"/>
<path d="M5945 2829 c-38 -3 -92 -14 -118 -23 -33 -12 -52 -14 -60 -7 -15 11
-177 7 -287 -8 -41 -6 -95 -13 -120 -15 -114 -13 -180 -40 -180 -72 0 -24 38
-57 62 -53 7 1 25 1 41 0 25 -1 27 -4 21 -28 -4 -16 -14 -39 -23 -52 -8 -13
-18 -44 -22 -70 -7 -47 -54 -195 -91 -286 -11 -27 -25 -71 -32 -97 -6 -26 -17
-53 -24 -60 -6 -6 -12 -18 -12 -25 0 -7 -4 -13 -10 -13 -5 0 -10 6 -10 14 0 8
-6 21 -12 28 -7 7 -35 57 -63 111 -63 124 -79 152 -115 207 -16 25 -47 80 -70
123 -47 90 -50 130 -10 135 55 6 80 23 80 53 0 43 -35 55 -180 64 -195 12
-341 10 -375 -5 -16 -8 -61 -21 -100 -30 -67 -15 -70 -17 -70 -45 0 -28 4 -31
69 -52 38 -12 84 -22 103 -21 18 1 38 -3 43 -8 12 -13 19 -97 25 -319 3 -104
8 -213 11 -241 8 -82 11 -640 3 -749 -18 -253 -22 -343 -23 -520 l-1 -190 -49
-2 c-52 -2 -86 -24 -86 -54 0 -19 36 -49 59 -49 7 0 30 -10 50 -23 34 -21 48
-22 224 -24 174 -2 190 0 208 18 10 10 28 19 38 19 20 0 31 18 31 54 0 42 -23
59 -90 67 -34 4 -66 11 -72 17 -6 6 -5 46 2 112 6 56 8 115 5 131 -4 16 -8
134 -10 262 -2 127 -6 249 -8 269 -3 21 -1 35 4 32 10 -6 3 211 -7 228 -4 6 0
14 7 19 10 6 11 11 3 17 -6 4 -11 63 -12 157 -1 83 -3 217 -5 299 -4 146 -3
149 15 127 10 -13 18 -30 18 -38 0 -8 8 -27 19 -41 23 -33 66 -124 63 -135 -1
-4 7 -17 18 -29 11 -12 20 -28 20 -35 0 -7 3 -13 8 -13 4 0 18 -25 32 -55 14
-30 28 -55 33 -55 4 0 7 -6 7 -13 0 -8 14 -42 31 -76 l31 -61 -21 -36 c-12
-19 -21 -41 -21 -47 -1 -7 -9 -30 -20 -52 -11 -22 -19 -45 -20 -51 0 -6 -16
-42 -36 -79 -19 -38 -37 -86 -39 -107 -2 -21 -7 -47 -10 -59 -4 -11 -1 -33 5
-49 10 -25 21 -31 69 -41 31 -6 63 -15 72 -20 9 -4 51 -11 95 -14 43 -3 81
-10 84 -15 4 -6 35 -10 71 -9 35 0 94 -1 132 -4 37 -3 67 -1 67 4 0 5 11 8 25
7 30 -3 27 25 32 -323 1 -148 5 -284 6 -301 l4 -32 -69 -4 c-78 -4 -116 -29
-103 -67 14 -47 207 -92 335 -80 41 4 94 5 116 2 25 -3 44 -1 48 6 4 6 17 11
29 11 12 0 38 8 57 18 39 21 94 21 240 2 144 -20 296 -16 365 8 22 8 66 21 98
28 32 8 64 20 71 27 7 6 31 26 52 42 54 42 126 114 154 155 14 19 31 42 38 50
34 38 82 135 82 165 0 19 6 35 14 38 8 3 18 32 24 69 12 73 12 68 12 198 0
118 -1 130 -9 130 -4 0 -13 21 -20 48 -8 26 -21 57 -29 69 -7 12 -11 27 -7 33
3 5 2 10 -3 10 -5 0 -17 19 -26 43 -33 78 -60 127 -73 127 -7 0 -20 16 -29 35
-9 19 -20 32 -25 29 -5 -3 -12 2 -15 10 -3 9 -12 16 -20 16 -8 0 -14 5 -14 10
0 6 -6 10 -13 10 -23 0 -51 26 -42 40 6 10 9 9 17 -1 7 -10 8 -8 3 8 -3 12 -2
24 4 27 30 19 73 145 97 286 10 56 7 166 -4 187 -10 19 -23 89 -36 197 -1 10
-10 24 -19 31 -9 7 -17 17 -17 24 0 6 -5 11 -11 11 -6 0 -8 7 -5 17 4 10 4 15
1 11 -3 -3 -29 19 -57 48 -28 30 -57 54 -64 54 -8 0 -14 5 -14 10 0 6 -6 10
-13 10 -8 0 -22 9 -32 20 -10 11 -23 19 -29 17 -6 -3 -22 1 -36 8 -96 49 -161
76 -170 70 -6 -4 -25 0 -43 8 -29 14 -150 34 -237 40 -19 2 -66 0 -105 -4z
m-38 -234 c7 -49 15 -148 18 -220 3 -71 8 -164 11 -205 3 -41 8 -116 10 -166
2 -50 8 -111 13 -135 6 -24 11 -65 11 -90 0 -29 6 -51 15 -59 20 -16 19 -46
-1 -54 -12 -5 -15 -14 -10 -39 6 -33 26 -297 31 -407 1 -30 5 -82 9 -115 4
-33 9 -168 10 -300 2 -132 6 -254 9 -271 l6 -32 -92 -7 c-50 -4 -104 -13 -120
-22 -16 -8 -42 -13 -60 -11 l-31 3 -2 350 c-1 192 0 353 3 358 3 5 6 41 7 80
1 52 5 71 14 70 18 -4 15 14 -4 21 -9 3 -14 13 -10 21 3 8 1 17 -5 21 -7 4 -6
10 1 19 8 9 8 32 1 77 -6 34 -13 147 -15 249 -3 103 -10 208 -16 235 -5 27
-12 112 -14 189 -7 197 -16 325 -26 360 -5 17 -12 55 -15 87 l-7 56 58 7 c33
4 79 11 104 15 85 15 84 16 97 -85z m384 -106 c90 -22 139 -40 139 -51 0 -3
22 -30 50 -60 43 -46 50 -59 56 -108 3 -30 10 -72 14 -93 4 -21 4 -50 0 -65
-23 -75 -40 -140 -40 -154 0 -9 -7 -21 -15 -28 -8 -7 -15 -20 -15 -29 0 -18
-83 -111 -99 -111 -6 0 -11 -4 -11 -9 0 -5 -12 -11 -27 -14 -16 -3 -40 -9 -55
-13 -26 -6 -28 -4 -29 27 -3 78 -13 175 -34 339 -2 19 -6 54 -8 78 -3 23 -7
45 -11 49 -3 3 -6 25 -6 47 0 23 -7 71 -14 108 -15 70 -12 108 9 108 7 0 50
-9 96 -21z m-843 -669 c-1 -63 2 -153 5 -200 16 -222 20 -266 24 -273 3 -5 -3
-7 -13 -5 -24 4 -47 35 -40 53 3 8 0 15 -7 15 -7 1 -39 56 -72 123 -63 128
-73 152 -56 127 6 -8 11 -11 11 -7 0 5 -9 20 -20 34 -21 28 -27 63 -9 63 5 0
8 4 5 9 -4 5 5 36 18 68 13 32 32 85 42 118 10 33 24 69 31 81 7 12 11 29 7
38 -3 9 -1 16 5 16 6 0 11 5 11 10 0 6 8 23 17 37 17 26 18 26 30 -83 7 -60
12 -161 11 -224z m1017 -314 c19 -8 35 -20 35 -26 0 -6 4 -9 9 -5 13 8 80 -33
122 -75 42 -42 89 -119 89 -145 0 -10 7 -26 15 -35 21 -23 26 -177 6 -189 -7
-5 -11 -14 -7 -19 9 -15 -31 -206 -44 -210 -5 -2 -10 -8 -10 -13 0 -6 5 -7 10
-4 35 22 -35 -80 -89 -128 -23 -20 -50 -37 -61 -37 -11 0 -38 -7 -61 -16 -35
-14 -42 -15 -50 -3 -6 10 -9 10 -9 2 0 -9 -14 -12 -42 -10 l-43 3 -2 55 c-1
30 -5 126 -9 214 -8 212 -8 208 -2 225 2 8 3 12 1 7 -8 -13 -22 3 -17 18 3 7
-1 47 -9 87 -8 40 -15 84 -14 98 0 14 -3 50 -7 80 -6 51 -6 53 9 36 12 -16 15
-17 15 -4 0 9 -7 19 -16 22 -11 4 -13 13 -8 28 11 36 26 42 142 56 7 1 28 -5
47 -12z m-1315 -144 c0 -13 -3 -12 -20 3 -11 10 -17 22 -14 27 8 12 34 -11 34
-30z"/>
<path d="M6420 980 c0 -5 5 -10 10 -10 6 0 10 5 10 10 0 6 -4 10 -10 10 -5 0
-10 -4 -10 -10z"/>
<path d="M8155 2830 c3 -5 10 -10 16 -10 5 0 9 5 9 10 0 6 -7 10 -16 10 -8 0
-12 -4 -9 -10z"/>
<path d="M7785 2819 c-33 -5 -94 -14 -135 -20 -42 -6 -177 -12 -300 -13 -254
-4 -378 -17 -397 -43 -18 -24 -16 -57 5 -76 14 -13 38 -17 94 -17 84 0 96 -9
77 -57 -5 -14 -7 -34 -4 -42 16 -39 35 -314 36 -496 1 -110 4 -272 8 -360 5
-121 4 -165 -6 -182 -10 -18 -10 -22 5 -28 12 -5 13 -9 5 -12 -15 -5 -17 -30
-4 -35 5 -2 13 -104 17 -228 8 -268 8 -306 1 -476 -3 -72 -2 -136 3 -143 4 -7
6 -21 3 -30 -3 -13 -19 -17 -80 -19 -42 -1 -82 -7 -88 -12 -14 -12 -26 -81
-18 -109 3 -12 18 -22 41 -26 37 -7 182 -10 247 -4 25 2 39 -2 48 -15 13 -17
14 -17 20 -2 6 14 21 16 94 15 85 -2 215 6 260 16 12 3 25 0 29 -6 4 -8 9 -7
15 2 6 10 25 13 62 11 46 -2 59 1 84 22 28 24 30 29 28 93 -3 95 -2 92 -31
103 -29 12 -178 13 -311 4 -67 -5 -93 -4 -94 5 -2 12 -7 196 -9 309 -2 82 7
133 24 144 8 6 7 11 -3 17 -12 8 -13 14 -3 35 10 22 9 26 -4 26 -13 0 -15 9
-10 58 3 31 9 107 12 167 4 87 9 113 22 123 14 11 15 14 3 21 -8 5 -15 30 -17
58 -2 28 -4 54 -5 59 -6 34 3 74 17 74 8 0 12 -4 9 -10 -3 -5 -2 -10 3 -10 6
0 12 6 15 14 3 7 20 16 39 20 45 9 43 9 128 -4 41 -7 95 -9 120 -6 28 4 40 2
31 -3 -11 -7 -10 -14 7 -39 22 -30 62 -49 62 -30 0 7 15 8 39 4 59 -9 67 6 52
100 -7 41 -12 121 -12 177 0 91 -2 108 -26 155 -22 44 -31 52 -54 52 -32 0
-40 -10 -49 -60 -3 -19 -11 -34 -17 -33 -6 1 -17 -4 -23 -12 -7 -8 -20 -15
-29 -15 -13 0 -13 -2 -2 -9 17 -11 0 -16 -84 -27 -62 -7 -216 -6 -225 3 -2 2
-5 52 -6 111 -1 154 -15 345 -26 359 -5 6 -6 23 -2 37 l6 26 191 -5 c147 -3
198 -1 221 9 17 8 39 16 48 20 23 7 59 66 53 86 -10 31 8 38 88 32 64 -4 80
-8 88 -25 6 -11 14 -72 17 -136 7 -138 7 -145 -3 -426 -4 -121 -9 -339 -11
-485 -1 -146 -3 -288 -3 -317 -1 -34 -7 -57 -18 -68 -13 -14 -14 -18 -3 -25
16 -10 15 -103 0 -108 -12 -4 -13 -39 -2 -46 5 -3 7 -58 5 -123 -5 -208 -4
-515 2 -534 8 -23 -31 -41 -84 -38 -44 3 -77 -14 -87 -43 -5 -17 0 -28 26 -49
17 -15 46 -30 63 -33 56 -11 171 -14 207 -5 57 13 153 18 170 9 25 -13 90 34
90 64 0 35 -30 65 -70 69 -34 3 -35 4 -34 48 3 67 12 152 18 169 3 8 7 114 9
234 3 163 7 221 16 224 8 3 7 8 -5 16 -15 11 -15 14 -1 28 9 9 14 17 12 20 -6
6 -7 97 -1 163 3 33 5 72 6 88 0 22 5 27 23 27 13 0 50 9 82 20 69 24 68 24
62 8 -2 -7 0 -24 5 -38 6 -14 14 -119 19 -235 4 -116 10 -232 13 -260 6 -65
19 -273 22 -350 1 -33 5 -128 8 -211 6 -123 5 -152 -6 -151 -39 1 -80 -4 -74
-10 3 -4 14 -8 24 -9 28 -3 116 -26 134 -35 10 -5 18 -4 20 3 3 7 13 5 31 -7
23 -15 28 -15 32 -2 5 12 30 14 141 12 114 -3 136 0 141 12 6 16 -35 55 -49
47 -3 -2 -9 0 -13 6 -4 6 -10 8 -15 5 -14 -9 -27 48 -30 135 -1 47 -3 125 -5
175 -1 49 1 101 6 114 6 14 6 28 0 35 -6 7 -8 22 -4 34 3 12 0 28 -6 36 -7 9
-10 28 -6 48 9 47 12 189 4 176 -11 -17 -21 65 -19 154 3 121 -4 190 -47 469
-4 30 -1 39 21 56 14 12 26 25 26 31 0 5 11 20 25 33 13 13 25 30 25 37 0 6 3
12 8 12 8 0 19 21 65 121 21 45 27 74 29 140 2 93 -20 299 -33 313 -5 6 -9 20
-9 31 0 12 -9 30 -20 40 -11 10 -20 22 -20 28 0 9 -83 111 -125 152 -28 29
-102 75 -119 75 -8 0 -16 3 -18 8 -9 22 -175 109 -186 97 -3 -3 -10 -1 -16 4
-13 10 -176 51 -204 51 -11 0 -39 7 -63 16 -30 11 -73 16 -133 15 -49 -1 -94
3 -101 9 -9 7 -16 6 -23 -3 -14 -16 -154 -15 -160 2 -4 13 -78 13 -167 0z
m791 -404 c16 -8 38 -15 49 -15 28 -1 78 -26 162 -83 82 -54 109 -99 125 -207
18 -124 -13 -272 -64 -303 -10 -7 -18 -15 -18 -19 0 -18 -63 -71 -135 -114
-70 -42 -87 -47 -140 -48 l-60 -1 -1 255 c-1 140 -6 286 -12 324 -6 38 -9 74
-6 78 3 5 1 21 -4 36 -6 15 -13 46 -15 70 l-5 42 48 0 c26 0 61 -7 76 -15z"/>
<path d="M45 1760 c-3 -5 1 -10 10 -10 9 0 13 5 10 10 -3 6 -8 10 -10 10 -2 0
-7 -4 -10 -10z"/>
<path d="M7531 1574 c0 -11 3 -14 6 -6 3 7 2 16 -1 19 -3 4 -6 -2 -5 -13z"/>
<path d="M8141 1324 c0 -11 3 -14 6 -6 3 7 2 16 -1 19 -3 4 -6 -2 -5 -13z"/>
<path d="M9350 824 c0 -8 5 -12 10 -9 6 3 10 10 10 16 0 5 -4 9 -10 9 -5 0
-10 -7 -10 -16z"/>
<path d="M180 760 c0 -5 5 -10 10 -10 6 0 10 5 10 10 0 6 -4 10 -10 10 -5 0
-10 -4 -10 -10z"/>
<path d="M882 491 c-11 -7 -11 -9 2 -14 10 -4 16 -1 16 8 0 17 -1 17 -18 6z"/>
<path d="M1265 460 c3 -5 8 -10 11 -10 2 0 4 5 4 10 0 6 -5 10 -11 10 -5 0 -7
-4 -4 -10z"/>
<path d="M1315 460 c-3 -5 2 -10 12 -11 124 -6 254 -6 258 1 6 10 -61 18 -177
20 -51 0 -89 -3 -93 -10z"/>
<path d="M2093 433 c-18 -6 -16 -23 1 -23 17 0 30 16 19 23 -5 2 -14 2 -20 0z"/>
<path d="M2193 433 c-22 -8 -14 -23 13 -23 15 0 24 5 22 12 -5 14 -18 18 -35
11z"/>
<path d="M2130 426 c0 -9 30 -14 35 -6 4 6 -3 10 -14 10 -12 0 -21 -2 -21 -4z"/>
<path d="M2310 411 c0 -6 5 -13 10 -16 14 -9 52 4 45 16 -8 12 -55 12 -55 0z"/>
<path d="M2485 400 c-4 -6 3 -10 14 -10 25 0 27 6 6 13 -8 4 -17 2 -20 -3z"/>
<path d="M2210 390 c-12 -8 -11 -10 8 -10 12 0 22 5 22 10 0 13 -11 13 -30 0z"/>
<path d="M3211 374 c0 -11 3 -14 6 -6 3 7 2 16 -1 19 -3 4 -6 -2 -5 -13z"/>
<path d="M3408 353 c6 -2 18 -2 25 0 6 3 1 5 -13 5 -14 0 -19 -2 -12 -5z"/>
<path d="M4758 324 c-11 -10 3 -34 19 -34 8 0 13 7 11 17 -3 18 -20 27 -30 17z"/>
<path d="M4445 310 c-74 -8 -67 -10 64 -16 57 -3 121 -11 142 -18 25 -9 41
-10 45 -4 13 20 -17 30 -95 30 -44 0 -81 4 -81 9 0 5 -3 8 -7 7 -5 -1 -35 -4
-68 -8z"/>
<path d="M5284 288 c-4 -5 -1 -14 7 -18 14 -9 29 -4 29 10 0 13 -29 20 -36 8z"/>
<path d="M5046 265 c24 -19 45 -19 70 0 17 13 15 14 -35 15 -50 0 -53 -1 -35
-15z"/>
<path d="M5483 273 c-42 -8 -24 -23 28 -23 36 0 49 4 47 13 -5 13 -39 18 -75
10z"/>
<path d="M5714 268 c-14 -22 28 -38 99 -36 63 2 88 11 73 25 -3 3 -12 0 -21
-7 -12 -10 -16 -9 -21 4 -7 19 -31 21 -37 4 -3 -10 -7 -10 -19 0 -11 9 -18 10
-23 2 -9 -15 -25 -12 -25 5 0 18 -16 20 -26 3z"/>
<path d="M5148 263 c6 -2 18 -2 25 0 6 3 1 5 -13 5 -14 0 -19 -2 -12 -5z"/>
<path d="M5380 264 c0 -13 35 -33 58 -34 30 0 28 18 -4 30 -29 11 -54 13 -54
4z"/>
<path d="M5675 260 c-3 -5 1 -10 9 -10 9 0 16 5 16 10 0 6 -4 10 -9 10 -6 0
-13 -4 -16 -10z"/>
<path d="M5935 259 c-8 -12 11 -29 33 -29 19 0 10 34 -10 38 -9 2 -19 -2 -23
-9z"/>
<path d="M6004 259 c-14 -23 21 -39 81 -38 33 0 93 0 134 -1 49 -1 71 2 67 9
-4 7 -1 9 8 5 8 -3 23 -1 33 5 20 11 16 13 -39 16 -26 1 -38 -2 -38 -11 0 -8
-7 -14 -16 -14 -8 0 -12 5 -9 10 9 14 -7 18 -117 24 -64 4 -99 2 -104 -5z"/>
<path d="M6780 210 c6 -11 12 -20 14 -20 2 0 6 9 9 20 4 15 0 20 -14 20 -17 0
-18 -3 -9 -20z"/>
<path d="M6870 221 c0 -5 7 -11 15 -15 9 -3 15 0 15 9 0 8 -7 15 -15 15 -8 0
-15 -4 -15 -9z"/>
<path d="M7010 190 c-8 -5 -11 -12 -7 -16 4 -4 13 -2 19 4 15 15 7 24 -12 12z"/>
<path d="M7380 185 c0 -9 6 -12 15 -9 8 4 12 10 9 15 -8 14 -24 10 -24 -6z"/>
<path d="M7540 180 c0 -11 4 -20 9 -20 11 0 22 26 14 34 -12 12 -23 5 -23 -14z"/>
<path d="M7692 188 c5 -15 28 -23 28 -10 0 5 -7 13 -16 16 -10 4 -14 1 -12 -6z"/>
<path d="M7740 181 c0 -16 21 -24 62 -25 33 -1 48 9 48 30 0 2 -25 4 -55 4
-30 0 -55 -4 -55 -9z"/>
<path d="M7885 180 c-8 -12 7 -18 64 -24 44 -5 76 7 65 25 -7 12 -121 11 -129
-1z"/>
<path d="M8350 160 c-10 -6 -8 -10 7 -19 19 -10 33 -6 33 10 0 12 -26 18 -40
9z"/>
<path d="M8615 131 c-3 -5 -1 -12 5 -16 5 -3 10 1 10 9 0 18 -6 21 -15 7z"/>
<path d="M8463 113 c9 -2 23 -2 30 0 6 3 -1 5 -18 5 -16 0 -22 -2 -12 -5z"/>
<path d="M8910 87 c9 -8 310 -16 306 -8 -3 4 -74 9 -158 10 -84 1 -150 0 -148
-2z"/>
</g>
</svg>
