<?xml version="1.0" standalone="no"?>
<!DOCTYPE svg PUBLIC "-//W3C//DTD SVG 20010904//EN"
 "http://www.w3.org/TR/2001/REC-SVG-20010904/DTD/svg10.dtd">
<svg version="1.0" xmlns="http://www.w3.org/2000/svg"
 width="100.000000pt" height="18.826406pt" viewBox="0 0 100.000000 18.826406"
 preserveAspectRatio="xMidYMid meet">
<metadata>
Created by potrace 1.11, written by Peter Selinger 2001-2013
</metadata>
<g transform="translate(0.000000,18.826406) scale(0.008150,-0.008150)"
fill="#000000" stroke="none">
<path d="M7963 2223 c-7 -3 -13 -13 -13 -23 0 -24 -17 -28 -116 -27 -70 0 -84
-3 -102 -21 -12 -12 -22 -26 -22 -32 0 -5 -11 -10 -25 -10 -24 0 -33 -18 -18
-34 4 -4 9 -24 10 -44 1 -20 7 -38 13 -40 6 -2 15 -15 20 -28 7 -16 17 -24 34
-24 14 0 28 -4 31 -10 3 -5 26 -10 50 -10 24 0 47 -5 50 -10 4 -6 16 -8 27 -4
26 8 78 -14 78 -34 0 -8 -7 -24 -16 -33 -14 -16 -15 -23 -4 -48 6 -16 11 -40
9 -53 -1 -12 1 -31 6 -40 4 -10 4 -25 1 -34 -3 -9 4 -24 19 -38 14 -13 25 -27
25 -32 -1 -14 -37 -54 -48 -54 -17 0 -18 -42 -4 -85 12 -34 11 -43 -1 -65 -13
-22 -13 -28 -1 -45 17 -22 9 -107 -12 -141 -10 -14 -13 -50 -13 -112 1 -60 -3
-97 -11 -107 -10 -12 -8 -19 11 -39 30 -31 34 -63 10 -76 -13 -6 -21 -25 -25
-57 -3 -27 -8 -66 -11 -87 -3 -24 -1 -42 6 -46 6 -4 12 -38 13 -76 2 -41 7
-69 14 -72 19 -6 14 -22 -7 -22 -10 0 -24 -6 -30 -14 -10 -11 -8 -17 6 -26 13
-8 14 -13 6 -16 -19 -8 -17 -90 2 -98 8 -3 15 -16 15 -29 0 -14 6 -30 14 -36
8 -7 18 -26 22 -44 6 -29 7 -30 20 -12 10 14 16 15 27 6 8 -6 27 -8 46 -5 31
6 38 14 24 28 -11 11 -12 86 -1 86 7 0 8 15 4 39 -6 40 9 67 20 37 3 -9 13
-16 21 -16 9 0 21 -7 27 -15 6 -8 23 -16 38 -17 30 -2 46 -36 22 -45 -8 -3
-14 -13 -14 -23 0 -21 29 -34 54 -24 10 4 18 0 22 -10 6 -17 44 -23 44 -7 0 5
18 13 40 19 35 9 40 8 45 -9 9 -26 -3 -43 -20 -29 -21 18 -27 -5 -7 -30 15
-19 28 -22 108 -23 62 -1 95 2 103 10 7 7 21 13 32 13 11 0 22 7 25 15 4 8 15
15 25 15 11 0 29 12 42 26 33 38 53 47 77 32 18 -11 23 -10 31 4 5 9 32 40 59
67 28 28 50 55 50 60 0 10 24 40 78 98 20 20 31 41 28 50 -7 17 13 103 24 103
4 0 7 12 8 28 1 50 12 157 17 171 3 7 0 20 -6 27 -15 18 -3 64 16 64 20 0 19
29 -1 37 -12 5 -15 14 -10 44 4 22 2 40 -4 44 -6 4 -8 21 -4 41 9 47 -2 84
-25 84 -21 0 -31 26 -31 81 0 23 -6 39 -15 43 -8 3 -15 14 -15 25 0 11 -13 30
-30 43 -16 12 -30 27 -30 33 0 6 -13 16 -30 22 -20 8 -30 18 -30 32 0 19 -18
27 -51 23 -3 -1 -23 15 -44 34 l-38 35 -102 -2 c-70 -1 -109 3 -124 12 -19 12
-24 12 -34 -3 -11 -13 -25 -15 -80 -11 -41 4 -67 2 -67 -4 0 -14 -41 -59 -67
-72 -12 -6 -29 -8 -38 -5 -11 5 -25 -2 -41 -19 -27 -29 -69 -27 -61 4 3 10 -2
28 -11 40 -11 16 -12 24 -4 27 7 2 12 22 12 46 0 29 7 51 20 66 24 27 25 40 5
40 -8 0 -15 4 -15 9 0 9 30 25 43 23 4 -1 7 7 7 18 0 11 -4 20 -10 20 -16 0
-12 90 5 106 18 19 21 134 3 152 -8 8 -8 15 2 27 12 14 9 20 -21 43 -19 15
-45 37 -57 50 -18 18 -27 20 -37 12 -18 -15 -55 -4 -80 25 -11 12 -26 20 -32
18z m712 -829 c16 -12 18 -18 7 -34 -32 -52 37 -85 113 -55 19 8 19 8 3 -12
-10 -11 -18 -30 -18 -42 0 -22 43 -71 63 -71 5 0 7 -9 4 -21 -3 -13 1 -26 12
-36 14 -12 17 -25 13 -64 -3 -34 0 -56 11 -72 14 -21 14 -26 1 -39 -14 -13
-14 -17 0 -31 20 -20 21 -47 1 -47 -17 0 -17 4 -20 -80 -1 -36 -7 -66 -14 -68
-6 -2 -11 -16 -11 -30 0 -27 -41 -72 -67 -72 -14 0 -16 -6 -17 -60 l-1 -35
-50 0 c-42 0 -50 -3 -53 -20 -3 -11 -9 -23 -16 -27 -11 -8 -230 -1 -278 8 -16
3 -28 10 -28 15 0 5 -13 22 -30 37 -16 16 -30 34 -30 41 0 6 -6 11 -13 11 -6
0 -18 13 -25 29 -7 16 -21 31 -32 34 -14 4 -18 11 -14 30 3 18 -2 30 -13 37
-13 8 -14 13 -5 16 6 3 12 14 12 24 0 21 -31 80 -42 80 -5 0 -8 5 -8 10 0 6 7
10 15 10 20 0 19 20 -2 36 -17 12 -17 14 2 28 17 12 18 19 9 43 -6 16 -7 38
-3 48 4 11 8 34 9 50 0 17 7 39 15 49 8 11 15 41 15 67 0 31 5 49 14 52 8 3
16 16 18 29 2 17 11 24 33 26 16 2 32 7 35 11 5 8 34 23 122 68 26 13 49 27
52 31 2 4 46 8 98 9 67 1 99 -3 113 -13z"/>
<path d="M437 2173 c-4 -3 -7 -14 -7 -22 0 -27 -34 -42 -69 -30 -17 6 -31 15
-31 19 0 4 -12 11 -26 14 -33 9 -74 -26 -74 -60 0 -13 -7 -27 -16 -32 -20 -11
-26 -92 -7 -99 7 -3 13 -10 13 -15 0 -21 33 -78 45 -78 7 0 18 -7 25 -15 11
-13 15 -14 29 -1 9 8 45 16 83 18 80 5 80 3 66 -104 -5 -40 -9 -84 -9 -98 1
-106 4 -139 12 -134 18 10 20 -23 5 -67 -18 -50 -20 -79 -7 -79 17 0 23 -51 8
-64 -18 -13 -29 -150 -15 -164 6 -6 6 -31 -2 -67 -7 -32 -12 -101 -12 -154 0
-52 -5 -103 -11 -113 -8 -13 -7 -25 4 -50 11 -22 15 -57 14 -106 -1 -40 2 -75
6 -78 15 -9 10 -34 -7 -34 -10 0 -13 -6 -10 -18 12 -35 -71 -51 -109 -21 -6 4
-28 6 -50 5 -42 -4 -85 -42 -85 -76 0 -10 -4 -22 -10 -25 -5 -3 -10 -15 -10
-25 0 -11 -9 -24 -19 -30 -22 -11 -18 -50 5 -50 8 0 14 -6 14 -13 0 -8 11 -24
25 -37 14 -13 25 -29 25 -37 0 -7 6 -13 13 -14 6 0 23 -2 37 -4 14 -1 83 -6
155 -9 72 -4 160 -9 197 -11 61 -4 66 -3 61 15 -4 15 0 19 25 18 21 -1 32 -7
35 -19 7 -26 53 -26 60 0 7 27 74 34 80 9 8 -29 65 -24 77 6 12 31 29 41 36
22 3 -9 12 -16 19 -16 7 0 18 -6 24 -14 12 -14 64 -16 77 -3 4 3 1 14 -6 22
-19 23 2 39 53 40 27 1 55 9 73 22 16 11 39 23 51 27 12 4 25 17 29 28 7 24
42 57 60 58 18 0 54 49 54 73 0 12 14 37 30 56 17 18 30 41 30 51 0 9 8 25 19
34 10 9 18 29 19 43 0 14 7 30 16 35 11 6 14 17 10 34 -4 14 0 33 8 47 27 41
29 73 8 100 -17 22 -18 26 -5 37 18 15 20 40 3 40 -9 0 -9 3 -3 8 16 11 65 98
65 116 0 8 -8 19 -17 24 -15 9 -15 11 1 27 14 14 17 33 15 99 -2 45 0 86 4 92
3 6 -5 23 -19 39 -18 21 -24 40 -24 73 0 35 -6 50 -25 68 -25 23 -34 54 -15
54 14 0 13 33 -2 48 -8 8 -8 15 2 27 12 14 11 18 0 25 -11 7 -11 11 -1 24 8 9
10 16 5 16 -4 0 0 6 11 13 19 15 13 37 -10 37 -7 0 -17 9 -20 20 -5 14 -12 19
-25 15 -13 -4 -23 4 -39 30 -11 20 -21 43 -21 51 0 10 -7 13 -25 8 -18 -4 -25
-2 -25 9 0 8 6 17 14 20 9 4 12 14 9 26 -4 15 1 22 21 27 17 4 26 13 26 26 0
19 -4 20 -47 13 -72 -10 -107 -7 -120 11 -7 9 -10 20 -7 25 7 12 -58 55 -85
57 -13 0 -27 6 -31 13 -4 6 -26 11 -49 11 -36 -1 -41 2 -41 21 0 36 -14 51
-31 35 -23 -22 -81 -39 -95 -28 -10 9 -42 9 -244 -4 -14 -1 -31 -5 -38 -10 -7
-4 -55 -4 -105 0 -51 5 -99 9 -108 8 -11 0 -14 7 -11 23 4 22 -15 32 -31 16z
m293 -286 c0 -18 37 -47 59 -47 11 0 26 7 35 15 17 17 88 20 117 4 15 -7 24
-7 35 2 20 17 130 5 174 -18 37 -20 103 -67 131 -94 9 -9 19 -37 23 -62 4 -26
14 -51 23 -55 12 -7 13 -13 4 -30 -9 -16 -7 -24 7 -38 14 -15 17 -37 17 -138
0 -67 4 -127 8 -133 4 -7 3 -22 -4 -34 -6 -13 -9 -43 -6 -73 6 -57 -11 -216
-24 -231 -5 -5 -9 -24 -9 -43 0 -18 -7 -40 -15 -48 -9 -10 -15 -34 -15 -63 0
-31 -5 -53 -15 -61 -8 -7 -15 -19 -15 -27 0 -10 -6 -12 -22 -8 -17 6 -20 4
-15 -9 4 -10 2 -22 -3 -29 -43 -51 -63 -67 -108 -90 -47 -24 -52 -25 -61 -9
-5 9 -13 13 -17 9 -5 -4 -3 -16 4 -27 7 -12 8 -21 2 -25 -6 -3 -10 0 -10 7 0
21 -257 14 -280 -7 -16 -14 -21 -14 -54 6 -45 26 -65 58 -44 70 12 6 14 39 13
166 -1 194 8 302 26 314 12 7 11 14 -3 41 -14 27 -17 58 -16 162 1 116 3 129
20 134 21 5 24 28 4 35 -12 5 -29 82 -31 139 0 9 -3 20 -7 24 -11 10 -10 44 1
44 16 0 23 58 10 82 -14 24 -13 57 1 98 4 14 11 33 14 43 6 20 46 24 46 4z
m-190 -1657 c0 -5 -7 -10 -15 -10 -8 0 -15 5 -15 10 0 6 7 10 15 10 8 0 15 -4
15 -10z"/>
<path d="M940 1176 c0 -34 16 -41 41 -17 25 23 18 41 -17 41 -19 0 -24 -5 -24
-24z"/>
<path d="M793 1105 c4 -44 17 -58 48 -53 34 4 35 34 2 63 -40 35 -54 32 -50
-10z"/>
<path d="M992 948 c2 -18 9 -22 27 -20 35 4 39 11 17 28 -30 21 -48 18 -44 -8z"/>
<path d="M814 809 c-8 -14 11 -33 25 -25 6 4 11 11 11 16 0 13 -29 20 -36 9z"/>
<path d="M814 614 c3 -9 6 -18 6 -21 0 -3 7 0 15 7 17 14 11 30 -12 30 -10 0
-13 -6 -9 -16z"/>
<path d="M1521 1967 c-6 -6 -11 -17 -11 -24 0 -7 -11 -13 -25 -13 -19 0 -25
-5 -25 -21 0 -19 4 -20 39 -14 29 5 46 2 66 -11 25 -16 27 -16 43 7 9 13 17
34 17 46 1 18 -3 21 -22 17 -13 -4 -33 0 -47 9 -17 12 -26 13 -35 4z"/>
<path d="M1642 1837 c4 -24 28 -36 28 -13 0 9 5 16 10 16 22 0 8 15 -16 16
-20 2 -25 -2 -22 -19z"/>
<path d="M11665 1630 c-11 -18 -93 -50 -127 -50 -18 0 -42 -7 -52 -15 -12 -9
-42 -15 -77 -15 -61 0 -84 -15 -56 -35 21 -15 12 -25 -23 -25 -31 0 -80 -38
-80 -62 0 -20 -29 -38 -59 -38 -24 0 -28 25 -6 34 28 10 18 67 -17 105 -18 18
-27 31 -21 27 8 -5 11 -2 7 7 -11 30 -160 30 -171 1 -8 -21 -63 -18 -63 4 0
15 -9 17 -68 14 -53 -3 -71 0 -81 12 -20 24 -36 20 -78 -20 -21 -20 -52 -43
-69 -50 -48 -20 -53 -32 -41 -97 8 -40 17 -59 29 -63 10 -3 18 -10 18 -15 0
-5 8 -9 18 -9 9 0 23 -9 30 -20 7 -11 21 -20 31 -20 11 0 22 -4 25 -9 3 -5 18
-12 33 -16 15 -3 31 -11 34 -17 5 -8 13 -6 24 5 9 10 25 17 36 17 11 0 28 5
38 11 21 14 57 6 89 -19 l22 -17 -21 -60 c-16 -46 -19 -73 -15 -119 10 -104
13 -120 21 -139 4 -11 2 -28 -6 -44 -12 -21 -11 -29 4 -55 17 -29 17 -31 0
-44 -16 -11 -16 -15 -4 -35 10 -17 10 -24 2 -27 -14 -5 -15 -42 -1 -42 6 0 10
-12 10 -28 0 -15 7 -37 15 -49 14 -20 14 -23 -3 -32 -14 -7 -18 -18 -14 -42 3
-22 0 -34 -12 -41 -9 -5 -16 -20 -16 -33 0 -34 -10 -55 -26 -55 -16 0 -56 20
-65 34 -4 4 -16 5 -28 1 -24 -7 -41 19 -23 37 12 12 5 65 -11 86 -15 19 -52
14 -73 -9 -15 -17 -16 -23 -6 -40 11 -17 9 -21 -13 -29 -14 -5 -25 -16 -25
-25 0 -12 -6 -14 -27 -9 -16 4 -31 12 -35 17 -7 12 -92 -9 -123 -30 -11 -7
-27 -13 -37 -13 -10 0 -18 -7 -18 -15 0 -8 7 -15 16 -15 9 0 14 -6 11 -12 -5
-15 -65 -12 -84 3 -7 7 -14 6 -18 -1 -3 -5 1 -10 11 -10 13 0 14 -3 5 -14 -9
-10 -4 -19 20 -38 30 -26 67 -28 74 -4 14 50 16 52 29 34 13 -18 58 -23 114
-12 37 7 37 8 17 -39 -9 -23 -11 -38 -5 -42 6 -3 10 -14 10 -23 1 -9 15 -24
33 -32 27 -13 38 -13 72 -2 22 7 51 10 65 7 14 -4 55 -6 92 -5 37 1 69 -3 73
-9 3 -6 1 -11 -5 -11 -6 0 -8 -4 -5 -10 12 -19 45 -11 45 10 0 26 43 43 84 34
17 -4 53 -6 79 -5 33 1 62 -5 87 -18 33 -17 40 -18 58 -5 14 9 50 14 111 15
82 1 91 3 91 19 0 11 6 23 14 27 7 5 16 33 19 66 6 57 5 59 -33 97 -42 42 -37
41 -200 38 -19 0 -54 1 -77 3 l-43 4 0 83 c0 61 4 87 15 98 8 9 15 26 15 38 0
13 -7 29 -15 36 -10 8 -15 30 -15 64 0 29 -5 57 -10 62 -7 7 -5 26 4 58 8 26
12 54 9 62 -3 8 9 25 27 41 28 23 31 31 26 63 -5 29 -2 41 14 55 13 12 17 21
10 25 -23 14 0 36 33 32 28 -3 39 2 70 38 21 22 43 40 50 39 28 -3 47 2 47 13
0 6 9 22 21 34 22 23 42 22 67 -3 7 -7 19 -13 25 -13 7 0 17 -16 23 -35 8 -26
8 -35 0 -32 -10 3 -36 -35 -36 -55 0 -5 18 -26 41 -48 23 -21 38 -44 34 -49
-3 -6 -2 -11 4 -11 5 0 12 -9 16 -20 3 -10 20 -26 37 -35 35 -17 98 -20 98 -5
0 15 33 50 42 44 4 -3 8 -14 8 -25 0 -11 6 -22 14 -25 21 -8 56 14 56 34 0 9
9 23 21 30 13 8 18 19 14 31 -3 11 0 21 9 24 8 3 14 18 14 34 0 16 13 48 31
74 33 50 41 99 16 99 -11 0 -15 12 -16 48 -1 26 -3 39 -6 29 -4 -16 -7 -16
-29 5 -13 13 -24 32 -24 43 0 19 -39 45 -67 45 -7 0 -13 7 -13 16 0 25 -56 74
-84 74 -14 0 -26 4 -26 10 0 5 -16 12 -35 16 -19 3 -39 12 -46 20 -13 16 -35
18 -44 4z m-605 -789 c0 -12 -20 -25 -27 -18 -7 7 6 27 18 27 5 0 9 -4 9 -9z
m-11 -440 c9 -16 6 -20 -14 -24 -30 -5 -42 8 -25 28 17 20 27 19 39 -4z"/>
<path d="M6165 1606 c-11 -11 -35 -32 -53 -45 -24 -18 -32 -31 -28 -45 3 -11
-1 -27 -8 -36 -18 -20 -3 -60 23 -60 25 0 38 -20 20 -31 -12 -7 -12 -13 1 -36
19 -34 65 -43 84 -18 20 28 51 15 52 -22 0 -21 9 -38 30 -56 28 -24 28 -26 11
-45 -13 -14 -16 -29 -12 -52 4 -23 1 -38 -11 -51 -15 -17 -14 -20 12 -43 16
-14 33 -26 38 -26 14 0 -15 -30 -30 -30 -20 0 -18 -64 2 -84 8 -9 11 -16 6
-16 -6 0 -12 -7 -16 -15 -3 -10 5 -20 24 -30 37 -19 38 -38 5 -71 -31 -31 -31
-40 -2 -48 l22 -7 -22 -16 c-23 -15 -32 -53 -14 -53 21 0 24 -43 4 -59 -10 -9
-27 -26 -37 -38 -17 -21 -17 -22 11 -37 25 -13 26 -15 7 -16 -27 0 -48 -25
-40 -45 3 -8 1 -15 -3 -15 -5 0 -11 4 -13 9 -6 18 -70 17 -90 -1 -8 -7 -29
-26 -47 -43 -29 -27 -33 -28 -42 -12 -14 24 -26 22 -59 -11 -37 -38 -43 -68
-12 -65 16 2 22 -2 22 -17 0 -20 14 -25 54 -21 14 1 17 -4 13 -21 -8 -29 36
-71 64 -63 11 4 27 1 35 -6 12 -10 17 -8 29 7 12 17 28 19 179 19 119 0 168 4
177 12 7 7 18 13 25 13 18 0 37 27 24 35 -17 10 -11 25 9 25 11 0 22 4 25 8 8
13 -17 75 -39 98 -24 25 -79 46 -100 38 -12 -5 -14 0 -9 24 4 17 1 32 -5 36
-6 4 -11 30 -11 57 0 28 -7 60 -15 73 -14 21 -14 24 0 29 18 8 20 43 3 50 -10
3 -10 9 0 26 17 29 15 61 -5 84 -17 18 -17 19 0 32 21 15 24 101 5 108 -10 3
-10 7 1 20 8 10 11 28 8 44 -4 20 2 36 19 56 15 17 22 36 19 47 -3 9 1 23 10
30 8 7 15 24 15 39 0 50 11 71 36 71 13 0 33 9 44 20 11 11 25 20 30 20 6 0
13 7 17 16 5 13 8 12 25 -5 10 -12 28 -21 39 -21 11 0 25 -5 32 -10 7 -6 22
-18 34 -28 17 -13 23 -30 26 -72 2 -30 7 -63 12 -73 4 -11 3 -23 -4 -30 -15
-15 -14 -38 5 -76 13 -26 13 -35 3 -47 -10 -12 -8 -18 9 -30 22 -15 31 -54 12
-54 -5 0 -10 -10 -10 -22 0 -12 -7 -30 -17 -40 -9 -11 -11 -18 -5 -18 7 0 12
-9 12 -20 0 -13 9 -22 25 -26 43 -11 27 -35 -37 -60 -23 -8 -23 -50 -1 -62 10
-6 18 -25 20 -51 2 -33 -2 -45 -24 -66 -15 -14 -31 -25 -35 -25 -14 0 -9 -27
7 -40 14 -12 14 -15 -1 -31 -10 -11 -23 -19 -31 -19 -7 0 -16 -7 -19 -15 -4
-8 -12 -15 -20 -15 -13 0 -20 -29 -14 -55 1 -5 3 -17 4 -25 0 -9 7 -22 14 -30
7 -8 19 -24 27 -35 11 -16 25 -20 77 -20 60 0 63 -1 63 -25 0 -21 5 -26 32
-28 25 -2 39 3 57 22 13 14 30 26 39 26 9 0 22 10 28 22 16 29 28 40 64 58 17
8 33 16 38 18 4 2 7 -3 7 -11 0 -26 30 -47 64 -47 19 0 39 -7 46 -15 7 -8 22
-14 34 -13 11 0 33 -2 48 -6 19 -6 28 -3 36 9 6 12 11 14 16 6 4 -6 18 -11 32
-11 13 0 24 -5 24 -11 0 -6 7 -9 15 -5 8 3 15 1 15 -5 0 -6 5 -7 10 -4 6 3 10
16 10 28 0 31 36 34 44 4 4 -16 13 -22 35 -22 16 0 33 3 37 8 4 4 17 7 30 7
12 0 25 6 28 13 5 9 7 9 12 0 11 -24 34 -13 48 22 14 34 16 84 3 115 -3 8 -8
31 -9 50 -3 31 -7 36 -53 52 -27 10 -67 19 -87 20 -42 1 -71 16 -50 25 19 7
14 51 -8 75 -22 24 -23 40 -11 107 5 25 5 101 1 170 -6 85 -5 130 2 139 17 20
10 342 -8 369 -8 12 -14 28 -14 35 0 18 -49 63 -69 63 -9 0 -27 17 -40 38 -13
20 -30 37 -37 37 -7 0 -19 9 -27 20 -12 17 -26 20 -119 22 -57 0 -109 -2 -115
-5 -6 -4 -13 -25 -17 -47 -6 -37 -8 -40 -40 -40 -18 0 -39 -6 -46 -14 -27 -34
-129 10 -142 62 -11 43 -24 47 -52 18 -24 -27 -46 -34 -46 -16 0 6 -11 10 -24
10 -13 0 -29 7 -36 15 -20 24 -54 18 -78 -15 -13 -16 -27 -30 -33 -30 -6 0
-20 -11 -31 -25 -14 -19 -29 -25 -57 -25 -39 0 -57 14 -79 63 -8 18 -18 27
-26 24 -8 -3 -24 3 -36 13 -22 19 -23 19 -49 1 -30 -21 -47 -18 -78 16 -26 27
-32 27 -58 -1z m1116 -285 c31 -15 39 -52 34 -141 -2 -30 1 -62 6 -72 6 -10 5
-19 -1 -23 -13 -8 -13 -115 0 -115 7 0 8 -6 2 -17 -6 -9 -6 -29 -2 -45 5 -16
5 -30 -1 -33 -16 -10 -10 -45 8 -45 14 0 14 -2 -3 -21 -18 -20 -18 -22 -1 -34
24 -17 24 -122 0 -163 -15 -27 -16 -33 -3 -57 12 -23 12 -28 0 -35 -10 -7 -11
-10 -2 -10 6 0 12 -6 12 -14 0 -19 -55 -46 -91 -46 -16 0 -40 -11 -56 -26 -44
-41 -82 -58 -99 -43 -8 6 -14 18 -14 25 0 8 -4 14 -10 14 -5 0 -10 12 -10 26
0 18 -6 28 -20 31 -17 5 -19 11 -14 38 4 23 1 37 -11 49 -21 20 -22 130 -3
153 9 11 9 19 0 33 -9 14 -8 20 1 23 9 3 7 12 -5 34 -10 17 -15 33 -12 36 3 3
-2 16 -11 30 -20 30 -11 99 17 140 11 15 17 34 14 42 -2 7 0 15 6 17 6 2 10
30 9 66 0 46 3 62 13 62 8 0 23 16 35 35 11 19 24 35 29 35 5 0 15 11 22 25
11 21 20 25 61 25 26 0 51 5 54 11 4 5 10 9 13 7 4 -2 19 -10 33 -17z"/>
<path d="M9700 1600 c-6 -11 -15 -18 -20 -15 -4 3 -16 -3 -26 -12 -29 -30 -64
-43 -114 -43 -40 0 -48 -4 -58 -24 -6 -13 -20 -27 -31 -31 -12 -3 -21 -11 -21
-16 0 -5 -6 -9 -14 -9 -7 0 -17 -18 -22 -42 -7 -32 -16 -46 -37 -56 -15 -7
-28 -21 -28 -30 -1 -9 -2 -28 -3 -42 -1 -14 -7 -25 -13 -26 -7 -1 -18 -2 -24
-3 -6 0 -8 -10 -4 -21 4 -12 1 -27 -5 -35 -7 -8 -10 -24 -7 -35 3 -11 1 -20
-3 -20 -5 0 -11 -10 -15 -22 -3 -13 -11 -33 -18 -46 -9 -19 -8 -25 3 -32 12
-7 13 -13 4 -28 -7 -11 -12 -72 -12 -157 -1 -128 0 -140 19 -153 15 -10 19
-23 17 -46 -3 -28 0 -31 25 -29 21 1 28 -4 33 -22 3 -13 3 -29 -1 -35 -6 -10
28 -75 43 -82 4 -2 16 -20 26 -40 15 -30 16 -40 7 -52 -11 -13 -9 -16 12 -21
14 -4 28 -13 31 -21 3 -8 16 -14 29 -14 15 0 33 -11 47 -30 20 -26 29 -30 71
-30 26 0 51 -4 54 -10 3 -5 23 -17 43 -27 20 -10 50 -31 65 -47 25 -25 31 -27
52 -16 12 7 32 9 43 6 11 -4 23 -2 27 4 4 6 13 9 21 6 8 -3 17 1 20 9 8 19 34
20 34 1 0 -20 32 -45 37 -28 3 6 18 12 34 12 16 0 29 5 29 11 0 7 10 9 24 5
29 -7 43 9 26 29 -24 29 -4 45 57 45 32 0 82 3 111 6 51 7 52 7 52 41 0 20 6
36 14 39 8 3 20 19 26 35 7 16 16 26 21 23 22 -13 49 18 55 66 4 27 13 55 20
61 19 15 18 55 -1 63 -8 3 -15 15 -15 26 0 11 7 23 15 26 21 9 19 38 -5 59
-13 11 -18 25 -14 37 6 20 -24 38 -35 20 -3 -5 -17 -12 -31 -13 -16 -3 -26
-12 -30 -29 -4 -16 -14 -26 -29 -28 -13 -2 -26 -12 -28 -23 -3 -10 -9 -19 -14
-19 -5 0 -14 -11 -19 -25 -6 -15 -17 -25 -30 -25 -11 0 -24 -8 -27 -17 -13
-35 -66 -73 -100 -73 -37 0 -73 29 -73 59 0 38 -35 38 -58 0 -11 -17 -10 -24
8 -48 24 -34 26 -59 5 -67 -8 -4 -15 -12 -15 -20 0 -19 -96 -18 -130 1 -14 8
-41 14 -61 15 -23 0 -39 6 -43 15 -3 8 -15 15 -27 15 -44 0 -99 23 -99 41 0
10 -10 26 -22 36 -22 18 -38 42 -74 112 -14 27 -15 37 -6 52 8 12 8 19 2 19
-5 0 -10 9 -10 20 0 11 -4 20 -10 20 -5 0 -10 5 -10 10 0 17 58 11 69 -7 9
-16 11 -16 28 -1 36 32 60 31 84 -2 15 -20 26 -27 33 -20 11 11 206 14 206 4
0 -4 -8 -13 -17 -20 -15 -10 -16 -15 -5 -25 18 -19 15 -28 -10 -39 l-23 -9 22
0 c13 -1 30 -12 39 -26 16 -24 48 -33 58 -17 3 5 8 33 11 63 11 90 11 93 18
112 20 52 21 52 25 17 2 -19 9 -38 15 -42 20 -13 71 -8 91 7 27 20 66 19 81
-2 11 -15 16 -16 38 -4 14 7 30 11 35 7 6 -3 13 -2 16 2 3 5 31 8 63 8 32 -1
68 4 81 10 31 16 62 79 56 114 -4 15 -1 31 5 34 15 10 14 41 -2 54 -8 7 -13
31 -11 64 1 43 -3 56 -20 70 -15 12 -20 27 -19 59 2 51 -22 90 -72 113 -25 12
-35 24 -35 40 0 14 -20 41 -55 75 -31 29 -60 63 -65 76 -8 21 -14 24 -38 19
-22 -5 -40 1 -72 22 -35 24 -52 28 -100 27 -42 -2 -60 2 -64 12 -6 16 -62 11
-80 -6 -15 -14 -42 -11 -56 6 -19 23 -87 20 -100 -5z m67 -270 c4 -16 14 -20
48 -20 24 0 45 5 47 12 3 7 9 8 19 2 15 -10 18 -10 134 -14 101 -3 117 -7 113
-29 -2 -10 13 -33 35 -53 20 -19 37 -44 37 -56 0 -11 8 -22 18 -25 23 -5 37
-64 21 -83 -17 -21 -56 -13 -68 13 -14 31 -29 29 -33 -4 -3 -32 -44 -46 -54
-19 -8 22 -47 20 -68 -3 -27 -30 -129 -8 -139 30 -6 23 -34 25 -59 2 -15 -13
-37 -16 -118 -14 -83 2 -101 -1 -106 -13 -8 -20 -53 -21 -60 -2 -3 8 -17 17
-30 20 l-25 7 29 37 c48 62 72 108 72 137 0 23 3 26 20 21 11 -3 29 -9 40 -12
16 -5 20 0 26 34 6 38 9 41 43 45 20 2 40 4 44 5 5 1 11 -7 14 -18z"/>
<path d="M9930 1176 c0 -21 21 -31 31 -15 14 22 11 29 -11 29 -11 0 -20 -6
-20 -14z"/>
<path d="M2295 1580 c-3 -6 -17 -7 -31 -4 -21 5 -26 1 -39 -30 -16 -38 -32
-44 -67 -25 -18 10 -24 8 -41 -15 -13 -18 -28 -26 -48 -26 -40 0 -105 -36
-135 -76 -14 -18 -46 -45 -70 -59 -27 -16 -46 -35 -50 -50 -7 -28 -19 -32 -28
-10 -6 17 -51 21 -61 6 -3 -6 4 -15 15 -21 11 -6 20 -17 20 -25 0 -8 5 -15 10
-15 15 0 12 -26 -5 -40 -9 -7 -15 -29 -15 -54 0 -23 -7 -51 -15 -63 -10 -15
-12 -24 -5 -28 8 -5 7 -11 -1 -21 -9 -11 -9 -17 0 -28 9 -10 9 -20 2 -33 -17
-30 -31 -176 -19 -191 8 -10 7 -17 -4 -28 -16 -16 -13 -68 3 -58 5 3 9 -6 9
-21 0 -14 7 -28 15 -31 8 -4 15 -15 15 -25 0 -11 6 -29 13 -40 10 -17 10 -23
0 -26 -15 -5 -18 -33 -4 -33 5 0 30 -20 55 -45 26 -25 42 -45 36 -45 -5 0 -10
-14 -10 -30 0 -23 6 -33 25 -40 14 -5 29 -9 34 -7 4 1 27 -19 50 -45 24 -26
50 -47 59 -46 41 3 54 -2 48 -19 -8 -20 10 -33 47 -33 25 0 27 -3 27 -39 l0
-38 203 -2 c112 -1 211 1 219 4 9 4 14 13 11 21 -5 14 7 17 82 18 27 1 30 5
33 34 3 31 5 33 32 27 21 -5 34 -1 49 14 12 12 34 21 51 21 34 0 32 24 -3 35
-24 8 -20 9 46 20 33 5 37 9 37 35 0 20 5 30 15 30 8 0 15 7 15 15 0 8 -7 15
-15 15 -22 0 -18 17 5 30 12 6 25 22 30 36 5 13 16 24 25 24 26 0 16 25 -15
37 -33 12 -39 39 -14 58 23 16 12 54 -25 94 -25 26 -34 30 -62 25 -59 -11 -84
-27 -87 -57 -2 -19 -11 -31 -28 -37 -13 -5 -24 -17 -24 -26 0 -10 -23 -39 -52
-66 -40 -37 -59 -48 -84 -48 -21 0 -43 -9 -60 -25 -15 -14 -33 -24 -40 -21
-16 6 -74 -22 -74 -35 0 -15 -40 -10 -57 6 -8 9 -29 15 -48 13 -18 -1 -44 6
-58 15 -15 9 -42 17 -62 17 -19 0 -35 4 -35 9 0 5 -11 12 -25 15 -15 4 -27 16
-31 30 -3 14 -12 27 -20 30 -8 3 -14 19 -14 35 0 16 -5 31 -10 33 -6 2 -12 13
-15 26 -2 12 -11 29 -19 38 -22 21 -20 41 4 49 11 3 20 11 20 16 0 5 16 9 35
9 24 0 35 5 35 15 0 8 4 15 10 15 5 0 7 7 4 15 -5 11 1 15 21 15 33 0 65 -17
65 -34 0 -22 23 -35 65 -37 22 -1 45 -6 52 -11 6 -5 28 -8 49 -6 32 3 39 8 47
33 13 39 35 55 72 52 25 -2 31 -7 35 -32 5 -29 7 -30 64 -30 38 0 61 -4 64
-12 7 -23 43 -14 73 20 27 28 32 30 42 16 19 -24 62 -32 78 -13 9 11 23 14 46
11 24 -4 33 -2 33 8 0 7 5 15 11 17 9 3 9 9 1 25 -9 17 -8 24 10 39 44 40 66
157 34 183 -7 6 -16 27 -19 47 -3 20 -12 42 -18 51 -8 8 -12 37 -10 69 2 53 1
56 -28 67 -19 7 -31 18 -31 29 0 10 -6 18 -13 18 -12 0 -25 20 -47 73 -9 21
-21 29 -51 33 -21 4 -39 12 -39 19 0 22 -45 65 -68 65 -12 0 -31 9 -42 20 -23
23 -36 25 -47 7 -10 -18 -51 -28 -59 -15 -3 5 -17 7 -30 4 -32 -8 -30 2 3 15
34 13 20 25 -39 33 -34 5 -48 4 -48 -4 0 -16 -51 -4 -66 16 -13 17 -21 18 -29
4z m90 -310 c3 -5 23 -10 45 -10 24 0 40 -5 44 -15 8 -21 36 -19 36 3 0 32 10
31 47 -4 19 -19 40 -37 47 -41 17 -11 76 -101 76 -117 0 -8 7 -16 15 -20 21
-8 19 -32 -4 -48 -16 -11 -36 -12 -111 -2 -94 11 -140 9 -140 -8 0 -5 -8 -8
-17 -6 -10 1 -23 -1 -29 -4 -6 -4 -30 1 -52 12 -51 25 -77 25 -100 2 -30 -30
-50 -33 -66 -11 -12 18 -22 20 -79 16 -35 -3 -69 -2 -75 2 -5 3 -12 22 -13 41
-3 27 0 35 16 40 32 8 65 43 65 67 0 18 6 23 25 23 14 0 30 9 37 20 9 14 24
20 49 20 20 0 52 7 71 15 27 11 38 11 47 2 10 -9 16 -7 28 11 17 24 28 28 38
12z m-125 -470 c0 -5 -4 -10 -10 -10 -5 0 -10 5 -10 10 0 6 5 10 10 10 6 0 10
-4 10 -10z m-45 -650 c3 -5 -1 -10 -9 -10 -9 0 -16 5 -16 10 0 6 4 10 9 10 6
0 13 -4 16 -10z"/>
<path d="M4000 1560 c-25 -4 -51 -5 -58 -2 -7 2 -21 -3 -32 -13 -13 -12 -33
-16 -73 -14 -50 2 -59 -1 -91 -29 -52 -45 -76 -59 -118 -66 -21 -4 -42 -15
-48 -25 -5 -10 -28 -26 -50 -35 -32 -13 -40 -21 -40 -41 0 -14 5 -25 10 -25
23 0 8 -27 -24 -42 -21 -11 -36 -26 -40 -44 -4 -15 -16 -38 -26 -51 -13 -17
-17 -34 -13 -56 3 -23 0 -37 -11 -46 -9 -7 -16 -20 -16 -29 0 -8 -9 -30 -21
-49 -15 -25 -19 -41 -13 -61 4 -15 6 -31 4 -37 -2 -5 -4 -62 -5 -125 -1 -98 1
-119 17 -139 10 -13 18 -34 18 -46 0 -13 7 -26 16 -29 9 -4 14 -13 10 -22 -3
-8 4 -28 15 -44 15 -20 20 -36 15 -54 -5 -19 -2 -28 9 -32 8 -4 15 -12 15 -19
0 -7 20 -31 45 -53 29 -26 45 -48 45 -63 0 -44 13 -52 70 -45 42 6 57 3 85
-14 18 -11 36 -27 39 -35 3 -9 18 -15 36 -15 24 0 30 -4 28 -17 -2 -13 6 -19
35 -24 32 -5 37 -3 37 13 0 10 4 18 9 18 5 0 17 3 26 6 13 5 16 2 13 -17 l-3
-24 113 0 c116 -1 127 1 127 23 0 6 5 12 10 11 6 0 9 -7 9 -15 -1 -9 8 -14 25
-14 20 0 27 5 27 20 0 11 -9 23 -21 27 -19 6 -19 7 5 14 14 4 39 7 55 8 19 1
43 13 63 31 18 17 39 30 46 30 6 0 23 13 36 30 14 16 32 29 41 30 9 0 19 7 23
15 3 8 12 15 20 15 19 0 40 36 32 55 -3 8 1 21 9 29 11 11 15 41 15 116 0 93
-2 103 -22 121 -30 24 -64 24 -95 -1 -14 -11 -31 -20 -37 -20 -22 -1 -56 -39
-56 -63 0 -31 -25 -58 -45 -51 -8 4 -15 1 -15 -6 0 -6 -4 -9 -9 -5 -6 3 -21
-6 -34 -21 -20 -21 -35 -27 -71 -28 -38 -1 -51 -6 -66 -26 -11 -14 -20 -31
-20 -37 0 -9 -7 -10 -24 -4 -16 7 -32 5 -50 -4 -34 -18 -58 -5 -77 39 -13 29
-17 31 -71 31 -42 0 -61 5 -70 17 -7 9 -24 18 -38 20 -16 2 -25 9 -25 20 0 10
-16 29 -34 43 -43 31 -51 43 -51 76 0 15 -6 32 -14 38 -10 9 -13 27 -11 61 3
34 -1 52 -11 61 -15 12 -19 41 -7 53 10 9 12 89 3 101 -11 14 7 55 24 55 9 0
17 15 21 42 8 47 56 114 89 124 12 3 31 15 42 26 30 27 120 23 136 -5 12 -22
28 -11 31 21 1 17 9 22 42 26 22 2 54 3 70 2 17 -2 42 -4 56 -4 20 -2 28 -10
37 -39 7 -23 8 -42 2 -54 -6 -10 -10 -33 -10 -53 0 -19 -4 -38 -10 -41 -5 -3
-10 -14 -10 -24 0 -17 16 -27 64 -37 26 -6 24 -4 45 -60 14 -42 21 -49 46 -52
17 -2 34 -7 38 -12 12 -11 75 5 96 24 10 9 25 16 34 16 20 0 27 11 28 47 2 41
20 73 41 73 22 0 24 28 2 37 -11 4 -15 19 -14 62 1 31 1 90 1 131 -1 73 -1 75
-31 88 -22 10 -31 22 -36 48 -3 19 -12 34 -19 34 -8 0 -21 7 -30 16 -8 9 -33
18 -54 21 -36 5 -39 8 -45 42 -4 30 -10 37 -31 39 -14 1 -25 -3 -25 -8 0 -6
-28 -10 -64 -10 -54 0 -64 3 -69 19 -5 20 -21 22 -97 11z"/>
<path d="M5264 1549 c-21 -4 -44 -5 -50 -2 -7 2 -28 -11 -47 -30 -31 -32 -38
-34 -85 -31 -27 2 -56 5 -62 6 -7 2 -17 -10 -21 -27 -5 -16 -19 -34 -31 -40
-18 -8 -24 -20 -28 -60 -5 -50 -5 -50 -45 -55 -42 -5 -39 0 -60 -105 -2 -11
-13 -30 -23 -41 -30 -32 -44 -63 -37 -84 4 -12 2 -20 -4 -20 -15 0 -14 -53 1
-68 9 -9 9 -12 1 -12 -17 0 -27 -87 -16 -124 8 -26 6 -41 -9 -74 l-20 -41 26
-28 c28 -30 35 -80 14 -102 -11 -10 -7 -17 16 -36 19 -15 27 -28 22 -40 -8
-21 10 -55 29 -55 30 0 70 -34 67 -57 -2 -12 4 -33 14 -47 9 -14 13 -26 8 -26
-4 0 6 -12 23 -28 24 -21 29 -31 22 -44 -11 -20 15 -38 55 -38 18 0 25 -6 28
-22 2 -19 9 -23 41 -23 30 0 39 -4 43 -21 5 -21 11 -22 90 -20 47 2 90 8 95
13 14 14 70 -1 87 -24 10 -15 16 -15 32 -5 11 6 32 12 48 12 15 0 37 7 48 15
10 8 27 15 36 15 10 0 22 9 28 20 6 11 15 18 19 15 5 -3 12 2 15 11 4 11 17
15 43 14 80 -4 88 -1 100 30 12 31 25 36 86 31 27 -2 28 -1 26 47 -2 50 22
101 49 102 6 0 13 5 13 10 3 19 5 25 17 47 11 19 9 22 -11 25 -14 2 -23 11
-25 27 -3 20 0 23 17 18 35 -9 36 13 2 42 -34 29 -38 43 -17 60 10 9 15 8 20
-4 7 -18 26 -20 26 -2 -1 26 -30 49 -69 54 -23 3 -41 1 -41 -4 0 -5 -26 -22
-59 -38 -56 -29 -59 -32 -67 -80 -8 -46 -11 -50 -44 -56 -21 -5 -47 -21 -66
-43 -18 -20 -39 -36 -48 -36 -9 0 -21 -8 -27 -19 -7 -11 -20 -16 -30 -14 -10
3 -32 -2 -50 -11 -22 -11 -36 -13 -50 -5 -13 7 -34 5 -72 -6 -53 -15 -114 -15
-126 2 -16 22 -66 53 -87 53 -17 0 -24 6 -24 20 0 26 -34 60 -60 60 -15 0 -22
8 -26 29 -4 17 -12 32 -20 35 -17 7 -18 53 -1 59 9 3 7 9 -6 24 -16 19 -16 21
4 39 17 15 35 18 99 17 58 -2 82 2 90 13 7 7 25 14 41 14 15 0 31 5 34 10 5 8
12 7 22 -1 8 -8 40 -12 79 -11 71 2 79 -7 39 -44 -19 -18 -24 -30 -19 -49 3
-14 11 -25 17 -25 6 0 18 -7 28 -16 19 -17 39 -11 39 12 0 8 -10 14 -25 14
-26 0 -33 14 -14 26 6 3 8 15 5 27 -9 35 11 57 52 57 20 0 46 7 56 15 27 20
70 20 62 0 -16 -43 33 -62 52 -21 13 30 52 54 52 33 0 -34 73 -69 84 -40 4 9
25 13 65 13 53 0 59 2 65 23 3 13 17 29 31 35 28 13 32 27 10 36 -18 6 -20 42
-4 52 7 4 28 7 48 8 42 1 49 20 9 24 -16 2 -28 9 -28 15 0 7 -8 24 -17 37 -16
22 -30 67 -49 162 -3 14 -19 39 -35 54 -16 15 -29 38 -29 50 0 14 -8 24 -23
28 -12 3 -35 26 -51 51 -16 25 -36 45 -44 45 -20 0 -82 67 -82 90 0 19 -46 35
-56 19 -7 -13 -34 -11 -34 2 0 36 -110 61 -130 29 -7 -11 -11 -11 -24 -1 -17
14 -104 19 -162 10z m86 -199 c0 -5 -4 -10 -9 -10 -6 0 -13 5 -16 10 -3 6 1
10 9 10 9 0 16 -4 16 -10z m56 -51 c18 1 37 -5 44 -14 7 -8 18 -15 26 -15 7 0
18 -9 24 -20 9 -16 17 -18 60 -13 30 3 50 2 50 -4 0 -5 11 -15 25 -21 17 -8
25 -20 25 -36 0 -13 7 -29 15 -36 8 -7 15 -20 15 -29 0 -9 5 -22 11 -28 40
-40 -53 -70 -250 -81 -133 -7 -144 -6 -149 10 -6 23 -57 24 -80 2 -14 -14 -33
-16 -136 -10 -65 3 -121 8 -124 11 -3 3 4 15 16 28 12 13 22 28 22 35 0 14 37
35 50 27 10 -6 50 15 50 26 0 4 -9 9 -21 12 -22 6 -21 34 1 29 6 -1 14 7 17
18 5 17 27 26 56 21 4 -1 10 6 13 14 4 8 13 15 20 15 8 0 17 7 20 15 4 8 17
15 30 15 13 0 41 9 61 20 23 12 45 17 58 13 11 -3 34 -6 51 -4z"/>
<path d="M5417 1114 c-9 -10 2 -24 19 -24 8 0 14 7 14 15 0 15 -21 21 -33 9z"/>
<path d="M5390 1040 c0 -5 5 -10 10 -10 6 0 10 5 10 10 0 6 -4 10 -10 10 -5 0
-10 -4 -10 -10z"/>
<path d="M5970 1440 c0 -5 5 -10 10 -10 6 0 10 5 10 10 0 6 -4 10 -10 10 -5 0
-10 -4 -10 -10z"/>
<path d="M1760 1405 c0 -8 5 -15 10 -15 6 0 10 7 10 15 0 8 -4 15 -10 15 -5 0
-10 -7 -10 -15z"/>
<path d="M10557 973 c-13 -12 -7 -23 13 -23 11 0 20 7 20 15 0 15 -21 21 -33
8z"/>
<path d="M3942 787 c-9 -10 -6 -21 11 -45 28 -40 42 -36 42 14 0 32 -4 40 -21
42 -11 2 -26 -3 -32 -11z"/>
<path d="M2127 739 c-18 -10 -18 -12 3 -26 28 -20 70 -9 70 17 0 15 -7 20 -27
20 -16 0 -36 -5 -46 -11z"/>
<path d="M2465 730 c-3 -5 1 -10 9 -10 9 0 16 5 16 10 0 6 -4 10 -9 10 -6 0
-13 -4 -16 -10z"/>
<path d="M5495 580 c3 -5 10 -10 16 -10 5 0 9 5 9 10 0 6 -7 10 -16 10 -8 0
-12 -4 -9 -10z"/>
<path d="M5510 536 c0 -9 7 -16 16 -16 9 0 14 5 12 12 -6 18 -28 21 -28 4z"/>
<path d="M1595 431 c4 -8 -1 -14 -14 -18 -31 -8 -26 -25 7 -21 19 2 27 9 27
22 0 11 -6 21 -14 24 -9 3 -11 0 -6 -7z"/>
<path d="M1350 346 c0 -8 5 -18 11 -21 6 -4 8 -13 6 -19 -4 -9 3 -11 19 -8 20
4 24 10 22 31 -2 20 -9 27 -30 29 -20 2 -28 -1 -28 -12z"/>
<path d="M1294 299 c-10 -17 13 -36 27 -22 12 12 4 33 -11 33 -5 0 -12 -5 -16
-11z"/>
<path d="M3217 223 c-12 -11 -8 -23 8 -23 8 0 15 7 15 15 0 16 -12 20 -23 8z"/>
<path d="M2720 10 c-11 -7 1 -10 40 -10 39 0 51 3 40 10 -19 12 -61 12 -80 0z"/>
<path d="M188 3 c6 -2 18 -2 25 0 6 3 1 5 -13 5 -14 0 -19 -2 -12 -5z"/>
<path d="M788 3 c6 -2 18 -2 25 0 6 3 1 5 -13 5 -14 0 -19 -2 -12 -5z"/>
<path d="M918 3 c6 -2 18 -2 25 0 6 3 1 5 -13 5 -14 0 -19 -2 -12 -5z"/>
<path d="M1198 3 c6 -2 18 -2 25 0 6 3 1 5 -13 5 -14 0 -19 -2 -12 -5z"/>
<path d="M1913 3 c9 -2 23 -2 30 0 6 3 -1 5 -18 5 -16 0 -22 -2 -12 -5z"/>
<path d="M6063 3 c9 -2 23 -2 30 0 6 3 -1 5 -18 5 -16 0 -22 -2 -12 -5z"/>
<path d="M6213 3 c9 -2 23 -2 30 0 6 3 -1 5 -18 5 -16 0 -22 -2 -12 -5z"/>
</g>
</svg>
