<?xml version="1.0" standalone="no"?>
<!DOCTYPE svg PUBLIC "-//W3C//DTD SVG 20010904//EN"
 "http://www.w3.org/TR/2001/REC-SVG-20010904/DTD/svg10.dtd">
<svg version="1.0" xmlns="http://www.w3.org/2000/svg"
 width="100.000000pt" height="44.206009pt" viewBox="0 0 100.000000 44.206009"
 preserveAspectRatio="xMidYMid meet">
<metadata>
Created by potrace 1.11, written by Peter Selinger 2001-2013
</metadata>
<g transform="translate(0.000000,44.206009) scale(0.042918,-0.042918)"
fill="#000000" stroke="none">
<path d="M496 949 c-32 -5 -64 -13 -70 -18 -6 -5 -37 -17 -70 -27 -33 -10 -74
-33 -94 -51 -20 -18 -40 -33 -44 -33 -4 0 -8 -4 -8 -9 0 -6 -16 -27 -35 -48
-34 -37 -35 -40 -30 -105 2 -38 10 -78 16 -90 7 -13 16 -52 20 -88 17 -161 72
-361 103 -382 16 -11 176 -2 189 11 6 6 17 11 25 11 32 0 159 65 190 96 13 13
27 24 32 24 6 0 10 5 10 11 0 6 14 24 30 41 32 32 81 119 86 153 2 11 8 49 13
85 19 119 6 211 -36 261 -7 8 -13 20 -13 26 0 24 -46 66 -113 103 -76 42 -94
45 -201 29z m28 -174 c9 -10 34 -15 68 -15 45 0 59 -5 84 -27 37 -34 55 -84
49 -138 -6 -63 -24 -147 -34 -159 -5 -6 -12 -21 -16 -34 -7 -24 -73 -91 -89
-92 -5 0 -18 -7 -27 -16 -10 -9 -48 -25 -84 -35 l-65 -18 -14 27 c-7 15 -11
33 -9 40 3 8 -2 32 -10 55 -17 43 -31 142 -42 283 -7 91 -11 86 95 123 68 24
75 25 94 6z m76 5 c12 -8 12 -10 -5 -10 -11 0 -27 5 -35 10 -12 8 -12 10 5 10
11 0 27 -5 35 -10z"/>
<path d="M1220 750 c-68 -12 -187 -57 -224 -85 -19 -14 -37 -37 -40 -50 -4
-14 -13 -25 -21 -25 -19 0 -35 -40 -35 -86 0 -19 -7 -48 -15 -63 -8 -16 -17
-69 -21 -118 -6 -84 -5 -91 16 -110 30 -29 70 -35 245 -38 109 -2 156 1 171
10 26 17 53 119 37 143 -23 38 -101 46 -192 21 -7 -2 -15 1 -18 7 -6 17 47 47
82 46 25 -1 34 5 49 32 18 33 18 35 0 66 -16 26 -23 30 -44 25 -14 -4 -46 -8
-71 -11 -43 -3 -47 -2 -52 22 -7 36 21 47 105 40 89 -7 126 1 145 30 13 20 13
31 3 76 -20 82 -22 84 -120 68z"/>
<path d="M1670 750 c0 -5 -9 -10 -20 -10 -22 0 -129 -48 -148 -67 -7 -7 -18
-13 -24 -13 -24 0 -64 -46 -100 -117 -33 -64 -39 -84 -35 -117 3 -21 10 -42
15 -45 5 -3 15 -21 23 -38 8 -18 17 -33 22 -33 9 0 16 -6 67 -50 59 -53 92
-62 186 -52 63 7 88 15 106 32 12 12 46 35 74 51 l52 30 7 64 c10 96 4 107
-56 102 -31 -3 -58 -11 -72 -24 -12 -11 -33 -27 -47 -36 -31 -19 -138 -57
-162 -57 -23 0 -45 36 -54 87 -5 33 -2 49 16 77 12 20 27 36 34 36 6 0 18 9
25 19 13 17 17 18 48 4 33 -13 36 -13 61 13 25 24 32 26 83 20 41 -4 61 -1 77
10 31 22 28 64 -6 97 -25 24 -36 27 -100 27 -41 0 -72 -4 -72 -10z"/>
<path d="M2003 372 c-30 -25 -31 -30 -23 -70 11 -59 19 -65 78 -57 41 5 92 33
92 49 0 23 -36 79 -60 91 -40 21 -50 19 -87 -13z m17 -51 c0 -5 -7 -14 -15
-21 -13 -10 -15 -9 -15 9 0 12 6 21 15 21 8 0 15 -4 15 -9z"/>
</g>
</svg>
