<?xml version="1.0" standalone="no"?>
<!DOCTYPE svg PUBLIC "-//W3C//DTD SVG 20010904//EN"
 "http://www.w3.org/TR/2001/REC-SVG-20010904/DTD/svg10.dtd">
<svg version="1.0" xmlns="http://www.w3.org/2000/svg"
 width="100.000000pt" height="57.522124pt" viewBox="0 0 100.000000 57.522124"
 preserveAspectRatio="xMidYMid meet">
<metadata>
Created by potrace 1.11, written by Peter Selinger 2001-2013
</metadata>
<g transform="translate(0.000000,57.522124) scale(0.011062,-0.011062)"
fill="#000000" stroke="none">
<path d="M4207 5133 c-13 -12 -7 -23 13 -23 11 0 20 7 20 15 0 15 -21 21 -33
8z"/>
<path d="M3399 5014 c-35 -36 -72 -73 -81 -82 -10 -9 -18 -20 -18 -24 0 -4
-24 -31 -52 -60 -29 -29 -65 -68 -81 -85 -34 -42 -63 -45 -124 -17 -18 8 -33
19 -33 24 0 5 -15 16 -32 24 -29 14 -40 14 -85 2 -60 -16 -106 -49 -123 -88
-7 -16 -26 -32 -45 -39 -37 -14 -55 -52 -55 -120 0 -44 14 -73 53 -112 12 -12
17 -27 13 -42 -5 -20 -12 -64 -31 -205 -7 -48 -7 -219 0 -515 11 -486 15 -571
30 -690 8 -65 15 -193 15 -282 0 -138 -2 -163 -15 -163 -8 0 -15 7 -15 15 0 8
-4 15 -10 15 -5 0 -10 9 -10 19 0 11 -3 21 -7 23 -5 2 -23 32 -42 68 -19 36
-52 82 -75 103 -118 110 -140 129 -178 148 -52 26 -70 47 -112 129 -47 90
-104 182 -117 191 -11 6 -15 117 -5 127 3 2 15 -6 28 -18 13 -12 37 -29 53
-37 17 -8 44 -27 60 -42 71 -64 117 -70 131 -16 8 31 -12 64 -63 102 -20 15
-47 38 -60 51 -13 12 -48 34 -76 48 -29 15 -53 27 -54 28 -1 1 2 19 7 41 5 23
5 66 1 100 -5 36 -5 67 1 78 5 10 10 56 10 103 1 130 -11 149 -165 249 -21 14
-42 25 -46 25 -13 0 -101 93 -101 107 0 6 -6 16 -12 20 -11 6 -36 65 -52 118
-9 29 -19 54 -36 88 -16 32 -16 39 -4 51 13 14 35 72 48 129 9 39 -29 107 -60
107 -13 0 -26 5 -30 11 -4 6 -36 25 -71 41 -35 16 -67 36 -70 44 -3 9 0 47 7
85 15 79 7 99 -42 99 -23 0 -31 -6 -40 -31 -8 -22 -15 -28 -27 -23 -37 15 -49
15 -65 -1 -9 -9 -16 -25 -16 -35 0 -10 -4 -22 -10 -25 -6 -4 -10 10 -10 34 0
54 -18 90 -48 98 -30 7 -47 -13 -63 -72 -6 -22 -22 -71 -34 -110 -13 -38 -28
-104 -35 -145 -15 -83 -27 -113 -75 -181 -18 -25 -40 -62 -50 -83 -18 -37 -18
-38 3 -59 22 -21 37 -19 84 15 15 10 20 9 33 -7 24 -32 15 -60 -22 -63 -35 -4
-48 -24 -33 -52 8 -14 6 -30 -5 -56 -8 -20 -22 -82 -31 -138 -9 -55 -20 -105
-26 -111 -16 -17 -46 30 -46 75 -1 71 -53 108 -158 114 -94 6 -166 24 -185 47
-37 41 -102 47 -114 9 -7 -21 31 -99 51 -107 8 -3 14 -11 14 -17 0 -27 199
-204 212 -190 3 2 25 -19 49 -47 58 -66 71 -115 51 -189 -17 -61 -25 -70 -63
-70 -14 0 -30 -5 -36 -11 -8 -8 -13 -7 -18 1 -4 7 11 30 39 58 58 57 57 78 -4
101 -26 10 -67 39 -96 68 -33 33 -66 55 -90 62 -22 6 -44 19 -51 30 -7 11 -29
22 -52 26 -41 7 -52 3 -134 -43 -29 -17 -52 -22 -100 -20 -68 2 -107 -13 -107
-41 0 -26 18 -38 88 -61 64 -21 79 -19 127 15 17 12 48 30 69 40 l39 17 61
-30 c81 -40 100 -62 91 -101 -4 -17 -10 -31 -14 -31 -4 0 -15 -14 -25 -30 -21
-36 -11 -55 33 -65 15 -3 38 -19 50 -36 29 -39 64 -53 129 -50 l52 3 -10 -27
c-9 -25 -36 -230 -46 -356 -2 -26 -9 -59 -16 -75 l-12 -29 -3 30 c-2 17 -7 92
-11 169 l-7 138 -50 20 c-37 15 -78 21 -155 23 -58 1 -136 7 -174 12 -81 11
-102 31 -104 102 -5 127 -162 122 -275 -9 -20 -24 -37 -49 -37 -55 0 -15 32
-45 48 -45 6 0 41 24 79 54 75 61 84 60 102 -7 6 -23 19 -56 30 -73 17 -28 28
-33 88 -43 37 -7 90 -19 116 -27 39 -13 57 -14 93 -5 24 6 57 9 72 6 15 -4 37
-8 48 -11 32 -6 42 -46 47 -177 l3 -119 -30 5 c-17 3 -71 15 -119 26 -49 11
-103 17 -120 14 -26 -4 -43 3 -86 32 -60 42 -88 49 -125 35 -21 -8 -26 -16
-26 -43 0 -53 22 -73 100 -92 39 -10 85 -27 103 -39 18 -11 60 -34 94 -51 36
-17 68 -40 78 -57 9 -15 23 -28 31 -28 8 0 17 -7 20 -15 6 -14 -19 -93 -42
-130 -21 -35 -27 -86 -13 -111 10 -20 8 -32 -16 -89 -15 -36 -31 -65 -35 -65
-11 0 -31 -86 -24 -104 9 -23 51 -20 64 4 11 20 11 20 41 -2 l31 -23 49 54
c27 30 49 61 49 68 0 7 5 13 10 13 14 0 12 -16 -6 -52 -9 -17 -14 -42 -11 -57
3 -17 -1 -32 -15 -46 -61 -62 -108 -121 -108 -136 0 -10 -15 -24 -37 -33 -21
-9 -45 -21 -53 -26 -31 -20 -84 -41 -96 -38 -24 6 6 47 60 83 31 20 56 41 56
46 0 5 0 12 0 17 -2 22 -109 -30 -150 -73 -13 -14 -32 -25 -43 -25 -19 0 -19
-1 1 -19 12 -10 22 -23 22 -30 0 -6 5 -11 10 -11 6 0 10 -23 10 -51 l0 -50 32
3 c38 4 108 36 108 49 0 5 6 6 13 3 8 -3 20 2 27 10 11 14 16 13 42 -9 33 -28
48 -31 66 -13 9 9 12 9 12 0 0 -6 7 -9 15 -6 12 5 14 -2 10 -42 -3 -27 -7
-109 -10 -183 -5 -125 -36 -293 -61 -332 -12 -19 -63 -75 -104 -115 -34 -34
-34 -34 -17 -63 9 -16 17 -49 17 -73 0 -24 4 -58 10 -76 7 -26 5 -43 -9 -75
-10 -23 -26 -58 -34 -77 -8 -19 -38 -60 -65 -90 -59 -66 -95 -138 -96 -193 -2
-74 58 -77 108 -5 36 53 106 187 106 205 0 20 22 15 51 -10 38 -34 42 -56 53
-315 6 -139 14 -162 55 -162 22 0 31 6 39 28 23 56 34 131 38 255 1 55 5 102
8 105 4 3 12 -3 19 -12 10 -14 21 -17 45 -11 37 8 39 14 47 129 3 43 9 86 14
95 5 9 15 82 21 161 7 80 17 150 22 157 5 6 12 46 15 88 3 42 10 72 14 68 4
-4 13 -42 20 -83 6 -41 15 -80 21 -87 6 -7 5 -14 -2 -18 -8 -5 -8 -10 0 -20 6
-7 14 -52 17 -99 3 -48 10 -89 15 -92 4 -3 8 -14 8 -24 0 -21 28 -40 59 -40
18 0 21 6 21 44 0 25 -4 56 -10 70 -5 15 -12 47 -14 74 -7 77 -25 209 -47 347
-19 118 -24 161 -31 250 -2 17 -6 35 -10 40 -7 11 -8 181 -1 208 7 26 26 7 78
-73 23 -36 57 -83 76 -104 19 -22 53 -61 77 -88 23 -27 42 -53 42 -58 0 -23
54 -70 80 -70 39 0 54 22 45 68 -4 20 -8 49 -10 63 -1 14 -9 37 -18 50 -10 13
-17 30 -17 37 0 8 -6 26 -14 40 -19 38 -37 90 -47 140 -5 24 -15 53 -24 65
-28 40 -19 53 45 71 53 15 63 15 88 2 15 -8 50 -19 77 -25 28 -5 88 -22 135
-36 100 -30 173 -27 259 12 30 13 57 20 61 16 4 -4 15 -44 25 -88 9 -44 22
-101 27 -128 10 -45 9 -51 -31 -132 -22 -46 -46 -87 -51 -90 -6 -3 -10 -17
-10 -30 0 -35 -51 -147 -76 -168 -15 -11 -28 -42 -40 -92 -10 -41 -21 -75 -24
-75 -10 0 -64 -130 -57 -136 3 -4 1 -17 -4 -31 -13 -35 -3 -60 32 -79 25 -13
33 -13 47 -2 28 21 30 28 21 66 -6 26 -4 41 5 52 7 8 16 26 19 40 17 74 38
131 69 185 51 90 91 181 110 245 7 25 18 51 24 57 7 7 14 17 16 21 1 5 20 12
41 16 l39 7 -7 -33 c-4 -18 -13 -52 -21 -76 -13 -39 -32 -314 -25 -367 1 -11
3 -52 5 -92 6 -128 24 -183 58 -183 24 0 42 33 63 113 10 37 20 67 23 67 6 0
34 -26 100 -92 79 -80 81 -97 42 -303 -18 -93 -36 -180 -41 -192 -5 -13 -6
-30 -3 -38 4 -8 2 -21 -4 -28 -19 -24 -20 -154 -2 -225 15 -59 21 -69 52 -86
35 -19 35 -19 55 0 31 29 83 127 83 155 0 14 5 30 11 36 14 14 8 113 -16 263
-21 127 -15 182 12 120 8 -19 17 -59 20 -88 3 -29 10 -55 14 -58 5 -3 9 -14 9
-26 0 -28 38 -78 59 -78 30 0 58 36 65 84 4 25 11 46 16 46 5 0 14 -25 20 -55
13 -64 25 -75 52 -47 22 22 23 5 -12 213 -14 81 -14 82 18 66 40 -20 175 -41
217 -33 l36 7 -23 -43 c-30 -59 -67 -167 -68 -200 0 -15 14 -80 30 -145 28
-107 46 -143 72 -143 19 0 46 41 53 79 5 33 13 43 43 58 27 13 38 26 43 50 3
18 13 47 22 65 9 19 21 56 27 83 22 95 33 130 57 198 14 37 28 67 32 67 9 0
66 -111 75 -146 4 -11 19 -35 34 -52 15 -17 47 -55 72 -83 104 -121 113 -129
136 -129 13 0 28 9 34 19 20 38 11 66 -36 117 -25 27 -53 63 -61 79 -9 17 -22
34 -29 38 -8 4 -14 13 -14 18 0 6 -24 59 -52 117 -29 59 -51 111 -50 116 2 5
-3 16 -11 25 -28 32 -38 76 -30 124 7 39 10 44 24 34 8 -7 26 -43 40 -81 30
-86 46 -98 96 -71 44 23 52 48 26 77 -14 16 -18 39 -20 117 -3 116 -17 194
-44 250 -19 41 -19 44 -3 125 l16 84 27 -16 c15 -8 35 -13 44 -9 36 14 15 157
-44 292 -10 22 -21 58 -24 80 -6 36 -5 38 8 22 8 -9 18 -36 21 -60 4 -23 13
-51 20 -62 7 -11 17 -36 21 -55 4 -19 11 -39 15 -45 4 -5 15 -35 24 -65 9 -30
21 -64 25 -75 22 -49 39 -93 51 -125 6 -19 16 -44 20 -55 43 -112 59 -159 54
-167 -3 -5 0 -15 6 -23 7 -8 9 -15 4 -15 -4 0 3 -11 16 -25 13 -14 29 -25 37
-25 19 0 28 50 14 84 -13 31 -20 56 -48 156 -18 65 -89 276 -103 305 -5 11
-20 61 -33 110 -14 50 -31 110 -40 135 -34 98 -59 177 -67 210 -5 19 -21 63
-35 97 -14 35 -25 67 -25 72 0 5 16 18 35 30 43 25 47 62 10 105 -34 39 -33
66 3 68 43 2 56 5 74 12 9 4 22 5 28 1 6 -4 16 -2 23 3 18 14 242 79 307 89
44 7 106 7 125 -1 11 -4 12 -11 4 -35 -9 -26 -7 -36 11 -66 20 -33 22 -46 19
-154 -3 -89 -8 -124 -19 -137 -9 -11 -24 -44 -35 -74 -10 -30 -31 -72 -47 -92
-27 -35 -28 -40 -16 -65 12 -24 19 -28 55 -26 l41 2 -4 -77 c-3 -42 -9 -131
-13 -197 -11 -159 -9 -184 12 -199 23 -17 22 -52 -3 -78 -11 -12 -27 -47 -36
-78 -9 -30 -23 -75 -31 -98 -12 -35 -14 -68 -8 -160 4 -65 9 -126 12 -137 18
-76 5 -208 -26 -272 -30 -60 -75 -173 -70 -177 6 -7 48 -9 115 -8 53 2 62 5
67 22 4 14 14 20 34 20 38 0 91 34 106 67 6 16 14 30 17 33 3 3 6 30 7 60 1
56 32 170 45 170 5 0 8 12 8 28 l1 27 24 -30 c14 -16 23 -35 21 -42 -3 -6 1
-16 8 -22 12 -10 35 -58 72 -151 23 -58 42 -80 69 -80 23 0 36 18 40 55 2 18
-4 36 -40 120 -7 17 -23 57 -35 90 -12 33 -27 69 -32 79 -24 46 -36 175 -39
431 -3 174 -1 195 19 250 12 33 22 68 22 78 0 34 16 16 45 -50 15 -38 42 -84
59 -103 28 -31 63 -96 101 -185 66 -158 87 -181 137 -154 16 9 19 17 13 46 -3
20 -13 46 -22 59 -8 13 -13 30 -10 38 3 7 2 17 -3 22 -4 5 -13 27 -20 49 -7
22 -19 51 -28 65 -9 14 -17 30 -18 35 -1 6 -11 32 -23 57 -11 26 -21 49 -21
53 0 3 -9 24 -20 48 -22 47 -80 221 -80 240 0 11 93 -80 101 -100 2 -5 22 -20
44 -33 22 -13 48 -34 57 -45 42 -48 95 -122 110 -150 8 -16 30 -57 48 -90 63
-116 70 -130 70 -143 0 -7 14 -42 30 -77 17 -35 30 -69 30 -76 0 -6 6 -23 14
-37 7 -15 21 -54 31 -87 21 -74 69 -175 99 -210 13 -15 30 -46 37 -69 7 -22
28 -68 47 -100 31 -56 33 -64 28 -128 -5 -65 -4 -68 18 -74 13 -3 38 -4 57 -2
l34 3 0 92 c1 51 4 96 9 100 4 4 25 -2 46 -15 21 -12 52 -22 68 -22 24 0 33
-8 55 -49 15 -27 27 -57 27 -68 0 -29 20 -43 61 -43 43 0 56 12 34 30 -8 7
-15 23 -15 37 0 13 -7 37 -15 54 -14 27 -14 30 1 36 36 14 248 -6 314 -29 90
-32 92 -34 88 -81 l-3 -42 60 -1 c76 0 85 3 85 32 0 23 2 24 43 17 75 -14 286
-2 323 17 29 16 33 60 7 82 -25 20 -122 68 -139 68 -25 0 -15 50 22 112 32 52
45 63 98 88 70 32 118 45 196 55 30 4 61 11 70 15 39 19 119 40 153 40 24 0
68 -14 113 -35 40 -19 76 -35 79 -35 8 0 45 -32 84 -74 44 -46 113 -88 133
-81 8 3 27 1 42 -5 20 -7 54 -7 114 0 100 13 92 18 132 -100 14 -41 28 -79 31
-85 3 -5 11 -29 19 -52 11 -36 18 -43 39 -44 205 -8 224 -7 264 12 50 22 80
24 96 5 24 -29 231 -31 231 -2 0 6 -13 17 -30 24 -29 13 -116 93 -155 142 -37
48 -64 118 -71 189 -4 41 -3 71 2 71 9 0 34 90 34 123 0 28 54 44 172 52 122
8 141 18 114 61 -14 20 -23 24 -44 20 -15 -4 -68 -8 -119 -11 -79 -4 -91 -2
-87 10 4 8 10 15 15 15 4 0 17 9 27 20 10 11 32 21 48 22 16 1 36 7 44 14 24
18 108 42 190 54 218 31 263 42 284 72 13 18 13 24 -1 45 -19 28 -69 57 -84
47 -43 -26 -249 -46 -249 -24 0 6 9 10 20 10 10 0 23 6 27 13 17 27 91 76 153
100 64 25 65 26 65 64 0 36 -2 38 -32 41 -23 2 -58 -9 -114 -38 -45 -23 -103
-48 -128 -57 -25 -8 -52 -20 -60 -26 -8 -7 -27 -12 -42 -13 -16 -1 -58 -5 -94
-9 -96 -10 -121 4 -96 53 5 9 15 30 22 45 7 15 28 45 46 66 32 38 34 39 125
46 51 4 104 9 118 12 14 2 51 4 82 3 45 -1 61 3 77 19 30 30 27 59 -6 72 -30
11 -47 9 -133 -16 -64 -18 -113 -16 -67 3 15 6 27 18 27 27 0 8 7 15 15 15 20
0 52 36 57 65 6 29 -24 44 -67 34 -16 -4 -46 -7 -66 -8 -32 -1 -125 -42 -139
-62 -3 -3 -13 -17 -23 -30 -10 -13 -27 -39 -37 -57 -11 -18 -35 -39 -53 -47
-35 -14 -197 -22 -237 -11 -19 5 -42 -1 -85 -24 -74 -39 -85 -48 -85 -69 0
-20 -40 -61 -58 -61 -15 0 -93 49 -107 66 -5 8 -25 24 -43 38 l-33 24 26 6
c23 6 25 11 25 61 0 37 -8 72 -25 109 -14 30 -25 62 -25 71 0 9 -8 32 -19 53
-18 36 -41 106 -61 188 -5 22 -19 51 -30 64 -11 13 -20 31 -20 40 0 10 -18 30
-40 45 -51 35 -52 64 -6 160 32 66 33 71 19 96 -15 25 -14 30 11 84 14 32 29
76 32 99 3 23 9 50 14 61 4 11 16 63 25 115 14 81 14 101 3 135 -17 51 -40 56
-77 16 -32 -34 -47 -40 -37 -15 4 9 1 32 -6 50 -9 26 -9 39 1 61 7 15 15 48
18 73 2 25 9 60 14 79 12 48 2 80 -28 87 -39 10 -52 55 -42 144 4 41 10 83 14
92 7 19 -12 31 -69 43 -27 6 -28 8 -22 48 4 23 9 67 12 97 3 30 12 69 19 85 6
17 17 42 23 56 7 17 23 29 51 37 73 22 64 84 -17 118 -19 7 -65 40 -103 71
-53 44 -68 63 -65 78 9 40 25 91 45 150 11 33 23 73 26 88 3 15 14 35 25 45
25 21 25 53 1 83 l-19 24 -34 -19 c-18 -11 -40 -28 -49 -38 -9 -10 -24 -18
-33 -18 -9 0 -16 -4 -16 -10 0 -24 -28 -7 -33 20 -8 36 -49 64 -93 63 -27 -1
-34 3 -34 18 0 45 -96 42 -118 -4 -7 -15 -47 -61 -87 -103 -48 -49 -75 -85
-75 -100 0 -12 -6 -24 -14 -27 -9 -4 -13 -24 -13 -69 1 -51 -5 -77 -26 -120
-15 -30 -27 -63 -27 -72 0 -9 -12 -39 -26 -66 -29 -56 -28 -81 3 -95 17 -7 43
-43 43 -59 0 -2 -11 -3 -25 -3 -15 0 -32 9 -40 20 -8 12 -18 18 -21 14 -14
-13 17 -59 46 -70 17 -6 30 -15 30 -19 0 -4 6 -8 13 -8 37 0 87 -81 106 -170
4 -19 20 -71 34 -115 37 -110 67 -252 67 -313 0 -28 4 -53 9 -56 4 -3 16 -67
25 -143 10 -76 24 -160 31 -188 18 -65 24 -134 29 -335 4 -181 0 -220 -20
-220 -8 0 -14 4 -14 9 0 12 -52 21 -79 14 -11 -3 -21 -12 -21 -19 0 -8 -9 -22
-20 -31 -38 -33 -19 -140 55 -298 60 -129 78 -205 50 -205 -43 0 -134 -70
-191 -146 -16 -21 -32 -41 -35 -44 -3 -3 -18 -31 -32 -62 -15 -31 -32 -60 -39
-64 -20 -13 -45 33 -52 97 -4 34 -16 80 -27 100 -10 21 -19 44 -19 51 0 7 -14
40 -30 73 -31 61 -41 147 -19 160 6 4 10 37 9 78 -1 40 -1 78 -1 85 1 7 15 12
37 12 30 0 44 8 78 44 24 24 51 46 61 48 30 5 52 51 38 80 -6 13 -21 50 -32
83 -12 33 -25 61 -31 63 -5 2 -10 10 -10 17 0 19 -30 85 -50 109 -14 18 -14
19 10 11 14 -4 41 -7 62 -7 21 1 41 -5 48 -13 7 -8 18 -15 26 -15 24 0 63 23
69 39 2 9 9 87 15 174 10 152 10 160 -11 205 -11 26 -22 67 -24 90 -2 26 -14
59 -29 81 -14 20 -47 89 -74 152 -52 126 -96 208 -136 254 -14 17 -26 34 -26
39 0 5 -17 43 -39 85 -21 42 -51 114 -66 161 -15 47 -32 90 -37 97 -12 15 -1
53 15 53 82 4 164 13 171 20 19 18 -7 25 -88 24 l-83 -2 1 108 c1 60 4 112 9
116 4 4 7 17 7 29 0 61 60 126 121 131 50 4 69 18 69 50 0 41 -39 57 -129 53
-93 -5 -96 -7 -137 -114 -26 -66 -71 -123 -85 -107 -4 4 -9 52 -13 106 -6 105
-11 116 -56 116 -21 0 -29 -7 -39 -35 -7 -19 -9 -40 -6 -46 9 -14 -5 -169 -16
-169 -16 0 -59 47 -59 65 0 29 -90 106 -120 103 -21 -3 -25 -9 -28 -43 -2 -26
1 -43 11 -50 15 -10 42 -55 78 -125 10 -19 18 -32 19 -28 0 4 11 -3 24 -15 13
-12 35 -30 49 -40 23 -15 25 -20 15 -42 -8 -18 -8 -35 -1 -59 6 -19 7 -39 4
-45 -4 -6 -3 -46 1 -89 12 -106 7 -115 -26 -59 -15 26 -31 47 -35 47 -11 0
-40 54 -61 112 -10 29 -30 87 -45 128 -15 41 -32 82 -39 90 -7 8 -27 44 -45
80 -29 58 -70 110 -86 110 -3 0 -23 13 -43 29 -20 16 -48 32 -62 36 -14 4 -32
13 -40 19 -8 7 -48 21 -89 31 -41 10 -90 26 -110 35 -20 10 -58 25 -85 34 -27
9 -61 26 -77 36 -15 11 -30 20 -33 20 -4 0 -16 8 -27 19 -14 13 -18 26 -14 44
4 14 2 35 -4 46 -15 27 -84 60 -141 68 -25 3 -50 10 -56 14 -18 15 -106 28
-228 35 l-116 6 0 -38 c0 -43 17 -56 93 -69 20 -4 37 -11 37 -16 0 -5 7 -9 15
-9 21 0 125 -51 125 -61 0 -5 8 -9 18 -9 9 0 32 -13 49 -28 31 -26 32 -29 24
-77 l-8 -50 -18 42 c-24 57 -51 62 -122 23 -31 -16 -84 -35 -117 -41 -103 -18
-109 -21 -120 -59 -9 -33 -39 -65 -61 -65 -5 0 -13 22 -17 49 -4 28 -15 58
-26 69 -19 18 -21 18 -46 2 -14 -10 -26 -26 -26 -36 0 -21 -15 -25 -26 -7 -4
7 -9 28 -11 48 -4 37 -27 80 -43 80 -5 0 -21 -27 -36 -59 -30 -69 -29 -69
-172 -61 -103 6 -117 15 -107 65 20 98 18 113 -13 145 -39 38 -55 38 -89 -2
-16 -17 -37 -38 -47 -47 -11 -9 -36 -31 -58 -50 -29 -25 -49 -34 -82 -36 -24
-2 -66 -11 -92 -21 -27 -9 -80 -17 -117 -18 -58 -1 -70 2 -80 19 -21 35 -25
116 -10 160 8 22 17 54 19 70 3 17 10 47 16 67 8 29 8 41 -2 53 -24 29 -55 17
-121 -51z m-1 -199 c-1 -47 -6 -85 -10 -85 -4 0 -21 15 -37 32 -23 25 -27 34
-17 40 7 4 19 22 26 40 13 33 29 58 36 58 3 0 3 -38 2 -85z m621 -61 c-7 -32
-15 -63 -19 -67 -9 -10 -100 2 -100 12 0 4 9 17 20 29 11 12 20 24 20 28 0 14
75 73 82 66 5 -5 3 -35 -3 -68z m-2670 35 c15 -43 15 -44 -15 -58 l-27 -12 7
38 c3 21 6 44 6 51 0 24 18 12 29 -19z m303 -99 c21 0 97 -55 107 -78 13 -27
-6 -59 -51 -85 -25 -14 -29 -14 -43 -1 -8 9 -15 26 -15 39 0 14 -7 45 -16 71
-8 25 -12 53 -9 62 5 12 9 13 12 5 3 -7 9 -13 15 -13z m1293 10 c-4 -6 -11 -7
-17 -4 -8 5 -9 -6 -6 -33 4 -29 1 -45 -9 -56 -16 -15 -14 -27 9 -59 10 -13 7
-24 -15 -57 -39 -59 -50 -53 -44 22 3 34 8 72 12 84 5 17 0 28 -19 47 -28 25
-28 25 19 53 25 14 78 17 70 3z m-1415 -54 c0 -14 5 -28 10 -31 14 -9 12 -25
-3 -25 -14 0 -36 49 -29 68 7 21 22 13 22 -12z m5417 -104 c-3 -48 -10 -125
-17 -172 -7 -53 -9 -133 -5 -212 3 -70 4 -132 1 -137 -12 -18 -81 22 -109 63
-16 23 -39 56 -53 75 -24 34 -32 85 -14 96 5 3 18 35 29 70 11 35 27 77 34 92
8 15 18 53 22 83 9 74 45 127 86 128 l31 1 -5 -87z m-4164 35 c-6 -39 -23 -51
-23 -16 0 21 19 64 26 57 2 -2 1 -21 -3 -41z m2435 20 c12 -6 22 -16 22 -24 0
-23 -34 -13 -58 18 -25 31 -18 32 36 6z m-3887 -50 c-13 -34 -46 -38 -35 -4 9
32 26 49 36 39 5 -5 4 -20 -1 -35z m2932 -2 c-3 -13 -29 -18 -59 -11 -39 10
-27 24 19 23 23 -1 41 -6 40 -12z m-993 -45 c0 -21 -6 -42 -13 -48 -7 -6 -14
-23 -15 -37 -1 -14 -6 -35 -12 -45 -5 -10 -10 -34 -10 -52 0 -18 -4 -40 -10
-48 -15 -24 -28 26 -36 142 -7 118 -4 126 63 126 32 0 33 -2 33 -38z m3906 -1
c-9 -19 -15 -29 -16 -22 0 18 20 66 25 61 3 -3 -1 -20 -9 -39z m-3667 -14 c23
-8 48 -12 56 -9 16 7 150 -58 180 -87 15 -15 17 -21 7 -31 -27 -27 -13 -62 37
-96 44 -30 164 -143 216 -203 58 -68 95 -120 100 -141 4 -14 17 -37 31 -53 23
-27 24 -36 27 -169 4 -246 -2 -374 -18 -406 -8 -16 -15 -36 -15 -45 0 -20 -69
-168 -105 -224 -14 -23 -36 -46 -49 -51 -13 -5 -27 -14 -31 -19 -10 -17 -35
-13 -35 5 0 17 89 134 103 134 4 0 7 6 7 14 0 7 16 34 35 59 19 25 35 50 35
55 0 5 7 23 15 38 20 40 18 56 -9 76 -23 16 -27 16 -92 -9 -38 -15 -71 -29
-74 -33 -13 -15 -152 -92 -217 -120 -94 -39 -128 -39 -148 -1 -17 34 -11 141
10 176 12 19 27 103 28 150 0 29 -21 126 -34 155 -6 14 -18 37 -25 52 -8 14
-14 33 -14 41 0 8 -11 31 -25 51 -14 20 -25 50 -25 65 0 16 -7 53 -16 82 -8
30 -21 72 -27 94 -11 35 -11 79 -5 280 0 22 -7 61 -16 87 -17 45 -17 48 1 72
21 30 35 31 92 11z m881 -3 c0 -13 -12 -22 -22 -16 -10 6 -1 24 13 24 5 0 9
-4 9 -8z m-266 -28 c3 -8 2 -12 -4 -9 -6 3 -10 10 -10 16 0 14 7 11 14 -7z
m-2616 -27 c3 -16 1 -17 -17 -5 -25 16 -27 31 -4 26 10 -2 19 -11 21 -21z
m4243 4 c17 -6 35 -28 52 -63 15 -29 35 -66 46 -82 11 -16 28 -59 37 -95 10
-36 26 -77 36 -90 10 -13 18 -28 18 -32 0 -5 22 -44 48 -87 103 -166 115 -207
92 -306 -9 -43 -51 -86 -83 -86 -23 0 -71 50 -97 100 -11 21 -39 59 -65 86
-25 27 -45 52 -45 56 0 5 -6 8 -14 8 -17 0 -22 13 -31 76 -4 27 -12 54 -17 61
-5 7 -7 26 -3 42 8 37 -14 81 -52 106 -15 10 -34 25 -41 34 -48 62 -80 109
-86 127 -3 12 -15 29 -26 39 -11 10 -20 24 -20 32 0 7 -4 13 -8 13 -9 0 -32
44 -32 60 0 5 10 10 23 12 44 7 243 -1 268 -11z m-1050 -22 c15 -24 10 -30
-23 -27 -26 2 -34 8 -36 26 -3 20 0 22 23 19 15 -2 31 -10 36 -18z m-3205 -75
c13 -3 27 -3 32 0 5 3 12 -13 16 -37 4 -23 11 -55 16 -72 5 -16 14 -50 21 -75
7 -25 23 -67 36 -93 13 -27 27 -72 30 -100 4 -34 13 -57 25 -65 10 -7 18 -23
18 -35 0 -12 14 -62 30 -112 17 -49 30 -101 30 -115 0 -23 20 -90 41 -135 5
-11 13 -43 18 -72 7 -50 6 -54 -25 -90 -19 -21 -34 -44 -34 -51 0 -7 -11 -34
-24 -61 -32 -62 -56 -168 -59 -254 -2 -64 0 -70 25 -91 38 -29 44 -73 22 -138
-10 -29 -25 -61 -33 -70 -8 -11 -16 -49 -19 -92 -4 -73 -5 -75 -34 -81 -20 -5
-35 -2 -47 9 -19 18 -76 22 -86 6 -8 -13 -55 6 -72 29 -7 10 -39 27 -72 36
-39 12 -63 26 -71 41 -7 12 -24 27 -38 33 -22 10 -30 9 -53 -8 -16 -12 -31
-21 -34 -21 -9 0 -5 41 7 63 6 13 12 82 14 170 3 170 8 198 35 223 10 9 19 26
19 36 0 10 6 29 14 41 8 12 17 40 20 62 4 22 13 60 20 85 35 115 49 240 42
366 -6 113 -4 128 14 164 11 22 24 40 29 40 12 0 31 47 31 76 0 14 -8 44 -18
67 -16 36 -18 57 -12 142 5 69 14 114 29 145 11 25 21 56 21 69 l0 24 27 -27
c14 -14 36 -29 49 -32z m3472 -21 c5 -18 -10 -16 -34 2 -18 15 -18 15 5 13 14
-2 26 -9 29 -15z m-568 3 c0 -11 -19 -15 -25 -6 -3 5 1 10 9 10 9 0 16 -2 16
-4z m268 -38 c9 -9 12 -9 12 0 0 14 28 5 53 -16 14 -12 16 -28 14 -79 -4 -66
-14 -91 -23 -56 -7 26 -44 46 -87 47 -32 1 -32 1 -31 51 1 28 2 53 3 58 2 11
46 8 59 -5z m2570 -15 c15 -10 41 -31 59 -48 34 -33 36 -67 4 -102 -9 -10 -24
-43 -32 -73 -25 -87 -59 -233 -59 -253 0 -10 -4 -15 -10 -12 -5 3 -10 25 -10
48 0 23 -7 67 -15 96 -19 74 -10 229 22 344 5 21 7 21 41 0z m-2248 -26 c0
-18 -2 -19 -10 -7 -13 20 -13 43 0 35 6 -3 10 -16 10 -28z m-2179 -20 c-8 -8
-11 -5 -11 9 0 27 14 41 18 19 2 -9 -1 -22 -7 -28z m138 1 c5 -124 -13 -179
-24 -75 -5 48 -4 71 5 82 16 20 18 19 19 -7z m2346 12 c3 -5 -3 -10 -14 -10
-11 0 -23 5 -26 10 -3 6 3 10 14 10 11 0 23 -4 26 -10z m-356 -22 c14 -6 35
-12 45 -13 18 -2 29 -13 83 -82 21 -27 83 -47 114 -38 13 4 32 17 41 29 17 21
17 21 70 3 53 -19 127 -61 167 -96 18 -16 51 -88 51 -112 0 -17 -39 -9 -67 14
-40 33 -73 52 -111 65 -30 10 -36 9 -57 -12 -25 -25 -25 -56 1 -77 8 -6 14
-16 14 -22 0 -6 6 -18 14 -26 16 -20 66 -110 119 -216 22 -44 50 -94 63 -111
13 -17 20 -34 17 -38 -11 -11 -57 -6 -127 14 -38 11 -80 17 -93 14 -34 -9 -40
-47 -14 -108 32 -78 29 -96 -27 -133 -26 -18 -72 -53 -102 -78 -48 -39 -61
-45 -102 -45 -35 0 -54 -6 -68 -20 -26 -26 -30 -25 -28 3 0 12 -3 34 -7 50 -6
24 -4 29 28 42 20 8 38 19 42 25 11 18 -5 49 -36 67 -16 9 -29 23 -29 30 0 8
-6 16 -14 19 -8 3 -17 15 -20 27 -3 12 -28 47 -56 77 -28 30 -54 66 -57 80 -3
14 -14 34 -24 45 -28 31 -49 89 -56 155 -6 57 -5 60 21 69 22 9 26 17 26 49 0
26 -7 45 -20 57 -11 10 -20 25 -20 34 0 12 3 12 12 3 33 -33 92 9 94 66 1 20
5 75 8 122 3 47 6 87 6 89 0 5 69 -9 99 -21z m-569 -8 c0 -5 -4 -10 -9 -10 -6
0 -13 5 -16 10 -3 6 1 10 9 10 9 0 16 -4 16 -10z m-1009 -87 c1 -67 6 -99 22
-134 13 -28 47 -134 47 -146 0 -12 -30 3 -59 28 -25 23 -33 39 -33 62 2 145 7
227 14 227 4 0 8 -17 9 -37z m-485 -68 c8 -45 7 -58 -4 -67 -19 -17 -46 2 -50
35 -3 26 22 87 36 87 4 0 12 -25 18 -55z m-1939 -17 c7 -6 13 -17 13 -24 0 -8
5 -23 12 -34 20 -31 1 -35 -50 -11 -45 21 -102 69 -102 86 0 11 111 -4 127
-17z m993 7 c18 -21 128 -95 142 -95 7 0 21 -7 31 -14 14 -11 16 -24 12 -82
-3 -38 -8 -114 -11 -169 -6 -96 -16 -133 -32 -109 -4 6 -17 15 -30 18 -39 13
-102 86 -102 121 0 16 -9 70 -20 119 -20 92 -27 226 -11 226 5 0 14 -7 21 -15z
m-626 -47 c-1 -24 -2 -51 -3 -60 -1 -10 -8 -18 -17 -18 -13 0 -15 7 -9 36 7
38 22 84 28 84 2 0 2 -19 1 -42z m2926 -88 c0 -5 -2 -10 -4 -10 -3 0 -8 5 -11
10 -3 6 -1 10 4 10 6 0 11 -4 11 -10z m-1386 -15 c8 -8 24 -15 35 -15 17 0 20
-5 17 -22 -12 -57 -15 -107 -9 -111 16 -10 -2 -181 -24 -227 -11 -25 -29 -64
-39 -87 -9 -23 -21 -40 -26 -37 -4 3 -8 33 -8 67 -1 135 -9 352 -15 374 -9 39
4 73 30 73 13 0 30 -7 39 -15z m4084 -60 l1 -20 -9 20 c-5 11 -8 31 -8 45 l0
25 8 -25 c4 -14 8 -34 8 -45z m-3908 -32 c-2 -62 14 -301 29 -420 5 -40 5 -87
1 -105 l-7 -33 -13 30 c-7 17 -17 55 -22 85 -11 71 -15 260 -5 267 4 2 5 8 3
12 -3 4 -5 36 -5 72 -1 87 0 100 5 127 8 41 15 23 14 -35z m-1780 1 c0 -8 -5
-12 -10 -9 -6 4 -8 11 -5 16 9 14 15 11 15 -7z m4282 -28 c4 -6 8 -29 7 -51
l0 -40 -16 30 c-9 16 -22 35 -29 43 -23 22 -18 44 9 36 12 -4 25 -12 29 -18z
m-2160 -43 c22 -20 24 -85 3 -103 -16 -13 -18 -6 -29 78 -7 46 -2 51 26 25z
m-2546 -44 c56 -34 35 -77 -32 -65 -34 7 -35 9 -28 39 11 55 13 56 60 26z
m2694 -76 c19 -41 21 -58 16 -132 -3 -47 -6 -95 -6 -106 -1 -10 -5 -24 -9 -30
-5 -5 -14 -36 -20 -67 -10 -44 -9 -66 0 -97 7 -23 16 -41 21 -41 4 0 8 -6 8
-13 0 -21 40 -37 95 -39 53 -2 92 13 278 108 95 47 119 54 95 27 -9 -10 -18
-27 -22 -38 -3 -11 -16 -31 -28 -45 -13 -14 -36 -42 -51 -62 -31 -42 -46 -47
-54 -19 -5 19 -30 31 -70 31 -24 0 -63 -42 -82 -87 -7 -17 -23 -36 -35 -43
-13 -6 -39 -36 -57 -65 -38 -60 -55 -68 -123 -59 -45 7 -58 17 -33 27 6 3 1 6
-12 6 -19 1 -22 5 -17 25 4 16 1 26 -9 30 -18 7 -21 116 -4 133 8 8 5 19 -11
41 -12 17 -20 34 -17 39 3 4 1 44 -4 88 -5 44 -11 128 -14 187 l-4 108 29 15
c16 8 35 15 41 15 28 0 59 43 59 82 0 48 11 43 40 -19z m2338 3 l31 -43 -26
-12 c-14 -6 -27 -10 -28 -9 -4 5 -14 108 -11 108 1 0 17 -20 34 -44z m1471 12
c-2 -7 0 -62 4 -123 7 -115 1 -190 -29 -367 -17 -93 -22 -107 -40 -111 -20 -3
-22 2 -27 77 -6 83 -19 174 -38 281 -5 33 -12 84 -14 113 -3 44 -1 53 11 48 8
-3 13 -2 9 3 -3 5 8 15 25 23 16 7 30 16 30 19 0 6 59 48 68 49 2 0 2 -6 1
-12z m-849 -33 c0 -8 11 -24 25 -37 13 -13 34 -50 45 -83 11 -33 43 -97 70
-141 28 -45 50 -87 50 -93 0 -6 4 -11 8 -11 5 0 17 -19 27 -42 9 -24 22 -52
27 -64 5 -12 11 -76 11 -143 2 -110 0 -124 -17 -137 -39 -28 -73 -7 -166 107
-59 72 -87 156 -68 209 8 25 8 48 -1 94 -6 34 -13 122 -16 196 -2 75 -7 144
-11 154 -5 14 -4 17 4 12 7 -4 12 -13 12 -21z m-445 -141 c-8 -32 -36 -108
-61 -169 -51 -120 -59 -141 -68 -168 -6 -19 12 -67 26 -67 4 0 8 -4 8 -10 0
-43 -89 45 -97 96 -4 22 -17 66 -30 98 -40 103 -24 188 38 201 18 4 40 11 49
16 8 4 38 17 65 29 28 12 57 25 65 30 8 4 16 7 18 5 1 -1 -4 -29 -13 -61z
m-3988 21 c47 -34 52 -52 44 -145 l-6 -65 -23 47 c-13 26 -21 52 -17 57 3 6
-8 35 -25 65 -29 53 -38 81 -22 74 4 -1 26 -16 49 -33z m2675 -95 c25 -47 43
-99 54 -153 5 -30 57 -118 80 -136 l22 -17 -28 -12 c-15 -7 -34 -10 -43 -7 -8
4 -18 2 -21 -3 -3 -6 -14 -8 -25 -5 -14 3 -21 -3 -29 -25 -12 -34 4 -76 38
-99 11 -8 22 -30 26 -51 4 -20 16 -49 28 -65 31 -43 14 -49 -101 -34 -129 17
-143 30 -136 122 3 33 10 65 14 71 5 6 8 22 8 35 -1 13 7 47 18 74 11 28 18
56 16 63 -3 8 6 12 29 12 59 0 82 37 69 112 0 3 -14 9 -30 13 -31 7 -45 39
-57 129 -7 45 -6 46 16 38 13 -5 36 -32 52 -62z m-3493 -18 c-10 -45 -39 -116
-44 -110 -8 7 37 158 45 153 4 -3 4 -22 -1 -43z m1715 -43 c9 -57 43 -125 77
-153 28 -23 28 -24 9 -41 -53 -48 -130 -9 -130 66 0 52 21 169 30 169 4 0 10
-18 14 -41z m2552 -20 c-8 -19 -17 -46 -21 -61 -3 -16 -9 -28 -13 -28 -13 0
-34 59 -28 77 6 16 66 55 74 48 2 -1 -4 -18 -12 -36z m-3642 -76 c11 -78 16
-164 18 -358 3 -170 0 -212 -17 -282 -18 -79 -21 -83 -47 -83 -63 0 -73 80
-21 156 24 35 27 50 31 141 l4 102 -32 32 c-31 31 -31 34 -25 93 4 34 15 86
25 116 10 30 21 70 25 88 9 44 32 41 39 -5z m4255 -108 c1 -64 4 -122 8 -130
3 -9 -2 -26 -10 -39 -9 -13 -13 -33 -10 -45 3 -11 -2 -65 -10 -118 -9 -54 -19
-120 -22 -148 -3 -27 -10 -77 -15 -110 -5 -33 -14 -105 -20 -160 -7 -55 -18
-121 -26 -147 -9 -26 -14 -68 -12 -95 3 -45 5 -49 38 -59 l35 -12 0 -142 c0
-79 -4 -199 -8 -269 -7 -117 -10 -130 -44 -196 l-37 -70 -2 -180 c-2 -99 -3
-195 -3 -213 -1 -18 -7 -35 -14 -38 -7 -2 -53 7 -101 21 -49 14 -104 26 -123
27 -19 1 -36 5 -39 10 -3 4 -13 8 -24 8 -11 0 -20 10 -25 28 -3 15 -12 34 -19
42 -7 8 -18 30 -24 48 -6 18 -21 47 -33 63 -12 17 -24 51 -27 75 -4 40 -8 46
-33 51 -16 3 -29 9 -29 13 0 4 -13 24 -30 45 -34 43 -38 72 -12 82 9 4 23 12
30 19 14 15 16 64 2 64 -5 0 -35 18 -66 40 -56 39 -94 86 -94 115 0 8 -4 15
-10 15 -5 0 -10 7 -10 15 0 8 -4 23 -9 33 -14 29 -31 87 -31 110 0 16 8 22 33
27 32 5 173 0 237 -8 69 -10 95 30 59 91 -12 20 -27 42 -33 47 -6 6 -34 37
-63 71 -28 33 -70 69 -92 80 -23 10 -41 22 -41 25 0 3 -27 18 -60 34 -56 27
-60 31 -60 62 0 23 -8 40 -25 55 -14 12 -25 27 -25 33 0 7 -7 27 -17 45 -9 19
-18 55 -21 81 -4 45 -3 48 29 65 57 30 138 24 274 -21 66 -21 134 -48 150 -60
57 -42 72 -47 115 -35 54 15 55 47 3 95 -21 19 -41 35 -45 35 -5 0 -16 8 -26
18 -10 9 -29 27 -43 39 -29 26 -44 45 -48 58 -1 6 -10 18 -18 28 -15 16 -15
20 0 50 23 43 37 63 70 99 15 17 30 42 34 57 11 45 45 53 110 25 21 -9 48 -21
61 -25 12 -5 33 -14 46 -20 39 -19 84 5 92 47 3 18 12 38 20 45 8 6 14 16 14
21 0 5 19 34 42 65 23 30 43 62 45 71 3 22 25 62 33 62 4 0 8 -52 9 -115z
m-749 28 c0 -16 -42 -17 -93 -2 -33 9 -36 12 -23 25 9 8 30 21 48 28 31 14 34
13 50 -12 10 -15 18 -33 18 -39z m391 -27 c16 -17 11 -49 -7 -42 -9 3 -20 6
-25 6 -13 0 -11 31 4 63 12 26 12 26 15 4 2 -12 8 -26 13 -31z m1715 7 c-11
-11 -17 4 -9 23 7 18 8 18 11 1 2 -10 1 -21 -2 -24z m-2124 -91 c6 -6 5 -17
-4 -31 -15 -24 -40 -20 -74 10 -11 11 -25 19 -32 19 -6 0 -14 5 -18 11 -8 14
113 6 128 -9z m-2471 -18 c24 -30 68 -44 133 -44 62 0 65 -1 70 -27 4 -16 2
-52 -4 -82 -5 -29 -10 -80 -10 -111 0 -38 -4 -60 -13 -63 -7 -2 -18 -27 -25
-54 -7 -27 -20 -62 -29 -79 -24 -44 -18 -95 14 -121 l27 -22 -2 -183 c-1 -218
-7 -265 -38 -340 -13 -32 -24 -62 -24 -67 0 -6 -11 -27 -25 -47 -33 -48 -34
-101 -3 -113 13 -4 36 -4 52 0 16 5 32 6 36 4 8 -5 11 -225 3 -237 -6 -12 -31
15 -26 29 2 6 -14 31 -37 55 -22 24 -43 54 -47 68 -3 14 -11 32 -18 40 -14 17
-65 123 -65 135 0 5 -18 48 -41 97 -22 49 -39 100 -38 116 3 37 -11 102 -22
102 -5 0 -12 8 -16 18 -3 9 -19 33 -34 52 -15 20 -37 57 -50 83 -22 45 -22 48
-6 76 21 37 22 84 1 116 -9 14 -14 32 -10 40 5 14 9 14 37 0 17 -9 43 -16 57
-15 15 1 30 2 33 1 7 -1 -9 -84 -32 -175 -12 -44 -11 -50 5 -62 35 -25 61 8
93 122 13 48 17 117 19 369 1 171 3 316 3 323 1 17 16 15 32 -4z m2304 -83
c22 -14 44 -29 49 -33 14 -9 -23 -48 -45 -48 -24 0 -69 21 -69 32 0 4 -6 8
-12 8 -7 0 -23 11 -36 24 l-23 24 21 15 c26 18 64 11 115 -22z m-1385 14 c0
-8 -4 -15 -9 -15 -13 0 -22 16 -14 24 11 11 23 6 23 -9z m2460 -40 c0 -13 -4
-27 -10 -30 -6 -4 -10 8 -10 30 0 22 4 34 10 30 6 -3 10 -17 10 -30z m-5531
-8 c25 -12 41 -37 24 -37 -5 0 -18 8 -29 18 -10 9 -28 19 -39 20 -11 2 -24 8
-30 14 -12 13 38 3 74 -15z m6577 -2 c24 -11 30 -22 32 -50 5 -64 -46 -34 -63
38 -8 31 -8 32 31 12z m-2287 -70 c16 -8 31 -11 35 -8 3 4 6 2 6 -4 0 -12 -78
-34 -85 -24 -5 8 5 51 12 51 2 0 17 -7 32 -15z m1231 5 c0 -5 -5 -10 -11 -10
-5 0 -7 5 -4 10 3 6 8 10 11 10 2 0 4 -4 4 -10z m-3986 -72 c14 -29 39 -68 56
-86 16 -18 30 -39 30 -45 0 -7 25 -41 55 -76 30 -36 57 -74 61 -85 3 -12 10
-31 16 -43 6 -13 8 -26 4 -30 -8 -8 -95 86 -96 104 0 6 -6 18 -14 25 -7 8 -23
33 -35 56 -12 23 -32 49 -46 58 -23 15 -38 47 -49 104 -3 14 -8 35 -12 48 -11
40 5 23 30 -30z m1278 -54 c4 -3 2 -19 -2 -35 -5 -17 -5 -31 1 -34 5 -4 9 -22
9 -40 0 -25 -4 -33 -14 -29 -29 11 -50 104 -26 119 6 4 8 11 5 16 -7 10 18 13
27 3z m128 -31 c0 -7 -4 -13 -10 -13 -5 0 -10 12 -10 28 0 21 2 24 10 12 5 -8
10 -21 10 -27z m-1100 8 c16 -30 12 -36 -10 -16 -21 19 -26 35 -10 35 5 0 14
-9 20 -19z m2895 -1 c3 -5 2 -10 -4 -10 -5 0 -13 5 -16 10 -3 6 -2 10 4 10 5
0 13 -4 16 -10z m1120 -110 c9 -19 22 -48 30 -64 12 -27 11 -33 -12 -68 -15
-22 -34 -38 -45 -38 -16 0 -18 7 -17 63 1 34 -2 89 -8 122 -18 107 -1 102 52
-15z m743 77 c6 -7 10 -24 8 -38 -5 -50 -50 -178 -64 -184 -11 -4 -12 -1 -6
12 4 10 9 40 10 68 2 27 7 56 10 65 9 19 11 28 12 63 2 29 13 35 30 14z
m-4728 -23 c0 -8 -4 -12 -10 -9 -5 3 -10 10 -10 16 0 5 5 9 10 9 6 0 10 -7 10
-16z m760 -13 c15 -29 12 -50 -4 -29 -7 10 -16 15 -19 11 -4 -3 -7 3 -7 15 0
27 16 28 30 3z m-276 -28 c-9 -38 -21 -50 -36 -35 -8 8 -8 15 0 25 7 8 8 18 4
22 -4 5 -1 5 6 1 6 -4 12 -2 12 3 0 6 5 11 10 11 6 0 8 -11 4 -27z m-444 -27
c0 -12 -5 -7 -19 24 -11 24 -11 24 3 6 9 -11 16 -24 16 -30z m-1810 -47 c-7
-11 -14 -18 -17 -15 -8 8 5 36 17 36 7 0 7 -6 0 -21z m424 -1 c22 -32 20 -35
-19 -30 -36 4 -39 9 -29 36 9 23 30 20 48 -6z m-473 -91 c-6 -15 -15 -27 -21
-27 -14 0 -13 6 7 48 20 41 31 23 14 -21z m4229 43 c0 -5 -4 -10 -10 -10 -5 0
-10 5 -10 10 0 6 5 10 10 10 6 0 10 -4 10 -10z m-3506 -71 c-3 -5 -17 -9 -31
-9 -21 0 -23 3 -14 14 12 15 55 10 45 -5z m354 -12 c5 -24 -15 -21 -28 4 -10
18 -9 20 7 17 10 -2 19 -11 21 -21z m1710 -127 c21 -36 35 -117 26 -154 l-9
-38 -30 29 c-17 15 -38 44 -47 63 -68 148 -69 153 -22 197 l39 36 17 -59 c10
-32 22 -66 26 -74z m-2260 105 c34 -8 24 -36 -19 -51 -46 -15 -83 0 -87 37 -3
24 -1 25 40 22 24 -1 53 -5 66 -8z m1242 -158 c27 -26 80 -123 80 -146 0 -15
-42 2 -101 41 -51 33 -76 79 -65 121 3 12 1 29 -4 37 -18 29 3 31 32 4 16 -16
43 -42 58 -57z m2442 71 c17 -16 43 -31 128 -76 36 -19 69 -38 75 -43 5 -5 18
-9 30 -9 11 0 29 -7 39 -15 11 -8 27 -15 36 -15 8 0 21 -9 28 -20 7 -11 18
-20 25 -20 14 0 87 -73 87 -88 0 -18 -23 -19 -78 -5 -58 15 -113 6 -164 -29
-14 -10 -31 -18 -37 -18 -15 0 -65 80 -66 105 -1 11 -8 34 -17 50 -9 17 -25
48 -37 69 -11 22 -29 49 -40 60 -18 20 -37 66 -27 66 2 0 11 -6 18 -12z
m-3417 -19 c5 -6 3 -9 -5 -9 -8 0 -25 -3 -37 -6 -15 -4 -24 0 -33 16 -11 20
-10 21 27 14 21 -3 42 -10 48 -15z m2824 -36 c-1 -38 -1 -38 -9 -9 -8 27 -6
46 6 46 2 0 4 -17 3 -37z m-2992 19 c6 -4 14 -19 18 -33 6 -25 4 -27 -43 -36
-48 -9 -51 -9 -63 16 -7 14 -15 30 -18 35 -2 5 6 7 17 4 12 -4 22 -2 22 2 0 8
20 16 45 19 6 0 15 -3 22 -7z m2024 -39 c5 -15 15 -49 20 -75 6 -27 21 -61 33
-76 44 -53 109 -217 108 -271 0 -20 -3 -65 -7 -101 -4 -36 -6 -75 -6 -87 2
-50 -55 -14 -74 47 -7 26 -49 87 -70 105 -6 6 -24 29 -38 52 -25 40 -27 50
-27 156 0 62 5 140 11 173 6 32 13 68 14 79 3 25 3 25 15 25 6 0 15 -12 21
-27z m-2224 -49 c-10 -10 -48 27 -41 38 4 6 16 1 27 -11 12 -11 18 -24 14 -27z
m689 31 c52 -3 104 -25 104 -44 0 -28 -211 -32 -297 -6 -35 11 -63 22 -63 26
0 13 170 41 193 31 4 -2 32 -5 63 -7z m2501 -47 c-3 -8 -6 -5 -6 6 -1 11 2 17
5 13 3 -3 4 -12 1 -19z m2998 -72 c14 -37 14 -58 0 -224 -8 -103 -12 -214 -9
-253 5 -49 4 -69 -5 -69 -6 0 -11 14 -11 30 0 17 -7 47 -15 67 -16 39 -25 138
-28 308 -1 55 -5 105 -9 111 -4 6 -2 26 4 46 9 29 14 34 34 30 16 -3 28 -17
39 -46z m-5169 -14 c-12 -13 -18 -13 -31 -2 -21 17 -14 33 16 40 29 7 38 -15
15 -38z m5324 -21 c-1 -25 -1 -25 -15 -7 -8 11 -15 29 -15 39 0 16 3 17 15 7
8 -7 15 -24 15 -39z m-6296 30 c20 -8 48 -72 100 -236 l16 -50 -39 44 c-22 24
-50 58 -63 77 -13 19 -26 34 -30 34 -5 0 -8 5 -8 11 0 6 -11 25 -24 42 -13 18
-31 44 -41 60 l-17 27 43 -1 c24 0 52 -4 63 -8z m3131 -58 c-4 -21 -11 -39
-16 -41 -5 -2 -9 -11 -9 -21 0 -9 -6 -25 -12 -34 -11 -15 -13 -7 -14 48 -1 57
1 65 17 65 11 0 19 5 19 10 0 6 5 10 11 10 8 0 9 -12 4 -37z m-1788 -20 c21
-10 40 -21 41 -25 2 -5 12 -8 22 -8 14 0 28 -19 49 -62 38 -80 55 -123 72
-173 7 -22 18 -47 24 -55 15 -19 65 -128 65 -139 0 -5 17 -24 38 -42 53 -47
61 -70 50 -159 -5 -40 -13 -79 -17 -84 -24 -30 -90 -168 -96 -200 -7 -37 -25
-50 -25 -18 0 10 -3 22 -7 26 -4 4 -8 23 -8 44 -1 20 -9 53 -18 72 -45 96 -52
150 -20 150 26 0 79 38 91 65 8 18 9 32 2 45 -11 21 -24 26 -92 35 -28 4 -54
15 -66 29 -22 24 -58 129 -116 341 -9 33 -23 73 -31 88 -17 32 -20 87 -5 87 5
0 26 -8 47 -17z m3590 -125 c-3 -7 -5 -2 -5 12 0 14 2 19 5 13 2 -7 2 -19 0
-25z m-1837 13 c0 -6 -4 -13 -10 -16 -5 -3 -10 1 -10 9 0 9 5 16 10 16 6 0 10
-4 10 -9z m3200 -6 c13 -12 16 -27 13 -59 -4 -35 -1 -47 18 -68 43 -46 89
-117 89 -136 0 -10 14 -31 30 -47 29 -28 32 -29 83 -18 48 10 57 9 110 -15 31
-14 57 -29 57 -33 0 -13 -70 -20 -91 -8 -14 7 -51 9 -101 6 -43 -2 -81 -1 -84
4 -6 11 -70 5 -108 -10 -16 -6 -30 -10 -31 -9 -1 2 -9 37 -17 78 -10 56 -12
100 -6 175 5 55 9 112 9 128 0 31 5 33 29 12z m-532 -148 l-3 -153 -50 -47
c-27 -26 -52 -47 -56 -47 -4 0 -32 -24 -63 -54 -55 -52 -56 -54 -45 -86 12
-32 13 -32 58 -27 26 3 53 2 61 -3 18 -11 6 -38 -23 -49 -12 -5 -29 -16 -35
-24 -7 -8 -45 -37 -85 -64 -40 -26 -91 -68 -115 -93 l-44 -45 6 75 c3 42 7 82
11 90 3 8 7 60 10 115 6 137 19 257 28 273 5 6 19 12 32 12 33 0 83 54 125
135 20 38 46 73 62 83 16 9 28 20 28 24 0 10 59 36 83 37 17 1 18 -9 15 -152z
m-830 -47 c1 -49 -2 -90 -7 -90 -22 0 -29 112 -9 155 6 14 12 25 13 25 1 0 2
-40 3 -90z m1892 70 c0 -5 -9 -10 -20 -10 -11 0 -20 5 -20 10 0 6 9 10 20 10
11 0 20 -4 20 -10z m-1550 -146 l22 -130 -24 -59 c-28 -71 -54 -88 -45 -29 4
21 1 55 -5 75 -6 21 -7 46 -3 56 5 10 9 54 11 98 3 78 11 131 19 123 2 -2 14
-62 25 -134z m-3150 61 c0 -8 13 -35 30 -61 16 -26 35 -63 41 -83 6 -20 24
-53 39 -74 18 -25 26 -45 22 -62 -2 -14 -5 -25 -7 -25 -1 0 -13 21 -26 47 -13
25 -32 48 -41 51 -10 2 -18 9 -18 16 0 10 -45 83 -68 111 -4 6 -7 24 -6 40 1
17 3 36 3 43 1 17 31 15 31 -3z m4840 -22 c0 -2 -5 -13 -11 -24 -16 -30 -2
-57 42 -79 21 -11 39 -23 39 -25 0 -3 -20 -5 -44 -5 l-44 0 -12 64 c-7 36 -9
69 -6 75 6 9 36 5 36 -6z m-113 -16 c10 -11 -9 -47 -25 -47 -17 0 -62 38 -62
53 0 9 77 4 87 -6z m-5683 -182 c10 -33 23 -71 31 -85 23 -44 34 -100 25 -128
-5 -15 -11 -40 -14 -55 -5 -22 -9 -25 -19 -15 -7 7 -18 27 -26 43 -7 17 -20
44 -28 61 -10 22 -13 61 -11 147 3 129 12 136 42 32z m5956 65 c0 -5 -4 -10
-9 -10 -6 0 -13 5 -16 10 -3 6 1 10 9 10 9 0 16 -4 16 -10z m-7385 -43 c-2
-17 -10 -77 -16 -132 -12 -99 -36 -176 -60 -190 -9 -6 -10 -2 -5 16 4 13 11
47 16 74 5 28 14 68 20 90 6 22 12 54 15 70 2 17 7 49 10 73 7 49 26 48 20 -1z
m5205 18 c0 -8 -2 -15 -4 -15 -2 0 -6 7 -10 15 -3 8 -1 15 4 15 6 0 10 -7 10
-15z m25 -149 c14 -22 26 -166 14 -166 -12 0 -50 249 -40 265 3 6 7 -10 9 -34
2 -24 9 -53 17 -65z m-55 84 c0 -5 -2 -10 -4 -10 -3 0 -8 5 -11 10 -3 6 -1 10
4 10 6 0 11 -4 11 -10z m-3440 -30 c0 -5 -4 -10 -10 -10 -5 0 -10 5 -10 10 0
6 5 10 10 10 6 0 10 -4 10 -10z m705 -96 c35 -73 36 -79 23 -112 -18 -47 -29
-48 -56 -6 -24 37 -48 153 -38 180 12 32 36 11 71 -62z m-1154 43 c-10 -9 -11
-8 -5 6 3 10 9 15 12 12 3 -3 0 -11 -7 -18z m753 -197 c-1 -116 -3 -213 -6
-215 -6 -7 -112 26 -126 39 -10 10 -9 20 4 51 9 22 18 52 20 68 2 17 10 37 19
47 8 9 15 20 15 24 0 5 11 17 24 27 20 16 25 31 31 94 4 41 10 75 14 75 3 0 5
-95 5 -210z m3153 143 c-3 -10 -5 -4 -5 12 0 17 2 24 5 18 2 -7 2 -21 0 -30z
m-1917 -108 c-5 -116 -5 -119 -18 -78 -7 25 -10 66 -7 100 14 158 32 143 25
-22z m3150 115 c0 -6 -11 -23 -25 -38 -27 -29 -32 -64 -12 -80 6 -5 41 -8 77
-7 179 8 314 5 321 -6 12 -20 18 -102 11 -143 -13 -74 -117 -100 -220 -56 -30
13 -62 37 -77 56 -45 59 -77 82 -129 95 -28 6 -81 24 -117 40 -74 32 -124 32
-206 1 -63 -25 -113 -34 -113 -22 0 6 12 20 26 33 15 12 32 27 38 32 51 47 68
54 120 50 29 -2 70 0 92 5 21 5 66 14 99 21 33 7 67 16 75 20 21 12 40 11 40
-1z m-1269 -82 c4 -35 17 -117 28 -183 11 -66 18 -122 15 -124 -2 -3 -30 4
-62 15 -65 22 -63 14 -37 154 10 52 19 109 20 125 1 37 16 88 22 81 3 -3 9
-33 14 -68z m-3491 -5 c0 -22 -18 -14 -25 10 -17 58 -16 62 4 32 12 -16 21
-36 21 -42z m3890 20 c0 -20 -13 -53 -20 -53 -14 0 -21 32 -9 46 12 15 29 19
29 7z m1622 -30 c1 -21 2 -65 3 -98 3 -84 15 -171 31 -228 10 -37 10 -47 1
-43 -7 3 -20 9 -29 12 -9 3 -28 29 -42 57 -15 29 -35 66 -45 84 -31 49 -51
120 -54 182 l-2 56 55 6 c30 3 61 6 68 7 7 1 13 -12 14 -35z m-1661 -274 c-6
-51 -14 -96 -18 -100 -9 -9 -103 7 -116 20 -4 4 -3 29 4 55 6 26 9 62 6 81 -8
49 12 87 41 80 13 -3 29 -2 35 3 7 6 21 12 32 14 26 5 30 -30 16 -153z m1429
136 c0 -8 -4 -15 -10 -15 -5 0 -10 7 -10 15 0 8 5 15 10 15 6 0 10 -7 10 -15z
m-7017 -60 c-7 -21 -13 -19 -13 6 0 11 4 18 10 14 5 -3 7 -12 3 -20z m7027
-68 c24 -21 26 -29 28 -126 3 -80 0 -102 -10 -99 -7 3 -16 22 -20 44 -5 21
-20 69 -34 106 -23 57 -24 68 -13 82 18 20 19 20 49 -7z m-2179 -8 c40 -25 79
-38 169 -55 47 -8 98 -22 114 -30 16 -8 37 -14 46 -14 10 0 23 -6 29 -14 9
-11 -15 -13 -151 -11 -90 2 -174 3 -188 4 -21 1 -30 10 -44 46 -11 25 -25 50
-33 56 -7 6 -13 18 -13 26 0 17 38 13 71 -8z m-3079 -55 c28 -61 18 -66 -13
-7 -32 64 -33 67 -20 59 6 -4 21 -28 33 -52z m35 -106 c-3 -7 -5 -2 -5 12 0
14 2 19 5 13 2 -7 2 -19 0 -25z m3483 12 c18 -12 2 -12 -25 0 -13 6 -15 9 -5
9 8 0 22 -4 30 -9z m-3460 -61 c0 -5 -4 -9 -10 -9 -5 0 -10 7 -10 16 0 8 5 12
10 9 6 -3 10 -10 10 -16z m5330 -52 c0 -16 -4 -26 -10 -22 -5 3 -10 23 -10 43
0 28 3 33 10 22 5 -8 10 -28 10 -43z m-4783 -19 c-3 -7 -5 -2 -5 12 0 14 2 19
5 13 2 -7 2 -19 0 -25z m-738 -85 c7 -43 16 -91 21 -108 9 -31 3 -72 -20 -137
-16 -43 -37 -55 -58 -34 -18 18 -19 129 -2 196 6 25 11 54 11 65 0 30 19 95
28 95 4 0 14 -35 20 -77z m717 -9 c-5 -65 -10 -83 -22 -71 -7 6 15 137 23 137
2 0 2 -30 -1 -66z"/>
<path d="M3416 2945 c-4 -10 1 -15 14 -15 11 0 20 7 20 15 0 8 -6 15 -14 15
-8 0 -16 -7 -20 -15z"/>
<path d="M482 1800 c0 -14 2 -19 5 -12 2 6 2 18 0 25 -3 6 -5 1 -5 -13z"/>
</g>
</svg>
