<?xml version="1.0" standalone="no"?>
<!DOCTYPE svg PUBLIC "-//W3C//DTD SVG 20010904//EN"
 "http://www.w3.org/TR/2001/REC-SVG-20010904/DTD/svg10.dtd">
<svg version="1.0" xmlns="http://www.w3.org/2000/svg"
 width="100.000000pt" height="46.762590pt" viewBox="0 0 100.000000 46.762590"
 preserveAspectRatio="xMidYMid meet">
<metadata>
Created by potrace 1.11, written by Peter Selinger 2001-2013
</metadata>
<g transform="translate(0.000000,46.762590) scale(0.014388,-0.014388)"
fill="#000000" stroke="none">
<path d="M1186 3161 c-3 -4 -27 -14 -53 -21 -27 -8 -68 -22 -93 -32 -83 -35
-95 -40 -110 -48 -9 -4 -30 -11 -48 -14 -17 -4 -34 -12 -37 -17 -4 -5 -21 -9
-38 -9 -18 0 -48 -11 -68 -24 -38 -26 -154 -76 -175 -76 -7 0 -28 -6 -46 -14
-18 -8 -58 -22 -88 -31 -30 -9 -73 -26 -94 -36 -22 -10 -45 -19 -51 -19 -6 0
-32 -13 -58 -30 -44 -28 -47 -32 -43 -65 2 -19 7 -39 11 -45 8 -13 40 -13 63
-1 32 18 137 54 193 66 l55 12 12 -50 c7 -28 21 -60 32 -72 14 -15 20 -35 20
-69 0 -47 14 -123 30 -161 15 -35 40 -118 40 -131 0 -7 23 -59 50 -117 28 -58
50 -110 50 -115 0 -6 10 -23 23 -39 13 -15 34 -55 47 -88 13 -33 30 -76 38
-95 9 -19 19 -71 22 -115 4 -44 13 -93 19 -110 36 -88 53 -273 31 -330 -5 -14
-17 -28 -26 -32 -18 -7 -173 66 -194 91 -7 9 -19 16 -26 16 -8 0 -14 5 -14 10
0 6 -7 10 -15 10 -8 0 -21 16 -29 35 -8 19 -27 47 -41 62 -27 29 -65 94 -65
113 0 5 20 10 44 10 34 0 56 8 96 35 29 19 55 35 60 35 4 0 18 9 32 19 13 11
37 23 51 26 37 10 36 42 0 49 -92 18 -205 5 -313 -36 -114 -43 -123 -50 -133
-88 -4 -19 -11 -46 -14 -59 -3 -12 0 -48 7 -78 12 -49 22 -62 93 -128 101 -95
248 -196 330 -229 44 -17 84 -26 123 -26 50 0 62 4 105 37 47 36 86 85 103
128 41 107 14 350 -49 440 -12 17 -27 57 -34 90 -7 32 -17 66 -22 75 -15 27
-59 166 -59 187 0 11 -11 46 -25 77 -14 31 -25 63 -25 71 0 8 -4 15 -9 15 -5
0 -14 19 -19 43 -13 54 -69 216 -80 231 -5 6 -15 31 -22 56 -7 25 -20 52 -27
61 -7 8 -13 19 -13 23 0 4 -16 40 -37 81 -41 83 -38 98 22 109 19 4 38 12 42
19 11 17 73 48 83 42 4 -3 24 2 44 10 20 8 36 12 36 8 0 -4 5 -2 12 5 7 7 19
12 28 12 8 0 42 14 75 32 33 17 80 34 105 37 45 6 45 6 44 45 -2 38 13 66 35
66 19 0 34 40 20 56 -13 16 -25 18 -33 5z"/>
<path d="M2535 3023 c-19 -18 -37 -50 -49 -88 -10 -33 -22 -68 -27 -77 -5 -10
-9 -24 -9 -31 0 -8 -7 -28 -16 -45 -8 -17 -18 -48 -20 -69 -3 -21 -10 -49 -15
-63 -12 -35 -20 -160 -19 -322 1 -141 -5 -188 -23 -188 -5 0 -49 39 -96 88
-47 48 -101 98 -119 111 -18 13 -44 40 -57 61 -13 21 -35 40 -49 44 -17 4 -26
13 -26 26 0 11 -6 20 -14 20 -8 0 -23 11 -34 25 -11 14 -24 25 -30 25 -6 0
-22 14 -36 30 -23 27 -29 30 -66 24 -31 -5 -47 -16 -70 -44 l-29 -37 9 -136
c6 -75 17 -162 26 -194 9 -32 20 -78 24 -103 20 -105 38 -126 92 -106 32 12
39 33 32 106 -2 30 -6 89 -8 130 -2 41 -5 80 -6 85 -1 6 -2 26 -1 45 l1 34 38
-37 c21 -21 47 -55 58 -75 15 -30 96 -109 192 -187 7 -5 33 -29 58 -53 29 -27
52 -41 63 -37 9 3 34 -5 56 -16 22 -12 53 -24 69 -26 45 -7 116 16 125 41 10
25 -2 128 -18 170 -7 16 -9 36 -6 43 2 8 -2 27 -10 43 -11 21 -16 82 -21 234
l-6 206 43 112 c23 61 52 121 64 132 25 23 37 82 23 109 -13 26 -59 21 -93
-10z"/>
<path d="M3548 2998 c-51 -42 -92 -168 -112 -343 l-11 -99 -44 -11 c-44 -11
-86 -49 -77 -71 3 -7 -2 -18 -11 -26 -15 -12 -16 -10 -9 14 11 48 -19 151 -58
196 -25 28 -51 28 -70 0 -11 -16 -18 -19 -28 -10 -9 7 -19 7 -28 2 -12 -8 -14
-34 -11 -148 2 -109 -1 -152 -14 -201 -21 -72 -42 -91 -102 -91 -37 0 -49 6
-81 38 -39 39 -52 80 -52 162 0 30 -36 109 -50 112 -6 0 -14 1 -20 2 -5 1 -21
-14 -35 -33 -19 -27 -25 -47 -25 -87 0 -29 5 -56 10 -59 6 -3 10 -18 10 -32 0
-62 99 -187 170 -215 36 -14 141 -18 165 -6 54 28 157 102 161 117 3 9 14 35
25 59 10 23 19 60 19 82 0 21 4 41 8 44 11 6 48 -85 57 -138 3 -21 13 -49 21
-61 13 -21 23 -62 27 -115 1 -14 7 -28 13 -32 6 -4 11 -31 12 -60 1 -45 5 -56
29 -75 36 -29 39 -29 58 7 9 17 21 30 29 30 21 0 36 66 24 103 -6 18 -15 38
-21 45 -11 13 -11 114 -1 170 5 23 16 40 38 53 40 25 101 25 111 2 15 -38 33
-118 28 -126 -7 -12 30 -109 49 -129 10 -10 20 -30 24 -45 11 -51 26 -70 93
-119 75 -55 86 -64 148 -116 24 -21 47 -38 51 -39 30 -3 49 -11 85 -35 67 -44
150 -84 176 -84 41 0 194 22 219 31 24 9 31 47 10 53 -7 2 -58 13 -113 26
-112 24 -241 82 -305 137 -59 51 -180 233 -180 271 0 9 -9 34 -19 56 -91 195
-96 215 -52 252 26 21 29 29 19 41 -7 8 -22 13 -36 10 -35 -7 -59 22 -67 82
-4 28 -11 53 -16 57 -5 3 -9 17 -9 32 0 26 -55 171 -69 182 -8 7 -38 70 -45
96 -4 11 -23 28 -44 37 -46 20 -54 21 -74 5z m52 -273 c6 -15 17 -25 29 -25
11 0 21 -9 25 -22 8 -33 7 -50 -3 -44 -5 3 -14 -1 -21 -9 -10 -12 -9 -29 3
-82 8 -38 14 -69 12 -71 -2 -2 -25 -4 -52 -5 -45 -2 -48 -1 -46 23 2 45 11
104 22 150 6 25 11 60 11 78 0 38 7 41 20 7z"/>
<path d="M1165 2813 c-11 -3 -24 -9 -29 -14 -12 -11 -34 -70 -52 -144 -9 -33
-17 -67 -19 -75 -3 -8 -12 -53 -21 -100 -10 -47 -23 -92 -29 -100 -19 -23 -26
-66 -16 -92 5 -13 11 -75 15 -138 4 -63 10 -146 15 -185 10 -77 43 -165 63
-165 7 0 23 19 35 43 19 39 21 53 16 188 l-5 146 46 21 c25 12 52 22 60 22 8
0 29 8 48 17 63 31 66 32 76 20 9 -10 25 -55 62 -173 6 -17 10 -40 10 -51 0
-11 6 -26 14 -32 8 -7 18 -26 21 -42 4 -16 12 -32 19 -36 7 -5 25 -29 40 -55
16 -27 32 -48 37 -48 5 0 9 -7 9 -15 0 -35 148 -161 167 -142 7 8 14 119 8
138 -3 10 -17 20 -30 23 -13 3 -30 16 -36 28 -6 12 -23 33 -36 46 -14 14 -32
40 -39 58 -8 18 -28 55 -44 81 -17 26 -42 86 -56 133 -15 47 -32 99 -39 115
-7 17 -25 73 -40 125 -15 52 -35 110 -46 128 -10 18 -19 41 -19 51 0 9 -4 21
-9 27 -5 5 -21 32 -37 59 -26 47 -54 88 -89 128 -15 17 -31 19 -70 10z m127
-362 c11 -31 26 -62 31 -70 18 -22 -20 -41 -80 -41 -29 0 -56 -1 -60 -2 -12
-4 -14 94 -4 117 5 11 12 49 15 83 3 35 9 68 12 74 7 12 56 -79 86 -161z"/>
<path d="M4445 2779 c-33 -11 -71 -21 -85 -23 -30 -4 -49 -11 -117 -42 -29
-13 -65 -27 -80 -30 -67 -16 -124 -57 -164 -115 -21 -32 -39 -64 -39 -72 0
-18 42 -57 63 -57 9 0 24 11 33 25 19 29 40 34 24 6 -16 -31 -1 -106 23 -117
22 -9 45 -46 97 -154 29 -60 61 -164 97 -315 16 -68 32 -85 80 -85 27 0 34 5
39 27 8 31 -13 182 -28 200 -14 17 -1 21 107 33 50 5 125 14 167 20 55 7 90 6
125 -2 81 -19 144 -14 165 12 24 29 23 36 -8 65 -18 17 -39 25 -63 25 -47 0
-110 18 -128 36 -8 8 -18 12 -23 9 -4 -3 -34 -9 -67 -14 -32 -5 -73 -12 -92
-16 -19 -4 -50 -4 -69 0 l-35 6 49 51 c27 28 65 67 84 87 59 60 120 142 120
161 0 10 12 42 27 72 21 40 27 68 28 115 0 34 -5 67 -11 73 -6 6 -37 14 -68
17 -31 3 -59 10 -62 14 -9 16 -127 8 -189 -12z m136 -135 c19 -23 16 -130 -5
-153 -9 -10 -16 -22 -16 -27 -1 -12 -68 -84 -79 -84 -4 0 -39 -34 -77 -75 -38
-41 -74 -75 -80 -75 -19 0 -73 115 -95 197 -10 42 -27 85 -36 95 -9 10 -14 19
-12 21 2 2 20 14 39 28 19 14 52 29 74 33 21 4 46 12 55 17 24 14 130 37 177
38 27 1 46 -5 55 -15z"/>
<path d="M4955 2611 c-3 -10 -1 -38 6 -62 6 -24 14 -64 18 -89 12 -64 21 -82
66 -121 72 -61 104 -72 197 -67 87 5 132 23 189 75 l25 23 20 -22 c50 -58 85
-109 79 -117 -3 -5 -1 -12 5 -16 5 -3 10 -15 10 -26 0 -11 6 -22 14 -25 8 -3
20 -20 27 -37 7 -18 23 -46 36 -64 12 -17 23 -36 23 -42 0 -12 157 -171 260
-263 41 -37 87 -77 101 -90 14 -13 53 -58 87 -100 35 -42 76 -86 92 -98 17
-12 44 -42 61 -68 18 -26 37 -51 43 -57 13 -11 59 -96 54 -100 -23 -17 -80
-35 -114 -35 -46 0 -139 21 -173 39 -11 6 -26 11 -34 11 -8 0 -32 8 -53 17
-65 29 -312 37 -414 14 -30 -7 -67 -14 -81 -15 -64 -6 -197 -104 -252 -185
-35 -52 -38 -60 -34 -114 2 -43 13 -77 44 -135 70 -132 82 -156 94 -189 8 -25
17 -33 35 -33 20 0 24 -5 24 -29 0 -20 6 -32 19 -36 10 -3 35 -21 54 -40 20
-19 45 -35 56 -35 12 0 36 -22 63 -57 54 -71 100 -103 146 -103 21 0 47 -9 66
-23 77 -58 306 -144 352 -133 14 4 24 0 28 -10 5 -13 17 -15 59 -11 126 11
241 29 261 42 12 7 38 16 59 19 20 3 60 22 88 41 28 19 55 35 60 35 4 0 35 42
68 92 46 69 61 102 61 128 0 51 -21 86 -48 82 -12 -2 -22 2 -22 7 0 6 15 11
34 11 36 0 66 23 46 35 -6 4 -9 14 -6 21 7 19 -32 197 -53 244 -27 57 -101
180 -110 180 -9 0 -151 175 -151 186 0 4 -19 30 -43 58 -23 28 -55 70 -70 92
-16 23 -45 57 -65 75 -20 19 -50 51 -67 72 -16 21 -40 51 -52 67 -13 15 -23
30 -23 33 0 9 -60 96 -84 121 -30 32 -53 61 -64 83 -6 10 -29 39 -52 63 -23
25 -48 59 -55 75 -8 17 -23 38 -34 47 -12 10 -21 24 -21 31 0 8 -10 25 -22 39
-13 13 -36 43 -52 66 -16 23 -47 59 -70 80 -22 21 -61 62 -85 91 -25 29 -72
81 -106 114 -34 34 -72 81 -83 104 -28 53 -35 57 -74 40 -18 -8 -46 -19 -62
-26 l-29 -12 7 -69 c7 -65 6 -70 -17 -84 -13 -9 -50 -18 -83 -22 -49 -4 -65
-2 -92 15 -18 12 -37 33 -43 48 -6 16 -17 42 -25 58 -7 17 -16 42 -20 58 -11
46 -86 68 -99 28z m975 -1446 c8 -1 53 -14 100 -28 102 -32 209 -46 268 -34
33 6 48 16 65 43 12 18 26 34 30 34 13 0 34 -24 41 -46 3 -11 40 -71 81 -134
41 -63 75 -120 75 -127 0 -7 5 -13 10 -13 6 0 10 -5 10 -11 0 -5 11 -34 24
-62 31 -67 58 -155 51 -167 -3 -5 10 -12 30 -16 19 -3 35 -10 35 -15 0 -5 -6
-8 -12 -6 -8 1 -14 -10 -15 -28 -10 -114 -61 -222 -118 -249 -97 -46 -166 -65
-252 -67 -106 -4 -257 7 -281 20 -19 11 -69 25 -92 25 -8 1 -32 13 -52 28 -21
16 -55 40 -75 55 -20 15 -60 39 -89 54 -67 34 -126 79 -186 144 -46 48 -57 62
-40 51 4 -2 14 -1 22 4 20 13 -46 79 -72 73 -11 -4 -18 0 -18 9 0 8 -15 28
-33 45 -18 16 -39 49 -47 74 -8 24 -20 49 -27 54 -7 6 -14 43 -17 83 -6 83
-13 75 99 107 33 9 69 25 80 35 45 40 87 51 280 74 17 2 48 1 70 -2 22 -3 47
-6 55 -7z"/>
</g>
</svg>
