<?xml version="1.0" standalone="no"?>
<!DOCTYPE svg PUBLIC "-//W3C//DTD SVG 20010904//EN"
 "http://www.w3.org/TR/2001/REC-SVG-20010904/DTD/svg10.dtd">
<svg version="1.0" xmlns="http://www.w3.org/2000/svg"
 width="100.000000pt" height="34.978541pt" viewBox="0 0 100.000000 34.978541"
 preserveAspectRatio="xMidYMid meet">
<metadata>
Created by potrace 1.11, written by Peter Selinger 2001-2013
</metadata>
<g transform="translate(0.000000,34.978541) scale(0.010730,-0.010730)"
fill="#000000" stroke="none">
<path d="M5694 3161 c-48 -30 -147 -60 -175 -55 -18 4 -34 -1 -55 -19 -25 -22
-29 -31 -26 -71 4 -79 4 -100 -3 -134 -5 -22 -3 -38 7 -50 20 -23 41 -117 34
-147 -6 -23 35 -239 53 -280 7 -17 19 -77 36 -182 1 -11 10 -45 18 -75 8 -29
20 -82 27 -118 7 -36 17 -71 23 -78 5 -6 7 -29 3 -50 -3 -22 0 -62 8 -93 8
-30 17 -80 20 -112 2 -31 7 -60 10 -65 3 -5 13 -67 21 -138 23 -184 25 -196
37 -226 5 -15 7 -44 4 -63 -4 -21 0 -68 10 -116 14 -65 16 -89 7 -122 -7 -26
-8 -48 -2 -59 5 -9 9 -31 9 -48 0 -27 -3 -31 -21 -25 -12 4 -24 3 -28 -1 -11
-16 -85 -62 -131 -82 -70 -31 -125 -36 -147 -13 -10 10 -33 26 -50 35 -42 21
-63 63 -63 125 0 27 -5 53 -10 56 -7 4 -8 74 -3 208 4 111 6 231 5 267 -2 67
-9 260 -15 413 -2 49 -9 93 -15 99 -17 17 -15 60 5 88 24 35 35 41 53 26 31
-26 65 -34 83 -21 9 7 17 19 17 27 0 8 5 19 11 25 7 7 9 25 5 46 -7 37 -23 46
-81 47 -16 0 -41 7 -55 15 -36 21 -93 18 -123 -5 -32 -25 -41 -25 -76 1 -23
17 -39 20 -78 16 -27 -2 -59 -9 -71 -16 -11 -6 -29 -11 -40 -11 -11 0 -32 -17
-48 -37 -15 -21 -32 -40 -36 -41 -12 -5 -68 -118 -68 -137 0 -23 -29 -18 -40
8 -5 12 -12 39 -15 60 -4 23 -20 53 -41 76 -19 21 -34 43 -34 50 0 6 -32 27
-71 46 -56 28 -83 35 -128 35 -32 0 -62 -5 -69 -12 -10 -10 -17 -10 -35 2 -80
50 -160 80 -216 80 -80 0 -111 -24 -111 -85 0 -56 21 -70 92 -61 48 7 51 5 87
-31 31 -31 39 -47 44 -92 4 -29 3 -61 -2 -70 -13 -27 -2 -355 13 -379 3 -6 3
-17 0 -26 -3 -9 -2 -22 4 -29 13 -16 25 -80 27 -149 3 -63 3 -63 -26 -47 -22
11 -45 17 -99 25 -35 6 -98 -11 -87 -23 4 -3 -5 -14 -18 -25 -13 -10 -27 -28
-31 -40 -7 -25 -15 -35 -66 -89 -20 -21 -43 -39 -51 -39 -8 0 -18 -7 -21 -16
-4 -9 -9 -14 -13 -11 -3 3 -22 -1 -42 -9 -27 -11 -55 -13 -116 -8 -69 6 -86
11 -126 40 -56 41 -162 157 -170 188 -3 12 -11 31 -17 42 -6 11 -12 46 -13 79
l-3 59 34 7 c20 4 48 2 73 -7 22 -8 74 -14 117 -14 48 0 88 -6 107 -15 18 -9
54 -14 94 -13 61 2 125 -10 217 -39 23 -7 52 -13 63 -13 27 0 79 31 79 46 0 7
6 19 14 26 18 19 26 79 13 103 -6 11 -12 29 -13 40 -4 44 -25 129 -42 169 -11
23 -22 59 -26 81 -12 64 -83 146 -156 181 -19 9 -46 23 -60 29 -58 29 -192 56
-254 51 -123 -9 -203 -37 -274 -98 -18 -15 -39 -28 -47 -28 -7 0 -16 -6 -19
-12 -4 -7 -4 -2 -1 12 4 14 8 43 11 65 6 45 27 116 55 187 11 26 19 54 19 62
0 9 12 40 27 70 22 45 25 59 16 78 -13 29 -94 73 -153 83 -24 4 -51 11 -60 15
-81 40 -267 92 -300 83 -13 -3 -25 -1 -30 7 -12 20 -59 14 -86 -10 -21 -21
-24 -32 -24 -101 0 -43 -7 -111 -15 -151 -9 -40 -18 -107 -21 -148 -7 -107
-13 -172 -18 -195 -2 -11 -5 -30 -5 -42 -1 -13 -5 -23 -10 -23 -5 0 -11 10
-14 23 -22 87 -29 112 -36 117 -12 9 -107 197 -161 320 -5 14 -19 39 -29 55
-10 17 -16 35 -14 42 8 21 -18 83 -41 98 -32 21 -64 8 -87 -36 -11 -22 -24
-39 -30 -39 -5 0 -28 -9 -50 -19 -22 -11 -53 -23 -69 -26 -17 -4 -32 -11 -35
-16 -4 -5 -21 -9 -39 -9 -18 0 -40 -6 -50 -13 -23 -17 -49 -82 -49 -124 l-1
-31 -74 4 c-60 4 -86 0 -142 -20 -37 -14 -69 -23 -71 -21 -19 18 -321 31 -375
16 -28 -8 -45 -6 -77 8 -35 15 -48 16 -82 6 l-40 -12 -7 -79 c-4 -43 -12 -113
-18 -154 -7 -41 -14 -104 -16 -140 -2 -36 -6 -112 -10 -170 -3 -58 -6 -134 -5
-169 0 -35 -2 -61 -5 -58 -3 3 -16 52 -30 108 -29 124 -40 169 -59 229 -8 25
-17 65 -20 90 -4 25 -15 70 -25 100 -10 31 -26 94 -35 140 -22 108 -45 147
-92 156 -42 8 -194 -3 -231 -17 -17 -7 -42 -6 -75 1 -92 19 -183 -15 -210 -79
-20 -46 -38 -152 -37 -216 1 -49 -6 -185 -9 -195 -3 -9 -11 -181 -15 -320 -8
-305 -20 -505 -35 -580 -5 -25 -15 -79 -21 -120 -7 -41 -19 -106 -27 -145 -8
-38 -16 -83 -18 -100 -3 -30 -27 -176 -45 -274 -15 -82 -12 -119 12 -162 25
-46 55 -57 100 -38 54 22 247 15 355 -13 90 -23 94 -24 129 -6 71 34 78 50 43
99 -18 25 -20 39 -15 87 4 31 8 91 11 132 5 82 30 254 40 270 12 19 35 10 47
-17 19 -49 40 -97 54 -126 8 -16 14 -48 14 -71 0 -29 7 -51 20 -66 14 -16 20
-37 20 -71 0 -90 49 -162 107 -156 18 2 34 0 35 -3 2 -3 19 -18 39 -33 39 -29
83 -35 96 -13 6 10 30 15 83 16 93 2 168 -10 242 -39 45 -17 62 -20 78 -11 49
26 51 41 55 337 2 153 7 286 10 295 6 16 11 15 44 -10 20 -16 55 -34 78 -40
51 -15 230 -25 237 -13 3 5 23 12 43 16 75 13 222 99 223 129 0 5 6 17 14 25
22 24 83 152 112 234 32 87 41 99 49 61 4 -16 13 -42 22 -58 12 -21 14 -41 8
-80 -10 -78 -8 -89 22 -113 36 -30 67 -29 107 2 18 14 42 25 54 25 11 0 23 4
26 9 12 18 141 33 185 21 23 -6 47 -8 53 -4 6 4 24 7 40 6 36 -1 68 45 68 100
0 20 5 50 11 65 6 15 15 37 20 48 4 11 11 31 15 44 6 23 7 23 17 5 16 -30 99
-104 124 -110 13 -4 38 -22 55 -40 18 -19 38 -34 45 -34 7 0 23 -11 34 -24 12
-13 37 -27 57 -31 21 -4 51 -15 67 -25 17 -10 32 -19 35 -19 3 0 12 -2 20 -5
19 -6 87 -15 160 -22 30 -3 82 -9 114 -14 48 -8 63 -7 76 5 9 8 20 15 24 15 5
0 41 15 81 34 56 26 92 54 163 125 50 50 93 87 96 83 9 -15 -14 -203 -29 -235
-23 -49 -94 -118 -145 -140 -53 -24 -176 -47 -213 -40 -21 4 -28 -1 -41 -25
-22 -43 -20 -79 5 -92 26 -14 194 2 261 24 26 9 67 18 90 20 79 6 117 32 148
100 47 104 59 176 66 386 9 281 9 275 2 509 -7 212 -6 214 18 269 28 63 50 92
72 92 21 0 107 -93 135 -148 13 -26 32 -79 42 -119 16 -63 17 -77 5 -112 -17
-53 -3 -85 46 -106 38 -16 76 -12 94 10 6 7 15 51 20 97 17 149 37 211 95 299
34 52 97 97 137 99 20 0 33 -62 23 -119 -6 -34 -3 -41 25 -65 17 -14 36 -26
42 -26 8 0 8 -36 2 -122 -5 -68 -9 -274 -10 -458 l-2 -335 30 -70 c17 -38 34
-77 38 -85 3 -8 16 -19 28 -25 12 -5 25 -19 28 -30 3 -11 15 -29 26 -40 10
-11 25 -28 31 -38 12 -17 43 -27 180 -56 66 -15 107 7 107 56 0 13 6 23 14 23
7 0 19 7 26 15 7 8 23 15 35 15 13 0 25 5 27 12 2 6 11 9 20 6 11 -5 19 -29
26 -75 19 -122 20 -137 4 -171 -15 -30 -15 -35 2 -67 24 -44 66 -53 123 -25
23 11 62 20 86 20 49 0 196 35 211 50 6 6 20 10 33 10 13 0 23 4 23 8 0 5 19
15 43 22 23 8 49 19 57 25 8 7 49 30 90 53 76 42 170 118 170 138 0 6 12 21
26 35 14 13 30 33 35 44 5 11 13 27 18 35 5 8 26 60 47 115 20 55 39 102 41
104 2 3 13 -5 26 -17 13 -12 28 -22 33 -22 5 0 26 -11 47 -25 20 -14 66 -35
101 -46 36 -11 68 -24 71 -29 3 -6 17 -10 30 -10 13 0 30 -6 37 -13 8 -6 21
-16 29 -22 46 -29 135 -91 145 -101 20 -18 183 -57 197 -46 6 5 55 12 109 16
53 3 109 13 125 21 15 8 31 15 35 15 5 0 42 16 84 35 41 19 80 35 86 35 43 0
228 82 228 101 0 4 30 12 68 19 37 7 72 16 77 20 6 4 24 10 40 13 129 24 145
35 145 94 0 24 -9 44 -30 66 -16 18 -30 37 -30 42 0 6 -14 21 -31 34 -19 16
-29 31 -26 42 3 10 -1 26 -7 36 -7 10 -13 36 -14 58 -2 22 -9 54 -17 71 -12
26 -12 39 -1 88 10 42 11 68 4 94 -12 43 -4 145 12 150 5 2 10 21 10 41 0 42
16 60 90 107 47 31 78 54 117 92 13 12 26 22 29 22 3 0 36 17 72 38 77 44 146
71 182 71 34 0 114 15 175 33 78 24 91 21 116 -20 12 -20 22 -55 23 -77 1 -23
6 -46 10 -53 4 -7 5 -12 1 -12 -3 0 1 -13 10 -30 34 -65 92 -17 82 68 -3 26 0
66 6 89 9 35 8 48 -6 78 -9 19 -20 35 -25 35 -5 0 -9 27 -9 60 0 52 -3 64 -26
88 -16 17 -27 39 -27 56 0 36 -17 66 -37 66 -9 0 -25 7 -34 16 -27 25 -96 34
-138 19 -20 -7 -74 -11 -121 -10 -47 0 -90 -3 -97 -8 -6 -5 -40 -15 -74 -23
-52 -12 -110 -41 -129 -64 -3 -3 -23 -17 -45 -30 -44 -26 -71 -51 -96 -87
l-16 -24 0 28 c0 114 -9 176 -27 189 -21 15 -125 12 -181 -5 -16 -5 -55 -12
-85 -16 -30 -3 -63 -12 -73 -20 -33 -24 -45 -95 -39 -225 1 -25 2 -81 2 -125
0 -44 4 -129 10 -190 5 -60 10 -119 10 -130 -1 -11 -1 -64 0 -118 0 -87 -3
-106 -30 -170 -16 -39 -30 -83 -30 -97 0 -15 -9 -36 -20 -48 -11 -12 -20 -25
-20 -30 0 -5 -19 -27 -42 -48 -24 -22 -57 -55 -74 -74 -17 -19 -40 -41 -52
-47 -50 -30 -334 -70 -405 -57 -23 3 -60 15 -84 25 -24 10 -46 18 -48 18 -22
0 -80 40 -111 77 -21 24 -43 44 -49 44 -12 0 -39 56 -50 102 -9 37 11 44 85
32 109 -18 267 3 352 47 10 5 27 9 37 9 11 0 22 4 25 9 4 5 41 12 84 16 75 7
110 18 123 37 4 6 7 34 8 63 1 50 -2 56 -45 102 -43 45 -92 135 -108 197 -4
15 -17 38 -30 50 -17 15 -28 42 -37 86 -14 75 -65 183 -107 228 -21 22 -41 32
-78 37 -27 4 -56 14 -66 22 -29 26 -261 -1 -328 -38 -8 -5 -35 -18 -60 -29
-40 -19 -84 -56 -171 -145 -16 -16 -29 -32 -29 -35 0 -4 -20 -29 -45 -55 -25
-27 -57 -73 -72 -102 -16 -29 -31 -53 -35 -53 -5 0 -8 -13 -8 -29 0 -17 -4
-32 -8 -35 -5 -3 -52 0 -104 6 -90 10 -99 9 -141 -11 -24 -12 -73 -28 -108
-35 -35 -8 -75 -18 -89 -23 -55 -19 -72 -11 -85 37 -21 75 -49 337 -46 424 1
21 -6 49 -14 63 -12 18 -16 44 -14 101 2 43 -1 83 -5 90 -12 20 -37 145 -31
160 2 7 0 47 -6 90 -5 42 -12 114 -15 160 -3 46 -9 95 -15 109 -5 13 -8 62 -8
107 2 97 -11 126 -56 126 -16 0 -44 -8 -61 -19z m48 -150 c5 -14 7 -50 3 -78
-5 -44 -3 -58 14 -82 18 -25 21 -43 20 -127 0 -55 4 -123 10 -153 6 -29 11
-89 11 -133 0 -44 5 -89 12 -101 12 -22 22 -124 34 -327 4 -58 9 -107 13 -110
4 -3 8 -45 9 -95 2 -201 11 -259 43 -275 25 -14 70 -5 95 18 70 63 143 102
203 109 19 2 42 8 52 13 25 14 180 12 237 -1 55 -14 70 -25 129 -101 45 -59
73 -121 78 -173 2 -16 10 -59 20 -95 9 -37 14 -84 11 -110 -8 -73 -21 -144
-29 -157 -5 -7 -14 -36 -22 -65 -23 -89 -73 -168 -157 -250 -43 -43 -85 -78
-92 -78 -7 0 -25 -13 -40 -29 -15 -16 -42 -32 -59 -35 -18 -4 -39 -16 -48 -28
-12 -15 -33 -23 -73 -29 -32 -4 -74 -16 -94 -26 -26 -12 -60 -18 -111 -18
l-73 0 -3 67 c-2 37 -10 91 -18 120 -14 49 -36 206 -43 303 -1 22 -9 65 -17
95 -8 30 -17 114 -20 185 -3 72 -10 146 -16 165 -6 19 -13 70 -16 113 -2 42
-7 82 -10 87 -6 10 -31 216 -40 335 -3 38 -13 90 -21 115 -9 25 -17 68 -19 95
-7 134 -40 391 -55 439 -6 19 -6 34 0 41 7 8 5 23 -6 44 -9 19 -13 42 -10 57
5 17 0 34 -15 56 -15 20 -24 53 -29 102 -4 39 -11 78 -15 87 -8 20 3 28 65 49
56 19 79 15 92 -19z m-2695 -484 c3 -4 18 -7 32 -7 15 0 43 -11 63 -25 21 -14
54 -29 75 -33 29 -6 39 -13 41 -30 3 -23 -24 -148 -36 -167 -8 -12 -35 -115
-62 -240 -11 -49 -25 -94 -30 -99 -6 -6 -10 -18 -10 -28 0 -16 -5 -18 -35 -12
-47 8 -81 -14 -87 -58 -8 -47 5 -73 46 -92 27 -12 36 -23 36 -41 0 -13 -5 -27
-11 -31 -6 -3 -17 -22 -25 -41 -13 -29 -18 -33 -37 -27 -30 11 -84 6 -115 -9
-42 -21 -48 -40 -29 -99 15 -45 23 -56 55 -70 21 -10 44 -18 51 -18 9 0 9 -5
1 -21 -9 -16 -14 -18 -26 -9 -23 20 -103 -9 -120 -42 -8 -15 -14 -34 -14 -43
0 -22 50 -64 78 -65 16 0 22 -6 22 -23 0 -49 -71 -118 -150 -143 -30 -10 -64
-24 -75 -31 -26 -18 -60 -16 -79 3 -15 15 -23 94 -11 106 3 3 22 1 43 -5 75
-20 132 17 132 85 0 76 -97 136 -162 99 -15 -9 -33 -29 -39 -44 l-12 -29 -14
32 c-7 18 -13 39 -13 46 0 8 -8 26 -17 41 -14 21 -17 51 -18 152 -1 75 1 110
5 87 14 -77 100 -121 157 -81 13 9 27 34 33 56 12 44 9 51 -39 96 -36 35 -128
28 -153 -10 -9 -15 -22 21 -49 138 -13 55 -33 123 -46 151 -29 64 -29 68 2 92
18 14 25 29 25 53 0 43 -8 55 -51 78 -26 14 -41 16 -67 9 -29 -8 -38 -5 -85
28 -69 50 -107 85 -101 95 2 4 0 10 -6 14 -5 3 -10 15 -10 25 0 18 2 17 25 -4
25 -23 65 -36 111 -36 13 0 24 -5 24 -11 0 -11 60 -39 84 -39 8 0 27 11 43 24
l29 25 16 -32 c9 -18 31 -62 48 -99 17 -38 35 -68 40 -68 8 0 30 -54 30 -75 0
-8 -20 -14 -51 -17 -55 -6 -74 -19 -84 -59 -5 -19 0 -34 21 -58 40 -48 69 -56
117 -32 22 11 44 18 48 16 11 -7 39 -95 39 -122 0 -38 48 -123 69 -123 31 0
54 36 57 92 9 130 20 161 43 121 15 -28 99 -25 129 5 47 47 55 107 17 142 -22
20 -30 22 -86 16 -41 -5 -59 -4 -55 3 7 10 10 42 20 191 3 41 11 105 17 141
l12 65 51 -4 c72 -6 90 21 71 105 -7 30 -6 32 19 29 14 -1 29 -6 33 -9z m-707
-57 c0 -5 -7 -10 -16 -10 -9 0 -29 -10 -46 -21 -25 -18 -32 -19 -39 -8 -14 23
-11 28 29 34 20 4 42 8 47 10 19 6 25 5 25 -5z m6528 -82 c13 -21 21 -56 24
-98 l3 -64 -28 -3 c-16 -1 -35 -7 -43 -14 -21 -17 -17 5 6 31 27 31 25 46 -10
87 -19 21 -30 45 -30 63 0 26 4 30 29 30 22 0 34 -8 49 -32z m150 -10 c7 -7
12 -20 12 -30 0 -22 34 -58 56 -58 9 0 18 9 21 20 6 24 19 26 27 3 9 -22 -11
-39 -55 -46 -31 -4 -41 -1 -62 21 -30 32 -47 102 -25 102 8 0 19 -5 26 -12z
m-381 -68 c17 -21 34 -30 55 -30 21 0 39 -10 59 -31 40 -43 37 -56 -13 -64
-24 -3 -60 -13 -80 -22 -34 -14 -38 -14 -53 1 -9 9 -21 16 -27 16 -6 0 -8 9
-5 19 7 29 -20 63 -44 56 -23 -8 -25 2 -4 24 8 9 23 26 35 39 27 30 46 28 77
-8z m-349 -11 c14 -21 8 -79 -8 -79 -10 0 -15 17 -25 72 -7 42 10 45 33 7z
m-6230 -114 c86 -45 185 -141 223 -216 12 -24 30 -55 39 -69 18 -27 49 -125
48 -150 -1 -8 6 -46 15 -85 19 -85 24 -274 7 -334 -6 -24 -9 -54 -6 -66 6 -23
-26 -134 -48 -170 -7 -11 -16 -33 -20 -50 -8 -34 -34 -91 -54 -114 -62 -77
-81 -95 -121 -116 -148 -74 -343 -51 -427 52 l-37 45 7 91 c8 110 15 177 22
197 3 8 7 62 9 120 2 58 7 193 12 300 5 108 5 210 0 228 -5 21 -4 67 4 120 6
48 14 110 16 139 5 49 8 54 48 81 38 25 55 29 120 31 69 2 81 -1 143 -34z
m5227 -6 c51 -23 95 -63 95 -87 0 -10 4 -22 8 -28 14 -16 62 -133 67 -167 4
-17 18 -52 33 -77 56 -94 105 -201 96 -209 -14 -13 -110 -41 -141 -41 -15 0
-49 -6 -74 -14 -46 -14 -84 -14 -175 -1 -42 6 -52 12 -63 36 -11 26 -17 29
-62 29 -31 0 -51 -5 -55 -13 -3 -8 -17 -11 -40 -9 -42 5 -70 -16 -80 -61 -7
-33 -24 -51 -62 -67 -48 -20 -41 -65 21 -142 23 -29 50 -65 60 -80 9 -15 64
-74 120 -130 94 -93 110 -105 173 -127 56 -19 82 -22 139 -18 239 18 422 50
451 80 19 18 42 5 48 -27 10 -54 37 -71 93 -60 44 8 48 12 55 46 6 30 3 44
-15 72 -12 20 -31 35 -42 36 -19 1 -19 2 4 20 32 27 36 26 50 -20 14 -49 22
-53 91 -56 30 -1 63 -5 72 -9 27 -11 33 20 12 53 -10 15 -18 45 -19 68 -1 51
-23 74 -69 76 -29 1 -34 4 -25 15 13 15 39 18 39 3 0 -5 3 -9 8 -8 19 6 51
-26 77 -79 34 -68 44 -79 80 -93 19 -7 31 -7 41 1 13 11 34 5 34 -10 0 -5 -39
-21 -87 -37 -49 -15 -109 -38 -134 -51 -26 -13 -50 -23 -54 -23 -4 0 -49 -20
-101 -45 -51 -25 -98 -45 -105 -45 -6 0 -24 -9 -39 -20 -73 -52 -326 -70 -435
-31 -33 12 -68 24 -77 26 -10 2 -43 25 -75 50 -31 26 -75 56 -97 67 -23 11
-43 23 -46 27 -8 10 -93 49 -122 56 -15 4 -44 22 -63 41 -20 19 -43 34 -50 34
-7 0 -22 11 -33 24 -17 22 -18 37 -14 130 4 94 2 109 -16 140 -12 20 -24 60
-27 88 -7 56 -23 108 -34 108 -3 0 -25 18 -48 39 -23 22 -51 44 -62 51 -26 13
-26 28 -3 54 11 12 27 47 36 79 10 31 22 57 27 57 5 0 9 8 9 18 0 44 178 193
300 250 90 42 225 47 305 11z m-5705 4 c8 -7 2 -109 -10 -152 -7 -28 -9 -116
-6 -267 2 -126 0 -252 -6 -287 -17 -112 -30 -289 -33 -467 -3 -169 -7 -298
-20 -593 l-6 -139 -27 9 c-15 4 -88 7 -163 5 -125 -3 -138 -2 -150 15 -8 11
-22 22 -31 26 -10 3 -18 13 -18 21 0 8 -10 34 -23 58 -12 24 -28 63 -36 88 -7
25 -23 73 -37 107 -13 34 -24 72 -24 84 0 12 -4 36 -10 53 -5 17 -30 92 -54
166 -24 74 -49 160 -56 192 -15 76 -63 148 -98 148 -32 0 -43 -7 -65 -40 -13
-19 -17 -47 -17 -118 0 -58 -5 -106 -14 -125 -23 -53 -56 -216 -67 -331 -5
-61 -14 -128 -19 -150 -5 -23 -10 -59 -10 -81 -1 -46 -22 -80 -44 -72 -9 4
-17 3 -20 -1 -9 -15 -153 -5 -177 12 -13 9 -29 16 -36 16 -7 0 -21 8 -32 19
-20 20 -21 10 18 226 49 267 60 334 65 391 3 34 8 68 10 75 6 18 25 190 32
289 5 75 28 369 41 530 3 47 7 101 8 120 0 19 4 46 8 60 4 14 13 42 19 63 11
35 12 36 29 21 16 -14 25 -15 68 -4 27 6 87 10 133 7 l83 -4 17 -34 c9 -19 17
-42 18 -51 0 -10 6 -35 14 -55 7 -21 21 -72 31 -113 10 -41 23 -85 31 -96 7
-12 20 -50 29 -85 16 -65 29 -110 85 -295 16 -56 30 -114 30 -130 0 -21 13
-41 49 -77 42 -40 55 -47 90 -47 38 0 42 3 57 38 8 20 15 44 15 52 -1 60 3
283 6 320 2 25 7 128 12 230 5 102 13 205 19 230 6 25 8 49 5 53 -10 16 8 75
25 83 41 18 243 24 262 7z m6610 -35 c27 -44 25 -50 -12 -46 -30 3 -33 6 -35
41 -3 48 19 50 47 5z m230 -68 c11 -11 29 -20 40 -20 34 0 23 -15 -45 -61 -35
-24 -67 -52 -71 -62 -3 -9 -18 -31 -34 -48 -15 -17 -34 -51 -40 -75 l-13 -44
-28 17 c-16 10 -32 25 -35 35 -3 11 -15 18 -30 18 -22 0 -31 18 -25 54 1 4 -4
14 -10 22 -7 8 -9 17 -6 20 7 7 65 -32 92 -63 l20 -23 33 26 c43 34 41 68 -10
168 -14 27 2 37 67 41 31 2 60 6 63 9 8 9 10 8 32 -14z m-4590 -169 c15 -17
31 -31 38 -31 17 0 82 -193 69 -207 -19 -19 -365 10 -447 37 -19 7 -41 13 -48
16 -33 10 65 153 127 184 51 26 109 38 171 35 58 -2 67 -6 90 -34z m-670 -191
c0 -5 -2 -10 -4 -10 -3 0 -8 5 -11 10 -3 6 -1 10 4 10 6 0 11 -4 11 -10z
m5070 -109 c0 -24 -3 -28 -24 -24 -13 3 -34 0 -46 -7 -27 -14 -50 2 -43 30 4
13 13 18 34 18 16 -1 32 2 36 5 3 4 15 7 25 7 13 0 18 -8 18 -29z m30 -236 c0
-17 -7 -24 -31 -29 -49 -9 -57 -8 -64 15 -9 27 8 38 57 37 33 0 38 -4 38 -23z"/>
<path d="M6225 1562 c-97 -34 -192 -102 -237 -170 -18 -27 -13 -111 7 -127 14
-11 23 -94 30 -260 2 -61 -2 -110 -13 -152 -15 -58 -15 -65 1 -98 23 -49 42
-53 99 -22 26 15 53 27 58 27 23 0 232 153 289 211 39 40 45 50 60 99 7 25 18
57 23 73 6 15 14 69 17 119 6 79 4 94 -12 114 -10 13 -27 43 -38 68 -33 75
-94 113 -209 131 -14 3 -48 -3 -75 -13z m181 -155 c24 -26 44 -54 44 -62 0 -9
7 -27 16 -40 14 -21 14 -34 5 -87 -17 -97 -29 -130 -56 -162 -14 -16 -25 -33
-25 -37 0 -13 -212 -135 -248 -142 -29 -6 -34 -4 -43 21 -6 15 -8 46 -4 72 9
56 7 142 -3 149 -18 14 -13 133 8 193 40 116 86 150 198 145 61 -3 65 -5 108
-50z"/>
<path d="M3040 2383 c-34 -13 -54 -47 -58 -99 -6 -78 2 -99 45 -117 63 -25
111 0 143 71 16 35 16 42 4 53 -8 6 -14 23 -14 36 0 46 -65 76 -120 56z"/>
<path d="M1923 1881 c-34 -14 -67 -35 -72 -46 -6 -11 -13 -68 -16 -128 -3 -59
-12 -126 -20 -148 -8 -23 -15 -50 -15 -60 0 -11 -9 -39 -21 -63 -41 -89 -58
-161 -47 -210 11 -51 32 -63 91 -52 17 3 57 8 87 11 30 3 74 10 97 16 43 12
84 9 139 -9 43 -14 88 13 104 63 11 34 10 43 -18 99 -43 89 -71 205 -72 303 0
34 -5 65 -11 69 -7 4 -9 21 -5 42 7 46 -20 85 -85 117 -58 30 -58 30 -136 -4z
m110 -223 c15 -30 34 -108 64 -260 5 -28 2 -31 -72 -44 -22 -5 -48 -7 -58 -5
-10 1 -25 -3 -33 -10 -20 -16 -37 6 -28 36 3 11 12 71 18 132 7 62 17 118 24
125 7 7 12 19 12 28 0 21 21 41 40 38 8 -2 23 -19 33 -40z"/>
<path d="M7024 2049 c-22 -5 -54 -22 -70 -38 -16 -15 -36 -30 -45 -33 -9 -4
-30 -34 -47 -68 -26 -52 -29 -65 -20 -86 6 -13 18 -24 25 -24 12 0 13 -11 8
-54 -11 -86 -5 -91 119 -94 58 -2 113 1 123 7 27 14 178 34 202 26 35 -11 89
15 101 48 16 47 12 84 -12 107 -12 11 -26 20 -30 20 -5 0 -19 21 -31 48 -54
116 -106 153 -215 151 -37 -1 -85 -5 -108 -10z m173 -121 c16 -14 37 -30 49
-36 21 -11 49 -81 36 -94 -4 -3 -69 -14 -144 -24 -154 -19 -175 -14 -157 32 5
14 9 40 9 57 1 62 53 97 137 93 30 -2 51 -10 70 -28z"/>
<path d="M9042 2589 c2 -6 8 -10 13 -10 5 0 11 4 13 10 2 6 -4 11 -13 11 -9 0
-15 -5 -13 -11z"/>
</g>
</svg>
