<?xml version="1.0" standalone="no"?>
<!DOCTYPE svg PUBLIC "-//W3C//DTD SVG 20010904//EN"
 "http://www.w3.org/TR/2001/REC-SVG-20010904/DTD/svg10.dtd">
<svg version="1.0" xmlns="http://www.w3.org/2000/svg"
 width="100.000000pt" height="32.768362pt" viewBox="0 0 100.000000 32.768362"
 preserveAspectRatio="xMidYMid meet">
<metadata>
Created by potrace 1.11, written by Peter Selinger 2001-2013
</metadata>
<g transform="translate(0.000000,32.768362) scale(0.011299,-0.011299)"
fill="#000000" stroke="none">
<path d="M7244 2763 c-32 -16 -64 -59 -64 -86 0 -24 -40 -87 -56 -87 -7 0 -19
-10 -25 -22 -7 -13 -20 -28 -29 -35 -14 -10 -16 -23 -12 -70 9 -90 8 -221 -2
-293 -5 -36 -9 -90 -10 -120 -1 -31 -6 -61 -10 -68 -4 -7 -9 -31 -11 -55 -16
-154 -34 -260 -47 -268 -9 -6 -17 -54 -22 -129 -1 -19 -6 -44 -10 -55 -25 -67
-25 -66 -53 -59 -16 4 -38 14 -51 22 -30 19 -129 10 -172 -16 -17 -11 -50 -48
-73 -83 -38 -59 -42 -70 -42 -132 -1 -45 3 -71 12 -79 7 -6 13 -18 13 -27 0
-26 50 -113 90 -157 21 -23 41 -51 45 -63 3 -11 10 -21 15 -21 4 0 30 -18 56
-40 52 -43 86 -95 78 -121 -2 -9 2 -19 11 -23 8 -3 15 -11 15 -18 0 -7 16 -24
35 -38 19 -14 35 -31 35 -37 0 -7 5 -13 10 -13 6 0 10 -7 10 -15 0 -8 4 -15
10 -15 11 0 70 -56 70 -67 0 -16 51 -32 74 -23 13 4 47 7 77 6 64 -4 75 2 153
77 33 31 63 57 68 57 4 0 8 6 8 14 0 8 5 16 11 18 6 2 12 25 14 52 5 71 21 89
83 92 46 2 54 0 68 -22 17 -25 40 -32 46 -13 3 9 20 7 58 -6 30 -10 66 -19 79
-21 13 -1 35 -7 50 -12 14 -6 48 -13 75 -16 27 -3 54 -10 60 -15 10 -8 135
-30 215 -37 18 -2 48 -12 66 -23 34 -19 92 -30 110 -19 6 3 35 6 65 7 44 1 59
6 74 24 10 12 23 21 28 19 6 -1 20 4 32 11 12 8 35 17 53 21 38 9 51 38 52
118 1 45 -4 66 -24 97 -27 44 -21 56 23 46 22 -4 33 0 56 24 24 25 28 38 31
100 2 39 0 73 -5 76 -5 3 -24 33 -43 68 -20 34 -45 68 -56 75 -29 17 -26 28
10 36 43 8 86 53 105 109 15 45 15 48 -6 82 -12 20 -35 42 -51 50 -16 9 -29
19 -29 24 0 5 -16 16 -36 26 -47 22 -51 39 -17 73 37 38 78 121 74 152 -7 59
-28 73 -123 84 -42 5 -59 4 -69 -6 -11 -12 -69 -13 -69 -2 0 3 16 33 35 68 19
36 34 73 32 83 -13 68 -20 93 -26 93 -3 0 -22 10 -41 22 -19 12 -42 22 -50 23
-8 1 -29 5 -46 9 -24 5 -33 3 -37 -8 -4 -9 -13 -13 -21 -10 -8 3 -17 1 -21 -5
-3 -6 -15 -11 -26 -11 -19 0 -19 2 5 33 13 17 26 43 27 57 5 38 -18 104 -45
129 -26 24 -49 23 -174 -12 -29 -8 -54 -11 -56 -8 -1 3 0 31 3 61 6 54 5 56
-31 92 -48 48 -74 54 -153 34 -81 -20 -85 -20 -85 3 0 11 -18 38 -40 61 -39
40 -41 41 -64 27 -13 -9 -27 -12 -32 -7 -13 13 -119 -41 -145 -73 l-22 -29
-14 33 c-8 19 -13 45 -12 59 2 14 -12 55 -30 91 -32 64 -34 66 -69 66 -21 0
-51 -6 -68 -14z m46 -191 c4 -49 -1 -106 -10 -117 -6 -8 -4 -24 10 -49 28 -56
28 -79 -3 -119 -15 -20 -27 -47 -27 -61 0 -14 -4 -27 -9 -30 -9 -6 -18 -51
-23 -113 -2 -17 -6 -35 -10 -39 -5 -4 -8 -16 -8 -27 0 -22 -16 -78 -33 -115
-12 -25 -27 -13 -27 22 0 11 -9 29 -20 41 l-21 22 21 52 c11 28 20 63 20 76 0
14 4 25 10 25 6 0 7 18 4 44 -5 30 -2 50 9 67 8 13 18 43 22 67 4 23 12 48 19
55 34 36 43 63 38 116 -3 40 -2 52 7 47 8 -6 10 0 5 18 -6 27 2 50 16 41 5 -3
9 -13 10 -23z m337 -84 c-3 -8 -6 -5 -6 6 -1 11 2 17 5 13 3 -3 4 -12 1 -19z
m244 -58 c23 -13 25 -50 3 -93 -22 -43 -22 -43 -37 -25 -27 35 -51 30 -87 -17
-19 -25 -37 -45 -40 -45 -4 0 -3 24 2 53 10 53 40 97 66 97 7 0 25 9 39 20 30
23 29 23 54 10z m-256 -92 c-4 -35 -11 -67 -15 -73 -12 -15 -6 -96 9 -124 10
-18 15 -21 22 -10 4 7 11 10 15 7 8 -9 -13 -66 -33 -89 -7 -8 -13 -27 -13 -40
0 -14 -7 -34 -15 -45 -8 -10 -15 -29 -15 -40 0 -12 -9 -33 -20 -47 -23 -29
-54 -122 -45 -136 3 -5 -6 -23 -20 -39 -14 -16 -25 -35 -25 -41 0 -11 -37 -70
-51 -81 -4 -3 -20 -32 -37 -65 -17 -33 -37 -69 -46 -80 -15 -19 -15 -17 -16
26 0 32 5 49 15 53 10 4 13 14 9 34 -4 17 -1 32 5 36 6 4 11 20 11 36 0 16 5
32 10 35 6 3 10 16 10 28 0 12 9 36 19 54 11 17 23 49 26 70 8 47 26 105 37
117 4 6 8 24 8 42 0 17 7 37 15 44 8 7 15 23 15 36 0 12 4 25 8 28 5 3 15 31
22 63 7 32 17 66 22 76 5 10 11 30 12 45 5 32 52 142 61 142 4 0 4 -28 0 -62z
m-209 -55 c-4 -32 -7 -71 -6 -88 1 -38 -20 -124 -38 -152 -7 -12 -12 -30 -11
-40 5 -28 -10 -73 -31 -96 -11 -11 -20 -32 -21 -46 -1 -43 -9 -74 -24 -98 -10
-14 -11 -23 -5 -23 6 0 8 -5 4 -11 -4 -7 -13 -44 -20 -83 -21 -108 -46 -156
-56 -108 -5 21 18 129 34 161 10 19 10 25 -2 35 -19 14 -21 123 -3 134 19 12
33 60 33 113 0 27 5 49 10 49 6 0 10 15 10 34 0 18 7 39 16 47 10 8 13 21 9
38 -4 14 0 38 9 55 8 17 20 46 27 65 13 34 45 71 62 71 6 0 7 -23 3 -57z m734
-39 c0 -8 -4 -12 -10 -9 -5 3 -10 -1 -10 -11 0 -9 -10 -26 -22 -38 -13 -12
-37 -39 -54 -60 -34 -43 -54 -42 -54 4 0 45 18 74 63 102 48 30 87 36 87 12z
m-319 -28 c-13 -16 -6 -82 11 -103 12 -14 0 -36 -56 -112 -24 -31 -51 -77 -60
-102 -10 -26 -37 -67 -61 -93 -27 -28 -47 -59 -51 -81 -5 -29 -53 -95 -69 -95
-15 0 -2 39 15 43 12 3 20 14 20 26 0 12 4 29 9 39 19 35 41 90 41 101 0 6 11
33 24 59 13 26 32 65 41 87 9 22 23 51 31 65 8 14 24 44 34 68 11 23 24 42 30
42 5 0 10 8 10 18 0 20 29 66 37 58 3 -3 0 -12 -6 -20z m169 -156 c0 -10 -11
-29 -24 -42 -27 -25 -45 -78 -27 -78 6 0 11 -7 11 -15 0 -8 8 -15 18 -15 15 1
50 46 90 117 11 20 20 24 49 21 51 -4 64 -30 33 -63 -13 -14 -29 -25 -36 -25
-7 0 -21 -13 -31 -30 -9 -16 -20 -30 -23 -30 -18 0 -106 -99 -131 -148 -49
-96 -73 -126 -108 -137 -12 -3 -21 -13 -21 -21 0 -8 -6 -14 -12 -14 -7 0 -33
-14 -57 -30 -24 -17 -48 -30 -53 -30 -14 0 -9 30 6 36 13 5 36 53 36 75 0 17
-30 9 -32 -8 0 -10 -2 -23 -2 -29 -1 -6 -29 -39 -64 -73 -34 -35 -62 -69 -62
-77 0 -9 -4 -13 -9 -10 -11 7 16 66 30 66 5 0 9 7 9 15 0 19 60 114 83 134 10
7 17 19 17 25 0 6 12 13 26 14 14 1 30 4 35 7 5 3 33 58 64 122 30 64 64 123
75 130 11 8 20 19 20 25 0 10 78 108 86 108 2 0 4 -9 4 -20z m383 -33 c-6 -12
-14 -30 -17 -40 -5 -15 -9 -16 -26 -7 -11 6 -20 15 -20 20 0 6 -9 10 -20 10
-11 0 -20 3 -20 8 0 13 59 34 80 27 13 -4 20 -2 20 6 0 7 3 9 7 6 3 -4 2 -17
-4 -30z m-1203 -178 c0 -5 -4 -9 -10 -9 -5 0 -10 7 -10 16 0 8 5 12 10 9 6 -3
10 -10 10 -16z m-23 -51 c-3 -8 -6 -5 -6 6 -1 11 2 17 5 13 3 -3 4 -12 1 -19z
m0 -50 c-3 -7 -5 -2 -5 12 0 14 2 19 5 13 2 -7 2 -19 0 -25z m1358 23 c-15
-14 -55 -23 -55 -13 0 15 12 22 39 22 15 0 21 -4 16 -9z m52 -16 c-13 -27 -30
-28 -35 -3 -3 14 8 21 40 27 3 0 1 -10 -5 -24z m-177 -56 c0 -10 -5 -19 -12
-21 -6 -2 -9 -9 -5 -15 8 -13 98 4 109 20 4 6 10 9 13 5 8 -7 -8 -40 -18 -39
-18 3 -23 -1 -35 -28 -10 -22 -22 -31 -50 -36 -26 -4 -56 -23 -102 -65 -65
-59 -80 -67 -62 -33 9 16 7 18 -14 18 -13 -1 -27 -5 -31 -8 -14 -15 -23 -6
-13 12 15 28 13 54 -4 48 -7 -3 -19 0 -25 6 -8 8 -17 5 -35 -12 -14 -13 -30
-20 -36 -16 -6 4 -19 1 -28 -7 -27 -23 -74 -38 -117 -37 -58 1 -76 -5 -97 -31
-10 -12 -21 -20 -24 -17 -11 11 31 57 64 69 17 7 32 16 32 20 0 4 9 8 20 8 12
0 24 9 29 23 13 31 67 81 81 72 6 -4 20 1 30 10 11 10 26 15 33 12 8 -3 25 2
38 11 35 24 135 49 201 48 48 0 58 -3 58 -17z m-260 -223 c0 -15 -24 -28 -34
-19 -7 7 13 33 25 33 5 0 9 -6 9 -14z m500 -1 c7 -8 19 -15 27 -15 24 0 9 -25
-17 -28 -13 -2 -30 -11 -36 -20 -8 -11 -27 -17 -56 -17 -24 0 -55 -7 -69 -16
-20 -14 -24 -24 -23 -65 l0 -49 -110 0 c-89 0 -116 -4 -136 -18 -13 -9 -35
-17 -48 -17 -21 0 -22 2 -9 20 41 59 142 98 255 100 28 0 33 3 30 22 -2 16
-16 26 -53 39 -27 10 -41 18 -30 18 11 1 36 11 55 23 24 15 59 24 110 28 41 4
80 8 86 8 6 1 17 -5 24 -13z m-578 -31 c12 -12 -6 -45 -27 -50 -13 -3 -33 -17
-46 -30 -12 -13 -31 -24 -42 -24 -15 0 -18 -5 -14 -21 8 -29 -75 -113 -102
-104 -22 7 -38 -12 -23 -27 5 -5 26 -11 45 -13 28 -3 36 1 40 17 4 14 11 19
22 14 9 -3 25 -1 36 4 15 8 19 7 19 -3 0 -35 -78 -60 -175 -57 -49 1 -84 18
-57 27 6 3 12 21 12 41 0 47 8 58 52 81 l37 18 -16 -24 c-24 -37 -3 -49 31
-18 15 14 31 25 37 25 5 0 9 9 9 20 0 11 -7 20 -16 20 -8 0 -13 -4 -10 -9 4
-5 -2 -7 -13 -4 -13 3 -17 11 -14 24 4 13 11 18 20 14 15 -5 66 19 132 63 34
22 53 27 63 16z m-232 -54 c0 -5 -5 -10 -11 -10 -5 0 -7 5 -4 10 3 6 8 10 11
10 2 0 4 -4 4 -10z m724 -185 c3 -8 13 -15 23 -16 23 -1 103 -102 103 -129 0
-16 -5 -19 -22 -15 -13 3 -48 9 -78 14 -30 5 -82 20 -115 34 -45 19 -94 29
-197 38 -76 7 -138 16 -138 20 0 20 208 28 329 13 58 -6 64 -6 58 10 -4 10 -3
15 3 11 6 -3 10 3 10 14 0 24 15 28 24 6z m-857 -21 c24 -23 2 -38 -44 -29
l-38 7 24 19 c28 23 38 24 58 3z m-94 -78 c18 -4 27 -13 27 -26 0 -11 -4 -20
-10 -20 -5 0 -10 9 -10 19 0 17 -6 19 -50 14 -27 -2 -50 -2 -50 1 0 9 42 24
55 21 6 -2 22 -6 38 -9z m237 -18 c0 -4 27 -8 60 -8 33 0 60 -4 60 -8 0 -4 26
-7 58 -7 31 1 80 -5 107 -12 28 -7 68 -13 91 -13 22 0 44 -3 48 -7 4 -4 13 -8
19 -9 7 0 19 -2 27 -3 8 -1 28 -19 43 -41 16 -22 35 -40 43 -40 8 0 14 -4 14
-9 0 -5 11 -23 25 -39 14 -17 21 -33 16 -37 -15 -9 -59 2 -77 19 -9 9 -20 14
-25 10 -6 -3 -15 -2 -22 3 -7 5 -32 16 -57 23 -25 7 -51 18 -57 23 -7 5 -20 7
-28 3 -9 -3 -23 -2 -33 3 -26 14 -150 51 -169 51 -28 0 -123 24 -123 31 0 4
-20 7 -45 7 -82 2 -202 52 -124 52 10 0 19 3 19 8 0 4 29 8 65 8 36 1 65 -3
65 -8z m-970 -78 c0 -5 -4 -10 -9 -10 -6 0 -13 5 -16 10 -3 6 1 10 9 10 9 0
16 -4 16 -10z m733 -29 c17 -17 -2 -28 -50 -26 -43 1 -123 27 -123 39 0 9 164
-4 173 -13z m68 -14 c-1 -12 -15 -9 -19 4 -3 6 1 10 8 8 6 -3 11 -8 11 -12z
m100 -5 c27 -3 40 -11 48 -28 10 -23 9 -24 -28 -24 -22 0 -44 6 -51 15 -9 11
-16 12 -26 4 -22 -18 -35 -2 -22 27 8 17 16 23 27 18 9 -4 32 -9 52 -12z
m-386 -12 c-3 -5 -10 -10 -16 -10 -5 0 -9 5 -9 10 0 6 7 10 16 10 8 0 12 -4 9
-10z m-150 -68 c0 -19 -3 -36 -7 -38 -4 -3 -10 -25 -14 -49 -8 -56 -25 -58
-42 -3 -12 36 -11 43 2 50 10 6 16 23 16 44 0 31 3 35 23 32 18 -2 22 -9 22
-36z m880 7 c5 -5 21 -9 37 -9 15 0 33 -6 40 -13 7 -8 20 -12 30 -9 16 4 60
-11 163 -53 17 -7 38 -16 48 -19 22 -7 19 -35 -6 -50 -15 -9 -21 -7 -32 8 -10
14 -31 21 -70 24 -30 2 -52 8 -49 13 3 5 -6 9 -20 9 -14 0 -28 5 -31 10 -3 6
-13 10 -21 10 -14 0 -174 88 -174 95 0 7 75 -8 85 -16z m-170 -139 c3 -5 1
-10 -4 -10 -6 0 -11 5 -11 10 0 6 2 10 4 10 3 0 8 -4 11 -10z"/>
<path d="M7880 1844 c0 -8 5 -12 10 -9 6 4 8 11 5 16 -9 14 -15 11 -15 -7z"/>
<path d="M7770 1710 c-12 -7 -12 -12 -3 -21 15 -15 26 -7 21 15 -2 11 -7 13
-18 6z"/>
<path d="M8230 1596 c0 -22 26 -26 27 -5 1 11 -5 19 -13 19 -8 0 -14 -6 -14
-14z"/>
<path d="M1660 2709 c-80 -12 -139 -18 -206 -23 -29 -2 -58 -7 -65 -12 -8 -5
-23 -10 -34 -11 -11 -1 -47 -5 -80 -9 -33 -3 -80 -12 -104 -20 -24 -8 -52 -12
-63 -8 -10 3 -24 1 -31 -4 -7 -5 -40 -12 -75 -16 -35 -3 -71 -10 -82 -16 -10
-5 -38 -10 -62 -10 -24 0 -49 -5 -54 -10 -6 -6 -31 -12 -55 -13 -24 -2 -50 -7
-58 -11 -7 -5 -50 -10 -95 -11 -80 -2 -121 -11 -166 -35 -18 -10 -25 -9 -44 9
-18 17 -33 20 -89 18 -63 -3 -69 -5 -86 -32 -10 -17 -21 -49 -25 -73 -6 -40
-4 -47 29 -85 20 -23 38 -53 41 -67 6 -27 17 -57 41 -107 25 -52 37 -115 42
-221 1 -13 5 -20 11 -17 6 4 15 -8 21 -25 8 -22 19 -33 40 -37 16 -3 29 -9 29
-14 0 -5 6 -9 13 -9 7 0 23 -9 35 -21 29 -27 92 -38 92 -16 0 8 11 18 25 21
21 5 25 12 27 49 3 85 -3 163 -14 185 -9 17 -9 31 -1 53 7 17 7 31 2 35 -12 7
-11 102 2 164 11 53 29 70 72 70 14 0 44 7 68 15 24 9 80 18 124 21 74 5 95 9
150 29 23 9 26 9 123 19 l72 8 0 -58 c2 -298 6 -450 14 -456 5 -3 4 -19 -3
-36 -7 -17 -10 -35 -7 -41 4 -5 9 -67 11 -138 3 -70 7 -163 9 -206 1 -43 -1
-80 -6 -83 -5 -3 -6 -14 -3 -25 9 -27 23 -182 30 -329 4 -69 11 -130 17 -137
5 -7 6 -19 1 -30 -5 -10 -8 -55 -7 -100 1 -70 -2 -85 -18 -100 -18 -16 -22
-13 -112 76 -51 51 -101 98 -112 103 -10 6 -34 26 -51 44 -18 19 -37 34 -41
34 -12 0 -102 88 -102 100 0 5 -4 10 -8 10 -4 0 -44 33 -87 74 -44 41 -107 98
-139 128 -108 96 -156 147 -156 163 0 10 -7 15 -18 13 -18 -4 -30 3 -66 39
-18 18 -33 22 -74 20 l-52 -2 0 -57 c0 -31 3 -58 8 -60 10 -4 52 -65 52 -76 0
-5 11 -15 25 -22 13 -7 29 -25 35 -39 21 -50 41 -81 53 -81 7 0 32 -32 56 -70
24 -39 48 -70 52 -70 4 0 11 -9 14 -20 6 -20 102 -120 114 -120 4 0 20 -20 35
-45 16 -25 32 -45 36 -45 4 0 11 -11 14 -25 4 -14 13 -25 21 -25 9 0 20 -11
25 -24 5 -13 18 -27 30 -31 12 -4 25 -18 30 -31 5 -13 15 -24 22 -24 7 0 40
-30 73 -66 33 -37 78 -85 100 -108 22 -23 48 -56 57 -74 11 -20 25 -32 37 -32
11 0 25 -10 32 -22 6 -11 38 -54 70 -94 33 -40 59 -77 59 -82 0 -6 8 -13 18
-16 10 -3 25 -19 35 -35 21 -35 99 -81 138 -81 40 0 77 42 70 83 0 4 6 7 15 7
12 0 14 7 9 30 -5 22 -1 38 15 60 18 26 20 33 9 46 -7 9 -14 43 -15 76 0 33
-5 63 -10 67 -5 3 -10 17 -10 31 -1 14 -8 52 -17 85 -10 32 -17 74 -17 92 0
17 -5 35 -10 38 -6 4 -10 57 -10 128 0 67 -2 147 -6 177 -3 30 -7 78 -9 105
-3 28 -9 86 -16 130 -6 44 -12 109 -14 145 -6 121 -13 195 -31 340 -15 127
-17 166 -15 255 0 11 -2 74 -5 140 -6 142 -6 144 1 215 3 30 5 68 5 83 0 20 5
30 19 34 14 3 18 13 17 36 -1 36 29 56 92 61 139 11 209 20 297 39 55 11 115
21 133 21 17 0 32 2 32 5 0 4 17 6 38 6 49 0 108 29 115 57 4 12 4 24 2 27 -3
2 -5 -1 -5 -7 0 -7 -7 -12 -15 -12 -18 0 -19 12 -4 27 8 8 7 13 -3 19 -18 12
-410 14 -488 3z"/>
<path d="M5166 2428 c-9 -12 -16 -32 -16 -43 0 -11 -6 -29 -14 -40 -7 -11 -19
-37 -25 -57 -10 -31 -10 -42 4 -67 12 -25 13 -36 4 -53 -7 -13 -10 -49 -7 -94
3 -41 3 -76 0 -79 -3 -2 -6 -87 -8 -187 -2 -154 -12 -495 -17 -603 -1 -16 -6
-36 -11 -44 -5 -7 -11 -68 -13 -135 -3 -66 -9 -136 -13 -155 -6 -22 -6 -39 0
-46 6 -7 7 -15 3 -19 -6 -6 -14 -90 -14 -143 1 -12 -3 -24 -7 -27 -11 -7 -6
-102 9 -154 7 -25 22 -50 36 -60 14 -9 32 -25 41 -34 12 -13 20 -14 35 -6 11
5 32 8 48 6 16 -3 29 -1 29 3 0 8 82 49 105 53 5 1 20 7 32 14 12 7 27 12 33
12 7 0 25 9 41 21 43 30 129 59 156 53 18 -5 25 -1 33 20 5 14 16 26 25 26 8
0 15 4 15 9 0 5 14 12 31 16 17 4 42 13 57 21 15 8 33 14 40 14 6 0 12 4 12 9
0 5 13 11 29 14 16 3 36 13 44 22 9 8 22 15 31 15 8 0 18 5 21 10 3 6 17 10
30 10 23 0 34 4 121 49 23 12 58 21 77 21 20 0 39 5 43 11 3 6 19 9 35 5 15
-3 31 -1 34 5 4 5 15 7 26 4 28 -9 87 42 99 86 8 28 6 48 -8 90 -17 50 -21 54
-53 57 -19 2 -39 8 -45 13 -7 5 -30 7 -53 3 -31 -5 -50 -17 -78 -48 -23 -25
-44 -40 -55 -38 -10 2 -30 -6 -45 -18 -17 -13 -38 -20 -60 -18 -19 1 -37 -2
-41 -8 -10 -15 -91 -52 -130 -60 -17 -4 -37 -13 -43 -20 -6 -8 -17 -14 -23
-14 -7 0 -30 -13 -52 -30 -21 -16 -47 -30 -56 -30 -9 0 -20 -5 -23 -10 -4 -6
-10 -8 -15 -5 -4 3 -13 -2 -20 -10 -7 -8 -18 -15 -24 -15 -6 0 -46 -17 -88
-38 -42 -21 -91 -40 -110 -41 -18 -1 -44 -3 -58 -4 l-25 -2 2 135 c1 74 2 174
3 222 1 48 5 90 11 93 5 4 6 13 1 22 -26 45 73 116 113 83 14 -11 17 -10 22 8
5 21 25 30 68 30 11 0 94 5 185 10 138 8 170 7 193 -5 16 -8 35 -12 43 -9 8 3
14 1 14 -4 0 -24 31 -7 36 19 4 16 14 31 24 34 12 3 22 20 28 48 9 43 9 44
-33 84 -26 24 -46 53 -50 71 -3 18 -25 52 -48 76 -23 24 -64 73 -92 109 -27
35 -54 69 -60 75 -5 6 -17 22 -25 34 -8 12 -27 40 -42 61 -16 21 -28 50 -28
63 0 14 -13 35 -32 53 -18 16 -50 55 -71 86 -21 32 -44 60 -52 64 -8 3 -15 10
-15 16 0 5 -20 35 -45 65 -25 30 -45 62 -45 72 0 9 -22 34 -50 56 -27 21 -49
47 -50 56 0 22 -31 39 -59 31 -13 -3 -29 1 -40 11 -18 16 -20 16 -35 -6z m241
-459 c26 -29 56 -60 67 -70 10 -9 15 -22 12 -27 -3 -5 9 -20 28 -33 19 -13 32
-29 29 -36 -3 -6 7 -23 20 -37 14 -14 29 -35 32 -47 4 -12 25 -44 46 -73 45
-59 61 -103 45 -128 -11 -18 -60 -33 -161 -49 -33 -5 -73 -18 -88 -30 -15 -11
-41 -21 -58 -21 -16 -1 -29 -5 -29 -10 0 -4 -4 -8 -10 -8 -10 0 -27 77 -21 95
2 6 5 87 7 180 1 94 6 202 10 240 4 39 7 78 5 88 -4 29 15 19 66 -34z"/>
<path d="M3621 2097 c-24 -12 -53 -37 -65 -54 -12 -18 -36 -38 -53 -44 -18 -6
-36 -16 -40 -23 -5 -7 -24 -20 -44 -29 -29 -13 -40 -27 -55 -69 -26 -72 -21
-101 19 -118 18 -7 35 -14 39 -14 8 -1 62 42 106 84 38 36 48 37 63 8 9 -17 9
-24 -3 -32 -8 -6 -13 -17 -10 -24 2 -7 -3 -33 -12 -59 -9 -26 -16 -67 -16 -93
0 -25 -6 -55 -14 -66 -10 -12 -11 -23 -5 -31 7 -7 6 -13 0 -17 -6 -4 -8 -13
-5 -21 4 -8 -5 -27 -18 -43 -18 -21 -23 -39 -22 -78 0 -27 4 -56 9 -64 5 -7 8
-41 8 -74 0 -40 5 -67 15 -78 13 -15 13 -21 -1 -51 -9 -18 -14 -43 -10 -55 3
-12 0 -28 -6 -35 -6 -8 -13 -40 -16 -72 -3 -33 -12 -67 -20 -76 -20 -21 -19
-36 2 -48 16 -8 16 -12 1 -47 -11 -27 -16 -68 -16 -130 0 -55 -5 -100 -12
-114 -15 -28 -14 -134 1 -161 5 -11 19 -19 30 -19 11 0 29 -5 39 -10 14 -7 31
-6 62 5 24 8 52 15 63 15 24 1 42 15 76 58 24 31 25 37 17 100 -5 37 -13 75
-18 84 -6 11 -6 19 1 24 6 3 9 20 8 38 -2 17 0 37 5 44 4 7 2 19 -4 27 -9 11
-11 45 -6 122 4 60 9 171 12 248 3 76 10 147 15 156 5 10 6 25 3 33 -4 9 -2
22 4 29 6 6 12 23 14 37 2 16 11 26 28 30 15 3 26 14 28 26 6 40 202 217 289
262 36 18 43 19 54 6 7 -8 13 -29 14 -47 2 -42 23 -115 35 -122 6 -3 10 -14
10 -24 0 -10 9 -46 20 -80 11 -34 23 -78 25 -99 2 -20 20 -84 40 -141 19 -57
35 -113 35 -125 0 -12 4 -26 8 -31 5 -6 14 -30 21 -55 7 -25 18 -55 23 -66 6
-12 12 -39 14 -60 5 -60 19 -127 31 -149 6 -11 8 -35 5 -54 -3 -24 0 -36 11
-43 10 -5 19 -29 23 -58 6 -42 10 -50 28 -50 11 0 30 -7 40 -15 31 -23 61 -18
95 17 38 39 39 63 5 134 -18 39 -24 63 -19 82 13 51 6 106 -15 121 -11 7 -20
22 -20 33 0 11 -5 29 -12 41 -7 12 -11 31 -10 43 2 11 -6 42 -18 68 -11 26
-20 61 -20 76 0 16 -4 32 -10 35 -5 3 -10 17 -10 30 0 13 -5 27 -11 31 -6 3
-8 17 -4 31 3 14 2 30 -3 36 -5 7 -12 23 -15 37 -3 14 -10 43 -16 65 -5 22
-12 51 -15 65 -3 14 -15 50 -26 80 -12 30 -26 75 -30 100 -17 89 -31 145 -41
163 -5 10 -7 22 -4 26 16 26 -62 138 -107 154 -10 4 -18 13 -18 21 0 11 -15
14 -60 14 -50 0 -66 -4 -89 -24 -16 -13 -36 -24 -45 -24 -10 0 -16 -9 -16 -23
0 -40 -23 -77 -43 -71 -25 8 -56 -22 -50 -47 4 -15 0 -22 -16 -26 -11 -3 -21
-8 -21 -12 0 -15 -42 -51 -51 -45 -5 3 -16 0 -24 -6 -25 -21 -34 -1 -30 73 3
65 17 121 38 154 9 14 -8 51 -35 74 -10 9 -18 20 -18 25 0 5 -10 21 -23 36
-12 14 -30 36 -39 47 -22 26 -23 26 -77 -2z"/>
<path d="M2952 1982 c-28 -26 -42 -47 -42 -64 0 -36 -20 -90 -41 -114 -11 -11
-19 -32 -19 -46 0 -14 -7 -28 -15 -32 -9 -3 -14 -17 -13 -38 3 -33 -50 -160
-72 -173 -5 -3 -10 -14 -10 -24 0 -10 -7 -24 -15 -31 -17 -14 -45 -67 -45 -87
0 -7 -4 -13 -10 -13 -5 0 -13 -12 -16 -27 -4 -16 -11 -33 -16 -40 -5 -6 -10
-22 -12 -36 -1 -13 -12 -38 -24 -54 -12 -17 -22 -38 -22 -46 0 -8 -7 -17 -14
-20 -8 -3 -18 -23 -22 -44 -3 -21 -11 -42 -18 -48 -13 -11 -32 -50 -41 -82 -3
-12 -19 -33 -36 -47 -16 -14 -29 -32 -29 -40 0 -23 -23 -19 -39 7 -39 61 -141
274 -141 293 0 13 -4 26 -10 29 -5 3 -10 17 -10 31 0 13 -4 24 -10 24 -5 0
-10 5 -10 12 0 7 -14 42 -31 78 -18 36 -41 85 -51 110 -11 25 -26 57 -34 72
-8 14 -14 37 -14 50 0 14 -9 33 -20 43 -18 16 -38 99 -32 132 1 6 -18 23 -44
37 -51 29 -110 34 -139 12 -18 -13 -18 -17 -5 -57 7 -24 18 -50 23 -56 5 -7 7
-19 4 -27 -3 -8 3 -22 13 -31 11 -10 22 -37 26 -61 4 -28 11 -44 20 -44 8 0
14 -5 14 -12 0 -6 6 -19 13 -27 8 -9 21 -38 31 -66 22 -63 47 -115 65 -137 7
-10 17 -34 22 -55 4 -21 11 -51 15 -68 4 -16 13 -38 22 -47 8 -10 12 -18 8
-18 -4 0 0 -7 8 -16 9 -8 16 -22 16 -30 0 -8 18 -57 41 -110 23 -53 42 -114
43 -135 0 -24 6 -39 14 -39 7 0 16 -8 19 -17 4 -10 13 -23 20 -28 8 -6 16 -34
18 -63 2 -30 9 -60 15 -67 7 -8 9 -19 5 -25 -3 -5 2 -10 14 -10 21 0 51 -48
51 -82 0 -13 7 -18 25 -18 14 0 25 -5 25 -10 0 -7 23 -10 61 -8 l61 3 19 55
c10 30 23 63 29 73 9 15 8 23 -6 38 -16 18 -15 20 10 53 15 20 26 48 26 65 0
16 5 33 10 36 13 8 50 84 50 104 1 23 51 79 57 64 2 -7 10 -13 17 -13 7 0 28
-19 47 -41 19 -23 42 -50 52 -60 9 -11 17 -22 17 -26 0 -4 18 -28 41 -55 47
-56 89 -126 89 -149 0 -9 7 -22 15 -29 8 -7 24 -31 36 -55 25 -49 62 -76 81
-57 7 7 23 12 36 12 14 0 35 11 48 26 20 21 23 32 18 67 -7 48 -28 87 -47 87
-16 0 -67 52 -67 68 0 6 -7 15 -16 20 -15 8 -33 35 -53 80 -6 12 -15 22 -21
22 -6 0 -17 15 -25 32 -8 18 -26 47 -40 63 -14 17 -25 38 -25 47 0 10 -13 27
-30 40 -16 12 -30 27 -30 34 0 6 -18 30 -40 53 -27 28 -40 50 -40 69 1 30 21
62 39 62 14 0 15 17 1 25 -15 9 -12 23 10 42 11 10 20 25 20 33 0 9 7 25 15
36 8 10 15 27 15 36 0 10 9 33 20 53 11 20 20 48 20 63 0 15 7 36 15 46 8 11
15 29 15 40 0 12 9 32 20 46 11 14 20 37 20 51 0 15 7 32 16 40 27 22 43 64
42 109 0 25 5 46 11 48 6 2 11 17 11 33 0 32 -51 89 -80 89 -9 0 -35 -17 -58
-38z"/>
</g>
</svg>
