<?xml version="1.0" standalone="no"?>
<!DOCTYPE svg PUBLIC "-//W3C//DTD SVG 20010904//EN"
 "http://www.w3.org/TR/2001/REC-SVG-20010904/DTD/svg10.dtd">
<svg version="1.0" xmlns="http://www.w3.org/2000/svg"
 width="100.000000pt" height="28.030303pt" viewBox="0 0 100.000000 28.030303"
 preserveAspectRatio="xMidYMid meet">
<metadata>
Created by potrace 1.11, written by Peter Selinger 2001-2013
</metadata>
<g transform="translate(0.000000,28.030303) scale(0.015152,-0.015152)"
fill="#000000" stroke="none">
<path d="M4670 1693 c-42 -8 -70 -48 -74 -107 -2 -29 -9 -62 -15 -74 -7 -12
-9 -27 -6 -33 4 -5 0 -20 -8 -33 -8 -12 -24 -51 -35 -87 -11 -35 -30 -86 -42
-114 -23 -53 -23 -54 -35 -125 -4 -24 -11 -51 -15 -60 -4 -8 -17 -33 -28 -55
-23 -45 -47 -135 -57 -212 -5 -41 -11 -53 -24 -53 -10 0 -23 11 -30 24 -16 28
-8 68 26 146 44 100 15 186 -80 234 -30 16 -58 37 -60 47 -6 22 -27 26 -27 4
0 -8 -12 -17 -27 -20 -16 -3 -41 -10 -58 -15 -63 -18 -113 -22 -133 -9 -16 10
-33 10 -89 -3 -37 -9 -87 -13 -111 -11 -35 4 -45 1 -61 -18 -18 -22 -21 -23
-47 -9 -15 8 -40 27 -55 43 -18 17 -39 28 -61 29 -129 6 -221 -28 -313 -116
-33 -32 -68 -64 -77 -73 -28 -25 -68 -121 -69 -166 -2 -68 31 -161 74 -205 50
-51 157 -88 207 -71 28 10 38 9 66 -6 28 -15 49 -17 129 -12 67 4 99 10 111
21 8 9 24 21 35 26 10 6 19 18 19 26 0 8 14 27 31 41 35 30 36 66 2 71 -15 2
-23 10 -23 22 0 17 25 70 49 105 4 6 8 24 9 40 2 17 12 37 23 47 10 9 19 25
19 36 0 26 23 44 52 40 18 -2 23 -9 23 -33 0 -19 -5 -29 -12 -28 -7 2 -14 -5
-14 -15 -1 -9 -3 -26 -4 -37 -1 -11 -2 -30 -3 -43 -1 -12 -13 -32 -27 -44 -14
-12 -25 -32 -25 -47 0 -14 -7 -47 -14 -72 -13 -43 -13 -49 5 -78 10 -17 30
-36 43 -42 32 -15 77 -3 83 21 3 11 11 20 18 20 24 0 45 30 45 63 0 18 7 43
16 55 12 17 14 35 9 68 -5 36 -1 55 19 99 14 29 26 59 26 64 0 17 15 13 34 -8
16 -17 16 -25 6 -56 -7 -20 -21 -44 -32 -55 -16 -15 -20 -32 -21 -92 -2 -99
13 -137 70 -177 40 -29 52 -32 88 -28 61 9 126 47 154 90 l24 37 17 -28 c19
-31 96 -58 190 -66 44 -4 59 -1 75 13 11 10 37 24 57 30 20 7 42 19 48 27 7 7
23 14 36 14 13 0 32 9 42 20 9 11 31 35 49 53 17 17 39 48 47 67 9 19 23 46
30 60 44 77 44 155 1 235 -30 58 -58 80 -111 88 -23 4 -54 13 -69 21 -16 8
-36 11 -47 7 -10 -4 -35 -5 -54 -3 -28 3 -34 8 -34 28 0 13 14 39 31 58 29 34
31 40 36 146 3 61 10 113 15 116 11 7 10 104 -1 104 -5 0 -11 9 -14 20 -3 11
-9 19 -14 19 -4 -1 -19 -4 -33 -6z m-8 -635 c17 -7 33 -6 47 1 16 9 23 8 33
-5 7 -8 23 -25 36 -37 18 -17 21 -27 16 -56 -4 -20 -15 -49 -24 -66 -9 -16
-20 -42 -23 -56 -4 -15 -18 -34 -32 -43 -14 -9 -25 -23 -25 -31 0 -8 -11 -22
-24 -30 -20 -13 -30 -14 -70 -3 -28 7 -48 19 -52 30 -3 10 -9 18 -14 18 -5 0
-13 16 -19 36 -11 40 16 170 38 184 7 4 11 16 9 26 -8 38 44 53 104 32z
m-1094 -271 c4 -20 -43 -87 -60 -87 -6 0 -19 -6 -27 -14 -9 -7 -30 -16 -47
-19 -30 -6 -32 -4 -38 28 -5 26 -12 35 -26 35 -12 0 -20 -7 -21 -17 -3 -47 -4
-48 -34 -45 -39 5 -43 9 -47 57 l-3 40 85 1 c62 1 98 7 135 22 58 24 78 24 83
-1z"/>
<path d="M4630 760 c0 -5 5 -10 10 -10 6 0 10 5 10 10 0 6 -4 10 -10 10 -5 0
-10 -4 -10 -10z"/>
<path d="M702 1625 c-29 -7 -62 -21 -72 -30 -10 -9 -23 -14 -28 -11 -9 5 -52
-37 -52 -51 0 -3 -11 -21 -25 -38 -27 -36 -51 -96 -68 -167 -10 -44 -9 -50 11
-71 20 -21 21 -28 11 -51 -7 -14 -16 -26 -21 -26 -11 0 -10 -41 3 -78 11 -33
55 -62 94 -62 37 0 71 -35 85 -87 6 -26 18 -65 26 -87 25 -66 -4 -175 -61
-224 -38 -33 -66 -41 -144 -43 -50 -1 -75 3 -94 16 -15 9 -27 21 -27 25 0 5
-19 18 -43 30 -43 21 -44 22 -83 3 -71 -33 -53 -103 38 -146 20 -9 47 -17 61
-17 14 0 39 -6 57 -13 45 -20 177 -10 209 14 13 11 33 19 44 19 26 0 120 63
146 98 12 15 26 34 33 42 21 23 40 72 48 120 4 25 13 59 20 76 12 27 10 39
-15 105 -18 46 -41 86 -62 106 -18 17 -33 37 -33 43 0 6 -12 23 -27 38 -15 15
-38 47 -51 72 -13 25 -29 50 -36 55 -21 17 -28 54 -21 111 6 50 9 55 35 61 16
3 31 11 34 19 10 25 120 18 172 -11 50 -28 71 -30 96 -11 18 13 38 57 38 82 0
63 -181 117 -298 89z"/>
<path d="M2774 1460 c-38 -18 -43 -25 -64 -92 -12 -40 -27 -78 -32 -85 -5 -7
-7 -16 -4 -21 3 -6 -1 -15 -9 -22 -8 -7 -15 -22 -15 -35 0 -43 -31 -57 -117
-54 -106 3 -152 -7 -165 -37 -8 -17 -8 -31 0 -48 19 -42 98 -53 210 -30 13 2
22 0 22 -7 0 -23 -34 -89 -45 -89 -7 0 -29 -21 -50 -48 -38 -46 -85 -87 -150
-127 -17 -11 -39 -28 -48 -37 -9 -9 -30 -19 -47 -23 -44 -10 -55 -36 -28 -71
31 -40 38 -44 81 -44 25 0 43 6 55 21 21 25 118 73 132 64 5 -3 10 -12 10 -19
0 -26 116 -97 202 -125 27 -9 43 -9 57 -2 11 6 58 12 104 14 47 1 91 8 99 15
27 22 51 78 45 103 -7 28 -52 49 -90 42 -19 -4 -27 0 -32 17 -8 25 -41 23 -38
-4 1 -18 -11 -25 -92 -50 -50 -15 -81 -8 -72 18 2 6 -5 28 -16 48 l-19 38 22
37 c20 34 28 67 33 133 2 26 52 59 90 60 10 0 27 5 38 11 16 8 23 7 32 -5 32
-41 129 41 112 95 -6 18 -57 49 -81 49 -7 0 -22 14 -34 30 -25 35 -22 62 12
106 20 25 41 69 54 114 2 8 -6 27 -19 41 -31 37 -89 45 -143 19z"/>
<path d="M4501 1398 c0 -18 3 -26 6 -18 3 8 12 19 20 23 16 10 8 27 -13 27 -9
0 -14 -11 -13 -32z"/>
<path d="M6160 1210 c-7 -5 -48 -6 -90 -4 l-77 5 -6 -30 c-5 -23 -14 -32 -34
-37 -33 -8 -45 -23 -37 -47 3 -10 -5 -30 -20 -48 -14 -17 -26 -41 -26 -54 0
-23 -11 -36 -108 -129 -29 -27 -52 -56 -52 -63 0 -14 -26 -28 -72 -37 -14 -3
-40 -18 -57 -32 -17 -14 -46 -28 -66 -31 -30 -5 -39 -2 -51 16 -11 15 -20 19
-27 12 -7 -5 -34 -11 -61 -13 -43 -3 -49 0 -57 20 -9 23 -8 24 31 17 33 -5 40
-4 40 9 0 9 12 18 28 22 15 4 32 9 37 13 6 3 12 6 15 7 51 10 117 63 188 149
39 46 38 133 -1 178 -32 37 -139 71 -202 63 -120 -14 -129 -17 -171 -60 -22
-22 -63 -59 -91 -81 -35 -28 -54 -52 -62 -77 -7 -21 -15 -38 -19 -38 -5 0 -14
-16 -21 -36 -10 -27 -10 -46 -3 -78 6 -22 14 -58 17 -78 3 -21 10 -38 15 -38
6 0 10 -5 10 -11 0 -6 10 -25 22 -42 13 -18 21 -34 20 -37 -2 -2 2 -6 9 -9 7
-2 9 1 5 8 -12 20 11 12 42 -14 17 -14 39 -25 51 -25 11 0 39 -7 61 -16 26
-11 54 -14 82 -10 58 8 59 8 90 0 19 -4 32 -1 44 10 9 10 24 14 35 11 10 -3
31 1 48 9 16 9 38 15 48 14 54 -4 75 4 116 46 24 24 57 47 74 50 21 5 34 17
44 39 8 18 20 32 27 32 8 0 20 9 28 20 13 17 16 18 24 5 13 -20 30 -80 30
-106 0 -35 30 -83 63 -101 24 -13 55 -17 123 -17 79 1 97 4 148 30 41 20 64
40 79 66 l21 38 -21 27 c-16 23 -29 29 -69 31 -27 2 -65 -2 -85 -8 -33 -11
-39 -10 -59 10 -18 18 -20 26 -11 51 6 17 19 42 31 56 11 14 20 34 20 45 0 10
7 21 15 24 16 7 31 48 40 114 8 58 -15 120 -53 142 -34 19 -94 29 -112 18z
m-77 -182 c2 -7 1 -20 -3 -28 -5 -8 -10 -30 -13 -48 -6 -36 -20 -58 -49 -73
-15 -8 -18 -6 -18 15 0 13 6 31 13 38 23 23 39 59 33 75 -3 8 -4 19 0 24 8 13
32 11 37 -3z"/>
<path d="M1354 1145 c-4 -8 -17 -15 -31 -15 -65 0 -184 -53 -207 -92 -10 -15
-22 -28 -27 -28 -12 0 -48 -40 -49 -54 0 -5 -10 -30 -21 -55 -12 -25 -26 -56
-32 -68 -12 -26 -2 -124 16 -156 6 -12 24 -35 39 -52 14 -16 28 -39 30 -50 2
-14 11 -20 32 -20 15 -1 34 -9 41 -18 6 -9 14 -14 18 -11 3 3 19 -2 36 -10 16
-9 47 -16 68 -16 21 0 56 -5 78 -11 29 -8 40 -8 43 0 2 6 19 11 39 11 20 0 46
9 60 20 52 40 75 16 51 -53 -27 -75 -38 -141 -37 -222 1 -44 -1 -91 -5 -105
-9 -36 32 -80 74 -80 50 0 83 24 104 75 18 45 18 47 0 88 -26 58 -25 188 2
237 10 19 21 45 24 58 l5 23 48 -25 c52 -28 100 -33 144 -14 15 7 33 13 38 13
6 1 23 7 38 13 16 7 37 12 47 12 11 0 27 11 36 25 9 13 24 27 34 30 10 3 21
17 24 30 3 14 24 42 45 63 22 22 45 57 52 80 7 23 18 47 26 53 33 28 5 190
-38 226 -26 21 -112 63 -129 63 -9 0 -20 3 -23 7 -15 14 -87 13 -116 -2 -17
-8 -39 -15 -51 -15 -11 0 -20 -5 -20 -10 0 -6 -16 -8 -41 -4 -52 9 -113 -11
-129 -42 -9 -15 -10 -40 -5 -76 7 -49 7 -81 2 -163 -1 -17 -14 -43 -29 -60
-16 -16 -28 -36 -28 -44 0 -10 -10 -12 -45 -7 -43 7 -81 -4 -96 -27 -8 -11
-88 -29 -139 -30 -55 -1 -172 21 -180 34 -13 20 2 49 29 55 14 3 35 9 46 14
41 18 66 21 79 11 10 -8 21 -7 42 4 16 8 37 15 47 15 10 0 28 10 41 23 13 12
36 30 52 39 16 9 36 30 44 46 9 17 24 42 33 56 22 33 10 92 -27 136 -14 18
-26 36 -26 41 0 5 -8 9 -19 9 -10 0 -30 9 -44 20 -31 25 -105 28 -113 5z m610
-177 c5 -10 7 -10 12 0 9 18 28 15 42 -9 18 -29 17 -147 -2 -184 -9 -17 -16
-39 -16 -51 0 -28 -57 -78 -107 -94 -36 -11 -46 -11 -76 4 -19 9 -37 23 -41
31 -3 8 -13 15 -22 15 -13 0 -15 6 -10 28 10 39 67 152 77 152 5 0 9 10 9 23
0 26 29 57 75 81 36 19 51 20 59 4z"/>
</g>
</svg>
