<?xml version="1.0" standalone="no"?>
<!DOCTYPE svg PUBLIC "-//W3C//DTD SVG 20010904//EN"
 "http://www.w3.org/TR/2001/REC-SVG-20010904/DTD/svg10.dtd">
<svg version="1.0" xmlns="http://www.w3.org/2000/svg"
 width="100.000000pt" height="66.666667pt" viewBox="0 0 100.000000 66.666667"
 preserveAspectRatio="xMidYMid meet">
<metadata>
Created by potrace 1.11, written by Peter Selinger 2001-2013
</metadata>
<g transform="translate(0.000000,66.666667) scale(0.018519,-0.018519)"
fill="#000000" stroke="none">
<path d="M3130 3536 c-14 -8 -38 -22 -55 -31 -30 -16 -105 -115 -105 -139 0
-8 -7 -19 -15 -26 -8 -7 -15 -21 -15 -31 0 -10 -5 -21 -10 -24 -8 -5 -8 -11 0
-19 9 -12 6 -62 -8 -96 -7 -19 -12 -73 -17 -170 -2 -41 -6 -131 -10 -200 -4
-69 -9 -204 -11 -300 -7 -275 -9 -300 -22 -309 -9 -6 -7 -12 8 -26 11 -10 20
-30 20 -45 0 -14 6 -32 13 -39 8 -8 12 -52 12 -142 0 -113 3 -132 18 -140 9
-6 17 -17 17 -26 0 -8 16 -49 36 -89 44 -90 41 -116 -22 -176 -24 -24 -44 -47
-44 -52 0 -15 -34 -35 -60 -36 -14 0 -38 -7 -54 -15 -15 -8 -35 -15 -44 -15
-19 0 -72 49 -72 66 0 6 -7 14 -15 18 -8 3 -15 11 -15 17 0 7 -7 20 -15 29 -8
9 -17 30 -20 46 -2 16 -8 47 -12 69 -12 58 -8 323 6 381 6 27 12 77 14 111 2
33 9 68 16 77 10 12 11 23 2 47 -6 18 -11 41 -11 51 0 10 -5 24 -11 31 -5 7
-18 28 -27 47 -15 32 -21 35 -57 34 -58 -1 -115 -13 -115 -25 0 -5 -13 -22
-30 -37 -41 -37 -58 -107 -42 -167 6 -24 9 -51 6 -60 -4 -9 -1 -27 6 -41 10
-18 11 -30 2 -49 -6 -14 -9 -31 -6 -39 10 -26 -15 -124 -44 -172 -16 -27 -32
-61 -36 -76 -3 -15 -20 -38 -36 -50 -17 -12 -30 -27 -30 -32 -1 -14 -35 -56
-46 -56 -4 0 -15 -7 -25 -16 -37 -33 -46 -16 -80 156 -5 25 -12 104 -15 175
-5 113 -3 140 15 207 37 136 28 196 -39 255 -44 39 -118 26 -140 -26 -7 -17
-16 -28 -21 -26 -11 7 -42 -41 -45 -68 -3 -30 -11 -65 -19 -77 -11 -18 -16
-78 -7 -84 5 -3 8 -110 7 -238 -2 -149 1 -240 8 -253 6 -11 16 -62 23 -113 8
-66 17 -99 31 -115 23 -25 49 -70 63 -109 6 -18 17 -28 29 -28 10 0 21 -7 25
-15 6 -17 81 -21 91 -5 3 6 17 10 31 10 13 0 24 4 24 9 0 5 9 7 20 4 34 -9 88
6 95 27 3 10 14 21 23 24 15 5 42 31 142 132 l24 25 13 -37 c7 -21 20 -45 28
-54 8 -9 15 -22 15 -28 0 -58 152 -212 209 -212 9 0 31 -9 49 -20 42 -26 55
-25 100 5 20 14 60 32 87 41 55 16 118 66 129 101 4 12 15 25 25 28 18 5 71
76 71 94 0 21 26 30 51 18 32 -16 170 -15 236 2 34 8 68 26 97 52 24 21 50 39
58 39 22 0 62 49 93 114 16 33 36 61 46 63 11 3 19 9 19 14 0 13 80 -63 95
-91 9 -18 31 -31 74 -44 34 -11 61 -23 61 -28 0 -19 152 8 212 37 14 7 29 11
31 8 3 -2 3 -48 1 -101 -2 -53 -4 -111 -4 -128 0 -16 -9 -40 -20 -52 -11 -12
-20 -25 -20 -30 0 -5 -24 -21 -53 -35 -29 -13 -59 -32 -66 -41 -7 -9 -18 -16
-23 -16 -5 0 -24 -11 -41 -24 -18 -13 -49 -29 -69 -36 -21 -6 -38 -15 -38 -20
0 -13 -81 -90 -95 -90 -7 0 -20 -18 -29 -40 -9 -22 -20 -40 -25 -40 -16 0 -68
-58 -75 -83 -5 -23 -60 -114 -89 -147 -19 -23 -37 -61 -32 -69 2 -4 -3 -18
-12 -31 -23 -32 -28 -213 -7 -231 8 -6 14 -22 14 -35 0 -13 5 -24 10 -24 6 0
10 -11 10 -24 0 -33 31 -85 54 -92 11 -4 34 -22 52 -40 20 -22 41 -34 57 -34
14 0 38 -5 54 -11 40 -16 91 -28 144 -35 41 -5 59 1 172 56 70 33 127 65 127
70 0 6 9 10 20 10 12 0 20 7 20 16 0 9 20 58 45 110 40 83 46 105 56 201 10
106 34 247 46 265 3 5 7 62 9 126 5 136 7 154 16 167 3 6 6 27 5 47 -1 49 20
88 49 88 12 0 24 7 28 15 3 8 13 15 23 15 10 0 34 22 53 47 46 62 140 163 152
163 16 0 118 93 118 107 0 7 4 13 8 13 4 0 15 12 24 28 9 15 30 41 47 57 17
17 31 36 31 43 0 7 14 26 30 44 17 17 33 43 36 57 14 63 94 211 114 211 15 0
32 71 26 108 -3 20 -1 41 6 49 7 9 7 17 0 26 -6 6 -11 15 -11 20 -5 49 -91
157 -125 157 -22 0 -64 -39 -98 -92 -14 -21 -24 -120 -27 -265 -1 -13 -14 -36
-31 -51 -16 -16 -30 -34 -30 -40 0 -6 -8 -16 -19 -21 -10 -6 -24 -24 -31 -41
-7 -16 -18 -30 -25 -30 -7 0 -17 -12 -23 -27 -5 -16 -19 -39 -31 -52 -11 -13
-21 -28 -21 -33 0 -12 -63 -67 -77 -68 -7 0 -13 -7 -13 -15 0 -18 -127 -145
-144 -145 -7 0 -17 -5 -24 -12 -7 -7 -12 -10 -13 -7 0 2 -2 56 -5 119 -2 63
-4 122 -5 130 -3 27 11 233 22 330 11 95 18 137 39 219 13 54 6 155 -15 205
-28 66 -117 96 -151 50 -7 -9 -25 -14 -46 -12 -18 1 -39 -2 -46 -6 -28 -17
-61 -123 -46 -148 9 -14 9 -167 0 -189 -4 -9 -2 -36 3 -60 11 -50 6 -153 -8
-193 -6 -14 -9 -26 -6 -26 2 0 -22 -27 -53 -60 -62 -65 -80 -70 -129 -40 -53
32 -66 62 -71 163 -5 106 -5 95 3 212 4 49 13 104 21 123 17 41 18 79 3 84 -6
2 -12 20 -13 39 -1 38 -43 109 -63 109 -7 0 -13 4 -13 10 0 6 -9 6 -22 1 -13
-4 -40 -9 -61 -9 -49 -2 -91 -41 -106 -99 -7 -23 -16 -45 -21 -48 -9 -5 -5
-174 5 -183 3 -3 0 -11 -6 -18 -7 -9 -7 -19 0 -32 8 -15 7 -31 -3 -60 -8 -22
-17 -66 -21 -98 -9 -83 -14 -94 -37 -94 -17 0 -20 -5 -16 -32 5 -34 -16 -98
-32 -98 -5 0 -20 -16 -32 -35 -13 -19 -29 -35 -35 -35 -7 0 -13 -6 -13 -14 0
-7 -10 -16 -22 -19 -13 -3 -46 -15 -75 -28 -52 -22 -53 -22 -73 -4 -27 24 -22
60 20 170 26 69 40 125 40 161 0 24 6 47 14 53 8 7 14 20 14 29 -1 9 6 41 15
71 10 30 17 72 17 92 0 21 5 41 11 45 6 3 9 18 6 33 -3 14 0 58 8 96 7 39 13
86 13 105 0 19 4 69 8 110 12 105 8 302 -6 380 -15 82 -18 102 -24 222 -4 71
-11 106 -26 133 -11 19 -20 40 -20 45 0 11 -59 109 -76 128 -7 6 -16 12 -20
12 -4 0 -12 7 -19 17 -17 22 -112 29 -145 9z m105 -380 c32 -14 33 -16 22 -45
-9 -26 -7 -37 17 -87 23 -46 26 -61 17 -78 -8 -14 -9 -36 -2 -70 5 -28 7 -64
5 -80 -2 -17 -6 -56 -9 -86 -11 -128 -23 -197 -39 -228 -9 -18 -14 -41 -11
-51 6 -20 -20 -102 -36 -111 -5 -4 -12 -38 -15 -75 -3 -45 -11 -76 -21 -88
-14 -15 -15 -22 -5 -37 17 -28 15 -110 -4 -131 -8 -9 -17 -32 -19 -51 -3 -39
-14 -68 -25 -68 -13 0 -22 62 -35 228 -2 35 -7 68 -11 73 -9 15 -13 273 -4
279 5 3 2 23 -6 45 -12 31 -13 67 -8 160 4 66 8 156 9 200 6 173 30 283 68
307 19 12 75 9 112 -6z m990 -2186 c8 -45 -1 -175 -17 -240 -5 -25 -12 -74
-13 -108 -2 -56 -15 -95 -46 -152 -5 -8 -18 -31 -28 -51 -35 -64 -143 -149
-189 -149 -23 0 -42 19 -42 42 0 11 -13 27 -29 36 -38 22 -42 37 -25 114 7 35
13 80 14 101 0 20 4 45 9 55 4 9 26 52 47 95 45 92 99 154 169 193 28 15 55
32 60 38 6 6 19 16 30 22 11 7 20 18 19 26 -1 8 7 15 17 15 13 1 19 -8 24 -37z"/>
<path d="M956 3435 c-14 -6 -35 -20 -48 -32 -13 -11 -39 -29 -58 -38 -38 -20
-65 -46 -86 -86 -7 -15 -20 -29 -29 -32 -8 -4 -15 -15 -15 -25 0 -11 -12 -50
-26 -88 -15 -42 -23 -77 -19 -92 4 -16 0 -31 -10 -43 -10 -10 -14 -23 -10 -29
4 -6 2 -17 -4 -24 -7 -8 -12 -27 -12 -42 -1 -63 14 -220 22 -230 5 -6 3 -16
-4 -23 -9 -10 -9 -15 4 -24 9 -7 18 -30 22 -51 3 -21 19 -57 34 -80 16 -24 28
-55 28 -75 0 -22 6 -37 19 -45 24 -14 66 -55 66 -64 0 -4 9 -14 21 -22 11 -8
30 -32 40 -53 11 -21 30 -42 42 -47 12 -6 34 -19 48 -31 14 -11 41 -22 60 -23
36 -3 106 -24 126 -39 20 -14 23 10 4 34 -10 13 -16 30 -13 38 2 8 0 11 -6 7
-6 -3 -13 13 -17 39 -5 38 -16 55 -66 105 -58 58 -79 87 -121 168 -12 23 -26
42 -30 42 -4 0 -8 7 -8 16 0 9 -6 30 -14 47 -20 48 -43 119 -45 142 -19 241
-3 318 80 393 29 26 58 46 63 44 6 -2 20 -4 31 -5 11 0 26 -5 33 -10 6 -5 12
-7 12 -4 0 12 73 -25 97 -49 13 -13 40 -31 59 -39 19 -8 37 -22 41 -32 4 -10
22 -34 41 -53 33 -34 102 -166 102 -195 0 -8 4 -15 8 -15 14 0 34 -80 43 -168
4 -51 13 -90 23 -101 16 -18 26 -187 11 -210 -4 -7 -7 -64 -6 -125 1 -83 -3
-120 -14 -143 -8 -17 -20 -77 -25 -133 -5 -57 -14 -108 -19 -114 -5 -6 -11
-22 -13 -36 -3 -24 -4 -24 -20 9 -11 21 -16 45 -12 66 4 27 1 35 -15 40 -11 3
-23 14 -26 25 -3 10 -17 21 -30 24 -13 3 -36 17 -51 31 -21 19 -34 24 -69 21
-24 -2 -47 -6 -53 -10 -6 -3 -17 -3 -25 0 -8 3 -18 1 -21 -5 -4 -6 -13 -8 -20
-5 -7 3 -18 -1 -25 -9 -7 -9 -26 -13 -53 -11 -31 3 -46 -1 -59 -15 -11 -11
-26 -17 -37 -14 -11 2 -23 0 -26 -6 -4 -6 -15 -11 -25 -11 -31 0 -71 -24 -71
-44 0 -12 -5 -16 -14 -13 -9 4 -25 -7 -39 -26 -14 -18 -50 -59 -81 -91 -31
-33 -56 -68 -56 -79 0 -10 -14 -40 -31 -65 -18 -26 -38 -64 -45 -85 -8 -22
-30 -62 -51 -89 -32 -44 -36 -58 -38 -112 0 -34 -5 -68 -10 -76 -5 -9 -4 -15
3 -18 7 -2 9 -9 5 -15 -6 -11 -13 -46 -13 -77 -1 -36 27 -128 48 -157 12 -17
25 -52 28 -77 4 -25 10 -46 14 -46 4 0 13 -13 20 -29 6 -16 31 -42 53 -57 23
-15 46 -33 50 -41 4 -7 37 -27 73 -43 51 -24 68 -28 84 -20 13 7 26 7 38 1 30
-16 164 -31 183 -20 10 5 24 6 32 3 14 -5 97 43 140 80 9 9 26 16 36 16 10 0
21 7 25 15 3 8 11 15 18 15 7 0 31 16 52 35 22 19 42 35 45 35 13 0 101 91
101 104 0 7 14 32 30 55 17 23 28 46 25 51 -3 5 3 30 15 54 11 25 20 51 20 59
0 7 7 22 15 33 8 10 15 27 15 38 0 10 15 64 34 120 33 99 44 148 52 234 2 23
8 50 13 60 5 9 12 38 16 65 4 26 12 47 17 47 5 0 7 4 4 9 -3 4 1 47 10 95 8
47 14 107 12 133 -1 27 1 101 5 166 5 71 3 142 -3 175 -5 32 -12 77 -14 102
-2 25 -9 81 -16 124 -6 44 -9 88 -6 100 3 11 1 25 -4 31 -5 6 -12 42 -16 80
-6 57 -18 92 -64 185 -32 63 -63 139 -69 168 -7 35 -24 69 -52 105 -23 28 -45
62 -50 74 -4 12 -27 35 -50 50 -23 15 -47 31 -53 35 -136 91 -291 129 -380 93z
m379 -1992 c-4 -27 -8 -58 -10 -69 -4 -29 -19 -55 -44 -78 -12 -11 -21 -22
-21 -27 0 -13 -53 -89 -63 -89 -14 0 -86 -71 -118 -117 -17 -25 -38 -43 -49
-43 -10 0 -31 -5 -47 -12 -15 -7 -32 -12 -38 -13 -5 0 -21 -8 -35 -17 -38 -24
-103 -30 -135 -14 -25 13 -28 21 -32 82 -6 92 14 141 81 199 29 25 60 45 69
45 8 0 24 11 34 23 10 14 35 27 56 31 21 4 43 16 50 26 6 11 19 20 29 20 9 0
20 5 23 10 4 7 13 7 25 0 15 -8 30 -6 62 10 27 13 53 18 70 15 21 -5 30 -1 43
19 10 14 21 24 25 21 4 -3 10 2 14 10 12 31 18 13 11 -32z"/>
<path d="M4058 3 c17 -2 47 -2 65 0 17 2 3 4 -33 4 -36 0 -50 -2 -32 -4z"/>
</g>
</svg>
