<?xml version="1.0" standalone="no"?>
<!DOCTYPE svg PUBLIC "-//W3C//DTD SVG 20010904//EN"
 "http://www.w3.org/TR/2001/REC-SVG-20010904/DTD/svg10.dtd">
<svg version="1.0" xmlns="http://www.w3.org/2000/svg"
 width="100.000000pt" height="29.830508pt" viewBox="0 0 100.000000 29.830508"
 preserveAspectRatio="xMidYMid meet">
<metadata>
Created by potrace 1.11, written by Peter Selinger 2001-2013
</metadata>
<g transform="translate(0.000000,29.830508) scale(0.011299,-0.011299)"
fill="#000000" stroke="none">
<path d="M1329 2556 c-2 -2 -76 -7 -164 -10 -88 -3 -187 -8 -220 -11 -33 -3
-91 -2 -130 2 -50 6 -81 5 -110 -5 -43 -15 -109 -9 -133 10 -11 10 -16 8 -24
-6 -6 -10 -26 -36 -44 -56 -36 -40 -44 -79 -19 -100 8 -7 13 -16 10 -20 -3 -4
2 -10 10 -14 17 -6 20 -42 4 -51 -7 -5 -8 -25 -4 -56 5 -33 3 -54 -5 -64 -7
-8 -9 -22 -6 -32 4 -9 9 -53 12 -97 4 -53 12 -92 25 -114 10 -18 19 -44 19
-57 0 -13 4 -26 9 -29 5 -3 12 -52 16 -108 7 -96 9 -104 37 -130 52 -49 80
-30 77 51 -1 29 3 57 9 63 7 7 12 19 12 28 0 9 9 25 20 35 11 10 20 28 20 41
0 13 5 36 12 51 16 39 124 139 176 164 23 11 42 24 42 29 0 4 15 13 33 21 17
7 43 21 57 30 14 9 44 20 68 23 24 4 66 18 95 32 37 18 71 27 117 28 39 2 90
12 127 26 35 13 65 21 69 18 8 -9 8 -162 0 -298 -4 -63 -9 -171 -11 -240 -2
-69 -13 -183 -25 -255 -12 -71 -24 -148 -27 -170 -3 -22 -12 -48 -20 -57 -10
-11 -13 -28 -10 -45 14 -70 -135 -402 -180 -403 -7 0 -13 -6 -13 -14 0 -7 -14
-24 -32 -37 -17 -13 -36 -28 -43 -34 -16 -14 -48 -34 -65 -41 -8 -3 -26 -11
-40 -19 -71 -37 -293 -80 -365 -70 -22 3 -63 7 -92 9 -46 3 -133 39 -141 59
-2 4 -12 7 -22 7 -26 0 -71 59 -60 80 8 14 -3 48 -20 60 -8 5 -41 114 -39 127
5 29 -4 57 -26 77 -14 13 -25 28 -25 33 0 16 -48 56 -59 49 -5 -4 -17 -32 -27
-64 -13 -45 -15 -79 -10 -162 6 -102 8 -108 62 -217 30 -61 68 -131 84 -155
16 -24 30 -48 30 -54 0 -7 9 -14 20 -17 11 -3 27 -21 35 -41 11 -25 22 -36 36
-36 21 0 45 -17 131 -92 24 -21 49 -38 56 -38 6 0 12 -7 12 -15 0 -20 38 -40
85 -43 69 -4 79 -4 120 2 64 9 71 11 161 51 29 13 66 26 84 30 47 10 130 56
130 71 0 7 14 23 30 36 17 12 30 28 30 35 0 8 6 16 14 19 8 3 16 14 19 25 3
12 14 19 30 19 14 0 27 7 31 15 3 8 15 15 26 15 27 0 60 17 60 31 0 6 11 20
25 31 14 11 25 25 25 31 0 7 20 51 43 98 24 48 47 97 52 110 29 91 36 126 41
222 4 59 10 107 13 107 3 0 7 26 8 58 1 31 6 70 12 85 6 16 11 50 11 77 0 37
5 52 20 63 18 12 18 15 4 35 -12 17 -13 32 -6 70 5 27 5 78 1 113 -4 35 -5 68
-2 72 3 5 -1 13 -8 18 -14 8 -21 165 -21 483 0 140 6 151 82 142 25 -3 78 -8
119 -11 40 -2 79 -10 86 -15 9 -8 15 -8 20 0 15 25 113 3 184 -42 25 -15 52
-28 60 -28 29 0 41 -16 67 -91 16 -46 34 -81 50 -92 13 -10 24 -23 24 -29 0
-18 44 -102 57 -111 7 -4 13 -19 13 -32 0 -58 52 -134 77 -114 7 6 13 17 13
25 0 7 14 14 33 16 25 2 33 8 35 26 2 13 13 27 26 31 41 16 49 36 35 78 -16
45 -18 108 -6 183 5 30 10 80 12 110 10 147 16 175 42 202 20 21 24 32 18 57
-7 31 -46 61 -80 61 -8 0 -15 4 -15 9 0 12 -237 14 -245 1 -8 -13 -138 -12
-235 1 -41 6 -142 13 -225 15 -175 6 -139 6 -390 0 -110 -2 -205 0 -211 5 -6
5 -13 7 -15 5z"/>
<path d="M2998 2522 c-7 -10 -20 -21 -29 -24 -21 -8 -35 -93 -19 -113 8 -10 9
-25 4 -42 -4 -16 -8 -48 -9 -73 -4 -97 -25 -403 -30 -448 -4 -26 -8 -92 -9
-147 -2 -55 -8 -127 -13 -160 -12 -70 -7 -398 7 -459 5 -22 10 -72 10 -111 1
-119 37 -395 54 -414 9 -10 16 -22 16 -27 0 -32 71 -144 91 -144 10 0 69 -56
69 -67 0 -4 33 -8 73 -7 45 1 80 -4 94 -12 15 -9 23 -10 25 -2 3 8 10 8 25 -1
26 -13 119 -15 127 -2 3 5 18 12 33 16 15 3 33 15 41 27 10 14 21 18 38 14 41
-11 172 82 174 122 0 6 4 12 9 12 13 0 77 92 107 153 14 29 38 77 54 107 27
51 50 114 55 150 2 16 29 84 45 112 6 10 10 35 10 55 0 21 7 72 15 113 9 41
18 93 21 115 3 22 12 58 19 80 7 22 16 70 20 107 3 37 10 70 15 73 5 3 18 47
30 98 12 50 25 97 29 102 5 6 9 27 9 47 1 21 8 50 15 65 8 16 17 46 21 68 4
22 11 54 17 70 26 82 77 310 85 379 6 59 -13 134 -37 141 -23 7 -103 8 -156 1
-27 -4 -43 -2 -43 5 0 6 -9 8 -20 4 -11 -3 -30 1 -46 11 -20 14 -30 15 -44 6
-10 -6 -27 -8 -38 -5 -11 3 -27 0 -34 -6 -7 -7 -22 -18 -33 -26 -17 -12 -21
-29 -27 -142 -15 -260 -25 -400 -37 -493 -6 -52 -15 -210 -21 -350 -10 -276
-12 -297 -35 -416 -8 -43 -15 -97 -15 -119 0 -59 -40 -234 -64 -281 -12 -23
-34 -68 -51 -100 -16 -33 -37 -65 -45 -72 -25 -21 -84 -43 -102 -39 -10 3 -16
0 -15 -7 1 -6 -5 -11 -14 -11 -8 0 -26 -7 -40 -15 -24 -16 -107 -18 -209 -6
-46 5 -80 32 -80 64 0 8 -7 23 -16 33 -14 15 -18 57 -14 139 1 8 -4 44 -10 80
-7 36 -16 108 -20 160 -5 52 -15 136 -23 185 -9 53 -11 97 -6 106 5 9 11 49
13 88 5 74 35 147 64 153 10 2 16 20 19 56 2 30 14 72 26 95 12 23 22 46 23
52 0 5 2 18 2 28 1 9 9 17 18 17 12 0 14 7 9 29 -7 32 5 62 37 97 14 16 21 46
29 130 15 159 25 209 63 298 18 42 13 110 -10 137 -8 8 -19 30 -25 47 -8 24
-17 32 -35 32 -24 0 -31 3 -92 34 -19 10 -49 16 -71 15 -23 -2 -48 4 -64 14
-33 22 -43 21 -59 -1z"/>
<path d="M7010 2473 c0 -7 -4 -13 -8 -13 -5 0 -14 -30 -20 -67 -24 -137 -69
-339 -81 -360 -6 -13 -14 -58 -17 -100 -4 -43 -13 -103 -20 -133 -8 -30 -14
-70 -14 -90 0 -19 -5 -53 -11 -75 -7 -22 -11 -64 -10 -93 1 -30 -2 -59 -7 -65
-5 -7 -8 -32 -8 -57 1 -25 -2 -50 -6 -56 -5 -7 -10 -54 -13 -105 -8 -179 -14
-249 -24 -267 -13 -24 -32 -192 -25 -219 4 -13 3 -31 -1 -40 -5 -10 -7 -22 -5
-28 7 -26 -2 -101 -14 -120 -7 -11 -17 -41 -21 -65 -4 -25 -16 -69 -27 -99
-18 -46 -18 -55 -6 -68 13 -12 20 -12 57 7 22 12 43 26 46 31 3 4 13 5 21 2 9
-3 20 0 25 8 8 12 10 12 18 -1 8 -12 12 -12 29 3 10 9 27 17 37 17 10 0 26 6
34 13 18 15 155 38 211 36 19 -1 86 0 149 0 93 2 117 -1 132 -15 15 -14 23
-14 51 -4 18 6 103 14 188 16 277 9 315 11 345 17 17 4 46 9 65 11 20 1 46 8
59 15 13 8 75 14 151 16 117 3 130 2 149 -17 17 -15 25 -17 35 -9 7 6 21 9 30
5 10 -4 18 1 23 12 4 11 12 24 19 29 16 13 46 103 46 135 -1 14 4 37 9 52 11
28 -4 132 -23 155 -5 7 -7 16 -4 21 3 5 -7 21 -23 36 -27 26 -28 26 -64 11
-20 -8 -37 -19 -37 -24 0 -4 -19 -13 -42 -20 -101 -29 -144 -45 -159 -57 -9
-8 -18 -12 -21 -9 -3 3 -26 -4 -52 -15 -49 -21 -60 -23 -221 -40 -55 -6 -138
-18 -185 -26 -47 -8 -101 -13 -120 -11 -19 2 -40 0 -47 -5 -6 -5 -40 -11 -75
-12 -90 -5 -344 -61 -457 -101 -24 -8 -59 -15 -77 -15 -19 0 -34 -3 -34 -8 0
-11 -99 -44 -110 -37 -6 3 -10 13 -10 22 0 24 52 113 72 124 10 5 18 18 18 29
0 10 4 21 9 25 5 3 13 31 16 63 4 32 15 66 25 77 10 11 22 43 26 70 4 28 12
53 18 57 5 4 11 24 13 44 1 21 12 51 23 66 12 16 18 33 15 38 -4 6 4 30 16 54
12 25 19 54 16 65 -2 11 0 27 7 34 14 18 82 31 90 18 10 -16 67 -41 93 -41 14
0 30 -6 38 -13 7 -8 44 -17 81 -20 47 -5 74 -13 88 -26 18 -17 86 -36 201 -57
17 -3 40 -10 52 -16 17 -8 47 -7 118 5 88 14 98 18 132 54 20 21 38 47 40 57
2 11 7 24 12 30 5 6 12 26 16 44 4 18 15 41 26 51 14 13 20 34 21 82 l3 64
-43 3 c-24 2 -63 -1 -87 -6 -26 -6 -49 -5 -59 0 -11 6 -22 5 -32 -2 -8 -7 -74
-18 -146 -26 -133 -13 -270 -11 -406 7 -40 5 -100 9 -133 9 -67 0 -71 7 -45
77 23 59 48 155 51 188 1 17 18 67 38 111 20 45 37 91 37 102 0 12 14 37 31
57 17 19 27 35 23 35 -4 0 -3 5 3 11 8 8 18 6 37 -6 15 -10 50 -19 78 -22 29
-2 60 -11 69 -19 10 -9 32 -17 49 -19 17 -1 33 -5 37 -9 3 -3 17 -6 30 -6 45
0 248 -52 317 -81 38 -16 74 -29 82 -29 7 0 42 -13 77 -30 37 -17 82 -30 104
-30 21 0 54 -5 73 -11 19 -6 50 -13 69 -15 18 -3 47 -10 65 -17 35 -15 86 -3
86 20 0 7 4 13 9 13 5 0 22 18 38 40 15 22 34 40 41 40 12 0 17 15 12 35 -7
27 3 122 16 160 15 46 14 54 -18 126 -25 53 -75 82 -118 67 -85 -31 -120 -37
-275 -43 -174 -7 -336 -7 -390 0 -16 2 -68 6 -114 9 -46 4 -90 11 -98 18 -8 6
-67 15 -131 19 -159 11 -201 18 -212 39 -5 10 -25 25 -45 34 -19 9 -35 22 -35
28 0 6 -13 8 -34 4 -27 -5 -37 -3 -45 11 -7 14 -22 18 -65 18 -38 0 -56 -4
-56 -12z"/>
<path d="M6112 2437 c-22 -7 -32 -15 -30 -27 2 -9 -2 -28 -8 -41 -7 -13 -16
-51 -22 -84 -5 -33 -19 -100 -31 -150 -11 -49 -28 -139 -36 -200 -9 -60 -21
-137 -26 -170 -6 -33 -11 -73 -13 -90 -2 -32 -9 -88 -31 -260 -8 -60 -19 -150
-25 -198 -10 -80 -31 -164 -65 -257 -34 -92 -101 -338 -116 -423 -6 -37 -15
-67 -19 -67 -10 0 -34 104 -28 121 3 8 0 25 -7 39 -7 14 -16 51 -20 83 -4 31
-11 57 -16 57 -5 0 -9 10 -9 21 0 12 -4 38 -9 58 -6 20 -22 88 -36 151 -15 63
-34 123 -42 132 -8 9 -16 34 -17 56 -1 22 -7 46 -13 54 -6 7 -16 38 -23 68 -7
30 -28 102 -47 160 -18 58 -36 136 -38 175 -8 107 -27 208 -41 226 -8 8 -16
47 -19 85 -5 57 -17 149 -23 169 -1 3 -5 23 -8 45 -4 22 -10 43 -14 45 -5 3
-6 25 -4 50 4 39 0 49 -29 82 -19 21 -32 44 -30 51 3 7 -4 12 -16 12 -12 0
-29 5 -39 11 -12 8 -27 6 -54 -5 -32 -14 -37 -21 -43 -58 -3 -24 -5 -56 -5
-73 2 -41 -9 -94 -25 -130 -7 -16 -19 -50 -25 -75 -7 -25 -15 -52 -17 -60 -3
-8 -6 -36 -8 -62 -1 -26 -10 -59 -21 -75 -38 -57 -54 -94 -54 -125 0 -18 -7
-41 -15 -51 -7 -11 -11 -25 -8 -33 6 -17 -23 -106 -53 -159 -12 -23 -25 -59
-29 -80 -7 -38 -46 -143 -66 -175 -5 -8 -25 -49 -45 -90 -19 -41 -51 -106 -71
-145 -20 -38 -54 -103 -74 -144 -21 -41 -49 -104 -62 -140 -13 -36 -35 -83
-48 -103 -13 -20 -35 -55 -49 -78 -14 -23 -37 -54 -52 -68 -15 -15 -28 -33
-28 -40 0 -7 -25 -36 -55 -66 -78 -76 -74 -97 20 -102 29 -1 62 -7 73 -13 11
-6 32 -11 46 -11 13 0 37 -5 53 -12 35 -14 57 -12 110 13 24 10 49 19 58 19
19 0 45 51 45 89 0 37 52 170 85 219 15 22 25 51 25 72 0 19 7 54 15 77 8 23
12 49 9 57 -3 8 2 36 11 63 10 26 19 64 22 83 3 19 18 65 34 102 16 36 29 84
29 105 0 21 7 49 14 63 28 48 44 85 55 120 5 19 19 67 30 105 12 39 21 77 21
86 0 8 5 20 10 25 6 6 13 33 16 60 2 27 7 58 11 69 3 11 8 29 10 40 2 11 6 36
9 55 4 19 10 40 14 45 10 13 38 102 44 140 18 110 45 95 46 -25 0 -33 8 -73
20 -99 15 -32 21 -72 24 -150 5 -109 12 -163 27 -193 5 -9 14 -63 20 -120 5
-57 15 -121 21 -143 6 -22 13 -69 15 -105 2 -36 5 -101 7 -145 2 -44 6 -87 9
-95 3 -8 11 -33 17 -55 6 -22 15 -49 20 -60 18 -41 51 -182 60 -252 5 -48 15
-82 29 -99 12 -15 21 -36 21 -46 0 -27 36 -75 63 -84 12 -4 27 -14 33 -23 7
-8 29 -16 50 -18 23 -1 45 -10 54 -20 8 -11 24 -19 35 -19 11 -1 27 -4 35 -8
11 -4 22 9 43 52 15 32 27 65 27 73 1 8 12 43 25 79 13 36 33 92 45 125 11 33
25 69 30 80 5 11 14 38 21 60 6 22 15 45 20 50 4 6 12 36 17 67 5 33 19 71 33
90 23 32 32 47 59 113 14 34 46 147 60 215 10 44 25 83 44 108 5 7 11 44 13
82 5 100 18 154 58 255 7 17 18 68 25 115 7 47 16 94 20 105 8 19 17 56 26
103 3 13 16 41 29 63 14 21 25 44 25 51 0 7 9 24 20 38 11 14 20 34 20 46 0
11 5 25 11 31 19 19 1 77 -36 120 -26 31 -45 43 -75 48 -42 7 -48 13 -28 33 9
9 7 12 -10 12 -11 0 -25 7 -30 16 -11 20 -64 25 -110 11z"/>
<path d="M5460 1470 c0 -11 7 -20 15 -20 13 0 14 4 5 20 -6 11 -13 20 -15 20
-3 0 -5 -9 -5 -20z"/>
</g>
</svg>
