<?xml version="1.0" standalone="no"?>
<!DOCTYPE svg PUBLIC "-//W3C//DTD SVG 20010904//EN"
 "http://www.w3.org/TR/2001/REC-SVG-20010904/DTD/svg10.dtd">
<svg version="1.0" xmlns="http://www.w3.org/2000/svg"
 width="100.000000pt" height="23.132530pt" viewBox="0 0 100.000000 23.132530"
 preserveAspectRatio="xMidYMid meet">
<metadata>
Created by potrace 1.11, written by Peter Selinger 2001-2013
</metadata>
<g transform="translate(0.000000,23.132530) scale(0.008032,-0.008032)"
fill="#000000" stroke="none">
<path d="M11662 2563 c-56 -57 -112 -124 -112 -136 0 -9 -92 -122 -126 -154
-64 -59 -265 -126 -363 -121 l-56 3 49 23 c109 50 212 121 266 183 30 34 69
68 87 76 61 25 36 59 -71 94 l-69 23 -45 -24 c-41 -22 -95 -81 -110 -120 -19
-51 -99 -153 -136 -174 -95 -56 -160 -47 -239 30 -43 43 -61 54 -77 49 -32
-10 -28 -81 7 -117 15 -15 30 -28 35 -28 5 0 25 -11 46 -25 66 -43 158 -59
347 -58 129 0 183 5 225 17 30 9 71 21 91 25 20 4 83 32 140 61 57 29 114 58
126 64 13 6 23 17 23 24 0 6 3 12 8 12 4 0 48 38 97 85 50 47 94 85 99 85 5 0
17 6 25 13 9 8 45 19 80 25 36 6 68 16 71 23 4 6 4 25 1 42 l-7 32 -98 8 c-60
4 -103 3 -110 -2 -7 -6 -27 -6 -51 -1 -80 19 -101 14 -153 -37z"/>
<path d="M820 2455 c-58 -7 -130 -20 -160 -30 -68 -21 -225 -98 -240 -116 -4
-6 -95 -67 -139 -94 -9 -5 -18 -13 -21 -17 -3 -3 -16 -9 -30 -13 -36 -9 -92
-61 -88 -82 4 -22 111 -97 163 -114 49 -16 87 -14 140 8 67 28 90 59 135 178
48 125 89 161 224 195 94 23 134 23 1546 6 124 -1 235 -1 248 2 24 4 29 30 13
61 -12 22 -81 21 -126 -2 -24 -12 -41 -14 -79 -6 -94 18 -164 20 -596 25 -239
2 -536 6 -660 8 -144 2 -263 -1 -330 -9z"/>
<path d="M3993 2459 c-7 -7 -138 -11 -419 -11 -225 0 -413 1 -419 2 -5 2 -13
2 -18 1 -4 -1 -113 -1 -242 -1 l-235 -1 -6 -25 c-4 -14 -3 -28 1 -32 3 -4 106
-8 228 -9 122 0 267 -2 322 -2 55 -1 273 -2 484 -1 211 0 387 -2 390 -5 2 -3
-4 -14 -15 -25 -32 -33 -31 -33 -1104 -28 -298 1 -298 1 -310 -21 -22 -43 -7
-49 123 -49 67 0 269 -1 449 -2 318 -3 326 -4 303 -22 -13 -10 -32 -18 -44
-18 -11 0 -28 -9 -38 -19 -10 -10 -32 -27 -48 -37 -76 -47 -91 -58 -109 -81
-10 -13 -19 -31 -20 -38 -1 -8 -5 -18 -9 -21 -4 -4 -7 -15 -7 -25 0 -10 -13
-47 -28 -81 -16 -35 -33 -76 -37 -93 -11 -40 -6 -187 7 -202 6 -8 6 -19 -1
-32 -14 -25 -14 -185 -1 -231 6 -19 15 -73 21 -120 8 -71 15 -94 44 -137 19
-29 46 -60 61 -69 l25 -17 -28 -25 c-15 -13 -53 -40 -83 -60 -30 -20 -57 -40
-58 -45 -2 -4 -19 -14 -38 -22 -19 -8 -34 -19 -34 -26 0 -7 -7 -21 -17 -31
-14 -15 -14 -22 -4 -41 19 -36 90 -77 131 -77 51 0 137 49 240 138 66 56 92
71 113 63 12 -5 41 -14 65 -20 110 -29 128 -34 147 -41 11 -5 44 -11 73 -13
45 -4 59 -10 93 -43 21 -21 39 -43 39 -50 0 -11 54 -63 136 -131 22 -18 73
-44 116 -58 65 -22 91 -26 171 -23 52 2 93 6 90 11 -2 4 3 7 11 7 8 0 19 6 23
13 4 6 21 19 38 27 48 24 116 100 109 122 -3 11 0 20 10 24 12 5 13 11 2 42
-14 39 -33 49 -97 51 -20 1 -42 8 -49 16 -17 20 -41 5 -65 -39 -16 -29 -27
-37 -64 -45 -83 -18 -124 -13 -174 19 -26 16 -47 34 -47 39 0 15 70 51 100 51
22 0 37 10 61 40 18 22 40 42 50 45 19 6 99 83 99 95 0 4 15 23 33 42 32 34
50 67 114 208 57 124 60 135 56 170 -3 19 1 78 7 130 6 52 11 100 11 105 0 32
-46 203 -57 216 -8 8 -14 19 -14 23 0 40 -219 266 -257 266 -16 0 -16 20 1 42
11 16 60 17 657 12 354 -2 649 -5 654 -5 6 0 135 0 288 1 205 1 281 -1 292
-10 9 -7 22 -9 32 -5 32 14 47 15 198 15 287 -1 1450 0 1470 1 45 2 1220 -14
1223 -17 2 -1 -14 -12 -37 -23 -48 -25 -56 -39 -65 -111 -30 -247 -44 -386
-45 -450 -1 -67 -8 -153 -28 -355 -4 -33 -7 -98 -9 -145 -1 -47 -3 -89 -4 -95
-1 -5 -2 -46 -3 -90 l-2 -80 -150 4 c-82 2 -170 6 -195 10 l-45 6 0 70 c0 39
4 137 7 220 5 100 3 154 -4 162 -7 9 -7 17 0 26 12 15 21 486 8 505 -4 7 -5
42 -1 78 6 62 5 65 -23 93 -37 37 -118 53 -137 27 -7 -9 -19 -16 -28 -16 -32
0 -34 -14 -42 -335 -3 -121 -8 -274 -10 -340 -3 -66 -7 -201 -10 -300 -3 -99
-10 -209 -16 -244 -14 -89 -2 -272 19 -288 14 -12 14 -13 0 -13 -11 0 -17 -13
-21 -42 -2 -24 -6 -47 -7 -53 -1 -5 -2 -34 -1 -62 1 -51 3 -54 43 -79 53 -34
114 -42 156 -20 38 19 39 24 47 161 3 61 8 134 12 164 l6 54 156 -6 c86 -4
173 -9 193 -13 l38 -7 -6 -141 c-2 -77 -7 -151 -9 -163 -7 -33 3 -50 49 -81
59 -40 72 -43 117 -29 55 16 79 69 85 181 2 44 7 113 10 151 l5 71 87 -8 c86
-8 257 -20 502 -37 142 -10 270 -25 380 -47 41 -8 122 -21 180 -29 58 -8 130
-21 160 -30 100 -28 160 -29 205 -3 22 13 46 36 55 51 13 24 13 29 0 37 -13 8
-12 11 3 23 17 12 17 14 3 26 -9 8 -16 20 -16 27 0 8 -7 14 -15 14 -14 0 -54
19 -65 30 -9 10 -125 30 -170 30 -24 0 -69 4 -99 10 -187 33 -248 44 -351 61
-63 10 -133 18 -156 19 -46 0 -104 17 -104 31 0 5 -8 9 -17 9 -14 0 -15 -2 -5
-9 26 -16 -60 -20 -222 -11 -206 13 -275 20 -301 33 -11 5 -27 13 -35 17 -12
6 -15 30 -13 141 2 74 7 199 12 279 5 80 13 206 16 280 4 74 10 163 14 198 4
36 4 65 -2 69 -5 3 -6 21 -2 40 7 41 25 175 29 223 2 30 -3 41 -41 76 -23 23
-43 44 -43 47 0 4 291 6 648 6 356 -1 664 -1 685 0 34 1 37 3 37 31 0 22 -5
30 -17 30 -10 0 -382 2 -828 5 -668 4 -934 5 -1145 2 -308 -3 -1577 10 -1582
17 -4 6 -12 5 -20 -2 -10 -8 -108 -10 -359 -7 -615 8 -1676 17 -2014 17 -266
0 -334 3 -350 14 -11 8 -44 14 -75 14 -77 0 -128 10 -134 26 -4 11 49 12 297
9 166 -2 537 -5 825 -6 288 -1 525 -6 528 -11 3 -4 11 -5 17 -1 13 8 845 7
2372 -2 775 -4 1646 -6 1855 -3 8 0 148 -1 310 -3 163 -1 301 1 308 5 16 10
16 46 0 51 -7 2 -456 6 -998 9 -1588 8 -3534 18 -3552 17 -10 0 -24 -1 -30 -2
-37 -3 -1123 13 -1129 17 -4 2 -10 0 -14 -6 -4 -7 -13 -7 -26 0 -11 6 -23 8
-28 5 -5 -3 -151 -4 -323 -3 -476 2 -466 2 -479 16 -16 15 -22 15 -36 1z m232
-429 c22 -10 59 -26 82 -35 66 -28 115 -99 148 -217 15 -53 24 -102 20 -107
-3 -6 -3 -16 1 -22 10 -17 5 -157 -7 -199 -15 -53 -42 -113 -56 -128 -7 -7
-13 -19 -13 -26 0 -8 -6 -19 -13 -25 -8 -6 -20 -30 -28 -53 -26 -79 -141 -178
-239 -206 -19 -5 -43 -13 -52 -17 -17 -7 -21 0 -95 139 -12 22 -24 59 -28 81
-4 22 -11 45 -16 51 -13 16 8 144 27 165 8 8 14 22 14 29 0 7 6 21 14 29 8 9
24 41 36 71 12 30 31 74 41 97 19 41 36 94 64 200 7 29 12 87 12 128 l-2 76
25 -6 c14 -4 43 -15 65 -25z m-315 -15 c11 -13 11 -27 0 -73 -17 -82 -42 -162
-50 -167 -4 -2 -6 44 -5 103 3 132 21 178 55 137z m-290 -54 c0 -11 -5 -23
-11 -27 -8 -5 -8 -8 0 -13 6 -4 13 -54 16 -111 3 -58 17 -160 31 -226 28 -142
32 -224 9 -224 -8 0 -15 -5 -15 -10 0 -16 -69 -112 -91 -128 -10 -7 -26 -26
-34 -43 -29 -54 -69 -26 -78 56 -4 28 -9 61 -12 75 -43 179 -21 477 40 542 13
14 30 39 39 56 9 18 23 32 31 32 8 0 19 9 25 20 14 26 50 27 50 1z m143 -901
c4 -16 0 -20 -19 -20 -26 0 -31 13 -11 34 15 17 23 13 30 -14z m4693 -507
c-12 -12 -29 15 -21 34 7 17 8 16 18 -5 5 -12 7 -25 3 -29z"/>
<path d="M11910 2365 c-6 -8 -10 -24 -8 -37 3 -23 5 -23 128 -24 144 0 156 2
163 26 9 37 -7 42 -141 46 -103 3 -132 0 -142 -11z"/>
<path d="M1117 2328 c-6 -4 -34 -10 -62 -13 -53 -8 -130 -41 -182 -81 -17 -13
-35 -24 -40 -24 -4 -1 -26 -19 -48 -40 -22 -22 -43 -40 -46 -40 -4 0 -19 -18
-35 -41 -28 -40 -28 -41 -9 -56 32 -24 100 -51 147 -58 39 -6 49 -3 106 35 34
23 76 61 92 83 75 108 137 152 225 163 35 4 797 5 1122 0 l222 -2 10 27 c7 20
6 30 -2 36 -7 5 -291 10 -632 12 -341 1 -673 3 -738 4 -66 1 -124 -1 -130 -5z"/>
<path d="M11778 2236 c-21 -16 -24 -52 -5 -59 15 -6 386 2 405 8 13 5 17 41 5
48 -5 3 -93 8 -198 11 -152 5 -194 3 -207 -8z"/>
<path d="M1415 2169 c-21 -10 -42 -16 -47 -13 -15 10 -96 -45 -135 -92 -21
-25 -50 -52 -65 -60 -32 -16 -46 -59 -30 -85 7 -10 9 -25 6 -34 -8 -21 14 -45
42 -45 13 0 35 -5 48 -12 21 -9 29 -8 43 4 13 12 32 15 68 11 54 -5 52 -7 87
70 10 22 19 27 48 27 32 0 37 -4 53 -43 9 -23 17 -50 17 -60 0 -9 7 -17 15
-17 13 0 14 -4 5 -20 -7 -13 -7 -40 -2 -82 16 -107 14 -122 -17 -165 -16 -22
-39 -58 -50 -79 -12 -22 -25 -46 -30 -54 -4 -8 -16 -33 -26 -55 -9 -22 -23
-51 -29 -63 -9 -16 -10 -40 -5 -73 7 -43 5 -53 -12 -70 -10 -10 -25 -19 -33
-19 -8 0 -14 -10 -14 -22 0 -13 -7 -52 -16 -88 -12 -46 -15 -82 -10 -125 10
-90 12 -99 32 -115 10 -8 27 -30 37 -47 11 -18 22 -33 26 -33 4 0 21 -13 38
-29 35 -33 95 -50 166 -46 41 2 55 9 85 38 19 19 42 45 50 57 8 12 20 28 25
34 23 27 35 58 35 90 0 19 5 38 10 41 6 4 10 54 10 118 0 62 1 150 1 196 0 46
-5 89 -10 94 -9 9 -8 18 6 55 3 9 7 69 7 132 2 104 4 120 29 165 14 28 31 61
37 75 15 36 32 61 60 86 46 41 66 7 85 -151 12 -102 13 -148 6 -218 -5 -45 -5
-77 2 -85 5 -7 17 -27 27 -45 22 -41 53 -57 111 -57 40 0 49 4 65 27 10 15 19
46 20 68 1 22 7 54 14 70 6 17 13 44 15 60 12 97 18 125 33 170 9 28 22 54 29
58 7 4 13 12 13 18 0 11 90 99 101 99 5 0 27 9 49 21 70 37 71 34 69 -173 -1
-135 -6 -204 -19 -263 -25 -107 -42 -350 -42 -565 1 -280 0 -272 66 -372 23
-34 41 -50 71 -59 22 -7 47 -19 56 -26 27 -23 88 -35 140 -28 38 5 58 15 89
45 22 21 40 44 40 51 0 7 6 20 13 28 8 9 20 37 26 62 11 40 11 52 -4 82 -9 19
-26 38 -38 41 -38 10 -101 6 -127 -9 -14 -8 -33 -14 -42 -15 -18 0 -47 51 -48
85 -1 11 -2 59 -3 107 -2 48 -5 90 -9 93 -3 4 -2 21 2 38 5 18 11 67 15 109 4
43 11 80 16 83 5 3 9 16 9 28 0 12 7 74 16 137 12 81 13 123 6 142 -7 18 -5
60 8 145 9 65 15 125 12 134 -2 9 1 20 7 23 18 11 13 74 -10 127 -12 27 -25
49 -29 49 -4 0 -10 14 -14 32 -7 35 -26 51 -109 90 -88 42 -154 43 -250 6 -63
-25 -92 -44 -143 -95 -36 -35 -68 -63 -72 -63 -12 1 -59 45 -77 73 -9 15 -25
27 -34 27 -10 0 -26 7 -37 15 -36 27 -118 19 -197 -20 -39 -19 -71 -34 -72
-32 -1 1 -7 17 -15 35 -15 38 -79 92 -109 92 -12 0 -21 4 -21 8 0 5 -19 15
-42 22 -24 8 -54 19 -68 25 -46 22 -114 24 -155 4z m205 -1099 c23 -23 27 -60
6 -60 -17 0 -26 -22 -26 -61 0 -18 -5 -29 -14 -29 -8 0 -21 -3 -30 -6 -9 -3
-16 -1 -16 5 0 6 9 11 20 11 11 0 20 5 20 10 0 6 -4 10 -10 10 -16 0 -12 59 7
102 9 21 18 38 20 38 2 0 12 -9 23 -20z"/>
<path d="M5546 2179 c-69 -11 -181 -48 -246 -81 -30 -15 -62 -28 -72 -28 -9 0
-20 -5 -24 -11 -3 -6 -21 -18 -38 -25 -64 -30 -146 -97 -146 -120 0 -6 -7 -25
-16 -42 -11 -23 -12 -36 -5 -51 16 -29 61 -61 85 -61 12 0 32 -7 44 -16 18
-13 22 -13 22 -1 0 8 12 23 26 33 14 10 31 24 38 29 24 23 83 65 90 65 8 0 -3
-650 -11 -664 -3 -4 -5 -56 -4 -115 2 -113 -13 -426 -30 -657 -13 -171 -8
-208 31 -224 16 -7 31 -18 34 -25 8 -21 88 -12 97 11 3 11 12 19 20 19 9 0 13
9 11 22 -2 14 4 26 17 33 24 13 28 30 6 30 -8 0 -15 4 -15 9 0 5 -9 12 -19 16
-22 7 -35 55 -15 55 8 0 14 6 14 14 0 8 18 32 40 53 l40 38 5 200 c3 110 8
229 12 265 4 36 7 72 6 80 -2 13 18 15 120 16 72 0 131 5 143 12 21 11 55 20
109 29 25 4 35 -1 57 -29 44 -54 96 -124 121 -165 23 -37 64 -79 137 -144 96
-84 248 -91 309 -13 11 14 25 23 32 19 8 -6 8 -2 0 14 -7 12 -9 26 -6 32 10
16 -73 91 -98 88 -12 -2 -31 0 -42 3 -11 4 -36 9 -56 12 -28 5 -41 14 -53 39
-37 71 -64 110 -133 186 -40 44 -73 84 -73 89 0 6 7 23 14 39 8 15 17 35 21
43 3 8 16 33 30 55 30 48 57 107 51 112 -2 2 6 15 19 27 20 20 24 37 30 128 5
71 4 112 -4 126 -6 11 -11 29 -11 39 0 36 -66 146 -120 199 -49 49 -78 66
-222 136 -100 47 -272 74 -372 57z m214 -216 c138 -47 188 -69 218 -98 27 -26
34 -43 46 -110 15 -93 8 -189 -17 -225 -9 -13 -17 -36 -17 -50 0 -15 -7 -35
-15 -46 -8 -10 -15 -27 -15 -36 0 -32 -37 -30 -87 5 -55 38 -139 73 -199 82
-31 5 -54 1 -87 -14 -25 -12 -48 -21 -51 -21 -7 0 -2 193 6 205 3 6 9 68 13
139 7 134 16 175 37 177 23 1 50 7 55 13 7 7 58 -3 113 -21z m-47 -697 c25
-19 22 -23 -29 -24 -61 -3 -76 9 -33 24 43 16 41 16 62 0z m-293 -866 c0 -5
-6 -10 -14 -10 -8 0 -18 5 -21 10 -3 6 3 10 14 10 12 0 21 -4 21 -10z"/>
<path d="M11604 2149 c-2 -4 -23 -9 -46 -12 -41 -5 -73 -31 -62 -48 3 -5 38
-9 79 -9 50 0 87 -6 117 -19 53 -23 172 -136 162 -154 -4 -6 -4 -9 0 -5 4 3
26 -14 48 -38 22 -24 46 -44 53 -44 6 0 24 -13 38 -30 33 -36 50 -38 82 -6 25
25 25 26 -5 131 -14 50 -40 106 -54 120 -58 54 -164 105 -219 105 -13 0 -27 3
-30 6 -8 9 -158 11 -163 3z"/>
<path d="M7167 2056 c-39 -14 -57 -26 -96 -63 -13 -13 -29 -23 -35 -23 -6 0
-23 -21 -36 -47 -14 -27 -28 -50 -31 -53 -18 -14 -86 -191 -99 -255 -4 -22
-15 -74 -24 -115 -32 -143 -41 -427 -17 -540 11 -51 84 -267 94 -277 4 -3 7
-15 7 -25 0 -10 7 -21 15 -24 8 -4 15 -14 15 -25 0 -10 9 -26 19 -36 11 -10
31 -41 45 -70 34 -68 98 -148 133 -167 104 -55 133 -65 204 -67 68 -2 89 0
139 16 10 3 28 8 40 10 12 2 50 35 83 72 34 37 74 81 89 96 16 16 28 39 28 52
0 12 6 28 14 34 12 10 37 83 41 121 1 8 3 20 4 26 0 6 10 21 21 34 23 26 27
48 6 31 -10 -9 -16 -8 -25 3 -7 8 -19 12 -27 9 -8 -3 -14 0 -14 6 0 17 -58 14
-124 -6 l-58 -18 -59 -118 c-32 -64 -65 -125 -74 -134 -9 -9 -38 -18 -65 -21
l-48 -4 -59 79 c-93 126 -190 342 -214 477 -20 117 4 433 37 481 8 11 14 33
14 50 0 56 66 224 91 233 5 2 9 8 9 14 0 25 34 40 104 45 127 10 216 -39 216
-118 0 -22 8 -47 21 -63 24 -30 88 -66 119 -66 29 0 90 61 90 90 1 49 -9 109
-22 133 -21 39 -105 125 -141 143 -18 9 -38 21 -46 27 -60 49 -305 82 -384 53z"/>
<path d="M7775 495 l-30 -14 37 -1 c20 0 40 -4 43 -10 9 -15 25 -12 25 5 0 12
-31 37 -42 34 -2 0 -16 -7 -33 -14z"/>
<path d="M5738 353 c7 -3 16 -2 19 1 4 3 -2 6 -13 5 -11 0 -14 -3 -6 -6z"/>
</g>
</svg>
