<?xml version="1.0" standalone="no"?>
<!DOCTYPE svg PUBLIC "-//W3C//DTD SVG 20010904//EN"
 "http://www.w3.org/TR/2001/REC-SVG-20010904/DTD/svg10.dtd">
<svg version="1.0" xmlns="http://www.w3.org/2000/svg"
 width="100.000000pt" height="62.408759pt" viewBox="0 0 100.000000 62.408759"
 preserveAspectRatio="xMidYMid meet">
<metadata>
Created by potrace 1.11, written by Peter Selinger 2001-2013
</metadata>
<g transform="translate(0.000000,62.408759) scale(0.036496,-0.036496)"
fill="#000000" stroke="none">
<path d="M523 1651 c-16 -12 -33 -51 -33 -78 0 -16 -11 -62 -24 -103 -12 -41
-21 -80 -19 -87 2 -6 -1 -14 -6 -18 -6 -3 -11 -17 -11 -30 0 -13 -7 -50 -16
-82 -9 -32 -22 -92 -30 -133 -7 -41 -25 -113 -39 -160 -15 -47 -31 -107 -36
-135 -8 -44 -16 -68 -50 -137 -5 -10 -9 -26 -9 -36 0 -11 -8 -27 -19 -36 -10
-9 -22 -31 -25 -49 -8 -42 -45 -117 -57 -117 -6 0 -8 -4 -5 -8 14 -23 -50
-172 -74 -172 -22 0 -44 -42 -35 -66 10 -29 70 -74 96 -74 13 0 45 3 72 6 39
5 47 3 47 -10 0 -69 91 102 133 249 7 23 20 53 30 68 9 14 17 35 17 46 0 11 4
22 9 26 5 3 13 19 16 36 6 27 10 30 33 26 26 -5 172 21 182 32 10 12 50 31 64
31 12 0 24 -25 54 -121 7 -19 12 -55 12 -78 0 -23 5 -52 12 -64 7 -12 14 -33
16 -47 2 -14 12 -39 22 -57 10 -18 22 -48 26 -67 4 -26 18 -44 52 -70 48 -38
65 -42 105 -27 20 8 26 6 30 -8 3 -13 12 -16 40 -13 30 3 36 8 41 35 4 18 9
43 12 57 3 14 -6 55 -21 95 -15 39 -33 102 -42 140 -8 39 -25 90 -38 115 -13
25 -29 63 -36 85 -6 22 -15 45 -19 50 -4 6 -13 33 -20 60 -6 28 -18 64 -26 82
-8 17 -14 42 -14 56 0 14 -7 27 -15 30 -16 7 -97 161 -89 170 3 3 -5 25 -18
49 -26 48 -61 148 -57 163 4 16 -11 66 -37 122 -13 28 -24 58 -24 65 -1 28
-41 102 -81 146 -38 44 -73 60 -96 43z m97 -600 c5 -20 11 -50 13 -67 2 -16
11 -45 19 -64 42 -94 51 -121 42 -130 -5 -4 -34 -13 -64 -19 -30 -6 -68 -14
-84 -17 -29 -7 -29 -7 -21 32 4 21 8 54 10 72 2 18 11 44 20 59 13 19 16 40
13 80 -3 37 -1 57 9 64 7 6 13 18 13 26 0 26 19 3 30 -36z m410 -815 c-13 -13
-35 7 -25 24 5 8 11 8 21 -1 10 -8 12 -15 4 -23z"/>
<path d="M2249 1323 c-6 -7 -31 -13 -55 -13 -23 0 -45 -4 -48 -9 -3 -4 -18
-11 -34 -14 -33 -7 -128 -88 -137 -117 -4 -11 -13 -20 -20 -20 -8 0 -20 -10
-26 -22 -7 -13 -31 -48 -54 -78 -43 -58 -105 -203 -105 -248 0 -14 -3 -22 -7
-18 -13 13 -10 219 3 241 7 11 14 31 16 45 2 20 -1 25 -20 26 -32 2 -44 16
-46 55 -1 26 -7 34 -26 39 -38 9 -88 1 -131 -21 -43 -22 -46 -33 -23 -98 8
-25 12 -56 9 -70 -4 -14 -6 -62 -6 -106 1 -147 -25 -295 -51 -295 -5 0 -8 -7
-8 -15 0 -8 -4 -15 -10 -15 -5 0 -10 -6 -10 -12 0 -23 -14 -35 -47 -43 -25 -5
-33 -3 -33 8 0 16 -34 50 -42 42 -3 -3 -15 18 -27 48 -20 48 -23 79 -21 192 0
11 0 58 0 105 0 47 0 92 0 100 3 61 -3 168 -12 183 -8 15 -17 18 -41 13 -18
-4 -48 -10 -67 -13 -19 -3 -43 -13 -52 -23 -10 -10 -25 -24 -35 -32 -31 -23
-47 -63 -34 -87 8 -14 9 -50 5 -108 -7 -92 -6 -118 1 -218 3 -33 5 -72 5 -87
0 -15 4 -30 10 -33 6 -4 7 -11 4 -17 -4 -5 -1 -21 5 -34 6 -13 16 -36 22 -51
6 -16 15 -36 20 -45 5 -10 9 -22 9 -27 0 -5 17 -38 37 -72 40 -67 98 -129 120
-129 7 0 13 -6 13 -14 0 -10 13 -12 53 -10 28 2 69 3 90 4 27 0 43 7 59 25 12
14 26 25 32 25 19 0 81 78 116 146 19 38 39 76 45 84 14 19 31 80 41 143 8 62
23 49 34 -29 28 -193 104 -342 209 -409 55 -34 81 -40 82 -18 0 16 1 16 8 -2
5 -11 19 -25 32 -31 13 -6 36 -17 50 -24 25 -11 138 -11 149 1 3 3 34 16 70
28 38 14 72 34 84 50 12 14 31 36 43 48 12 12 24 30 27 40 3 10 21 42 40 70
19 29 38 63 41 75 4 13 11 28 16 33 11 15 4 86 -10 94 -6 4 -9 14 -6 23 8 19
-32 88 -51 88 -8 0 -17 7 -20 15 -7 18 -31 20 -36 3 -3 -9 -16 -4 -41 15 -19
15 -42 27 -49 27 -8 0 -29 13 -48 30 -19 16 -44 29 -55 30 -12 0 -25 4 -30 9
-15 13 -90 20 -108 9 -10 -5 -17 -19 -17 -32 0 -13 -9 -33 -20 -45 -19 -23
-19 -63 1 -103 5 -9 9 -25 9 -36 0 -19 36 -56 86 -88 16 -10 32 -24 37 -31 4
-7 14 -10 22 -7 8 3 28 0 44 -7 l29 -13 -18 -36 c-24 -47 -52 -74 -86 -87 -86
-30 -98 -33 -111 -22 -7 6 -13 8 -13 3 0 -14 -60 57 -60 72 0 7 -7 20 -16 29
-9 9 -14 19 -11 22 3 3 -6 28 -20 55 -22 42 -26 62 -26 136 0 82 13 155 34
195 5 10 7 22 4 27 -7 11 16 64 78 182 6 13 21 37 33 53 11 17 26 45 33 63 14
33 25 40 36 22 3 -5 25 -10 49 -10 28 0 48 -6 58 -17 20 -23 36 -105 33 -163
-2 -31 3 -55 16 -77 17 -27 30 -34 91 -48 82 -18 119 -13 153 21 22 22 25 33
25 105 0 43 -4 87 -9 97 -5 9 -17 37 -27 62 -15 38 -112 150 -129 150 -3 0
-15 9 -27 20 -12 11 -34 20 -48 20 -15 0 -30 3 -33 7 -13 13 -107 10 -118 -4z
m-1062 -320 c-3 -10 -5 -2 -5 17 0 19 2 27 5 18 2 -10 2 -26 0 -35z m579 -280
c-10 -10 -19 5 -10 18 6 11 8 11 12 0 2 -7 1 -15 -2 -18z m374 -483 c0 -5 -4
-10 -9 -10 -6 0 -13 5 -16 10 -3 6 1 10 9 10 9 0 16 -4 16 -10z"/>
</g>
</svg>
