<?xml version="1.0" standalone="no"?>
<!DOCTYPE svg PUBLIC "-//W3C//DTD SVG 20010904//EN"
 "http://www.w3.org/TR/2001/REC-SVG-20010904/DTD/svg10.dtd">
<svg version="1.0" xmlns="http://www.w3.org/2000/svg"
 width="100.000000pt" height="25.051335pt" viewBox="0 0 100.000000 25.051335"
 preserveAspectRatio="xMidYMid meet">
<metadata>
Created by potrace 1.11, written by Peter Selinger 2001-2013
</metadata>
<g transform="translate(0.000000,25.051335) scale(0.010267,-0.010267)"
fill="#000000" stroke="none">
<path d="M3766 2292 c-4 -4 -35 -7 -68 -8 -80 -2 -101 -33 -57 -88 18 -23 28
-26 77 -26 75 0 209 -25 250 -46 18 -9 37 -26 42 -38 5 -11 21 -93 35 -181 14
-88 32 -196 40 -240 18 -101 19 -91 -11 -118 -40 -34 -46 -51 -28 -86 11 -22
23 -31 39 -31 34 0 53 -24 60 -78 4 -26 10 -58 15 -72 8 -24 16 -102 26 -245
3 -38 11 -104 19 -145 13 -71 20 -128 31 -265 3 -33 9 -73 14 -90 4 -16 11
-64 14 -105 9 -99 26 -168 45 -175 37 -14 64 64 50 141 -5 26 -6 56 -3 66 3
11 1 25 -5 32 -6 7 -11 24 -10 37 1 42 -21 310 -26 319 -3 5 -8 37 -10 72 -3
35 -9 99 -15 143 -5 44 -11 122 -14 173 -6 93 -6 93 17 87 12 -4 33 -17 47
-30 14 -12 41 -30 61 -39 20 -9 46 -26 57 -36 12 -11 26 -20 32 -20 5 0 10 -4
10 -10 0 -5 9 -10 21 -10 11 0 27 -7 35 -15 9 -8 24 -15 35 -15 11 0 32 -6 47
-14 39 -20 239 -17 252 4 15 23 12 34 -11 48 -14 9 -24 10 -33 3 -23 -19 -221
58 -306 119 -19 14 -42 30 -51 35 -10 6 -38 25 -63 43 -26 17 -49 32 -51 32
-3 0 -38 22 -79 50 -45 31 -76 58 -79 72 -3 13 -15 84 -27 158 -12 74 -28 165
-36 201 -15 71 -18 112 -8 122 6 5 19 0 64 -24 8 -5 31 -16 50 -26 42 -21 116
-71 142 -95 10 -10 26 -18 37 -18 10 0 24 -7 31 -15 7 -8 18 -15 25 -15 7 0
38 -11 69 -25 31 -14 65 -25 75 -25 10 0 24 -6 30 -13 17 -21 119 -24 222 -8
11 2 19 30 13 46 -4 10 -20 15 -48 15 -22 1 -52 7 -66 15 -14 8 -35 14 -47 15
-13 0 -23 4 -23 9 0 8 -32 23 -57 25 -6 1 -15 5 -19 9 -4 4 -21 7 -38 7 -20 0
-36 7 -44 20 -7 11 -17 20 -23 20 -14 0 -98 39 -116 53 -7 7 -21 19 -30 27 -9
8 -25 19 -37 25 -43 23 -72 41 -123 78 -29 20 -65 43 -80 49 -15 7 -46 32 -69
57 -40 43 -41 43 -76 32 -22 -7 -44 -8 -59 -3 -24 9 -110 26 -139 26 -8 1 -20
4 -26 8 -6 4 -14 4 -18 0z"/>
<path d="M4948 2122 c-19 -4 -34 -61 -24 -87 3 -8 16 -15 28 -15 13 0 40 -5
61 -11 48 -13 62 -46 71 -165 3 -49 10 -120 16 -157 21 -139 40 -360 34 -381
-9 -28 -6 -93 5 -115 9 -15 16 -70 26 -201 2 -25 7 -113 10 -197 3 -83 8 -187
11 -230 3 -43 7 -107 9 -143 1 -36 9 -83 16 -105 13 -37 18 -40 59 -46 25 -4
57 -12 73 -18 15 -6 27 -8 27 -5 0 4 7 1 15 -6 8 -6 19 -9 25 -5 6 4 16 2 23
-3 7 -6 53 -9 102 -8 72 2 104 8 160 31 39 16 72 32 73 37 2 4 10 8 18 8 13 0
114 98 114 110 0 3 -4 11 -8 17 -6 10 -29 4 -93 -21 -129 -51 -197 -68 -267
-68 -85 1 -162 12 -162 23 0 5 -10 9 -22 9 -13 0 -28 4 -33 8 -9 6 -38 200
-36 237 6 115 6 147 1 150 -3 2 -7 74 -8 160 -1 119 1 157 11 161 13 4 55 -12
107 -41 14 -8 41 -15 61 -15 19 0 40 -5 46 -11 6 -6 17 -12 24 -13 8 -1 38
-10 67 -19 47 -14 57 -14 102 -1 27 8 56 25 65 37 15 21 14 23 -14 34 -16 7
-57 17 -92 22 -34 6 -67 15 -73 21 -5 5 -16 10 -23 10 -7 0 -46 16 -88 36 -42
20 -79 34 -82 31 -3 -4 -11 -1 -19 6 -7 7 -24 20 -36 29 -70 54 -82 68 -84
100 -2 18 -5 65 -9 103 -3 39 -6 77 -6 85 0 8 -7 56 -15 105 -19 119 -26 305
-12 305 5 0 23 -10 38 -22 15 -13 51 -36 79 -53 28 -16 51 -33 51 -37 0 -5 8
-8 18 -8 10 0 22 -4 28 -9 41 -37 258 -64 329 -41 21 7 55 12 75 12 23 -1 44
6 51 14 22 27 -10 44 -90 49 -101 6 -288 53 -328 82 -17 12 -36 23 -42 23 -19
0 -101 55 -106 73 -4 9 -11 17 -16 17 -6 0 -31 15 -57 32 -77 54 -110 68 -154
68 -24 0 -59 4 -78 8 -19 5 -43 6 -52 4z"/>
<path d="M5995 2114 c-17 -18 -18 -10 6 -262 9 -104 10 -148 2 -161 -12 -20
-6 -68 11 -91 20 -25 36 -64 36 -85 0 -11 4 -67 9 -125 6 -58 12 -132 15 -165
3 -33 10 -76 16 -95 5 -19 10 -55 10 -80 0 -25 5 -63 10 -85 14 -58 28 -184
35 -300 3 -55 8 -128 11 -162 5 -54 4 -63 -10 -63 -11 0 -16 -9 -16 -30 0 -16
3 -30 8 -30 10 0 29 -47 38 -93 3 -21 13 -44 20 -52 8 -7 10 -15 6 -17 -4 -2
-5 -36 -2 -77 5 -64 9 -76 34 -98 15 -13 35 -23 44 -21 22 4 34 57 22 92 -16
46 -13 84 8 88 9 2 39 -4 67 -14 64 -23 144 -23 187 -1 18 10 35 21 36 26 2 4
10 7 17 7 8 0 20 8 27 18 7 10 27 27 43 37 17 11 67 58 113 105 101 104 175
240 193 355 14 95 15 94 -20 168 -17 37 -31 70 -31 74 0 5 -12 23 -27 40 -16
17 -39 48 -53 67 -14 20 -30 36 -36 36 -13 0 -68 53 -91 87 -13 20 -13 28 3
80 22 74 27 434 7 454 -7 7 -13 25 -13 40 0 15 -4 30 -9 34 -5 3 -12 19 -16
36 -4 17 -26 49 -51 72 -39 36 -55 44 -123 58 -74 15 -81 15 -116 -2 -20 -10
-43 -15 -50 -13 -8 3 -29 -1 -46 -10 -18 -9 -40 -16 -51 -16 -10 0 -18 -3 -18
-8 0 -4 -18 -18 -40 -32 -22 -13 -42 -30 -44 -37 -7 -18 -53 -16 -60 3 -3 9
-6 31 -6 50 0 19 -4 34 -9 34 -6 0 -7 15 -5 33 8 45 -31 147 -56 147 -10 0
-26 -7 -35 -16z m573 -275 c16 -13 43 -51 58 -84 28 -59 29 -64 27 -215 -2
-224 -25 -281 -95 -236 -29 19 -196 36 -263 27 -27 -4 -63 -15 -78 -25 -19
-13 -31 -16 -38 -9 -6 6 -12 62 -15 124 -2 63 -9 142 -15 177 -10 55 -9 68 6
103 10 21 23 39 28 39 6 0 48 25 93 55 46 30 94 55 108 55 14 0 28 5 32 11 12
21 118 6 152 -22z m-88 -634 c29 -3 60 -16 60 -26 0 -5 7 -9 15 -9 22 0 19 -9
-23 -67 -58 -80 -112 -114 -186 -119 -77 -5 -107 9 -118 56 -11 47 -1 110 21
138 29 38 75 44 231 27z m280 -194 c71 -74 108 -128 124 -183 12 -37 11 -52
-4 -110 -10 -37 -26 -80 -36 -95 -10 -16 -25 -42 -34 -59 -19 -36 -27 -46
-100 -123 -58 -61 -119 -109 -160 -128 -103 -46 -93 -44 -166 -26 -86 21 -113
48 -114 114 0 25 -5 71 -10 101 -6 31 -12 94 -13 140 -2 46 -6 89 -11 96 -4 7
-2 12 5 12 8 0 8 4 1 13 -6 6 -12 32 -13 57 l-4 45 95 -3 c82 -3 99 0 125 17
17 12 39 26 50 33 23 15 42 35 110 112 61 70 77 69 155 -13z"/>
<path d="M2651 1980 l-33 -41 -61 6 c-34 4 -69 9 -77 12 -8 3 -24 7 -35 9 -36
6 -339 22 -380 20 -22 -1 -59 -3 -82 -4 -47 -2 -58 -14 -66 -75 -6 -43 -39
-76 -77 -77 -14 0 -47 -11 -74 -25 -27 -14 -55 -25 -63 -25 -7 0 -13 -3 -13
-7 0 -5 -21 -17 -48 -27 -26 -10 -58 -29 -72 -42 -14 -13 -40 -26 -56 -30 -17
-3 -44 -17 -59 -30 -16 -13 -39 -24 -52 -24 -12 0 -23 -5 -23 -11 0 -5 -15
-17 -32 -25 -18 -8 -51 -28 -73 -44 -22 -15 -43 -27 -46 -24 -3 2 -22 -1 -42
-7 -33 -9 -36 -13 -42 -60 -6 -42 -11 -52 -33 -60 -15 -6 -34 -8 -44 -6 -10 3
-18 1 -18 -3 0 -11 -21 -17 -80 -25 -25 -3 -67 -12 -95 -19 -120 -33 -269 -35
-392 -7 -45 10 -84 16 -87 13 -3 -3 -15 3 -25 12 -11 10 -24 15 -30 12 -5 -4
-12 -2 -16 3 -6 10 -76 7 -94 -3 -9 -6 -61 66 -61 84 0 15 -31 60 -41 60 -27
0 6 -117 52 -181 11 -16 17 -34 13 -40 -4 -6 11 -28 35 -49 22 -21 41 -42 41
-47 0 -5 14 -17 30 -26 17 -10 30 -22 30 -27 0 -13 52 -60 66 -60 7 0 14 -9
17 -20 3 -11 9 -19 14 -18 4 2 22 -12 39 -29 17 -18 33 -30 37 -27 3 3 10 -3
16 -14 6 -11 24 -23 40 -27 15 -3 38 -15 49 -25 12 -11 24 -20 28 -20 3 0 20
-6 37 -14 39 -17 132 -41 255 -65 51 -10 94 -20 95 -22 8 -12 27 -78 27 -92 0
-49 109 -53 235 -8 50 17 121 41 159 51 39 11 95 29 126 40 81 29 91 27 122
-25 30 -49 44 -54 105 -31 65 24 238 38 333 26 182 -22 197 -28 206 -79 4 -20
10 -40 13 -46 4 -5 8 -22 9 -36 2 -36 20 -81 30 -75 15 9 306 38 332 32 33 -7
129 10 205 36 33 11 75 22 93 25 17 3 32 9 32 13 0 4 25 19 56 34 30 14 65 35
76 46 12 11 26 20 31 20 6 0 25 11 43 25 18 14 37 25 42 25 5 0 17 9 27 20 10
11 24 20 31 20 7 0 26 11 42 25 17 14 33 25 37 25 7 0 23 13 70 60 30 29 30
29 102 20 46 -6 94 -21 132 -40 63 -31 95 -37 106 -20 4 7 11 8 18 1 8 -6 23
-5 44 4 27 11 33 20 38 58 10 68 1 87 -39 80 -18 -3 -43 0 -55 7 -12 6 -66 16
-119 21 -53 6 -99 13 -102 17 -8 11 -71 42 -85 42 -13 0 -26 26 -31 65 -16
117 -35 182 -79 271 -81 161 -195 295 -299 349 -28 14 -58 30 -66 34 -8 5 -43
21 -77 37 -35 15 -63 31 -63 36 0 4 -9 8 -21 8 -11 0 -33 8 -47 19 -15 10 -45
24 -67 32 -22 7 -47 18 -55 25 -37 29 -56 25 -89 -16z m-326 -111 c55 -6 131
-17 168 -25 99 -20 175 -18 215 6 37 23 93 19 124 -7 9 -8 21 -12 27 -9 5 3
11 2 13 -3 1 -5 50 -34 108 -64 188 -97 201 -107 266 -193 16 -21 31 -41 34
-44 38 -37 95 -150 89 -177 -1 -4 2 -19 8 -33 6 -14 13 -46 16 -72 6 -43 5
-48 -13 -48 -18 0 -120 61 -181 109 -17 13 -29 34 -32 58 -4 21 -16 46 -27 55
-11 10 -20 14 -20 10 0 -4 -7 1 -15 12 -11 14 -19 16 -41 9 -25 -8 -25 -10
-10 -25 11 -12 13 -19 5 -24 -13 -8 -89 15 -89 28 0 4 -8 8 -18 8 -11 0 -27 9
-36 19 -10 10 -37 24 -62 30 -27 7 -44 17 -44 26 0 8 -8 15 -19 15 -21 0 -43
22 -39 40 3 14 -48 48 -74 49 -10 1 -18 -6 -18 -15 0 -22 29 -43 59 -44 19 0
22 -3 13 -12 -9 -9 -30 -8 -94 6 -46 10 -113 20 -150 23 -68 5 -68 5 -68 35 0
24 -6 32 -30 41 -16 6 -30 15 -30 19 0 4 -5 8 -11 8 -6 0 -31 20 -55 45 -32
31 -56 46 -82 50 -20 3 -50 10 -65 15 -32 10 -60 3 -54 -14 2 -6 25 -18 52
-27 27 -9 71 -36 98 -60 27 -24 67 -56 89 -71 21 -14 34 -29 29 -32 -5 -4 -12
-2 -15 3 -6 9 -79 6 -94 -3 -16 -10 -192 -16 -209 -8 -35 18 -129 44 -149 41
-10 -2 -25 0 -32 5 -18 11 -36 -8 -29 -28 4 -10 18 -16 36 -16 16 0 33 -4 36
-10 3 -5 15 -10 26 -10 31 0 22 -30 -11 -37 -17 -3 -33 -10 -36 -14 -3 -5 -14
-9 -25 -9 -10 0 -19 -4 -19 -9 0 -5 -15 -12 -34 -15 -19 -4 -36 -10 -38 -14
-2 -4 -27 -15 -57 -24 -42 -13 -59 -15 -75 -6 -29 16 -123 34 -170 33 -72 0
-47 -44 27 -47 19 -1 42 -7 52 -14 18 -13 17 -15 -5 -34 -13 -11 -28 -20 -34
-21 -59 -6 -126 -21 -132 -30 -3 -5 -16 -9 -29 -9 -13 0 -48 -9 -77 -19 -29
-11 -66 -22 -83 -25 -16 -4 -41 -9 -55 -11 -69 -14 -130 -17 -130 -7 0 12 35
22 120 33 137 17 147 24 141 95 -2 27 4 35 46 62 26 17 53 36 60 42 7 5 17 10
23 10 24 0 189 97 220 130 9 9 144 69 185 81 22 7 58 21 81 31 22 10 48 18 58
18 21 0 58 19 68 34 4 6 8 25 8 43 0 55 19 64 123 58 51 -3 137 -11 192 -16z
m163 -403 c46 -3 92 -10 102 -16 10 -5 30 -10 44 -10 14 0 28 -4 31 -10 3 -5
15 -10 26 -10 19 0 49 -21 49 -34 0 -3 -6 -6 -14 -6 -13 0 -28 -22 -30 -45 -1
-5 -8 -21 -15 -35 -8 -14 -27 -47 -42 -75 -14 -27 -31 -50 -37 -50 -6 0 -14
-3 -18 -7 -4 -5 -16 -8 -26 -8 -10 0 -18 -4 -18 -8 0 -5 -23 -14 -52 -22 -29
-7 -58 -19 -66 -26 -7 -8 -20 -14 -28 -14 -25 0 -74 -30 -74 -45 0 -20 49 -20
77 0 11 8 40 21 64 28 156 50 187 62 211 79 38 26 76 108 51 108 -21 0 -5 60
25 94 l32 37 83 -28 c45 -15 84 -30 87 -34 3 -4 25 -15 50 -25 81 -32 90 -63
26 -89 -49 -20 -56 -37 -56 -126 0 -36 -6 -55 -23 -75 l-24 -27 -52 17 c-42
13 -60 15 -94 6 -60 -16 -151 -52 -159 -64 -22 -33 27 -29 157 12 31 9 75 0
75 -16 0 -5 -20 -28 -45 -51 -25 -23 -45 -48 -45 -56 0 -19 14 -19 30 0 7 8
19 15 28 15 8 0 29 16 48 35 18 19 37 35 43 35 6 0 11 4 11 8 0 5 15 16 34 24
37 18 82 73 67 82 -5 4 -11 0 -14 -6 -2 -7 -7 10 -11 39 -8 56 -2 77 19 69 8
-3 19 2 25 10 7 8 17 14 22 14 6 0 24 11 40 25 16 14 33 24 36 22 116 -57 149
-75 165 -90 10 -10 23 -17 30 -14 16 5 101 -67 95 -82 -10 -26 -82 -91 -113
-102 -20 -8 -47 -23 -59 -34 -11 -12 -33 -26 -48 -33 -16 -6 -28 -16 -28 -22
0 -5 -6 -10 -12 -10 -7 0 -39 -16 -71 -35 -32 -19 -64 -35 -72 -35 -7 0 -20
-6 -27 -12 -44 -42 -207 -79 -372 -85 -72 -2 -146 -1 -164 2 l-33 6 6 50 c6
49 5 51 -24 62 -20 7 -32 20 -36 38 -4 17 -16 31 -33 38 -26 11 -45 13 -194
27 -38 4 -68 10 -68 15 0 5 -7 9 -15 9 -8 0 -15 -4 -15 -10 0 -5 -10 -9 -22
-9 -13 1 -45 -2 -73 -5 -174 -24 -221 -17 -248 35 -10 18 -22 33 -28 31 -5 -1
-22 -4 -37 -5 -15 -2 -37 -9 -49 -15 -12 -7 -30 -12 -40 -12 -10 0 -51 -13
-90 -30 -40 -16 -88 -32 -108 -36 -19 -3 -39 -12 -46 -20 -6 -8 -21 -14 -34
-14 -12 0 -25 -3 -29 -7 -4 -5 -17 -8 -29 -9 -12 -1 -34 -4 -49 -9 -22 -6 -28
-4 -28 8 0 26 -22 67 -36 67 -19 0 -50 50 -37 58 5 4 31 21 57 37 38 25 53 43
81 102 28 60 38 72 64 78 17 4 31 10 31 14 0 24 255 126 285 115 14 -6 14 -9
0 -30 -8 -13 -24 -47 -36 -76 -11 -29 -24 -55 -28 -58 -4 -3 -19 -22 -33 -44
-24 -35 -28 -66 -8 -66 26 0 144 141 178 215 14 30 42 65 70 88 51 41 159 97
188 97 9 0 45 13 78 30 58 28 206 56 206 39 0 -28 -145 -289 -172 -309 -3 -3
-10 -17 -13 -33 -4 -16 -26 -41 -56 -63 -27 -20 -49 -42 -49 -49 0 -16 27 -28
35 -15 4 6 15 10 26 10 10 0 19 4 19 9 0 5 16 18 35 30 19 11 35 27 35 34 0 8
8 21 18 30 9 9 26 33 37 54 11 21 25 42 32 46 18 11 44 63 36 71 -4 3 3 16 14
29 11 12 29 38 38 57 21 41 27 47 85 87 25 18 54 30 65 28 11 -2 57 -6 103 -9z
m-2063 -220 c28 -9 59 -18 70 -20 11 -2 40 -9 65 -16 25 -6 68 -16 95 -22 28
-6 56 -16 64 -22 7 -6 21 -11 29 -11 25 0 25 -23 0 -30 -13 -4 -29 -12 -37
-18 -7 -6 -21 -12 -30 -12 -45 -3 -82 -18 -79 -34 3 -12 14 -16 48 -14 77 2
104 8 145 29 87 46 163 66 260 67 51 1 96 -1 99 -4 4 -3 -6 -35 -22 -70 -23
-51 -37 -69 -69 -86 -22 -13 -46 -30 -53 -38 -30 -36 -338 10 -386 58 -4 4
-14 7 -23 7 -9 0 -38 16 -65 35 -27 19 -53 32 -57 29 -5 -3 -9 1 -9 8 0 15
-69 78 -86 78 -7 0 -15 8 -19 18 -3 11 -17 24 -30 30 -16 8 -25 20 -25 35 0
40 1 40 115 3z"/>
<path d="M2930 1701 c0 -5 15 -25 33 -43 52 -55 87 -101 87 -115 0 -17 25 -17
40 2 15 19 3 56 -18 54 -39 -3 -46 1 -28 14 17 12 16 15 -13 45 -21 20 -37 29
-48 25 -12 -5 -15 -2 -11 8 4 10 -2 15 -18 17 -13 1 -24 -2 -24 -7z"/>
<path d="M2440 1611 c0 -6 5 -13 10 -16 6 -3 10 1 10 9 0 9 -4 16 -10 16 -5 0
-10 -4 -10 -9z"/>
<path d="M1310 1129 c0 -5 5 -7 10 -4 6 3 10 8 10 11 0 2 -4 4 -10 4 -5 0 -10
-5 -10 -11z"/>
<path d="M8552 1964 c-13 -9 -31 -13 -42 -9 -11 4 -20 2 -20 -3 0 -4 -30 -15
-66 -22 -36 -8 -67 -17 -70 -22 -3 -4 -16 -8 -29 -8 -13 0 -27 -5 -30 -10 -4
-6 -10 -8 -15 -5 -5 3 -26 -1 -46 -10 -50 -21 -86 -20 -83 3 4 25 -29 82 -48
82 -9 0 -35 -17 -57 -37 -70 -63 -96 -83 -106 -83 -6 0 -10 -4 -10 -9 0 -5 -9
-11 -21 -14 -11 -3 -23 -15 -26 -26 -3 -12 -12 -21 -21 -21 -17 0 -23 -7 -96
-115 -76 -113 -96 -151 -96 -184 0 -16 -4 -31 -8 -33 -12 -4 -65 -118 -69
-148 -2 -14 -6 -87 -7 -163 -4 -151 -8 -164 -69 -188 -18 -7 -57 -24 -87 -38
-30 -14 -58 -25 -61 -24 -3 1 -12 -22 -19 -52 -12 -50 -12 -57 5 -76 14 -14
26 -18 45 -14 42 11 144 66 158 86 7 10 19 19 26 19 7 0 23 11 36 25 13 14 31
25 41 25 9 0 53 -18 96 -39 99 -49 202 -71 333 -71 97 0 230 24 238 42 2 5 13
8 24 8 11 0 41 11 67 24 25 14 82 41 126 61 86 40 105 56 105 92 0 12 9 27 21
33 45 24 195 69 294 87 42 8 55 21 55 54 0 31 15 42 70 54 19 4 37 10 40 14 3
3 25 17 50 30 25 13 68 41 95 61 68 51 232 214 240 239 3 12 10 21 15 21 12 0
103 149 113 185 20 71 19 100 -3 120 l-22 20 -22 -28 c-12 -15 -28 -27 -35
-27 -7 0 -11 -6 -8 -13 4 -10 -11 -18 -46 -27 -76 -20 -78 -21 -126 -26 -25
-2 -76 -11 -115 -19 -66 -14 -133 -14 -253 1 -37 5 -47 11 -74 50 -38 56 -57
63 -167 65 l-88 1 -22 39 c-19 33 -28 39 -55 39 -18 0 -43 -7 -55 -16z m38
-114 c0 -10 12 -28 27 -40 l26 -21 -19 -26 c-55 -74 -152 -116 -180 -78 -16
22 -44 13 -44 -15 0 -19 -34 -42 -65 -45 -5 0 -15 -4 -22 -8 -6 -4 -15 -2 -18
3 -8 13 40 90 55 90 6 0 10 7 10 15 0 8 3 15 8 15 4 0 18 23 32 51 26 53 47
71 90 75 14 1 36 6 50 12 29 11 50 -1 50 -28z m-514 -35 c13 -71 67 -78 172
-22 18 10 37 15 42 12 5 -3 19 -1 31 5 38 21 44 -3 12 -50 -15 -24 -33 -51
-38 -60 -6 -10 -16 -24 -21 -31 -6 -8 -19 -35 -29 -61 -10 -27 -22 -48 -27
-48 -5 0 -29 -16 -52 -35 -24 -19 -46 -35 -50 -35 -15 0 -186 -165 -186 -180
0 -5 -11 -10 -25 -10 -23 0 -25 4 -25 40 0 50 17 84 65 130 20 18 43 46 52 61
9 15 26 33 38 39 24 13 80 125 70 141 -8 12 -34 -18 -35 -39 0 -7 -13 -26 -30
-42 -16 -16 -30 -31 -30 -34 0 -3 -13 -20 -30 -38 -16 -18 -30 -38 -30 -44 0
-7 -15 -22 -33 -33 -19 -11 -46 -44 -62 -72 -25 -47 -27 -58 -22 -120 5 -61 4
-70 -13 -79 -10 -5 -24 -25 -30 -43 -9 -24 -25 -38 -62 -55 -27 -12 -53 -20
-58 -17 -6 4 -10 20 -10 37 0 42 19 158 30 183 5 11 14 38 21 60 7 22 19 47
26 56 7 9 10 19 7 22 -4 4 -1 13 6 22 7 8 9 15 4 15 -5 0 -4 4 1 8 6 4 19 25
30 47 45 90 140 201 242 282 37 30 41 29 49 -12z m742 -10 c34 -2 65 -27 76
-63 4 -12 12 -22 17 -22 23 0 7 -41 -22 -55 -28 -15 -33 -15 -55 0 -22 14 -27
14 -45 1 -18 -12 -26 -12 -65 1 -25 8 -53 13 -64 10 -32 -8 -45 18 -23 47 10
14 21 26 26 26 4 0 7 5 7 10 0 31 64 64 100 52 8 -3 30 -6 48 -7z m515 -116
c-6 -6 -27 -15 -47 -20 -20 -5 -53 -14 -73 -19 -49 -14 -261 -21 -269 -9 -3 5
0 9 5 9 6 0 11 6 11 14 0 16 75 32 107 22 28 -8 153 -7 203 3 67 13 76 13 63
0z m148 -48 c-6 -11 -20 -25 -31 -31 -11 -6 -20 -16 -20 -24 0 -7 -10 -22 -22
-34 -13 -12 -36 -35 -53 -52 -41 -42 -64 -55 -78 -41 -6 6 -24 11 -39 11 -15
0 -28 4 -28 8 0 5 -11 14 -25 20 -50 23 -17 52 59 52 28 0 131 43 154 63 10
10 23 17 29 17 5 0 20 9 33 20 27 24 36 20 21 -9z m-752 -66 c20 -4 48 -20 67
-41 19 -19 40 -34 47 -34 8 0 22 -9 32 -20 10 -11 29 -20 42 -20 18 0 23 5 23
24 0 14 -4 28 -10 31 -5 3 -10 10 -10 16 0 8 25 8 117 0 7 -1 26 -14 43 -31
17 -16 34 -30 39 -30 4 0 16 -9 25 -19 10 -11 32 -21 49 -23 42 -4 48 -32 10
-46 -15 -5 -39 -19 -52 -31 -13 -11 -29 -21 -36 -21 -6 0 -40 -9 -75 -21 -34
-11 -77 -21 -94 -21 -46 -1 -66 -23 -56 -59 8 -26 6 -29 -13 -31 -35 -2 -31
-1 -111 -31 -17 -6 -37 -12 -45 -13 -9 -1 -28 -5 -43 -9 -21 -5 -29 -3 -34 9
-5 14 -63 77 -75 83 -2 1 -13 5 -24 8 -63 21 -83 32 -110 60 -35 36 -92 65
-128 65 -13 0 -30 7 -37 15 -7 8 -30 20 -52 26 l-40 10 22 24 c21 22 55 41
173 94 60 27 67 26 96 -4 13 -14 28 -25 34 -25 5 0 25 -17 42 -38 18 -21 56
-49 83 -62 28 -14 51 -30 52 -36 0 -15 56 -38 75 -30 8 3 15 12 15 19 0 16
-86 87 -106 87 -6 0 -14 7 -18 15 -3 8 -12 15 -20 15 -8 0 -33 22 -55 49 l-42
50 28 3 c36 4 129 0 172 -7z m-565 -207 c22 -6 48 -17 56 -24 9 -8 40 -19 70
-25 30 -7 62 -18 71 -26 8 -7 23 -13 31 -13 9 0 21 -13 28 -30 12 -29 40 -46
71 -42 8 2 37 -16 63 -40 l48 -42 -22 -18 c-12 -10 -28 -18 -35 -18 -18 0 -38
-50 -25 -64 7 -9 3 -19 -14 -35 -25 -24 -93 -61 -112 -61 -6 0 -25 -7 -40 -15
-16 -8 -40 -15 -54 -15 -15 0 -31 -5 -37 -11 -6 -6 -61 -12 -131 -13 -95 -2
-137 1 -203 18 -46 12 -85 24 -87 29 -2 4 -12 7 -22 7 -19 0 -70 40 -70 55 0
10 61 88 77 98 7 4 13 14 13 20 0 16 256 277 271 277 7 0 30 -5 53 -12z"/>
<path d="M7976 1172 c-12 -11 -5 -42 9 -42 8 0 45 -16 82 -36 54 -28 74 -34
102 -29 28 5 41 1 77 -24 47 -35 72 -39 81 -14 4 10 -2 22 -18 34 -13 11 -33
28 -44 39 -18 17 -25 18 -57 8 -32 -9 -44 -8 -80 7 -24 10 -51 25 -60 33 -19
15 -84 33 -92 24z"/>
<path d="M6012 1034 c-23 -16 -30 -44 -12 -44 6 0 13 7 16 15 4 9 18 22 33 30
23 12 23 14 6 15 -11 0 -31 -7 -43 -16z"/>
<path d="M8748 3 c12 -2 32 -2 45 0 12 2 2 4 -23 4 -25 0 -35 -2 -22 -4z"/>
</g>
</svg>
