<?xml version="1.0" standalone="no"?>
<!DOCTYPE svg PUBLIC "-//W3C//DTD SVG 20010904//EN"
 "http://www.w3.org/TR/2001/REC-SVG-20010904/DTD/svg10.dtd">
<svg version="1.0" xmlns="http://www.w3.org/2000/svg"
 width="100.000000pt" height="56.159420pt" viewBox="0 0 100.000000 56.159420"
 preserveAspectRatio="xMidYMid meet">
<metadata>
Created by potrace 1.11, written by Peter Selinger 2001-2013
</metadata>
<g transform="translate(0.000000,56.159420) scale(0.018116,-0.018116)"
fill="#000000" stroke="none">
<path d="M4330 3001 c-77 -16 -223 -131 -262 -206 -8 -16 -22 -43 -31 -60 -8
-16 -20 -41 -25 -55 -5 -14 -19 -48 -31 -77 -12 -28 -21 -58 -21 -66 0 -8 -12
-36 -26 -63 -35 -65 -64 -150 -64 -188 -1 -17 -7 -42 -14 -55 -8 -14 -12 -31
-9 -38 3 -7 1 -19 -5 -26 -11 -14 -30 -119 -40 -227 -11 -122 -5 -534 8 -576
7 -20 13 -79 14 -131 l1 -94 -38 -40 c-22 -22 -40 -46 -41 -54 -3 -20 -84
-105 -101 -105 -8 0 -15 -9 -15 -20 0 -11 -8 -24 -17 -27 -20 -8 -26 -12 -68
-49 -39 -34 -89 -54 -141 -56 -46 -2 -78 18 -90 56 -4 11 -15 27 -24 33 -33
23 -30 82 6 143 17 30 42 78 54 105 12 28 28 64 35 80 8 17 23 53 34 81 10 27
35 80 55 117 20 36 36 73 36 81 0 9 7 32 16 53 30 68 32 77 37 128 4 32 0 63
-9 85 -29 69 -63 125 -80 135 -10 6 -26 19 -35 30 -15 17 -28 19 -113 17 -101
-2 -145 -18 -187 -68 -106 -127 -153 -315 -151 -612 1 -139 13 -198 54 -269
l20 -33 -50 -67 c-28 -38 -61 -78 -74 -89 -12 -12 -39 -41 -58 -64 -19 -24
-64 -65 -100 -92 -62 -48 -67 -49 -113 -43 -36 4 -55 1 -77 -12 -36 -21 -42
-36 -30 -67 12 -34 19 -36 108 -39 70 -3 86 0 133 24 102 50 117 60 123 74 3
8 12 15 21 15 8 0 15 9 15 19 0 11 8 22 18 25 10 4 43 36 73 72 84 102 94 114
101 114 6 0 40 -31 113 -101 26 -26 38 -29 98 -31 37 -1 67 -5 67 -10 0 -4 7
-8 15 -8 22 0 95 39 95 50 0 6 11 10 25 10 14 0 34 9 45 20 11 11 26 20 33 20
16 0 57 37 57 50 0 6 6 10 13 10 7 0 37 23 65 50 29 27 56 50 61 50 5 0 15
-26 21 -57 7 -32 16 -63 20 -68 5 -6 12 -34 16 -63 4 -29 11 -55 15 -58 5 -3
9 -14 9 -24 0 -10 20 -39 45 -64 25 -26 45 -51 45 -56 0 -6 5 -10 11 -10 6 0
26 -16 44 -36 l34 -36 76 5 c49 4 85 11 103 23 15 10 32 19 39 20 6 1 32 23
58 48 25 25 52 46 61 46 18 0 69 53 91 94 8 17 24 37 34 45 18 16 89 151 89
171 0 6 7 22 16 35 10 15 14 37 12 55 -3 18 1 35 9 41 7 6 13 20 13 31 0 23
39 40 58 25 10 -8 19 -4 36 18 19 24 28 27 54 22 17 -4 34 -2 37 4 4 5 15 7
25 4 12 -4 41 10 84 39 36 25 66 42 66 39 0 -4 11 4 25 17 14 13 25 29 25 37
0 7 5 13 10 13 6 0 10 10 10 21 0 12 6 27 13 33 28 23 58 114 56 173 -1 32 0
63 2 68 4 11 -13 59 -38 110 -22 43 -64 46 -104 6 -37 -37 -37 -53 -1 -49 l27
3 -3 -65 c-3 -67 -39 -180 -57 -180 -6 0 -16 -12 -23 -27 -8 -18 -30 -37 -64
-53 -29 -13 -62 -32 -73 -42 -20 -17 -34 -18 -69 -3 -12 5 -21 3 -27 -6 -6
-10 -9 -6 -9 14 0 15 -3 27 -7 27 -5 0 -9 24 -10 53 -5 101 -7 117 -14 117 -3
0 -22 34 -40 75 -29 64 -40 78 -73 95 -22 10 -63 40 -93 65 -52 46 -67 75 -38
75 8 0 15 9 15 20 0 24 33 110 65 171 14 26 25 54 25 63 0 9 4 16 9 16 12 0
22 26 32 80 4 25 12 63 18 85 10 38 26 160 37 285 3 30 9 69 14 85 12 39 13
75 5 157 -7 58 -13 72 -46 110 -21 24 -39 46 -39 49 0 4 -13 12 -30 19 -16 7
-30 16 -30 21 0 5 -4 9 -9 9 -5 0 -22 5 -38 12 -15 6 -39 13 -53 14 -14 2 -41
5 -60 8 -19 2 -51 1 -70 -3z m64 -295 c7 -62 -10 -250 -25 -278 -6 -11 -16
-54 -24 -96 -32 -187 -80 -356 -131 -462 -77 -162 -199 -405 -205 -410 -3 -3
-9 -12 -13 -20 -34 -72 -38 -68 -32 30 6 110 11 149 30 245 32 155 38 192 42
235 2 25 8 68 14 95 6 28 14 64 16 80 3 17 14 48 23 70 10 22 28 81 40 130 12
50 28 99 35 110 8 11 17 41 21 65 3 25 22 77 41 115 49 98 58 112 89 145 26
27 29 28 50 14 17 -11 24 -28 29 -68z m-1036 -955 c18 -41 0 -174 -45 -326
-36 -120 -92 -260 -101 -251 -10 10 -10 233 -1 311 12 98 38 213 50 221 5 3 9
14 9 24 0 17 39 46 65 49 6 1 16 -12 23 -28z m1057 -166 c41 -31 87 -118 113
-215 19 -70 27 -140 16 -140 -14 0 -89 49 -120 77 -19 17 -44 33 -56 35 -35 5
-70 73 -65 125 4 37 59 143 75 143 3 0 20 -11 37 -25z m-161 -370 c47 -40 70
-55 82 -55 7 0 34 -11 61 -24 26 -12 66 -29 88 -36 61 -19 64 -24 58 -88 -4
-42 -13 -67 -34 -94 -16 -20 -29 -42 -29 -48 0 -16 -40 -72 -63 -89 -10 -7
-26 -26 -35 -41 -28 -45 -141 -130 -174 -130 -30 0 -68 31 -68 55 0 9 -12 28
-28 43 -15 15 -34 43 -42 62 -8 19 -20 41 -27 48 -7 7 -13 20 -13 27 0 8 -6
18 -13 22 -18 11 -39 103 -41 176 -1 53 3 67 27 98 15 20 27 40 27 46 0 5 16
24 35 42 19 17 35 36 35 41 0 5 16 26 35 47 19 21 35 43 35 48 1 6 14 -21 31
-60 16 -38 40 -79 53 -90z"/>
<path d="M1780 2882 c0 -12 -70 -43 -81 -37 -5 4 -9 1 -9 -4 0 -6 -7 -11 -15
-11 -8 0 -15 -4 -15 -9 0 -5 -16 -15 -35 -22 -30 -11 -35 -18 -35 -44 0 -32
25 -94 38 -96 111 -9 235 -39 308 -74 28 -14 55 -25 60 -25 5 0 33 -22 63 -50
60 -56 58 -45 21 -175 -11 -38 -25 -94 -32 -122 -6 -29 -15 -53 -21 -53 -6 0
-6 -5 1 -12 6 -9 7 -32 1 -68 -5 -30 -10 -69 -11 -86 0 -17 -7 -39 -14 -49
-11 -15 -19 -16 -71 -6 -32 7 -90 18 -130 24 -39 7 -75 15 -79 20 -4 4 -18 7
-30 7 -13 0 -34 5 -47 11 -20 9 -30 8 -51 -6 -14 -10 -26 -24 -26 -31 0 -8 -4
-14 -8 -14 -14 0 -52 -40 -52 -55 0 -8 18 -33 41 -55 32 -31 45 -38 58 -30 12
6 42 4 87 -6 38 -8 83 -18 99 -21 17 -3 42 -14 57 -24 14 -11 35 -19 45 -19
11 0 28 -9 38 -20 17 -19 17 -23 -4 -102 -13 -46 -27 -96 -33 -113 -6 -16 -16
-61 -22 -100 -7 -38 -18 -79 -24 -91 -6 -11 -11 -29 -11 -40 1 -25 -10 -90
-21 -134 -5 -19 -17 -66 -26 -105 -9 -38 -27 -101 -41 -140 -14 -38 -32 -88
-40 -110 -7 -22 -16 -47 -20 -55 -8 -20 -13 -39 -17 -70 -2 -13 -9 -26 -15
-28 -6 -2 -11 -17 -11 -32 0 -16 -5 -32 -10 -35 -6 -4 -8 -10 -5 -15 3 -4 -1
-37 -9 -72 -25 -110 -57 -232 -66 -253 -18 -43 -20 -73 -5 -79 16 -6 84 24 85
37 0 5 20 51 45 103 25 51 45 100 45 106 0 7 12 36 25 63 14 28 25 60 25 73 0
12 4 30 10 40 5 9 17 35 26 57 9 22 27 63 39 90 48 105 55 124 75 206 12 46
24 95 26 109 3 14 9 34 14 45 4 11 13 33 19 49 7 16 17 52 22 80 16 87 71 257
99 308 6 10 10 25 10 33 0 21 24 19 45 -5 10 -11 25 -20 33 -20 7 0 26 -8 40
-18 15 -10 52 -24 82 -31 30 -7 66 -20 78 -28 17 -11 43 -14 93 -10 l69 4 58
60 c51 53 60 59 81 50 17 -8 25 -7 32 4 13 22 11 30 -11 36 -21 5 -20 23 2 82
14 40 -7 49 -40 18 -15 -15 -33 -27 -39 -27 -6 0 -13 -6 -16 -14 -7 -17 -81
-36 -140 -36 -30 0 -51 7 -67 20 -13 11 -35 20 -50 20 -26 0 -90 51 -90 72 0
5 -19 27 -42 48 l-41 40 13 57 c8 32 20 69 27 83 7 14 13 32 13 40 0 9 5 21
11 27 5 5 11 22 13 36 3 32 67 157 80 157 12 0 76 -47 101 -76 19 -21 127 -64
161 -64 8 0 29 -7 47 -17 31 -16 149 -35 213 -35 50 0 114 21 114 37 0 8 6 15
13 15 20 0 48 35 42 52 -4 11 -39 17 -143 26 -187 15 -193 16 -224 33 -34 18
-135 114 -149 142 -7 12 -18 25 -24 29 -7 5 -27 33 -45 64 -30 55 -31 57 -16
94 14 35 13 42 -6 100 -18 53 -29 68 -70 97 -26 19 -48 39 -48 45 0 5 -9 6
-20 3 -12 -4 -27 -2 -34 4 -9 8 -23 2 -53 -24 -33 -28 -43 -32 -52 -22 -6 8
-34 26 -63 42 -29 16 -63 38 -75 49 -18 18 -54 28 -174 49 -9 2 -28 11 -43 20
-14 10 -26 14 -26 9z"/>
<path d="M939 2266 c-3 -3 -25 -6 -49 -8 -65 -3 -121 -25 -152 -59 -16 -17
-28 -33 -28 -35 0 -3 -15 -24 -34 -47 -19 -23 -35 -45 -36 -49 0 -4 -9 -26
-19 -49 l-19 -42 -27 29 c-15 16 -33 40 -42 54 -19 33 -85 75 -143 90 -37 10
-55 9 -107 -5 -35 -10 -69 -25 -76 -34 -6 -9 -24 -24 -38 -33 -25 -16 -26 -21
-29 -115 -5 -150 -1 -186 19 -213 10 -14 21 -35 25 -48 4 -12 12 -22 17 -22 6
0 8 -4 5 -8 -6 -10 46 -76 87 -110 15 -13 27 -30 27 -38 0 -8 5 -14 10 -14 11
0 77 -57 109 -92 8 -10 21 -18 27 -18 7 0 21 -11 32 -25 11 -14 25 -25 32 -25
12 0 77 -50 133 -102 49 -47 94 -33 124 39 7 18 18 33 23 33 6 0 10 7 10 15 0
15 44 101 66 125 7 8 22 42 34 75 12 33 29 65 36 71 8 6 14 21 14 32 0 11 5
24 10 27 15 9 107 206 121 258 14 52 4 231 -14 258 -37 51 -129 104 -148 85z
m4 -196 c11 -48 10 -74 -8 -126 -8 -25 -15 -51 -15 -59 0 -8 -9 -30 -20 -50
-11 -19 -19 -39 -18 -43 3 -11 -23 -56 -39 -65 -7 -5 -11 -12 -8 -17 7 -11
-44 -120 -56 -120 -5 0 -9 -13 -9 -28 0 -15 -4 -32 -9 -38 -4 -5 -16 -30 -26
-56 -16 -43 -35 -64 -35 -38 0 6 -6 10 -14 10 -8 0 -27 10 -42 23 -46 36 -154
147 -154 156 0 5 -6 16 -12 23 -7 7 -26 33 -43 58 -16 25 -49 70 -72 101 -24
30 -43 59 -43 64 0 5 -10 20 -22 33 l-23 24 27 23 28 24 48 -20 c26 -11 65
-37 87 -59 22 -21 46 -39 53 -40 7 0 12 -13 12 -30 0 -19 5 -30 14 -30 8 0 18
-9 21 -21 4 -11 9 -18 13 -15 3 4 18 -6 34 -21 21 -20 31 -24 39 -16 6 6 17 9
25 6 8 -3 16 10 24 39 6 23 15 52 19 63 5 11 14 40 21 65 7 25 19 59 28 75 9
17 16 36 16 42 1 20 75 91 99 96 40 8 51 2 60 -33z"/>
<path d="M2730 1615 c-10 -12 -9 -16 3 -21 19 -7 60 14 52 27 -9 14 -41 11
-55 -6z"/>
</g>
</svg>
