<?xml version="1.0" standalone="no"?>
<!DOCTYPE svg PUBLIC "-//W3C//DTD SVG 20010904//EN"
 "http://www.w3.org/TR/2001/REC-SVG-20010904/DTD/svg10.dtd">
<svg version="1.0" xmlns="http://www.w3.org/2000/svg"
 width="100.000000pt" height="131.122449pt" viewBox="0 0 100.000000 131.122449"
 preserveAspectRatio="xMidYMid meet">
<metadata>
Created by potrace 1.11, written by Peter Selinger 2001-2013
</metadata>
<g transform="translate(0.000000,131.122449) scale(0.051020,-0.051020)"
fill="#000000" stroke="none">
<path d="M1355 2439 c-3 -4 -11 -6 -18 -3 -18 7 -99 -31 -141 -66 -45 -38 -79
-78 -95 -115 -54 -120 -63 -147 -77 -220 -38 -197 -40 -463 -4 -612 11 -45 22
-117 24 -161 2 -44 9 -89 16 -101 6 -12 10 -32 8 -44 -1 -12 1 -28 6 -35 4 -7
9 -41 10 -75 0 -34 4 -66 7 -72 3 -5 6 -23 7 -40 1 -16 7 -34 12 -39 6 -6 10
-19 10 -31 0 -11 9 -44 20 -73 11 -29 20 -76 20 -106 0 -137 48 -270 123 -338
28 -27 55 -48 59 -48 5 0 8 -7 8 -14 0 -8 15 -26 33 -40 18 -14 39 -36 46 -50
12 -21 19 -23 60 -20 93 8 150 24 156 44 3 10 15 22 26 25 10 4 19 13 19 21 0
8 7 17 15 21 22 8 47 60 44 91 -2 15 9 50 24 79 27 53 41 120 57 273 5 47 14
101 19 120 6 19 11 66 11 105 0 38 4 86 10 105 5 19 11 71 14 115 12 206 19
281 29 293 5 6 6 12 1 12 -5 0 -10 42 -12 93 -2 50 -8 110 -14 132 -6 22 -13
81 -17 130 -3 50 -10 97 -16 105 -5 8 -13 38 -17 65 -16 115 -70 296 -89 303
-5 2 -9 9 -9 15 0 19 -63 75 -101 91 -19 8 -47 24 -63 37 -18 14 -46 23 -80
26 -28 2 -70 5 -94 7 -23 2 -45 0 -47 -5z m40 -175 c35 -19 103 -25 108 -10 7
22 56 -14 92 -69 54 -80 78 -187 90 -389 5 -85 10 -111 19 -118 5 -3 9 -145 8
-325 0 -420 -19 -677 -58 -818 -9 -33 -19 -70 -21 -83 -3 -12 -9 -25 -14 -28
-5 -3 -9 -14 -9 -25 0 -26 -64 -89 -89 -89 -11 0 -26 -3 -34 -6 -23 -8 -127
160 -127 205 0 10 -6 23 -13 29 -7 6 -14 27 -15 47 -2 21 -9 62 -17 93 -8 31
-15 66 -15 77 0 12 -3 25 -6 28 -4 3 -9 37 -11 74 -3 37 -8 72 -13 78 -8 11
-13 37 -30 155 -6 41 -20 111 -31 155 -42 165 -47 215 -45 436 3 259 26 449
61 485 5 6 21 26 34 46 25 36 65 66 91 67 8 0 29 -6 45 -15z"/>
<path d="M1607 763 c-4 -3 -7 -17 -7 -30 0 -16 6 -23 20 -23 13 0 20 7 20 19
0 21 -23 45 -33 34z"/>
<path d="M549 2311 c-16 -16 -29 -36 -29 -44 0 -8 -9 -22 -20 -32 -11 -10 -20
-23 -20 -29 0 -6 -23 -46 -50 -88 -28 -43 -50 -84 -50 -93 0 -9 -13 -30 -30
-48 -16 -18 -30 -36 -30 -41 0 -4 -11 -17 -24 -27 -33 -26 -96 -141 -96 -174
0 -46 17 -65 59 -65 27 0 45 7 62 25 36 37 59 64 59 70 0 3 21 37 48 76 26 39
55 86 65 105 19 38 28 41 51 19 15 -15 25 -64 30 -141 2 -21 8 -57 14 -80 7
-22 16 -97 22 -165 5 -68 14 -151 20 -184 5 -33 12 -99 15 -147 2 -48 10 -109
16 -135 6 -26 12 -128 14 -226 3 -97 8 -185 13 -195 5 -9 12 -101 15 -204 6
-210 7 -207 -65 -213 -24 -1 -69 -6 -100 -10 -36 -5 -69 -3 -93 5 -20 7 -47 9
-60 6 -31 -8 -61 -62 -45 -81 8 -10 8 -15 -1 -20 -7 -5 1 -15 22 -29 31 -19
49 -21 219 -23 102 -1 199 -4 216 -8 17 -3 42 -1 55 3 13 5 33 6 44 2 11 -4
26 -3 34 4 8 6 15 9 15 7 2 -9 125 13 162 29 34 15 42 24 48 53 13 68 -1 76
-139 77 -49 1 -105 6 -124 13 l-34 12 -4 125 c-2 69 -10 161 -18 205 -8 44
-19 168 -25 275 -6 107 -13 206 -15 220 -2 14 -7 75 -10 135 -4 61 -10 137
-15 170 -26 179 -41 272 -46 285 -11 31 -32 191 -27 210 3 11 0 34 -6 51 -6
18 -16 92 -21 165 -11 150 -15 164 -40 164 -11 0 -22 5 -25 10 -10 17 -25 11
-56 -19z"/>
</g>
</svg>
