<?xml version="1.0" standalone="no"?>
<!DOCTYPE svg PUBLIC "-//W3C//DTD SVG 20010904//EN"
 "http://www.w3.org/TR/2001/REC-SVG-20010904/DTD/svg10.dtd">
<svg version="1.0" xmlns="http://www.w3.org/2000/svg"
 width="100.000000pt" height="134.343434pt" viewBox="0 0 100.000000 134.343434"
 preserveAspectRatio="xMidYMid meet">
<metadata>
Created by potrace 1.11, written by Peter Selinger 2001-2013
</metadata>
<g transform="translate(0.000000,134.343434) scale(0.050505,-0.050505)"
fill="#000000" stroke="none">
<path d="M1140 2533 c-47 -9 -46 -8 -71 -163 -6 -36 -13 -135 -14 -220 -4
-183 -11 -279 -24 -329 -9 -33 -32 -351 -46 -631 -5 -109 2 -219 25 -355 5
-33 12 -88 15 -121 3 -34 12 -77 19 -96 8 -19 18 -59 22 -89 4 -30 10 -58 14
-64 4 -5 13 -46 21 -89 12 -68 21 -89 61 -145 26 -36 60 -79 75 -95 26 -28 28
-28 102 -22 71 7 170 43 196 72 6 6 28 24 50 40 43 31 85 74 85 87 0 4 5 13
10 20 41 48 90 124 95 147 3 16 13 34 21 41 8 6 14 17 14 24 0 7 9 23 19 37
11 13 24 44 30 68 7 25 16 54 20 65 5 11 16 36 24 55 16 35 21 66 33 198 5 53
3 80 -7 100 -25 50 -101 132 -135 147 -77 32 -189 29 -299 -7 -61 -20 -175
-81 -175 -92 0 -7 -20 -27 -45 -45 -25 -18 -45 -37 -45 -42 0 -13 -60 -77 -60
-64 -6 146 3 661 14 780 3 33 8 96 11 140 3 44 9 109 14 145 6 36 13 115 17
175 3 61 12 146 19 190 12 75 12 82 -7 113 -20 33 -34 36 -98 25z m553 -1493
c7 -6 23 -19 37 -29 23 -18 24 -24 25 -117 0 -81 -4 -109 -23 -154 -13 -30
-27 -64 -31 -75 -28 -75 -99 -198 -131 -231 -22 -21 -39 -44 -40 -50 0 -21
-66 -72 -100 -77 -19 -3 -54 -9 -77 -12 -38 -7 -43 -5 -43 11 0 11 -10 30 -22
44 -14 15 -24 40 -25 63 -1 21 -9 49 -17 62 -17 25 -28 84 -28 147 0 27 9 49
31 77 17 21 31 42 31 45 0 10 52 87 78 114 12 14 22 30 22 36 0 14 44 56 58
56 6 0 17 8 24 18 39 55 194 103 231 72z"/>
<path d="M395 2508 c-12 -5 -29 -26 -38 -46 -10 -20 -24 -48 -32 -62 -8 -14
-15 -32 -15 -40 0 -9 -13 -29 -28 -46 -16 -17 -36 -47 -45 -65 -8 -19 -24 -43
-34 -54 -23 -25 -113 -174 -113 -187 0 -24 32 -65 64 -82 l36 -19 38 30 c20
16 49 51 63 76 14 26 32 53 40 60 9 6 21 31 27 53 14 48 39 65 47 31 7 -30 18
-477 15 -602 -6 -211 0 -498 15 -710 8 -103 14 -263 15 -390 2 -178 8 -160
-58 -178 -37 -11 -80 -15 -123 -12 -66 4 -67 4 -109 -35 -45 -42 -45 -40 -13
-126 22 -62 46 -69 146 -42 45 12 120 24 167 28 79 6 158 22 205 41 11 4 40
12 65 18 141 31 174 46 178 84 2 15 -1 27 -7 27 -6 0 -11 6 -11 13 -2 48 -72
65 -182 42 -57 -13 -73 -13 -80 -3 -4 7 -8 56 -8 108 -1 52 -3 111 -6 130 -2
19 -6 229 -9 465 -2 237 -7 448 -9 470 -8 72 -17 237 -21 395 -10 358 -15 487
-21 523 -7 45 -32 97 -48 102 -31 9 -93 11 -111 3z"/>
</g>
</svg>
