<?xml version="1.0" standalone="no"?>
<!DOCTYPE svg PUBLIC "-//W3C//DTD SVG 20010904//EN"
 "http://www.w3.org/TR/2001/REC-SVG-20010904/DTD/svg10.dtd">
<svg version="1.0" xmlns="http://www.w3.org/2000/svg"
 width="100.000000pt" height="190.265487pt" viewBox="0 0 100.000000 190.265487"
 preserveAspectRatio="xMidYMid meet">
<metadata>
Created by potrace 1.11, written by Peter Selinger 2001-2013
</metadata>
<g transform="translate(0.000000,190.265487) scale(0.088496,-0.088496)"
fill="#000000" stroke="none">
<path d="M805 2033 c-38 -20 -45 -30 -95 -125 -23 -43 -45 -78 -50 -78 -5 0
-15 7 -24 15 -8 8 -19 15 -25 15 -6 0 -11 5 -11 10 0 31 -199 71 -291 58 -72
-10 -102 -26 -124 -68 -9 -17 -20 -30 -25 -30 -5 0 -14 -19 -20 -42 -6 -24
-15 -51 -20 -60 -14 -25 -29 -175 -23 -238 4 -52 15 -82 70 -192 12 -27 23
-53 23 -58 0 -6 5 -16 11 -23 5 -7 18 -26 28 -43 27 -44 104 -105 148 -115 58
-13 222 7 253 32 40 31 70 43 79 33 8 -9 44 -277 43 -319 -1 -11 5 -47 12 -80
8 -33 14 -105 15 -159 1 -55 4 -102 6 -105 2 -4 8 -76 14 -161 13 -173 19
-209 44 -224 13 -8 21 -6 37 12 11 12 27 22 35 22 16 0 20 16 7 24 -5 3 -10
26 -10 52 -1 25 -5 51 -9 57 -3 6 -8 62 -10 126 -3 64 -8 168 -13 231 -9 108
-13 141 -26 215 -3 17 -7 75 -9 130 -1 55 -7 145 -13 200 -10 99 -10 100 16
140 44 67 89 166 102 225 5 19 16 55 26 80 10 27 18 79 19 131 1 47 5 92 10
98 4 7 0 20 -9 30 -9 10 -16 29 -16 42 0 14 -9 44 -20 67 -11 22 -20 46 -20
52 0 26 -97 43 -135 23z m71 -160 c8 -21 17 -58 19 -83 6 -83 -32 -267 -60
-290 -8 -7 -15 -21 -15 -31 0 -11 -6 -19 -12 -19 -18 0 -23 354 -7 390 7 14
16 35 22 48 15 33 35 27 53 -15z m-413 -58 c54 -12 114 -47 191 -108 27 -22
29 -28 32 -113 3 -49 5 -96 5 -104 0 -8 5 -53 10 -99 10 -83 1 -141 -22 -141
-5 0 -18 -8 -28 -17 -52 -48 -83 -60 -171 -66 -41 -4 -75 -1 -95 8 -42 18 -91
73 -105 120 -7 22 -16 47 -21 55 -56 100 -61 122 -56 235 3 69 9 111 16 113 6
2 11 10 11 18 0 18 44 89 62 100 18 11 81 22 98 17 8 -2 41 -10 73 -18z"/>
</g>
</svg>
