<?xml version="1.0" standalone="no"?>
<!DOCTYPE svg PUBLIC "-//W3C//DTD SVG 20010904//EN"
 "http://www.w3.org/TR/2001/REC-SVG-20010904/DTD/svg10.dtd">
<svg version="1.0" xmlns="http://www.w3.org/2000/svg"
 width="100.000000pt" height="129.901961pt" viewBox="0 0 100.000000 129.901961"
 preserveAspectRatio="xMidYMid meet">
<metadata>
Created by potrace 1.11, written by Peter Selinger 2001-2013
</metadata>
<g transform="translate(0.000000,129.901961) scale(0.049020,-0.049020)"
fill="#000000" stroke="none">
<path d="M1380 2508 c-16 -22 -30 -46 -30 -52 0 -6 -15 -23 -33 -37 -18 -15
-50 -62 -76 -113 -24 -48 -54 -95 -67 -105 -38 -30 -134 -183 -134 -213 0 -15
5 -39 12 -53 19 -43 64 -29 148 45 38 35 70 69 70 76 0 8 4 14 8 14 4 0 23 28
41 63 49 92 60 105 71 87 5 -8 10 -22 10 -30 7 -532 11 -657 19 -715 8 -62 13
-181 13 -330 0 -27 5 -93 10 -145 11 -101 15 -178 24 -410 3 -80 6 -158 7
-174 3 -39 -34 -50 -108 -30 -70 18 -110 9 -136 -28 -25 -34 -22 -92 6 -134
14 -21 24 -25 68 -25 29 0 104 -1 167 -3 63 -1 122 1 131 6 9 4 33 10 53 12
19 2 40 7 45 10 5 3 47 8 93 11 162 9 188 32 161 140 -23 89 -30 92 -139 52
-36 -13 -93 -21 -131 -18 -6 1 -11 9 -11 19 1 20 -19 173 -32 252 -5 30 -12
156 -16 280 -3 124 -10 279 -16 345 -6 66 -12 163 -14 215 -3 94 -5 128 -25
455 -9 146 -8 184 6 272 22 135 14 213 -27 266 -28 35 -33 37 -84 37 -52 0
-55 -2 -84 -42z"/>
<path d="M515 2453 c-33 -8 -65 -44 -77 -87 -6 -23 -23 -59 -38 -81 -14 -22
-29 -47 -33 -55 -4 -8 -20 -37 -36 -65 -16 -27 -43 -75 -59 -105 -17 -30 -44
-70 -60 -88 -34 -38 -45 -88 -29 -131 10 -26 15 -29 53 -29 31 0 48 6 63 21
11 12 36 38 54 57 28 29 77 116 77 135 0 3 12 24 26 47 31 49 42 40 43 -38 0
-29 10 -93 21 -141 11 -49 20 -113 20 -143 -1 -30 4 -156 10 -280 6 -124 13
-299 15 -390 7 -225 13 -335 25 -399 12 -64 13 -248 2 -254 -4 -3 -49 -8 -100
-11 -52 -4 -122 -16 -158 -28 -80 -26 -95 -49 -70 -102 18 -39 41 -47 146 -52
36 -2 81 -5 100 -7 94 -11 292 -29 330 -30 109 -3 240 43 240 85 0 20 -12 65
-31 116 -11 29 -36 39 -60 24 -28 -18 -200 -6 -216 14 -6 9 -14 44 -17 77 -10
113 -17 221 -18 267 0 25 -5 144 -10 265 -6 121 -12 258 -13 305 -1 47 -5 184
-8 305 -18 636 -21 686 -46 725 -20 32 -42 49 -63 50 -9 0 -18 5 -20 12 -5 13
-33 18 -63 11z"/>
</g>
</svg>
