<?xml version="1.0" standalone="no"?>
<!DOCTYPE svg PUBLIC "-//W3C//DTD SVG 20010904//EN"
 "http://www.w3.org/TR/2001/REC-SVG-20010904/DTD/svg10.dtd">
<svg version="1.0" xmlns="http://www.w3.org/2000/svg"
 width="100.000000pt" height="99.137931pt" viewBox="0 0 100.000000 99.137931"
 preserveAspectRatio="xMidYMid meet">
<metadata>
Created by potrace 1.11, written by Peter Selinger 2001-2013
</metadata>
<g transform="translate(0.000000,99.137931) scale(0.043103,-0.043103)"
fill="#000000" stroke="none">
<path d="M1666 2182 c-4 -7 -25 -12 -46 -12 -21 0 -42 -5 -46 -11 -3 -6 -15
-9 -25 -6 -27 7 -122 -34 -181 -79 -60 -46 -134 -121 -185 -186 -21 -27 -42
-48 -48 -48 -6 0 -26 -29 -44 -65 -19 -36 -39 -65 -45 -65 -7 0 -21 8 -32 18
-10 10 -30 25 -44 35 -14 10 -47 38 -75 62 -60 55 -153 115 -218 141 -43 17
-47 21 -42 45 7 32 -24 52 -32 21 -4 -16 -13 -18 -63 -14 -154 11 -325 -57
-375 -151 -7 -12 -31 -57 -53 -99 l-42 -76 -1 -124 c-1 -105 2 -130 20 -171
12 -27 21 -59 21 -72 0 -13 4 -27 10 -30 5 -3 10 -15 10 -27 0 -11 13 -47 30
-80 16 -32 30 -67 30 -77 0 -10 11 -26 24 -34 13 -9 32 -33 42 -54 21 -43 46
-79 87 -128 15 -18 27 -36 27 -41 0 -13 222 -224 237 -224 7 0 13 -7 13 -15 0
-8 3 -15 8 -15 4 0 41 -32 82 -71 41 -38 88 -77 105 -85 16 -8 44 -26 60 -40
17 -14 50 -43 74 -63 25 -20 54 -45 66 -56 102 -96 178 -147 201 -138 7 2 15
0 19 -6 10 -18 25 -13 36 12 6 12 22 28 37 35 15 7 43 36 62 65 19 28 45 63
57 76 13 13 23 29 23 36 0 7 16 23 34 36 21 14 54 57 82 104 26 44 58 97 73
118 59 86 101 154 112 180 6 15 17 27 25 27 8 0 19 10 24 23 6 12 18 34 28 48
49 74 93 153 98 177 4 15 10 32 14 37 5 6 16 37 25 70 9 33 34 112 55 175 63
191 63 186 45 469 -3 56 -9 79 -25 96 -11 12 -20 26 -20 31 0 6 -13 23 -30 39
-16 16 -30 31 -30 35 0 3 -21 29 -47 57 -51 55 -117 83 -194 83 -21 0 -39 5
-41 12 -3 9 -6 9 -12 0z m94 -227 c46 -24 80 -67 80 -104 0 -12 3 -21 8 -21 9
0 28 -45 36 -85 21 -111 16 -158 -37 -310 -49 -142 -77 -231 -77 -245 0 -7 -9
-32 -19 -54 -11 -23 -31 -76 -45 -118 -13 -43 -32 -85 -40 -94 -9 -8 -16 -26
-16 -38 0 -13 -9 -31 -20 -41 -11 -10 -20 -26 -20 -35 0 -17 -56 -102 -72
-108 -4 -2 -8 -10 -8 -17 0 -8 -6 -20 -12 -27 -56 -59 -141 -165 -148 -184
-10 -25 -172 -184 -181 -178 -6 3 -14 17 -19 30 -6 14 -18 24 -29 24 -11 0
-27 10 -36 23 -8 12 -86 94 -173 183 -86 88 -191 198 -232 244 -41 46 -99 106
-127 135 -29 28 -53 55 -53 59 0 5 -21 36 -46 70 -26 33 -59 88 -74 121 -15
34 -34 67 -42 75 -8 8 -34 51 -57 95 -48 89 -50 106 -31 245 13 92 52 186 85
204 11 6 24 16 30 22 5 7 22 14 36 18 30 7 128 -8 138 -20 3 -5 12 -10 20 -12
8 -2 22 -14 33 -27 10 -13 34 -27 53 -31 19 -3 35 -12 35 -20 0 -7 16 -20 35
-30 19 -9 58 -38 87 -65 29 -27 79 -68 111 -91 48 -35 57 -46 53 -64 -3 -13
-2 -34 4 -49 9 -23 15 -26 47 -23 28 2 41 9 51 28 7 14 22 39 32 55 11 17 38
65 60 109 37 71 89 143 146 200 33 34 121 106 129 106 4 0 30 14 58 31 27 17
63 31 79 31 16 1 31 5 34 10 8 13 84 -3 134 -27z"/>
<path d="M1142 1438 c-7 -7 -12 -17 -12 -23 0 -7 -9 -22 -19 -34 -11 -13 -17
-30 -14 -42 9 -32 -91 -220 -139 -265 -36 -33 -40 -40 -34 -72 7 -43 20 -59
38 -45 7 6 34 14 61 18 37 6 47 11 47 26 0 10 16 36 35 58 19 21 35 43 35 49
0 6 4 13 9 16 4 3 8 -7 8 -22 0 -15 1 -38 1 -52 1 -14 1 -34 1 -45 0 -11 2
-66 7 -122 l7 -103 -30 0 c-17 0 -64 -11 -104 -24 -71 -23 -74 -26 -83 -62
-13 -57 6 -67 119 -61 78 5 130 11 130 17 0 1 20 4 45 6 91 8 265 37 278 47 6
5 12 16 12 23 0 19 -36 54 -56 54 -9 0 -27 11 -39 24 -19 21 -27 23 -71 16
-51 -8 -68 -5 -59 11 13 19 4 335 -11 434 -3 22 -7 55 -8 73 -2 37 -38 82 -65
82 -9 0 -21 4 -26 9 -18 16 -51 21 -63 9z"/>
</g>
</svg>
