<?xml version="1.0" standalone="no"?>
<!DOCTYPE svg PUBLIC "-//W3C//DTD SVG 20010904//EN"
 "http://www.w3.org/TR/2001/REC-SVG-20010904/DTD/svg10.dtd">
<svg version="1.0" xmlns="http://www.w3.org/2000/svg"
 width="100.000000pt" height="77.401130pt" viewBox="0 0 100.000000 77.401130"
 preserveAspectRatio="xMidYMid meet">
<metadata>
Created by potrace 1.11, written by Peter Selinger 2001-2013
</metadata>
<g transform="translate(0.000000,77.401130) scale(0.056497,-0.056497)"
fill="#000000" stroke="none">
<path d="M353 1281 c-40 -19 -111 -85 -161 -151 -28 -36 -39 -98 -23 -128 7
-14 8 -23 1 -27 -17 -10 -11 -25 15 -37 21 -9 28 -8 45 7 11 10 20 23 20 29 0
12 50 66 63 66 11 0 37 26 37 37 0 29 101 74 128 57 16 -11 30 -80 33 -163 2
-78 28 -99 129 -108 126 -11 171 -71 172 -230 0 -57 -4 -108 -11 -120 -6 -12
-11 -29 -11 -38 0 -26 -99 -168 -134 -192 -104 -73 -217 -103 -256 -68 -17 16
-25 17 -58 7 -20 -7 -48 -20 -61 -31 -20 -15 -23 -24 -17 -55 5 -28 12 -36 29
-38 77 -6 99 -5 162 8 157 33 201 48 255 86 61 44 86 73 150 173 25 39 47 72
50 75 9 7 28 131 35 216 4 53 0 87 -16 140 -11 38 -21 78 -22 88 -4 44 -87
102 -180 125 -80 21 -77 16 -90 142 -3 26 -12 58 -22 72 -19 30 -67 57 -101
57 -13 0 -26 5 -29 10 -10 16 -87 11 -132 -9z"/>
<path d="M1371 1216 c-6 -8 -37 -17 -69 -21 -55 -6 -60 -10 -129 -81 -40 -42
-76 -87 -79 -102 -3 -15 -10 -38 -16 -52 -30 -69 -68 -188 -68 -213 0 -16 10
-61 22 -100 23 -75 47 -106 110 -138 21 -11 42 -28 48 -39 24 -44 164 -50 221
-9 15 10 34 19 42 19 21 0 87 46 123 85 55 60 98 136 106 189 22 135 21 159
-8 231 -15 39 -33 76 -41 83 -7 7 -13 18 -13 23 0 5 -6 9 -13 9 -7 0 -26 13
-42 29 -23 25 -157 101 -177 101 -3 0 -11 -6 -17 -14z m115 -179 c81 -85 95
-186 39 -297 -27 -53 -83 -120 -101 -120 -6 0 -28 -9 -50 -19 -26 -13 -55 -19
-89 -17 -99 6 -138 48 -138 150 0 53 20 157 33 166 3 3 21 30 39 61 39 64 110
118 124 93 7 -12 12 -12 38 3 16 9 29 21 29 25 0 20 28 3 76 -45z"/>
</g>
</svg>
