<?xml version="1.0" standalone="no"?>
<!DOCTYPE svg PUBLIC "-//W3C//DTD SVG 20010904//EN"
 "http://www.w3.org/TR/2001/REC-SVG-20010904/DTD/svg10.dtd">
<svg version="1.0" xmlns="http://www.w3.org/2000/svg"
 width="100.000000pt" height="225.957447pt" viewBox="0 0 100.000000 225.957447"
 preserveAspectRatio="xMidYMid meet">
<metadata>
Created by potrace 1.11, written by Peter Selinger 2001-2013
</metadata>
<g transform="translate(0.000000,225.957447) scale(0.042553,-0.042553)"
fill="#000000" stroke="none">
<path d="M1158 5225 c-5 -5 -23 -7 -268 -26 -80 -6 -152 -14 -160 -19 -9 -4
-35 -11 -59 -15 -29 -5 -53 -18 -77 -41 -49 -49 -52 -75 -19 -145 l29 -59 48
0 49 0 -5 -57 c-21 -226 -17 -278 27 -443 9 -30 15 -56 13 -57 -1 -1 -35 -5
-76 -8 -41 -4 -92 -13 -115 -21 -22 -8 -61 -22 -86 -30 -26 -8 -51 -20 -57
-27 -29 -35 -49 -140 -36 -188 6 -22 87 -42 135 -34 20 4 39 3 42 -2 3 -5 51
-8 106 -8 96 1 101 0 102 -19 6 -172 11 -209 44 -356 9 -41 14 -89 12 -107 -4
-19 -1 -33 6 -36 7 -2 9 -8 5 -12 -4 -4 -43 0 -85 9 -117 25 -186 29 -276 17
-150 -21 -158 -24 -267 -131 -55 -54 -100 -104 -100 -112 0 -9 -10 -30 -23
-49 -13 -19 -33 -66 -46 -105 -21 -65 -22 -86 -19 -240 1 -93 7 -176 13 -184
5 -8 11 -23 12 -34 5 -32 65 -149 94 -186 51 -64 99 -130 99 -138 0 -24 193
-182 223 -182 8 0 36 -19 61 -41 26 -23 60 -49 76 -58 48 -26 223 -148 255
-178 29 -26 31 -35 43 -141 10 -101 28 -186 52 -247 5 -11 11 -29 13 -40 9
-33 68 -198 79 -220 6 -11 19 -29 29 -41 11 -11 29 -47 40 -79 11 -32 29 -69
39 -82 10 -13 22 -37 25 -53 4 -17 10 -30 15 -30 5 0 12 -9 15 -21 4 -12 14
-29 23 -39 24 -29 62 -130 62 -166 0 -18 4 -43 9 -56 15 -42 -4 -211 -30 -265
-20 -40 -24 -61 -21 -128 3 -117 44 -187 117 -201 48 -9 70 13 90 89 26 102
15 210 -39 362 -30 86 -42 221 -23 244 18 20 47 96 47 120 0 10 16 49 35 87
19 37 35 81 35 97 0 15 5 38 11 49 6 11 13 35 16 52 3 17 9 39 15 49 5 11 11
74 12 141 2 71 8 131 15 145 7 12 12 41 11 64 -3 59 -2 59 23 87 12 14 42 50
66 80 24 30 77 87 118 126 40 40 73 76 73 82 0 5 6 12 14 15 7 3 31 40 52 81
20 42 41 76 46 76 4 0 8 9 8 19 0 10 7 21 15 25 8 3 15 12 15 20 0 7 6 16 14
19 7 3 18 25 24 49 6 25 21 56 32 71 12 15 23 35 25 46 2 11 12 28 22 39 36
37 63 77 63 92 0 9 7 26 16 39 27 37 78 221 79 281 0 30 5 61 10 69 4 8 10 72
11 142 2 100 0 130 -11 139 -8 7 -17 28 -21 49 -3 20 -12 50 -20 68 -8 17 -14
38 -14 47 0 34 -43 100 -113 172 -67 69 -78 77 -152 100 -139 44 -277 43 -365
-3 -14 -7 -33 -13 -43 -13 -11 0 -44 -13 -74 -30 -30 -16 -58 -30 -62 -30 -4
0 -8 57 -9 128 -2 70 -4 194 -6 275 l-4 148 26 10 c14 6 67 9 118 7 90 -3 93
-2 123 26 47 45 48 79 5 159 -20 38 -46 72 -58 77 -49 19 -151 37 -163 28 -6
-5 -33 -8 -60 -6 l-48 3 5 45 c12 134 -9 369 -36 401 -8 9 -12 18 -9 21 3 3
-2 21 -10 41 -22 53 -20 70 5 55 17 -11 22 -10 30 2 13 20 13 47 0 55 -5 3
-10 32 -10 63 0 70 -15 99 -60 123 -32 18 -90 25 -102 14z m0 -121 c50 -8 38
-22 -25 -27 -32 -3 -78 -10 -103 -16 -25 -6 -74 -13 -110 -16 -36 -3 -85 -8
-110 -12 -63 -9 -111 -6 -123 6 -8 8 -6 11 6 11 10 0 32 7 49 16 17 9 58 18
92 19 60 4 94 8 170 23 40 7 92 6 154 -4z m-47 -171 c17 -21 49 -78 49 -87 0
-4 -34 -6 -75 -5 -41 1 -75 5 -75 9 0 4 -31 21 -70 36 -38 16 -70 32 -70 36 0
4 26 8 58 8 31 0 75 4 97 9 61 13 71 12 86 -6z m-232 -95 c25 -12 48 -24 51
-27 3 -3 19 -12 35 -20 17 -7 39 -18 49 -23 11 -6 54 -13 97 -17 43 -4 80 -9
83 -12 3 -3 8 -31 12 -63 l7 -59 -34 7 c-19 3 -75 10 -124 15 -50 5 -108 16
-130 25 -44 19 -85 53 -85 72 0 7 -7 25 -17 41 -10 19 -14 39 -9 56 8 33 8 33
65 5z m-12 -222 c27 -14 85 -32 128 -41 43 -8 86 -20 96 -25 10 -6 31 -10 48
-10 16 0 33 -5 36 -10 4 -6 15 -8 26 -5 16 5 19 1 19 -27 0 -61 -5 -62 -132
-49 -62 6 -129 17 -148 25 -19 7 -49 18 -66 25 -25 10 -35 22 -48 63 -15 47
-20 78 -13 78 2 0 26 -11 54 -24z m90 -220 c24 -4 28 -26 6 -28 -50 -4 -59 -4
-70 5 -7 5 -13 20 -13 32 0 23 1 23 30 8 17 -8 38 -16 47 -17z m529 -118 c6
-4 23 -5 37 -3 27 5 46 -10 31 -25 -5 -5 -47 -11 -94 -15 -209 -14 -428 -35
-461 -45 -20 -5 -72 -10 -115 -10 -44 0 -117 -5 -164 -11 -102 -14 -239 -19
-245 -9 -17 27 196 78 360 85 102 5 160 10 160 14 0 1 47 4 105 6 117 5 168
10 174 16 7 7 200 4 212 -3z m-238 -243 c1 -27 10 -84 18 -125 9 -41 18 -147
20 -235 3 -88 9 -174 15 -191 12 -38 3 -63 -26 -74 -14 -5 -26 -20 -29 -37 -4
-16 -18 -41 -31 -56 -14 -14 -25 -30 -25 -34 0 -11 -46 -63 -55 -63 -4 0 -5
23 -2 51 4 30 0 83 -8 127 -8 43 -15 113 -15 157 0 44 -4 96 -10 115 -19 73
-47 377 -37 404 5 12 23 14 94 13 l88 -2 3 -50z m-267 -22 c0 -32 5 -80 10
-108 22 -111 41 -265 44 -360 4 -104 7 -128 18 -157 13 -34 16 -48 11 -48 -8
0 -34 28 -34 37 0 10 -59 57 -81 65 -18 7 -29 74 -18 105 7 20 -4 107 -28 228
-18 89 -24 238 -12 273 7 18 16 22 49 22 l40 0 1 -57z m963 -542 c32 -19 61
-44 66 -57 5 -13 15 -24 23 -24 42 0 115 -216 117 -345 1 -74 -47 -265 -81
-323 -10 -18 -19 -41 -19 -50 0 -24 -50 -119 -116 -219 -19 -28 -34 -54 -34
-58 0 -3 -10 -21 -23 -38 -27 -40 -41 -62 -66 -107 -10 -19 -31 -48 -45 -63
-14 -15 -26 -30 -26 -33 0 -3 -19 -30 -42 -61 -24 -31 -55 -72 -70 -92 -15
-20 -44 -60 -64 -90 -20 -30 -66 -85 -103 -122 -36 -37 -76 -80 -88 -95 l-22
-29 -54 58 c-29 31 -58 57 -65 57 -6 0 -37 23 -69 51 -32 28 -74 59 -93 69
-19 10 -66 44 -105 75 -38 31 -85 63 -102 72 -18 8 -45 27 -60 42 -16 15 -46
38 -68 51 -22 14 -46 30 -53 37 -8 8 -27 20 -43 29 -36 18 -50 30 -135 112
-35 34 -69 62 -74 62 -6 0 -10 5 -10 11 0 14 -54 84 -95 124 -60 58 -143 222
-157 310 -11 70 -10 152 1 174 5 9 12 45 16 81 7 59 49 180 64 180 3 0 22 14
41 30 19 16 39 30 43 30 5 0 22 14 39 31 17 16 37 28 44 25 7 -3 16 -1 19 5
13 19 79 39 134 39 103 0 158 -23 231 -99 92 -94 152 -167 165 -199 7 -15 19
-33 28 -41 23 -18 47 -69 47 -98 0 -13 12 -35 26 -48 15 -14 24 -31 21 -39 -8
-20 27 -49 51 -42 17 6 20 0 25 -65 7 -78 24 -114 65 -132 15 -6 51 -27 81
-45 51 -32 57 -34 125 -29 39 3 83 8 98 12 26 7 26 7 21 -36 -3 -24 -12 -82
-20 -129 -27 -162 -27 -185 -2 -209 13 -11 32 -21 44 -21 25 0 38 22 59 100 8
30 21 78 29 107 8 28 18 88 22 132 4 45 10 81 14 81 15 0 27 98 22 175 -5 69
-9 80 -26 84 -11 2 -36 16 -56 32 -20 16 -41 29 -45 29 -5 0 -35 13 -66 28
-95 47 -220 31 -311 -40 l-37 -29 28 78 c16 43 46 115 67 161 35 75 40 81 55
67 33 -30 59 -11 64 45 3 30 19 85 26 90 4 3 28 23 54 45 57 47 107 69 271
115 60 17 138 6 199 -29z m-445 -606 c77 -35 83 -39 95 -58 7 -12 8 -20 1 -25
-6 -4 -16 -19 -24 -34 -8 -16 -18 -28 -23 -28 -5 0 -21 -9 -36 -19 -24 -18
-32 -19 -72 -8 -68 19 -139 54 -146 72 -4 9 -1 34 5 56 10 34 17 40 59 53 65
20 77 19 141 -9z m-424 -1151 c17 -15 41 -34 55 -43 65 -42 80 -63 80 -110 1
-25 14 -134 30 -241 15 -107 25 -199 21 -203 -10 -10 -34 27 -51 78 -15 48
-57 134 -75 155 -22 25 -104 325 -105 383 0 13 15 7 45 -19z m271 -231 c50
-40 65 -87 59 -181 -7 -105 -71 -322 -96 -322 -4 0 -13 9 -19 20 -8 16 -6 21
11 31 21 11 22 15 15 148 -3 75 -10 163 -16 196 -26 171 -28 168 46 108z m22
-1126 c10 -76 1 -149 -20 -172 -12 -13 -29 16 -44 75 -11 41 -10 51 13 105 29
68 34 78 38 73 2 -2 8 -38 13 -81z"/>
<path d="M774 2956 c-51 -12 -124 -51 -124 -65 0 -4 -11 -21 -24 -36 -13 -15
-30 -40 -37 -54 -7 -14 -19 -33 -26 -42 -16 -20 -7 -72 16 -92 9 -8 28 -17 44
-21 21 -5 29 -2 34 11 4 10 16 32 28 48 13 17 27 44 32 60 5 17 27 42 50 59
40 28 41 28 74 12 41 -21 82 -81 76 -113 -2 -13 2 -31 9 -40 23 -31 13 -223
-12 -223 -6 0 -40 19 -84 46 -19 12 -59 24 -89 28 -29 3 -59 10 -66 16 -32 27
-96 -56 -109 -139 -5 -34 -2 -53 16 -89 12 -26 27 -53 34 -62 7 -8 21 -26 32
-39 16 -20 29 -24 94 -29 71 -4 80 -2 149 31 71 36 73 36 87 16 7 -11 20 -25
29 -32 8 -7 26 -23 39 -36 21 -21 28 -23 49 -13 14 6 25 16 25 20 0 5 10 7 23
5 15 -3 26 3 35 17 11 18 9 25 -15 58 -40 53 -50 62 -67 62 -9 0 -22 10 -30
23 -15 23 -13 39 25 152 17 53 23 153 10 198 -40 138 -46 151 -96 203 -42 42
-60 53 -103 63 -62 13 -62 13 -128 -3z m-17 -538 c16 -7 44 -26 63 -41 l33
-28 -20 -21 c-24 -24 -76 -32 -104 -18 -10 6 -26 24 -35 41 -14 28 -14 33 1
55 18 28 22 28 62 12z"/>
<path d="M1504 989 c-3 -6 -1 -16 5 -22 8 -8 11 -5 11 11 0 24 -5 28 -16 11z"/>
</g>
</svg>
