<?xml version="1.0" standalone="no"?>
<!DOCTYPE svg PUBLIC "-//W3C//DTD SVG 20010904//EN"
 "http://www.w3.org/TR/2001/REC-SVG-20010904/DTD/svg10.dtd">
<svg version="1.0" xmlns="http://www.w3.org/2000/svg"
 width="100.000000pt" height="95.454545pt" viewBox="0 0 100.000000 95.454545"
 preserveAspectRatio="xMidYMid meet">
<metadata>
Created by potrace 1.11, written by Peter Selinger 2001-2013
</metadata>
<g transform="translate(0.000000,95.454545) scale(0.045455,-0.045455)"
fill="#000000" stroke="none">
<path d="M634 1999 c-3 -6 0 -15 7 -20 22 -14 29 -11 29 11 0 21 -24 27 -36 9z"/>
<path d="M550 1963 c-14 -3 -32 -11 -41 -19 -9 -8 -33 -19 -53 -25 -26 -7 -67
-41 -146 -119 -61 -61 -110 -116 -110 -123 0 -7 -14 -31 -30 -54 -18 -24 -33
-59 -36 -86 -6 -43 -5 -47 32 -81 35 -33 63 -42 103 -36 21 3 60 33 61 46 0 6
7 17 15 24 8 7 15 20 15 29 0 9 14 27 31 41 40 32 76 66 86 83 11 19 123 107
136 108 37 4 87 -30 87 -59 0 -8 8 -26 19 -40 36 -52 46 -203 19 -306 -10 -38
-22 -74 -28 -81 -11 -13 -50 -130 -50 -150 0 -6 -6 -25 -14 -41 -8 -16 -35
-76 -61 -134 -60 -138 -61 -139 -76 -180 -7 -19 -20 -40 -30 -47 -9 -7 -19
-31 -23 -54 -4 -23 -13 -54 -20 -68 -8 -14 -20 -42 -27 -61 -16 -44 -41 -79
-55 -80 -8 0 -10 -20 -9 -59 3 -46 -1 -64 -15 -81 -51 -58 -29 -141 49 -183
28 -15 58 -27 68 -27 9 0 24 -7 34 -16 19 -17 39 -11 39 12 0 27 49 35 160 27
58 -4 110 -7 115 -6 6 2 42 9 80 16 39 8 77 17 86 21 17 8 36 70 35 117 -1 31
-2 32 -56 35 -121 8 -180 16 -185 25 -4 5 -32 9 -63 9 -62 0 -100 14 -70 25 9
4 14 14 11 25 -3 10 0 21 6 24 6 4 11 18 11 30 0 13 9 35 20 49 11 14 19 29
18 34 -4 10 41 135 53 148 5 5 9 19 9 31 0 13 4 25 9 29 5 3 17 29 26 58 9 28
26 70 36 93 11 22 25 64 31 92 7 29 16 52 20 52 5 0 8 8 8 19 0 10 11 44 25
75 14 31 25 65 25 75 0 10 7 35 15 54 8 20 15 52 15 72 0 19 4 35 8 35 5 0 7
57 5 128 -4 138 -14 183 -69 291 -18 36 -34 71 -34 77 0 15 -34 44 -52 44 -8
0 -23 9 -34 21 -11 12 -26 18 -37 15 -11 -2 -27 -1 -36 4 -20 11 -105 31 -123
29 -7 -1 -24 -4 -38 -6z"/>
<path d="M1701 1904 c0 -11 3 -14 6 -6 3 7 2 16 -1 19 -3 4 -6 -2 -5 -13z"/>
<path d="M1776 1852 c-3 -5 1 -9 9 -9 8 0 12 4 9 9 -3 4 -7 8 -9 8 -2 0 -6 -4
-9 -8z"/>
<path d="M1632 1822 c-10 -3 -10 -7 -1 -18 9 -11 8 -14 -5 -14 -9 0 -33 -9
-54 -19 -43 -22 -175 -128 -181 -145 -2 -6 -11 -20 -21 -31 -9 -11 -28 -40
-41 -65 -13 -25 -33 -58 -45 -75 -12 -16 -25 -46 -29 -65 -4 -19 -13 -45 -21
-57 -15 -24 -22 -54 -31 -133 -3 -30 -10 -60 -15 -67 -15 -18 -38 -114 -38
-156 0 -21 -5 -48 -12 -60 -14 -25 -14 -30 -18 -239 -2 -98 1 -162 7 -170 6
-7 14 -27 18 -45 3 -18 17 -48 31 -68 13 -20 24 -40 24 -44 0 -17 96 -103 153
-136 110 -66 269 -70 398 -10 60 27 177 126 196 166 6 13 20 44 32 69 12 25
25 52 30 60 13 22 45 113 76 215 15 50 31 99 36 110 26 65 39 239 24 338 -5
32 -3 52 5 62 14 17 7 45 -12 45 -13 0 -48 73 -48 101 0 8 -5 20 -11 26 -6 6
-14 27 -19 47 -8 35 -7 36 36 58 24 12 41 24 37 27 -5 3 -9 21 -10 40 -2 21
-10 39 -23 48 -11 8 -20 19 -20 24 0 6 -33 43 -73 83 -56 57 -77 71 -92 66
-10 -4 -40 1 -67 12 -41 15 -58 16 -116 8 -85 -12 -80 -12 -84 3 -2 8 -9 12
-16 9z m281 -283 c21 -6 37 -16 37 -25 0 -8 11 -19 24 -25 13 -6 27 -20 29
-30 4 -15 0 -19 -20 -19 l-25 0 5 -152 c6 -209 -20 -406 -55 -415 -21 -6 -23
-14 -7 -30 14 -14 -16 -104 -58 -170 -18 -29 -33 -56 -33 -61 0 -8 -46 -100
-74 -150 -20 -34 -77 -82 -106 -89 -14 -3 -31 -10 -37 -16 -16 -12 -81 -11
-113 2 -27 11 -70 45 -70 56 0 3 -11 21 -25 40 -14 18 -31 48 -36 66 -13 39
-12 388 1 404 4 5 11 36 14 68 4 31 11 57 16 57 4 0 11 15 14 33 10 53 12 61
19 77 3 8 11 38 17 65 6 28 12 55 13 61 2 7 8 18 14 25 5 8 12 21 15 29 3 8
13 15 23 15 11 0 24 9 30 20 18 37 53 80 60 74 3 -4 1 -27 -5 -52 -6 -30 -6
-55 0 -71 5 -15 6 -28 0 -31 -6 -3 -5 -16 0 -31 6 -14 10 -43 10 -64 0 -21 5
-42 10 -45 6 -3 10 -16 10 -28 0 -13 7 -47 15 -77 9 -30 18 -69 21 -87 5 -35
50 -130 71 -151 7 -7 13 -24 13 -38 0 -13 5 -24 10 -24 13 0 71 40 86 59 6 8
16 11 22 7 9 -5 9 0 2 18 -10 26 -4 59 9 51 9 -5 -5 106 -19 152 -25 83 -29
103 -35 173 -10 113 -10 185 0 201 5 8 8 22 7 32 -3 18 43 107 56 107 4 0 24
-5 45 -11z"/>
<path d="M1045 1640 c-3 -5 -1 -10 4 -10 6 0 11 5 11 10 0 6 -2 10 -4 10 -3 0
-8 -4 -11 -10z"/>
<path d="M2186 1091 c-3 -26 -2 -59 3 -72 8 -19 10 -8 10 49 1 39 -1 72 -3 72
-2 0 -6 -22 -10 -49z"/>
<path d="M2181 974 c0 -11 3 -14 6 -6 3 7 2 16 -1 19 -3 4 -6 -2 -5 -13z"/>
</g>
</svg>
