<?xml version="1.0" standalone="no"?>
<!DOCTYPE svg PUBLIC "-//W3C//DTD SVG 20010904//EN"
 "http://www.w3.org/TR/2001/REC-SVG-20010904/DTD/svg10.dtd">
<svg version="1.0" xmlns="http://www.w3.org/2000/svg"
 width="100.000000pt" height="114.473684pt" viewBox="0 0 100.000000 114.473684"
 preserveAspectRatio="xMidYMid meet">
<metadata>
Created by potrace 1.11, written by Peter Selinger 2001-2013
</metadata>
<g transform="translate(0.000000,114.473684) scale(0.065789,-0.065789)"
fill="#000000" stroke="none">
<path d="M745 1663 c-193 -8 -309 -39 -418 -113 -25 -16 -48 -30 -52 -30 -11
0 -115 -114 -115 -126 0 -16 32 -42 62 -49 19 -5 43 1 82 19 30 14 68 31 83
37 57 21 83 34 83 42 0 5 4 6 9 3 5 -3 14 1 21 9 7 8 19 15 26 15 7 0 28 8 46
18 18 10 40 19 48 20 8 0 54 4 102 8 86 7 88 7 97 -17 5 -14 5 -28 0 -33 -5
-6 -9 -18 -9 -27 0 -9 -15 -39 -33 -65 -18 -27 -51 -85 -73 -129 -21 -44 -41
-82 -44 -85 -3 -3 -13 -20 -23 -38 -10 -17 -31 -47 -48 -64 -16 -18 -29 -42
-29 -53 0 -11 -9 -31 -20 -45 -21 -27 -26 -74 -11 -113 11 -28 49 -43 58 -21
3 8 13 14 22 14 9 0 21 4 27 8 5 5 38 16 74 26 36 9 88 24 116 33 40 12 70 14
130 8 44 -4 96 -9 116 -10 50 -3 65 -17 100 -94 24 -52 28 -72 23 -105 -4 -23
-13 -48 -19 -56 -7 -8 -22 -37 -34 -65 -33 -79 -138 -180 -227 -219 -22 -9
-49 -22 -60 -28 -11 -6 -36 -12 -55 -13 -19 -1 -49 -5 -66 -9 -24 -5 -39 -1
-70 20 -79 55 -125 74 -148 61 -11 -7 -24 -16 -27 -20 -3 -5 -24 -13 -45 -18
-65 -16 -68 -17 -97 -28 -22 -9 -27 -17 -27 -46 0 -19 4 -35 10 -35 5 0 19
-10 30 -22 14 -15 34 -24 58 -25 54 -2 235 -24 252 -31 8 -3 20 -4 25 -2 6 2
35 6 66 10 32 4 87 22 124 39 37 18 86 39 109 48 58 22 100 55 183 142 56 59
84 99 122 176 59 119 67 158 46 217 -8 23 -15 50 -15 59 0 9 -9 24 -20 34 -11
10 -20 22 -20 28 0 13 -82 97 -95 97 -5 0 -32 18 -60 39 -27 22 -52 38 -56 36
-3 -3 -30 2 -60 11 -40 12 -61 14 -89 6 -19 -6 -56 -11 -82 -11 l-48 0 35 30
c19 17 37 40 41 52 4 12 19 37 33 56 48 63 71 154 66 262 -3 76 -13 99 -58
132 -35 27 -79 34 -172 30z"/>
</g>
</svg>
