<?xml version="1.0" standalone="no"?>
<!DOCTYPE svg PUBLIC "-//W3C//DTD SVG 20010904//EN"
 "http://www.w3.org/TR/2001/REC-SVG-20010904/DTD/svg10.dtd">
<svg version="1.0" xmlns="http://www.w3.org/2000/svg"
 width="100.000000pt" height="90.454545pt" viewBox="0 0 100.000000 90.454545"
 preserveAspectRatio="xMidYMid meet">
<metadata>
Created by potrace 1.11, written by Peter Selinger 2001-2013
</metadata>
<g transform="translate(0.000000,90.454545) scale(0.045455,-0.045455)"
fill="#000000" stroke="none">
<path d="M1684 1926 c-17 -8 -37 -10 -44 -6 -35 22 -134 -48 -210 -149 -14
-18 -36 -45 -50 -59 -30 -31 -80 -104 -80 -116 0 -5 -7 -18 -16 -28 -9 -9 -18
-35 -20 -55 -1 -21 -7 -59 -13 -86 -21 -91 -14 -512 9 -557 4 -8 11 -46 15
-84 4 -37 16 -91 27 -120 11 -28 24 -67 30 -86 5 -19 14 -39 18 -45 4 -5 13
-27 20 -48 6 -21 25 -47 41 -59 16 -12 29 -26 29 -31 0 -11 68 -79 101 -101
14 -9 39 -18 55 -19 16 -2 39 -9 51 -15 65 -35 366 11 397 60 6 10 16 18 22
18 18 0 104 131 104 158 0 31 18 27 23 -5 2 -16 5 38 6 119 1 109 -3 162 -15
205 -9 32 -22 99 -29 149 -9 62 -20 103 -36 128 -49 76 -196 118 -282 80 -128
-56 -269 -173 -282 -235 -4 -19 -12 -40 -17 -47 -6 -7 -8 -31 -5 -54 3 -23 2
-49 -3 -58 -6 -11 -3 -37 6 -71 9 -30 18 -67 21 -82 3 -16 18 -42 33 -59 26
-28 32 -30 74 -24 46 7 46 8 46 46 0 22 -7 60 -16 86 -8 25 -12 53 -9 62 4 10
9 33 11 52 9 83 26 118 73 158 76 64 107 75 164 60 63 -16 78 -38 112 -168 29
-115 29 -150 -6 -256 -23 -70 -44 -85 -151 -104 -91 -17 -175 -14 -239 9 -75
25 -104 53 -144 131 -31 63 -69 185 -64 205 5 20 -14 145 -22 151 -12 7 -14
238 -5 344 17 178 40 243 125 348 84 104 224 129 325 57 39 -27 119 -113 128
-136 10 -25 39 -24 72 2 33 26 36 91 5 146 -27 50 -134 154 -179 175 -51 23
-167 31 -206 14z"/>
<path d="M327 1825 c-61 -41 -99 -69 -122 -90 -37 -33 -96 -133 -120 -204 -13
-37 -33 -91 -45 -120 -23 -59 -21 -78 13 -109 19 -18 28 -20 61 -12 50 11 86
46 86 82 0 27 19 77 63 167 31 62 88 114 142 130 44 13 47 12 86 -15 74 -51
114 -98 137 -160 28 -78 32 -139 16 -232 -8 -42 -14 -101 -14 -129 0 -29 -6
-70 -14 -90 -8 -21 -31 -92 -51 -158 -20 -66 -40 -128 -46 -137 -5 -10 -9 -25
-9 -33 0 -8 -4 -23 -10 -33 -21 -38 -69 -170 -76 -207 -4 -22 -11 -46 -16 -52
-6 -7 -8 -19 -5 -27 3 -8 -1 -20 -9 -26 -8 -7 -14 -21 -14 -32 0 -11 -6 -32
-14 -46 -7 -15 -23 -46 -35 -70 -48 -91 -45 -120 18 -166 36 -27 85 -27 106
-1 6 8 29 16 50 20 22 4 69 17 105 30 37 14 99 26 145 29 101 7 157 16 171 27
6 5 21 7 33 4 12 -2 39 2 59 9 32 12 147 42 192 50 9 2 15 14 15 29 1 14 4 29
8 33 17 17 6 64 -23 92 -16 17 -30 36 -30 42 0 8 -11 10 -32 7 -80 -14 -145
-30 -170 -43 -14 -8 -40 -14 -56 -14 -17 0 -57 -8 -90 -18 -32 -11 -72 -17
-88 -15 -17 3 -63 -8 -111 -26 -72 -26 -82 -28 -87 -14 -4 9 -2 19 4 23 6 4
17 39 23 78 7 39 18 77 25 84 6 6 12 18 12 25 0 7 4 21 9 31 24 45 41 92 41
114 0 25 22 93 33 104 4 4 7 17 7 29 0 13 7 28 15 35 8 7 15 22 15 34 0 12 4
26 9 31 5 6 21 55 35 110 22 83 27 131 32 284 5 175 4 189 -18 259 -12 41 -32
84 -44 96 -12 11 -29 35 -38 53 -9 18 -26 38 -39 44 -12 7 -29 20 -38 31 -9
10 -21 18 -27 18 -6 0 -15 6 -19 13 -12 18 -83 46 -118 45 -16 -1 -46 2 -66 6
-29 5 -43 1 -72 -19z"/>
<path d="M1 1334 c0 -11 3 -14 6 -6 3 7 2 16 -1 19 -3 4 -6 -2 -5 -13z"/>
<path d="M2192 420 c0 -19 2 -27 5 -17 2 9 2 25 0 35 -3 9 -5 1 -5 -18z"/>
</g>
</svg>
