<?xml version="1.0" standalone="no"?>
<!DOCTYPE svg PUBLIC "-//W3C//DTD SVG 20010904//EN"
 "http://www.w3.org/TR/2001/REC-SVG-20010904/DTD/svg10.dtd">
<svg version="1.0" xmlns="http://www.w3.org/2000/svg"
 width="100.000000pt" height="183.838384pt" viewBox="0 0 100.000000 183.838384"
 preserveAspectRatio="xMidYMid meet">
<metadata>
Created by potrace 1.11, written by Peter Selinger 2001-2013
</metadata>
<g transform="translate(0.000000,183.838384) scale(0.101010,-0.101010)"
fill="#000000" stroke="none">
<path d="M464 1711 c-18 -11 -35 -24 -38 -30 -4 -6 -23 -11 -43 -11 -19 0 -49
-6 -66 -14 -18 -8 -41 -16 -52 -18 -11 -2 -24 -13 -30 -26 -5 -12 -13 -22 -18
-22 -14 0 -56 -54 -57 -72 0 -9 -4 -19 -9 -22 -12 -8 -21 -68 -21 -141 1 -49
8 -74 40 -140 22 -44 64 -111 93 -149 l54 -69 -44 -84 c-40 -75 -46 -94 -54
-183 -6 -66 -6 -119 1 -157 6 -32 15 -89 20 -127 10 -69 65 -201 95 -226 8 -7
15 -18 15 -25 0 -16 77 -70 125 -86 22 -7 73 -13 113 -13 74 1 115 18 148 63
7 9 24 30 38 46 14 17 26 36 26 43 0 8 6 28 14 45 27 61 45 238 34 342 -6 66
-9 88 -24 175 -4 19 -13 42 -20 51 -8 9 -12 18 -9 21 3 3 -26 37 -65 76 l-70
71 30 33 c16 17 46 62 65 99 33 63 35 72 35 163 0 53 -4 96 -9 96 -4 0 -11 16
-14 35 -3 20 -20 53 -36 74 -17 22 -31 43 -31 47 -1 27 -104 113 -165 138 -45
19 -34 20 -71 -3z m3 -162 l34 -21 24 22 c33 31 54 20 102 -53 48 -74 63 -121
63 -196 0 -76 -29 -128 -92 -168 -112 -70 -237 -47 -285 54 -8 18 -19 33 -24
33 -5 0 -9 10 -9 23 0 13 -4 27 -9 32 -5 6 -14 33 -19 60 -16 77 6 152 60 206
33 34 107 37 155 8z m114 -592 c45 -27 112 -110 128 -157 36 -111 52 -324 30
-420 -14 -63 -42 -121 -74 -150 -22 -21 -38 -25 -100 -28 l-74 -4 -44 43 c-90
89 -153 358 -119 509 27 121 67 183 141 217 40 18 73 15 112 -10z"/>
</g>
</svg>
