<?xml version="1.0" standalone="no"?>
<!DOCTYPE svg PUBLIC "-//W3C//DTD SVG 20010904//EN"
 "http://www.w3.org/TR/2001/REC-SVG-20010904/DTD/svg10.dtd">
<svg version="1.0" xmlns="http://www.w3.org/2000/svg"
 width="100.000000pt" height="136.923077pt" viewBox="0 0 100.000000 136.923077"
 preserveAspectRatio="xMidYMid meet">
<metadata>
Created by potrace 1.11, written by Peter Selinger 2001-2013
</metadata>
<g transform="translate(0.000000,136.923077) scale(0.076923,-0.076923)"
fill="#000000" stroke="none">
<path d="M564 1650 c-6 -6 -34 -12 -61 -14 -84 -6 -92 -14 -91 -100 0 -41 -4
-81 -8 -88 -9 -15 -30 -146 -43 -268 -8 -74 -28 -151 -48 -184 -4 -6 -8 -24
-10 -41 -2 -16 -11 -46 -21 -66 -26 -53 -10 -98 43 -116 38 -13 75 -10 75 6 0
5 24 25 53 45 l53 37 120 -5 c123 -4 222 -19 256 -37 15 -8 18 -17 13 -32 -4
-12 -11 -80 -16 -152 -11 -168 -26 -329 -34 -380 -5 -33 -3 -44 15 -62 12 -13
33 -23 49 -23 20 0 31 -7 39 -25 20 -44 64 -24 78 35 4 19 8 118 8 220 1 204
13 404 26 435 22 55 53 216 51 268 -2 43 2 64 14 78 18 19 40 170 30 197 -3 8
1 22 10 32 26 29 54 194 36 219 -14 22 -145 16 -185 -7 -31 -18 -31 -19 -38
-124 -3 -58 -11 -116 -18 -128 -6 -12 -14 -88 -17 -173 -5 -128 -9 -156 -25
-180 -11 -15 -24 -25 -28 -22 -5 3 -21 -2 -35 -11 -20 -13 -28 -14 -39 -5 -18
15 -119 32 -203 35 -34 1 -65 4 -68 8 -3 3 -1 25 4 49 14 59 43 237 45 274 1
17 5 37 8 45 23 66 30 93 35 152 5 53 2 72 -11 93 -17 26 -44 33 -62 15z"/>
</g>
</svg>
