<?xml version="1.0" standalone="no"?>
<!DOCTYPE svg PUBLIC "-//W3C//DTD SVG 20010904//EN"
 "http://www.w3.org/TR/2001/REC-SVG-20010904/DTD/svg10.dtd">
<svg version="1.0" xmlns="http://www.w3.org/2000/svg"
 width="100.000000pt" height="152.380952pt" viewBox="0 0 100.000000 152.380952"
 preserveAspectRatio="xMidYMid meet">
<metadata>
Created by potrace 1.11, written by Peter Selinger 2001-2013
</metadata>
<g transform="translate(0.000000,152.380952) scale(0.068027,-0.068027)"
fill="#000000" stroke="none">
<path d="M1175 2166 c-18 -13 -19 -20 -7 -139 7 -69 15 -197 18 -284 2 -87 6
-174 9 -193 7 -54 -5 -65 -72 -63 -32 0 -76 3 -98 6 -22 3 -52 5 -67 6 l-28 1
0 103 c0 57 5 150 10 208 18 174 -6 223 -94 193 -23 -8 -47 -24 -55 -35 -8
-14 -14 -73 -17 -178 -3 -86 -7 -176 -9 -201 -16 -153 -16 -174 2 -212 10 -21
26 -41 36 -44 25 -8 294 -7 350 1 41 6 46 5 53 -17 9 -29 15 -172 19 -453 2
-121 4 -265 6 -320 2 -55 0 -161 -4 -235 -9 -156 -5 -186 26 -192 27 -5 47 0
47 12 0 5 17 37 39 72 l39 63 2 155 c6 385 -5 1041 -19 1119 -10 57 -17 135
-25 281 -16 293 -16 292 -51 327 -36 36 -77 43 -110 19z"/>
<path d="M383 2054 c-23 -11 -33 -24 -33 -39 0 -12 -16 -40 -35 -61 -19 -21
-35 -43 -35 -50 0 -7 -10 -21 -23 -31 -13 -10 -31 -30 -41 -45 -10 -16 -24
-28 -31 -28 -6 0 -20 -9 -30 -20 -10 -11 -24 -20 -32 -20 -7 0 -13 -7 -13 -15
0 -9 -6 -18 -14 -21 -29 -11 -60 -124 -35 -124 6 0 19 -10 29 -22 26 -33 63
-16 124 59 28 34 57 62 64 62 6 1 12 6 12 11 0 20 30 9 34 -12 3 -13 10 -45
15 -73 11 -49 15 -89 26 -224 3 -37 10 -83 15 -101 5 -18 7 -36 5 -40 -2 -4 0
-22 5 -41 6 -19 13 -79 16 -134 3 -55 7 -113 10 -130 18 -140 22 -210 22 -419
0 -132 -4 -250 -9 -263 -7 -20 -14 -23 -43 -19 -20 2 -40 7 -45 11 -6 3 -18 2
-28 -3 -10 -6 -30 -15 -44 -22 -33 -15 -53 -51 -45 -77 3 -11 20 -34 38 -51
29 -31 34 -32 82 -26 28 4 80 8 116 9 198 6 253 15 315 51 33 19 68 37 78 40
14 5 17 13 12 38 -10 44 -34 79 -51 72 -8 -3 -31 1 -52 8 -53 20 -100 27 -107
16 -3 -6 -15 -10 -26 -10 -16 0 -19 8 -20 45 -1 25 -2 57 -4 73 -1 15 -5 68
-9 118 -4 50 -9 122 -11 160 -3 66 -10 166 -24 389 -4 55 -3 116 1 136 4 20 3
51 -2 70 -6 19 -10 49 -10 67 0 18 -4 41 -9 51 -5 9 -12 71 -15 137 -4 65 -9
131 -12 146 -3 14 -9 75 -14 135 -9 118 -24 188 -48 216 -18 21 -28 21 -69 1z"/>
</g>
</svg>
