<?xml version="1.0" standalone="no"?>
<!DOCTYPE svg PUBLIC "-//W3C//DTD SVG 20010904//EN"
 "http://www.w3.org/TR/2001/REC-SVG-20010904/DTD/svg10.dtd">
<svg version="1.0" xmlns="http://www.w3.org/2000/svg"
 width="100.000000pt" height="86.982249pt" viewBox="0 0 100.000000 86.982249"
 preserveAspectRatio="xMidYMid meet">
<metadata>
Created by potrace 1.11, written by Peter Selinger 2001-2013
</metadata>
<g transform="translate(0.000000,86.982249) scale(0.059172,-0.059172)"
fill="#000000" stroke="none">
<path d="M1040 1358 c-25 -9 -58 -63 -66 -108 -4 -19 -16 -55 -27 -80 -11 -25
-29 -74 -39 -110 -51 -178 -58 -216 -57 -309 1 -65 -2 -95 -11 -101 -7 -4 -14
-36 -17 -71 -6 -89 32 -183 104 -256 28 -29 55 -53 60 -53 4 0 51 -7 103 -15
52 -8 121 -15 153 -15 49 0 59 3 65 21 4 11 19 26 32 32 14 7 29 22 34 34 6
11 27 28 48 38 48 21 131 115 163 183 35 75 56 186 43 223 -15 43 -81 78 -161
86 -36 3 -74 2 -84 -2 -10 -5 -21 -9 -24 -9 -20 -3 -92 -103 -127 -176 -39
-82 -45 -99 -47 -131 -2 -14 -10 -37 -19 -52 -17 -25 -18 -25 -53 -11 -123 52
-173 126 -152 224 5 25 11 54 13 66 10 59 29 141 36 159 5 11 19 54 31 95 12
41 36 101 53 134 17 32 38 73 47 90 24 46 32 103 17 113 -16 10 -92 11 -118 1z
m467 -655 c11 -23 8 -35 -29 -108 -33 -67 -50 -88 -87 -112 -25 -17 -61 -32
-78 -35 -30 -4 -33 -2 -33 22 0 39 46 137 88 190 49 60 62 69 97 70 23 0 33
-7 42 -27z"/>
<path d="M235 1211 c-21 -12 -32 -28 -37 -56 -5 -22 -15 -46 -23 -55 -8 -9
-15 -21 -15 -27 0 -6 -6 -13 -14 -16 -7 -3 -17 -18 -21 -34 -3 -15 -10 -30
-14 -33 -13 -9 -51 -90 -51 -108 0 -10 5 -23 12 -30 7 -7 13 -22 13 -35 0 -15
6 -22 19 -22 19 0 38 27 86 120 12 22 29 49 38 60 9 11 16 18 15 16 -1 -2 5
-17 13 -34 23 -44 40 -171 34 -252 -7 -89 -3 -309 6 -354 7 -37 -11 -61 -49
-61 -28 0 -130 -50 -149 -74 -26 -31 -22 -62 11 -85 31 -22 76 -28 86 -11 18
29 146 73 178 61 26 -10 67 3 67 21 0 15 157 88 188 88 11 0 36 7 56 15 20 8
38 15 41 15 53 -1 55 0 55 31 0 52 -31 68 -132 69 -51 0 -88 -4 -88 -10 0 -5
-7 -7 -16 -3 -10 4 -22 0 -28 -9 -6 -8 -25 -18 -43 -22 -41 -9 -53 11 -42 71
10 54 3 264 -12 330 -15 69 -27 194 -28 296 -1 86 -2 89 -33 118 -18 16 -37
29 -43 29 -5 0 -19 2 -30 5 -11 2 -33 -4 -50 -14z"/>
</g>
</svg>
