<?xml version="1.0" standalone="no"?>
<!DOCTYPE svg PUBLIC "-//W3C//DTD SVG 20010904//EN"
 "http://www.w3.org/TR/2001/REC-SVG-20010904/DTD/svg10.dtd">
<svg version="1.0" xmlns="http://www.w3.org/2000/svg"
 width="100.000000pt" height="86.979167pt" viewBox="0 0 100.000000 86.979167"
 preserveAspectRatio="xMidYMid meet">
<metadata>
Created by potrace 1.11, written by Peter Selinger 2001-2013
</metadata>
<g transform="translate(0.000000,86.979167) scale(0.052083,-0.052083)"
fill="#000000" stroke="none">
<path d="M440 1623 c-65 -11 -121 -36 -149 -69 -17 -19 -34 -34 -39 -34 -16 0
-72 -63 -116 -129 -44 -67 -80 -141 -68 -141 3 0 1 -5 -6 -12 -7 -7 -12 -31
-12 -55 0 -23 -7 -60 -16 -82 -14 -35 -14 -42 0 -69 8 -16 32 -39 51 -51 l37
-21 41 28 c25 16 53 48 69 77 36 66 34 61 52 133 8 34 24 75 35 91 12 16 21
34 21 40 0 7 7 23 16 37 15 22 22 24 66 21 27 -2 52 -8 56 -12 4 -4 7 -66 6
-138 0 -103 -6 -152 -23 -221 -22 -86 -24 -159 -6 -213 6 -19 4 -23 -12 -23
-20 0 -46 -58 -59 -135 -4 -22 -15 -58 -25 -79 -11 -22 -19 -49 -19 -60 0 -12
-16 -52 -35 -91 -19 -38 -35 -73 -35 -78 0 -4 -11 -24 -24 -45 -35 -56 -41
-96 -19 -132 10 -17 29 -33 43 -36 14 -2 46 -11 71 -20 30 -10 60 -12 88 -8
32 5 45 3 52 -7 4 -8 25 -15 46 -16 21 -1 79 -3 128 -5 50 -2 107 -10 128 -17
20 -7 43 -11 50 -8 6 2 19 1 28 -4 24 -12 82 35 90 72 7 32 -9 99 -23 99 -4 0
-8 7 -8 15 0 8 -8 15 -18 15 -11 0 -27 9 -37 20 -18 20 -83 28 -99 13 -4 -4
-45 -6 -91 -4 -79 2 -85 1 -85 -17 0 -15 -5 -18 -26 -14 -16 3 -23 9 -20 18 5
14 0 15 -59 18 -23 1 -34 51 -16 69 6 6 11 17 11 24 0 6 13 34 28 60 28 47 72
195 72 243 0 14 4 32 9 39 13 20 -5 51 -29 51 -12 0 -20 7 -20 16 0 10 7 14
22 12 11 -2 23 3 25 10 3 6 -3 12 -12 12 -11 0 -15 5 -11 15 3 8 9 22 12 30 4
9 1 15 -7 15 -7 0 4 15 24 34 21 19 37 43 37 55 0 12 7 38 16 59 23 54 27 86
29 194 0 53 4 100 8 104 21 21 -6 139 -35 152 -4 2 -12 18 -18 37 -14 43 -109
126 -142 124 -12 -1 -34 -4 -48 -6z m57 -769 c-3 -3 -12 -4 -19 -1 -8 3 -5 6
6 6 11 1 17 -2 13 -5z m-53 -713 c7 -10 -18 -34 -27 -25 -7 8 3 34 13 34 5 0
11 -4 14 -9z"/>
<path d="M1160 1538 c-36 -4 -71 -6 -78 -3 -16 6 -73 -22 -89 -44 -6 -9 -17
-16 -25 -16 -9 0 -13 -14 -11 -49 2 -56 17 -72 83 -82 25 -4 54 -13 64 -20 11
-7 30 -11 42 -8 13 3 38 1 56 -5 34 -11 229 -13 332 -4 65 6 87 -8 60 -38 -8
-9 -12 -23 -9 -31 3 -8 -1 -20 -9 -27 -16 -14 -11 -41 7 -37 7 1 9 1 5 -1 -5
-3 -8 -13 -8 -24 0 -10 -4 -19 -9 -19 -5 0 -13 -26 -17 -57 -4 -32 -13 -63
-20 -71 -8 -7 -17 -25 -20 -40 -3 -15 -14 -56 -25 -92 -17 -62 -23 -93 -49
-274 -7 -43 -18 -96 -26 -118 -8 -22 -14 -71 -14 -108 0 -80 13 -96 80 -99 25
-1 57 -4 71 -7 24 -5 27 -1 37 38 6 24 9 58 7 77 -3 27 -2 31 9 22 11 -9 15
-1 20 46 4 32 11 78 16 103 5 25 12 63 15 85 17 137 48 277 76 340 5 11 23 58
39 104 16 47 33 87 38 90 12 8 33 107 36 166 1 32 6 49 14 48 6 -2 16 6 22 16
8 16 3 25 -30 54 -68 62 -85 67 -237 67 -76 0 -154 4 -173 9 -53 14 -206 19
-280 9z"/>
</g>
</svg>
