<?xml version="1.0" standalone="no"?>
<!DOCTYPE svg PUBLIC "-//W3C//DTD SVG 20010904//EN"
 "http://www.w3.org/TR/2001/REC-SVG-20010904/DTD/svg10.dtd">
<svg version="1.0" xmlns="http://www.w3.org/2000/svg"
 width="100.000000pt" height="129.687500pt" viewBox="0 0 100.000000 129.687500"
 preserveAspectRatio="xMidYMid meet">
<metadata>
Created by potrace 1.11, written by Peter Selinger 2001-2013
</metadata>
<g transform="translate(0.000000,129.687500) scale(0.078125,-0.078125)"
fill="#000000" stroke="none">
<path d="M965 1547 c-11 -7 -22 -15 -25 -18 -3 -4 -32 -9 -65 -12 -84 -8 -157
-22 -295 -58 -39 -10 -149 -20 -221 -19 -48 1 -152 -32 -181 -58 -21 -18 -18
-64 5 -90 16 -17 15 -24 -13 -111 -39 -120 -39 -146 4 -193 33 -36 58 -46 86
-35 43 16 268 56 340 61 106 6 250 -25 250 -54 0 -6 9 -10 19 -10 43 0 161
-87 161 -119 0 -9 6 -28 14 -42 31 -61 27 -127 -14 -216 -11 -24 -20 -47 -20
-51 0 -5 -11 -18 -25 -30 -14 -12 -25 -28 -25 -35 0 -25 -63 -88 -108 -108
-26 -12 -51 -28 -55 -35 -4 -8 -14 -14 -21 -14 -8 0 -19 -6 -25 -14 -6 -7 -37
-16 -68 -20 -31 -4 -63 -12 -71 -18 -17 -14 -148 -21 -182 -9 -14 5 -44 14
-67 21 -24 7 -43 17 -43 22 0 5 -15 22 -32 39 -18 16 -29 29 -25 29 4 0 1 13
-8 30 -8 16 -17 52 -20 80 -5 61 -9 69 -49 85 -49 21 -83 9 -97 -34 -24 -71
-13 -174 18 -169 11 2 19 -8 25 -31 17 -63 57 -112 134 -162 22 -15 55 -30 74
-34 19 -4 49 -14 65 -23 46 -24 228 -23 278 1 22 11 48 16 60 13 31 -8 140 47
187 94 22 22 44 40 49 40 22 0 123 116 148 170 39 86 66 179 71 248 5 78 5
145 -1 172 -9 38 -59 131 -76 140 -11 5 -22 18 -26 29 -3 10 -29 31 -58 46
-160 84 -193 100 -202 101 -5 0 -23 6 -39 13 -52 21 -227 25 -311 6 -41 -9
-79 -14 -85 -10 -5 3 -10 2 -10 -3 0 -6 -11 -9 -25 -8 -23 1 -37 16 -16 16 5
0 14 12 20 28 5 15 17 38 25 52 8 14 17 32 20 41 3 12 25 20 71 28 36 7 70 9
75 6 5 -3 12 -1 15 5 4 6 14 10 23 9 22 -3 85 10 145 29 38 11 51 12 56 3 10
-15 45 -7 112 25 33 16 67 24 103 24 55 0 55 0 65 38 16 54 14 64 -16 89 -28
25 -66 29 -98 10z"/>
</g>
</svg>
