<?xml version="1.0" standalone="no"?>
<!DOCTYPE svg PUBLIC "-//W3C//DTD SVG 20010904//EN"
 "http://www.w3.org/TR/2001/REC-SVG-20010904/DTD/svg10.dtd">
<svg version="1.0" xmlns="http://www.w3.org/2000/svg"
 width="100.000000pt" height="97.660819pt" viewBox="0 0 100.000000 97.660819"
 preserveAspectRatio="xMidYMid meet">
<metadata>
Created by potrace 1.11, written by Peter Selinger 2001-2013
</metadata>
<g transform="translate(0.000000,97.660819) scale(0.058480,-0.058480)"
fill="#000000" stroke="none">
<path d="M1375 1558 c-11 -7 -25 -17 -32 -23 -6 -7 -45 -15 -87 -18 -51 -4
-93 -14 -128 -31 -62 -29 -141 -56 -166 -56 -10 0 -31 -13 -47 -30 -16 -16
-37 -30 -47 -30 -27 0 -41 -38 -43 -115 -1 -63 -12 -102 -46 -167 -17 -34 -10
-68 22 -99 30 -29 35 -31 83 -25 28 4 65 13 81 20 56 26 148 50 176 48 15 -2
29 0 32 5 3 5 43 8 89 7 73 -1 91 -5 134 -29 28 -15 59 -42 69 -59 24 -40 47
-126 39 -145 -3 -9 -8 -27 -10 -41 -7 -45 -27 -105 -41 -121 -7 -8 -13 -20
-13 -26 0 -6 -7 -13 -15 -17 -8 -3 -15 -11 -15 -18 0 -8 -8 -21 -17 -29 -10
-9 -26 -26 -35 -38 -10 -11 -26 -21 -37 -21 -11 0 -32 -14 -48 -30 -36 -39
-110 -86 -150 -94 -17 -4 -39 -16 -49 -27 -9 -10 -27 -19 -38 -19 -12 0 -39
-9 -60 -21 -21 -11 -41 -18 -43 -15 -3 3 -19 -4 -34 -15 -16 -11 -29 -15 -29
-9 0 10 -18 9 -102 -6 -31 -6 -38 -30 -10 -36 9 -2 -8 -7 -38 -12 -61 -8 -90
-28 -90 -61 0 -50 51 -59 200 -35 47 7 95 14 107 15 12 1 28 6 35 12 7 6 23
14 36 17 12 4 22 12 22 17 0 5 8 9 18 9 9 0 37 11 61 25 23 14 47 25 52 25 5
0 19 9 31 19 13 11 34 29 48 41 14 12 37 28 51 35 14 8 52 39 84 69 32 31 62
56 67 56 13 0 82 74 98 106 8 16 25 44 37 63 13 18 30 59 39 90 9 31 23 71 32
90 40 82 6 285 -53 323 -6 3 -23 18 -37 32 -33 30 -96 41 -182 32 -33 -4 -88
-8 -121 -11 -33 -2 -98 -14 -145 -28 -47 -13 -101 -27 -121 -30 -35 -5 -37 -4
-42 26 -2 18 -1 34 4 35 5 2 9 21 9 42 0 36 3 39 60 69 32 17 66 31 73 31 8 0
44 15 80 34 72 36 211 78 267 80 35 1 35 2 38 49 2 27 -2 55 -9 63 -14 17 -66
18 -94 2z"/>
<path d="M359 1374 c-12 -31 -33 -68 -46 -82 -13 -14 -23 -28 -23 -31 0 -4
-13 -21 -30 -39 -18 -20 -30 -44 -30 -60 0 -15 -11 -39 -25 -54 -27 -29 -33
-58 -12 -58 7 0 19 -9 27 -20 18 -25 40 -25 67 -1 20 19 99 61 114 61 4 0 5
-42 2 -92 -3 -51 -6 -104 -6 -118 1 -84 7 -129 20 -156 8 -18 16 -46 18 -63 3
-25 0 -31 -15 -31 -10 0 -21 -4 -24 -9 -3 -4 -27 -11 -53 -15 -80 -11 -112
-27 -122 -60 -20 -65 -7 -116 29 -116 21 0 227 65 252 80 10 5 28 10 40 10 13
0 55 12 93 26 39 14 79 28 90 31 11 4 35 15 53 25 19 10 42 16 51 13 10 -3 34
2 54 10 42 17 50 50 19 78 -21 19 -97 23 -108 6 -3 -6 -19 -9 -35 -5 -28 5
-132 -13 -181 -33 -34 -13 -41 -3 -22 35 12 23 13 37 5 64 -5 19 -13 78 -16
130 -3 52 -10 124 -15 160 -5 36 -11 117 -14 180 -4 131 -14 162 -60 178 -60
22 -72 17 -97 -44z m25 -231 c-13 -9 -20 -10 -22 -3 -5 15 32 42 37 28 2 -6
-5 -17 -15 -25z"/>
<path d="M180 455 c0 -8 5 -15 10 -15 6 0 10 7 10 15 0 8 -4 15 -10 15 -5 0
-10 -7 -10 -15z"/>
</g>
</svg>
