<?xml version="1.0" standalone="no"?>
<!DOCTYPE svg PUBLIC "-//W3C//DTD SVG 20010904//EN"
 "http://www.w3.org/TR/2001/REC-SVG-20010904/DTD/svg10.dtd">
<svg version="1.0" xmlns="http://www.w3.org/2000/svg"
 width="100.000000pt" height="243.478261pt" viewBox="0 0 100.000000 243.478261"
 preserveAspectRatio="xMidYMid meet">
<metadata>
Created by potrace 1.11, written by Peter Selinger 2001-2013
</metadata>
<g transform="translate(0.000000,243.478261) scale(0.072464,-0.072464)"
fill="#000000" stroke="none">
<path d="M1153 3219 c-64 -41 -324 -98 -351 -76 -34 27 -89 -87 -57 -119 19
-19 186 -19 228 0 53 24 121 44 131 39 14 -9 -1 -102 -24 -145 -11 -21 -20
-43 -20 -49 0 -6 -16 -43 -35 -83 -19 -40 -35 -76 -35 -79 0 -3 -13 -28 -29
-55 -16 -27 -32 -60 -36 -73 -4 -13 -21 -40 -37 -59 -16 -19 -33 -41 -39 -48
-6 -7 -13 -27 -16 -45 -4 -29 -1 -35 34 -55 61 -37 106 -71 136 -102 15 -17
31 -30 35 -30 7 0 46 -71 71 -130 6 -14 20 -41 31 -60 11 -19 20 -49 20 -67 0
-17 4 -43 9 -56 6 -14 12 -47 15 -74 4 -26 11 -73 16 -104 22 -118 -8 -375
-61 -543 -21 -64 -31 -76 -65 -76 -46 0 -50 17 -55 255 0 26 -17 45 -40 45
-24 0 -26 -5 -39 -81 -33 -193 -30 -248 17 -286 16 -13 36 -23 45 -23 9 0 24
-7 32 -16 9 -8 31 -18 50 -21 76 -12 158 83 182 212 7 39 20 109 28 157 9 48
18 149 21 224 3 75 8 140 10 144 3 5 1 10 -4 12 -5 1 -12 26 -15 53 -13 93
-15 110 -25 155 -17 81 -29 120 -40 134 -6 7 -8 16 -5 19 8 7 -47 117 -58 117
-5 0 -8 6 -8 13 0 8 -8 24 -17 36 -10 11 -27 33 -38 47 -28 36 -38 47 -75 77
-39 33 -44 81 -12 108 12 9 22 22 22 27 0 5 8 20 19 33 10 13 29 55 41 92 13
37 27 70 31 73 5 3 9 16 9 30 0 13 4 24 9 24 5 0 11 10 14 23 3 12 19 57 35
100 17 43 34 97 37 120 4 23 12 47 17 54 6 7 7 30 2 55 -4 24 -7 48 -6 55 3
11 -47 43 -65 43 -4 0 -22 -9 -40 -21z"/>
<path d="M454 1901 c-26 -7 -92 -59 -156 -122 -39 -37 -48 -53 -48 -80 1 -41
20 -69 48 -69 12 0 42 22 69 48 44 44 104 92 116 92 2 0 10 -13 17 -30 15 -37
16 -300 1 -328 -6 -11 -10 -31 -10 -44 1 -13 -4 -54 -10 -93 -7 -38 -16 -97
-21 -130 -5 -33 -14 -82 -20 -110 -6 -27 -13 -62 -15 -77 -2 -15 -6 -32 -10
-38 -7 -11 -27 -82 -49 -170 -8 -30 -20 -73 -26 -95 -7 -22 -14 -55 -17 -73
-3 -18 -9 -35 -14 -38 -5 -3 -9 -17 -9 -32 0 -26 -30 -128 -53 -182 -6 -14
-12 -32 -12 -40 -3 -32 -18 -81 -26 -86 -11 -6 -12 -65 -1 -81 10 -15 73 -19
167 -10 64 6 109 8 175 6 14 -1 59 2 100 5 163 14 235 36 245 73 12 51 -10 58
-173 57 -81 0 -195 -4 -254 -8 -59 -3 -109 -3 -112 2 -5 8 18 101 32 129 5 10
17 54 26 98 9 44 28 116 41 160 45 149 55 187 55 204 0 9 4 21 9 26 11 12 31
96 36 151 2 23 11 67 20 98 9 31 14 64 11 73 -3 10 -1 36 5 58 31 113 51 383
34 447 -4 14 -2 34 3 45 7 13 6 24 -4 38 -8 10 -14 30 -14 43 0 15 -7 26 -20
29 -11 3 -20 9 -20 14 0 24 -79 51 -116 40z"/>
</g>
</svg>
