<?xml version="1.0" standalone="no"?>
<!DOCTYPE svg PUBLIC "-//W3C//DTD SVG 20010904//EN"
 "http://www.w3.org/TR/2001/REC-SVG-20010904/DTD/svg10.dtd">
<svg version="1.0" xmlns="http://www.w3.org/2000/svg"
 width="100.000000pt" height="112.195122pt" viewBox="0 0 100.000000 112.195122"
 preserveAspectRatio="xMidYMid meet">
<metadata>
Created by potrace 1.11, written by Peter Selinger 2001-2013
</metadata>
<g transform="translate(0.000000,112.195122) scale(0.030488,-0.030488)"
fill="#000000" stroke="none">
<path d="M1437 3644 c-3 -4 -27 -6 -52 -6 -26 1 -55 -4 -65 -11 -15 -9 -22 -9
-32 1 -15 15 -73 16 -101 1 -12 -7 -34 -12 -49 -11 -17 0 -28 -5 -28 -13 0 -7
-7 -16 -16 -19 -8 -3 -12 -2 -9 4 8 13 -50 13 -73 1 -10 -5 -46 -12 -81 -16
-34 -3 -74 -10 -87 -15 -13 -5 -48 -9 -77 -9 -30 1 -64 -4 -75 -10 -11 -6 -27
-8 -35 -5 -9 3 -24 1 -35 -5 -11 -6 -48 -13 -83 -16 -245 -21 -285 -22 -298
-11 -18 14 -43 14 -59 -1 -7 -7 -20 -17 -29 -21 -14 -8 -13 -15 5 -68 11 -32
25 -88 32 -124 23 -129 46 -155 121 -138 54 12 85 16 169 21 131 9 206 20 239
34 30 12 146 26 206 24 10 0 24 4 30 8 23 19 124 30 291 33 63 1 101 -24 106
-68 5 -41 -10 -116 -30 -151 -6 -12 -12 -28 -12 -35 0 -8 -22 -59 -49 -114
-27 -54 -56 -116 -66 -136 -9 -21 -21 -38 -25 -38 -10 0 -60 -95 -60 -114 0
-20 -56 -83 -81 -91 -12 -4 -18 -13 -15 -20 2 -7 -2 -16 -10 -19 -8 -3 -14
-16 -14 -28 0 -13 -11 -32 -25 -42 -14 -11 -25 -29 -25 -42 0 -13 -4 -24 -10
-24 -5 0 -10 -6 -10 -14 0 -25 -49 -124 -68 -138 -11 -7 -23 -28 -26 -46 -4
-17 -12 -32 -17 -32 -5 0 -9 -6 -9 -13 0 -8 -11 -24 -25 -37 -14 -13 -25 -30
-25 -37 0 -8 -11 -29 -25 -47 -14 -18 -25 -43 -25 -54 0 -12 -4 -22 -10 -22
-5 0 -12 -17 -16 -37 -8 -44 -38 -108 -57 -120 -13 -9 -41 -61 -42 -80 0 -6
-4 -15 -8 -19 -4 -4 -7 -13 -7 -21 0 -7 -11 -34 -24 -61 -13 -26 -38 -75 -55
-109 -17 -34 -36 -65 -41 -68 -5 -3 -7 -12 -4 -20 4 -8 -3 -33 -15 -55 -12
-24 -16 -40 -9 -40 6 0 1 -8 -10 -19 -12 -10 -22 -23 -22 -28 0 -17 -40 -93
-50 -93 -5 0 -12 -16 -16 -35 -8 -47 -59 -192 -72 -208 -18 -21 -72 -135 -72
-151 0 -8 -6 -21 -13 -28 -7 -7 -27 -58 -46 -113 -18 -55 -37 -106 -43 -113
-15 -17 -1 -158 19 -188 8 -13 25 -24 37 -24 11 0 34 -7 50 -15 35 -18 75 -19
141 -2 40 11 174 15 195 7 19 -7 105 5 154 22 46 15 65 17 83 9 14 -6 24 -7
28 -1 4 6 19 10 34 10 15 0 32 5 38 11 7 7 75 12 190 13 117 2 188 7 208 15
23 10 45 10 92 3 34 -6 71 -8 83 -5 11 3 26 1 33 -5 18 -15 148 5 164 26 10
13 12 36 7 90 -3 42 -1 109 6 156 12 77 11 85 -6 109 -16 23 -26 26 -74 27
-36 0 -68 -7 -91 -19 -22 -12 -41 -16 -49 -11 -8 5 -19 5 -25 1 -5 -5 -50 -14
-99 -21 -50 -6 -95 -14 -100 -18 -6 -3 -23 -5 -38 -4 -14 1 -51 -7 -80 -19
-29 -11 -68 -22 -87 -24 -18 -2 -38 -8 -44 -14 -6 -6 -19 -11 -28 -11 -9 0
-22 -7 -29 -15 -8 -9 -17 -12 -24 -6 -6 4 -22 7 -36 6 -34 -4 -121 -35 -140
-50 -19 -15 -134 -39 -153 -32 -8 3 -32 1 -53 -4 -34 -7 -41 -6 -57 12 -28 34
-17 109 26 169 9 13 17 30 17 37 0 6 14 21 30 33 17 12 37 37 45 57 8 19 36
58 62 87 28 30 58 77 71 112 13 32 28 67 33 76 5 10 9 23 9 30 0 8 10 18 23
23 12 6 21 18 21 27 -1 10 2 16 6 13 11 -7 33 52 26 70 -8 21 20 63 55 81 17
8 29 23 29 34 0 11 6 20 14 20 18 0 51 72 60 128 3 24 11 49 17 55 21 25 99
190 105 223 3 19 10 34 14 34 4 0 26 39 49 88 24 48 49 99 56 115 8 15 11 35
8 44 -5 12 -2 15 9 10 12 -4 24 10 47 53 17 32 31 67 31 78 0 11 7 25 15 32 8
7 12 16 9 21 -7 12 7 80 16 74 6 -4 43 91 46 120 0 6 4 17 7 25 3 8 8 29 11
45 5 35 24 86 25 68 1 -20 18 -15 24 6 4 15 1 18 -12 14 -9 -4 -4 4 11 16 37
29 64 102 49 130 -8 14 -8 21 -1 21 5 0 10 -5 10 -12 0 -9 3 -9 11 -1 13 13
69 141 69 158 0 6 8 22 18 35 18 27 41 101 42 138 0 12 4 22 9 22 5 0 17 24
27 53 9 28 20 54 25 57 13 9 49 110 49 140 0 43 -18 81 -53 115 -18 17 -50 52
-71 78 -35 43 -42 47 -71 41 -22 -4 -35 -1 -44 10 -7 9 -17 14 -21 11 -5 -3
-11 -1 -15 5 -7 11 -19 13 -28 4z m8 -110 c28 -3 52 -9 53 -14 2 -6 12 -10 21
-10 21 0 71 -43 95 -80 13 -21 14 -33 5 -64 -6 -21 -9 -47 -6 -57 3 -9 -3 -30
-12 -46 -24 -39 -31 -71 -17 -77 6 -3 2 -4 -9 -3 -12 1 -20 -5 -23 -18 -3 -19
-15 -51 -32 -85 -4 -9 -11 -30 -14 -48 -4 -17 -12 -34 -17 -37 -5 -4 -9 -21
-9 -40 0 -22 -7 -39 -20 -48 -11 -8 -23 -28 -26 -46 -4 -18 -22 -63 -40 -99
-19 -37 -34 -77 -34 -88 0 -12 -7 -27 -15 -34 -8 -7 -15 -17 -15 -22 0 -6 -12
-37 -27 -70 -21 -47 -24 -61 -13 -68 10 -6 8 -11 -9 -21 -11 -8 -21 -21 -21
-29 0 -9 -5 -21 -11 -27 -5 -5 -11 -26 -12 -46 -1 -19 -5 -33 -9 -31 -7 5 -42
-60 -53 -101 -5 -16 -9 -32 -10 -35 -9 -31 -37 -81 -49 -86 -8 -3 -17 -17 -21
-31 -3 -15 -15 -38 -26 -51 -10 -14 -19 -30 -19 -37 0 -6 -11 -25 -24 -40 -14
-16 -28 -46 -31 -67 -4 -21 -17 -51 -29 -66 -26 -33 -56 -95 -65 -134 -1 -4
-9 -24 -17 -43 -8 -20 -12 -40 -9 -45 3 -4 -6 -21 -19 -37 -13 -15 -33 -50
-46 -78 -12 -27 -28 -57 -34 -65 -7 -8 -21 -35 -31 -60 -10 -25 -31 -55 -46
-67 -15 -13 -30 -38 -33 -58 -4 -19 -11 -35 -16 -35 -6 0 -10 -8 -10 -19 0
-10 -11 -35 -25 -55 -14 -20 -25 -40 -25 -45 0 -4 -9 -16 -20 -26 -11 -10 -20
-26 -20 -37 0 -10 -4 -18 -8 -18 -10 0 -92 -123 -92 -138 0 -7 -5 -12 -11 -12
-5 0 -16 -15 -24 -34 -8 -19 -18 -37 -23 -40 -5 -3 -14 -23 -22 -45 -7 -23
-17 -41 -22 -41 -4 0 -8 -8 -8 -19 0 -10 -9 -30 -21 -45 -16 -20 -19 -34 -14
-59 11 -56 16 -67 30 -67 7 0 15 -9 18 -20 3 -11 14 -20 24 -20 10 0 24 -5 29
-10 7 -7 19 -8 36 -1 15 6 41 6 64 1 22 -5 43 -5 49 0 6 5 17 5 25 0 22 -14
51 -12 69 4 9 8 36 17 60 20 24 2 47 9 50 14 3 5 21 12 39 15 26 5 32 3 32
-11 0 -13 4 -11 16 9 18 28 46 42 117 60 26 6 49 15 52 18 2 4 28 4 57 0 42
-5 62 -3 97 12 24 10 55 19 70 19 14 0 40 4 58 9 20 6 35 5 42 -2 15 -15 101
20 128 52 12 14 22 20 23 14 0 -7 6 -13 14 -13 8 0 17 -4 20 -8 7 -11 -23
-154 -36 -169 -7 -9 -51 -11 -156 -8 -96 2 -153 0 -167 -8 -12 -7 -83 -11
-180 -12 -89 -1 -166 -5 -173 -9 -6 -4 -40 -9 -74 -11 -67 -4 -108 -13 -108
-24 0 -7 -85 -11 -305 -14 l-110 -2 -3 45 c-4 47 31 172 55 201 7 8 13 24 13
35 1 10 10 35 20 54 10 19 24 46 31 60 6 14 15 32 20 40 24 42 58 122 64 149
4 17 11 31 16 31 5 0 9 12 9 26 0 14 5 35 12 47 6 12 13 36 15 52 5 54 13 75
28 75 9 0 15 9 15 21 0 11 8 33 18 47 28 40 34 72 14 73 -14 0 -14 2 -2 6 17
7 49 44 50 58 0 6 20 51 44 100 39 81 67 141 71 155 1 3 8 19 15 35 8 17 14
35 15 42 0 6 9 20 21 30 27 24 64 98 64 128 0 14 3 25 8 25 8 0 38 61 34 73
-1 4 18 36 43 71 25 36 45 70 45 77 0 6 14 27 31 47 17 20 38 50 45 68 8 18
18 36 24 39 6 4 8 15 5 24 -3 10 6 34 23 57 16 21 39 60 52 87 13 26 32 56 42
67 10 10 18 23 18 27 0 5 8 13 19 20 10 6 35 47 55 90 21 43 41 85 47 93 5 8
12 22 15 30 4 8 24 52 45 97 22 44 39 85 39 91 0 5 7 15 15 22 8 7 13 16 10
20 -2 4 5 18 16 31 11 13 18 31 16 39 -2 9 2 25 9 35 14 19 12 44 -13 112 -18
50 -139 159 -158 143 -12 -10 -64 -13 -140 -7 -35 2 -60 -2 -82 -14 -25 -14
-47 -17 -108 -13 -55 4 -83 1 -99 -9 -13 -8 -38 -12 -65 -9 -30 3 -46 0 -52
-9 -6 -10 -33 -14 -91 -16 -46 -1 -83 -2 -83 -3 0 -4 -45 -9 -153 -17 l-103
-8 -23 28 c-13 15 -23 39 -22 54 1 26 4 28 81 40 44 8 116 14 160 14 85 0 182
23 201 49 10 12 16 12 36 2 19 -11 31 -10 65 2 26 9 45 11 48 5 4 -5 11 -7 16
-3 6 3 29 8 52 10 78 6 132 16 145 27 7 6 52 12 99 13 48 1 90 8 97 14 7 8 28
9 61 5 28 -4 73 -9 100 -11z m230 -74 c3 -5 1 -10 -4 -10 -6 0 -11 5 -11 10 0
6 2 10 4 10 3 0 8 -4 11 -10z m-90 -320 c3 -5 -1 -10 -9 -10 -9 0 -16 5 -16
10 0 6 4 10 9 10 6 0 13 -4 16 -10z m-257 -765 c-3 -3 -9 2 -12 12 -6 14 -5
15 5 6 7 -7 10 -15 7 -18z m-327 -8 c-10 -9 -11 -8 -5 6 3 10 9 15 12 12 3 -3
0 -11 -7 -18z m164 -267 c3 -5 1 -10 -4 -10 -6 0 -11 5 -11 10 0 6 2 10 4 10
3 0 8 -4 11 -10z m-15 -100 c0 -5 -4 -10 -10 -10 -5 0 -10 5 -10 10 0 6 5 10
10 10 6 0 10 -4 10 -10z m-62 -25 c-3 -3 -9 2 -12 12 -6 14 -5 15 5 6 7 -7 10
-15 7 -18z m-263 -565 c3 -5 1 -10 -4 -10 -6 0 -11 5 -11 10 0 6 2 10 4 10 3
0 8 -4 11 -10z"/>
<path d="M2320 3521 c-20 -3 -49 -16 -64 -29 l-29 -22 16 -55 c12 -44 13 -56
3 -62 -7 -5 -18 -33 -25 -63 -6 -30 -16 -73 -21 -95 -11 -50 -37 -130 -56
-172 -8 -17 -14 -45 -14 -61 0 -17 -4 -34 -10 -37 -5 -3 -10 -18 -10 -33 0
-26 -21 -94 -39 -130 -10 -19 -34 -117 -36 -147 -1 -11 -6 -31 -12 -45 -5 -14
-11 -49 -12 -79 -1 -29 -7 -63 -13 -75 -17 -30 -18 -39 -25 -146 -3 -52 -8
-97 -12 -100 -3 -3 -7 -18 -8 -34 0 -16 -7 -39 -14 -52 -10 -20 -10 -27 4 -42
10 -11 13 -22 8 -28 -8 -9 -33 -135 -30 -151 1 -4 0 -15 -4 -23 -15 -41 -28
-240 -15 -240 12 0 10 -48 -2 -55 -6 -4 -10 -14 -9 -23 1 -10 0 -19 -1 -22
-14 -27 -17 -237 -6 -340 3 -30 9 -95 11 -145 3 -49 10 -112 15 -138 6 -26 10
-63 10 -81 0 -58 66 -270 91 -292 10 -9 21 -32 25 -50 3 -18 12 -38 20 -45 8
-6 14 -17 14 -23 0 -6 14 -38 30 -71 16 -33 30 -65 30 -70 0 -6 13 -16 30 -22
17 -6 30 -17 30 -25 0 -8 20 -19 47 -27 26 -6 55 -19 64 -27 9 -8 42 -21 75
-30 32 -8 72 -22 88 -30 34 -16 78 -18 92 -4 6 6 33 12 62 14 28 3 60 9 70 15
11 6 36 13 56 15 20 2 55 17 78 33 24 15 61 37 82 48 33 17 110 88 158 146 21
26 78 143 78 162 0 9 4 17 8 17 5 0 15 19 22 43 8 23 17 47 20 52 8 12 20 73
25 132 2 23 8 50 14 61 7 13 8 38 2 74 -5 29 -9 60 -10 68 0 19 -5 38 -20 74
-6 16 -10 35 -7 42 2 7 2 15 -2 19 -4 4 -7 10 -8 13 0 4 -6 20 -12 35 -7 16
-12 33 -12 38 0 5 -4 9 -9 9 -5 0 -17 17 -26 37 -33 71 -259 273 -304 273 -7
0 -20 9 -29 19 -10 11 -44 34 -77 52 -33 17 -71 40 -84 50 -13 11 -29 19 -35
19 -7 0 -22 8 -35 18 -12 9 -35 26 -49 37 -15 11 -40 27 -57 34 -16 7 -37 17
-45 22 -8 5 -41 23 -72 41 -32 18 -58 37 -58 43 0 6 7 21 16 33 8 12 12 27 8
33 -9 16 -6 99 4 113 10 12 13 32 36 241 14 117 32 203 57 260 12 28 39 167
49 251 4 40 13 80 18 90 6 11 11 37 13 59 1 22 6 45 11 51 13 18 38 107 38
139 0 17 10 62 21 100 11 39 24 88 28 110 9 52 8 181 -2 191 -4 4 -42 9 -84
10 -43 2 -91 6 -108 8 -16 2 -46 1 -65 -3z m157 -134 c11 -11 10 -29 -7 -112
-11 -55 -24 -101 -30 -103 -5 -2 -10 -12 -10 -22 0 -10 -4 -21 -9 -24 -4 -3
-7 -24 -6 -46 2 -29 -2 -40 -12 -40 -8 0 -12 -4 -8 -9 3 -5 1 -12 -5 -16 -5
-3 -10 -24 -10 -45 0 -21 -5 -42 -10 -45 -8 -5 -8 -11 0 -20 8 -9 7 -14 -4
-18 -16 -6 -24 -50 -43 -238 -4 -42 -13 -82 -19 -90 -6 -8 -14 -27 -18 -44 -3
-16 -9 -41 -11 -53 -3 -13 -7 -41 -9 -63 -2 -21 -8 -44 -14 -51 -5 -7 -15 -47
-21 -87 -7 -41 -15 -80 -20 -85 -11 -15 -30 -121 -33 -186 0 -8 -8 -24 -18
-35 -10 -11 -18 -27 -18 -35 0 -8 -5 -41 -12 -72 -7 -36 -8 -64 -2 -74 11 -20
-8 -89 -41 -149 -18 -31 -23 -53 -20 -89 3 -34 -2 -56 -13 -75 -10 -14 -19
-39 -20 -56 -1 -16 -5 -47 -8 -69 -2 -21 -1 -48 4 -60 10 -27 -11 -138 -27
-143 -17 -6 -23 30 -20 112 2 39 0 84 -4 102 -4 17 -2 36 3 41 6 6 9 46 8 89
-5 128 -2 168 19 298 5 32 11 95 12 140 1 44 6 85 11 92 5 6 8 17 7 25 -4 18
19 213 31 266 6 23 10 58 10 77 0 18 5 37 10 40 6 3 10 21 10 38 0 18 7 65 15
106 9 40 13 76 10 79 -3 3 2 13 10 22 13 14 56 162 58 203 1 9 4 17 7 17 3 0
12 20 19 46 7 25 20 52 28 60 12 11 12 18 3 29 -9 11 -9 23 1 52 7 21 14 40
14 43 9 39 28 99 35 112 5 10 7 24 4 33 -3 8 -1 15 5 15 6 0 11 8 11 18 0 42
32 111 53 115 34 8 89 -1 104 -16z m-165 -1702 c6 -27 1 -30 -21 -16 -8 5 -11
16 -8 25 9 24 24 19 29 -9z m-72 -4 c0 -10 -30 -24 -37 -17 -3 3 -2 9 2 15 8
13 35 15 35 2z m165 -42 c19 -18 19 -18 -13 -15 -39 5 -52 13 -52 32 0 20 37
10 65 -17z m-111 -114 c34 -2 63 -4 66 -6 3 -1 19 -3 35 -4 66 -5 134 -29 144
-52 11 -25 31 -31 31 -10 1 7 6 5 14 -5 7 -10 17 -18 23 -18 15 0 63 -24 63
-32 0 -4 18 -24 40 -44 22 -21 40 -43 40 -49 0 -23 32 -75 46 -75 8 0 14 -7
14 -16 0 -8 8 -34 19 -57 10 -23 22 -51 26 -62 11 -27 15 -77 8 -95 -3 -8 -5
-36 -4 -62 3 -51 -9 -98 -40 -163 -10 -22 -19 -57 -19 -77 0 -20 -5 -40 -11
-44 -6 -3 -19 -25 -29 -49 -10 -23 -53 -79 -97 -123 -64 -66 -83 -80 -101 -75
-12 3 -28 0 -35 -6 -8 -6 -33 -8 -65 -4 -45 5 -55 11 -93 54 -24 27 -47 49
-53 49 -26 1 -117 170 -135 251 -6 26 -16 59 -22 75 -34 86 -40 187 -25 449 6
105 29 255 43 278 3 4 16 0 31 -9 15 -10 50 -18 86 -19z m576 -185 c0 -5 -2
-10 -4 -10 -3 0 -8 5 -11 10 -3 6 -1 10 4 10 6 0 11 -4 11 -10z m53 -52 c8
-13 38 -47 66 -76 37 -39 57 -70 71 -114 11 -34 24 -66 29 -72 9 -11 11 -23
31 -160 11 -78 11 -80 -19 -140 -16 -34 -32 -81 -36 -106 -4 -25 -14 -54 -21
-65 -8 -11 -14 -26 -14 -35 0 -8 -11 -28 -25 -44 -14 -16 -25 -35 -25 -42 0
-19 -105 -124 -124 -124 -9 0 -16 -6 -16 -14 0 -14 -49 -36 -81 -36 -11 0 -19
-7 -19 -15 0 -8 -8 -15 -18 -15 -10 0 -23 -5 -28 -10 -6 -6 -31 -11 -55 -12
-24 -1 -52 -8 -61 -16 -9 -8 -22 -11 -28 -7 -19 12 -59 15 -65 5 -3 -5 -13
-10 -22 -10 -23 0 -113 42 -113 52 0 4 -6 8 -14 8 -8 0 -30 18 -49 40 -19 22
-39 40 -44 40 -28 0 -123 151 -123 195 0 17 2 16 25 -5 14 -13 25 -29 25 -36
0 -7 9 -18 20 -24 11 -6 20 -20 20 -30 0 -11 6 -20 13 -20 7 0 19 -16 27 -35
11 -28 22 -38 53 -47 21 -6 44 -19 50 -27 7 -9 34 -22 60 -29 57 -14 144 -2
214 29 38 18 153 120 153 137 0 4 9 13 20 20 11 7 20 18 20 26 0 7 10 24 23
38 33 36 68 113 88 193 10 38 25 93 33 122 8 29 18 99 22 157 6 88 4 112 -12
155 -10 28 -24 51 -31 51 -7 0 -16 12 -19 28 -4 15 -11 29 -15 32 -4 3 -11 18
-14 33 -9 33 7 36 28 5z m-893 -403 c0 -8 -4 -15 -10 -15 -5 0 -10 7 -10 15 0
8 5 15 10 15 6 0 10 -7 10 -15z m65 -254 c4 -25 9 -54 12 -63 3 -12 -1 -18
-12 -18 -9 0 -13 5 -10 11 4 5 -1 19 -11 30 -9 10 -15 22 -11 25 3 3 -1 21 -9
39 -8 19 -14 42 -14 51 0 15 4 14 25 -6 16 -15 26 -38 30 -69z"/>
<path d="M375 2950 c-8 -13 20 -24 41 -16 20 8 9 26 -16 26 -10 0 -22 -5 -25
-10z"/>
</g>
</svg>
