<?xml version="1.0" standalone="no"?>
<!DOCTYPE svg PUBLIC "-//W3C//DTD SVG 20010904//EN"
 "http://www.w3.org/TR/2001/REC-SVG-20010904/DTD/svg10.dtd">
<svg version="1.0" xmlns="http://www.w3.org/2000/svg"
 width="100.000000pt" height="117.469880pt" viewBox="0 0 100.000000 117.469880"
 preserveAspectRatio="xMidYMid meet">
<metadata>
Created by potrace 1.11, written by Peter Selinger 2001-2013
</metadata>
<g transform="translate(0.000000,117.469880) scale(0.060241,-0.060241)"
fill="#000000" stroke="none">
<path d="M493 1799 c-18 -12 -33 -27 -33 -34 0 -7 -20 -31 -45 -53 -24 -21
-66 -66 -92 -98 -27 -32 -58 -69 -70 -82 -13 -13 -23 -34 -23 -48 0 -33 -24
-88 -49 -113 -26 -26 -26 -37 -2 -44 26 -6 53 14 125 90 32 35 65 63 73 63 7
0 16 8 20 18 8 21 33 52 44 52 10 0 9 -356 -2 -390 -4 -14 -10 -49 -14 -78 -5
-48 -4 -54 15 -59 20 -5 29 -23 11 -23 -20 0 -34 -187 -20 -278 12 -80 1 -103
-71 -139 -33 -17 -56 -36 -59 -47 -4 -27 -36 -52 -101 -82 -29 -13 -56 -27
-59 -30 -5 -5 56 -64 67 -64 13 0 108 38 184 74 41 19 85 37 99 41 13 3 40 19
59 35 19 17 40 33 45 37 23 18 68 33 99 33 37 0 96 46 96 74 0 29 -44 41 -92
26 -42 -13 -94 -21 -153 -24 l-30 -1 3 115 c2 63 7 131 11 150 6 29 4 39 -16
60 -30 32 -29 38 10 42 23 2 31 7 28 18 -14 48 17 457 44 578 11 51 11 75 2
120 -17 83 -45 99 -104 61z"/>
<path d="M1240 1785 c-36 -12 -78 -27 -93 -33 -16 -7 -31 -12 -35 -12 -4 0
-25 -10 -47 -21 -22 -12 -60 -28 -86 -35 -81 -24 -92 -66 -24 -97 44 -21 56
-19 189 35 38 16 80 30 94 33 24 4 25 4 18 -53 -9 -77 -44 -252 -56 -280 -7
-15 -44 -40 -115 -74 -103 -50 -106 -52 -103 -82 3 -31 4 -31 58 -31 30 0 68
4 84 8 27 8 28 7 22 -20 -18 -70 -18 -93 -2 -99 20 -8 21 -24 1 -24 -8 0 -15
-6 -15 -14 0 -7 -7 -19 -15 -26 -8 -7 -15 -27 -15 -46 0 -18 -6 -53 -14 -76
-22 -70 -48 -207 -41 -218 4 -6 2 -16 -3 -23 -18 -23 -42 -178 -42 -272 0 -88
-1 -95 -20 -95 -16 0 -20 -7 -20 -36 0 -19 -4 -43 -10 -53 -7 -15 -2 -23 32
-45 60 -39 73 -23 81 97 6 91 12 133 24 172 3 11 7 47 9 80 3 54 20 148 44
230 5 17 11 50 15 75 4 25 13 60 21 78 22 48 35 141 23 163 -12 24 -4 39 22
39 12 0 19 7 19 18 0 10 9 36 19 58 11 22 23 51 26 65 12 47 64 90 130 108 51
13 111 62 103 83 -5 13 -22 15 -92 12 l-86 -4 6 47 c3 26 12 63 20 81 8 19 14
46 14 61 0 15 4 31 9 36 5 6 12 52 16 103 7 102 10 97 -60 105 -26 3 -64 -4
-105 -18z"/>
<path d="M1553 1373 c-14 -5 -18 -23 -5 -23 5 0 17 7 28 15 14 11 15 14 4 14
-8 0 -21 -3 -27 -6z"/>
</g>
</svg>
